<?xml version="1.0" encoding="utf-8"?>
<!-- Generator: Adobe Illustrator 16.0.0, SVG Export Plug-In . SVG Version: 6.00 Build 0)  -->
<!DOCTYPE svg PUBLIC "-//W3C//DTD SVG 1.1//EN" "http://www.w3.org/Graphics/SVG/1.1/DTD/svg11.dtd">
<svg version="1.1" id="图层_1" xmlns="http://www.w3.org/2000/svg" xmlns:xlink="http://www.w3.org/1999/xlink" x="0px" y="0px"
	 width="408.931px" height="362.266px" viewBox="0 0 408.931 362.266" enable-background="new 0 0 408.931 362.266"
	 xml:space="preserve">
<g>
	<g>
		<path fill="#212830" d="M180.76,190.167c1.262,0,2.379,0.273,3.352,0.821c0.972,0.547,1.734,1.356,2.286,2.427
			c0.551,1.07,0.827,2.181,0.827,3.33c0,2.039-0.591,4.178-1.774,6.417c-1.183,2.24-2.728,3.948-4.635,5.127
			c-1.907,1.178-3.88,1.767-5.918,1.767c-1.468,0-2.695-0.325-3.681-0.975c-0.987-0.649-1.716-1.508-2.188-2.573
			c-0.472-1.066-0.708-2.1-0.708-3.101c0-1.775,0.428-3.531,1.283-5.266s1.876-3.184,3.064-4.348
			c1.188-1.165,2.454-2.061,3.801-2.687C177.815,190.482,179.246,190.167,180.76,190.167z M180.284,191.066
			c-0.935,0-1.849,0.231-2.742,0.694c-0.893,0.462-1.779,1.22-2.658,2.272c-0.879,1.051-1.669,2.428-2.37,4.13
			c-0.86,2.095-1.29,4.072-1.29,5.933c0,1.328,0.341,2.504,1.024,3.527c0.682,1.024,1.729,1.536,3.141,1.536
			c0.851,0,1.685-0.21,2.503-0.631c0.818-0.421,1.671-1.141,2.559-2.16c1.113-1.281,2.047-2.915,2.805-4.901
			c0.757-1.987,1.136-3.842,1.136-5.562c0-1.271-0.341-2.396-1.024-3.374C182.686,191.554,181.658,191.066,180.284,191.066z"/>
	</g>
	<g>
		<path fill="#212830" d="M334.702,65.871l-1.444,15.821c-0.075,0.739-0.112,1.225-0.112,1.459c0,0.374,0.07,0.659,0.211,0.855
			c0.177,0.271,0.418,0.472,0.722,0.603s0.815,0.196,1.536,0.196l-0.154,0.519h-7.489l0.154-0.519h0.322
			c0.608,0,1.104-0.131,1.487-0.393c0.271-0.178,0.481-0.472,0.631-0.884c0.103-0.29,0.201-0.972,0.294-2.047l0.225-2.413h-5.441
			l-1.935,2.623c-0.439,0.589-0.716,1.012-0.828,1.27c-0.111,0.257-0.168,0.498-0.168,0.722c0,0.299,0.121,0.557,0.364,0.771
			c0.243,0.215,0.646,0.332,1.206,0.351l-0.154,0.519h-5.623l0.154-0.519c0.692-0.028,1.302-0.259,1.83-0.694
			c0.528-0.435,1.315-1.362,2.363-2.784l11.359-15.457H334.702z M331.926,70.542l-5.512,7.503h4.782L331.926,70.542z"/>
	</g>
	<g>
		<path fill="#212830" d="M305.5,191.341l0.196-0.52h6.788c1.14,0,2.157,0.178,3.05,0.533s1.562,0.851,2.005,1.486
			c0.444,0.637,0.667,1.309,0.667,2.02c0,1.094-0.396,2.083-1.186,2.967c-0.79,0.883-2.078,1.535-3.863,1.957
			c1.149,0.43,1.996,1,2.538,1.711s0.813,1.491,0.813,2.342c0,0.944-0.243,1.847-0.729,2.707s-1.11,1.528-1.872,2.006
			c-0.762,0.477-1.681,0.827-2.756,1.052c-0.767,0.159-1.963,0.238-3.59,0.238h-6.97l0.183-0.519
			c0.729-0.019,1.225-0.089,1.486-0.211c0.374-0.159,0.641-0.369,0.799-0.631c0.225-0.355,0.524-1.169,0.898-2.44l3.407-11.515
			c0.29-0.973,0.435-1.655,0.435-2.049c0-0.346-0.128-0.619-0.386-0.82c-0.257-0.201-0.745-0.301-1.465-0.301
			C305.79,191.355,305.641,191.35,305.5,191.341z M305.584,208.606c1.01,0.131,1.8,0.196,2.37,0.196
			c1.459,0,2.751-0.439,3.878-1.318c1.126-0.879,1.689-2.071,1.689-3.576c0-1.15-0.349-2.048-1.045-2.693
			c-0.696-0.645-1.82-0.967-3.372-0.967c-0.3,0-0.664,0.014-1.094,0.041L305.584,208.606z M308.347,199.237
			c0.608,0.019,1.047,0.028,1.318,0.028c1.944,0,3.392-0.423,4.341-1.27c0.948-0.846,1.423-1.904,1.423-3.177
			c0-0.963-0.29-1.714-0.869-2.251c-0.58-0.537-1.506-0.807-2.776-0.807c-0.337,0-0.768,0.057-1.291,0.168L308.347,199.237z"/>
	</g>
	<g>
		<path fill="#212830" d="M371.814,210.056l1.57-7.055h0.478c-0.065,0.683-0.099,1.248-0.099,1.697c0,1.281,0.409,2.323,1.228,3.128
			c0.817,0.804,1.886,1.206,3.204,1.206c1.225,0,2.155-0.377,2.791-1.129c0.636-0.753,0.953-1.62,0.953-2.603
			c0-0.636-0.145-1.215-0.435-1.739c-0.439-0.775-1.612-2.141-3.52-4.095c-0.926-0.935-1.52-1.632-1.781-2.09
			c-0.431-0.757-0.646-1.552-0.646-2.385c0-1.327,0.496-2.464,1.486-3.408c0.991-0.944,2.263-1.417,3.814-1.417
			c0.523,0,1.02,0.053,1.487,0.154c0.289,0.057,0.817,0.244,1.584,0.562c0.542,0.216,0.842,0.332,0.897,0.351
			c0.131,0.028,0.276,0.043,0.436,0.043c0.271,0,0.505-0.07,0.701-0.211s0.425-0.439,0.687-0.898h0.533l-1.459,6.313h-0.477
			c0.037-0.562,0.057-1.015,0.057-1.361c0-1.131-0.374-2.057-1.122-2.776s-1.734-1.08-2.959-1.08c-0.973,0-1.763,0.285-2.37,0.855
			c-0.608,0.57-0.912,1.229-0.912,1.978c0,0.654,0.194,1.279,0.582,1.873c0.389,0.594,1.281,1.561,2.679,2.902
			s2.303,2.39,2.714,3.143c0.411,0.752,0.617,1.555,0.617,2.404c0,0.964-0.255,1.896-0.765,2.799s-1.241,1.602-2.194,2.097
			c-0.954,0.495-1.996,0.743-3.128,0.743c-0.561,0-1.084-0.052-1.57-0.154s-1.262-0.355-2.328-0.757
			c-0.364-0.141-0.668-0.211-0.911-0.211c-0.552,0-0.981,0.374-1.29,1.122H371.814z"/>
	</g>
	<polyline fill="none" stroke="#212830" stroke-linecap="square" stroke-miterlimit="10" points="313.118,78.89 312.588,83.964 
		312.279,86.479 311.971,89.039 311.706,91.554 311.397,94.113 311.044,96.628 310.735,99.143 310.383,101.702 310.029,104.217 
		309.633,106.732 309.235,109.248 309.015,110.483 308.794,111.762 308.573,112.998 308.353,114.233 308.133,115.513 
		307.912,116.749 307.647,117.984 307.383,119.263 307.118,120.499 306.853,121.734 306.588,122.97 306.279,124.205 306.015,125.44 
		305.706,126.676 305.397,127.912 305.088,129.147 304.735,130.382 304.427,131.618 304.073,132.854 303.721,134.089 
		303.323,135.324 302.971,136.516 302.573,137.751 302.177,138.986 301.779,140.178 301.338,141.413 300.941,142.604 300.5,143.84 
		300.059,145.031 299.573,146.223 299.133,147.414 298.647,148.649 298.162,149.841 297.633,151.032 297.147,152.224 
		296.618,153.371 296.088,154.562 295.559,155.753 294.985,156.945 294.456,158.092 293.883,159.283 293.309,160.431 
		292.735,161.622 292.118,162.769 291.544,163.917 290.927,165.063 290.309,166.21 289.691,167.358 289.029,168.505 
		288.368,169.608 287.75,170.755 287.088,171.858 286.383,173.006 285.721,174.109 285.015,175.212 284.353,176.315 
		283.647,177.418 282.897,178.521 282.191,179.624 281.485,180.727 280.735,181.787 279.985,182.845 279.235,183.949 
		278.485,185.007 277.691,186.066 276.941,187.125 276.147,188.14 275.353,189.199 274.56,190.214 273.765,191.273 272.927,192.288 
		272.132,193.302 271.294,194.318 270.456,195.332 269.618,196.302 268.779,197.318 267.897,198.289 267.06,199.259 
		266.177,200.274 265.294,201.201 264.411,202.171 263.529,203.142 262.647,204.069 261.721,204.996 260.839,205.921 
		259.911,206.848 258.985,207.775 258.06,208.702 257.132,209.584 256.206,210.466 255.235,211.349 254.31,212.231 253.339,213.114 
		252.368,213.997 251.397,214.834 250.427,215.673 249.456,216.511 248.485,217.35 247.471,218.188 246.5,218.982 245.485,219.777 
		244.471,220.571 243.456,221.365 242.441,222.159 241.427,222.91 240.411,223.66 239.397,224.41 238.339,225.16 237.323,225.91 
		236.265,226.616 235.206,227.322 234.191,228.028 233.132,228.734 232.073,229.395 230.971,230.101 229.911,230.763 
		228.853,231.425 227.75,232.087 226.691,232.705 225.589,233.323 224.485,233.94 223.427,234.558 222.323,235.175 221.221,235.75 
		220.118,236.367 218.971,236.941 217.868,237.514 216.765,238.043 215.618,238.618 214.515,239.147 213.368,239.676 
		212.221,240.206 211.118,240.735 209.971,241.264 208.823,241.75 207.677,242.28 206.529,242.765 205.339,243.25 204.191,243.692 
		203.044,244.176 201.853,244.618 200.706,245.103 199.515,245.544 198.368,245.986 197.177,246.383 195.985,246.825 
		194.794,247.221 193.603,247.663 192.412,248.06 191.221,248.457 190.029,248.854 188.838,249.207 187.647,249.604 
		186.412,249.957 185.221,250.354 184.029,250.708 182.794,251.06 181.559,251.413 180.368,251.722 179.132,252.075 
		177.897,252.428 176.662,252.737 175.427,253.045 174.235,253.354 173,253.664 171.721,253.972 170.485,254.281 169.25,254.545 
		166.779,255.12 164.265,255.693 161.75,256.222 159.235,256.708 156.721,257.237 154.162,257.678 151.603,258.164 149.088,258.605 
		146.529,259.046 143.971,259.444 141.368,259.84 138.809,260.238 136.206,260.59 133.647,260.944 131.044,261.296 128.441,261.65 
		125.838,262.002 123.235,262.311 120.632,262.621 117.985,262.929 115.382,263.194 112.735,263.502 110.132,263.768 
		107.485,264.077 102.235,264.606 96.985,265.135 91.691,265.621 86.397,266.15 	"/>
	<polyline fill="none" stroke="#212830" stroke-linecap="square" stroke-miterlimit="10" points="86.397,266.15 87.456,261.076 
		88.515,256.001 89.574,250.927 90.103,248.369 90.632,245.854 91.206,243.338 91.735,240.78 92.309,238.264 92.882,235.75 
		93.456,233.234 94.074,230.719 94.647,228.204 95.265,225.689 95.927,223.174 96.544,220.659 97.206,218.144 97.868,215.673 
		98.574,213.158 99.279,210.687 100.029,208.216 100.735,205.702 101.529,203.23 102.324,200.759 103.118,198.289 103.515,197.097 
		103.956,195.862 104.353,194.626 104.794,193.39 105.235,192.156 105.677,190.964 106.118,189.728 106.559,188.494 107,187.302 
		107.485,186.066 107.971,184.875 108.412,183.639 108.897,182.449 109.427,181.212 109.912,180.021 110.397,178.786 
		110.927,177.594 111.456,176.403 111.985,175.212 112.515,173.977 113.044,172.785 113.618,171.594 114.147,170.402 
		114.721,169.211 115.294,168.02 115.868,166.829 116.485,165.637 117.059,164.49 117.677,163.298 118.294,162.107 118.912,160.96 
		119.529,159.769 120.147,158.622 120.809,157.474 121.471,156.283 122.132,155.136 122.794,153.988 123.456,152.841 
		124.118,151.738 124.824,150.591 125.529,149.444 126.235,148.341 126.941,147.238 127.647,146.09 128.397,144.987 
		129.103,143.928 129.853,142.825 130.603,141.722 131.353,140.663 132.103,139.56 132.897,138.501 133.691,137.442 
		134.441,136.427 135.235,135.368 136.029,134.354 136.868,133.294 137.662,132.28 138.5,131.265 139.338,130.294 140.177,129.279 
		141.015,128.309 141.853,127.338 142.735,126.367 143.574,125.396 144.456,124.47 145.338,123.543 146.221,122.617 147.147,121.69 
		148.029,120.808 148.956,119.925 149.838,119.042 150.765,118.16 151.691,117.278 152.662,116.439 153.588,115.601 
		154.559,114.807 155.529,113.968 156.456,113.174 157.471,112.38 158.441,111.63 159.412,110.835 160.427,110.085 161.397,109.379 
		162.412,108.629 163.427,107.923 164.485,107.218 165.5,106.512 166.515,105.85 167.574,105.188 168.632,104.526 169.691,103.864 
		170.75,103.247 171.809,102.629 172.868,102.011 173.971,101.393 175.029,100.82 176.132,100.246 177.235,99.672 178.338,99.099 
		179.441,98.569 180.544,98.04 181.691,97.51 182.794,96.981 183.941,96.496 185.088,95.966 186.235,95.481 187.382,95.04 
		188.529,94.554 189.677,94.069 190.868,93.627 192.015,93.187 193.206,92.789 194.397,92.348 195.544,91.951 196.735,91.51 
		197.971,91.157 199.162,90.759 200.353,90.362 201.588,90.009 202.779,89.657 204.015,89.303 205.25,88.951 206.441,88.598 
		207.677,88.289 208.911,87.936 210.191,87.627 211.427,87.318 212.661,87.053 213.941,86.744 215.177,86.479 216.456,86.171 
		217.735,85.906 218.971,85.641 220.25,85.42 221.529,85.156 222.81,84.935 224.132,84.67 225.411,84.45 226.691,84.229 
		228.015,84.009 229.294,83.788 230.618,83.612 231.897,83.391 233.221,83.214 234.544,83.038 235.868,82.861 237.191,82.685 
		238.515,82.508 239.839,82.332 241.161,82.2 242.485,82.023 243.853,81.891 245.177,81.758 246.5,81.626 249.235,81.361 
		251.927,81.097 254.618,80.876 257.353,80.699 260.089,80.479 262.823,80.302 265.56,80.17 268.339,80.038 271.118,79.905 
		273.853,79.773 276.633,79.641 279.412,79.552 282.235,79.464 285.015,79.375 287.794,79.332 290.618,79.243 293.441,79.199 
		296.221,79.111 301.868,79.023 307.515,78.979 313.118,78.89 	"/>
	
		<line fill="none" stroke="#212830" stroke-linecap="square" stroke-miterlimit="10" x1="195.368" y1="182.05" x2="313.118" y2="78.89"/>
	<polyline fill="none" stroke="#212830" stroke-linecap="square" stroke-miterlimit="10" points="305.883,85.244 311.75,91.068 
		313.118,92.48 	"/>
	
		<line fill="none" stroke="#212830" stroke-linecap="square" stroke-miterlimit="10" x1="298.118" y1="92.039" x2="310.073" y2="103.953"/>
	
		<line fill="none" stroke="#212830" stroke-linecap="square" stroke-miterlimit="10" x1="310.073" y1="103.953" x2="313.118" y2="107.041"/>
	<polyline fill="none" stroke="#212830" stroke-linecap="square" stroke-miterlimit="10" points="290.397,98.834 307.956,116.395 
		313.118,121.602 	"/>
	<polyline fill="none" stroke="#212830" stroke-linecap="square" stroke-miterlimit="10" points="282.633,105.629 305.309,128.309 
		313.118,136.163 	"/>
	<polyline fill="none" stroke="#212830" stroke-linecap="square" stroke-miterlimit="10" points="274.868,112.424 302,139.56 
		313.118,150.723 	"/>
	<polyline fill="none" stroke="#212830" stroke-linecap="square" stroke-miterlimit="10" points="267.103,119.219 297.985,150.15 
		313.118,165.284 	"/>
	<polyline fill="none" stroke="#212830" stroke-linecap="square" stroke-miterlimit="10" points="259.339,126.014 293.441,160.166 
		313.118,179.845 	"/>
	<polyline fill="none" stroke="#212830" stroke-linecap="square" stroke-miterlimit="10" points="251.573,132.809 288.368,169.652 
		300.765,182.05 	"/>
	<polyline fill="none" stroke="#212830" stroke-linecap="square" stroke-miterlimit="10" points="243.81,139.604 282.809,178.653 
		286.206,182.05 	"/>
	
		<line fill="none" stroke="#212830" stroke-linecap="square" stroke-miterlimit="10" x1="236.044" y1="146.399" x2="271.647" y2="182.05"/>
	
		<line fill="none" stroke="#212830" stroke-linecap="square" stroke-miterlimit="10" x1="228.279" y1="153.238" x2="257.089" y2="182.05"/>
	
		<line fill="none" stroke="#212830" stroke-linecap="square" stroke-miterlimit="10" x1="220.515" y1="160.033" x2="242.529" y2="182.05"/>
	
		<line fill="none" stroke="#212830" stroke-linecap="square" stroke-miterlimit="10" x1="212.75" y1="166.829" x2="227.971" y2="182.05"/>
	
		<line fill="none" stroke="#212830" stroke-linecap="square" stroke-miterlimit="10" x1="204.985" y1="173.624" x2="213.411" y2="182.05"/>
	
		<line fill="none" stroke="#212830" stroke-linecap="square" stroke-miterlimit="10" x1="197.221" y1="180.418" x2="198.853" y2="182.05"/>
	
		<line fill="none" stroke="#212830" stroke-linecap="square" stroke-miterlimit="10" x1="313.118" y1="78.89" x2="313.118" y2="182.05"/>
	<polygon fill-rule="evenodd" clip-rule="evenodd" fill="#212830" points="387.677,179.006 387.677,185.095 405.897,182.05 	"/>
	<polygon fill="none" stroke="#212830" stroke-linecap="square" stroke-miterlimit="10" points="387.677,179.006 387.677,185.095 
		405.897,182.05 387.677,179.006 	"/>
	<polygon fill-rule="evenodd" clip-rule="evenodd" fill="#212830" points="192.324,21.309 198.412,21.309 195.368,3.042 	"/>
	<polygon fill="none" stroke="#212830" stroke-linecap="square" stroke-miterlimit="10" points="192.324,21.309 198.412,21.309 
		195.368,3.042 192.324,21.309 	"/>
	<g>
		<path fill="#212830" d="M172.544,5.855l-2.244,7.532h2.496c1.122,0,1.961-0.173,2.517-0.519c0.556-0.346,1.129-1.084,1.718-2.216
			h0.533l-1.978,6.928h-0.561c0.141-0.561,0.21-1.023,0.21-1.388c0-0.57-0.189-1.012-0.568-1.326
			c-0.378-0.313-1.087-0.47-2.125-0.47h-2.524l-1.655,5.736c-0.299,1.02-0.449,1.697-0.449,2.034c0,0.346,0.128,0.613,0.386,0.8
			c0.257,0.187,0.886,0.313,1.886,0.378l-0.168,0.519h-7.517l0.182-0.519c0.729-0.019,1.215-0.084,1.458-0.196
			c0.374-0.159,0.65-0.374,0.828-0.645c0.252-0.383,0.551-1.173,0.897-2.371l3.352-11.458c0.271-0.926,0.407-1.65,0.407-2.174
			c0-0.243-0.061-0.451-0.182-0.624c-0.122-0.173-0.302-0.302-0.54-0.386s-0.713-0.126-1.423-0.126l0.168-0.519h14.753L181,9.656
			h-0.533c0.103-0.58,0.154-1.057,0.154-1.431c0-0.617-0.171-1.105-0.512-1.465c-0.341-0.36-0.778-0.615-1.312-0.765
			c-0.374-0.093-1.211-0.14-2.51-0.14H172.544z"/>
	</g>
	
		<line fill="none" stroke="#212830" stroke-linecap="square" stroke-miterlimit="10" x1="0.5" y1="182.05" x2="387.677" y2="182.05"/>
	
		<line fill="none" stroke="#212830" stroke-linecap="square" stroke-miterlimit="10" x1="195.368" y1="361.766" x2="195.368" y2="11.558"/>
</g>
</svg>
