<?xml version="1.0" encoding="utf-8"?>
<!-- Generator: Adobe Illustrator 16.0.0, SVG Export Plug-In . SVG Version: 6.00 Build 0)  -->
<!DOCTYPE svg PUBLIC "-//W3C//DTD SVG 1.1//EN" "http://www.w3.org/Graphics/SVG/1.1/DTD/svg11.dtd">
<svg xmlns="http://www.w3.org/2000/svg" xmlns:xlink="http://www.w3.org/1999/xlink" version="1.1" id="图层_1" x="0px" y="0px" width="346.938px" height="154.225px" viewBox="0 0 346.938 154.225" xml:space="preserve">
<g>
	<polygon fill="none" stroke="#212830" stroke-width="0.5" stroke-linecap="square" stroke-miterlimit="10" points="28.138,50.298    15.562,72.102 28.138,93.86 53.246,93.86 65.822,72.102 53.246,50.298 28.138,50.298  "/>
	
		<line fill="none" stroke="#212830" stroke-width="0.5" stroke-linecap="square" stroke-miterlimit="10" x1="15.562" y1="61.553" x2="15.562" y2="12.164"/>
	
		<line fill="none" stroke="#212830" stroke-width="0.5" stroke-linecap="square" stroke-miterlimit="10" x1="65.822" y1="61.553" x2="65.822" y2="12.164"/>
	
		<line fill="none" stroke="#212830" stroke-width="0.5" stroke-linecap="square" stroke-miterlimit="10" x1="23.108" y1="18.166" x2="58.321" y2="18.166"/>
	<polygon fill-rule="evenodd" clip-rule="evenodd" fill="#212830" points="23.108,16.93 23.108,19.446 15.562,18.166  "/>
	<polygon fill="none" stroke="#212830" stroke-width="0.5" stroke-linecap="square" stroke-miterlimit="10" points="23.108,16.93    23.108,19.446 15.562,18.166 23.108,16.93  "/>
	<polygon fill-rule="evenodd" clip-rule="evenodd" fill="#212830" points="58.321,16.93 58.321,19.446 65.822,18.166  "/>
	<g>
		<path fill="#212830" d="M32.66,2.478c0.335-0.791,0.758-1.402,1.269-1.832C34.439,0.215,35.076,0,35.838,0    c0.941,0,1.663,0.306,2.166,0.918c0.381,0.457,0.572,0.944,0.572,1.464c0,0.855-0.537,1.739-1.611,2.651    c0.722,0.283,1.268,0.688,1.637,1.213c0.369,0.526,0.554,1.144,0.554,1.854c0,1.017-0.323,1.897-0.97,2.643    c-0.843,0.97-2.064,1.456-3.664,1.456c-0.792,0-1.33-0.098-1.616-0.294c-0.286-0.196-0.429-0.407-0.429-0.633    c0-0.167,0.068-0.314,0.204-0.442c0.136-0.127,0.299-0.19,0.489-0.19c0.145,0,0.292,0.023,0.442,0.069    c0.098,0.029,0.32,0.134,0.667,0.316c0.347,0.182,0.586,0.29,0.719,0.325c0.214,0.063,0.442,0.095,0.685,0.095    c0.589,0,1.101-0.228,1.537-0.685c0.436-0.456,0.654-0.996,0.654-1.62c0-0.457-0.101-0.901-0.303-1.334    c-0.15-0.323-0.315-0.569-0.494-0.736c-0.249-0.231-0.589-0.44-1.022-0.628C35.622,6.253,35.18,6.16,34.729,6.16h-0.277V5.9    c0.456-0.058,0.914-0.223,1.373-0.494c0.459-0.271,0.793-0.598,1-0.979c0.208-0.381,0.312-0.8,0.312-1.256    c0-0.595-0.187-1.076-0.559-1.443c-0.373-0.367-0.836-0.55-1.39-0.55c-0.896,0-1.643,0.479-2.244,1.438L32.66,2.478z"/>
		<path fill="#212830" d="M41.27,6.186c0-1.34,0.202-2.494,0.606-3.461s0.941-1.688,1.611-2.162C44.006,0.188,44.543,0,45.098,0    c0.901,0,1.709,0.459,2.425,1.377c0.895,1.138,1.343,2.68,1.343,4.626c0,1.363-0.196,2.521-0.589,3.474    c-0.393,0.953-0.894,1.645-1.502,2.075c-0.609,0.43-1.197,0.646-1.763,0.646c-1.121,0-2.053-0.661-2.798-1.984    C41.584,9.1,41.27,7.757,41.27,6.186z M42.967,6.402c0,1.617,0.199,2.937,0.597,3.959c0.33,0.861,0.82,1.291,1.473,1.291    c0.312,0,0.635-0.14,0.97-0.42c0.335-0.28,0.589-0.749,0.762-1.408c0.266-0.993,0.398-2.394,0.398-4.202    c0-1.34-0.139-2.458-0.416-3.353c-0.208-0.664-0.476-1.135-0.805-1.412c-0.237-0.19-0.523-0.286-0.857-0.286    c-0.393,0-0.742,0.176-1.048,0.528c-0.416,0.479-0.699,1.233-0.849,2.261C43.042,4.39,42.967,5.403,42.967,6.402z"/>
	</g>
	
		<line fill="none" stroke="#212830" stroke-width="0.5" stroke-linecap="square" stroke-miterlimit="10" x1="15.562" y1="72.102" x2="15.562" y2="72.102"/>
	
		<line fill="none" stroke="#212830" stroke-width="0.5" stroke-linecap="square" stroke-miterlimit="10" x1="65.822" y1="72.102" x2="65.822" y2="72.102"/>
	
		<line fill="none" stroke="#212830" stroke-width="0.5" stroke-linecap="square" stroke-miterlimit="10" x1="65.822" y1="18.166" x2="65.822" y2="18.166"/>
	<polygon fill="none" stroke="#212830" stroke-width="0.5" stroke-linecap="square" stroke-miterlimit="10" points="58.321,16.93    58.321,19.446 65.822,18.166 58.321,16.93  "/>
	<polygon fill="none" stroke="#212830" stroke-width="0.5" stroke-linecap="square" stroke-miterlimit="10" points="22.27,74.043    22.181,75.323 22.623,76.912 23.814,78.28 24.829,78.854 26.638,79.251 28.183,78.81 29.286,78.104 30.124,76.604 30.212,75.323    29.815,73.734 28.58,72.366 27.564,71.792 25.799,71.396 24.211,71.836 23.152,72.543 22.27,74.043  "/>
	<g>
		<path fill="#212830" d="M28.502,59.432l0.938,1.322l-1.767,3.061l0.981,1.456c0.959-1.213,2.059-1.979,3.296-2.298    c1.063-0.272,2.055-0.143,2.975,0.389c0.535,0.309,0.969,0.703,1.298,1.184c0.33,0.48,0.559,0.979,0.688,1.492    c0.129,0.517,0.174,1.032,0.136,1.551c-0.057,0.733-0.26,1.403-0.609,2.009c-0.352,0.61-0.713,0.994-1.08,1.151    c-0.368,0.158-0.677,0.165-0.927,0.021c-0.14-0.081-0.23-0.21-0.271-0.388c-0.041-0.177-0.012-0.354,0.089-0.528    c0.075-0.13,0.161-0.232,0.258-0.307c0.096-0.074,0.295-0.182,0.596-0.321c0.477-0.225,0.825-0.529,1.048-0.915    c0.338-0.585,0.414-1.227,0.226-1.925c-0.186-0.699-0.597-1.23-1.231-1.598c-0.616-0.355-1.304-0.489-2.065-0.401    c-0.76,0.088-1.486,0.396-2.177,0.923c-0.54,0.415-1.099,1.083-1.676,2.003l-2.828-4.233L28.502,59.432z"/>
		<path fill="#212830" d="M34.554,60.835c-1.16-0.67-2.059-1.422-2.693-2.255c-0.637-0.833-0.992-1.66-1.066-2.476    c-0.065-0.638,0.041-1.197,0.318-1.677c0.45-0.78,1.252-1.251,2.405-1.413c1.432-0.206,2.992,0.177,4.677,1.151    c1.18,0.681,2.084,1.43,2.713,2.247c0.627,0.816,0.977,1.597,1.044,2.339c0.068,0.743-0.039,1.359-0.322,1.85    c-0.56,0.97-1.6,1.447-3.117,1.431C37.233,62.02,35.914,61.621,34.554,60.835z M35.59,59.473c1.4,0.809,2.643,1.295,3.727,1.461    c0.911,0.146,1.528-0.064,1.854-0.63c0.156-0.27,0.196-0.62,0.121-1.05c-0.075-0.431-0.354-0.885-0.837-1.364    c-0.727-0.727-1.874-1.543-3.438-2.446c-1.16-0.67-2.197-1.109-3.111-1.316c-0.679-0.152-1.221-0.155-1.625-0.008    c-0.284,0.11-0.509,0.31-0.677,0.6c-0.197,0.34-0.218,0.731-0.066,1.172c0.207,0.6,0.718,1.222,1.533,1.866    C33.884,58.401,34.725,58.974,35.59,59.473z"/>
	</g>
	
		<line fill="none" stroke="#212830" stroke-width="0.5" stroke-linecap="square" stroke-miterlimit="10" x1="22.49" y1="70.203" x2="29.903" y2="80.487"/>
	
		<line fill="none" stroke="#212830" stroke-width="0.5" stroke-linecap="square" stroke-miterlimit="10" x1="303.444" y1="90.418" x2="76.81" y2="90.418"/>
	
		<line fill="none" stroke="#212830" stroke-width="0.5" stroke-linecap="square" stroke-miterlimit="10" x1="25.402" y1="98.583" x2="57.174" y2="43.5"/>
	
		<line fill="none" stroke="#212830" stroke-width="0.5" stroke-linecap="square" stroke-miterlimit="10" x1="303.444" y1="53.74" x2="76.81" y2="53.74"/>
	<polyline fill="none" stroke="#212830" stroke-width="0.5" stroke-linecap="square" stroke-miterlimit="10" points="   303.444,90.418 304.856,90.374 306.313,90.197 307.725,89.933 309.093,89.535 310.417,89.006 311.74,88.432 312.976,87.726    314.167,86.932 315.314,86.049 316.374,85.033 317.345,84.019 318.228,82.871 319.021,81.679 319.728,80.399 320.301,79.119    320.83,77.751 321.228,76.383 321.492,74.97 321.669,73.558 321.713,72.102 321.669,70.645 321.492,69.232 321.228,67.82    320.83,66.452 320.301,65.084 319.728,63.804 319.021,62.523 318.228,61.332 317.345,60.184 316.374,59.169 315.314,58.154    314.167,57.271 312.976,56.477 311.74,55.771 310.417,55.197 309.093,54.667 307.725,54.27 306.313,54.005 304.856,53.829    303.444,53.785  "/>
	<polygon fill-rule="evenodd" clip-rule="evenodd" fill="#212830" points="56.115,42.838 58.277,44.119 60.969,36.968  "/>
	<polygon fill="none" stroke="#212830" stroke-width="0.5" stroke-linecap="square" stroke-miterlimit="10" points="56.115,42.838    58.277,44.119 60.969,36.968 56.115,42.838  "/>
	<polygon fill-rule="evenodd" clip-rule="evenodd" fill="#212830" points="302.165,46.237 304.681,46.237 303.444,53.74  "/>
	<polygon fill="none" stroke="#212830" stroke-width="0.5" stroke-linecap="square" stroke-miterlimit="10" points="302.165,46.237    304.681,46.237 303.444,53.74 302.165,46.237  "/>
	<polyline fill="none" stroke="#212830" stroke-width="0.5" stroke-linecap="square" stroke-miterlimit="10" points="76.81,53.785    75.795,51.931 74.736,50.121 73.544,48.4 72.265,46.723 70.897,45.134 69.485,43.589 67.94,42.132 66.352,40.764 64.719,39.484    62.998,38.292 61.189,37.145 59.38,36.13 57.482,35.203 55.541,34.408 53.555,33.702 51.569,33.084 49.54,32.555 47.466,32.157    45.392,31.849 43.273,31.672 41.2,31.583 39.082,31.628 37.008,31.76 34.934,31.981 32.86,32.378 30.786,32.819 28.8,33.393    26.771,34.055 24.829,34.85 22.931,35.688 21.078,36.659 19.269,37.763 17.504,38.91 15.827,40.146 14.194,41.515 12.65,42.927    11.193,44.428 9.782,45.972 8.458,47.605 7.222,49.327 6.119,51.092 5.06,52.946 4.133,54.8 3.295,56.742 2.545,58.684    1.883,60.714 1.354,62.744 0.912,64.774 0.603,66.849 0.383,68.968 0.25,71.042 0.25,73.16 0.383,75.235 0.603,77.354    0.912,79.428 1.354,81.458 1.883,83.488 2.545,85.519 3.295,87.461 4.133,89.403 5.06,91.257 6.119,93.11 7.222,94.876    8.458,96.597 9.782,98.23 11.193,99.775 12.65,101.275 14.194,102.688 15.827,104.057 17.504,105.292 19.269,106.439    21.078,107.543 22.931,108.514 24.829,109.353 26.771,110.147 28.8,110.81 30.786,111.383 32.86,111.824 34.934,112.222    37.008,112.442 39.082,112.574 41.2,112.619 43.273,112.53 45.392,112.354 47.466,112.045 49.54,111.647 51.569,111.118    53.555,110.5 55.541,109.794 57.482,109 59.38,108.072 61.189,107.058 62.998,105.91 64.719,104.719 66.352,103.438 67.94,102.07    69.485,100.613 70.897,99.068 72.265,97.479 73.544,95.803 74.736,94.081 75.795,92.271 76.81,90.418  "/>
	
		<line fill="none" stroke="#212830" stroke-width="0.5" stroke-linecap="square" stroke-miterlimit="10" x1="76.81" y1="100.923" x2="76.81" y2="130.538"/>
	
		<line fill="none" stroke="#212830" stroke-width="0.5" stroke-linecap="square" stroke-miterlimit="10" x1="303.444" y1="100.923" x2="303.444" y2="130.538"/>
	
		<line fill="none" stroke="#212830" stroke-width="0.5" stroke-linecap="square" stroke-miterlimit="10" x1="84.312" y1="124.536" x2="295.899" y2="124.536"/>
	<polygon fill-rule="evenodd" clip-rule="evenodd" fill="#212830" points="84.312,123.3 84.312,125.815 76.81,124.536  "/>
	<polygon fill="none" stroke="#212830" stroke-width="0.5" stroke-linecap="square" stroke-miterlimit="10" points="84.312,123.3    84.312,125.815 76.81,124.536 84.312,123.3  "/>
	<polygon fill-rule="evenodd" clip-rule="evenodd" fill="#212830" points="295.899,123.3 295.899,125.815 303.444,124.536  "/>
	<g>
		<path fill="#212830" d="M175.006,111.499l0.285,0.061l-1.004,3.188h-9.095v-0.32h0.441c0.496,0,0.852-0.162,1.065-0.485    c0.121-0.185,0.182-0.612,0.182-1.282v-7.581c0-0.733-0.081-1.192-0.242-1.377c-0.226-0.254-0.561-0.381-1.005-0.381h-0.441V103    h5.317v0.321c-0.623-0.006-1.061,0.052-1.312,0.173s-0.423,0.274-0.516,0.459s-0.139,0.627-0.139,1.325v7.382    c0,0.479,0.046,0.809,0.139,0.987c0.069,0.122,0.176,0.211,0.32,0.269c0.145,0.059,0.595,0.087,1.352,0.087h0.857    c0.9,0,1.533-0.066,1.896-0.199c0.364-0.133,0.696-0.368,0.996-0.706C174.405,112.76,174.705,112.227,175.006,111.499z"/>
		<path fill="#212830" d="M177.579,109.801c-0.006,1.179,0.279,2.103,0.857,2.772c0.577,0.67,1.256,1.005,2.035,1.005    c0.52,0,0.972-0.143,1.355-0.429s0.706-0.775,0.966-1.469l0.269,0.174c-0.121,0.791-0.474,1.512-1.057,2.161    c-0.583,0.65-1.313,0.975-2.191,0.975c-0.953,0-1.769-0.371-2.447-1.113c-0.679-0.741-1.018-1.739-1.018-2.993    c0-1.356,0.348-2.415,1.044-3.175c0.695-0.76,1.569-1.14,2.62-1.14c0.889,0,1.619,0.294,2.191,0.88    c0.571,0.586,0.857,1.37,0.857,2.352H177.579z M177.579,109.299h3.672c-0.028-0.509-0.09-0.866-0.182-1.074    c-0.145-0.323-0.359-0.578-0.646-0.763s-0.585-0.277-0.896-0.277c-0.479,0-0.908,0.187-1.286,0.559    C177.863,108.116,177.643,108.635,177.579,109.299z"/>
		<path fill="#212830" d="M186.413,108.259c0.93-1.12,1.815-1.681,2.659-1.681c0.433,0,0.806,0.108,1.117,0.325    s0.56,0.573,0.745,1.069c0.127,0.347,0.19,0.879,0.19,1.595v3.388c0,0.502,0.04,0.843,0.121,1.021    c0.063,0.145,0.166,0.258,0.308,0.338c0.142,0.081,0.402,0.122,0.784,0.122v0.312h-3.924v-0.312h0.164    c0.369,0,0.628-0.057,0.775-0.169c0.147-0.113,0.25-0.279,0.308-0.498c0.022-0.087,0.034-0.358,0.034-0.814v-3.249    c0-0.722-0.094-1.246-0.281-1.572s-0.504-0.49-0.948-0.49c-0.688,0-1.372,0.376-2.053,1.127v4.185    c0,0.537,0.031,0.869,0.095,0.996c0.081,0.167,0.192,0.29,0.334,0.368s0.429,0.117,0.861,0.117v0.312h-3.924v-0.312h0.174    c0.404,0,0.677-0.103,0.818-0.308s0.212-0.597,0.212-1.174v-2.946c0-0.953-0.021-1.533-0.064-1.741    c-0.044-0.208-0.11-0.35-0.199-0.425c-0.09-0.074-0.21-0.112-0.359-0.112c-0.162,0-0.355,0.043-0.581,0.13l-0.13-0.312    l2.391-0.971h0.373V108.259z"/>
		<path fill="#212830" d="M195.128,111.854c-0.485-0.237-0.857-0.567-1.117-0.992c-0.261-0.425-0.391-0.894-0.391-1.407    c0-0.786,0.296-1.462,0.888-2.027c0.593-0.566,1.351-0.85,2.274-0.85c0.756,0,1.411,0.186,1.966,0.555h1.681    c0.248,0,0.393,0.007,0.433,0.021c0.041,0.015,0.069,0.039,0.087,0.074c0.034,0.052,0.052,0.144,0.052,0.276    c0,0.15-0.015,0.255-0.043,0.313c-0.018,0.028-0.048,0.052-0.091,0.069c-0.044,0.018-0.189,0.025-0.438,0.025h-1.031    c0.323,0.416,0.485,0.947,0.485,1.595c0,0.739-0.283,1.371-0.849,1.897c-0.566,0.525-1.325,0.788-2.278,0.788    c-0.393,0-0.794-0.058-1.204-0.174c-0.254,0.22-0.426,0.412-0.515,0.576c-0.09,0.165-0.135,0.305-0.135,0.421    c0,0.098,0.048,0.193,0.143,0.285c0.096,0.093,0.282,0.159,0.559,0.2c0.162,0.022,0.566,0.043,1.213,0.061    c1.189,0.028,1.961,0.069,2.313,0.121c0.537,0.075,0.966,0.274,1.286,0.598c0.321,0.323,0.481,0.722,0.481,1.195    c0,0.652-0.307,1.265-0.918,1.837c-0.901,0.843-2.076,1.265-3.525,1.265c-1.115,0-2.056-0.251-2.824-0.754    c-0.433-0.288-0.649-0.589-0.649-0.9c0-0.139,0.031-0.277,0.096-0.416c0.098-0.214,0.3-0.512,0.605-0.893    c0.041-0.052,0.335-0.363,0.884-0.936c-0.3-0.179-0.513-0.339-0.637-0.48s-0.186-0.302-0.186-0.481    c0-0.202,0.082-0.438,0.246-0.71C194.153,112.735,194.533,112.352,195.128,111.854z M195.041,114.748    c-0.271,0.295-0.477,0.568-0.615,0.823c-0.139,0.254-0.208,0.488-0.208,0.701c0,0.277,0.168,0.521,0.503,0.729    c0.577,0.357,1.412,0.537,2.503,0.537c1.039,0,1.806-0.184,2.3-0.551c0.493-0.366,0.74-0.758,0.74-1.174    c0-0.3-0.147-0.514-0.441-0.641c-0.301-0.127-0.896-0.202-1.784-0.226C196.738,114.913,195.739,114.846,195.041,114.748z     M196.635,106.994c-0.428,0-0.785,0.171-1.074,0.511c-0.289,0.341-0.433,0.864-0.433,1.568c0,0.913,0.196,1.62,0.589,2.123    c0.3,0.381,0.681,0.571,1.144,0.571c0.438,0,0.799-0.164,1.082-0.493c0.283-0.33,0.425-0.847,0.425-1.551    c0-0.919-0.199-1.638-0.598-2.157C197.475,107.185,197.097,106.994,196.635,106.994z"/>
		<path fill="#212830" d="M204.179,104.204v2.608h1.854v0.606h-1.854v5.146c0,0.515,0.073,0.861,0.221,1.04s0.336,0.269,0.567,0.269    c0.19,0,0.375-0.06,0.555-0.178c0.179-0.118,0.317-0.293,0.415-0.524h0.338c-0.202,0.566-0.487,0.992-0.857,1.278    c-0.369,0.286-0.75,0.429-1.144,0.429c-0.266,0-0.525-0.073-0.779-0.221s-0.441-0.358-0.563-0.633s-0.183-0.697-0.183-1.269    v-5.337h-1.256v-0.286c0.318-0.127,0.643-0.342,0.975-0.646c0.332-0.303,0.628-0.663,0.888-1.078    c0.133-0.22,0.317-0.621,0.555-1.205H204.179z"/>
		<path fill="#212830" d="M209.116,102.429v5.805c0.641-0.705,1.148-1.157,1.524-1.356c0.375-0.199,0.75-0.299,1.126-0.299    c0.45,0,0.837,0.124,1.16,0.373c0.323,0.248,0.563,0.638,0.719,1.169c0.11,0.37,0.165,1.046,0.165,2.027v2.808    c0,0.502,0.04,0.846,0.121,1.03c0.058,0.139,0.156,0.249,0.295,0.329c0.138,0.081,0.393,0.122,0.762,0.122v0.312h-3.897v-0.312    h0.182c0.369,0,0.627-0.057,0.771-0.169c0.145-0.113,0.246-0.279,0.304-0.498c0.018-0.093,0.025-0.364,0.025-0.814v-2.808    c0-0.866-0.044-1.435-0.134-1.706s-0.232-0.476-0.429-0.611s-0.434-0.203-0.71-0.203c-0.283,0-0.578,0.075-0.884,0.225    c-0.307,0.15-0.673,0.454-1.1,0.91v4.193c0,0.543,0.03,0.881,0.091,1.014s0.173,0.243,0.338,0.333    c0.164,0.09,0.448,0.135,0.853,0.135v0.312h-3.933v-0.312c0.353,0,0.63-0.056,0.832-0.165c0.115-0.058,0.208-0.167,0.277-0.329    s0.104-0.491,0.104-0.987v-7.183c0-0.906-0.021-1.464-0.064-1.672c-0.044-0.208-0.11-0.35-0.199-0.425    c-0.09-0.075-0.21-0.112-0.359-0.112c-0.122,0-0.318,0.046-0.59,0.139l-0.121-0.304l2.374-0.97H209.116z"/>
	</g>
	
		<line fill="none" stroke="#212830" stroke-width="0.5" stroke-linecap="square" stroke-miterlimit="10" x1="76.81" y1="90.418" x2="76.81" y2="90.418"/>
	
		<line fill="none" stroke="#212830" stroke-width="0.5" stroke-linecap="square" stroke-miterlimit="10" x1="303.444" y1="90.418" x2="303.444" y2="90.418"/>
	
		<line fill="none" stroke="#212830" stroke-width="0.5" stroke-linecap="square" stroke-miterlimit="10" x1="303.444" y1="124.536" x2="303.444" y2="124.536"/>
	<polygon fill="none" stroke="#212830" stroke-width="0.5" stroke-linecap="square" stroke-miterlimit="10" points="295.899,123.3    295.899,125.815 303.444,124.536 295.899,123.3  "/>
	
		<line fill="none" stroke="#212830" stroke-width="0.5" stroke-linecap="square" stroke-miterlimit="10" x1="313.946" y1="53.74" x2="346.688" y2="53.74"/>
	
		<line fill="none" stroke="#212830" stroke-width="0.5" stroke-linecap="square" stroke-miterlimit="10" x1="313.946" y1="90.418" x2="346.688" y2="90.418"/>
	
		<line fill="none" stroke="#212830" stroke-width="0.5" stroke-linecap="square" stroke-miterlimit="10" x1="340.644" y1="61.288" x2="340.644" y2="82.915"/>
	
		<line fill="none" stroke="#212830" stroke-width="0.5" stroke-linecap="square" stroke-miterlimit="10" x1="340.644" y1="90.418" x2="340.644" y2="153.975"/>
	<polygon fill-rule="evenodd" clip-rule="evenodd" fill="#212830" points="339.408,61.288 341.923,61.288 340.644,53.74  "/>
	<polygon fill="none" stroke="#212830" stroke-width="0.5" stroke-linecap="square" stroke-miterlimit="10" points="339.408,61.288    341.923,61.288 340.644,53.74 339.408,61.288  "/>
	<polygon fill-rule="evenodd" clip-rule="evenodd" fill="#212830" points="339.408,82.915 341.923,82.915 340.644,90.418  "/>
	<g>
		<path fill="#212830" d="M322.639,131.632h0.32c0,0.307,0.055,0.555,0.165,0.745c0.109,0.19,0.314,0.373,0.614,0.546    c0.202,0.116,0.685,0.298,1.447,0.546l9.467,3.275v0.346l-7.51,2.678l7.51,2.659v0.313l-9.753,3.491    c-0.728,0.26-1.158,0.425-1.291,0.493c-0.219,0.116-0.382,0.273-0.489,0.473c-0.106,0.199-0.16,0.47-0.16,0.81h-0.32v-4.349h0.32    v0.208c0,0.306,0.069,0.54,0.208,0.701c0.139,0.162,0.307,0.243,0.502,0.243c0.203,0,0.667-0.127,1.395-0.381l6.592-2.313    l-5.604-1.949l-0.988,0.347l-0.788,0.277c-0.288,0.121-0.542,0.257-0.762,0.406c-0.109,0.075-0.202,0.168-0.277,0.277    c-0.104,0.145-0.179,0.289-0.226,0.434c-0.034,0.109-0.052,0.283-0.052,0.52h-0.32v-4.574h0.32v0.312    c0,0.324,0.069,0.561,0.208,0.711s0.326,0.226,0.563,0.226c0.294,0,0.808-0.13,1.541-0.391l6.384-2.252l-6.47-2.235    c-0.716-0.254-1.213-0.381-1.49-0.381c-0.133,0-0.257,0.042-0.372,0.125c-0.116,0.084-0.196,0.189-0.243,0.316    c-0.08,0.22-0.121,0.506-0.121,0.857h-0.32V131.632z"/>
		<path fill="#212830" d="M322.067,128.902c0-0.242,0.085-0.449,0.255-0.619c0.171-0.171,0.377-0.256,0.619-0.256    c0.243,0,0.451,0.085,0.624,0.256c0.173,0.17,0.26,0.377,0.26,0.619c0,0.243-0.087,0.45-0.26,0.624    c-0.173,0.173-0.381,0.26-0.624,0.26c-0.242,0-0.448-0.085-0.619-0.256C322.152,129.36,322.067,129.151,322.067,128.902z     M326.216,128.184h6.375c0.497,0,0.827-0.036,0.992-0.108c0.164-0.072,0.287-0.179,0.368-0.32c0.08-0.142,0.121-0.4,0.121-0.775    h0.312v3.855h-0.312c0-0.388-0.038-0.647-0.113-0.78c-0.074-0.133-0.199-0.238-0.372-0.316s-0.505-0.116-0.996-0.116h-3.058    c-0.86,0-1.417,0.025-1.672,0.077c-0.185,0.041-0.313,0.104-0.385,0.191c-0.072,0.086-0.108,0.205-0.108,0.354    c0,0.162,0.043,0.358,0.13,0.59l-0.313,0.121l-0.97-2.392V128.184z"/>
		<path fill="#212830" d="M333.491,120.404c0.404,0.388,0.695,0.766,0.871,1.136c0.176,0.369,0.264,0.768,0.264,1.195    c0,0.866-0.362,1.623-1.087,2.27c-0.725,0.647-1.655,0.971-2.793,0.971s-2.179-0.358-3.123-1.074    c-0.943-0.717-1.416-1.638-1.416-2.764c0-0.699,0.223-1.276,0.667-1.733h-1.464c-0.906,0-1.464,0.022-1.672,0.065    c-0.207,0.043-0.349,0.111-0.424,0.203c-0.075,0.093-0.112,0.208-0.112,0.347c0,0.15,0.046,0.35,0.138,0.598l-0.303,0.113    l-0.97-2.365v-0.39h9.172c0.93,0,1.497-0.022,1.702-0.065s0.349-0.112,0.429-0.208c0.081-0.095,0.121-0.206,0.121-0.333    c0-0.156-0.049-0.364-0.146-0.624l0.303-0.096l0.979,2.356v0.398H333.491z M332.886,120.404h-4.089    c-0.393,0.035-0.75,0.139-1.074,0.313c-0.323,0.173-0.567,0.402-0.731,0.688c-0.165,0.286-0.247,0.564-0.247,0.836    c0,0.509,0.229,0.962,0.685,1.36c0.601,0.525,1.479,0.788,2.633,0.788c1.167,0,2.061-0.254,2.681-0.762    c0.621-0.509,0.932-1.074,0.932-1.698C333.674,121.404,333.411,120.896,332.886,120.404z"/>
		<path fill="#212830" d="M323.843,114.798h2.607v-1.854h0.605v1.854h5.146c0.514,0,0.86-0.073,1.039-0.221    c0.18-0.147,0.269-0.336,0.269-0.567c0-0.19-0.059-0.375-0.178-0.555c-0.118-0.179-0.293-0.317-0.523-0.416v-0.337    c0.565,0.202,0.991,0.487,1.277,0.857c0.286,0.369,0.429,0.751,0.429,1.144c0,0.266-0.073,0.525-0.221,0.779    c-0.147,0.255-0.358,0.442-0.633,0.563c-0.273,0.121-0.697,0.182-1.269,0.182h-5.336v1.257h-0.285    c-0.127-0.318-0.343-0.643-0.646-0.975s-0.663-0.629-1.078-0.889c-0.22-0.133-0.621-0.317-1.204-0.555V114.798z"/>
		<path fill="#212830" d="M322.067,109.86h5.803c-0.704-0.642-1.156-1.149-1.355-1.525c-0.199-0.375-0.299-0.75-0.299-1.126    c0-0.45,0.124-0.837,0.372-1.161c0.249-0.323,0.639-0.563,1.17-0.719c0.369-0.109,1.045-0.165,2.026-0.165h2.807    c0.502,0,0.846-0.04,1.03-0.121c0.139-0.058,0.249-0.155,0.33-0.294c0.08-0.139,0.121-0.394,0.121-0.763h0.312v3.898h-0.312    v-0.182c0-0.37-0.057-0.627-0.169-0.771c-0.113-0.145-0.278-0.245-0.498-0.303c-0.093-0.018-0.364-0.026-0.814-0.026h-2.807    c-0.866,0-1.435,0.045-1.706,0.135c-0.271,0.089-0.475,0.232-0.61,0.429s-0.204,0.433-0.204,0.71c0,0.283,0.075,0.578,0.226,0.884    c0.15,0.307,0.453,0.673,0.909,1.101h4.192c0.543,0,0.881-0.03,1.014-0.091s0.244-0.174,0.333-0.338    c0.09-0.165,0.135-0.449,0.135-0.854h0.312v3.933h-0.312c0-0.352-0.055-0.629-0.165-0.831c-0.058-0.115-0.167-0.208-0.329-0.277    c-0.161-0.069-0.49-0.104-0.987-0.104h-7.181c-0.906,0-1.464,0.022-1.672,0.065c-0.207,0.043-0.349,0.109-0.424,0.199    s-0.112,0.209-0.112,0.359c0,0.121,0.046,0.318,0.138,0.589l-0.303,0.122l-0.97-2.374V109.86z"/>
	</g>
	
		<line fill="none" stroke="#212830" stroke-width="0.5" stroke-linecap="square" stroke-miterlimit="10" x1="303.444" y1="53.74" x2="303.444" y2="53.74"/>
	
		<line fill="none" stroke="#212830" stroke-width="0.5" stroke-linecap="square" stroke-miterlimit="10" x1="303.444" y1="90.418" x2="303.444" y2="90.418"/>
	
		<line fill="none" stroke="#212830" stroke-width="0.5" stroke-linecap="square" stroke-miterlimit="10" x1="340.644" y1="90.418" x2="340.644" y2="90.418"/>
	<polygon fill="none" stroke="#212830" stroke-width="0.5" stroke-linecap="square" stroke-miterlimit="10" points="339.408,82.915    341.923,82.915 340.644,90.418 339.408,82.915  "/>
	<g>
		<path fill="#212830" d="M293.67,14.03l0.285,0.061l-1.004,3.188h-9.095v-0.32h0.441c0.496,0,0.852-0.162,1.065-0.485    c0.121-0.185,0.182-0.612,0.182-1.282V7.611c0-0.733-0.081-1.193-0.242-1.377c-0.226-0.254-0.561-0.381-1.005-0.381h-0.441v-0.32    h5.317v0.32c-0.623-0.006-1.061,0.052-1.312,0.173c-0.251,0.121-0.423,0.274-0.516,0.459c-0.093,0.185-0.139,0.627-0.139,1.326    v7.381c0,0.479,0.046,0.809,0.139,0.988c0.069,0.121,0.176,0.211,0.32,0.269s0.595,0.086,1.352,0.086h0.857    c0.9,0,1.533-0.066,1.896-0.199c0.364-0.133,0.696-0.368,0.996-0.706C293.069,15.291,293.369,14.758,293.67,14.03z"/>
		<path fill="#212830" d="M298.789,9.109c1.201,0,2.166,0.457,2.894,1.369c0.617,0.78,0.927,1.675,0.927,2.686    c0,0.71-0.171,1.43-0.512,2.157s-0.81,1.276-1.407,1.646s-1.264,0.555-1.996,0.555c-1.195,0-2.146-0.477-2.85-1.43    c-0.596-0.803-0.893-1.704-0.893-2.703c0-0.728,0.181-1.451,0.541-2.17c0.361-0.719,0.836-1.25,1.425-1.594    S298.131,9.109,298.789,9.109z M298.521,9.673c-0.306,0-0.613,0.091-0.922,0.273c-0.31,0.182-0.559,0.501-0.75,0.957    c-0.19,0.457-0.285,1.042-0.285,1.759c0,1.155,0.229,2.151,0.688,2.989c0.459,0.838,1.063,1.256,1.814,1.256    c0.56,0,1.022-0.231,1.386-0.693c0.364-0.462,0.546-1.256,0.546-2.383c0-1.409-0.304-2.518-0.909-3.327    C299.679,9.95,299.156,9.673,298.521,9.673z"/>
		<path fill="#212830" d="M308.273,16.136c-0.814,0.629-1.325,0.994-1.533,1.092c-0.312,0.144-0.644,0.216-0.996,0.216    c-0.549,0-1-0.188-1.355-0.563s-0.533-0.869-0.533-1.481c0-0.387,0.087-0.722,0.261-1.005c0.236-0.393,0.647-0.763,1.233-1.109    c0.587-0.346,1.561-0.768,2.924-1.265v-0.312c0-0.791-0.126-1.334-0.377-1.628c-0.251-0.295-0.616-0.442-1.096-0.442    c-0.363,0-0.652,0.098-0.866,0.294c-0.22,0.196-0.329,0.422-0.329,0.676l0.018,0.502c0,0.266-0.068,0.471-0.204,0.615    s-0.313,0.216-0.532,0.216c-0.214,0-0.389-0.075-0.524-0.225c-0.136-0.15-0.203-0.355-0.203-0.615    c0-0.497,0.254-0.953,0.762-1.369c0.509-0.416,1.222-0.624,2.14-0.624c0.705,0,1.282,0.119,1.732,0.355    c0.341,0.179,0.592,0.459,0.754,0.84c0.104,0.249,0.155,0.757,0.155,1.525v2.694c0,0.756,0.015,1.22,0.044,1.39    c0.028,0.171,0.076,0.285,0.143,0.342c0.066,0.058,0.143,0.087,0.229,0.087c0.093,0,0.173-0.021,0.242-0.061    c0.122-0.075,0.355-0.286,0.702-0.633v0.485c-0.646,0.866-1.265,1.299-1.854,1.299c-0.283,0-0.509-0.098-0.676-0.294    C308.365,16.944,308.279,16.609,308.273,16.136z M308.273,15.573v-3.024c-0.872,0.347-1.436,0.592-1.689,0.736    c-0.456,0.254-0.782,0.52-0.979,0.797s-0.294,0.581-0.294,0.91c0,0.416,0.124,0.761,0.372,1.035s0.534,0.412,0.857,0.412    C306.979,16.439,307.558,16.15,308.273,15.573z"/>
		<path fill="#212830" d="M317.237,16.387c-0.387,0.405-0.765,0.695-1.135,0.871c-0.369,0.176-0.768,0.264-1.195,0.264    c-0.866,0-1.622-0.362-2.269-1.087c-0.647-0.725-0.971-1.656-0.971-2.794s0.358-2.179,1.074-3.123s1.637-1.417,2.763-1.417    c0.699,0,1.276,0.222,1.732,0.667V8.304c0-0.907-0.021-1.464-0.064-1.672c-0.044-0.208-0.111-0.35-0.204-0.425    c-0.092-0.075-0.208-0.112-0.347-0.112c-0.149,0-0.349,0.046-0.598,0.139l-0.112-0.303l2.365-0.971h0.39v9.175    c0,0.93,0.021,1.498,0.064,1.703c0.044,0.205,0.112,0.348,0.208,0.429c0.096,0.081,0.206,0.121,0.334,0.121    c0.155,0,0.363-0.049,0.623-0.147l0.096,0.303l-2.356,0.979h-0.398V16.387z M317.237,15.78v-4.089    c-0.034-0.393-0.139-0.751-0.312-1.074c-0.174-0.324-0.403-0.568-0.688-0.732c-0.286-0.165-0.564-0.247-0.836-0.247    c-0.509,0-0.962,0.228-1.36,0.684c-0.525,0.601-0.788,1.479-0.788,2.634c0,1.167,0.254,2.061,0.763,2.682    c0.508,0.621,1.074,0.931,1.697,0.931C316.238,16.569,316.747,16.306,317.237,15.78z"/>
	</g>
	
		<line fill="none" stroke="#212830" stroke-width="0.5" stroke-linecap="square" stroke-miterlimit="10" x1="303.444" y1="24.61" x2="303.444" y2="46.237"/>
</g>
</svg>
