<?xml version="1.0" encoding="utf-8"?>
<!-- Generator: Adobe Illustrator 16.0.0, SVG Export Plug-In . SVG Version: 6.00 Build 0)  -->
<!DOCTYPE svg PUBLIC "-//W3C//DTD SVG 1.1//EN" "http://www.w3.org/Graphics/SVG/1.1/DTD/svg11.dtd">
<svg version="1.1" id="Layer_1" xmlns="http://www.w3.org/2000/svg" xmlns:xlink="http://www.w3.org/1999/xlink" x="0px" y="0px"
	 width="295.52px" height="283.085px" viewBox="0 0 295.52 283.085" enable-background="new 0 0 295.52 283.085"
	 xml:space="preserve">
<g>
	<g>
		<path fill="#212830" d="M139.24,23.374l2.072-19.032c0.082-0.729,0.124-1.291,0.126-1.684c0.003-0.651-0.179-1.147-0.548-1.486
			c-0.37-0.339-1.037-0.522-2.003-0.55L139.076,0l8.562,0.045l-0.188,0.623c-1.146-0.017-1.932,0.183-2.354,0.603
			c-0.424,0.419-0.719,1.448-0.884,3.087l-1.329,12.329l8.749-13.351c0.014-0.225,0.021-0.416,0.021-0.573
			c0.004-0.629-0.18-1.113-0.549-1.452c-0.369-0.339-1.166-0.551-2.39-0.636l0.139-0.623l9.252,0.048l-0.188,0.623
			c-1.068,0.006-1.787,0.092-2.159,0.258c-0.271,0.122-0.499,0.32-0.686,0.595c-0.188,0.274-0.338,0.742-0.454,1.405
			c-0.035,0.191-0.18,1.493-0.434,3.907c-0.254,2.415-0.633,5.698-1.139,9.853l7.288-10.949c0.793-1.197,1.291-2.038,1.496-2.52
			c0.205-0.482,0.309-0.892,0.311-1.229c0.001-0.314-0.132-0.593-0.4-0.836s-0.729-0.4-1.379-0.471l0.138-0.623l6.773,0.035
			l-0.171,0.623c-0.597,0.042-1.126,0.185-1.588,0.43c-0.461,0.245-1.009,0.714-1.641,1.407c-0.362,0.402-1.108,1.466-2.242,3.19
			L150.06,23.431l-0.624-0.003l1.946-17.684l-11.569,17.634L139.24,23.374z"/>
	</g>
	<g>
		<path fill="#212830" d="M171.372,211.113l-3.347,11.408l-0.379,1.532c-0.034,0.146-0.052,0.269-0.053,0.37
			c-0.001,0.18,0.055,0.338,0.167,0.473c0.089,0.103,0.201,0.152,0.336,0.153c0.146,0.001,0.337-0.088,0.574-0.267
			c0.439-0.323,1.027-0.995,1.763-2.014l0.571,0.408c-0.781,1.164-1.584,2.051-2.407,2.659c-0.823,0.607-1.583,0.909-2.279,0.905
			c-0.483-0.002-0.845-0.125-1.085-0.367c-0.241-0.243-0.359-0.595-0.357-1.055c0.003-0.551,0.13-1.275,0.382-2.172l0.361-1.263
			c-1.482,1.914-2.843,3.248-4.083,4.007c-0.891,0.545-1.762,0.815-2.615,0.812c-0.82-0.005-1.526-0.348-2.119-1.031
			c-0.592-0.683-0.885-1.618-0.879-2.81c0.01-1.786,0.557-3.669,1.64-5.646c1.083-1.978,2.454-3.558,4.112-4.739
			c1.296-0.938,2.518-1.402,3.663-1.396c0.686,0.003,1.255,0.186,1.708,0.548s0.796,0.959,1.026,1.792l0.618-1.918L171.372,211.113z
			 M165.367,211.958c-0.719-0.004-1.485,0.329-2.296,0.999c-1.151,0.949-2.179,2.358-3.081,4.229
			c-0.903,1.872-1.358,3.566-1.366,5.083c-0.004,0.764,0.183,1.369,0.563,1.814s0.816,0.67,1.311,0.672
			c1.225,0.007,2.562-0.89,4.009-2.691c1.934-2.394,2.907-4.855,2.921-7.383c0.005-0.955-0.178-1.646-0.546-2.076
			C166.511,212.177,166.007,211.961,165.367,211.958z"/>
	</g>
	<g>
		<path fill="#212830" d="M238.458,152.104l10.551,0.055l1.697-5.636c0.32-1.1,0.482-1.952,0.485-2.559
			c0.002-0.292-0.067-0.543-0.206-0.752c-0.14-0.208-0.355-0.363-0.646-0.466c-0.292-0.104-0.865-0.156-1.719-0.161l0.172-0.622
			l9.202,0.048l-0.206,0.622c-0.775-0.015-1.354,0.061-1.736,0.228c-0.541,0.232-0.941,0.534-1.202,0.903
			c-0.373,0.526-0.755,1.451-1.144,2.774l-4.101,13.78c-0.343,1.144-0.515,1.963-0.518,2.457c-0.002,0.428,0.145,0.751,0.441,0.972
			s1.006,0.373,2.13,0.458l-0.189,0.622l-8.898-0.047l0.24-0.622c0.876-0.018,1.46-0.093,1.754-0.227
			c0.45-0.199,0.776-0.456,0.98-0.771c0.295-0.437,0.659-1.389,1.094-2.858l2.093-6.982l-10.601-0.056l-2.109,6.982
			c-0.332,1.122-0.499,1.941-0.502,2.458c-0.002,0.427,0.142,0.75,0.434,0.971c0.291,0.221,0.998,0.373,2.121,0.458l-0.139,0.623
			l-8.965-0.047l0.223-0.623c0.888-0.018,1.478-0.093,1.771-0.227c0.451-0.199,0.783-0.456,0.999-0.77
			c0.294-0.459,0.659-1.412,1.093-2.859l4.116-13.779c0.332-1.122,0.5-1.975,0.503-2.56c0.002-0.292-0.067-0.542-0.207-0.751
			c-0.14-0.208-0.358-0.364-0.654-0.467c-0.298-0.103-0.88-0.156-1.744-0.16l0.206-0.623l9.017,0.048l-0.189,0.622
			c-0.753-0.015-1.31,0.061-1.67,0.228c-0.529,0.222-0.919,0.518-1.168,0.887c-0.339,0.493-0.714,1.423-1.127,2.791L238.458,152.104
			z"/>
	</g>
	
		<line fill="none" stroke="#212830" stroke-linecap="square" stroke-miterlimit="10" x1="29.864" y1="272.709" x2="30.979" y2="39.025"/>
	
		<line fill="none" stroke="#212830" stroke-linecap="square" stroke-miterlimit="10" x1="1.796" y1="48.769" x2="30.979" y2="39.025"/>
	
		<line fill="none" stroke="#212830" stroke-linecap="square" stroke-miterlimit="10" x1="1.553" y1="95.496" x2="30.736" y2="85.752"/>
	
		<line fill="none" stroke="#212830" stroke-linecap="square" stroke-miterlimit="10" x1="1.311" y1="142.223" x2="30.542" y2="132.48"/>
	
		<line fill="none" stroke="#212830" stroke-linecap="square" stroke-miterlimit="10" x1="1.117" y1="188.999" x2="30.3" y2="179.255"/>
	
		<line fill="none" stroke="#212830" stroke-linecap="square" stroke-miterlimit="10" x1="0.875" y1="235.725" x2="30.058" y2="225.982"/>
	
		<line fill="none" stroke="#212830" stroke-linecap="square" stroke-miterlimit="10" x1="0.632" y1="282.453" x2="29.864" y2="272.709"/>
	
		<line fill="none" stroke="#212830" stroke-linecap="square" stroke-miterlimit="10" x1="293.723" y1="48.769" x2="264.541" y2="39.025"/>
	
		<line fill="none" stroke="#212830" stroke-linecap="square" stroke-miterlimit="10" x1="293.965" y1="95.496" x2="264.783" y2="85.752"/>
	
		<line fill="none" stroke="#212830" stroke-linecap="square" stroke-miterlimit="10" x1="294.208" y1="142.223" x2="264.977" y2="132.48"/>
	
		<line fill="none" stroke="#212830" stroke-linecap="square" stroke-miterlimit="10" x1="294.402" y1="188.999" x2="265.219" y2="179.255"/>
	
		<line fill="none" stroke="#212830" stroke-linecap="square" stroke-miterlimit="10" x1="294.645" y1="235.725" x2="265.462" y2="225.982"/>
	
		<line fill="none" stroke="#212830" stroke-linecap="square" stroke-miterlimit="10" x1="294.887" y1="282.453" x2="265.655" y2="272.709"/>
	
		<line fill="none" stroke="#212830" stroke-linecap="square" stroke-miterlimit="10" x1="30.979" y1="39.025" x2="264.541" y2="40.14"/>
	
		<line fill="none" stroke="#212830" stroke-linecap="square" stroke-miterlimit="10" x1="1.796" y1="39.025" x2="1.796" y2="29.283"/>
	
		<line fill="none" stroke="#212830" stroke-linecap="square" stroke-miterlimit="10" x1="1.553" y1="85.752" x2="1.553" y2="76.01"/>
	
		<line fill="none" stroke="#212830" stroke-linecap="square" stroke-miterlimit="10" x1="1.311" y1="132.48" x2="1.311" y2="122.737"/>
	
		<line fill="none" stroke="#212830" stroke-linecap="square" stroke-miterlimit="10" x1="1.117" y1="179.255" x2="1.117" y2="169.512"/>
	
		<line fill="none" stroke="#212830" stroke-linecap="square" stroke-miterlimit="10" x1="0.875" y1="225.982" x2="0.875" y2="216.239"/>
	
		<line fill="none" stroke="#212830" stroke-linecap="square" stroke-miterlimit="10" x1="0.632" y1="272.709" x2="0.632" y2="262.966"/>
	
		<line fill="none" stroke="#212830" stroke-linecap="square" stroke-miterlimit="10" x1="293.723" y1="39.025" x2="293.723" y2="29.283"/>
	
		<line fill="none" stroke="#212830" stroke-linecap="square" stroke-miterlimit="10" x1="293.965" y1="85.752" x2="293.965" y2="76.01"/>
	
		<line fill="none" stroke="#212830" stroke-linecap="square" stroke-miterlimit="10" x1="294.208" y1="132.48" x2="294.208" y2="122.737"/>
	
		<line fill="none" stroke="#212830" stroke-linecap="square" stroke-miterlimit="10" x1="294.402" y1="179.255" x2="294.402" y2="169.512"/>
	
		<line fill="none" stroke="#212830" stroke-linecap="square" stroke-miterlimit="10" x1="294.645" y1="225.982" x2="294.645" y2="216.239"/>
	
		<line fill="none" stroke="#212830" stroke-linecap="square" stroke-miterlimit="10" x1="294.887" y1="272.709" x2="294.887" y2="262.966"/>
	
		<line fill="none" stroke="#212830" stroke-linecap="square" stroke-miterlimit="10" x1="264.541" y1="40.14" x2="263.426" y2="273.824"/>
	
		<line fill="none" stroke="#212830" stroke-linecap="square" stroke-miterlimit="10" x1="147.178" y1="180.224" x2="147.129" y2="273.291"/>
	
		<line fill="none" stroke="#212830" stroke-linecap="square" stroke-miterlimit="10" x1="1.796" y1="29.283" x2="30.979" y2="39.025"/>
	
		<line fill="none" stroke="#212830" stroke-linecap="square" stroke-miterlimit="10" x1="1.553" y1="76.01" x2="30.736" y2="85.752"/>
	
		<line fill="none" stroke="#212830" stroke-linecap="square" stroke-miterlimit="10" x1="1.311" y1="122.737" x2="30.542" y2="132.48"/>
	
		<line fill="none" stroke="#212830" stroke-linecap="square" stroke-miterlimit="10" x1="1.117" y1="169.512" x2="30.3" y2="179.255"/>
	
		<line fill="none" stroke="#212830" stroke-linecap="square" stroke-miterlimit="10" x1="0.875" y1="216.239" x2="30.058" y2="225.982"/>
	
		<line fill="none" stroke="#212830" stroke-linecap="square" stroke-miterlimit="10" x1="0.632" y1="262.966" x2="29.864" y2="272.709"/>
	
		<line fill="none" stroke="#212830" stroke-linecap="square" stroke-miterlimit="10" x1="293.723" y1="29.283" x2="264.541" y2="39.025"/>
	
		<line fill="none" stroke="#212830" stroke-linecap="square" stroke-miterlimit="10" x1="293.965" y1="76.01" x2="264.783" y2="85.752"/>
	
		<line fill="none" stroke="#212830" stroke-linecap="square" stroke-miterlimit="10" x1="294.208" y1="122.737" x2="264.977" y2="132.48"/>
	
		<line fill="none" stroke="#212830" stroke-linecap="square" stroke-miterlimit="10" x1="294.402" y1="169.512" x2="265.219" y2="179.255"/>
	
		<line fill="none" stroke="#212830" stroke-linecap="square" stroke-miterlimit="10" x1="294.645" y1="216.239" x2="265.462" y2="225.982"/>
	
		<line fill="none" stroke="#212830" stroke-linecap="square" stroke-miterlimit="10" x1="294.887" y1="262.966" x2="265.655" y2="272.709"/>
	
		<line fill="none" stroke="#212830" stroke-linecap="square" stroke-miterlimit="10" x1="263.426" y1="273.824" x2="29.864" y2="272.709"/>
	
		<line fill="none" stroke="#212830" stroke-linecap="square" stroke-miterlimit="10" x1="1.796" y1="39.025" x2="1.796" y2="48.769"/>
	
		<line fill="none" stroke="#212830" stroke-linecap="square" stroke-miterlimit="10" x1="1.553" y1="85.752" x2="1.553" y2="95.496"/>
	
		<line fill="none" stroke="#212830" stroke-linecap="square" stroke-miterlimit="10" x1="1.311" y1="132.48" x2="1.311" y2="142.223"/>
	
		<line fill="none" stroke="#212830" stroke-linecap="square" stroke-miterlimit="10" x1="1.117" y1="179.255" x2="1.117" y2="188.999"/>
	
		<line fill="none" stroke="#212830" stroke-linecap="square" stroke-miterlimit="10" x1="0.875" y1="225.982" x2="0.875" y2="235.725"/>
	
		<line fill="none" stroke="#212830" stroke-linecap="square" stroke-miterlimit="10" x1="0.632" y1="272.709" x2="0.632" y2="282.453"/>
	
		<line fill="none" stroke="#212830" stroke-linecap="square" stroke-miterlimit="10" x1="293.723" y1="39.025" x2="293.723" y2="48.769"/>
	
		<line fill="none" stroke="#212830" stroke-linecap="square" stroke-miterlimit="10" x1="293.965" y1="85.752" x2="293.965" y2="95.496"/>
	
		<line fill="none" stroke="#212830" stroke-linecap="square" stroke-miterlimit="10" x1="294.208" y1="132.48" x2="294.208" y2="142.223"/>
	
		<line fill="none" stroke="#212830" stroke-linecap="square" stroke-miterlimit="10" x1="294.402" y1="179.255" x2="294.402" y2="188.999"/>
	
		<line fill="none" stroke="#212830" stroke-linecap="square" stroke-miterlimit="10" x1="294.645" y1="225.982" x2="294.645" y2="235.725"/>
	
		<line fill="none" stroke="#212830" stroke-linecap="square" stroke-miterlimit="10" x1="294.887" y1="272.709" x2="294.887" y2="282.453"/>
</g>
</svg>
