<?xml version="1.0" encoding="utf-8"?>
<!-- Generator: Adobe Illustrator 16.0.0, SVG Export Plug-In . SVG Version: 6.00 Build 0)  -->
<!DOCTYPE svg PUBLIC "-//W3C//DTD SVG 1.1//EN" "http://www.w3.org/Graphics/SVG/1.1/DTD/svg11.dtd">
<svg version="1.1" id="Layer_1" xmlns="http://www.w3.org/2000/svg" xmlns:xlink="http://www.w3.org/1999/xlink" x="0px" y="0px"
	 width="408.451px" height="385.948px" viewBox="0 0 408.451 385.948" enable-background="new 0 0 408.451 385.948"
	 xml:space="preserve">
<g>
	<path fill="#212830" d="M101.048,136.351l-1.337,5.811h-0.478l-0.053-1.456c-0.044-0.53-0.146-1.001-0.304-1.417
		c-0.159-0.414-0.396-0.774-0.716-1.078c-0.317-0.305-0.72-0.543-1.204-0.716c-0.485-0.174-1.023-0.259-1.616-0.259
		c-1.579,0-2.961,0.434-4.144,1.297c-1.509,1.104-2.691,2.661-3.547,4.674c-0.707,1.658-1.059,3.339-1.059,5.042
		c0,1.74,0.508,3.126,1.523,4.163c1.014,1.037,2.333,1.556,3.958,1.556c1.226,0,2.318-0.273,3.275-0.82
		c0.958-0.546,1.847-1.389,2.667-2.526h0.623c-0.971,1.543-2.048,2.68-3.231,3.407c-1.182,0.729-2.599,1.093-4.249,1.093
		c-1.466,0-2.764-0.308-3.892-0.921c-1.13-0.612-1.99-1.476-2.581-2.587c-0.592-1.112-0.888-2.309-0.888-3.588
		c0-1.959,0.525-3.865,1.575-5.718c1.05-1.854,2.491-3.309,4.323-4.368c1.832-1.059,3.678-1.588,5.541-1.588
		c0.874,0,1.853,0.207,2.939,0.621c0.476,0.177,0.821,0.266,1.033,0.266s0.396-0.043,0.555-0.133
		c0.159-0.088,0.424-0.339,0.795-0.754H101.048z"/>
	<path fill="#212830" d="M101.526,143.472l4.568-0.742l-1.906,6.433c1.544-2.638,2.946-4.482,4.21-5.532
		c0.716-0.601,1.296-0.9,1.747-0.9c0.292,0,0.521,0.087,0.688,0.259c0.167,0.171,0.251,0.421,0.251,0.747
		c0,0.582-0.15,1.14-0.45,1.667c-0.212,0.396-0.516,0.596-0.913,0.596c-0.204,0-0.378-0.066-0.522-0.199
		c-0.146-0.133-0.237-0.335-0.271-0.608c-0.017-0.167-0.058-0.278-0.12-0.33c-0.07-0.07-0.154-0.105-0.25-0.105
		c-0.15,0-0.292,0.035-0.423,0.105c-0.229,0.124-0.578,0.468-1.046,1.033c-0.732,0.864-1.527,1.984-2.382,3.361
		c-0.371,0.583-0.688,1.239-0.954,1.972c-0.371,1.005-0.583,1.611-0.635,1.813l-0.424,1.667h-2.025l2.449-8.22
		c0.283-0.953,0.423-1.633,0.423-2.04c0-0.158-0.066-0.291-0.2-0.396c-0.175-0.141-0.409-0.211-0.701-0.211
		c-0.185,0-0.524,0.039-1.02,0.12L101.526,143.472z"/>
	<path fill="#212830" d="M123.354,142.73l-2.581,8.975l-0.292,1.204c-0.026,0.116-0.039,0.212-0.039,0.292
		c0,0.141,0.044,0.266,0.132,0.37c0.07,0.08,0.159,0.12,0.266,0.12c0.116,0,0.266-0.07,0.45-0.212
		c0.344-0.256,0.803-0.785,1.377-1.588l0.45,0.317c-0.609,0.917-1.237,1.617-1.88,2.099c-0.645,0.48-1.24,0.721-1.787,0.721
		c-0.38,0-0.665-0.096-0.854-0.284s-0.284-0.466-0.284-0.828c0-0.431,0.096-1.001,0.291-1.707l0.279-0.992
		c-1.157,1.508-2.22,2.563-3.191,3.163c-0.696,0.432-1.382,0.648-2.051,0.648c-0.645,0-1.202-0.267-1.668-0.8
		c-0.468-0.534-0.702-1.269-0.702-2.204c0-1.403,0.421-2.884,1.264-4.441s1.913-2.805,3.211-3.739
		c1.016-0.74,1.973-1.111,2.874-1.111c0.538,0,0.986,0.141,1.344,0.422c0.358,0.283,0.629,0.752,0.813,1.404l0.478-1.509
		L123.354,142.73z M118.643,143.418c-0.565,0-1.166,0.266-1.801,0.795c-0.9,0.75-1.701,1.862-2.403,3.336
		c-0.701,1.475-1.051,2.807-1.051,3.997c0,0.6,0.15,1.074,0.45,1.423c0.3,0.35,0.643,0.522,1.032,0.522
		c0.962,0,2.008-0.711,3.138-2.131c1.508-1.889,2.263-3.826,2.263-5.813c0-0.75-0.146-1.292-0.437-1.627
		C119.543,143.585,119.146,143.418,118.643,143.418z"/>
	<path fill="#212830" d="M134.66,151.825c-0.917,1.104-1.845,1.912-2.78,2.429c-0.936,0.517-1.924,0.774-2.965,0.774
		c-1.254,0-2.23-0.354-2.933-1.059c-0.701-0.707-1.052-1.654-1.052-2.846c0-1.35,0.376-2.679,1.133-3.984
		c0.754-1.306,1.77-2.366,3.044-3.185c1.275-0.814,2.525-1.225,3.753-1.225c0.962,0,1.682,0.201,2.158,0.602
		c0.478,0.401,0.715,0.895,0.715,1.476c0,0.547-0.167,1.016-0.503,1.403c-0.247,0.3-0.551,0.45-0.914,0.45
		c-0.272,0-0.5-0.088-0.682-0.266c-0.18-0.176-0.271-0.396-0.271-0.662c0-0.167,0.033-0.321,0.099-0.463
		c0.066-0.142,0.204-0.312,0.411-0.51c0.208-0.2,0.332-0.343,0.376-0.43c0.045-0.089,0.066-0.181,0.066-0.279
		c0-0.185-0.083-0.339-0.25-0.463c-0.257-0.178-0.618-0.266-1.084-0.266c-0.866,0-1.721,0.305-2.569,0.913
		c-0.847,0.609-1.571,1.473-2.171,2.594c-0.724,1.358-1.086,2.719-1.086,4.077c0,0.9,0.257,1.613,0.769,2.139
		c0.511,0.524,1.208,0.787,2.091,0.787c0.68,0,1.353-0.171,2.019-0.511c0.667-0.341,1.414-0.955,2.245-1.847L134.66,151.825z"/>
	<path fill="#212830" d="M143.981,135.886l-3.759,13.012l1.508-1.283c1.65-1.395,2.724-2.427,3.216-3.098
		c0.159-0.221,0.238-0.388,0.238-0.503c0-0.08-0.026-0.154-0.079-0.225c-0.053-0.071-0.156-0.129-0.311-0.174
		c-0.154-0.043-0.425-0.065-0.813-0.065h-0.463l0.146-0.504h5.786l-0.134,0.504c-0.662,0.034-1.232,0.139-1.715,0.311
		c-0.481,0.172-0.945,0.426-1.396,0.762c-0.892,0.66-1.479,1.12-1.76,1.376l-1.14,1.007c0.194,0.635,0.433,1.521,0.715,2.66
		c0.478,1.89,0.8,3.009,0.967,3.362c0.168,0.354,0.339,0.529,0.517,0.529c0.15,0,0.327-0.075,0.529-0.226
		c0.458-0.334,0.949-0.87,1.47-1.601l0.464,0.33c-0.963,1.209-1.7,2.005-2.212,2.39c-0.512,0.384-0.979,0.575-1.403,0.575
		c-0.371,0-0.658-0.145-0.861-0.437c-0.354-0.521-0.939-2.572-1.761-6.156l-1.813,1.575l-1.364,4.699h-2.065l4.395-15.104
		l0.37-1.284c0.044-0.221,0.066-0.414,0.066-0.583c0-0.211-0.082-0.389-0.245-0.529c-0.163-0.142-0.399-0.213-0.708-0.213
		c-0.203,0-0.525,0.046-0.967,0.134v-0.464L143.981,135.886z"/>
</g>
<line fill="none" stroke="#212830" stroke-linecap="square" stroke-miterlimit="10" x1="47.548" y1="15.471" x2="309.817" y2="15.471"/>
<line fill="none" stroke="#212830" stroke-linecap="square" stroke-miterlimit="10" x1="71.54" y1="301.831" x2="47.548" y2="277.839"/>
<g>
	<g>
		
			<line fill="none" stroke="#212830" stroke-linecap="square" stroke-miterlimit="10" x1="198.125" y1="210.451" x2="195.064" y2="207.388"/>
		
			<line fill="none" stroke="#212830" stroke-linecap="square" stroke-miterlimit="10" stroke-dasharray="5.841,5.841" x1="189.107" y1="201.433" x2="180.169" y2="192.497"/>
		
			<line fill="none" stroke="#212830" stroke-linecap="square" stroke-miterlimit="10" x1="177.192" y1="189.518" x2="174.13" y2="186.459"/>
	</g>
</g>
<line fill="none" stroke="#212830" stroke-linecap="square" stroke-miterlimit="10" x1="174.13" y1="106.851" x2="183.232" y2="106.851"/>
<g>
	<g>
		
			<line fill="none" stroke="#212830" stroke-linecap="square" stroke-miterlimit="10" x1="183.232" y1="106.851" x2="183.232" y2="111.178"/>
		
			<line fill="none" stroke="#212830" stroke-linecap="square" stroke-miterlimit="10" stroke-dasharray="5.4658,5.4658" x1="183.232" y1="119.063" x2="183.232" y2="178.189"/>
		
			<line fill="none" stroke="#212830" stroke-linecap="square" stroke-miterlimit="10" x1="183.232" y1="182.132" x2="183.232" y2="186.459"/>
	</g>
</g>
<line fill="none" stroke="#212830" stroke-linecap="square" stroke-miterlimit="10" x1="183.232" y1="186.459" x2="174.13" y2="186.459"/>
<g>
	<g>
		
			<line fill="none" stroke="#212830" stroke-linecap="square" stroke-miterlimit="10" x1="174.13" y1="186.459" x2="174.13" y2="182.132"/>
		
			<line fill="none" stroke="#212830" stroke-linecap="square" stroke-miterlimit="10" stroke-dasharray="5.4658,5.4658" x1="174.13" y1="174.248" x2="174.13" y2="115.121"/>
		
			<line fill="none" stroke="#212830" stroke-linecap="square" stroke-miterlimit="10" x1="174.13" y1="111.178" x2="174.13" y2="106.851"/>
	</g>
</g>
<polygon fill="#212830" points="66.322,70.707 70.65,66.379 55.502,55.562 "/>
<polygon fill="none" stroke="#212830" stroke-linecap="square" stroke-miterlimit="10" points="66.322,70.707 70.65,66.379 
	55.502,55.562 "/>
<g>
	<path fill="#212830" d="M207.653,359.864h-13.305l0.187-0.49c0.705-0.018,1.177-0.075,1.416-0.172
		c0.371-0.158,0.644-0.366,0.821-0.623c0.272-0.405,0.564-1.138,0.874-2.194l3.163-10.921c0.266-0.899,0.396-1.562,0.396-1.985
		c0-0.334-0.121-0.597-0.363-0.781c-0.242-0.186-0.699-0.277-1.371-0.277c-0.149,0-0.269-0.006-0.356-0.014l0.158-0.49h7.319
		l-0.105,0.49c-0.819,0-1.403,0.079-1.746,0.238c-0.345,0.159-0.632,0.419-0.861,0.781c-0.158,0.238-0.42,0.98-0.781,2.223
		l-3.111,10.736c-0.239,0.812-0.357,1.375-0.357,1.693c0,0.211,0.119,0.414,0.357,0.609c0.15,0.133,0.489,0.199,1.021,0.199h1.732
		c1.263,0,2.266-0.158,3.006-0.477c0.547-0.239,1.051-0.597,1.511-1.073c0.245-0.265,0.682-0.921,1.31-1.972l0.344-0.595h0.49
		L207.653,359.864z"/>
</g>
<line fill="none" stroke="#212830" stroke-linecap="square" stroke-miterlimit="10" x1="71.54" y1="331.802" x2="71.54" y2="385.449"/>
<line fill="none" stroke="#212830" stroke-linecap="square" stroke-miterlimit="10" x1="71.54" y1="39.462" x2="333.808" y2="39.462"/>
<polygon fill="#212830" points="391.661,283.503 397.768,283.503 394.714,301.831 "/>
<polygon fill="none" stroke="#212830" stroke-linecap="square" stroke-miterlimit="10" points="391.661,283.503 397.768,283.503 
	394.714,301.831 "/>
<polygon fill="none" stroke="#212830" stroke-linecap="square" stroke-miterlimit="10" points="198.125,210.451 198.125,130.842 
	207.226,130.842 207.226,210.451 "/>
<polygon fill="#212830" points="247.256,192.06 253.364,192.06 250.31,210.451 "/>
<polygon fill="none" stroke="#212830" stroke-linecap="square" stroke-miterlimit="10" points="247.256,192.06 253.364,192.06 
	250.31,210.451 "/>
<line fill="none" stroke="#212830" stroke-linecap="square" stroke-miterlimit="10" x1="47.548" y1="277.839" x2="47.548" y2="15.471"/>
<line fill="none" stroke="#212830" stroke-linecap="square" stroke-miterlimit="10" x1="71.54" y1="39.462" x2="47.548" y2="15.471"/>
<g>
	<g>
		
			<line fill="none" stroke="#212830" stroke-linecap="square" stroke-miterlimit="10" x1="207.226" y1="210.451" x2="204.166" y2="207.388"/>
		
			<line fill="none" stroke="#212830" stroke-linecap="square" stroke-miterlimit="10" stroke-dasharray="5.8411,5.8411" x1="198.208" y1="201.433" x2="189.27" y2="192.497"/>
		
			<line fill="none" stroke="#212830" stroke-linecap="square" stroke-miterlimit="10" x1="186.292" y1="189.518" x2="183.232" y2="186.459"/>
	</g>
</g>
<line fill="none" stroke="#212830" stroke-linecap="square" stroke-miterlimit="10" x1="71.54" y1="39.462" x2="42.52" y2="68.542"/>
<line fill="none" stroke="#212830" stroke-linecap="square" stroke-miterlimit="10" x1="89.68" y1="89.796" x2="0.708" y2="0.708"/>
<line fill="none" stroke="#212830" stroke-linecap="square" stroke-miterlimit="10" x1="315.417" y1="368.839" x2="89.933" y2="368.839"/>
<line fill="none" stroke="#212830" stroke-linecap="square" stroke-miterlimit="10" x1="333.808" y1="301.831" x2="71.54" y2="301.831"/>
<line fill="none" stroke="#212830" stroke-linecap="square" stroke-miterlimit="10" x1="360.73" y1="301.831" x2="407.952" y2="301.831"/>
<polygon fill="#212830" points="391.661,57.853 397.768,57.853 394.714,39.462 "/>
<polygon fill="none" stroke="#212830" stroke-linecap="square" stroke-miterlimit="10" points="391.661,57.853 397.768,57.853 
	394.714,39.462 "/>
<line fill="none" stroke="#212830" stroke-linecap="square" stroke-miterlimit="10" x1="224.218" y1="210.451" x2="263.549" y2="210.451"/>
<polygon fill="#212830" points="247.256,149.233 253.364,149.233 250.31,130.842 "/>
<polygon fill="none" stroke="#212830" stroke-linecap="square" stroke-miterlimit="10" points="247.256,149.233 253.364,149.233 
	250.31,130.842 "/>
<polyline fill="none" stroke="#212830" stroke-linecap="square" stroke-miterlimit="10" points="115.835,164.441 116.664,165.269 
	117.553,166.032 118.318,166.796 119.144,167.496 119.909,168.196 120.672,168.833 121.437,169.467 122.136,170.105 
	122.899,170.677 123.6,171.25 124.236,171.823 124.936,172.332 125.573,172.841 126.209,173.287 126.846,173.733 127.418,174.178 
	128.628,174.941 129.71,175.641 130.792,176.277 131.81,176.787 132.765,177.295 133.718,177.677 134.61,177.997 135.438,178.25 
	136.264,178.441 137.029,178.569 137.792,178.696 138.556,178.696 139.256,178.696 139.892,178.632 140.529,178.505 
	141.229,178.376 141.801,178.187 142.438,177.933 143.01,177.677 143.648,177.359 144.792,176.723 145.938,176.023 147.147,175.26 
	148.357,174.432 149.629,173.669 151.03,172.905 151.729,172.524 152.492,172.142 153.257,171.823 154.021,171.505 154.912,171.187 
	155.739,170.933 156.694,170.677 157.649,170.488 158.667,170.295 159.685,170.232 160.831,170.105 161.976,170.105 
	163.186,170.105 164.458,170.168 165.794,170.295 167.13,170.488 168.595,170.677 170.123,170.997 171.713,171.377 173.368,171.823 
	174.258,172.079 175.149,172.332 176.041,172.651 176.931,172.968 177.886,173.287 178.841,173.606 179.86,173.986 180.814,174.369 
	"/>
<g>
	<g>
		
			<line fill="none" stroke="#212830" stroke-linecap="square" stroke-miterlimit="10" x1="47.548" y1="277.839" x2="51.875" y2="277.839"/>
		
			<line fill="none" stroke="#212830" stroke-linecap="square" stroke-miterlimit="10" stroke-dasharray="6.0631,6.0631" x1="60.62" y1="277.839" x2="301.116" y2="277.839"/>
		
			<line fill="none" stroke="#212830" stroke-linecap="square" stroke-miterlimit="10" x1="305.49" y1="277.839" x2="309.817" y2="277.839"/>
	</g>
</g>
<line fill="none" stroke="#212830" stroke-linecap="square" stroke-miterlimit="10" x1="333.808" y1="39.462" x2="309.817" y2="15.471"/>
<g>
	<g>
		
			<line fill="none" stroke="#212830" stroke-linecap="square" stroke-miterlimit="10" x1="207.226" y1="130.842" x2="204.166" y2="127.783"/>
		
			<line fill="none" stroke="#212830" stroke-linecap="square" stroke-miterlimit="10" stroke-dasharray="5.8411,5.8411" x1="198.208" y1="121.826" x2="189.27" y2="112.889"/>
		
			<line fill="none" stroke="#212830" stroke-linecap="square" stroke-miterlimit="10" x1="186.292" y1="109.91" x2="183.232" y2="106.851"/>
	</g>
</g>
<g>
	<path fill="#212830" d="M22.715,69.264l1.55-14.957c0.061-0.573,0.092-1.016,0.092-1.324c0-0.511-0.146-0.9-0.438-1.164
		c-0.291-0.266-0.816-0.407-1.575-0.424l0.146-0.49h6.726l-0.146,0.49c-0.9-0.009-1.516,0.151-1.847,0.483
		c-0.33,0.332-0.558,1.141-0.682,2.429l-0.992,9.688l6.818-10.522c0.008-0.178,0.013-0.328,0.013-0.45
		c0-0.495-0.146-0.874-0.438-1.14c-0.291-0.264-0.918-0.427-1.879-0.488l0.104-0.49h7.269l-0.146,0.49
		c-0.837,0.008-1.403,0.079-1.694,0.212c-0.21,0.096-0.391,0.253-0.537,0.47c-0.146,0.216-0.263,0.584-0.35,1.104
		c-0.026,0.15-0.135,1.174-0.325,3.071c-0.191,1.897-0.475,4.479-0.854,7.743l5.68-8.629c0.618-0.943,1.006-1.605,1.166-1.985
		c0.159-0.379,0.238-0.701,0.238-0.966c0-0.247-0.105-0.465-0.317-0.655c-0.213-0.189-0.575-0.312-1.085-0.364l0.105-0.489h5.321
		l-0.133,0.489c-0.467,0.035-0.883,0.15-1.244,0.345c-0.362,0.195-0.79,0.565-1.285,1.112c-0.283,0.319-0.865,1.157-1.747,2.516
		l-9.015,13.899h-0.49l1.457-13.899l-9.015,13.899h-0.453V69.264z"/>
</g>
<line fill="none" stroke="#212830" stroke-linecap="square" stroke-miterlimit="10" x1="47.548" y1="15.471" x2="18.527" y2="44.552"/>
<polygon fill="#212830" points="315.417,365.784 315.417,371.893 333.808,368.839 "/>
<polygon fill="none" stroke="#212830" stroke-linecap="square" stroke-miterlimit="10" points="315.417,365.784 315.417,371.893 
	333.808,368.839 "/>
<g>
	<path fill="#212830" d="M376.316,174.55v-8.286l-4.435-1.31c-0.865-0.246-1.535-0.37-2.013-0.37c-0.229,0-0.426,0.054-0.588,0.164
		c-0.163,0.111-0.284,0.279-0.366,0.51c-0.078,0.23-0.118,0.68-0.118,1.351l-0.49-0.133v-7.228l0.49,0.158
		c-0.008,0.608,0.053,1.063,0.187,1.363c0.186,0.423,0.422,0.737,0.714,0.939c0.414,0.291,1.143,0.586,2.185,0.887l10.843,3.163
		c0.9,0.265,1.544,0.396,1.933,0.396c0.336,0,0.589-0.116,0.761-0.351c0.172-0.233,0.29-0.792,0.35-1.675l0.491,0.146v6.99
		l-0.491-0.185c-0.017-0.689-0.079-1.146-0.184-1.377c-0.158-0.354-0.363-0.609-0.611-0.768c-0.344-0.229-1.093-0.513-2.249-0.847
		l-5.495-1.616v8.326l5.495,1.629c0.88,0.255,1.528,0.383,1.933,0.383c0.334,0,0.589-0.115,0.761-0.345
		c0.17-0.229,0.288-0.784,0.351-1.667l0.49,0.105v7.041l-0.49-0.171c-0.017-0.697-0.079-1.161-0.186-1.392
		c-0.158-0.353-0.361-0.612-0.609-0.781c-0.36-0.229-1.112-0.511-2.25-0.847l-10.844-3.177c-0.882-0.255-1.552-0.383-2.013-0.383
		c-0.229,0-0.426,0.055-0.587,0.166c-0.164,0.109-0.285,0.283-0.367,0.516c-0.078,0.234-0.118,0.691-0.118,1.371l-0.49-0.159v-7.082
		l0.49,0.146c-0.008,0.592,0.053,1.028,0.187,1.312c0.178,0.415,0.409,0.72,0.699,0.913c0.391,0.264,1.12,0.555,2.199,0.873
		L376.316,174.55z"/>
</g>
<g>
	<path fill="#212830" d="M237.079,169.133l3.455,1.258v10.59h-0.49c-2.841-3.115-5.162-5.309-6.963-6.579
		c-1.802-1.271-3.448-1.905-4.937-1.905c-1.14,0-2.075,0.349-2.808,1.046c-0.732,0.696-1.099,1.532-1.099,2.501
		c0,0.883,0.258,1.675,0.771,2.376c0.519,0.7,1.275,1.22,2.271,1.556v0.489c-1.631-0.221-2.885-0.787-3.756-1.701
		c-0.875-0.912-1.312-2.054-1.312-3.421c0-1.457,0.468-2.672,1.402-3.646c0.938-0.975,2.04-1.462,3.311-1.462
		c0.91,0,1.82,0.212,2.727,0.635c1.432,0.652,2.944,1.712,4.542,3.177c2.399,2.197,3.848,3.57,4.342,4.116v-4.686
		c0-0.953-0.035-1.623-0.105-2.006c-0.07-0.384-0.214-0.73-0.431-1.039c-0.214-0.309-0.522-0.578-0.921-0.808V169.133
		L237.079,169.133z"/>
</g>
<g>
	<path fill="#212830" d="M228.55,155.286l8.978,2.581l1.205,0.291c0.116,0.028,0.21,0.039,0.291,0.039
		c0.142,0,0.266-0.043,0.371-0.132c0.081-0.071,0.118-0.159,0.118-0.266c0-0.114-0.07-0.265-0.209-0.45
		c-0.257-0.344-0.786-0.804-1.591-1.376l0.32-0.45c0.918,0.608,1.616,1.234,2.099,1.879c0.479,0.644,0.721,1.239,0.721,1.787
		c0,0.38-0.096,0.664-0.284,0.854c-0.191,0.191-0.467,0.285-0.828,0.285c-0.435,0-1.002-0.097-1.707-0.292l-0.993-0.278
		c1.508,1.156,2.562,2.22,3.162,3.19c0.434,0.696,0.65,1.382,0.65,2.051c0,0.644-0.269,1.2-0.803,1.668
		c-0.534,0.467-1.27,0.701-2.203,0.701c-1.404,0-2.885-0.422-4.442-1.264c-1.555-0.843-2.803-1.913-3.74-3.211
		c-0.74-1.014-1.111-1.972-1.111-2.871c0-0.538,0.143-0.987,0.426-1.345c0.281-0.357,0.749-0.629,1.403-0.813l-1.511-0.477
		L228.55,155.286z M229.241,159.999c0,0.565,0.265,1.165,0.795,1.8c0.751,0.9,1.862,1.7,3.335,2.403
		c1.474,0.701,2.807,1.052,3.998,1.052c0.6,0,1.071-0.15,1.421-0.45s0.522-0.646,0.522-1.033c0-0.962-0.71-2.008-2.133-3.137
		c-1.887-1.509-3.825-2.263-5.812-2.263c-0.749,0-1.291,0.146-1.628,0.437C229.409,159.098,229.241,159.495,229.241,159.999z"/>
</g>
<line fill="none" stroke="#212830" stroke-linecap="square" stroke-miterlimit="10" x1="71.54" y1="301.831" x2="71.54" y2="39.462"/>
<line fill="none" stroke="#212830" stroke-linecap="square" stroke-miterlimit="10" x1="360.73" y1="39.462" x2="407.952" y2="39.462"/>
<line fill="none" stroke="#212830" stroke-linecap="square" stroke-miterlimit="10" x1="224.218" y1="130.842" x2="263.549" y2="130.842"/>
<polygon fill="#212830" points="179.795,177.232 181.832,171.505 198.125,180.477 "/>
<polygon fill="none" stroke="#212830" stroke-linecap="square" stroke-miterlimit="10" points="179.795,177.232 181.832,171.505 
	198.125,180.477 "/>
<g>
	<g>
		
			<line fill="none" stroke="#212830" stroke-linecap="square" stroke-miterlimit="10" x1="309.817" y1="15.471" x2="309.817" y2="19.798"/>
		
			<line fill="none" stroke="#212830" stroke-linecap="square" stroke-miterlimit="10" stroke-dasharray="6.0655,6.0655" x1="309.817" y1="28.545" x2="309.817" y2="269.137"/>
		
			<line fill="none" stroke="#212830" stroke-linecap="square" stroke-miterlimit="10" x1="309.817" y1="273.512" x2="309.817" y2="277.839"/>
	</g>
</g>
<g>
	<g>
		
			<line fill="none" stroke="#212830" stroke-linecap="square" stroke-miterlimit="10" x1="333.808" y1="301.831" x2="330.749" y2="298.771"/>
		
			<line fill="none" stroke="#212830" stroke-linecap="square" stroke-miterlimit="10" stroke-dasharray="5.841,5.841" x1="324.792" y1="292.814" x2="315.854" y2="283.878"/>
		
			<line fill="none" stroke="#212830" stroke-linecap="square" stroke-miterlimit="10" x1="312.876" y1="280.899" x2="309.817" y2="277.839"/>
	</g>
</g>
<g>
	<g>
		
			<line fill="none" stroke="#212830" stroke-linecap="square" stroke-miterlimit="10" x1="198.125" y1="130.842" x2="195.064" y2="127.783"/>
		
			<line fill="none" stroke="#212830" stroke-linecap="square" stroke-miterlimit="10" stroke-dasharray="5.841,5.841" x1="189.107" y1="121.826" x2="180.169" y2="112.889"/>
		
			<line fill="none" stroke="#212830" stroke-linecap="square" stroke-miterlimit="10" x1="177.192" y1="109.91" x2="174.13" y2="106.851"/>
	</g>
</g>
<polygon fill="#212830" points="16.364,20.689 20.691,16.362 31.51,31.507 "/>
<polygon fill="none" stroke="#212830" stroke-linecap="square" stroke-miterlimit="10" points="16.364,20.689 20.691,16.362 
	31.51,31.507 "/>
<line fill="none" stroke="#212830" stroke-linecap="square" stroke-miterlimit="10" x1="333.808" y1="331.802" x2="333.808" y2="385.449"/>
<polygon fill="#212830" points="89.933,365.784 89.933,371.893 71.54,368.839 "/>
<polygon fill="none" stroke="#212830" stroke-linecap="square" stroke-miterlimit="10" points="89.933,365.784 89.933,371.893 
	71.54,368.839 "/>
<line fill="none" stroke="#212830" stroke-linecap="square" stroke-miterlimit="10" x1="333.808" y1="39.462" x2="333.808" y2="301.831"/>
<line fill="none" stroke="#212830" stroke-linecap="square" stroke-miterlimit="10" x1="394.714" y1="283.503" x2="394.714" y2="57.853"/>
<line fill="none" stroke="#212830" stroke-linecap="square" stroke-miterlimit="10" x1="250.31" y1="210.451" x2="250.31" y2="149.233"/>
</svg>
