<?xml version="1.0" encoding="utf-8"?>
<!-- Generator: Adobe Illustrator 16.0.0, SVG Export Plug-In . SVG Version: 6.00 Build 0)  -->
<!DOCTYPE svg PUBLIC "-//W3C//DTD SVG 1.1//EN" "http://www.w3.org/Graphics/SVG/1.1/DTD/svg11.dtd">
<svg version="1.1" id="Layer_1" xmlns="http://www.w3.org/2000/svg" xmlns:xlink="http://www.w3.org/1999/xlink" x="0px" y="0px"
	 width="352.728px" height="310.705px" viewBox="0 0 352.728 310.705" enable-background="new 0 0 352.728 310.705"
	 xml:space="preserve">
<g>
	<g>
		<path fill="#212830" d="M152.766,25.667l2.275-20.899c0.09-0.802,0.137-1.418,0.139-1.85c0.004-0.715-0.197-1.259-0.602-1.632
			c-0.405-0.372-1.139-0.573-2.2-0.604L152.585,0l9.401,0.049l-0.207,0.684c-1.259-0.019-2.12,0.202-2.585,0.662
			c-0.465,0.46-0.789,1.591-0.971,3.391l-1.459,13.539l9.608-14.662c0.014-0.247,0.021-0.457,0.022-0.629
			c0.003-0.69-0.197-1.222-0.603-1.594c-0.405-0.373-1.28-0.605-2.625-0.699l0.152-0.684l10.16,0.053l-0.208,0.684
			c-1.172,0.006-1.962,0.101-2.37,0.283c-0.296,0.135-0.548,0.353-0.753,0.653c-0.205,0.301-0.372,0.815-0.498,1.542
			c-0.039,0.21-0.197,1.64-0.477,4.291c-0.279,2.651-0.696,6.258-1.25,10.819l8.003-12.023c0.87-1.315,1.418-2.238,1.643-2.767
			s0.338-0.979,0.34-1.349c0.002-0.345-0.145-0.651-0.439-0.918c-0.294-0.267-0.799-0.439-1.515-0.517l0.152-0.684l7.439,0.039
			l-0.188,0.684c-0.654,0.046-1.235,0.204-1.741,0.472c-0.508,0.269-1.109,0.784-1.804,1.545c-0.397,0.442-1.218,1.61-2.461,3.503
			L164.647,25.73l-0.685-0.004L166.1,6.307l-12.705,19.364L152.766,25.667z"/>
	</g>
	
		<line fill="none" stroke="#212830" stroke-linecap="square" stroke-miterlimit="10" x1="32.666" y1="299.396" x2="33.901" y2="42.847"/>
	
		<line fill="none" stroke="#212830" stroke-linecap="square" stroke-miterlimit="10" x1="290.299" y1="44.082" x2="325.774" y2="44.258"/>
	
		<line fill="none" stroke="#212830" stroke-linecap="square" stroke-miterlimit="10" x1="290.035" y1="95.392" x2="325.509" y2="95.568"/>
	
		<line fill="none" stroke="#212830" stroke-linecap="square" stroke-miterlimit="10" x1="289.549" y1="198.011" x2="325.024" y2="198.188"/>
	
		<line fill="none" stroke="#212830" stroke-linecap="square" stroke-miterlimit="10" x1="289.064" y1="300.631" x2="324.539" y2="300.808"/>
	
		<line fill="none" stroke="#212830" stroke-linecap="square" stroke-miterlimit="10" x1="1.868" y1="53.567" x2="33.901" y2="42.847"/>
	
		<line fill="none" stroke="#212830" stroke-linecap="square" stroke-miterlimit="10" x1="1.603" y1="104.833" x2="33.68" y2="94.156"/>
	
		<line fill="none" stroke="#212830" stroke-linecap="square" stroke-miterlimit="10" x1="1.382" y1="156.143" x2="33.416" y2="145.466"/>
	
		<line fill="none" stroke="#212830" stroke-linecap="square" stroke-miterlimit="10" x1="1.118" y1="207.452" x2="33.151" y2="196.776"/>
	
		<line fill="none" stroke="#212830" stroke-linecap="square" stroke-miterlimit="10" x1="0.853" y1="258.763" x2="32.93" y2="248.086"/>
	
		<line fill="none" stroke="#212830" stroke-linecap="square" stroke-miterlimit="10" x1="0.632" y1="310.072" x2="32.666" y2="299.396"/>
	
		<line fill="none" stroke="#212830" stroke-linecap="square" stroke-miterlimit="10" x1="33.901" y1="42.847" x2="290.299" y2="44.082"/>
	<polygon fill-rule="evenodd" clip-rule="evenodd" fill="#212830" points="325.289,142.863 325.245,150.849 349.204,147.01 	"/>
	<polygon fill="none" stroke="#212830" stroke-linecap="square" stroke-miterlimit="10" points="325.289,142.863 325.245,150.849 
		349.204,147.01 325.289,142.863 	"/>
	<polygon fill-rule="evenodd" clip-rule="evenodd" fill="#212830" points="324.803,245.482 324.759,253.468 348.718,249.586 	"/>
	<g>
		<path fill="#212830" d="M190.731,172.996l-1.784,4.82l-14.804-0.077l0.003-0.686c4.376-3.949,7.459-7.178,9.248-9.684
			c1.79-2.508,2.69-4.805,2.701-6.889c0.009-1.592-0.473-2.902-1.441-3.932c-0.969-1.028-2.133-1.547-3.49-1.554
			c-1.232-0.007-2.342,0.349-3.326,1.065s-1.716,1.771-2.192,3.162l-0.685-0.004c0.32-2.281,1.123-4.027,2.406-5.243
			c1.283-1.214,2.881-1.817,4.793-1.807c2.035,0.01,3.731,0.674,5.088,1.988c1.356,1.315,2.031,2.86,2.021,4.637
			c-0.007,1.271-0.31,2.54-0.908,3.808c-0.924,1.994-2.416,4.102-4.475,6.323c-3.09,3.339-5.02,5.353-5.787,6.039l6.551,0.034
			c1.332,0.008,2.268-0.037,2.805-0.133s1.021-0.293,1.455-0.594c0.434-0.3,0.813-0.727,1.137-1.28L190.731,172.996z"/>
	</g>
	<g>
		<path fill="#212830" d="M210.123,161.149l-3.675,12.526l-0.416,1.683c-0.038,0.16-0.058,0.295-0.058,0.406
			c-0.001,0.197,0.06,0.371,0.182,0.52c0.099,0.111,0.222,0.168,0.369,0.168c0.16,0.001,0.371-0.097,0.632-0.293
			c0.482-0.355,1.128-1.092,1.937-2.21l0.627,0.446c-0.858,1.279-1.74,2.252-2.645,2.92s-1.738,1-2.504,0.996
			c-0.529-0.003-0.927-0.139-1.19-0.404c-0.265-0.267-0.395-0.653-0.392-1.159c0.003-0.604,0.143-1.399,0.42-2.385l0.396-1.386
			c-1.628,2.102-3.122,3.568-4.483,4.399c-0.979,0.599-1.936,0.896-2.873,0.892c-0.901-0.004-1.677-0.383-2.326-1.132
			c-0.65-0.75-0.973-1.778-0.965-3.086c0.01-1.962,0.61-4.028,1.8-6.198c1.189-2.172,2.694-3.906,4.515-5.205
			c1.424-1.028,2.766-1.539,4.025-1.533c0.752,0.004,1.377,0.205,1.875,0.602c0.497,0.398,0.873,1.054,1.127,1.968l0.678-2.106
			L210.123,161.149z M203.529,162.077c-0.79-0.004-1.631,0.361-2.522,1.097c-1.265,1.042-2.392,2.591-3.384,4.646
			s-1.492,3.915-1.5,5.58c-0.004,0.84,0.201,1.504,0.618,1.992c0.417,0.49,0.896,0.736,1.44,0.739
			c1.344,0.007,2.812-0.978,4.4-2.956c2.125-2.629,3.193-5.331,3.207-8.106c0.006-1.048-0.193-1.809-0.598-2.28
			C204.787,162.317,204.232,162.081,203.529,162.077z"/>
	</g>
	<polygon fill="none" stroke="#212830" stroke-linecap="square" stroke-miterlimit="10" points="324.803,245.482 324.759,253.468 
		348.718,249.586 324.803,245.482 	"/>
	
		<line fill="none" stroke="#212830" stroke-linecap="square" stroke-miterlimit="10" x1="1.868" y1="42.847" x2="1.868" y2="32.17"/>
	
		<line fill="none" stroke="#212830" stroke-linecap="square" stroke-miterlimit="10" x1="1.603" y1="94.156" x2="1.603" y2="83.479"/>
	
		<line fill="none" stroke="#212830" stroke-linecap="square" stroke-miterlimit="10" x1="1.382" y1="145.466" x2="1.382" y2="134.79"/>
	
		<line fill="none" stroke="#212830" stroke-linecap="square" stroke-miterlimit="10" x1="1.118" y1="196.776" x2="1.118" y2="186.099"/>
	
		<line fill="none" stroke="#212830" stroke-linecap="square" stroke-miterlimit="10" x1="0.853" y1="248.086" x2="0.853" y2="237.409"/>
	
		<line fill="none" stroke="#212830" stroke-linecap="square" stroke-miterlimit="10" x1="0.632" y1="299.396" x2="0.632" y2="288.719"/>
	
		<line fill="none" stroke="#212830" stroke-linecap="square" stroke-miterlimit="10" x1="290.299" y1="44.082" x2="289.064" y2="300.631"/>
	
		<line fill="none" stroke="#212830" stroke-linecap="square" stroke-miterlimit="10" x1="161.504" y1="121.289" x2="161.372" y2="223.424"/>
	
		<line fill="none" stroke="#212830" stroke-linecap="square" stroke-miterlimit="10" x1="289.814" y1="146.701" x2="325.289" y2="146.878"/>
	
		<line fill="none" stroke="#212830" stroke-linecap="square" stroke-miterlimit="10" x1="289.329" y1="249.321" x2="324.803" y2="249.497"/>
	
		<line fill="none" stroke="#212830" stroke-linecap="square" stroke-miterlimit="10" x1="1.868" y1="32.17" x2="33.901" y2="42.847"/>
	
		<line fill="none" stroke="#212830" stroke-linecap="square" stroke-miterlimit="10" x1="1.603" y1="83.479" x2="33.68" y2="94.156"/>
	
		<line fill="none" stroke="#212830" stroke-linecap="square" stroke-miterlimit="10" x1="1.382" y1="134.79" x2="33.416" y2="145.466"/>
	
		<line fill="none" stroke="#212830" stroke-linecap="square" stroke-miterlimit="10" x1="1.118" y1="186.099" x2="33.151" y2="196.776"/>
	
		<line fill="none" stroke="#212830" stroke-linecap="square" stroke-miterlimit="10" x1="0.853" y1="237.409" x2="32.93" y2="248.086"/>
	
		<line fill="none" stroke="#212830" stroke-linecap="square" stroke-miterlimit="10" x1="0.632" y1="288.719" x2="32.666" y2="299.396"/>
	
		<line fill="none" stroke="#212830" stroke-linecap="square" stroke-miterlimit="10" x1="289.064" y1="300.631" x2="32.666" y2="299.396"/>
	<polygon fill-rule="evenodd" clip-rule="evenodd" fill="#212830" points="325.774,40.288 325.73,48.273 349.689,44.391 	"/>
	<polygon fill="none" stroke="#212830" stroke-linecap="square" stroke-miterlimit="10" points="325.774,40.288 325.73,48.273 
		349.689,44.391 325.774,40.288 	"/>
	<polygon fill-rule="evenodd" clip-rule="evenodd" fill="#212830" points="325.553,91.598 325.509,99.539 349.468,95.701 	"/>
	<polygon fill="none" stroke="#212830" stroke-linecap="square" stroke-miterlimit="10" points="325.553,91.598 325.509,99.539 
		349.468,95.701 325.553,91.598 	"/>
	<polygon fill-rule="evenodd" clip-rule="evenodd" fill="#212830" points="325.068,194.173 325.024,202.158 348.939,198.276 	"/>
	<polygon fill="none" stroke="#212830" stroke-linecap="square" stroke-miterlimit="10" points="325.068,194.173 325.024,202.158 
		348.939,198.276 325.068,194.173 	"/>
	<polygon fill-rule="evenodd" clip-rule="evenodd" fill="#212830" points="324.539,296.792 324.495,304.778 348.454,300.896 	"/>
	<g>
		<path fill="#212830" d="M261.622,166.987l11.585,0.061l1.865-6.189c0.352-1.207,0.529-2.144,0.533-2.81
			c0.001-0.321-0.074-0.596-0.228-0.825c-0.153-0.229-0.39-0.4-0.71-0.512c-0.32-0.113-0.949-0.172-1.887-0.177l0.188-0.684
			l10.104,0.053l-0.225,0.683c-0.852-0.016-1.488,0.066-1.908,0.25c-0.594,0.256-1.033,0.586-1.32,0.992
			c-0.408,0.578-0.828,1.594-1.254,3.047l-4.504,15.131c-0.377,1.257-0.566,2.156-0.568,2.699c-0.003,0.469,0.158,0.824,0.484,1.066
			s1.105,0.41,2.338,0.504l-0.207,0.683l-9.771-0.051l0.264-0.684c0.962-0.02,1.604-0.103,1.926-0.249
			c0.494-0.22,0.854-0.501,1.078-0.846c0.322-0.479,0.723-1.525,1.2-3.14l2.298-7.667l-11.641-0.061l-2.316,7.666
			c-0.364,1.232-0.548,2.133-0.551,2.699c-0.002,0.47,0.156,0.824,0.477,1.066c0.318,0.242,1.095,0.41,2.328,0.504l-0.151,0.684
			l-9.845-0.052l0.244-0.684c0.975-0.02,1.622-0.103,1.943-0.249c0.495-0.22,0.861-0.501,1.097-0.846
			c0.323-0.504,0.724-1.551,1.201-3.14l4.521-15.132c0.365-1.23,0.549-2.168,0.552-2.809c0.001-0.321-0.074-0.596-0.228-0.826
			c-0.152-0.229-0.393-0.399-0.719-0.512c-0.326-0.113-0.965-0.172-1.914-0.177l0.225-0.684l9.902,0.052l-0.207,0.684
			c-0.827-0.017-1.438,0.066-1.834,0.25c-0.582,0.243-1.009,0.568-1.283,0.974c-0.372,0.541-0.785,1.563-1.236,3.065
			L261.622,166.987z"/>
	</g>
	<polygon fill="none" stroke="#212830" stroke-linecap="square" stroke-miterlimit="10" points="324.539,296.792 324.495,304.778 
		348.454,300.896 324.539,296.792 	"/>
	
		<line fill="none" stroke="#212830" stroke-linecap="square" stroke-miterlimit="10" x1="1.868" y1="42.847" x2="1.868" y2="53.567"/>
	
		<line fill="none" stroke="#212830" stroke-linecap="square" stroke-miterlimit="10" x1="1.603" y1="94.156" x2="1.603" y2="104.833"/>
	
		<line fill="none" stroke="#212830" stroke-linecap="square" stroke-miterlimit="10" x1="1.382" y1="145.466" x2="1.382" y2="156.143"/>
	
		<line fill="none" stroke="#212830" stroke-linecap="square" stroke-miterlimit="10" x1="1.118" y1="196.776" x2="1.118" y2="207.452"/>
	
		<line fill="none" stroke="#212830" stroke-linecap="square" stroke-miterlimit="10" x1="0.853" y1="248.086" x2="0.853" y2="258.763"/>
	
		<line fill="none" stroke="#212830" stroke-linecap="square" stroke-miterlimit="10" x1="0.632" y1="299.396" x2="0.632" y2="310.072"/>
</g>
</svg>
