<?xml version="1.0" encoding="utf-8"?>
<!-- Generator: Adobe Illustrator 16.0.0, SVG Export Plug-In . SVG Version: 6.00 Build 0)  -->
<!DOCTYPE svg PUBLIC "-//W3C//DTD SVG 1.1//EN" "http://www.w3.org/Graphics/SVG/1.1/DTD/svg11.dtd">
<svg version="1.1" id="Layer_1" xmlns="http://www.w3.org/2000/svg" xmlns:xlink="http://www.w3.org/1999/xlink" x="0px" y="0px"
	 width="632.355px" height="303.544px" viewBox="0 0 632.355 303.544" enable-background="new 0 0 632.355 303.544"
	 xml:space="preserve">
<g>
	<path fill="#212830" d="M149.478,81.419l-1.286,5.589h-0.458l-0.051-1.4c-0.043-0.509-0.14-0.963-0.293-1.362
		s-0.382-0.745-0.688-1.038c-0.306-0.293-0.692-0.522-1.159-0.688c-0.467-0.166-0.985-0.249-1.554-0.249
		c-1.52,0-2.848,0.416-3.985,1.248c-1.451,1.061-2.589,2.559-3.412,4.494c-0.679,1.596-1.019,3.212-1.019,4.851
		c0,1.672,0.488,3.007,1.464,4.004c0.976,0.998,2.245,1.496,3.807,1.496c1.18,0,2.23-0.263,3.151-0.79
		c0.921-0.526,1.776-1.337,2.566-2.432h0.599c-0.934,1.485-1.97,2.578-3.107,3.278c-1.138,0.7-2.5,1.05-4.087,1.05
		c-1.409,0-2.657-0.295-3.743-0.885c-1.087-0.59-1.915-1.419-2.483-2.489c-0.569-1.07-0.853-2.22-0.853-3.45
		c0-1.884,0.505-3.718,1.515-5.5c1.01-1.783,2.396-3.183,4.157-4.202c1.761-1.019,3.538-1.528,5.329-1.528
		c0.84,0,1.783,0.2,2.827,0.599c0.458,0.17,0.79,0.254,0.993,0.254s0.382-0.042,0.535-0.127s0.407-0.327,0.764-0.726H149.478z"/>
	<path fill="#212830" d="M149.912,88.269l4.393-0.713l-1.833,6.188c1.485-2.538,2.835-4.312,4.049-5.322
		c0.688-0.577,1.248-0.866,1.681-0.866c0.28,0,0.501,0.083,0.662,0.248s0.242,0.406,0.242,0.72c0,0.56-0.145,1.095-0.433,1.604
		c-0.204,0.382-0.497,0.573-0.878,0.573c-0.195,0-0.363-0.063-0.503-0.191c-0.14-0.127-0.228-0.322-0.261-0.585
		c-0.017-0.161-0.055-0.268-0.115-0.318c-0.068-0.068-0.148-0.102-0.242-0.102c-0.145,0-0.28,0.034-0.408,0.102
		c-0.221,0.119-0.556,0.45-1.006,0.993c-0.705,0.832-1.468,1.91-2.292,3.234c-0.357,0.56-0.662,1.192-0.917,1.897
		c-0.356,0.967-0.56,1.549-0.611,1.744l-0.407,1.604h-1.948l2.355-7.906c0.272-0.917,0.408-1.57,0.408-1.96
		c0-0.153-0.064-0.28-0.191-0.382c-0.17-0.135-0.395-0.204-0.675-0.204c-0.178,0-0.505,0.038-0.98,0.115L149.912,88.269z"/>
	<path fill="#212830" d="M170.908,87.556l-2.483,8.632l-0.28,1.159c-0.025,0.11-0.038,0.204-0.038,0.28
		c0,0.136,0.042,0.254,0.127,0.356c0.068,0.076,0.152,0.114,0.254,0.114c0.11,0,0.255-0.068,0.433-0.204
		c0.331-0.246,0.772-0.755,1.324-1.528l0.433,0.306c-0.585,0.883-1.188,1.556-1.808,2.018s-1.192,0.694-1.719,0.694
		c-0.365,0-0.639-0.091-0.821-0.274c-0.183-0.182-0.274-0.447-0.274-0.795c0-0.416,0.094-0.963,0.28-1.643l0.268-0.955
		c-1.112,1.452-2.135,2.466-3.069,3.043c-0.67,0.416-1.329,0.624-1.974,0.624c-0.62,0-1.154-0.257-1.604-0.771
		c-0.45-0.513-0.675-1.22-0.675-2.12c0-1.35,0.405-2.773,1.216-4.271s1.84-2.697,3.088-3.597c0.976-0.713,1.897-1.069,2.763-1.069
		c0.518,0,0.949,0.136,1.292,0.407c0.344,0.272,0.605,0.722,0.783,1.35l0.458-1.451L170.908,87.556z M166.375,88.218
		c-0.543,0-1.12,0.254-1.731,0.764c-0.866,0.722-1.636,1.791-2.311,3.208s-1.012,2.699-1.012,3.845c0,0.578,0.144,1.034,0.433,1.369
		c0.288,0.335,0.619,0.503,0.993,0.503c0.925,0,1.931-0.683,3.018-2.05c1.451-1.816,2.177-3.679,2.177-5.589
		c0-0.721-0.14-1.244-0.42-1.566C167.241,88.379,166.858,88.218,166.375,88.218z"/>
	<path fill="#212830" d="M181.781,96.302c-0.883,1.061-1.774,1.84-2.674,2.336c-0.9,0.497-1.851,0.745-2.853,0.745
		c-1.205,0-2.146-0.339-2.82-1.019s-1.012-1.591-1.012-2.737c0-1.299,0.363-2.576,1.089-3.832c0.726-1.256,1.702-2.277,2.928-3.062
		s2.43-1.178,3.61-1.178c0.925,0,1.617,0.193,2.076,0.579c0.458,0.387,0.688,0.859,0.688,1.42c0,0.526-0.162,0.976-0.484,1.349
		c-0.238,0.289-0.531,0.433-0.878,0.433c-0.263,0-0.482-0.085-0.656-0.254c-0.174-0.17-0.261-0.382-0.261-0.637
		c0-0.161,0.032-0.31,0.096-0.446c0.063-0.136,0.195-0.299,0.395-0.49c0.199-0.191,0.32-0.329,0.363-0.414s0.064-0.174,0.064-0.268
		c0-0.178-0.081-0.327-0.242-0.445c-0.246-0.17-0.594-0.255-1.044-0.255c-0.832,0-1.655,0.293-2.47,0.878
		c-0.815,0.586-1.511,1.418-2.088,2.496c-0.696,1.307-1.044,2.614-1.044,3.921c0,0.866,0.246,1.551,0.739,2.056
		c0.492,0.505,1.163,0.757,2.012,0.757c0.653,0,1.301-0.163,1.941-0.49c0.641-0.327,1.36-0.918,2.158-1.776L181.781,96.302z"/>
	<path fill="#212830" d="M190.745,80.974l-3.616,12.515l1.452-1.235c1.587-1.341,2.619-2.334,3.094-2.979
		c0.152-0.212,0.229-0.374,0.229-0.484c0-0.076-0.025-0.148-0.077-0.216c-0.051-0.068-0.15-0.123-0.299-0.166
		c-0.149-0.042-0.41-0.063-0.783-0.063h-0.446l0.14-0.484h5.564l-0.127,0.484c-0.637,0.034-1.187,0.133-1.649,0.299
		c-0.463,0.166-0.911,0.41-1.343,0.732c-0.857,0.636-1.422,1.078-1.693,1.324l-1.095,0.968c0.187,0.611,0.416,1.464,0.688,2.559
		c0.458,1.816,0.768,2.895,0.93,3.234c0.161,0.339,0.327,0.509,0.497,0.509c0.144,0,0.314-0.072,0.509-0.217
		c0.441-0.322,0.912-0.836,1.413-1.541l0.446,0.318c-0.925,1.163-1.634,1.929-2.126,2.298c-0.492,0.369-0.942,0.554-1.35,0.554
		c-0.356,0-0.632-0.14-0.828-0.42c-0.339-0.5-0.904-2.474-1.693-5.92l-1.745,1.515l-1.312,4.52h-1.986l4.227-14.526l0.356-1.235
		c0.042-0.212,0.064-0.398,0.064-0.56c0-0.204-0.079-0.374-0.236-0.509s-0.384-0.204-0.681-0.204c-0.195,0-0.505,0.042-0.93,0.127
		v-0.446L190.745,80.974z"/>
	<path fill="#212830" d="M208.151,84.398l-0.993,3.463h1.999l-0.216,0.802h-1.986l-2.19,7.512c-0.238,0.807-0.356,1.329-0.356,1.566
		c0,0.145,0.034,0.255,0.102,0.331c0.068,0.077,0.148,0.115,0.242,0.115c0.212,0,0.492-0.148,0.84-0.446
		c0.204-0.169,0.658-0.691,1.363-1.566l0.42,0.318c-0.781,1.138-1.52,1.939-2.215,2.406c-0.476,0.322-0.955,0.484-1.439,0.484
		c-0.374,0-0.679-0.117-0.917-0.35c-0.238-0.233-0.357-0.533-0.357-0.897c0-0.458,0.136-1.159,0.408-2.101l2.126-7.372h-1.923
		l0.127-0.496c0.934-0.255,1.71-0.635,2.33-1.14s1.312-1.381,2.075-2.629H208.151z"/>
	<path fill="#212830" d="M214.619,87.556l-2.521,8.925c-0.17,0.603-0.255,0.963-0.255,1.082c0,0.136,0.041,0.247,0.121,0.331
		c0.081,0.085,0.176,0.127,0.287,0.127c0.127,0,0.28-0.068,0.458-0.204c0.484-0.382,0.972-0.925,1.464-1.63l0.446,0.293
		c-0.577,0.883-1.256,1.625-2.037,2.228c-0.578,0.45-1.129,0.675-1.655,0.675c-0.348,0-0.632-0.104-0.853-0.312
		c-0.221-0.208-0.331-0.469-0.331-0.783c0-0.313,0.106-0.836,0.318-1.566l1.655-5.704c0.271-0.934,0.407-1.519,0.407-1.757
		c0-0.187-0.066-0.339-0.197-0.458c-0.132-0.119-0.312-0.178-0.541-0.178c-0.187,0-0.573,0.047-1.159,0.14v-0.497L214.619,87.556z
		 M214.453,82.501c0.356,0,0.658,0.123,0.904,0.369c0.246,0.246,0.369,0.547,0.369,0.904c0,0.348-0.125,0.647-0.375,0.897
		c-0.25,0.25-0.55,0.375-0.898,0.375s-0.647-0.125-0.897-0.375c-0.25-0.25-0.376-0.549-0.376-0.897c0-0.356,0.123-0.658,0.37-0.904
		C213.795,82.625,214.097,82.501,214.453,82.501z"/>
	<path fill="#212830" d="M221.635,87.556l-0.879,2.928c0.925-1.086,1.751-1.846,2.477-2.279c0.726-0.433,1.466-0.649,2.222-0.649
		c0.755,0,1.4,0.299,1.935,0.897c0.535,0.599,0.802,1.377,0.802,2.336c0,1.867-0.76,3.767-2.279,5.697
		c-1.52,1.931-3.289,2.896-5.309,2.896c-0.425,0-0.8-0.047-1.127-0.14c-0.327-0.094-0.694-0.259-1.102-0.497l-0.929,3.285
		c-0.187,0.645-0.28,1.065-0.28,1.26c0,0.187,0.049,0.346,0.146,0.478c0.097,0.132,0.256,0.233,0.478,0.306
		c0.22,0.072,0.658,0.108,1.311,0.108l-0.114,0.471h-5.997l0.127-0.471c0.79-0.034,1.322-0.17,1.598-0.408s0.566-0.896,0.872-1.973
		l3.222-11.153c0.195-0.705,0.292-1.142,0.292-1.312c0-0.229-0.065-0.407-0.197-0.535c-0.131-0.127-0.333-0.191-0.604-0.191
		c-0.247,0-0.59,0.03-1.032,0.089v-0.497L221.635,87.556z M218.668,97.741c0.526,0.628,1.235,0.942,2.126,0.942
		c0.441,0,0.891-0.123,1.35-0.369s0.906-0.611,1.343-1.095c0.437-0.484,0.83-1.042,1.178-1.674c0.348-0.632,0.66-1.377,0.936-2.234
		c0.275-0.857,0.414-1.706,0.414-2.546c0-0.679-0.155-1.199-0.465-1.56s-0.673-0.542-1.088-0.542c-0.917,0-1.823,0.526-2.719,1.579
		c-0.896,1.052-1.551,2.283-1.967,3.692L218.668,97.741z"/>
</g>
<g>
	<path fill="#212830" d="M29.725,11.643L27.51,19.23c-0.331,1.129-0.497,1.842-0.497,2.139c0,0.153,0.027,0.266,0.083,0.337
		c0.055,0.072,0.129,0.108,0.223,0.108c0.145,0,0.304-0.066,0.478-0.197c0.174-0.132,0.613-0.656,1.318-1.572l0.382,0.292
		c-0.671,1.061-1.358,1.842-2.063,2.343c-0.467,0.322-0.917,0.484-1.35,0.484c-0.331,0-0.59-0.094-0.777-0.28
		s-0.28-0.428-0.28-0.726c0-0.289,0.055-0.67,0.166-1.146c0.135-0.628,0.522-1.994,1.159-4.1c-1.443,2.368-2.651,4.002-3.623,4.902
		c-0.972,0.9-1.874,1.35-2.706,1.35c-0.39,0-0.721-0.136-0.993-0.408c-0.272-0.271-0.408-0.615-0.408-1.031
		c0-0.636,0.187-1.612,0.56-2.928l1.108-3.934c0.271-0.942,0.408-1.528,0.408-1.757c0-0.102-0.037-0.188-0.108-0.261
		c-0.072-0.072-0.151-0.108-0.236-0.108c-0.178,0-0.356,0.064-0.535,0.191c-0.178,0.127-0.582,0.599-1.209,1.413l-0.395-0.28
		c0.636-0.984,1.311-1.71,2.024-2.177c0.543-0.365,1.044-0.547,1.502-0.547c0.314,0,0.571,0.1,0.77,0.299
		c0.2,0.199,0.299,0.456,0.299,0.77c0,0.458-0.17,1.278-0.509,2.458l-1.197,4.112c-0.331,1.121-0.497,1.83-0.497,2.126
		c0,0.161,0.053,0.291,0.159,0.388c0.106,0.098,0.248,0.146,0.427,0.146c0.28,0,0.645-0.14,1.095-0.42
		c0.45-0.28,1.05-0.901,1.802-1.865s1.371-1.867,1.859-2.712s1.008-2.188,1.56-4.03l0.28-0.967H29.725z"/>
</g>
<polygon fill="none" stroke="#212830" stroke-linecap="square" stroke-miterlimit="10" points="178.668,151.772 178.624,150.757 
	178.447,149.743 178.183,148.772 177.786,147.845 177.3,146.963 176.727,146.125 176.065,145.331 175.315,144.669 174.477,144.051 
	173.594,143.566 172.667,143.125 171.697,142.816 170.726,142.64 169.711,142.551 168.696,142.595 167.682,142.728 166.711,142.992 
	165.74,143.345 164.857,143.787 163.975,144.36 163.181,144.978 162.475,145.728 161.857,146.522 161.328,147.404 160.887,148.287 
	160.578,149.257 160.357,150.272 160.225,151.243 160.225,152.301 160.357,153.272 160.578,154.287 160.887,155.257 161.328,156.14 
	161.857,157.022 162.475,157.816 163.181,158.566 163.975,159.184 164.857,159.757 165.74,160.199 166.711,160.552 167.682,160.816 
	168.696,160.949 169.711,160.993 170.726,160.904 171.697,160.728 172.667,160.419 173.594,159.978 174.477,159.493 
	175.315,158.875 176.065,158.213 176.727,157.419 177.3,156.582 177.786,155.699 178.183,154.772 178.447,153.801 178.624,152.787 
	178.668,151.772 "/>
<line fill="none" stroke="#212830" stroke-linecap="square" stroke-miterlimit="10" x1="3.5" y1="140.478" x2="3.5" y2="163.022"/>
<line fill="none" stroke="#212830" stroke-linecap="square" stroke-miterlimit="10" x1="3.5" y1="236.612" x2="606.705" y2="236.612"/>
<polygon fill-rule="evenodd" clip-rule="evenodd" fill="#212830" points="21.149,169.199 21.193,175.111 3.5,172.244 "/>
<polygon fill="none" stroke="#212830" stroke-linecap="square" stroke-miterlimit="10" points="21.149,169.199 21.193,175.111 
	3.5,172.244 21.149,169.199 "/>
<line fill="none" stroke="#212830" stroke-linecap="square" stroke-miterlimit="10" x1="630.795" y1="48.358" x2="607.19" y2="56.255"/>
<line fill="none" stroke="#212830" stroke-linecap="square" stroke-miterlimit="10" x1="630.972" y1="86.212" x2="607.367" y2="94.109"/>
<line fill="none" stroke="#212830" stroke-linecap="square" stroke-miterlimit="10" x1="631.193" y1="124.065" x2="607.542" y2="131.918"/>
<line fill="none" stroke="#212830" stroke-linecap="square" stroke-miterlimit="10" x1="631.37" y1="161.875" x2="607.719" y2="169.773"/>
<line fill="none" stroke="#212830" stroke-linecap="square" stroke-miterlimit="10" x1="631.546" y1="199.728" x2="607.896" y2="207.626"/>
<line fill="none" stroke="#212830" stroke-linecap="square" stroke-miterlimit="10" x1="631.722" y1="237.583" x2="608.073" y2="245.435"/>
<line fill="none" stroke="#212830" stroke-linecap="square" stroke-miterlimit="10" x1="606.705" y1="259.156" x2="606.705" y2="151.772"/>
<line fill="none" stroke="#212830" stroke-linecap="square" stroke-miterlimit="10" x1="169.446" y1="142.551" x2="169.446" y2="160.993"/>
<line fill="none" stroke="#212830" stroke-linecap="square" stroke-miterlimit="10" x1="3.5" y1="160.595" x2="3.5" y2="188.964"/>
<line fill="none" stroke="#212830" stroke-linecap="square" stroke-miterlimit="10" x1="3.5" y1="236.612" x2="3.5" y2="151.772"/>
<polygon fill-rule="evenodd" clip-rule="evenodd" fill="#212830" points="6.456,282.848 0.588,282.848 3.456,300.496 "/>
<polygon fill="none" stroke="#212830" stroke-linecap="square" stroke-miterlimit="10" points="6.456,282.848 0.588,282.848 
	3.456,300.496 6.456,282.848 "/>
<g>
	<path fill="#212830" d="M20.869,184.263l-3.578,12.361c1.544-2.325,2.75-3.87,3.616-4.634c0.866-0.765,1.693-1.146,2.483-1.146
		c0.408,0,0.747,0.14,1.019,0.42c0.272,0.279,0.408,0.653,0.408,1.12c0,0.56-0.119,1.239-0.356,2.037l-1.554,5.335
		c-0.195,0.645-0.292,1.001-0.292,1.068c0,0.119,0.036,0.217,0.108,0.293s0.155,0.115,0.249,0.115c0.11,0,0.237-0.055,0.382-0.166
		c0.484-0.373,0.963-0.891,1.439-1.553l0.395,0.242c-0.289,0.449-0.69,0.943-1.203,1.482c-0.514,0.539-0.955,0.912-1.324,1.121
		c-0.369,0.207-0.698,0.312-0.987,0.312c-0.314,0-0.571-0.101-0.771-0.3c-0.199-0.199-0.299-0.455-0.299-0.77
		c0-0.373,0.148-1.07,0.446-2.088l1.464-5.093c0.187-0.637,0.28-1.138,0.28-1.503c0-0.169-0.053-0.305-0.159-0.406
		c-0.106-0.103-0.244-0.153-0.414-0.153c-0.246,0-0.526,0.093-0.84,0.28c-0.577,0.356-1.244,1.018-1.999,1.986
		c-0.204,0.263-0.883,1.324-2.037,3.183c-0.356,0.594-0.649,1.243-0.878,1.948l-0.815,2.609h-1.91l4.189-14.564l0.446-1.579
		c0-0.221-0.091-0.415-0.274-0.585s-0.405-0.256-0.668-0.256c-0.153,0-0.386,0.025-0.7,0.077l-0.267,0.038v-0.496L20.869,184.263z"
		/>
</g>
<g>
	<path fill="#212830" d="M91.881,157.137l-2.437,8.472l-0.275,1.137c-0.025,0.108-0.038,0.199-0.038,0.275
		c0,0.133,0.042,0.25,0.125,0.35c0.066,0.074,0.15,0.112,0.25,0.112c0.108,0,0.25-0.067,0.425-0.2
		c0.325-0.241,0.758-0.741,1.299-1.499l0.425,0.3c-0.575,0.866-1.167,1.526-1.774,1.98c-0.608,0.453-1.171,0.681-1.687,0.681
		c-0.358,0-0.627-0.089-0.806-0.269s-0.269-0.439-0.269-0.781c0-0.408,0.091-0.945,0.275-1.611l0.262-0.938
		c-1.091,1.425-2.095,2.42-3.011,2.986c-0.658,0.408-1.304,0.612-1.937,0.612c-0.608,0-1.133-0.252-1.574-0.756
		c-0.442-0.504-0.663-1.197-0.663-2.081c0-1.324,0.398-2.721,1.193-4.191c0.795-1.47,1.806-2.646,3.03-3.529
		c0.958-0.699,1.862-1.05,2.712-1.05c0.508,0,0.931,0.134,1.268,0.399c0.337,0.268,0.594,0.709,0.769,1.324l0.45-1.424
		L91.881,157.137z M87.433,157.787c-0.533,0-1.1,0.25-1.7,0.75c-0.85,0.708-1.605,1.758-2.268,3.148
		c-0.662,1.392-0.993,2.648-0.993,3.773c0,0.566,0.142,1.014,0.425,1.344c0.283,0.328,0.608,0.493,0.975,0.493
		c0.908,0,1.895-0.671,2.961-2.012c1.425-1.782,2.137-3.61,2.137-5.485c0-0.707-0.137-1.22-0.412-1.537
		C88.282,157.945,87.907,157.787,87.433,157.787z"/>
</g>
<g>
	<path fill="#212830" d="M29.725,287.736l-2.215,7.588c-0.331,1.129-0.497,1.842-0.497,2.139c0,0.153,0.027,0.266,0.083,0.338
		s0.129,0.108,0.223,0.108c0.145,0,0.304-0.065,0.478-0.197s0.613-0.655,1.318-1.572l0.382,0.292
		c-0.671,1.062-1.358,1.843-2.063,2.344c-0.467,0.322-0.917,0.483-1.35,0.483c-0.331,0-0.59-0.094-0.777-0.28
		s-0.28-0.428-0.28-0.726c0-0.288,0.055-0.671,0.166-1.146c0.135-0.629,0.522-1.994,1.159-4.1c-1.443,2.367-2.651,4.002-3.623,4.901
		c-0.972,0.899-1.874,1.35-2.706,1.35c-0.39,0-0.721-0.136-0.993-0.407c-0.272-0.271-0.408-0.615-0.408-1.031
		c0-0.637,0.187-1.613,0.56-2.929l1.108-3.934c0.271-0.942,0.408-1.528,0.408-1.757c0-0.102-0.037-0.189-0.108-0.262
		c-0.072-0.072-0.151-0.107-0.236-0.107c-0.178,0-0.356,0.063-0.535,0.19c-0.178,0.128-0.582,0.599-1.209,1.413l-0.395-0.279
		c0.636-0.984,1.311-1.711,2.024-2.178c0.543-0.365,1.044-0.547,1.502-0.547c0.314,0,0.571,0.1,0.77,0.299
		c0.2,0.199,0.299,0.456,0.299,0.77c0,0.459-0.17,1.278-0.509,2.458l-1.197,4.112c-0.331,1.12-0.497,1.829-0.497,2.126
		c0,0.161,0.053,0.29,0.159,0.388c0.106,0.098,0.248,0.146,0.427,0.146c0.28,0,0.645-0.14,1.095-0.42
		c0.45-0.279,1.05-0.901,1.802-1.865c0.751-0.963,1.371-1.867,1.859-2.711c0.488-0.846,1.008-2.188,1.56-4.03l0.28-0.968H29.725z"/>
</g>
<line fill="none" stroke="#212830" stroke-linecap="square" stroke-miterlimit="10" x1="630.795" y1="56.255" x2="630.795" y2="64.153"/>
<line fill="none" stroke="#212830" stroke-linecap="square" stroke-miterlimit="10" x1="630.972" y1="94.109" x2="630.972" y2="101.962"/>
<line fill="none" stroke="#212830" stroke-linecap="square" stroke-miterlimit="10" x1="631.193" y1="131.918" x2="631.193" y2="139.816"/>
<line fill="none" stroke="#212830" stroke-linecap="square" stroke-miterlimit="10" x1="631.37" y1="169.773" x2="631.37" y2="177.669"/>
<line fill="none" stroke="#212830" stroke-linecap="square" stroke-miterlimit="10" x1="631.546" y1="207.626" x2="631.546" y2="215.479"/>
<line fill="none" stroke="#212830" stroke-linecap="square" stroke-miterlimit="10" x1="631.722" y1="245.435" x2="631.722" y2="253.333"/>
<line fill="none" stroke="#212830" stroke-linecap="square" stroke-miterlimit="10" x1="178.668" y1="151.772" x2="3.5" y2="151.772"/>
<polyline fill="none" stroke="#212830" stroke-linecap="square" stroke-miterlimit="10" points="148.532,107.345 148.532,107.389 
	148.488,107.521 148.444,107.653 148.4,107.874 148.355,108.139 148.312,108.448 148.267,108.845 148.223,109.286 148.223,109.771 
	148.223,110.345 148.267,110.962 148.312,111.668 148.355,112.418 148.488,113.256 148.62,114.139 148.797,115.109 149.018,116.124 
	149.282,117.227 149.635,118.418 149.988,119.654 150.429,120.977 150.959,122.389 151.488,123.845 152.15,125.433 152.856,127.065 
	153.606,128.742 154.489,130.551 155.415,132.448 156.474,134.389 157.577,136.463 158.813,138.581 160.136,140.831 "/>
<line fill="none" stroke="#212830" stroke-linecap="square" stroke-miterlimit="10" x1="169.446" y1="160.595" x2="169.446" y2="183.757"/>
<line fill="none" stroke="#212830" stroke-linecap="square" stroke-miterlimit="10" x1="3.5" y1="151.772" x2="3.5" y2="66.932"/>
<polygon fill-rule="evenodd" clip-rule="evenodd" fill="#212830" points="6.456,20.696 0.588,20.696 3.456,3.049 "/>
<polygon fill="none" stroke="#212830" stroke-linecap="square" stroke-miterlimit="10" points="6.456,20.696 0.588,20.696 
	3.456,3.049 6.456,20.696 "/>
<line fill="none" stroke="#212830" stroke-linecap="square" stroke-miterlimit="10" x1="630.795" y1="64.153" x2="607.19" y2="56.255"/>
<line fill="none" stroke="#212830" stroke-linecap="square" stroke-miterlimit="10" x1="630.972" y1="101.962" x2="607.367" y2="94.109"/>
<line fill="none" stroke="#212830" stroke-linecap="square" stroke-miterlimit="10" x1="631.193" y1="139.816" x2="607.542" y2="131.918"/>
<line fill="none" stroke="#212830" stroke-linecap="square" stroke-miterlimit="10" x1="631.37" y1="177.669" x2="607.719" y2="169.773"/>
<line fill="none" stroke="#212830" stroke-linecap="square" stroke-miterlimit="10" x1="631.546" y1="215.479" x2="607.896" y2="207.626"/>
<line fill="none" stroke="#212830" stroke-linecap="square" stroke-miterlimit="10" x1="631.722" y1="253.333" x2="608.073" y2="245.435"/>
<line fill="none" stroke="#212830" stroke-linecap="square" stroke-miterlimit="10" x1="3.5" y1="66.932" x2="3.5" y2="20.696"/>
<line fill="none" stroke="#212830" stroke-linecap="square" stroke-miterlimit="10" x1="3.5" y1="236.612" x2="3.5" y2="282.848"/>
<polygon fill-rule="evenodd" clip-rule="evenodd" fill="#212830" points="161.592,139.728 158.636,141.89 166.667,149.698 "/>
<polygon fill="none" stroke="#212830" stroke-linecap="square" stroke-miterlimit="10" points="161.592,139.728 158.636,141.89 
	166.667,149.698 161.592,139.728 "/>
<line fill="none" stroke="#212830" stroke-linecap="square" stroke-miterlimit="10" x1="14.531" y1="172.244" x2="158.416" y2="172.244"/>
<line fill="none" stroke="#212830" stroke-linecap="square" stroke-miterlimit="10" x1="3.5" y1="66.932" x2="606.705" y2="66.932"/>
<polygon fill-rule="evenodd" clip-rule="evenodd" fill="#212830" points="151.841,169.199 151.797,175.111 169.446,172.244 "/>
<polygon fill="none" stroke="#212830" stroke-linecap="square" stroke-miterlimit="10" points="151.841,169.199 151.797,175.111 
	169.446,172.244 151.841,169.199 "/>
<g>
	<path fill="#212830" d="M20.869,99.481l-3.578,12.362c1.544-2.326,2.75-3.871,3.616-4.634c0.866-0.764,1.693-1.146,2.483-1.146
		c0.408,0,0.747,0.14,1.019,0.42c0.272,0.28,0.408,0.654,0.408,1.121c0,0.56-0.119,1.239-0.356,2.037l-1.554,5.334
		c-0.195,0.645-0.292,1.001-0.292,1.069c0,0.119,0.036,0.216,0.108,0.293c0.072,0.076,0.155,0.114,0.249,0.114
		c0.11,0,0.237-0.055,0.382-0.166c0.484-0.373,0.963-0.891,1.439-1.553l0.395,0.242c-0.289,0.45-0.69,0.944-1.203,1.483
		c-0.514,0.54-0.955,0.913-1.324,1.121s-0.698,0.312-0.987,0.312c-0.314,0-0.571-0.1-0.771-0.299
		c-0.199-0.199-0.299-0.456-0.299-0.77c0-0.374,0.148-1.07,0.446-2.088l1.464-5.092c0.187-0.637,0.28-1.137,0.28-1.502
		c0-0.169-0.053-0.306-0.159-0.407c-0.106-0.102-0.244-0.153-0.414-0.153c-0.246,0-0.526,0.093-0.84,0.28
		c-0.577,0.357-1.244,1.019-1.999,1.986c-0.204,0.263-0.883,1.324-2.037,3.183c-0.356,0.594-0.649,1.243-0.878,1.948l-0.815,2.61
		h-1.91l4.189-14.565l0.446-1.579c0-0.221-0.091-0.416-0.274-0.585s-0.405-0.255-0.668-0.255c-0.153,0-0.386,0.025-0.7,0.077
		l-0.267,0.038v-0.497L20.869,99.481z"/>
</g>
<line fill="none" stroke="#212830" stroke-linecap="square" stroke-miterlimit="10" x1="630.795" y1="56.255" x2="630.795" y2="48.358"/>
<line fill="none" stroke="#212830" stroke-linecap="square" stroke-miterlimit="10" x1="630.972" y1="94.109" x2="630.972" y2="86.212"/>
<line fill="none" stroke="#212830" stroke-linecap="square" stroke-miterlimit="10" x1="631.193" y1="131.918" x2="631.193" y2="124.065"/>
<line fill="none" stroke="#212830" stroke-linecap="square" stroke-miterlimit="10" x1="631.37" y1="169.773" x2="631.37" y2="161.875"/>
<line fill="none" stroke="#212830" stroke-linecap="square" stroke-miterlimit="10" x1="631.546" y1="207.626" x2="631.546" y2="199.728"/>
<line fill="none" stroke="#212830" stroke-linecap="square" stroke-miterlimit="10" x1="631.722" y1="245.435" x2="631.722" y2="237.583"/>
<line fill="none" stroke="#212830" stroke-width="3" stroke-linecap="square" stroke-miterlimit="10" x1="169.446" y1="151.772" x2="3.5" y2="151.772"/>
<line fill="none" stroke="#212830" stroke-linecap="square" stroke-miterlimit="10" x1="606.705" y1="44.343" x2="606.705" y2="151.772"/>
</svg>
