<?xml version="1.0" encoding="utf-8"?>
<!-- Generator: Adobe Illustrator 16.0.0, SVG Export Plug-In . SVG Version: 6.00 Build 0)  -->
<!DOCTYPE svg PUBLIC "-//W3C//DTD SVG 1.1//EN" "http://www.w3.org/Graphics/SVG/1.1/DTD/svg11.dtd">
<svg version="1.1" id="Layer_1" xmlns="http://www.w3.org/2000/svg" xmlns:xlink="http://www.w3.org/1999/xlink" x="0px" y="0px"
	 width="355.945px" height="313.525px" viewBox="0 0 355.945 313.525" enable-background="new 0 0 355.945 313.525"
	 xml:space="preserve">
<g>
	<g>
		<path fill="#212830" d="M189.687,233.841l-3.709,12.645l-0.42,1.696c-0.037,0.162-0.057,0.299-0.058,0.411
			c-0.001,0.199,0.06,0.373,0.184,0.523c0.099,0.113,0.224,0.169,0.373,0.17c0.161,0.001,0.374-0.098,0.637-0.296
			c0.487-0.357,1.139-1.101,1.954-2.23l0.633,0.451c-0.866,1.292-1.756,2.273-2.668,2.947c-0.912,0.673-1.755,1.009-2.527,1.005
			c-0.535-0.003-0.936-0.139-1.201-0.408c-0.268-0.269-0.398-0.659-0.396-1.17c0.004-0.609,0.145-1.411,0.424-2.407l0.4-1.398
			c-1.644,2.121-3.152,3.601-4.525,4.44c-0.987,0.604-1.954,0.905-2.9,0.9c-0.909-0.005-1.692-0.386-2.348-1.143
			c-0.656-0.757-0.98-1.795-0.974-3.114c0.01-1.98,0.616-4.065,1.817-6.258c1.201-2.19,2.719-3.941,4.557-5.252
			c1.438-1.039,2.791-1.555,4.062-1.548c0.759,0.004,1.39,0.207,1.892,0.607c0.503,0.401,0.883,1.063,1.139,1.986l0.684-2.126
			L189.687,233.841z M183.033,234.776c-0.797-0.004-1.646,0.366-2.547,1.108c-1.275,1.051-2.413,2.614-3.415,4.688
			c-1,2.074-1.505,3.952-1.514,5.633c-0.004,0.847,0.204,1.517,0.625,2.011c0.42,0.494,0.905,0.742,1.453,0.745
			c1.357,0.007,2.837-0.987,4.443-2.983c2.143-2.653,3.222-5.381,3.236-8.183c0.006-1.058-0.195-1.824-0.604-2.301
			C184.3,235.02,183.742,234.78,183.033,234.776z"/>
	</g>
	
		<line fill="none" stroke="#212830" stroke-linecap="square" stroke-miterlimit="10" x1="1.868" y1="54.005" x2="34.21" y2="43.241"/>
	
		<line fill="none" stroke="#212830" stroke-linecap="square" stroke-miterlimit="10" x1="1.604" y1="105.801" x2="33.946" y2="94.992"/>
	
		<line fill="none" stroke="#212830" stroke-linecap="square" stroke-miterlimit="10" x1="1.383" y1="157.552" x2="33.725" y2="146.787"/>
	
		<line fill="none" stroke="#212830" stroke-linecap="square" stroke-miterlimit="10" x1="291.712" y1="303.363" x2="32.975" y2="302.128"/>
	
		<line fill="none" stroke="#212830" stroke-linecap="square" stroke-miterlimit="10" x1="292.462" y1="148.022" x2="328.246" y2="148.198"/>
	
		<line fill="none" stroke="#212830" stroke-linecap="square" stroke-miterlimit="10" x1="291.977" y1="251.568" x2="327.76" y2="251.744"/>
	
		<line fill="none" stroke="#212830" stroke-linecap="square" stroke-miterlimit="10" x1="1.118" y1="209.347" x2="33.46" y2="198.537"/>
	
		<line fill="none" stroke="#212830" stroke-linecap="square" stroke-miterlimit="10" x1="0.854" y1="261.142" x2="33.196" y2="250.333"/>
	
		<line fill="none" stroke="#212830" stroke-linecap="square" stroke-miterlimit="10" x1="0.633" y1="312.893" x2="32.975" y2="302.128"/>
	
		<line fill="none" stroke="#212830" stroke-linecap="square" stroke-miterlimit="10" x1="1.868" y1="43.241" x2="1.868" y2="32.432"/>
	
		<line fill="none" stroke="#212830" stroke-linecap="square" stroke-miterlimit="10" x1="1.604" y1="94.992" x2="1.604" y2="84.227"/>
	
		<line fill="none" stroke="#212830" stroke-linecap="square" stroke-miterlimit="10" x1="1.383" y1="146.787" x2="1.383" y2="135.978"/>
	
		<line fill="none" stroke="#212830" stroke-linecap="square" stroke-miterlimit="10" x1="32.975" y1="302.128" x2="34.21" y2="43.241"/>
	<polygon fill-rule="evenodd" clip-rule="evenodd" fill="#212830" points="328.775,40.594 328.731,48.667 352.911,44.741 	"/>
	<polygon fill="none" stroke="#212830" stroke-linecap="square" stroke-miterlimit="10" points="328.775,40.594 328.731,48.667 
		352.911,44.741 328.775,40.594 	"/>
	<polygon fill-rule="evenodd" clip-rule="evenodd" fill="#212830" points="328.554,92.389 328.51,100.462 352.646,96.536 	"/>
	<polygon fill="none" stroke="#212830" stroke-linecap="square" stroke-miterlimit="10" points="328.554,92.389 328.51,100.462 
		352.646,96.536 328.554,92.389 	"/>
	<polygon fill-rule="evenodd" clip-rule="evenodd" fill="#212830" points="328.025,195.935 327.981,204.008 352.161,200.082 	"/>
	<polygon fill="none" stroke="#212830" stroke-linecap="square" stroke-miterlimit="10" points="328.025,195.935 327.981,204.008 
		352.161,200.082 328.025,195.935 	"/>
	<polygon fill-rule="evenodd" clip-rule="evenodd" fill="#212830" points="327.54,299.524 327.496,307.555 351.675,303.672 	"/>
	<polygon fill="none" stroke="#212830" stroke-linecap="square" stroke-miterlimit="10" points="327.54,299.524 327.496,307.555 
		351.675,303.672 327.54,299.524 	"/>
	<g>
		<path fill="#212830" d="M264.076,168.512l11.691,0.062l1.883-6.248c0.354-1.218,0.533-2.163,0.537-2.836
			c0.002-0.323-0.074-0.601-0.229-0.832c-0.155-0.23-0.394-0.404-0.717-0.518s-0.957-0.174-1.904-0.178l0.19-0.69l10.198,0.054
			l-0.228,0.689c-0.858-0.017-1.501,0.066-1.925,0.252c-0.599,0.258-1.043,0.592-1.331,1.001c-0.415,0.583-0.837,1.608-1.269,3.075
			l-4.544,15.273c-0.38,1.268-0.571,2.176-0.575,2.724c-0.002,0.474,0.161,0.832,0.49,1.076c0.328,0.245,1.115,0.414,2.359,0.508
			l-0.209,0.689l-9.861-0.052l0.266-0.689c0.971-0.02,1.619-0.104,1.943-0.252c0.5-0.221,0.862-0.505,1.088-0.853
			c0.326-0.484,0.73-1.54,1.211-3.169l2.32-7.738l-11.748-0.063l-2.339,7.739c-0.368,1.243-0.552,2.151-0.556,2.724
			c-0.002,0.474,0.157,0.832,0.48,1.076c0.322,0.244,1.105,0.414,2.351,0.508l-0.153,0.69l-9.938-0.052l0.247-0.689
			c0.983-0.021,1.638-0.104,1.962-0.252c0.5-0.222,0.868-0.506,1.107-0.854c0.326-0.509,0.73-1.564,1.212-3.169l4.563-15.272
			c0.368-1.243,0.554-2.188,0.558-2.836c0.001-0.324-0.076-0.602-0.229-0.832c-0.155-0.231-0.396-0.404-0.726-0.518
			c-0.33-0.114-0.975-0.174-1.934-0.179l0.229-0.689l9.993,0.052l-0.208,0.69c-0.836-0.017-1.452,0.067-1.852,0.252
			c-0.588,0.245-1.019,0.573-1.295,0.983c-0.375,0.546-0.791,1.576-1.248,3.094L264.076,168.512z"/>
	</g>
	<g>
		<path fill="#212830" d="M154.155,25.907l2.295-21.094c0.091-0.809,0.139-1.431,0.141-1.867c0.004-0.722-0.199-1.271-0.607-1.646
			c-0.409-0.376-1.149-0.579-2.22-0.609L153.973,0l9.489,0.05l-0.209,0.69c-1.271-0.019-2.14,0.204-2.61,0.668
			c-0.469,0.465-0.796,1.605-0.98,3.422l-1.472,13.665l9.697-14.798c0.014-0.249,0.021-0.46,0.022-0.635
			c0.003-0.697-0.199-1.233-0.608-1.609c-0.409-0.375-1.292-0.611-2.648-0.705l0.153-0.69l10.255,0.054l-0.209,0.69
			c-1.184,0.006-1.981,0.102-2.393,0.286c-0.299,0.136-0.553,0.355-0.76,0.659c-0.207,0.304-0.375,0.823-0.503,1.557
			c-0.038,0.212-0.198,1.655-0.48,4.331c-0.282,2.676-0.703,6.316-1.262,10.92l8.077-12.135c0.879-1.328,1.432-2.259,1.658-2.793
			c0.228-0.534,0.342-0.988,0.344-1.362c0.002-0.349-0.146-0.657-0.443-0.927c-0.298-0.269-0.808-0.443-1.529-0.521l0.153-0.69
			l7.508,0.039l-0.189,0.69c-0.66,0.047-1.246,0.206-1.758,0.477c-0.513,0.271-1.119,0.791-1.82,1.56
			c-0.401,0.446-1.229,1.625-2.484,3.536L166.147,25.97l-0.691-0.003l2.157-19.6L154.79,25.91L154.155,25.907z"/>
	</g>
	
		<line fill="none" stroke="#212830" stroke-linecap="square" stroke-miterlimit="10" x1="1.118" y1="198.537" x2="1.118" y2="187.772"/>
	
		<line fill="none" stroke="#212830" stroke-linecap="square" stroke-miterlimit="10" x1="0.854" y1="250.333" x2="0.854" y2="239.567"/>
	
		<line fill="none" stroke="#212830" stroke-linecap="square" stroke-miterlimit="10" x1="0.633" y1="302.128" x2="0.633" y2="291.318"/>
	
		<line fill="none" stroke="#212830" stroke-linecap="square" stroke-miterlimit="10" x1="1.868" y1="32.432" x2="34.21" y2="43.241"/>
	
		<line fill="none" stroke="#212830" stroke-linecap="square" stroke-miterlimit="10" x1="1.604" y1="84.227" x2="33.946" y2="94.992"/>
	
		<line fill="none" stroke="#212830" stroke-linecap="square" stroke-miterlimit="10" x1="1.383" y1="135.978" x2="33.725" y2="146.787"/>
	
		<line fill="none" stroke="#212830" stroke-linecap="square" stroke-miterlimit="10" x1="34.21" y1="43.241" x2="292.948" y2="44.476"/>
	
		<line fill="none" stroke="#212830" stroke-linecap="square" stroke-miterlimit="10" x1="292.948" y1="44.476" x2="328.775" y2="44.652"/>
	
		<line fill="none" stroke="#212830" stroke-linecap="square" stroke-miterlimit="10" x1="292.727" y1="96.227" x2="328.51" y2="96.403"/>
	
		<line fill="none" stroke="#212830" stroke-linecap="square" stroke-miterlimit="10" x1="292.198" y1="199.817" x2="328.025" y2="199.993"/>
	
		<line fill="none" stroke="#212830" stroke-linecap="square" stroke-miterlimit="10" x1="291.712" y1="303.363" x2="327.54" y2="303.539"/>
	
		<line fill="none" stroke="#212830" stroke-linecap="square" stroke-miterlimit="10" x1="1.118" y1="187.772" x2="33.46" y2="198.537"/>
	
		<line fill="none" stroke="#212830" stroke-linecap="square" stroke-miterlimit="10" x1="0.854" y1="239.567" x2="33.196" y2="250.333"/>
	
		<line fill="none" stroke="#212830" stroke-linecap="square" stroke-miterlimit="10" x1="0.633" y1="291.318" x2="32.975" y2="302.128"/>
	
		<line fill="none" stroke="#212830" stroke-linecap="square" stroke-miterlimit="10" x1="1.868" y1="43.241" x2="1.868" y2="54.005"/>
	
		<line fill="none" stroke="#212830" stroke-linecap="square" stroke-miterlimit="10" x1="1.604" y1="94.992" x2="1.604" y2="105.801"/>
	
		<line fill="none" stroke="#212830" stroke-linecap="square" stroke-miterlimit="10" x1="1.383" y1="146.787" x2="1.383" y2="157.552"/>
	
		<line fill="none" stroke="#212830" stroke-linecap="square" stroke-miterlimit="10" x1="292.948" y1="44.476" x2="291.712" y2="303.363"/>
	
		<line fill="none" stroke="#212830" stroke-linecap="square" stroke-miterlimit="10" x1="162.961" y1="199.641" x2="162.873" y2="302.745"/>
	<polygon fill-rule="evenodd" clip-rule="evenodd" fill="#212830" points="328.29,144.184 328.246,152.213 352.425,148.331 	"/>
	<polygon fill="none" stroke="#212830" stroke-linecap="square" stroke-miterlimit="10" points="328.29,144.184 328.246,152.213 
		352.425,148.331 328.29,144.184 	"/>
	<polygon fill-rule="evenodd" clip-rule="evenodd" fill="#212830" points="327.804,247.729 327.76,255.804 351.94,251.877 	"/>
	<polygon fill="none" stroke="#212830" stroke-linecap="square" stroke-miterlimit="10" points="327.804,247.729 327.76,255.804 
		351.94,251.877 327.804,247.729 	"/>
	
		<line fill="none" stroke="#212830" stroke-linecap="square" stroke-miterlimit="10" x1="1.118" y1="198.537" x2="1.118" y2="209.347"/>
	
		<line fill="none" stroke="#212830" stroke-linecap="square" stroke-miterlimit="10" x1="0.854" y1="250.333" x2="0.854" y2="261.142"/>
	
		<line fill="none" stroke="#212830" stroke-linecap="square" stroke-miterlimit="10" x1="0.633" y1="302.128" x2="0.633" y2="312.893"/>
</g>
</svg>
