<?xml version="1.0" encoding="utf-8"?>
<!-- Generator: Adobe Illustrator 16.0.0, SVG Export Plug-In . SVG Version: 6.00 Build 0)  -->
<!DOCTYPE svg PUBLIC "-//W3C//DTD SVG 1.1//EN" "http://www.w3.org/Graphics/SVG/1.1/DTD/svg11.dtd">
<svg version="1.1" id="Layer_1" xmlns="http://www.w3.org/2000/svg" xmlns:xlink="http://www.w3.org/1999/xlink" x="0px" y="0px"
	 width="224.624px" height="196.821px" viewBox="0 0 224.624 196.821" enable-background="new 0 0 224.624 196.821"
	 xml:space="preserve">
<g>
	
		<line fill="none" stroke="#212830" stroke-linecap="square" stroke-miterlimit="10" x1="183.212" y1="190.232" x2="20.929" y2="189.438"/>
	
		<line fill="none" stroke="#212830" stroke-linecap="square" stroke-miterlimit="10" x1="183.699" y1="92.774" x2="206.157" y2="92.907"/>
	
		<line fill="none" stroke="#212830" stroke-linecap="square" stroke-miterlimit="10" x1="183.389" y1="157.761" x2="205.847" y2="157.849"/>
	
		<line fill="none" stroke="#212830" stroke-linecap="square" stroke-miterlimit="10" x1="1.426" y1="33.832" x2="21.723" y2="27.038"/>
	
		<line fill="none" stroke="#212830" stroke-linecap="square" stroke-miterlimit="10" x1="1.25" y1="66.303" x2="21.546" y2="59.509"/>
	
		<line fill="none" stroke="#212830" stroke-linecap="square" stroke-miterlimit="10" x1="1.118" y1="98.774" x2="21.414" y2="92.024"/>
	
		<line fill="none" stroke="#212830" stroke-linecap="square" stroke-miterlimit="10" x1="0.941" y1="131.245" x2="21.237" y2="124.495"/>
	
		<line fill="none" stroke="#212830" stroke-linecap="square" stroke-miterlimit="10" x1="0.809" y1="163.717" x2="21.105" y2="156.967"/>
	
		<line fill="none" stroke="#212830" stroke-linecap="square" stroke-miterlimit="10" x1="0.632" y1="196.188" x2="20.929" y2="189.438"/>
	
		<line fill="none" stroke="#212830" stroke-linecap="square" stroke-miterlimit="10" x1="20.929" y1="189.438" x2="21.723" y2="27.038"/>
	<polygon fill-rule="evenodd" clip-rule="evenodd" fill="#212830" points="206.465,25.405 206.465,30.479 221.599,28.008 	"/>
	<polygon fill="none" stroke="#212830" stroke-linecap="square" stroke-miterlimit="10" points="206.465,25.405 206.465,30.479 
		221.599,28.008 206.465,25.405 	"/>
	<polygon fill-rule="evenodd" clip-rule="evenodd" fill="#212830" points="206.333,57.876 206.289,62.95 221.467,60.479 	"/>
	<polygon fill="none" stroke="#212830" stroke-linecap="square" stroke-miterlimit="10" points="206.333,57.876 206.289,62.95 
		221.467,60.479 206.333,57.876 	"/>
	<polygon fill-rule="evenodd" clip-rule="evenodd" fill="#212830" points="205.98,122.863 205.98,127.893 221.115,125.466 	"/>
	<polygon fill="none" stroke="#212830" stroke-linecap="square" stroke-miterlimit="10" points="205.98,122.863 205.98,127.893 
		221.115,125.466 205.98,122.863 	"/>
	<polygon fill-rule="evenodd" clip-rule="evenodd" fill="#212830" points="205.671,187.806 205.671,192.835 220.806,190.408 	"/>
	<g>
		<path fill="#212830" d="M119.24,146.63l-2.323,7.919l-0.263,1.063c-0.024,0.102-0.036,0.187-0.037,0.257
			c0,0.125,0.038,0.233,0.116,0.328c0.062,0.07,0.14,0.105,0.233,0.106c0.102,0,0.234-0.061,0.399-0.186
			c0.306-0.225,0.713-0.689,1.224-1.396l0.396,0.282c-0.542,0.808-1.099,1.423-1.67,1.845c-0.572,0.423-1.099,0.633-1.583,0.63
			c-0.335-0.001-0.587-0.087-0.754-0.255c-0.167-0.169-0.249-0.413-0.248-0.732c0.002-0.383,0.091-0.885,0.265-1.508l0.25-0.876
			c-1.028,1.328-1.973,2.255-2.834,2.78c-0.618,0.379-1.224,0.566-1.816,0.564c-0.569-0.004-1.06-0.242-1.471-0.716
			c-0.411-0.474-0.614-1.124-0.61-1.95c0.006-1.24,0.386-2.547,1.138-3.919c0.752-1.372,1.704-2.47,2.854-3.29
			c0.9-0.65,1.748-0.973,2.543-0.969c0.476,0.002,0.871,0.129,1.186,0.38c0.315,0.251,0.552,0.666,0.713,1.243l0.428-1.331
			L119.24,146.63z M115.072,147.216c-0.499-0.002-1.031,0.229-1.595,0.693c-0.799,0.659-1.512,1.639-2.139,2.938
			s-0.943,2.475-0.949,3.527c-0.003,0.531,0.128,0.95,0.391,1.26c0.264,0.31,0.567,0.465,0.91,0.467
			c0.85,0.004,1.777-0.618,2.782-1.869c1.342-1.661,2.019-3.369,2.028-5.125c0.003-0.662-0.123-1.143-0.379-1.439
			C115.867,147.368,115.517,147.218,115.072,147.216z"/>
	</g>
	<polygon fill="none" stroke="#212830" stroke-linecap="square" stroke-miterlimit="10" points="205.671,187.806 205.671,192.835 
		220.806,190.408 205.671,187.806 	"/>
	<g>
		<path fill="#212830" d="M96.921,16.226l1.438-13.211c0.057-0.506,0.086-0.896,0.088-1.169c0.002-0.452-0.125-0.796-0.38-1.031
			c-0.256-0.235-0.72-0.362-1.39-0.381L96.807,0l5.943,0.031l-0.13,0.433c-0.795-0.012-1.34,0.127-1.634,0.418
			s-0.499,1.005-0.614,2.144l-0.922,8.558l6.074-9.268c0.008-0.156,0.013-0.289,0.013-0.398c0.002-0.437-0.124-0.772-0.38-1.008
			c-0.256-0.235-0.81-0.382-1.659-0.441l0.095-0.433l6.422,0.034l-0.131,0.433c-0.741,0.004-1.24,0.063-1.499,0.179
			c-0.188,0.085-0.346,0.222-0.476,0.413c-0.129,0.19-0.234,0.516-0.315,0.975c-0.024,0.132-0.124,1.037-0.301,2.712
			c-0.176,1.676-0.44,3.956-0.79,6.839l5.058-7.6c0.55-0.832,0.896-1.415,1.039-1.75c0.142-0.334,0.214-0.619,0.215-0.853
			c0.001-0.218-0.091-0.412-0.278-0.581c-0.187-0.168-0.506-0.277-0.958-0.326l0.096-0.433l4.703,0.024l-0.119,0.433
			c-0.414,0.029-0.781,0.128-1.101,0.298c-0.321,0.17-0.701,0.496-1.14,0.977c-0.251,0.279-0.77,1.018-1.556,2.214l-8.031,12.241
			l-0.433-0.002l1.351-12.275l-8.031,12.241L96.921,16.226z"/>
	</g>
	
		<line fill="none" stroke="#212830" stroke-linecap="square" stroke-miterlimit="10" x1="1.426" y1="27.038" x2="1.426" y2="20.288"/>
	<line fill="none" stroke="#212830" stroke-linecap="square" stroke-miterlimit="10" x1="1.25" y1="59.509" x2="1.25" y2="52.759"/>
	
		<line fill="none" stroke="#212830" stroke-linecap="square" stroke-miterlimit="10" x1="1.118" y1="92.024" x2="1.118" y2="85.23"/>
	
		<line fill="none" stroke="#212830" stroke-linecap="square" stroke-miterlimit="10" x1="0.941" y1="124.495" x2="0.941" y2="117.701"/>
	
		<line fill="none" stroke="#212830" stroke-linecap="square" stroke-miterlimit="10" x1="0.809" y1="156.967" x2="0.809" y2="150.217"/>
	
		<line fill="none" stroke="#212830" stroke-linecap="square" stroke-miterlimit="10" x1="0.632" y1="189.438" x2="0.632" y2="182.688"/>
	
		<line fill="none" stroke="#212830" stroke-linecap="square" stroke-miterlimit="10" x1="21.723" y1="27.038" x2="184.007" y2="27.832"/>
	
		<line fill="none" stroke="#212830" stroke-linecap="square" stroke-miterlimit="10" x1="184.007" y1="27.832" x2="206.465" y2="27.92"/>
	
		<line fill="none" stroke="#212830" stroke-linecap="square" stroke-miterlimit="10" x1="183.831" y1="60.303" x2="206.289" y2="60.436"/>
	
		<line fill="none" stroke="#212830" stroke-linecap="square" stroke-miterlimit="10" x1="183.521" y1="125.245" x2="205.98" y2="125.378"/>
	
		<line fill="none" stroke="#212830" stroke-linecap="square" stroke-miterlimit="10" x1="183.212" y1="190.232" x2="205.671" y2="190.32"/>
	
		<line fill="none" stroke="#212830" stroke-linecap="square" stroke-miterlimit="10" x1="1.426" y1="20.288" x2="21.723" y2="27.038"/>
	
		<line fill="none" stroke="#212830" stroke-linecap="square" stroke-miterlimit="10" x1="1.25" y1="52.759" x2="21.546" y2="59.509"/>
	
		<line fill="none" stroke="#212830" stroke-linecap="square" stroke-miterlimit="10" x1="1.118" y1="85.23" x2="21.414" y2="92.024"/>
	
		<line fill="none" stroke="#212830" stroke-linecap="square" stroke-miterlimit="10" x1="0.941" y1="117.701" x2="21.237" y2="124.495"/>
	
		<line fill="none" stroke="#212830" stroke-linecap="square" stroke-miterlimit="10" x1="0.809" y1="150.217" x2="21.105" y2="156.967"/>
	
		<line fill="none" stroke="#212830" stroke-linecap="square" stroke-miterlimit="10" x1="0.632" y1="182.688" x2="20.929" y2="189.438"/>
	
		<line fill="none" stroke="#212830" stroke-linecap="square" stroke-miterlimit="10" x1="184.007" y1="27.832" x2="183.212" y2="190.232"/>
	
		<line fill="none" stroke="#212830" stroke-linecap="square" stroke-miterlimit="10" x1="102.468" y1="125.157" x2="102.379" y2="189.835"/>
	<polygon fill-rule="evenodd" clip-rule="evenodd" fill="#212830" points="206.157,90.392 206.113,95.421 221.291,92.951 	"/>
	<polygon fill="none" stroke="#212830" stroke-linecap="square" stroke-miterlimit="10" points="206.157,90.392 206.113,95.421 
		221.291,92.951 206.157,90.392 	"/>
	<polygon fill-rule="evenodd" clip-rule="evenodd" fill="#212830" points="205.847,155.335 205.804,160.364 220.982,157.938 	"/>
	<g>
		<path fill="#212830" d="M165.871,105.683l7.323,0.038l1.179-3.913c0.223-0.763,0.335-1.355,0.337-1.776
			c0.001-0.203-0.047-0.376-0.144-0.521c-0.097-0.145-0.246-0.253-0.449-0.324c-0.201-0.071-0.6-0.108-1.192-0.111l0.12-0.433
			l6.387,0.034l-0.143,0.432c-0.539-0.01-0.94,0.042-1.207,0.157c-0.373,0.162-0.652,0.371-0.832,0.627
			c-0.26,0.366-0.524,1.007-0.795,1.926l-2.846,9.566c-0.238,0.794-0.357,1.363-0.359,1.706c-0.002,0.296,0.1,0.521,0.307,0.675
			c0.205,0.153,0.697,0.259,1.478,0.318l-0.131,0.432l-6.177-0.032l0.166-0.432c0.608-0.013,1.014-0.065,1.217-0.158
			c0.313-0.139,0.541-0.317,0.682-0.535c0.205-0.303,0.457-0.964,0.76-1.984l1.452-4.847l-7.358-0.039l-1.465,4.847
			c-0.229,0.779-0.346,1.347-0.348,1.706c-0.002,0.296,0.099,0.521,0.301,0.675c0.201,0.153,0.693,0.259,1.473,0.317l-0.096,0.432
			l-6.225-0.032l0.154-0.432c0.617-0.012,1.026-0.065,1.229-0.157c0.313-0.139,0.544-0.317,0.693-0.535
			c0.204-0.318,0.457-0.98,0.759-1.984l2.857-9.566c0.23-0.778,0.348-1.37,0.35-1.776c0-0.203-0.047-0.376-0.144-0.521
			c-0.097-0.145-0.249-0.253-0.455-0.324s-0.61-0.108-1.21-0.111l0.143-0.432l6.259,0.033l-0.132,0.432
			c-0.521-0.01-0.908,0.042-1.158,0.158c-0.367,0.154-0.637,0.359-0.811,0.616c-0.236,0.342-0.496,0.988-0.782,1.938
			L165.871,105.683z"/>
	</g>
	<polygon fill="none" stroke="#212830" stroke-linecap="square" stroke-miterlimit="10" points="205.847,155.335 205.804,160.364 
		220.982,157.938 205.847,155.335 	"/>
	
		<line fill="none" stroke="#212830" stroke-linecap="square" stroke-miterlimit="10" x1="1.426" y1="27.038" x2="1.426" y2="33.832"/>
	<line fill="none" stroke="#212830" stroke-linecap="square" stroke-miterlimit="10" x1="1.25" y1="59.509" x2="1.25" y2="66.303"/>
	
		<line fill="none" stroke="#212830" stroke-linecap="square" stroke-miterlimit="10" x1="1.118" y1="92.024" x2="1.118" y2="98.774"/>
	
		<line fill="none" stroke="#212830" stroke-linecap="square" stroke-miterlimit="10" x1="0.941" y1="124.495" x2="0.941" y2="131.245"/>
	
		<line fill="none" stroke="#212830" stroke-linecap="square" stroke-miterlimit="10" x1="0.809" y1="156.967" x2="0.809" y2="163.717"/>
	
		<line fill="none" stroke="#212830" stroke-linecap="square" stroke-miterlimit="10" x1="0.632" y1="189.438" x2="0.632" y2="196.188"/>
</g>
</svg>
