<?xml version="1.0" encoding="utf-8"?>
<!-- Generator: Adobe Illustrator 16.0.0, SVG Export Plug-In . SVG Version: 6.00 Build 0)  -->
<!DOCTYPE svg PUBLIC "-//W3C//DTD SVG 1.1//EN" "http://www.w3.org/Graphics/SVG/1.1/DTD/svg11.dtd">
<svg xmlns="http://www.w3.org/2000/svg" xmlns:xlink="http://www.w3.org/1999/xlink" version="1.1" id="图层_1" x="0px" y="0px" width="145.883px" height="220.553px" viewBox="0 0 145.883 220.553" xml:space="preserve">
<g>
	<polygon fill="none" stroke="#212830" stroke-width="0.5" stroke-linecap="square" stroke-miterlimit="10" points="0.133,0.134    102.153,0.134 102.153,184.316 0.133,184.316 0.133,0.134  "/>
	<polygon fill="none" stroke="#212830" stroke-width="0.5" stroke-linecap="square" stroke-miterlimit="10" points="72.544,92.203    72.5,90.659 72.324,89.158 72.059,87.657 71.662,86.157 71.177,84.744 70.603,83.332 69.941,81.964 69.147,80.64 68.264,79.359    67.337,78.168 66.279,77.064 65.175,76.005 63.984,75.078 62.704,74.196 61.38,73.401 60.013,72.739 58.601,72.165 57.188,71.68    55.688,71.283 54.188,71.018 52.688,70.841 51.143,70.797 49.599,70.841 48.098,71.018 46.598,71.283 45.098,71.68 43.686,72.165    42.273,72.739 40.906,73.401 39.582,74.196 38.302,75.078 37.111,76.005 36.008,77.064 34.949,78.168 34.022,79.359 33.139,80.64    32.345,81.964 31.683,83.332 31.109,84.744 30.624,86.157 30.227,87.657 29.962,89.158 29.786,90.659 29.742,92.203 29.786,93.748    29.962,95.249 30.227,96.75 30.624,98.25 31.109,99.663 31.683,101.075 32.345,102.443 33.139,103.768 34.022,105.047    34.949,106.239 36.008,107.342 37.111,108.401 38.302,109.328 39.582,110.211 40.906,111.006 42.273,111.668 43.686,112.241    45.098,112.727 46.598,113.124 48.098,113.389 49.599,113.565 51.143,113.609 52.688,113.565 54.188,113.389 55.688,113.124    57.188,112.727 58.601,112.241 60.013,111.668 61.38,111.006 62.704,110.211 63.984,109.328 65.175,108.401 66.279,107.342    67.337,106.239 68.264,105.047 69.147,103.768 69.941,102.443 70.603,101.075 71.177,99.663 71.662,98.25 72.059,96.75    72.324,95.249 72.5,93.748 72.544,92.203  "/>
	
		<line fill="none" stroke="#212830" stroke-width="0.5" stroke-linecap="square" stroke-miterlimit="10" x1="111.465" y1="0.134" x2="145.883" y2="0.134"/>
	
		<line fill="none" stroke="#212830" stroke-width="0.5" stroke-linecap="square" stroke-miterlimit="10" x1="111.465" y1="184.316" x2="145.883" y2="184.316"/>
	
		<line fill="none" stroke="#212830" stroke-width="0.5" stroke-linecap="square" stroke-miterlimit="10" x1="138.91" y1="5.96" x2="138.91" y2="178.491"/>
	<polygon fill-rule="evenodd" clip-rule="evenodd" fill="#212830" points="137.939,5.96 139.881,5.96 138.91,0.134  "/>
	<polygon fill="none" stroke="#212830" stroke-width="0.5" stroke-linecap="square" stroke-miterlimit="10" points="137.939,5.96    139.881,5.96 138.91,0.134 137.939,5.96  "/>
	<polygon fill-rule="evenodd" clip-rule="evenodd" fill="#212830" points="137.939,178.491 139.881,178.491 138.91,184.316  "/>
	<g>
		<path fill="#212830" d="M125.84,99.773l-1.082-2.219v-0.222h7.697c0.51,0,0.828-0.021,0.953-0.064    c0.127-0.042,0.223-0.131,0.289-0.265c0.068-0.135,0.105-0.408,0.115-0.821h0.248v3.43h-0.248    c-0.01-0.431-0.047-0.708-0.111-0.834s-0.152-0.213-0.262-0.262s-0.438-0.074-0.984-0.074h-4.922    c-0.663,0-1.089,0.022-1.277,0.067c-0.143,0.031-0.248,0.089-0.315,0.171c-0.067,0.083-0.101,0.183-0.101,0.299    c0,0.166,0.069,0.397,0.208,0.692L125.84,99.773z"/>
		<path fill="#212830" d="M132.758,92.78c0-0.211,0.072-0.388,0.217-0.531c0.146-0.144,0.322-0.215,0.529-0.215    c0.205,0,0.381,0.073,0.527,0.219c0.145,0.146,0.219,0.322,0.219,0.528s-0.074,0.382-0.219,0.528    c-0.146,0.146-0.322,0.218-0.527,0.218c-0.211,0-0.389-0.073-0.531-0.218C132.828,93.162,132.758,92.986,132.758,92.78z"/>
		<path fill="#212830" d="M129.557,90.561c-1.039,0-1.935-0.157-2.686-0.471c-0.75-0.313-1.31-0.73-1.677-1.25    c-0.292-0.404-0.437-0.82-0.437-1.251c0-0.699,0.355-1.327,1.068-1.882c0.883-0.695,2.08-1.042,3.59-1.042    c1.057,0,1.955,0.152,2.695,0.457c0.74,0.305,1.277,0.694,1.609,1.167c0.334,0.473,0.502,0.929,0.502,1.368    c0,0.87-0.514,1.594-1.539,2.172C131.818,90.317,130.775,90.561,129.557,90.561z M129.725,89.243c1.256,0,2.279-0.155,3.072-0.464    c0.668-0.256,1.002-0.637,1.002-1.143c0-0.242-0.109-0.493-0.326-0.753c-0.217-0.26-0.582-0.457-1.092-0.591    c-0.771-0.207-1.857-0.31-3.262-0.31c-1.039,0-1.906,0.107-2.601,0.323c-0.516,0.162-0.881,0.37-1.096,0.625    c-0.147,0.184-0.222,0.406-0.222,0.666c0,0.305,0.137,0.576,0.41,0.813c0.371,0.323,0.957,0.542,1.754,0.659    C128.163,89.185,128.949,89.243,129.725,89.243z"/>
	</g>
	<polygon fill="none" stroke="#212830" stroke-width="0.5" stroke-linecap="square" stroke-miterlimit="10" points="   137.939,178.491 139.881,178.491 138.91,184.316 137.939,178.491  "/>
	
		<line fill="none" stroke="#212830" stroke-width="0.5" stroke-linecap="square" stroke-miterlimit="10" x1="102.153" y1="0.134" x2="102.242" y2="0.134"/>
	
		<line fill="none" stroke="#212830" stroke-width="0.5" stroke-linecap="square" stroke-miterlimit="10" x1="102.153" y1="184.316" x2="102.242" y2="184.316"/>
	
		<line fill="none" stroke="#212830" stroke-width="0.5" stroke-linecap="square" stroke-miterlimit="10" x1="138.91" y1="184.316" x2="139" y2="184.316"/>
	
		<line fill="none" stroke="#212830" stroke-width="0.5" stroke-linecap="square" stroke-miterlimit="10" x1="0.133" y1="193.63" x2="0.133" y2="220.553"/>
	
		<line fill="none" stroke="#212830" stroke-width="0.5" stroke-linecap="square" stroke-miterlimit="10" x1="102.153" y1="193.63" x2="102.153" y2="220.553"/>
	
		<line fill="none" stroke="#212830" stroke-width="0.5" stroke-linecap="square" stroke-miterlimit="10" x1="5.913" y1="213.579" x2="96.328" y2="213.579"/>
	<polygon fill-rule="evenodd" clip-rule="evenodd" fill="#212830" points="5.913,212.608 5.913,214.551 0.133,213.579  "/>
	<polygon fill="none" stroke="#212830" stroke-width="0.5" stroke-linecap="square" stroke-miterlimit="10" points="5.913,212.608    5.913,214.551 0.133,213.579 5.913,212.608  "/>
	<polygon fill-rule="evenodd" clip-rule="evenodd" fill="#212830" points="96.328,212.608 96.328,214.551 102.153,213.579  "/>
	<g>
		<path fill="#212830" d="M43.035,204.265c0-1.04,0.157-1.936,0.471-2.687c0.313-0.751,0.73-1.31,1.25-1.678    c0.403-0.291,0.82-0.437,1.25-0.437c0.699,0,1.327,0.356,1.882,1.068c0.695,0.884,1.042,2.08,1.042,3.591    c0,1.059-0.152,1.957-0.457,2.696c-0.305,0.74-0.694,1.276-1.167,1.61s-0.929,0.501-1.368,0.501c-0.869,0-1.593-0.513-2.171-1.539    C43.279,206.526,43.035,205.483,43.035,204.265z M44.353,204.433c0,1.255,0.155,2.279,0.464,3.073    c0.255,0.668,0.636,1.001,1.143,1.001c0.242,0,0.493-0.108,0.753-0.325c0.26-0.218,0.457-0.582,0.591-1.093    c0.206-0.771,0.309-1.858,0.309-3.262c0-1.04-0.107-1.907-0.322-2.602c-0.162-0.516-0.37-0.881-0.625-1.097    c-0.184-0.147-0.406-0.222-0.666-0.222c-0.305,0-0.576,0.137-0.813,0.41c-0.322,0.372-0.542,0.957-0.659,1.755    S44.353,203.657,44.353,204.433z"/>
		<path fill="#212830" d="M51.142,207.465c0.211,0,0.388,0.073,0.531,0.219s0.215,0.321,0.215,0.528    c0,0.206-0.073,0.382-0.219,0.527s-0.321,0.219-0.528,0.219c-0.206,0-0.382-0.073-0.527-0.219    c-0.146-0.146-0.219-0.321-0.219-0.527c0-0.211,0.073-0.388,0.219-0.531C50.76,207.537,50.936,207.465,51.142,207.465z"/>
		<path fill="#212830" d="M59.035,199.464v0.248c-0.592,0.059-1.075,0.177-1.449,0.354c-0.375,0.177-0.744,0.447-1.109,0.811    c-0.365,0.362-0.668,0.768-0.908,1.213c-0.24,0.446-0.44,0.977-0.602,1.591c0.646-0.444,1.293-0.666,1.943-0.666    c0.623,0,1.163,0.251,1.62,0.753s0.686,1.147,0.686,1.937c0,0.763-0.231,1.457-0.692,2.085c-0.556,0.762-1.291,1.143-2.205,1.143    c-0.623,0-1.152-0.206-1.587-0.618c-0.852-0.803-1.277-1.843-1.277-3.12c0-0.815,0.163-1.591,0.491-2.326    c0.327-0.735,0.794-1.388,1.401-1.957s1.189-0.952,1.745-1.149s1.073-0.296,1.553-0.296H59.035z M54.853,204.17    c-0.081,0.605-0.121,1.094-0.121,1.466c0,0.431,0.08,0.898,0.239,1.402s0.396,0.904,0.709,1.2    c0.229,0.211,0.506,0.316,0.833,0.316c0.39,0,0.738-0.184,1.045-0.552c0.307-0.367,0.46-0.892,0.46-1.573    c0-0.767-0.152-1.43-0.457-1.99c-0.305-0.561-0.737-0.841-1.298-0.841c-0.17,0-0.353,0.036-0.548,0.107    C55.522,203.778,55.234,203.933,54.853,204.17z"/>
	</g>
	<polygon fill="none" stroke="#212830" stroke-width="0.5" stroke-linecap="square" stroke-miterlimit="10" points="96.328,212.608    96.328,214.551 102.153,213.579 96.328,212.608  "/>
	
		<line fill="none" stroke="#212830" stroke-width="0.5" stroke-linecap="square" stroke-miterlimit="10" x1="0.133" y1="184.316" x2="0.221" y2="184.316"/>
	
		<line fill="none" stroke="#212830" stroke-width="0.5" stroke-linecap="square" stroke-miterlimit="10" x1="102.153" y1="184.316" x2="102.242" y2="184.316"/>
	
		<line fill="none" stroke="#212830" stroke-width="0.5" stroke-linecap="square" stroke-miterlimit="10" x1="102.153" y1="213.579" x2="102.242" y2="213.579"/>
	<g>
		<path fill="#212830" d="M22.864,38.242l-1.297-2.061l1.962-4.883c-0.129-0.188-0.232-0.344-0.309-0.465    c-0.031-0.05-0.063-0.103-0.097-0.161c-0.034-0.059-0.068-0.12-0.103-0.182l-2.241,1.412c-0.485,0.306-0.754,0.549-0.805,0.729    c-0.076,0.25-0.023,0.518,0.158,0.806l0.19,0.302l-0.21,0.133l-2.082-3.306l0.21-0.133l0.183,0.29    c0.206,0.326,0.459,0.493,0.76,0.5c0.167,0.005,0.471-0.13,0.911-0.407l4.983-3.139c0.485-0.306,0.753-0.549,0.804-0.73    c0.074-0.252,0.019-0.526-0.165-0.818l-0.183-0.29l0.21-0.132l1.77,2.811c0.517,0.82,0.836,1.46,0.962,1.925    c0.125,0.464,0.113,0.933-0.036,1.406c-0.15,0.473-0.447,0.849-0.89,1.128c-0.474,0.299-0.983,0.404-1.527,0.314    c-0.543-0.089-1.091-0.412-1.644-0.97l-1.21,2.986c-0.279,0.685-0.419,1.21-0.422,1.577c-0.002,0.367,0.107,0.774,0.327,1.225    L22.864,38.242z M23.379,30.266c0.045,0.072,0.083,0.134,0.115,0.189c0.032,0.055,0.058,0.099,0.08,0.133    c0.464,0.736,0.972,1.19,1.526,1.364c0.554,0.173,1.077,0.104,1.57-0.207c0.481-0.303,0.778-0.7,0.89-1.192    c0.112-0.491,0.011-0.985-0.302-1.483c-0.138-0.22-0.362-0.494-0.67-0.825L23.379,30.266z"/>
		<path fill="#212830" d="M26.875,36.16c0.88-0.554,1.721-0.899,2.523-1.033c0.803-0.134,1.498-0.079,2.086,0.165    c0.461,0.186,0.807,0.461,1.036,0.826c0.372,0.592,0.405,1.312,0.099,2.163c-0.377,1.059-1.204,1.99-2.482,2.795    c-0.895,0.563-1.737,0.913-2.525,1.049s-1.449,0.094-1.983-0.128c-0.534-0.223-0.919-0.52-1.152-0.892    c-0.464-0.736-0.415-1.622,0.146-2.658C25.093,37.572,25.844,36.81,26.875,36.16z M27.436,37.365    c-1.062,0.669-1.846,1.346-2.352,2.03c-0.429,0.573-0.509,1.073-0.239,1.501c0.129,0.205,0.354,0.36,0.678,0.465    c0.322,0.104,0.735,0.077,1.239-0.082c0.762-0.237,1.736-0.729,2.924-1.477c0.88-0.554,1.557-1.107,2.029-1.659    c0.351-0.413,0.549-0.783,0.594-1.115c0.028-0.234-0.028-0.461-0.166-0.681c-0.163-0.258-0.423-0.414-0.781-0.47    c-0.487-0.075-1.099,0.05-1.835,0.377C28.789,36.582,28.092,36.952,27.436,37.365z"/>
		<path fill="#212830" d="M28.488,44.728c0.112,0.178,0.145,0.366,0.098,0.566c-0.047,0.199-0.157,0.354-0.332,0.464    s-0.362,0.141-0.563,0.096c-0.201-0.045-0.356-0.155-0.466-0.33c-0.11-0.175-0.142-0.363-0.096-0.564    c0.045-0.201,0.155-0.356,0.33-0.466c0.178-0.112,0.367-0.145,0.566-0.099C28.223,44.442,28.378,44.553,28.488,44.728z"/>
		<path fill="#212830" d="M36.118,43.862l2.098,1.301l0.118,0.188l-6.513,4.103c-0.433,0.272-0.691,0.459-0.774,0.563    s-0.118,0.229-0.103,0.379c0.015,0.15,0.128,0.402,0.34,0.755l-0.21,0.133l-1.827-2.901l0.21-0.133    c0.237,0.359,0.416,0.574,0.538,0.646c0.122,0.073,0.242,0.099,0.362,0.083c0.119-0.017,0.41-0.171,0.873-0.462l4.164-2.623    c0.561-0.354,0.91-0.599,1.044-0.737c0.105-0.103,0.163-0.208,0.176-0.314c0.013-0.106-0.012-0.208-0.074-0.307    c-0.088-0.141-0.27-0.298-0.545-0.475L36.118,43.862z"/>
		<path fill="#212830" d="M42.868,52.905l-1.246,0.166L40.16,50.75l-1.354,0.146c0.485,1.098,0.613,2.13,0.384,3.095    c-0.199,0.829-0.646,1.463-1.345,1.902c-0.405,0.256-0.833,0.41-1.281,0.463c-0.449,0.052-0.874,0.03-1.274-0.068    c-0.4-0.097-0.771-0.252-1.112-0.467c-0.483-0.305-0.869-0.688-1.158-1.146c-0.291-0.463-0.425-0.849-0.4-1.158    c0.025-0.31,0.132-0.525,0.322-0.645c0.106-0.066,0.228-0.083,0.364-0.046s0.246,0.12,0.33,0.253    c0.063,0.099,0.102,0.194,0.118,0.288c0.016,0.093,0.018,0.268,0.005,0.526c-0.018,0.408,0.065,0.759,0.249,1.05    c0.279,0.444,0.692,0.729,1.239,0.853c0.547,0.124,1.062,0.034,1.543-0.269c0.467-0.294,0.808-0.718,1.022-1.271    c0.215-0.555,0.267-1.165,0.155-1.831c-0.089-0.521-0.346-1.146-0.768-1.875l3.929-0.409L42.868,52.905z"/>
	</g>
	
		<line fill="none" stroke="#212830" stroke-width="0.5" stroke-linecap="square" stroke-miterlimit="10" x1="11.473" y1="29.176" x2="36.625" y2="69.164"/>
	
		<line fill="none" stroke="#212830" stroke-width="0.5" stroke-linecap="square" stroke-miterlimit="10" x1="51.143" y1="92.203" x2="39.714" y2="74.063"/>
	<polygon fill-rule="evenodd" clip-rule="evenodd" fill="#212830" points="37.464,68.634 35.787,69.649 39.714,74.063  "/>
	<polygon fill="none" stroke="#212830" stroke-width="0.5" stroke-linecap="square" stroke-miterlimit="10" points="37.464,68.634    35.787,69.649 39.714,74.063 37.464,68.634  "/>
	
		<line fill="none" stroke="#212830" stroke-width="0.5" stroke-linecap="square" stroke-miterlimit="10" x1="39.714" y1="74.063" x2="39.803" y2="74.063"/>
	
		<line fill="none" stroke="#212830" stroke-width="0.5" stroke-linecap="square" stroke-miterlimit="10" x1="51.143" y1="92.203" x2="51.231" y2="92.203"/>
</g>
</svg>
