<?xml version="1.0" encoding="utf-8"?>
<!-- Generator: Adobe Illustrator 16.0.0, SVG Export Plug-In . SVG Version: 6.00 Build 0)  -->
<!DOCTYPE svg PUBLIC "-//W3C//DTD SVG 1.1//EN" "http://www.w3.org/Graphics/SVG/1.1/DTD/svg11.dtd">
<svg xmlns="http://www.w3.org/2000/svg" xmlns:xlink="http://www.w3.org/1999/xlink" version="1.1" id="图层_1" x="0px" y="0px" width="330.187px" height="141.813px" viewBox="0 0 330.187 141.813" xml:space="preserve">
<g>
	<g>
		<path fill="#212830" d="M73.951,107.598c0.26,0.277,0.456,0.553,0.588,0.828c0.096,0.191,0.252,0.691,0.469,1.502l0.7-1.049    c0.186-0.254,0.411-0.498,0.676-0.729s0.498-0.387,0.7-0.473c0.127-0.053,0.268-0.08,0.421-0.08c0.228,0,0.409,0.063,0.544,0.184    c0.135,0.123,0.203,0.271,0.203,0.445c0,0.201-0.04,0.34-0.119,0.414c-0.148,0.133-0.318,0.199-0.509,0.199    c-0.111,0-0.23-0.025-0.358-0.072c-0.249-0.084-0.416-0.127-0.501-0.127c-0.127,0-0.278,0.074-0.453,0.223    c-0.329,0.275-0.721,0.809-1.176,1.598l0.652,2.736c0.101,0.418,0.186,0.67,0.254,0.752s0.138,0.123,0.207,0.123    c0.111,0,0.241-0.061,0.39-0.184c0.292-0.244,0.541-0.563,0.748-0.955l0.278,0.145c-0.333,0.625-0.758,1.145-1.272,1.559    c-0.292,0.232-0.538,0.35-0.739,0.35c-0.297,0-0.533-0.168-0.708-0.502c-0.111-0.205-0.342-1.096-0.692-2.672    c-0.827,1.438-1.489,2.363-1.988,2.775c-0.323,0.266-0.636,0.398-0.938,0.398c-0.212,0-0.405-0.076-0.581-0.23    c-0.127-0.117-0.19-0.273-0.19-0.469c0-0.176,0.058-0.322,0.175-0.438c0.117-0.117,0.26-0.176,0.429-0.176s0.35,0.086,0.541,0.254    c0.138,0.123,0.244,0.184,0.318,0.184c0.063,0,0.146-0.043,0.246-0.127c0.25-0.201,0.588-0.637,1.018-1.305    c0.429-0.668,0.71-1.15,0.843-1.447c-0.329-1.287-0.506-1.969-0.533-2.043c-0.122-0.346-0.281-0.59-0.477-0.732    c-0.196-0.143-0.485-0.215-0.867-0.215c-0.122,0-0.262,0.006-0.421,0.016v-0.285L73.951,107.598z"/>
	</g>
	
		<line fill="none" stroke="#212830" stroke-width="0.5" stroke-linecap="square" stroke-miterlimit="10" x1="0.354" y1="141.459" x2="147.604" y2="141.459"/>
	
		<line fill="none" stroke="#212830" stroke-width="0.5" stroke-linecap="square" stroke-miterlimit="10" x1="147.604" y1="91.497" x2="188.774" y2="50.316"/>
	<polygon fill-rule="evenodd" clip-rule="evenodd" fill="#212830" points="43.024,74.415 45.318,74.415 44.171,67.529  "/>
	<polygon fill="none" stroke="#212830" stroke-width="0.5" stroke-linecap="square" stroke-miterlimit="10" points="43.024,74.415    45.318,74.415 44.171,67.529 43.024,74.415  "/>
	<polygon fill-rule="evenodd" clip-rule="evenodd" fill="#212830" points="168.167,18.273 168.432,18.273 167.902,18.273  "/>
	<polygon fill-rule="evenodd" clip-rule="evenodd" fill="#212830" points="167.902,18.273 168.697,18.317 167.638,18.317  "/>
	<polygon fill-rule="evenodd" clip-rule="evenodd" fill="#212830" points="167.902,18.273 168.432,18.273 168.697,18.317  "/>
	<polygon fill-rule="evenodd" clip-rule="evenodd" fill="#212830" points="167.638,18.317 168.961,18.405 167.417,18.405  "/>
	<polygon fill-rule="evenodd" clip-rule="evenodd" fill="#212830" points="167.638,18.317 168.697,18.317 168.961,18.405  "/>
	<polygon fill-rule="evenodd" clip-rule="evenodd" fill="#212830" points="167.417,18.405 169.182,18.494 167.152,18.494  "/>
	<polygon fill-rule="evenodd" clip-rule="evenodd" fill="#212830" points="167.417,18.405 168.961,18.405 169.182,18.494  "/>
	<polygon fill-rule="evenodd" clip-rule="evenodd" fill="#212830" points="167.152,18.494 169.447,18.582 166.932,18.582  "/>
	<polygon fill-rule="evenodd" clip-rule="evenodd" fill="#212830" points="167.152,18.494 169.182,18.494 169.447,18.582  "/>
	<polygon fill-rule="evenodd" clip-rule="evenodd" fill="#212830" points="166.932,18.582 169.668,18.714 166.711,18.714  "/>
	<polygon fill-rule="evenodd" clip-rule="evenodd" fill="#212830" points="166.932,18.582 169.447,18.582 169.668,18.714  "/>
	<polygon fill-rule="evenodd" clip-rule="evenodd" fill="#212830" points="166.711,18.714 169.844,18.891 166.49,18.891  "/>
	<polygon fill-rule="evenodd" clip-rule="evenodd" fill="#212830" points="166.711,18.714 169.668,18.714 169.844,18.891  "/>
	<polygon fill-rule="evenodd" clip-rule="evenodd" fill="#212830" points="170.064,19.067 170.241,19.244 169.844,19.244  "/>
	<polygon fill-rule="evenodd" clip-rule="evenodd" fill="#212830" points="166.49,18.891 170.064,19.067 166.314,19.067  "/>
	<polygon fill-rule="evenodd" clip-rule="evenodd" fill="#212830" points="166.49,18.891 169.844,18.891 170.064,19.067  "/>
	<polygon fill-rule="evenodd" clip-rule="evenodd" fill="#212830" points="166.314,19.067 169.844,19.244 166.137,19.244  "/>
	<polygon fill-rule="evenodd" clip-rule="evenodd" fill="#212830" points="166.314,19.067 170.064,19.067 169.844,19.244  "/>
	<polygon fill-rule="evenodd" clip-rule="evenodd" fill="#212830" points="169.844,19.244 170.373,19.465 169.668,19.465  "/>
	<polygon fill-rule="evenodd" clip-rule="evenodd" fill="#212830" points="169.844,19.244 170.241,19.244 170.373,19.465  "/>
	<polygon fill-rule="evenodd" clip-rule="evenodd" fill="#212830" points="166.137,19.244 169.668,19.465 165.961,19.465  "/>
	<polygon fill-rule="evenodd" clip-rule="evenodd" fill="#212830" points="166.137,19.244 169.844,19.244 169.668,19.465  "/>
	<polygon fill-rule="evenodd" clip-rule="evenodd" fill="#212830" points="169.668,19.465 170.506,19.686 169.447,19.686  "/>
	<polygon fill-rule="evenodd" clip-rule="evenodd" fill="#212830" points="169.668,19.465 170.373,19.465 170.506,19.686  "/>
	<polygon fill-rule="evenodd" clip-rule="evenodd" fill="#212830" points="165.961,19.465 169.447,19.686 165.828,19.686  "/>
	<polygon fill-rule="evenodd" clip-rule="evenodd" fill="#212830" points="165.961,19.465 169.668,19.465 169.447,19.686  "/>
	<polygon fill-rule="evenodd" clip-rule="evenodd" fill="#212830" points="169.447,19.686 170.639,19.906 169.182,19.906  "/>
	<polygon fill-rule="evenodd" clip-rule="evenodd" fill="#212830" points="169.447,19.686 170.506,19.686 170.639,19.906  "/>
	<polygon fill-rule="evenodd" clip-rule="evenodd" fill="#212830" points="165.828,19.686 169.182,19.906 165.74,19.906  "/>
	<polygon fill-rule="evenodd" clip-rule="evenodd" fill="#212830" points="165.828,19.686 169.447,19.686 169.182,19.906  "/>
	<polygon fill-rule="evenodd" clip-rule="evenodd" fill="#212830" points="169.182,19.906 170.727,20.171 168.961,20.171  "/>
	<polygon fill-rule="evenodd" clip-rule="evenodd" fill="#212830" points="169.182,19.906 170.639,19.906 170.727,20.171  "/>
	<polygon fill-rule="evenodd" clip-rule="evenodd" fill="#212830" points="165.74,19.906 168.961,20.171 165.652,20.171  "/>
	<polygon fill-rule="evenodd" clip-rule="evenodd" fill="#212830" points="165.74,19.906 169.182,19.906 168.961,20.171  "/>
	<polygon fill-rule="evenodd" clip-rule="evenodd" fill="#212830" points="168.961,20.171 170.771,20.392 168.697,20.392  "/>
	<polygon fill-rule="evenodd" clip-rule="evenodd" fill="#212830" points="168.961,20.171 170.727,20.171 170.771,20.392  "/>
	<polygon fill-rule="evenodd" clip-rule="evenodd" fill="#212830" points="165.652,20.171 168.697,20.392 165.564,20.392  "/>
	<polygon fill-rule="evenodd" clip-rule="evenodd" fill="#212830" points="165.652,20.171 168.961,20.171 168.697,20.392  "/>
	<polygon fill-rule="evenodd" clip-rule="evenodd" fill="#212830" points="168.697,20.392 170.814,20.656 168.432,20.656  "/>
	<polygon fill-rule="evenodd" clip-rule="evenodd" fill="#212830" points="168.697,20.392 170.771,20.392 170.814,20.656  "/>
	<polygon fill-rule="evenodd" clip-rule="evenodd" fill="#212830" points="165.564,20.392 168.432,20.656 165.52,20.656  "/>
	<polygon fill-rule="evenodd" clip-rule="evenodd" fill="#212830" points="165.564,20.392 168.697,20.392 168.432,20.656  "/>
	<polygon fill-rule="evenodd" clip-rule="evenodd" fill="#212830" points="168.167,20.921 168.167,21.186 167.902,21.186  "/>
	<polygon fill-rule="evenodd" clip-rule="evenodd" fill="#212830" points="168.432,20.656 170.814,20.921 168.167,20.921  "/>
	<polygon fill-rule="evenodd" clip-rule="evenodd" fill="#212830" points="168.432,20.656 170.814,20.656 170.814,20.921  "/>
	<polygon fill-rule="evenodd" clip-rule="evenodd" fill="#212830" points="165.52,20.656 168.167,20.921 165.52,20.921  "/>
	<polygon fill-rule="evenodd" clip-rule="evenodd" fill="#212830" points="165.52,20.656 168.432,20.656 168.167,20.921  "/>
	<polygon fill-rule="evenodd" clip-rule="evenodd" fill="#212830" points="168.167,20.921 170.814,21.186 168.167,21.186  "/>
	<polygon fill-rule="evenodd" clip-rule="evenodd" fill="#212830" points="168.167,20.921 170.814,20.921 170.814,21.186  "/>
	<polygon fill-rule="evenodd" clip-rule="evenodd" fill="#212830" points="165.52,20.921 167.902,21.186 165.52,21.186  "/>
	<polygon fill-rule="evenodd" clip-rule="evenodd" fill="#212830" points="165.52,20.921 168.167,20.921 167.902,21.186  "/>
	<polygon fill-rule="evenodd" clip-rule="evenodd" fill="#212830" points="168.167,21.186 170.771,21.451 168.167,21.451  "/>
	<polygon fill-rule="evenodd" clip-rule="evenodd" fill="#212830" points="168.167,21.186 170.814,21.186 170.771,21.451  "/>
	<polygon fill-rule="evenodd" clip-rule="evenodd" fill="#212830" points="165.52,21.186 167.638,21.451 165.564,21.451  "/>
	<polygon fill-rule="evenodd" clip-rule="evenodd" fill="#212830" points="165.52,21.186 167.902,21.186 167.638,21.451  "/>
	<polygon fill-rule="evenodd" clip-rule="evenodd" fill="#212830" points="168.167,21.451 170.727,21.716 168.167,21.716  "/>
	<polygon fill-rule="evenodd" clip-rule="evenodd" fill="#212830" points="168.167,21.451 170.771,21.451 170.727,21.716  "/>
	<polygon fill-rule="evenodd" clip-rule="evenodd" fill="#212830" points="165.564,21.451 167.417,21.716 165.652,21.716  "/>
	<polygon fill-rule="evenodd" clip-rule="evenodd" fill="#212830" points="165.564,21.451 167.638,21.451 167.417,21.716  "/>
	<polygon fill-rule="evenodd" clip-rule="evenodd" fill="#212830" points="168.167,21.716 170.639,21.937 168.167,21.937  "/>
	<polygon fill-rule="evenodd" clip-rule="evenodd" fill="#212830" points="168.167,21.716 170.727,21.716 170.639,21.937  "/>
	<polygon fill-rule="evenodd" clip-rule="evenodd" fill="#212830" points="165.652,21.716 167.152,21.937 165.74,21.937  "/>
	<polygon fill-rule="evenodd" clip-rule="evenodd" fill="#212830" points="165.652,21.716 167.417,21.716 167.152,21.937  "/>
	<polygon fill-rule="evenodd" clip-rule="evenodd" fill="#212830" points="168.167,21.937 170.506,22.201 168.167,22.201  "/>
	<polygon fill-rule="evenodd" clip-rule="evenodd" fill="#212830" points="168.167,21.937 170.639,21.937 170.506,22.201  "/>
	<polygon fill-rule="evenodd" clip-rule="evenodd" fill="#212830" points="165.74,21.937 166.932,22.201 165.828,22.201  "/>
	<polygon fill-rule="evenodd" clip-rule="evenodd" fill="#212830" points="165.74,21.937 167.152,21.937 166.932,22.201  "/>
	<polygon fill-rule="evenodd" clip-rule="evenodd" fill="#212830" points="168.167,22.201 170.373,22.422 168.167,22.422  "/>
	<polygon fill-rule="evenodd" clip-rule="evenodd" fill="#212830" points="168.167,22.201 170.506,22.201 170.373,22.422  "/>
	<polygon fill-rule="evenodd" clip-rule="evenodd" fill="#212830" points="165.828,22.201 166.711,22.422 165.961,22.422  "/>
	<polygon fill-rule="evenodd" clip-rule="evenodd" fill="#212830" points="165.828,22.201 166.932,22.201 166.711,22.422  "/>
	<polygon fill-rule="evenodd" clip-rule="evenodd" fill="#212830" points="166.137,22.598 166.49,22.598 166.314,22.819  "/>
	<polygon fill-rule="evenodd" clip-rule="evenodd" fill="#212830" points="168.167,22.422 170.241,22.598 168.167,22.598  "/>
	<polygon fill-rule="evenodd" clip-rule="evenodd" fill="#212830" points="168.167,22.422 170.373,22.422 170.241,22.598  "/>
	<polygon fill-rule="evenodd" clip-rule="evenodd" fill="#212830" points="167.902,21.186 168.167,22.598 166.49,22.598  "/>
	<polygon fill-rule="evenodd" clip-rule="evenodd" fill="#212830" points="167.902,21.186 168.167,21.186 168.167,22.598  "/>
	<polygon fill-rule="evenodd" clip-rule="evenodd" fill="#212830" points="165.961,22.422 166.49,22.598 166.137,22.598  "/>
	<polygon fill-rule="evenodd" clip-rule="evenodd" fill="#212830" points="165.961,22.422 166.711,22.422 166.49,22.598  "/>
	<polygon fill-rule="evenodd" clip-rule="evenodd" fill="#212830" points="168.167,22.598 170.064,22.819 168.167,22.819  "/>
	<polygon fill-rule="evenodd" clip-rule="evenodd" fill="#212830" points="168.167,22.598 170.241,22.598 170.064,22.819  "/>
	<polygon fill-rule="evenodd" clip-rule="evenodd" fill="#212830" points="166.49,22.598 168.167,22.819 166.314,22.819  "/>
	<polygon fill-rule="evenodd" clip-rule="evenodd" fill="#212830" points="166.49,22.598 168.167,22.598 168.167,22.819  "/>
	<polygon fill-rule="evenodd" clip-rule="evenodd" fill="#212830" points="168.167,22.819 169.844,22.996 168.167,22.996  "/>
	<polygon fill-rule="evenodd" clip-rule="evenodd" fill="#212830" points="168.167,22.819 170.064,22.819 169.844,22.996  "/>
	<polygon fill-rule="evenodd" clip-rule="evenodd" fill="#212830" points="166.314,22.819 168.167,22.996 166.49,22.996  "/>
	<polygon fill-rule="evenodd" clip-rule="evenodd" fill="#212830" points="166.314,22.819 168.167,22.819 168.167,22.996  "/>
	<polygon fill-rule="evenodd" clip-rule="evenodd" fill="#212830" points="168.167,22.996 169.668,23.128 168.167,23.128  "/>
	<polygon fill-rule="evenodd" clip-rule="evenodd" fill="#212830" points="168.167,22.996 169.844,22.996 169.668,23.128  "/>
	<polygon fill-rule="evenodd" clip-rule="evenodd" fill="#212830" points="166.49,22.996 168.167,23.128 166.711,23.128  "/>
	<polygon fill-rule="evenodd" clip-rule="evenodd" fill="#212830" points="166.49,22.996 168.167,22.996 168.167,23.128  "/>
	<polygon fill-rule="evenodd" clip-rule="evenodd" fill="#212830" points="168.167,23.128 169.447,23.26 168.167,23.26  "/>
	<polygon fill-rule="evenodd" clip-rule="evenodd" fill="#212830" points="168.167,23.128 169.668,23.128 169.447,23.26  "/>
	<polygon fill-rule="evenodd" clip-rule="evenodd" fill="#212830" points="166.711,23.128 168.167,23.26 166.932,23.26  "/>
	<polygon fill-rule="evenodd" clip-rule="evenodd" fill="#212830" points="166.711,23.128 168.167,23.128 168.167,23.26  "/>
	<polygon fill-rule="evenodd" clip-rule="evenodd" fill="#212830" points="168.167,23.26 169.182,23.393 168.167,23.393  "/>
	<polygon fill-rule="evenodd" clip-rule="evenodd" fill="#212830" points="168.167,23.26 169.447,23.26 169.182,23.393  "/>
	<polygon fill-rule="evenodd" clip-rule="evenodd" fill="#212830" points="166.932,23.26 168.167,23.393 167.152,23.393  "/>
	<polygon fill-rule="evenodd" clip-rule="evenodd" fill="#212830" points="166.932,23.26 168.167,23.26 168.167,23.393  "/>
	<polygon fill-rule="evenodd" clip-rule="evenodd" fill="#212830" points="168.167,23.393 168.961,23.481 168.167,23.481  "/>
	<polygon fill-rule="evenodd" clip-rule="evenodd" fill="#212830" points="168.167,23.393 169.182,23.393 168.961,23.481  "/>
	<polygon fill-rule="evenodd" clip-rule="evenodd" fill="#212830" points="167.152,23.393 168.167,23.481 167.417,23.481  "/>
	<polygon fill-rule="evenodd" clip-rule="evenodd" fill="#212830" points="167.152,23.393 168.167,23.393 168.167,23.481  "/>
	<polygon fill-rule="evenodd" clip-rule="evenodd" fill="#212830" points="168.167,23.481 168.697,23.525 168.167,23.525  "/>
	<polygon fill-rule="evenodd" clip-rule="evenodd" fill="#212830" points="168.167,23.481 168.961,23.481 168.697,23.525  "/>
	<polygon fill-rule="evenodd" clip-rule="evenodd" fill="#212830" points="167.417,23.481 168.167,23.525 167.638,23.525  "/>
	<polygon fill-rule="evenodd" clip-rule="evenodd" fill="#212830" points="167.417,23.481 168.167,23.481 168.167,23.525  "/>
	<polygon fill-rule="evenodd" clip-rule="evenodd" fill="#212830" points="167.902,23.569 168.167,23.569 168.167,23.613  "/>
	<polygon fill-rule="evenodd" clip-rule="evenodd" fill="#212830" points="168.167,23.569 168.432,23.569 168.167,23.613  "/>
	<polygon fill-rule="evenodd" clip-rule="evenodd" fill="#212830" points="168.167,23.525 168.432,23.569 168.167,23.569  "/>
	<polygon fill-rule="evenodd" clip-rule="evenodd" fill="#212830" points="168.167,23.525 168.697,23.525 168.432,23.569  "/>
	<polygon fill-rule="evenodd" clip-rule="evenodd" fill="#212830" points="167.638,23.525 168.167,23.569 167.902,23.569  "/>
	<polygon fill-rule="evenodd" clip-rule="evenodd" fill="#212830" points="167.638,23.525 168.167,23.525 168.167,23.569  "/>
	<polygon fill="none" stroke="#212830" stroke-width="0.5" stroke-linecap="square" stroke-miterlimit="10" points="170.814,20.921    170.814,20.656 170.771,20.392 170.727,20.171 170.639,19.906 170.506,19.686 170.373,19.465 170.241,19.244 170.064,19.067    168.167,20.921 168.167,23.613 168.432,23.569 168.697,23.525 168.961,23.481 169.182,23.393 169.447,23.26 169.668,23.128    169.844,22.996 170.064,22.819 170.241,22.598 170.373,22.422 170.506,22.201 170.639,21.937 170.727,21.716 170.771,21.451    170.814,21.186 170.814,20.921  "/>
	<polygon fill="none" stroke="#212830" stroke-width="0.5" stroke-linecap="square" stroke-miterlimit="10" points="170.064,19.067    169.844,18.891 169.668,18.714 169.447,18.582 169.182,18.494 168.961,18.405 168.697,18.317 168.432,18.273 168.167,18.273    167.902,18.273 167.638,18.317 167.417,18.405 167.152,18.494 166.932,18.582 166.711,18.714 166.49,18.891 166.314,19.067    166.137,19.244 165.961,19.465 165.828,19.686 165.74,19.906 165.652,20.171 165.564,20.392 165.52,20.656 165.52,20.921    165.52,21.186 165.564,21.451 165.652,21.716 165.74,21.937 165.828,22.201 165.961,22.422 166.137,22.598 166.314,22.819    170.064,19.067  "/>
	<polygon fill="none" stroke="#212830" stroke-width="0.5" stroke-linecap="square" stroke-miterlimit="10" points="168.167,20.921    166.314,22.819 166.49,22.996 166.711,23.128 166.932,23.26 167.152,23.393 167.417,23.481 167.638,23.525 167.902,23.569    168.167,23.613 168.167,20.921  "/>
	<polygon fill="none" stroke="#212830" stroke-width="0.5" stroke-linecap="square" stroke-miterlimit="10" points="170.814,70.884    170.771,70.354 170.594,69.824 170.33,69.339 169.932,68.897 169.491,68.589 169.006,68.368 168.432,68.235 167.902,68.235    167.328,68.368 166.844,68.589 166.402,68.897 166.005,69.339 165.74,69.824 165.564,70.354 165.52,70.884 165.564,71.414    165.74,71.943 166.005,72.429 166.402,72.87 166.844,73.179 167.328,73.399 167.902,73.532 168.432,73.532 169.006,73.399    169.491,73.179 169.932,72.87 170.33,72.429 170.594,71.943 170.771,71.414 170.814,70.884  "/>
	<g>
		<path fill="#212830" d="M157.055,18.58l-0.755,2.076h-6.361v-0.294c1.871-1.707,3.188-3.101,3.952-4.183s1.145-2.07,1.145-2.966    c0-0.684-0.209-1.246-0.628-1.686c-0.418-0.44-0.919-0.66-1.502-0.66c-0.53,0-1.006,0.155-1.427,0.465s-0.733,0.765-0.934,1.364    h-0.294c0.133-0.98,0.473-1.733,1.022-2.258c0.548-0.525,1.233-0.787,2.055-0.787c0.875,0,1.604,0.281,2.19,0.843    c0.585,0.562,0.878,1.225,0.878,1.988c0,0.546-0.127,1.092-0.382,1.638c-0.392,0.858-1.028,1.768-1.908,2.728    c-1.32,1.442-2.144,2.312-2.473,2.608h2.814c0.572,0,0.974-0.021,1.205-0.064c0.23-0.042,0.438-0.128,0.624-0.258    s0.347-0.314,0.485-0.553H157.055z"/>
	</g>
	<g>
		<path fill="#212830" d="M322.014,76.829v0.295c-0.7,0.068-1.271,0.207-1.714,0.418c-0.442,0.209-0.88,0.527-1.312,0.957    s-0.79,0.908-1.073,1.436c-0.284,0.527-0.521,1.154-0.712,1.881c0.764-0.525,1.529-0.787,2.298-0.787    c0.736,0,1.376,0.297,1.916,0.891c0.541,0.594,0.812,1.357,0.812,2.291c0,0.9-0.273,1.723-0.819,2.465    c-0.657,0.9-1.526,1.352-2.607,1.352c-0.737,0-1.362-0.244-1.877-0.732c-1.007-0.947-1.511-2.178-1.511-3.689    c0-0.965,0.194-1.881,0.581-2.752c0.387-0.869,0.939-1.641,1.657-2.313c0.719-0.674,1.406-1.127,2.063-1.361    c0.657-0.232,1.27-0.35,1.837-0.35H322.014z M317.068,82.395c-0.096,0.717-0.144,1.295-0.144,1.734    c0,0.508,0.095,1.061,0.282,1.658c0.188,0.596,0.468,1.068,0.839,1.42c0.271,0.248,0.6,0.373,0.986,0.373    c0.461,0,0.873-0.217,1.236-0.652c0.362-0.434,0.544-1.055,0.544-1.861c0-0.906-0.18-1.691-0.54-2.354s-0.872-0.994-1.534-0.994    c-0.202,0-0.418,0.043-0.648,0.127C317.859,81.932,317.519,82.114,317.068,82.395z"/>
	</g>
	<polygon fill="none" stroke="#212830" stroke-width="0.5" stroke-linecap="square" stroke-miterlimit="10" points="150.252,91.497    150.208,90.965 150.031,90.436 149.767,89.952 149.369,89.51 148.928,89.202 148.442,88.981 147.869,88.848 147.339,88.848    146.766,88.981 146.28,89.202 145.839,89.51 145.442,89.952 145.177,90.436 145.001,90.965 144.957,91.497 145.001,92.026    145.177,92.555 145.442,93.042 145.839,93.483 146.28,93.792 146.766,94.012 147.339,94.143 147.869,94.143 148.442,94.012    148.928,93.792 149.369,93.483 149.767,93.042 150.031,92.555 150.208,92.026 150.252,91.497  "/>
	<g>
		<path fill="#212830" d="M34.674,68.278c0.18,0.308,0.305,0.596,0.374,0.863s0.138,0.794,0.207,1.578l0.35,3.914    c0.318-0.383,0.779-0.986,1.383-1.814c0.292-0.402,0.652-0.951,1.081-1.646c0.26-0.425,0.419-0.722,0.477-0.892    c0.032-0.084,0.048-0.172,0.048-0.262c0-0.059-0.019-0.106-0.056-0.144s-0.134-0.081-0.29-0.131    c-0.157-0.051-0.287-0.144-0.39-0.278c-0.104-0.136-0.155-0.29-0.155-0.466c0-0.217,0.063-0.392,0.191-0.524    c0.127-0.133,0.286-0.199,0.477-0.199c0.233,0,0.432,0.097,0.596,0.291c0.164,0.193,0.247,0.46,0.247,0.799    c0,0.419-0.143,0.897-0.429,1.436c-0.287,0.538-0.838,1.363-1.654,2.476c-0.816,1.115-1.805,2.328-2.966,3.643    c-0.8,0.906-1.394,1.479-1.781,1.715c-0.387,0.234-0.718,0.354-0.994,0.354c-0.165,0-0.309-0.063-0.434-0.188    s-0.187-0.27-0.187-0.434c0-0.207,0.086-0.395,0.258-0.564s0.359-0.254,0.561-0.254c0.106,0,0.193,0.023,0.262,0.072    c0.042,0.025,0.089,0.102,0.139,0.227c0.05,0.123,0.097,0.207,0.139,0.25c0.026,0.025,0.058,0.039,0.095,0.039    c0.032,0,0.087-0.025,0.167-0.078c0.292-0.182,0.631-0.467,1.018-0.859c0.509-0.52,0.885-0.943,1.129-1.273l-0.445-5.042    c-0.074-0.832-0.186-1.338-0.334-1.519c-0.148-0.18-0.397-0.271-0.748-0.271c-0.111,0-0.31,0.016-0.596,0.048l-0.071-0.294    L34.674,68.278z"/>
	</g>
	
		<line fill="none" stroke="#212830" stroke-width="0.5" stroke-linecap="square" stroke-miterlimit="10" x1="41.523" y1="0.354" x2="188.774" y2="0.354"/>
	
		<line fill="none" stroke="#212830" stroke-width="0.5" stroke-linecap="square" stroke-miterlimit="10" x1="147.604" y1="141.459" x2="147.604" y2="41.533"/>
	
		<line fill="none" stroke="#212830" stroke-width="0.5" stroke-linecap="square" stroke-miterlimit="10" x1="147.604" y1="141.459" x2="147.604" y2="41.533"/>
	
		<line fill="none" stroke="#212830" stroke-width="0.5" stroke-linecap="square" stroke-miterlimit="10" x1="168.167" y1="20.921" x2="168.167" y2="120.891"/>
	
		<line fill="none" stroke="#212830" stroke-width="0.5" stroke-linecap="square" stroke-miterlimit="10" x1="44.171" y1="103.942" x2="71.574" y2="103.942"/>
	<polygon fill-rule="evenodd" clip-rule="evenodd" fill="#212830" points="24.491,125.305 22.77,123.803 19.063,129.719  "/>
	<polygon fill="none" stroke="#212830" stroke-width="0.5" stroke-linecap="square" stroke-miterlimit="10" points="24.491,125.305    22.77,123.803 19.063,129.719 24.491,125.305  "/>
	<polygon fill-rule="evenodd" clip-rule="evenodd" fill="#212830" points="168.167,118.198 168.697,118.243 167.638,118.243  "/>
	<polygon fill-rule="evenodd" clip-rule="evenodd" fill="#212830" points="167.638,118.243 169.182,118.418 167.152,118.418  "/>
	<polygon fill-rule="evenodd" clip-rule="evenodd" fill="#212830" points="167.638,118.243 168.697,118.243 169.182,118.418  "/>
	<polygon fill-rule="evenodd" clip-rule="evenodd" fill="#212830" points="167.152,118.418 169.668,118.639 166.711,118.639  "/>
	<polygon fill-rule="evenodd" clip-rule="evenodd" fill="#212830" points="167.152,118.418 169.182,118.418 169.668,118.639  "/>
	<polygon fill-rule="evenodd" clip-rule="evenodd" fill="#212830" points="170.064,118.993 170.33,119.301 169.756,119.301  "/>
	<polygon fill-rule="evenodd" clip-rule="evenodd" fill="#212830" points="166.711,118.639 170.064,118.993 166.314,118.993  "/>
	<polygon fill-rule="evenodd" clip-rule="evenodd" fill="#212830" points="166.711,118.639 169.668,118.639 170.064,118.993  "/>
	<polygon fill-rule="evenodd" clip-rule="evenodd" fill="#212830" points="166.314,118.993 169.668,119.391 165.961,119.391  "/>
	<polygon fill-rule="evenodd" clip-rule="evenodd" fill="#212830" points="166.314,118.993 170.064,118.993 169.668,119.391  "/>
	<polygon fill-rule="evenodd" clip-rule="evenodd" fill="#212830" points="169.756,119.301 170.55,119.655 169.402,119.655  "/>
	<polygon fill-rule="evenodd" clip-rule="evenodd" fill="#212830" points="169.756,119.301 170.33,119.301 170.55,119.655  "/>
	<polygon fill-rule="evenodd" clip-rule="evenodd" fill="#212830" points="169.402,119.655 170.639,119.833 169.182,119.833  "/>
	<polygon fill-rule="evenodd" clip-rule="evenodd" fill="#212830" points="169.402,119.655 170.55,119.655 170.639,119.833  "/>
	<polygon fill-rule="evenodd" clip-rule="evenodd" fill="#212830" points="165.961,119.391 169.182,119.833 165.74,119.833  "/>
	<polygon fill-rule="evenodd" clip-rule="evenodd" fill="#212830" points="165.961,119.391 169.668,119.391 169.182,119.833  "/>
	<polygon fill-rule="evenodd" clip-rule="evenodd" fill="#212830" points="169.182,119.833 170.727,120.053 169.006,120.053  "/>
	<polygon fill-rule="evenodd" clip-rule="evenodd" fill="#212830" points="169.182,119.833 170.639,119.833 170.727,120.053  "/>
	<polygon fill-rule="evenodd" clip-rule="evenodd" fill="#212830" points="165.74,119.833 169.006,120.053 165.652,120.053  "/>
	<polygon fill-rule="evenodd" clip-rule="evenodd" fill="#212830" points="165.74,119.833 169.182,119.833 169.006,120.053  "/>
	<polygon fill-rule="evenodd" clip-rule="evenodd" fill="#212830" points="169.006,120.053 170.771,120.362 168.697,120.362  "/>
	<polygon fill-rule="evenodd" clip-rule="evenodd" fill="#212830" points="169.006,120.053 170.727,120.053 170.771,120.362  "/>
	<polygon fill-rule="evenodd" clip-rule="evenodd" fill="#212830" points="165.652,120.053 168.697,120.362 165.564,120.362  "/>
	<polygon fill-rule="evenodd" clip-rule="evenodd" fill="#212830" points="165.652,120.053 169.006,120.053 168.697,120.362  "/>
	<polygon fill-rule="evenodd" clip-rule="evenodd" fill="#212830" points="168.697,120.362 170.814,120.45 168.608,120.45  "/>
	<polygon fill-rule="evenodd" clip-rule="evenodd" fill="#212830" points="168.697,120.362 170.771,120.362 170.814,120.45  "/>
	<polygon fill-rule="evenodd" clip-rule="evenodd" fill="#212830" points="165.564,120.362 168.608,120.45 165.564,120.45  "/>
	<polygon fill-rule="evenodd" clip-rule="evenodd" fill="#212830" points="165.564,120.362 168.697,120.362 168.608,120.45  "/>
	<polygon fill-rule="evenodd" clip-rule="evenodd" fill="#212830" points="168.167,120.891 168.167,121.288 167.77,121.288  "/>
	<polygon fill-rule="evenodd" clip-rule="evenodd" fill="#212830" points="168.608,120.45 170.814,120.891 168.167,120.891  "/>
	<polygon fill-rule="evenodd" clip-rule="evenodd" fill="#212830" points="168.608,120.45 170.814,120.45 170.814,120.891  "/>
	<polygon fill-rule="evenodd" clip-rule="evenodd" fill="#212830" points="165.564,120.45 168.167,120.891 165.52,120.891  "/>
	<polygon fill-rule="evenodd" clip-rule="evenodd" fill="#212830" points="165.564,120.45 168.608,120.45 168.167,120.891  "/>
	<polygon fill-rule="evenodd" clip-rule="evenodd" fill="#212830" points="168.167,120.891 170.814,121.288 168.167,121.288  "/>
	<polygon fill-rule="evenodd" clip-rule="evenodd" fill="#212830" points="168.167,120.891 170.814,120.891 170.814,121.288  "/>
	<polygon fill-rule="evenodd" clip-rule="evenodd" fill="#212830" points="165.52,120.891 167.77,121.288 165.564,121.288  "/>
	<polygon fill-rule="evenodd" clip-rule="evenodd" fill="#212830" points="165.52,120.891 168.167,120.891 167.77,121.288  "/>
	<polygon fill-rule="evenodd" clip-rule="evenodd" fill="#212830" points="168.167,121.288 170.814,121.333 168.167,121.333  "/>
	<polygon fill-rule="evenodd" clip-rule="evenodd" fill="#212830" points="168.167,121.288 170.814,121.288 170.814,121.333  "/>
	<polygon fill-rule="evenodd" clip-rule="evenodd" fill="#212830" points="165.564,121.288 167.373,121.686 165.652,121.686  "/>
	<polygon fill-rule="evenodd" clip-rule="evenodd" fill="#212830" points="165.564,121.288 167.77,121.288 167.373,121.686  "/>
	<polygon fill-rule="evenodd" clip-rule="evenodd" fill="#212830" points="168.167,121.333 170.683,121.774 168.167,121.774  "/>
	<polygon fill-rule="evenodd" clip-rule="evenodd" fill="#212830" points="168.167,121.333 170.814,121.333 170.683,121.774  "/>
	<polygon fill-rule="evenodd" clip-rule="evenodd" fill="#212830" points="165.652,121.686 166.976,122.083 165.828,122.083  "/>
	<polygon fill-rule="evenodd" clip-rule="evenodd" fill="#212830" points="165.652,121.686 167.373,121.686 166.976,122.083  "/>
	<polygon fill-rule="evenodd" clip-rule="evenodd" fill="#212830" points="168.167,121.774 170.462,122.215 168.167,122.215  "/>
	<polygon fill-rule="evenodd" clip-rule="evenodd" fill="#212830" points="168.167,121.774 170.683,121.774 170.462,122.215  "/>
	<polygon fill-rule="evenodd" clip-rule="evenodd" fill="#212830" points="165.828,122.083 166.623,122.436 166.049,122.436  "/>
	<polygon fill-rule="evenodd" clip-rule="evenodd" fill="#212830" points="165.828,122.083 166.976,122.083 166.623,122.436  "/>
	<polygon fill-rule="evenodd" clip-rule="evenodd" fill="#212830" points="166.137,122.569 166.49,122.569 166.314,122.745  "/>
	<polygon fill-rule="evenodd" clip-rule="evenodd" fill="#212830" points="168.167,122.215 170.197,122.569 168.167,122.569  "/>
	<polygon fill-rule="evenodd" clip-rule="evenodd" fill="#212830" points="168.167,122.215 170.462,122.215 170.197,122.569  "/>
	<polygon fill-rule="evenodd" clip-rule="evenodd" fill="#212830" points="167.77,121.288 168.167,122.569 166.49,122.569  "/>
	<polygon fill-rule="evenodd" clip-rule="evenodd" fill="#212830" points="167.77,121.288 168.167,121.288 168.167,122.569  "/>
	<polygon fill-rule="evenodd" clip-rule="evenodd" fill="#212830" points="166.049,122.436 166.49,122.569 166.137,122.569  "/>
	<polygon fill-rule="evenodd" clip-rule="evenodd" fill="#212830" points="166.049,122.436 166.623,122.436 166.49,122.569  "/>
	<polygon fill-rule="evenodd" clip-rule="evenodd" fill="#212830" points="166.49,122.569 168.167,122.745 166.314,122.745  "/>
	<polygon fill-rule="evenodd" clip-rule="evenodd" fill="#212830" points="166.49,122.569 168.167,122.569 168.167,122.745  "/>
	<polygon fill-rule="evenodd" clip-rule="evenodd" fill="#212830" points="168.167,122.569 169.889,122.92 168.167,122.92  "/>
	<polygon fill-rule="evenodd" clip-rule="evenodd" fill="#212830" points="168.167,122.569 170.197,122.569 169.889,122.92  "/>
	<polygon fill-rule="evenodd" clip-rule="evenodd" fill="#212830" points="166.314,122.745 168.167,123.098 166.711,123.098  "/>
	<polygon fill-rule="evenodd" clip-rule="evenodd" fill="#212830" points="166.314,122.745 168.167,122.745 168.167,123.098  "/>
	<polygon fill-rule="evenodd" clip-rule="evenodd" fill="#212830" points="168.167,122.92 169.491,123.186 168.167,123.186  "/>
	<polygon fill-rule="evenodd" clip-rule="evenodd" fill="#212830" points="168.167,122.92 169.889,122.92 169.491,123.186  "/>
	<polygon fill-rule="evenodd" clip-rule="evenodd" fill="#212830" points="166.711,123.098 168.167,123.319 167.152,123.319  "/>
	<polygon fill-rule="evenodd" clip-rule="evenodd" fill="#212830" points="166.711,123.098 168.167,123.098 168.167,123.319  "/>
	<polygon fill-rule="evenodd" clip-rule="evenodd" fill="#212830" points="168.167,123.186 169.094,123.362 168.167,123.362  "/>
	<polygon fill-rule="evenodd" clip-rule="evenodd" fill="#212830" points="168.167,123.186 169.491,123.186 169.094,123.362  "/>
	<polygon fill-rule="evenodd" clip-rule="evenodd" fill="#212830" points="167.152,123.319 168.167,123.495 167.638,123.495  "/>
	<polygon fill-rule="evenodd" clip-rule="evenodd" fill="#212830" points="167.152,123.319 168.167,123.319 168.167,123.495  "/>
	<polygon fill-rule="evenodd" clip-rule="evenodd" fill="#212830" points="167.77,123.495 168.167,123.495 168.167,123.54  "/>
	<polygon fill-rule="evenodd" clip-rule="evenodd" fill="#212830" points="168.167,123.495 168.652,123.495 168.167,123.54  "/>
	<polygon fill-rule="evenodd" clip-rule="evenodd" fill="#212830" points="168.167,123.362 168.652,123.495 168.167,123.495  "/>
	<polygon fill-rule="evenodd" clip-rule="evenodd" fill="#212830" points="168.167,123.362 169.094,123.362 168.652,123.495  "/>
	<polygon fill-rule="evenodd" clip-rule="evenodd" fill="#212830" points="167.638,123.495 168.167,123.495 167.77,123.495  "/>
	<polygon fill-rule="evenodd" clip-rule="evenodd" fill="#212830" points="167.638,123.495 168.167,123.495 168.167,123.495  "/>
	<polygon fill="none" stroke="#212830" stroke-width="0.5" stroke-linecap="square" stroke-miterlimit="10" points="   170.814,120.891 170.814,120.45 170.727,120.053 170.55,119.655 170.33,119.301 170.064,118.993 168.167,120.891 168.167,123.54    168.652,123.495 169.094,123.362 169.491,123.186 169.889,122.92 170.197,122.569 170.462,122.215 170.683,121.774    170.814,121.333 170.814,120.891  "/>
	<polygon fill="none" stroke="#212830" stroke-width="0.5" stroke-linecap="square" stroke-miterlimit="10" points="   170.064,118.993 169.668,118.639 169.182,118.418 168.697,118.243 168.167,118.198 167.638,118.243 167.152,118.418    166.711,118.639 166.314,118.993 165.961,119.391 165.74,119.833 165.564,120.362 165.52,120.891 165.564,121.288 165.652,121.686    165.828,122.083 166.049,122.436 166.314,122.745 170.064,118.993  "/>
	<polygon fill="none" stroke="#212830" stroke-width="0.5" stroke-linecap="square" stroke-miterlimit="10" points="   168.167,120.891 166.314,122.745 166.711,123.098 167.152,123.319 167.638,123.495 168.167,123.54 168.167,120.891  "/>
	<polygon fill-rule="evenodd" clip-rule="evenodd" fill="#212830" points="188.774,47.624 189.26,47.712 188.245,47.712  "/>
	<polygon fill-rule="evenodd" clip-rule="evenodd" fill="#212830" points="188.245,47.712 189.789,47.845 187.715,47.845  "/>
	<polygon fill-rule="evenodd" clip-rule="evenodd" fill="#212830" points="188.245,47.712 189.26,47.712 189.789,47.845  "/>
	<polygon fill-rule="evenodd" clip-rule="evenodd" fill="#212830" points="187.715,47.845 190.23,48.109 187.273,48.109  "/>
	<polygon fill-rule="evenodd" clip-rule="evenodd" fill="#212830" points="187.715,47.845 189.789,47.845 190.23,48.109  "/>
	<polygon fill-rule="evenodd" clip-rule="evenodd" fill="#212830" points="190.628,48.418 190.893,48.728 190.318,48.728  "/>
	<polygon fill-rule="evenodd" clip-rule="evenodd" fill="#212830" points="187.273,48.109 190.628,48.418 186.877,48.418  "/>
	<polygon fill-rule="evenodd" clip-rule="evenodd" fill="#212830" points="187.273,48.109 190.23,48.109 190.628,48.418  "/>
	<polygon fill-rule="evenodd" clip-rule="evenodd" fill="#212830" points="186.877,48.418 190.23,48.815 186.523,48.815  "/>
	<polygon fill-rule="evenodd" clip-rule="evenodd" fill="#212830" points="186.877,48.418 190.628,48.418 190.23,48.815  "/>
	<polygon fill-rule="evenodd" clip-rule="evenodd" fill="#212830" points="190.318,48.728 191.113,49.08 189.966,49.08  "/>
	<polygon fill-rule="evenodd" clip-rule="evenodd" fill="#212830" points="190.318,48.728 190.893,48.728 191.113,49.08  "/>
	<polygon fill-rule="evenodd" clip-rule="evenodd" fill="#212830" points="189.966,49.08 191.201,49.301 189.789,49.301  "/>
	<polygon fill-rule="evenodd" clip-rule="evenodd" fill="#212830" points="189.966,49.08 191.113,49.08 191.201,49.301  "/>
	<polygon fill-rule="evenodd" clip-rule="evenodd" fill="#212830" points="186.523,48.815 189.789,49.301 186.303,49.301  "/>
	<polygon fill-rule="evenodd" clip-rule="evenodd" fill="#212830" points="186.523,48.815 190.23,48.815 189.789,49.301  "/>
	<polygon fill-rule="evenodd" clip-rule="evenodd" fill="#212830" points="189.789,49.301 191.289,49.478 189.568,49.478  "/>
	<polygon fill-rule="evenodd" clip-rule="evenodd" fill="#212830" points="189.789,49.301 191.201,49.301 191.289,49.478  "/>
	<polygon fill-rule="evenodd" clip-rule="evenodd" fill="#212830" points="186.303,49.301 189.568,49.478 186.26,49.478  "/>
	<polygon fill-rule="evenodd" clip-rule="evenodd" fill="#212830" points="186.303,49.301 189.789,49.301 189.568,49.478  "/>
	<polygon fill-rule="evenodd" clip-rule="evenodd" fill="#212830" points="189.568,49.478 191.334,49.786 189.26,49.786  "/>
	<polygon fill-rule="evenodd" clip-rule="evenodd" fill="#212830" points="189.568,49.478 191.289,49.478 191.334,49.786  "/>
	<polygon fill-rule="evenodd" clip-rule="evenodd" fill="#212830" points="186.26,49.478 189.26,49.786 186.127,49.786  "/>
	<polygon fill-rule="evenodd" clip-rule="evenodd" fill="#212830" points="186.26,49.478 189.568,49.478 189.26,49.786  "/>
	<polygon fill-rule="evenodd" clip-rule="evenodd" fill="#212830" points="189.26,49.786 191.378,49.875 189.172,49.875  "/>
	<polygon fill-rule="evenodd" clip-rule="evenodd" fill="#212830" points="189.26,49.786 191.334,49.786 191.378,49.875  "/>
	<polygon fill-rule="evenodd" clip-rule="evenodd" fill="#212830" points="186.127,49.786 189.172,49.875 186.127,49.875  "/>
	<polygon fill-rule="evenodd" clip-rule="evenodd" fill="#212830" points="186.127,49.786 189.26,49.786 189.172,49.875  "/>
	<polygon fill-rule="evenodd" clip-rule="evenodd" fill="#212830" points="188.774,50.316 188.774,50.714 188.333,50.714  "/>
	<polygon fill-rule="evenodd" clip-rule="evenodd" fill="#212830" points="189.172,49.875 191.422,50.316 188.774,50.316  "/>
	<polygon fill-rule="evenodd" clip-rule="evenodd" fill="#212830" points="189.172,49.875 191.378,49.875 191.422,50.316  "/>
	<polygon fill-rule="evenodd" clip-rule="evenodd" fill="#212830" points="186.127,49.875 188.774,50.316 186.082,50.316  "/>
	<polygon fill-rule="evenodd" clip-rule="evenodd" fill="#212830" points="186.127,49.875 189.172,49.875 188.774,50.316  "/>
	<polygon fill-rule="evenodd" clip-rule="evenodd" fill="#212830" points="188.774,50.316 191.378,50.714 188.774,50.714  "/>
	<polygon fill-rule="evenodd" clip-rule="evenodd" fill="#212830" points="188.774,50.316 191.422,50.316 191.378,50.714  "/>
	<polygon fill-rule="evenodd" clip-rule="evenodd" fill="#212830" points="186.082,50.316 188.333,50.714 186.127,50.714  "/>
	<polygon fill-rule="evenodd" clip-rule="evenodd" fill="#212830" points="186.082,50.316 188.774,50.316 188.333,50.714  "/>
	<polygon fill-rule="evenodd" clip-rule="evenodd" fill="#212830" points="188.774,50.714 191.378,50.758 188.774,50.758  "/>
	<polygon fill-rule="evenodd" clip-rule="evenodd" fill="#212830" points="188.774,50.714 191.378,50.714 191.378,50.758  "/>
	<polygon fill-rule="evenodd" clip-rule="evenodd" fill="#212830" points="186.127,50.714 187.936,51.11 186.215,51.11  "/>
	<polygon fill-rule="evenodd" clip-rule="evenodd" fill="#212830" points="186.127,50.714 188.333,50.714 187.936,51.11  "/>
	<polygon fill-rule="evenodd" clip-rule="evenodd" fill="#212830" points="188.774,50.758 191.246,51.199 188.774,51.199  "/>
	<polygon fill-rule="evenodd" clip-rule="evenodd" fill="#212830" points="188.774,50.758 191.378,50.758 191.246,51.199  "/>
	<polygon fill-rule="evenodd" clip-rule="evenodd" fill="#212830" points="186.215,51.11 187.539,51.508 186.392,51.508  "/>
	<polygon fill-rule="evenodd" clip-rule="evenodd" fill="#212830" points="186.215,51.11 187.936,51.11 187.539,51.508  "/>
	<polygon fill-rule="evenodd" clip-rule="evenodd" fill="#212830" points="188.774,51.199 191.068,51.641 188.774,51.641  "/>
	<polygon fill-rule="evenodd" clip-rule="evenodd" fill="#212830" points="188.774,51.199 191.246,51.199 191.068,51.641  "/>
	<polygon fill-rule="evenodd" clip-rule="evenodd" fill="#212830" points="186.392,51.508 187.186,51.861 186.612,51.861  "/>
	<polygon fill-rule="evenodd" clip-rule="evenodd" fill="#212830" points="186.392,51.508 187.539,51.508 187.186,51.861  "/>
	<polygon fill-rule="evenodd" clip-rule="evenodd" fill="#212830" points="186.744,51.993 187.054,51.993 186.877,52.17  "/>
	<polygon fill-rule="evenodd" clip-rule="evenodd" fill="#212830" points="188.774,51.641 190.805,51.993 188.774,51.993  "/>
	<polygon fill-rule="evenodd" clip-rule="evenodd" fill="#212830" points="188.774,51.641 191.068,51.641 190.805,51.993  "/>
	<polygon fill-rule="evenodd" clip-rule="evenodd" fill="#212830" points="188.333,50.714 188.774,51.993 187.054,51.993  "/>
	<polygon fill-rule="evenodd" clip-rule="evenodd" fill="#212830" points="188.333,50.714 188.774,50.714 188.774,51.993  "/>
	<polygon fill-rule="evenodd" clip-rule="evenodd" fill="#212830" points="186.612,51.861 187.054,51.993 186.744,51.993  "/>
	<polygon fill-rule="evenodd" clip-rule="evenodd" fill="#212830" points="186.612,51.861 187.186,51.861 187.054,51.993  "/>
	<polygon fill-rule="evenodd" clip-rule="evenodd" fill="#212830" points="187.054,51.993 188.774,52.17 186.877,52.17  "/>
	<polygon fill-rule="evenodd" clip-rule="evenodd" fill="#212830" points="187.054,51.993 188.774,51.993 188.774,52.17  "/>
	<polygon fill-rule="evenodd" clip-rule="evenodd" fill="#212830" points="188.774,51.993 190.451,52.347 188.774,52.347  "/>
	<polygon fill-rule="evenodd" clip-rule="evenodd" fill="#212830" points="188.774,51.993 190.805,51.993 190.451,52.347  "/>
	<polygon fill-rule="evenodd" clip-rule="evenodd" fill="#212830" points="186.877,52.17 188.774,52.523 187.273,52.523  "/>
	<polygon fill-rule="evenodd" clip-rule="evenodd" fill="#212830" points="186.877,52.17 188.774,52.17 188.774,52.523  "/>
	<polygon fill-rule="evenodd" clip-rule="evenodd" fill="#212830" points="188.774,52.347 190.098,52.611 188.774,52.611  "/>
	<polygon fill-rule="evenodd" clip-rule="evenodd" fill="#212830" points="188.774,52.347 190.451,52.347 190.098,52.611  "/>
	<polygon fill-rule="evenodd" clip-rule="evenodd" fill="#212830" points="187.273,52.523 188.774,52.744 187.715,52.744  "/>
	<polygon fill-rule="evenodd" clip-rule="evenodd" fill="#212830" points="187.273,52.523 188.774,52.523 188.774,52.744  "/>
	<polygon fill-rule="evenodd" clip-rule="evenodd" fill="#212830" points="188.774,52.611 189.656,52.788 188.774,52.788  "/>
	<polygon fill-rule="evenodd" clip-rule="evenodd" fill="#212830" points="188.774,52.611 190.098,52.611 189.656,52.788  "/>
	<polygon fill-rule="evenodd" clip-rule="evenodd" fill="#212830" points="187.715,52.744 188.774,52.92 188.245,52.92  "/>
	<polygon fill-rule="evenodd" clip-rule="evenodd" fill="#212830" points="187.715,52.744 188.774,52.744 188.774,52.92  "/>
	<polygon fill-rule="evenodd" clip-rule="evenodd" fill="#212830" points="188.333,52.92 188.774,52.92 188.774,52.965  "/>
	<polygon fill-rule="evenodd" clip-rule="evenodd" fill="#212830" points="188.774,52.92 189.216,52.92 188.774,52.965  "/>
	<polygon fill-rule="evenodd" clip-rule="evenodd" fill="#212830" points="188.774,52.788 189.216,52.92 188.774,52.92  "/>
	<polygon fill-rule="evenodd" clip-rule="evenodd" fill="#212830" points="188.774,52.788 189.656,52.788 189.216,52.92  "/>
	<polygon fill-rule="evenodd" clip-rule="evenodd" fill="#212830" points="188.245,52.92 188.774,52.92 188.333,52.92  "/>
	<polygon fill-rule="evenodd" clip-rule="evenodd" fill="#212830" points="188.245,52.92 188.774,52.92 188.774,52.92  "/>
	<g>
		<path fill="#212830" d="M168.311,131.204l2.623-1.281h0.263v9.105c0,0.605,0.025,0.98,0.075,1.129    c0.051,0.148,0.156,0.264,0.314,0.342c0.159,0.08,0.482,0.125,0.971,0.137v0.293h-4.055v-0.293    c0.508-0.012,0.837-0.055,0.985-0.133c0.147-0.076,0.251-0.18,0.31-0.309c0.059-0.131,0.088-0.52,0.088-1.166v-5.82    c0-0.785-0.027-1.289-0.08-1.512c-0.037-0.17-0.104-0.295-0.202-0.373c-0.099-0.08-0.216-0.119-0.354-0.119    c-0.195,0-0.469,0.082-0.818,0.246L168.311,131.204z"/>
	</g>
	<g>
		<path fill="#212830" d="M131.885,88.901c0.308-0.727,0.696-1.287,1.165-1.684c0.469-0.395,1.053-0.592,1.753-0.592    c0.864,0,1.526,0.281,1.988,0.844c0.35,0.418,0.525,0.867,0.525,1.344c0,0.785-0.493,1.596-1.479,2.434    c0.663,0.26,1.164,0.631,1.502,1.113c0.339,0.482,0.509,1.049,0.509,1.701c0,0.934-0.297,1.742-0.89,2.426    c-0.774,0.891-1.895,1.336-3.363,1.336c-0.726,0-1.22-0.09-1.483-0.27c-0.262-0.182-0.394-0.375-0.394-0.582    c0-0.152,0.063-0.289,0.187-0.404c0.125-0.117,0.274-0.176,0.449-0.176c0.132,0,0.268,0.021,0.406,0.064    c0.09,0.025,0.294,0.123,0.612,0.289c0.318,0.168,0.538,0.268,0.66,0.299c0.196,0.059,0.405,0.088,0.628,0.088    c0.541,0,1.011-0.209,1.411-0.629c0.4-0.418,0.601-0.914,0.601-1.486c0-0.42-0.093-0.828-0.278-1.225    c-0.138-0.297-0.289-0.523-0.453-0.676c-0.228-0.213-0.541-0.404-0.938-0.578c-0.397-0.172-0.803-0.258-1.216-0.258h-0.254v-0.238    c0.418-0.053,0.839-0.205,1.26-0.453c0.421-0.25,0.728-0.549,0.918-0.898c0.191-0.35,0.287-0.734,0.287-1.154    c0-0.545-0.171-0.986-0.513-1.324c-0.342-0.336-0.767-0.504-1.276-0.504c-0.822,0-1.508,0.439-2.059,1.32L131.885,88.901z"/>
	</g>
	<polygon fill="none" stroke="#212830" stroke-width="0.5" stroke-linecap="square" stroke-miterlimit="10" points="191.422,50.316    191.378,49.875 191.289,49.478 191.113,49.08 190.893,48.728 190.628,48.418 188.774,50.316 188.774,52.965 189.216,52.92    189.656,52.788 190.098,52.611 190.451,52.347 190.805,51.993 191.068,51.641 191.246,51.199 191.378,50.758 191.422,50.316  "/>
	<polygon fill="none" stroke="#212830" stroke-width="0.5" stroke-linecap="square" stroke-miterlimit="10" points="190.628,48.418    190.23,48.109 189.789,47.845 189.26,47.712 188.774,47.624 188.245,47.712 187.715,47.845 187.273,48.109 186.877,48.418    186.523,48.815 186.303,49.301 186.127,49.786 186.082,50.316 186.127,50.714 186.215,51.11 186.392,51.508 186.612,51.861    186.877,52.17 190.628,48.418  "/>
	<polygon fill="none" stroke="#212830" stroke-width="0.5" stroke-linecap="square" stroke-miterlimit="10" points="188.774,50.316    186.877,52.17 187.273,52.523 187.715,52.744 188.245,52.92 188.774,52.965 188.774,50.316  "/>
	<polygon fill-rule="evenodd" clip-rule="evenodd" fill="#212830" points="327.288,68.235 327.773,68.28 326.759,68.28  "/>
	<polygon fill-rule="evenodd" clip-rule="evenodd" fill="#212830" points="326.759,68.28 328.303,68.456 326.273,68.456  "/>
	<polygon fill-rule="evenodd" clip-rule="evenodd" fill="#212830" points="326.759,68.28 327.773,68.28 328.303,68.456  "/>
	<polygon fill-rule="evenodd" clip-rule="evenodd" fill="#212830" points="326.273,68.456 328.744,68.677 325.788,68.677  "/>
	<polygon fill-rule="evenodd" clip-rule="evenodd" fill="#212830" points="326.273,68.456 328.303,68.456 328.744,68.677  "/>
	<polygon fill-rule="evenodd" clip-rule="evenodd" fill="#212830" points="329.142,69.03 329.406,69.339 328.832,69.339  "/>
	<polygon fill-rule="evenodd" clip-rule="evenodd" fill="#212830" points="325.788,68.677 329.142,69.03 325.391,69.03  "/>
	<polygon fill-rule="evenodd" clip-rule="evenodd" fill="#212830" points="325.788,68.677 328.744,68.677 329.142,69.03  "/>
	<polygon fill-rule="evenodd" clip-rule="evenodd" fill="#212830" points="325.391,69.03 328.744,69.428 325.082,69.428  "/>
	<polygon fill-rule="evenodd" clip-rule="evenodd" fill="#212830" points="325.391,69.03 329.142,69.03 328.744,69.428  "/>
	<polygon fill-rule="evenodd" clip-rule="evenodd" fill="#212830" points="328.832,69.339 329.627,69.692 328.479,69.692  "/>
	<polygon fill-rule="evenodd" clip-rule="evenodd" fill="#212830" points="328.832,69.339 329.406,69.339 329.627,69.692  "/>
	<polygon fill-rule="evenodd" clip-rule="evenodd" fill="#212830" points="328.479,69.692 329.715,69.869 328.303,69.869  "/>
	<polygon fill-rule="evenodd" clip-rule="evenodd" fill="#212830" points="328.479,69.692 329.627,69.692 329.715,69.869  "/>
	<polygon fill-rule="evenodd" clip-rule="evenodd" fill="#212830" points="325.082,69.428 328.303,69.869 324.817,69.869  "/>
	<polygon fill-rule="evenodd" clip-rule="evenodd" fill="#212830" points="325.082,69.428 328.744,69.428 328.303,69.869  "/>
	<polygon fill-rule="evenodd" clip-rule="evenodd" fill="#212830" points="328.303,69.869 329.804,70.09 328.082,70.09  "/>
	<polygon fill-rule="evenodd" clip-rule="evenodd" fill="#212830" points="328.303,69.869 329.715,69.869 329.804,70.09  "/>
	<polygon fill-rule="evenodd" clip-rule="evenodd" fill="#212830" points="324.817,69.869 328.082,70.09 324.772,70.09  "/>
	<polygon fill-rule="evenodd" clip-rule="evenodd" fill="#212830" points="324.817,69.869 328.303,69.869 328.082,70.09  "/>
	<polygon fill-rule="evenodd" clip-rule="evenodd" fill="#212830" points="328.082,70.09 329.892,70.398 327.773,70.398  "/>
	<polygon fill-rule="evenodd" clip-rule="evenodd" fill="#212830" points="328.082,70.09 329.804,70.09 329.892,70.398  "/>
	<polygon fill-rule="evenodd" clip-rule="evenodd" fill="#212830" points="324.772,70.09 327.773,70.398 324.685,70.398  "/>
	<polygon fill-rule="evenodd" clip-rule="evenodd" fill="#212830" points="324.772,70.09 328.082,70.09 327.773,70.398  "/>
	<polygon fill-rule="evenodd" clip-rule="evenodd" fill="#212830" points="327.773,70.398 329.892,70.486 327.686,70.486  "/>
	<polygon fill-rule="evenodd" clip-rule="evenodd" fill="#212830" points="327.773,70.398 329.892,70.398 329.892,70.486  "/>
	<polygon fill-rule="evenodd" clip-rule="evenodd" fill="#212830" points="324.685,70.398 327.686,70.486 324.641,70.486  "/>
	<polygon fill-rule="evenodd" clip-rule="evenodd" fill="#212830" points="324.685,70.398 327.773,70.398 327.686,70.486  "/>
	<polygon fill-rule="evenodd" clip-rule="evenodd" fill="#212830" points="327.288,70.884 327.288,71.325 326.847,71.325  "/>
	<polygon fill-rule="evenodd" clip-rule="evenodd" fill="#212830" points="327.686,70.486 329.936,70.884 327.288,70.884  "/>
	<polygon fill-rule="evenodd" clip-rule="evenodd" fill="#212830" points="327.686,70.486 329.892,70.486 329.936,70.884  "/>
	<polygon fill-rule="evenodd" clip-rule="evenodd" fill="#212830" points="324.641,70.486 327.288,70.884 324.597,70.884  "/>
	<polygon fill-rule="evenodd" clip-rule="evenodd" fill="#212830" points="324.641,70.486 327.686,70.486 327.288,70.884  "/>
	<polygon fill-rule="evenodd" clip-rule="evenodd" fill="#212830" points="327.288,70.884 329.892,71.325 327.288,71.325  "/>
	<polygon fill-rule="evenodd" clip-rule="evenodd" fill="#212830" points="327.288,70.884 329.936,70.884 329.892,71.325  "/>
	<polygon fill-rule="evenodd" clip-rule="evenodd" fill="#212830" points="324.597,70.884 326.847,71.325 324.641,71.325  "/>
	<polygon fill-rule="evenodd" clip-rule="evenodd" fill="#212830" points="324.597,70.884 327.288,70.884 326.847,71.325  "/>
	<polygon fill-rule="evenodd" clip-rule="evenodd" fill="#212830" points="327.288,71.325 329.892,71.369 327.288,71.369  "/>
	<polygon fill-rule="evenodd" clip-rule="evenodd" fill="#212830" points="327.288,71.325 329.892,71.325 329.892,71.369  "/>
	<polygon fill-rule="evenodd" clip-rule="evenodd" fill="#212830" points="324.641,71.325 326.449,71.723 324.729,71.723  "/>
	<polygon fill-rule="evenodd" clip-rule="evenodd" fill="#212830" points="324.641,71.325 326.847,71.325 326.449,71.723  "/>
	<polygon fill-rule="evenodd" clip-rule="evenodd" fill="#212830" points="327.288,71.369 329.759,71.811 327.288,71.811  "/>
	<polygon fill-rule="evenodd" clip-rule="evenodd" fill="#212830" points="327.288,71.369 329.892,71.369 329.759,71.811  "/>
	<polygon fill-rule="evenodd" clip-rule="evenodd" fill="#212830" points="324.729,71.723 326.053,72.12 324.905,72.12  "/>
	<polygon fill-rule="evenodd" clip-rule="evenodd" fill="#212830" points="324.729,71.723 326.449,71.723 326.053,72.12  "/>
	<polygon fill-rule="evenodd" clip-rule="evenodd" fill="#212830" points="327.288,71.811 329.583,72.252 327.288,72.252  "/>
	<polygon fill-rule="evenodd" clip-rule="evenodd" fill="#212830" points="327.288,71.811 329.759,71.811 329.583,72.252  "/>
	<polygon fill-rule="evenodd" clip-rule="evenodd" fill="#212830" points="324.905,72.12 325.699,72.473 325.126,72.473  "/>
	<polygon fill-rule="evenodd" clip-rule="evenodd" fill="#212830" points="324.905,72.12 326.053,72.12 325.699,72.473  "/>
	<polygon fill-rule="evenodd" clip-rule="evenodd" fill="#212830" points="325.258,72.605 325.567,72.605 325.391,72.782  "/>
	<polygon fill-rule="evenodd" clip-rule="evenodd" fill="#212830" points="327.288,72.252 329.318,72.605 327.288,72.605  "/>
	<polygon fill-rule="evenodd" clip-rule="evenodd" fill="#212830" points="327.288,72.252 329.583,72.252 329.318,72.605  "/>
	<polygon fill-rule="evenodd" clip-rule="evenodd" fill="#212830" points="326.847,71.325 327.288,72.605 325.567,72.605  "/>
	<polygon fill-rule="evenodd" clip-rule="evenodd" fill="#212830" points="326.847,71.325 327.288,71.325 327.288,72.605  "/>
	<polygon fill-rule="evenodd" clip-rule="evenodd" fill="#212830" points="325.126,72.473 325.567,72.605 325.258,72.605  "/>
	<polygon fill-rule="evenodd" clip-rule="evenodd" fill="#212830" points="325.126,72.473 325.699,72.473 325.567,72.605  "/>
	<polygon fill-rule="evenodd" clip-rule="evenodd" fill="#212830" points="325.567,72.605 327.288,72.782 325.391,72.782  "/>
	<polygon fill-rule="evenodd" clip-rule="evenodd" fill="#212830" points="325.567,72.605 327.288,72.605 327.288,72.782  "/>
	<polygon fill-rule="evenodd" clip-rule="evenodd" fill="#212830" points="327.288,72.605 328.965,72.958 327.288,72.958  "/>
	<polygon fill-rule="evenodd" clip-rule="evenodd" fill="#212830" points="327.288,72.605 329.318,72.605 328.965,72.958  "/>
	<polygon fill-rule="evenodd" clip-rule="evenodd" fill="#212830" points="325.391,72.782 327.288,73.135 325.788,73.135  "/>
	<polygon fill-rule="evenodd" clip-rule="evenodd" fill="#212830" points="325.391,72.782 327.288,72.782 327.288,73.135  "/>
	<polygon fill-rule="evenodd" clip-rule="evenodd" fill="#212830" points="327.288,72.958 328.611,73.223 327.288,73.223  "/>
	<polygon fill-rule="evenodd" clip-rule="evenodd" fill="#212830" points="327.288,72.958 328.965,72.958 328.611,73.223  "/>
	<polygon fill-rule="evenodd" clip-rule="evenodd" fill="#212830" points="325.788,73.135 327.288,73.356 326.273,73.356  "/>
	<polygon fill-rule="evenodd" clip-rule="evenodd" fill="#212830" points="325.788,73.135 327.288,73.135 327.288,73.356  "/>
	<polygon fill-rule="evenodd" clip-rule="evenodd" fill="#212830" points="327.288,73.223 328.171,73.399 327.288,73.399  "/>
	<polygon fill-rule="evenodd" clip-rule="evenodd" fill="#212830" points="327.288,73.223 328.611,73.223 328.171,73.399  "/>
	<polygon fill-rule="evenodd" clip-rule="evenodd" fill="#212830" points="326.273,73.356 327.288,73.532 326.759,73.532  "/>
	<polygon fill-rule="evenodd" clip-rule="evenodd" fill="#212830" points="326.273,73.356 327.288,73.356 327.288,73.532  "/>
	<polygon fill-rule="evenodd" clip-rule="evenodd" fill="#212830" points="326.847,73.532 327.288,73.532 327.288,73.577  "/>
	<polygon fill-rule="evenodd" clip-rule="evenodd" fill="#212830" points="327.288,73.532 327.729,73.532 327.288,73.577  "/>
	<polygon fill-rule="evenodd" clip-rule="evenodd" fill="#212830" points="327.288,73.399 327.729,73.532 327.288,73.532  "/>
	<polygon fill-rule="evenodd" clip-rule="evenodd" fill="#212830" points="327.288,73.399 328.171,73.399 327.729,73.532  "/>
	<polygon fill-rule="evenodd" clip-rule="evenodd" fill="#212830" points="326.759,73.532 327.288,73.532 326.847,73.532  "/>
	<polygon fill-rule="evenodd" clip-rule="evenodd" fill="#212830" points="326.759,73.532 327.288,73.532 327.288,73.532  "/>
	<polygon fill="none" stroke="#212830" stroke-width="0.5" stroke-linecap="square" stroke-miterlimit="10" points="329.936,70.884    329.892,70.486 329.804,70.09 329.627,69.692 329.406,69.339 329.142,69.03 327.288,70.884 327.288,73.577 327.729,73.532    328.171,73.399 328.611,73.223 328.965,72.958 329.318,72.605 329.583,72.252 329.759,71.811 329.892,71.369 329.936,70.884  "/>
	<polygon fill="none" stroke="#212830" stroke-width="0.5" stroke-linecap="square" stroke-miterlimit="10" points="329.142,69.03    328.744,68.677 328.303,68.456 327.773,68.28 327.288,68.235 326.759,68.28 326.273,68.456 325.788,68.677 325.391,69.03    325.082,69.428 324.817,69.869 324.685,70.398 324.597,70.884 324.641,71.325 324.729,71.723 324.905,72.12 325.126,72.473    325.391,72.782 329.142,69.03  "/>
	<polygon fill="none" stroke="#212830" stroke-width="0.5" stroke-linecap="square" stroke-miterlimit="10" points="327.288,70.884    325.391,72.782 325.788,73.135 326.273,73.356 326.759,73.532 327.288,73.577 327.288,70.884  "/>
	<g>
		<path fill="#212830" d="M27.934,123.993h5.048v0.199l-5.501,5.727h2.329c0.551,0,0.901-0.021,1.05-0.064    c0.148-0.043,0.285-0.133,0.409-0.27c0.125-0.139,0.264-0.389,0.417-0.748h0.294l-0.692,2.162h-5.176v-0.23l5.502-5.725h-2.29    c-0.482,0-0.774,0.012-0.875,0.039c-0.148,0.031-0.295,0.115-0.441,0.25c-0.146,0.135-0.295,0.359-0.449,0.672h-0.302    L27.934,123.993z"/>
	</g>
	
		<line fill="none" stroke="#212830" stroke-width="0.5" stroke-linecap="square" stroke-miterlimit="10" x1="147.604" y1="41.533" x2="188.774" y2="0.354"/>
	
		<line fill="none" stroke="#212830" stroke-width="0.5" stroke-linecap="square" stroke-miterlimit="10" x1="0.354" y1="41.533" x2="41.523" y2="0.354"/>
	
		<line fill="none" stroke="#212830" stroke-width="0.5" stroke-linecap="square" stroke-miterlimit="10" x1="188.774" y1="100.28" x2="188.774" y2="0.354"/>
	
		<line fill="none" stroke="#212830" stroke-width="0.5" stroke-linecap="square" stroke-miterlimit="10" x1="168.167" y1="70.884" x2="327.288" y2="70.884"/>
	
		<line fill="none" stroke="#212830" stroke-width="0.5" stroke-linecap="square" stroke-miterlimit="10" x1="44.171" y1="103.942" x2="44.171" y2="70.752"/>
	
		<line fill="none" stroke="#212830" stroke-width="0.5" stroke-linecap="square" stroke-miterlimit="10" x1="23.608" y1="124.555" x2="44.171" y2="103.942"/>
	<polygon fill="none" stroke="#212830" stroke-width="0.5" stroke-linecap="square" stroke-miterlimit="10" points="   170.814,120.891 170.771,120.362 170.594,119.833 170.33,119.346 169.932,118.905 169.491,118.596 169.006,118.375    168.432,118.243 167.902,118.243 167.328,118.375 166.844,118.596 166.402,118.905 166.005,119.346 165.74,119.833    165.564,120.362 165.52,120.891 165.564,121.42 165.74,121.95 166.005,122.436 166.402,122.877 166.844,123.186 167.328,123.407    167.902,123.54 168.432,123.54 169.006,123.407 169.491,123.186 169.932,122.877 170.33,122.436 170.594,121.95 170.771,121.42    170.814,120.891  "/>
	<g>
		<path fill="#212830" d="M203.439,47.843v1.13h-1.446v2.847h-1.312v-2.847h-4.564v-1.019l5.002-7.141h0.874v7.029H203.439z     M200.682,47.843v-5.352l-3.785,5.352H200.682z"/>
	</g>
	<polygon fill="none" stroke="#212830" stroke-width="0.5" stroke-linecap="square" stroke-miterlimit="10" points="191.422,50.316    191.378,49.786 191.201,49.257 190.937,48.771 190.539,48.33 190.098,48.021 189.613,47.801 189.039,47.668 188.51,47.668    187.936,47.801 187.451,48.021 187.01,48.33 186.612,48.771 186.348,49.257 186.171,49.786 186.127,50.316 186.171,50.846    186.348,51.376 186.612,51.861 187.01,52.303 187.451,52.611 187.936,52.832 188.51,52.965 189.039,52.965 189.613,52.832    190.098,52.611 190.539,52.303 190.937,51.861 191.201,51.376 191.378,50.846 191.422,50.316  "/>
	<polygon fill="none" stroke="#212830" stroke-width="0.5" stroke-linecap="square" stroke-miterlimit="10" points="329.936,70.884    329.892,70.354 329.715,69.824 329.45,69.339 329.053,68.897 328.611,68.589 328.127,68.368 327.553,68.235 327.023,68.235    326.449,68.368 325.964,68.589 325.523,68.897 325.126,69.339 324.861,69.824 324.685,70.354 324.641,70.884 324.685,71.414    324.861,71.943 325.126,72.429 325.523,72.87 325.964,73.179 326.449,73.399 327.023,73.532 327.553,73.532 328.127,73.399    328.611,73.179 329.053,72.87 329.45,72.429 329.715,71.943 329.892,71.414 329.936,70.884  "/>
	
		<line fill="none" stroke="#212830" stroke-width="0.5" stroke-linecap="square" stroke-miterlimit="10" x1="0.354" y1="41.533" x2="147.604" y2="41.533"/>
	
		<line fill="none" stroke="#212830" stroke-width="0.5" stroke-linecap="square" stroke-miterlimit="10" x1="0.354" y1="41.533" x2="0.354" y2="141.459"/>
	
		<line fill="none" stroke="#212830" stroke-width="0.5" stroke-linecap="square" stroke-miterlimit="10" x1="147.604" y1="141.459" x2="188.774" y2="100.28"/>
	<polygon fill-rule="evenodd" clip-rule="evenodd" fill="#212830" points="71.574,102.795 71.574,105.09 78.458,103.942  "/>
	<polygon fill="none" stroke="#212830" stroke-width="0.5" stroke-linecap="square" stroke-miterlimit="10" points="71.574,102.795    71.574,105.09 78.458,103.942 71.574,102.795  "/>
	<polygon fill="none" stroke="#212830" stroke-width="0.5" stroke-linecap="square" stroke-miterlimit="10" points="170.814,20.921    170.771,20.392 170.594,19.862 170.33,19.376 169.932,18.935 169.491,18.626 169.006,18.405 168.432,18.273 167.902,18.273    167.328,18.405 166.844,18.626 166.402,18.935 166.005,19.376 165.74,19.862 165.564,20.392 165.52,20.921 165.564,21.451    165.74,21.98 166.005,22.466 166.402,22.907 166.844,23.216 167.328,23.437 167.902,23.569 168.432,23.569 169.006,23.437    169.491,23.216 169.932,22.907 170.33,22.466 170.594,21.98 170.771,21.451 170.814,20.921  "/>
	<polygon fill-rule="evenodd" clip-rule="evenodd" fill="#212830" points="168.167,68.235 168.697,68.28 167.638,68.28  "/>
	<polygon fill-rule="evenodd" clip-rule="evenodd" fill="#212830" points="167.638,68.28 169.182,68.456 167.152,68.456  "/>
	<polygon fill-rule="evenodd" clip-rule="evenodd" fill="#212830" points="167.638,68.28 168.697,68.28 169.182,68.456  "/>
	<polygon fill-rule="evenodd" clip-rule="evenodd" fill="#212830" points="167.152,68.456 169.668,68.677 166.711,68.677  "/>
	<polygon fill-rule="evenodd" clip-rule="evenodd" fill="#212830" points="167.152,68.456 169.182,68.456 169.668,68.677  "/>
	<polygon fill-rule="evenodd" clip-rule="evenodd" fill="#212830" points="170.064,69.03 170.33,69.339 169.756,69.339  "/>
	<polygon fill-rule="evenodd" clip-rule="evenodd" fill="#212830" points="166.711,68.677 170.064,69.03 166.314,69.03  "/>
	<polygon fill-rule="evenodd" clip-rule="evenodd" fill="#212830" points="166.711,68.677 169.668,68.677 170.064,69.03  "/>
	<polygon fill-rule="evenodd" clip-rule="evenodd" fill="#212830" points="166.314,69.03 169.668,69.428 165.961,69.428  "/>
	<polygon fill-rule="evenodd" clip-rule="evenodd" fill="#212830" points="166.314,69.03 170.064,69.03 169.668,69.428  "/>
	<polygon fill-rule="evenodd" clip-rule="evenodd" fill="#212830" points="169.756,69.339 170.55,69.692 169.402,69.692  "/>
	<polygon fill-rule="evenodd" clip-rule="evenodd" fill="#212830" points="169.756,69.339 170.33,69.339 170.55,69.692  "/>
	<polygon fill-rule="evenodd" clip-rule="evenodd" fill="#212830" points="169.402,69.692 170.639,69.869 169.182,69.869  "/>
	<polygon fill-rule="evenodd" clip-rule="evenodd" fill="#212830" points="169.402,69.692 170.55,69.692 170.639,69.869  "/>
	<polygon fill-rule="evenodd" clip-rule="evenodd" fill="#212830" points="165.961,69.428 169.182,69.869 165.74,69.869  "/>
	<polygon fill-rule="evenodd" clip-rule="evenodd" fill="#212830" points="165.961,69.428 169.668,69.428 169.182,69.869  "/>
	<polygon fill-rule="evenodd" clip-rule="evenodd" fill="#212830" points="169.182,69.869 170.727,70.09 169.006,70.09  "/>
	<polygon fill-rule="evenodd" clip-rule="evenodd" fill="#212830" points="169.182,69.869 170.639,69.869 170.727,70.09  "/>
	<polygon fill-rule="evenodd" clip-rule="evenodd" fill="#212830" points="165.74,69.869 169.006,70.09 165.652,70.09  "/>
	<polygon fill-rule="evenodd" clip-rule="evenodd" fill="#212830" points="165.74,69.869 169.182,69.869 169.006,70.09  "/>
	<polygon fill-rule="evenodd" clip-rule="evenodd" fill="#212830" points="169.006,70.09 170.771,70.398 168.697,70.398  "/>
	<polygon fill-rule="evenodd" clip-rule="evenodd" fill="#212830" points="169.006,70.09 170.727,70.09 170.771,70.398  "/>
	<polygon fill-rule="evenodd" clip-rule="evenodd" fill="#212830" points="165.652,70.09 168.697,70.398 165.564,70.398  "/>
	<polygon fill-rule="evenodd" clip-rule="evenodd" fill="#212830" points="165.652,70.09 169.006,70.09 168.697,70.398  "/>
	<polygon fill-rule="evenodd" clip-rule="evenodd" fill="#212830" points="168.697,70.398 170.814,70.486 168.608,70.486  "/>
	<polygon fill-rule="evenodd" clip-rule="evenodd" fill="#212830" points="168.697,70.398 170.771,70.398 170.814,70.486  "/>
	<polygon fill-rule="evenodd" clip-rule="evenodd" fill="#212830" points="165.564,70.398 168.608,70.486 165.564,70.486  "/>
	<polygon fill-rule="evenodd" clip-rule="evenodd" fill="#212830" points="165.564,70.398 168.697,70.398 168.608,70.486  "/>
	<polygon fill-rule="evenodd" clip-rule="evenodd" fill="#212830" points="168.167,70.884 168.167,71.325 167.77,71.325  "/>
	<polygon fill-rule="evenodd" clip-rule="evenodd" fill="#212830" points="168.608,70.486 170.814,70.884 168.167,70.884  "/>
	<polygon fill-rule="evenodd" clip-rule="evenodd" fill="#212830" points="168.608,70.486 170.814,70.486 170.814,70.884  "/>
	<polygon fill-rule="evenodd" clip-rule="evenodd" fill="#212830" points="165.564,70.486 168.167,70.884 165.52,70.884  "/>
	<polygon fill-rule="evenodd" clip-rule="evenodd" fill="#212830" points="165.564,70.486 168.608,70.486 168.167,70.884  "/>
	<polygon fill-rule="evenodd" clip-rule="evenodd" fill="#212830" points="168.167,70.884 170.814,71.325 168.167,71.325  "/>
	<polygon fill-rule="evenodd" clip-rule="evenodd" fill="#212830" points="168.167,70.884 170.814,70.884 170.814,71.325  "/>
	<polygon fill-rule="evenodd" clip-rule="evenodd" fill="#212830" points="165.52,70.884 167.77,71.325 165.564,71.325  "/>
	<polygon fill-rule="evenodd" clip-rule="evenodd" fill="#212830" points="165.52,70.884 168.167,70.884 167.77,71.325  "/>
	<polygon fill-rule="evenodd" clip-rule="evenodd" fill="#212830" points="168.167,71.325 170.814,71.369 168.167,71.369  "/>
	<polygon fill-rule="evenodd" clip-rule="evenodd" fill="#212830" points="168.167,71.325 170.814,71.325 170.814,71.369  "/>
	<polygon fill-rule="evenodd" clip-rule="evenodd" fill="#212830" points="165.564,71.325 167.373,71.723 165.652,71.723  "/>
	<polygon fill-rule="evenodd" clip-rule="evenodd" fill="#212830" points="165.564,71.325 167.77,71.325 167.373,71.723  "/>
	<polygon fill-rule="evenodd" clip-rule="evenodd" fill="#212830" points="168.167,71.369 170.683,71.811 168.167,71.811  "/>
	<polygon fill-rule="evenodd" clip-rule="evenodd" fill="#212830" points="168.167,71.369 170.814,71.369 170.683,71.811  "/>
	<polygon fill-rule="evenodd" clip-rule="evenodd" fill="#212830" points="165.652,71.723 166.976,72.12 165.828,72.12  "/>
	<polygon fill-rule="evenodd" clip-rule="evenodd" fill="#212830" points="165.652,71.723 167.373,71.723 166.976,72.12  "/>
	<polygon fill-rule="evenodd" clip-rule="evenodd" fill="#212830" points="168.167,71.811 170.462,72.252 168.167,72.252  "/>
	<polygon fill-rule="evenodd" clip-rule="evenodd" fill="#212830" points="168.167,71.811 170.683,71.811 170.462,72.252  "/>
	<polygon fill-rule="evenodd" clip-rule="evenodd" fill="#212830" points="165.828,72.12 166.623,72.473 166.049,72.473  "/>
	<polygon fill-rule="evenodd" clip-rule="evenodd" fill="#212830" points="165.828,72.12 166.976,72.12 166.623,72.473  "/>
	<polygon fill-rule="evenodd" clip-rule="evenodd" fill="#212830" points="166.137,72.605 166.49,72.605 166.314,72.782  "/>
	<polygon fill-rule="evenodd" clip-rule="evenodd" fill="#212830" points="168.167,72.252 170.197,72.605 168.167,72.605  "/>
	<polygon fill-rule="evenodd" clip-rule="evenodd" fill="#212830" points="168.167,72.252 170.462,72.252 170.197,72.605  "/>
	<polygon fill-rule="evenodd" clip-rule="evenodd" fill="#212830" points="167.77,71.325 168.167,72.605 166.49,72.605  "/>
	<polygon fill-rule="evenodd" clip-rule="evenodd" fill="#212830" points="167.77,71.325 168.167,71.325 168.167,72.605  "/>
	<polygon fill-rule="evenodd" clip-rule="evenodd" fill="#212830" points="166.049,72.473 166.49,72.605 166.137,72.605  "/>
	<polygon fill-rule="evenodd" clip-rule="evenodd" fill="#212830" points="166.049,72.473 166.623,72.473 166.49,72.605  "/>
	<polygon fill-rule="evenodd" clip-rule="evenodd" fill="#212830" points="166.49,72.605 168.167,72.782 166.314,72.782  "/>
	<polygon fill-rule="evenodd" clip-rule="evenodd" fill="#212830" points="166.49,72.605 168.167,72.605 168.167,72.782  "/>
	<polygon fill-rule="evenodd" clip-rule="evenodd" fill="#212830" points="168.167,72.605 169.889,72.958 168.167,72.958  "/>
	<polygon fill-rule="evenodd" clip-rule="evenodd" fill="#212830" points="168.167,72.605 170.197,72.605 169.889,72.958  "/>
	<polygon fill-rule="evenodd" clip-rule="evenodd" fill="#212830" points="166.314,72.782 168.167,73.135 166.711,73.135  "/>
	<polygon fill-rule="evenodd" clip-rule="evenodd" fill="#212830" points="166.314,72.782 168.167,72.782 168.167,73.135  "/>
	<polygon fill-rule="evenodd" clip-rule="evenodd" fill="#212830" points="168.167,72.958 169.491,73.223 168.167,73.223  "/>
	<polygon fill-rule="evenodd" clip-rule="evenodd" fill="#212830" points="168.167,72.958 169.889,72.958 169.491,73.223  "/>
	<polygon fill-rule="evenodd" clip-rule="evenodd" fill="#212830" points="166.711,73.135 168.167,73.356 167.152,73.356  "/>
	<polygon fill-rule="evenodd" clip-rule="evenodd" fill="#212830" points="166.711,73.135 168.167,73.135 168.167,73.356  "/>
	<polygon fill-rule="evenodd" clip-rule="evenodd" fill="#212830" points="168.167,73.223 169.094,73.399 168.167,73.399  "/>
	<polygon fill-rule="evenodd" clip-rule="evenodd" fill="#212830" points="168.167,73.223 169.491,73.223 169.094,73.399  "/>
	<polygon fill-rule="evenodd" clip-rule="evenodd" fill="#212830" points="167.152,73.356 168.167,73.532 167.638,73.532  "/>
	<polygon fill-rule="evenodd" clip-rule="evenodd" fill="#212830" points="167.152,73.356 168.167,73.356 168.167,73.532  "/>
	<polygon fill-rule="evenodd" clip-rule="evenodd" fill="#212830" points="167.77,73.532 168.167,73.532 168.167,73.577  "/>
	<polygon fill-rule="evenodd" clip-rule="evenodd" fill="#212830" points="168.167,73.532 168.652,73.532 168.167,73.577  "/>
	<polygon fill-rule="evenodd" clip-rule="evenodd" fill="#212830" points="168.167,73.399 168.652,73.532 168.167,73.532  "/>
	<polygon fill-rule="evenodd" clip-rule="evenodd" fill="#212830" points="168.167,73.399 169.094,73.399 168.652,73.532  "/>
	<polygon fill-rule="evenodd" clip-rule="evenodd" fill="#212830" points="167.638,73.532 168.167,73.532 167.77,73.532  "/>
	<polygon fill-rule="evenodd" clip-rule="evenodd" fill="#212830" points="167.638,73.532 168.167,73.532 168.167,73.532  "/>
	<polygon fill="none" stroke="#212830" stroke-width="0.5" stroke-linecap="square" stroke-miterlimit="10" points="170.814,70.884    170.814,70.486 170.727,70.09 170.55,69.692 170.33,69.339 170.064,69.03 168.167,70.884 168.167,73.577 168.652,73.532    169.094,73.399 169.491,73.223 169.889,72.958 170.197,72.605 170.462,72.252 170.683,71.811 170.814,71.369 170.814,70.884  "/>
	<polygon fill="none" stroke="#212830" stroke-width="0.5" stroke-linecap="square" stroke-miterlimit="10" points="170.064,69.03    169.668,68.677 169.182,68.456 168.697,68.28 168.167,68.235 167.638,68.28 167.152,68.456 166.711,68.677 166.314,69.03    165.961,69.428 165.74,69.869 165.564,70.398 165.52,70.884 165.564,71.325 165.652,71.723 165.828,72.12 166.049,72.473    166.314,72.782 170.064,69.03  "/>
	<polygon fill="none" stroke="#212830" stroke-width="0.5" stroke-linecap="square" stroke-miterlimit="10" points="168.167,70.884    166.314,72.782 166.711,73.135 167.152,73.356 167.638,73.532 168.167,73.577 168.167,70.884  "/>
	<polygon fill-rule="evenodd" clip-rule="evenodd" fill="#212830" points="147.604,88.848 148.134,88.891 147.075,88.891  "/>
	<polygon fill-rule="evenodd" clip-rule="evenodd" fill="#212830" points="147.075,88.891 148.619,89.024 146.589,89.024  "/>
	<polygon fill-rule="evenodd" clip-rule="evenodd" fill="#212830" points="147.075,88.891 148.134,88.891 148.619,89.024  "/>
	<polygon fill-rule="evenodd" clip-rule="evenodd" fill="#212830" points="146.589,89.024 149.061,89.29 146.104,89.29  "/>
	<polygon fill-rule="evenodd" clip-rule="evenodd" fill="#212830" points="146.589,89.024 148.619,89.024 149.061,89.29  "/>
	<polygon fill-rule="evenodd" clip-rule="evenodd" fill="#212830" points="149.501,89.598 149.767,89.952 149.148,89.952  "/>
	<polygon fill-rule="evenodd" clip-rule="evenodd" fill="#212830" points="146.104,89.29 149.501,89.598 145.707,89.598  "/>
	<polygon fill-rule="evenodd" clip-rule="evenodd" fill="#212830" points="146.104,89.29 149.061,89.29 149.501,89.598  "/>
	<polygon fill-rule="evenodd" clip-rule="evenodd" fill="#212830" points="145.707,89.598 149.061,90.04 145.398,90.04  "/>
	<polygon fill-rule="evenodd" clip-rule="evenodd" fill="#212830" points="145.707,89.598 149.501,89.598 149.061,90.04  "/>
	<polygon fill-rule="evenodd" clip-rule="evenodd" fill="#212830" points="149.148,89.952 149.987,90.303 148.795,90.303  "/>
	<polygon fill-rule="evenodd" clip-rule="evenodd" fill="#212830" points="149.148,89.952 149.767,89.952 149.987,90.303  "/>
	<polygon fill-rule="evenodd" clip-rule="evenodd" fill="#212830" points="148.795,90.303 150.031,90.481 148.619,90.481  "/>
	<polygon fill-rule="evenodd" clip-rule="evenodd" fill="#212830" points="148.795,90.303 149.987,90.303 150.031,90.481  "/>
	<polygon fill-rule="evenodd" clip-rule="evenodd" fill="#212830" points="145.398,90.04 148.619,90.481 145.133,90.481  "/>
	<polygon fill-rule="evenodd" clip-rule="evenodd" fill="#212830" points="145.398,90.04 149.061,90.04 148.619,90.481  "/>
	<polygon fill-rule="evenodd" clip-rule="evenodd" fill="#212830" points="148.619,90.481 150.119,90.657 148.442,90.657  "/>
	<polygon fill-rule="evenodd" clip-rule="evenodd" fill="#212830" points="148.619,90.481 150.031,90.481 150.119,90.657  "/>
	<polygon fill-rule="evenodd" clip-rule="evenodd" fill="#212830" points="145.133,90.481 148.442,90.657 145.089,90.657  "/>
	<polygon fill-rule="evenodd" clip-rule="evenodd" fill="#212830" points="145.133,90.481 148.619,90.481 148.442,90.657  "/>
	<polygon fill-rule="evenodd" clip-rule="evenodd" fill="#212830" points="148.442,90.657 150.208,90.965 148.134,90.965  "/>
	<polygon fill-rule="evenodd" clip-rule="evenodd" fill="#212830" points="148.442,90.657 150.119,90.657 150.208,90.965  "/>
	<polygon fill-rule="evenodd" clip-rule="evenodd" fill="#212830" points="145.089,90.657 148.134,90.965 145.001,90.965  "/>
	<polygon fill-rule="evenodd" clip-rule="evenodd" fill="#212830" points="145.089,90.657 148.442,90.657 148.134,90.965  "/>
	<polygon fill-rule="evenodd" clip-rule="evenodd" fill="#212830" points="148.134,90.965 150.208,91.098 148.001,91.098  "/>
	<polygon fill-rule="evenodd" clip-rule="evenodd" fill="#212830" points="148.134,90.965 150.208,90.965 150.208,91.098  "/>
	<polygon fill-rule="evenodd" clip-rule="evenodd" fill="#212830" points="145.001,90.965 148.001,91.098 145.001,91.098  "/>
	<polygon fill-rule="evenodd" clip-rule="evenodd" fill="#212830" points="145.001,90.965 148.134,90.965 148.001,91.098  "/>
	<polygon fill-rule="evenodd" clip-rule="evenodd" fill="#212830" points="147.604,91.497 147.604,91.893 147.207,91.893  "/>
	<polygon fill-rule="evenodd" clip-rule="evenodd" fill="#212830" points="148.001,91.098 150.252,91.497 147.604,91.497  "/>
	<polygon fill-rule="evenodd" clip-rule="evenodd" fill="#212830" points="148.001,91.098 150.208,91.098 150.252,91.497  "/>
	<polygon fill-rule="evenodd" clip-rule="evenodd" fill="#212830" points="145.001,91.098 147.604,91.497 144.957,91.497  "/>
	<polygon fill-rule="evenodd" clip-rule="evenodd" fill="#212830" points="145.001,91.098 148.001,91.098 147.604,91.497  "/>
	<polygon fill-rule="evenodd" clip-rule="evenodd" fill="#212830" points="147.604,91.497 150.208,91.893 147.604,91.893  "/>
	<polygon fill-rule="evenodd" clip-rule="evenodd" fill="#212830" points="147.604,91.497 150.252,91.497 150.208,91.893  "/>
	<polygon fill-rule="evenodd" clip-rule="evenodd" fill="#212830" points="144.957,91.497 147.207,91.893 144.957,91.893  "/>
	<polygon fill-rule="evenodd" clip-rule="evenodd" fill="#212830" points="144.957,91.497 147.604,91.497 147.207,91.893  "/>
	<polygon fill-rule="evenodd" clip-rule="evenodd" fill="#212830" points="147.604,91.893 150.208,92.026 147.604,92.026  "/>
	<polygon fill-rule="evenodd" clip-rule="evenodd" fill="#212830" points="147.604,91.893 150.208,91.893 150.208,92.026  "/>
	<polygon fill-rule="evenodd" clip-rule="evenodd" fill="#212830" points="144.957,91.893 146.766,92.334 145.089,92.334  "/>
	<polygon fill-rule="evenodd" clip-rule="evenodd" fill="#212830" points="144.957,91.893 147.207,91.893 146.766,92.334  "/>
	<polygon fill-rule="evenodd" clip-rule="evenodd" fill="#212830" points="147.604,92.026 150.075,92.51 147.604,92.51  "/>
	<polygon fill-rule="evenodd" clip-rule="evenodd" fill="#212830" points="147.604,92.026 150.208,92.026 150.075,92.51  "/>
	<polygon fill-rule="evenodd" clip-rule="evenodd" fill="#212830" points="145.089,92.334 146.413,92.688 145.221,92.688  "/>
	<polygon fill-rule="evenodd" clip-rule="evenodd" fill="#212830" points="145.089,92.334 146.766,92.334 146.413,92.688  "/>
	<polygon fill-rule="evenodd" clip-rule="evenodd" fill="#212830" points="147.604,92.51 149.811,92.997 147.604,92.997  "/>
	<polygon fill-rule="evenodd" clip-rule="evenodd" fill="#212830" points="147.604,92.51 150.075,92.51 149.811,92.997  "/>
	<polygon fill-rule="evenodd" clip-rule="evenodd" fill="#212830" points="145.442,93.042 146.06,93.042 145.707,93.393  "/>
	<polygon fill-rule="evenodd" clip-rule="evenodd" fill="#212830" points="147.207,91.893 147.604,93.042 146.06,93.042  "/>
	<polygon fill-rule="evenodd" clip-rule="evenodd" fill="#212830" points="147.207,91.893 147.604,91.893 147.604,93.042  "/>
	<polygon fill-rule="evenodd" clip-rule="evenodd" fill="#212830" points="145.221,92.688 146.06,93.042 145.442,93.042  "/>
	<polygon fill-rule="evenodd" clip-rule="evenodd" fill="#212830" points="145.221,92.688 146.413,92.688 146.06,93.042  "/>
	<polygon fill-rule="evenodd" clip-rule="evenodd" fill="#212830" points="147.604,92.997 149.501,93.393 147.604,93.393  "/>
	<polygon fill-rule="evenodd" clip-rule="evenodd" fill="#212830" points="147.604,92.997 149.811,92.997 149.501,93.393  "/>
	<polygon fill-rule="evenodd" clip-rule="evenodd" fill="#212830" points="146.06,93.042 147.604,93.393 145.707,93.393  "/>
	<polygon fill-rule="evenodd" clip-rule="evenodd" fill="#212830" points="146.06,93.042 147.604,93.042 147.604,93.393  "/>
	<polygon fill-rule="evenodd" clip-rule="evenodd" fill="#212830" points="147.604,93.393 149.061,93.704 147.604,93.704  "/>
	<polygon fill-rule="evenodd" clip-rule="evenodd" fill="#212830" points="147.604,93.393 149.501,93.393 149.061,93.704  "/>
	<polygon fill-rule="evenodd" clip-rule="evenodd" fill="#212830" points="145.707,93.393 147.604,93.704 146.104,93.704  "/>
	<polygon fill-rule="evenodd" clip-rule="evenodd" fill="#212830" points="145.707,93.393 147.604,93.393 147.604,93.704  "/>
	<polygon fill-rule="evenodd" clip-rule="evenodd" fill="#212830" points="147.604,93.704 148.619,93.967 147.604,93.967  "/>
	<polygon fill-rule="evenodd" clip-rule="evenodd" fill="#212830" points="147.604,93.704 149.061,93.704 148.619,93.967  "/>
	<polygon fill-rule="evenodd" clip-rule="evenodd" fill="#212830" points="146.104,93.704 147.604,93.967 146.589,93.967  "/>
	<polygon fill-rule="evenodd" clip-rule="evenodd" fill="#212830" points="146.104,93.704 147.604,93.704 147.604,93.967  "/>
	<polygon fill-rule="evenodd" clip-rule="evenodd" fill="#212830" points="147.075,94.1 147.604,94.1 147.604,94.143  "/>
	<polygon fill-rule="evenodd" clip-rule="evenodd" fill="#212830" points="147.604,94.1 148.134,94.1 147.604,94.143  "/>
	<polygon fill-rule="evenodd" clip-rule="evenodd" fill="#212830" points="147.604,93.967 148.134,94.1 147.604,94.1  "/>
	<polygon fill-rule="evenodd" clip-rule="evenodd" fill="#212830" points="147.604,93.967 148.619,93.967 148.134,94.1  "/>
	<polygon fill-rule="evenodd" clip-rule="evenodd" fill="#212830" points="146.589,93.967 147.604,94.1 147.075,94.1  "/>
	<polygon fill-rule="evenodd" clip-rule="evenodd" fill="#212830" points="146.589,93.967 147.604,93.967 147.604,94.1  "/>
	<g>
		<path fill="#212830" d="M181.135,77.051l-0.621,1.352h-3.243l-0.708,1.447c1.404,0.207,2.518,0.73,3.34,1.566    c0.705,0.723,1.057,1.57,1.057,2.545c0,0.568-0.115,1.094-0.346,1.576s-0.521,0.893-0.87,1.232    c-0.351,0.338-0.739,0.611-1.169,0.818c-0.609,0.291-1.234,0.438-1.876,0.438c-0.647,0-1.117-0.109-1.411-0.33    c-0.295-0.221-0.441-0.463-0.441-0.729c0-0.148,0.061-0.279,0.183-0.393s0.276-0.172,0.462-0.172c0.137,0,0.258,0.021,0.361,0.064    s0.279,0.15,0.528,0.326c0.397,0.275,0.8,0.414,1.208,0.414c0.621,0,1.166-0.236,1.635-0.705s0.703-1.039,0.703-1.713    c0-0.652-0.209-1.262-0.628-1.826s-0.997-1-1.733-1.307c-0.578-0.24-1.365-0.377-2.361-0.414l2.067-4.191H181.135z"/>
	</g>
	<polygon fill="none" stroke="#212830" stroke-width="0.5" stroke-linecap="square" stroke-miterlimit="10" points="150.252,91.497    150.208,91.098 150.119,90.657 149.987,90.303 149.767,89.952 149.501,89.598 147.604,91.497 147.604,94.143 148.134,94.1    148.619,93.967 149.061,93.704 149.501,93.393 149.811,92.997 150.075,92.51 150.208,92.026 150.252,91.497  "/>
	<polygon fill="none" stroke="#212830" stroke-width="0.5" stroke-linecap="square" stroke-miterlimit="10" points="149.501,89.598    149.061,89.29 148.619,89.024 148.134,88.891 147.604,88.848 147.075,88.891 146.589,89.024 146.104,89.29 145.707,89.598    145.398,90.04 145.133,90.481 145.001,90.965 144.957,91.497 144.957,91.893 145.089,92.334 145.221,92.688 145.442,93.042    145.707,93.393 149.501,89.598  "/>
	<polygon fill="none" stroke="#212830" stroke-width="0.5" stroke-linecap="square" stroke-miterlimit="10" points="147.604,91.497    145.707,93.393 146.104,93.704 146.589,93.967 147.075,94.1 147.604,94.143 147.604,91.497  "/>
</g>
</svg>
