<?xml version="1.0" encoding="utf-8"?>
<!-- Generator: Adobe Illustrator 16.0.0, SVG Export Plug-In . SVG Version: 6.00 Build 0)  -->
<!DOCTYPE svg PUBLIC "-//W3C//DTD SVG 1.1//EN" "http://www.w3.org/Graphics/SVG/1.1/DTD/svg11.dtd">
<svg xmlns="http://www.w3.org/2000/svg" xmlns:xlink="http://www.w3.org/1999/xlink" version="1.1" id="图层_1" x="0px" y="0px" width="552.156px" height="178.675px" viewBox="0 0 552.156 178.675" xml:space="preserve">
<g>
	
		<line fill="none" stroke="#212830" stroke-width="0.5" stroke-linecap="square" stroke-miterlimit="10" x1="454.813" y1="148.177" x2="454.813" y2="178.675"/>
	
		<line fill="none" stroke="#212830" stroke-width="0.5" stroke-linecap="square" stroke-miterlimit="10" x1="494.528" y1="148.177" x2="494.528" y2="178.675"/>
	
		<line fill="none" stroke="#212830" stroke-width="0.5" stroke-linecap="square" stroke-miterlimit="10" x1="459.889" y1="168.523" x2="489.496" y2="168.523"/>
	<polygon fill="#212830" points="459.889,167.685 459.889,169.362 454.813,168.523  "/>
	<polygon fill="none" stroke="#212830" stroke-width="0.5" stroke-linecap="square" stroke-miterlimit="10" points="   459.889,167.685 459.889,169.362 454.813,168.523  "/>
	<polygon fill="#212830" points="489.496,167.685 489.496,169.362 494.528,168.523  "/>
	<g>
		<path fill="#212830" d="M459.565,150.824l3.619-1.766h0.362v12.561c0,0.833,0.034,1.353,0.104,1.557    c0.069,0.205,0.214,0.362,0.433,0.473c0.22,0.109,0.666,0.172,1.338,0.186v0.406h-5.593v-0.406    c0.702-0.014,1.155-0.074,1.359-0.181c0.205-0.106,0.348-0.249,0.428-0.428c0.081-0.179,0.121-0.715,0.121-1.606v-8.03    c0-1.082-0.037-1.777-0.109-2.085c-0.052-0.233-0.145-0.405-0.28-0.515c-0.135-0.11-0.298-0.165-0.487-0.165    c-0.271,0-0.647,0.113-1.13,0.34L459.565,150.824z"/>
		<path fill="#212830" d="M468.975,156.89c0-1.696,0.256-3.157,0.768-4.383c0.512-1.225,1.191-2.137,2.04-2.736    c0.658-0.476,1.338-0.713,2.04-0.713c1.141,0,2.164,0.581,3.071,1.744c1.133,1.44,1.699,3.393,1.699,5.857    c0,1.727-0.248,3.192-0.745,4.398c-0.498,1.207-1.132,2.083-1.903,2.627c-0.771,0.545-1.516,0.818-2.231,0.818    c-1.419,0-2.6-0.838-3.543-2.512C469.373,160.58,468.975,158.879,468.975,156.89z M471.124,157.165    c0,2.048,0.253,3.719,0.757,5.013c0.417,1.09,1.038,1.635,1.864,1.635c0.396,0,0.805-0.178,1.229-0.532s0.746-0.948,0.965-1.782    c0.337-1.258,0.505-3.031,0.505-5.32c0-1.697-0.176-3.111-0.526-4.245c-0.264-0.841-0.604-1.437-1.02-1.788    c-0.301-0.242-0.662-0.362-1.086-0.362c-0.498,0-0.939,0.224-1.327,0.669c-0.526,0.607-0.885,1.563-1.075,2.863    C471.219,154.616,471.124,155.9,471.124,157.165z"/>
		<path fill="#212830" d="M480.205,156.89c0-1.696,0.256-3.157,0.768-4.383c0.512-1.225,1.191-2.137,2.04-2.736    c0.658-0.476,1.338-0.713,2.04-0.713c1.141,0,2.164,0.581,3.071,1.744c1.133,1.44,1.699,3.393,1.699,5.857    c0,1.727-0.248,3.192-0.745,4.398c-0.498,1.207-1.132,2.083-1.903,2.627c-0.771,0.545-1.516,0.818-2.231,0.818    c-1.419,0-2.6-0.838-3.543-2.512C480.604,160.58,480.205,158.879,480.205,156.89z M482.355,157.165    c0,2.048,0.253,3.719,0.757,5.013c0.417,1.09,1.038,1.635,1.864,1.635c0.396,0,0.805-0.178,1.229-0.532s0.746-0.948,0.965-1.782    c0.337-1.258,0.505-3.031,0.505-5.32c0-1.697-0.176-3.111-0.526-4.245c-0.264-0.841-0.604-1.437-1.02-1.788    c-0.301-0.242-0.662-0.362-1.086-0.362c-0.498,0-0.939,0.224-1.327,0.669c-0.526,0.607-0.885,1.563-1.075,2.863    C482.449,154.616,482.355,155.9,482.355,157.165z"/>
	</g>
	
		<line fill="none" stroke="#212830" stroke-width="0.5" stroke-linecap="square" stroke-miterlimit="10" x1="454.813" y1="127.875" x2="454.813" y2="127.875"/>
	
		<line fill="none" stroke="#212830" stroke-width="0.5" stroke-linecap="square" stroke-miterlimit="10" x1="494.528" y1="127.875" x2="494.528" y2="127.875"/>
	
		<line fill="none" stroke="#212830" stroke-width="0.5" stroke-linecap="square" stroke-miterlimit="10" x1="494.528" y1="168.523" x2="494.528" y2="168.523"/>
	<polygon fill="none" stroke="#212830" stroke-width="0.5" stroke-linecap="square" stroke-miterlimit="10" points="   489.496,167.685 489.496,169.362 494.528,168.523  "/>
	
		<line fill="none" stroke="#212830" stroke-width="0.5" stroke-linecap="square" stroke-miterlimit="10" x1="15.489" y1="56.857" x2="13.15" y2="56.857"/>
	
		<line fill="none" stroke="#212830" stroke-width="0.5" stroke-linecap="square" stroke-miterlimit="10" x1="215.647" y1="65.553" x2="215.647" y2="34.039"/>
	
		<line fill="none" stroke="#212830" stroke-width="0.5" stroke-linecap="square" stroke-miterlimit="10" x1="314.535" y1="56.857" x2="316.918" y2="56.857"/>
	
		<line fill="none" stroke="#212830" stroke-width="0.5" stroke-linecap="square" stroke-miterlimit="10" x1="428.426" y1="56.857" x2="426.043" y2="56.857"/>
	
		<line fill="none" stroke="#212830" stroke-width="0.5" stroke-linecap="square" stroke-miterlimit="10" x1="31.021" y1="56.857" x2="33.36" y2="56.857"/>
	
		<line fill="none" stroke="#212830" stroke-width="0.5" stroke-linecap="square" stroke-miterlimit="10" x1="218.03" y1="56.857" x2="215.647" y2="56.857"/>
	
		<line fill="none" stroke="#212830" stroke-width="0.5" stroke-linecap="square" stroke-miterlimit="10" x1="337.172" y1="65.553" x2="337.172" y2="34.039"/>
	
		<line fill="none" stroke="#212830" stroke-width="0.5" stroke-linecap="square" stroke-miterlimit="10" x1="53.614" y1="65.553" x2="53.614" y2="34.039"/>
	
		<line fill="none" stroke="#212830" stroke-width="0.5" stroke-linecap="square" stroke-miterlimit="10" x1="134.631" y1="65.553" x2="134.631" y2="34.039"/>
	
		<line fill="none" stroke="#212830" stroke-width="0.5" stroke-linecap="square" stroke-miterlimit="10" x1="233.519" y1="56.857" x2="235.901" y2="56.857"/>
	
		<line fill="none" stroke="#212830" stroke-width="0.5" stroke-linecap="square" stroke-miterlimit="10" x1="339.555" y1="56.857" x2="337.172" y2="56.857"/>
	
		<line fill="none" stroke="#212830" stroke-width="0.5" stroke-linecap="square" stroke-miterlimit="10" x1="55.997" y1="56.857" x2="53.614" y2="56.857"/>
	
		<line fill="none" stroke="#212830" stroke-width="0.5" stroke-linecap="square" stroke-miterlimit="10" x1="137.014" y1="56.857" x2="134.631" y2="56.857"/>
	
		<line fill="none" stroke="#212830" stroke-width="0.5" stroke-linecap="square" stroke-miterlimit="10" x1="256.155" y1="65.553" x2="256.155" y2="34.039"/>
	
		<line fill="none" stroke="#212830" stroke-width="0.5" stroke-linecap="square" stroke-miterlimit="10" x1="355.043" y1="56.857" x2="357.426" y2="56.857"/>
	
		<line fill="none" stroke="#212830" stroke-width="0.5" stroke-linecap="square" stroke-miterlimit="10" x1="71.529" y1="56.857" x2="73.868" y2="56.857"/>
	
		<line fill="none" stroke="#212830" stroke-width="0.5" stroke-linecap="square" stroke-miterlimit="10" x1="152.502" y1="56.857" x2="154.885" y2="56.857"/>
	
		<line fill="none" stroke="#212830" stroke-width="0.5" stroke-linecap="square" stroke-miterlimit="10" x1="258.539" y1="56.857" x2="256.155" y2="56.857"/>
	
		<line fill="none" stroke="#212830" stroke-width="0.5" stroke-linecap="square" stroke-miterlimit="10" x1="377.681" y1="65.553" x2="377.681" y2="34.039"/>
	
		<line fill="none" stroke="#212830" stroke-width="0.5" stroke-linecap="square" stroke-miterlimit="10" x1="94.123" y1="65.553" x2="94.123" y2="34.039"/>
	
		<line fill="none" stroke="#212830" stroke-width="0.5" stroke-linecap="square" stroke-miterlimit="10" x1="175.139" y1="65.553" x2="175.139" y2="34.039"/>
	
		<line fill="none" stroke="#212830" stroke-width="0.5" stroke-linecap="square" stroke-miterlimit="10" x1="274.027" y1="56.857" x2="276.41" y2="56.857"/>
	
		<line fill="none" stroke="#212830" stroke-width="0.5" stroke-linecap="square" stroke-miterlimit="10" x1="380.063" y1="56.857" x2="377.681" y2="56.857"/>
	
		<line fill="none" stroke="#212830" stroke-width="0.5" stroke-linecap="square" stroke-miterlimit="10" x1="96.505" y1="56.857" x2="94.123" y2="56.857"/>
	
		<line fill="none" stroke="#212830" stroke-width="0.5" stroke-linecap="square" stroke-miterlimit="10" x1="177.522" y1="56.857" x2="175.139" y2="56.857"/>
	
		<line fill="none" stroke="#212830" stroke-width="0.5" stroke-linecap="square" stroke-miterlimit="10" x1="296.664" y1="65.553" x2="296.664" y2="34.039"/>
	
		<line fill="none" stroke="#212830" stroke-width="0.5" stroke-linecap="square" stroke-miterlimit="10" x1="399.259" y1="56.857" x2="401.642" y2="56.857"/>
	
		<line fill="none" stroke="#212830" stroke-width="0.5" stroke-linecap="square" stroke-miterlimit="10" x1="13.15" y1="65.553" x2="13.15" y2="34.039"/>
	
		<line fill="none" stroke="#212830" stroke-width="0.5" stroke-linecap="square" stroke-miterlimit="10" x1="112.038" y1="56.857" x2="114.376" y2="56.857"/>
	
		<line fill="none" stroke="#212830" stroke-width="0.5" stroke-linecap="square" stroke-miterlimit="10" x1="193.01" y1="56.857" x2="195.393" y2="56.857"/>
	
		<line fill="none" stroke="#212830" stroke-width="0.5" stroke-linecap="square" stroke-miterlimit="10" x1="299.047" y1="56.857" x2="296.664" y2="56.857"/>
	
		<line fill="none" stroke="#212830" stroke-width="0.5" stroke-linecap="square" stroke-miterlimit="10" x1="426.043" y1="65.553" x2="426.043" y2="34.039"/>
	
		<line fill="none" stroke="#212830" stroke-width="0.5" stroke-linecap="square" stroke-miterlimit="10" x1="514.781" y1="65.553" x2="552.156" y2="65.553"/>
	
		<line fill="none" stroke="#212830" stroke-width="0.5" stroke-linecap="square" stroke-miterlimit="10" x1="514.781" y1="127.875" x2="552.156" y2="127.875"/>
	
		<line fill="none" stroke="#212830" stroke-width="0.5" stroke-linecap="square" stroke-miterlimit="10" x1="542.008" y1="70.628" x2="542.008" y2="122.843"/>
	<polygon fill="#212830" points="541.17,70.628 542.847,70.628 542.008,65.553  "/>
	<polygon fill="none" stroke="#212830" stroke-width="0.5" stroke-linecap="square" stroke-miterlimit="10" points="541.17,70.628    542.847,70.628 542.008,65.553  "/>
	<polygon fill="#212830" points="541.17,122.843 542.847,122.843 542.008,127.875  "/>
	<g>
		<path fill="#212830" d="M534.829,103.134l2.862,1.043v8.775h-0.406c-2.354-2.582-4.276-4.398-5.769-5.452    c-1.491-1.053-2.854-1.579-4.091-1.579c-0.942,0-1.718,0.289-2.324,0.866c-0.607,0.577-0.91,1.269-0.91,2.073    c0,0.731,0.214,1.388,0.642,1.969c0.428,0.582,1.055,1.012,1.881,1.289v0.406c-1.353-0.184-2.392-0.652-3.115-1.41    c-0.724-0.756-1.086-1.701-1.086-2.836c0-1.206,0.388-2.213,1.163-3.021c0.774-0.808,1.688-1.212,2.741-1.212    c0.754,0,1.507,0.175,2.26,0.526c1.185,0.541,2.438,1.419,3.762,2.633c1.988,1.82,3.188,2.958,3.597,3.411v-3.883    c0-0.79-0.029-1.344-0.088-1.662c-0.058-0.317-0.177-0.604-0.356-0.86c-0.179-0.256-0.433-0.479-0.762-0.67V103.134z"/>
		<path fill="#212830" d="M530.344,101.391c-1.696,0-3.157-0.256-4.382-0.769c-1.225-0.512-2.137-1.191-2.736-2.039    c-0.475-0.658-0.713-1.339-0.713-2.041c0-1.141,0.582-2.164,1.744-3.071c1.44-1.134,3.393-1.7,5.856-1.7    c1.726,0,3.191,0.248,4.397,0.746c1.207,0.497,2.082,1.131,2.627,1.902s0.817,1.516,0.817,2.232c0,1.419-0.838,2.6-2.512,3.543    C534.032,100.992,532.332,101.391,530.344,101.391z M530.617,99.241c2.048,0,3.719-0.252,5.013-0.757    c1.089-0.416,1.634-1.038,1.634-1.865c0-0.395-0.177-0.804-0.532-1.229c-0.354-0.424-0.948-0.745-1.782-0.965    c-1.257-0.336-3.03-0.504-5.318-0.504c-1.696,0-3.111,0.175-4.244,0.525c-0.841,0.264-1.438,0.604-1.788,1.021    c-0.241,0.3-0.361,0.662-0.361,1.087c0,0.496,0.223,0.939,0.669,1.326c0.606,0.527,1.561,0.885,2.862,1.075    C528.07,99.146,529.353,99.241,530.617,99.241z"/>
		<path fill="#212830" d="M530.344,90.159c-1.696,0-3.157-0.256-4.382-0.768c-1.225-0.512-2.137-1.192-2.736-2.04    c-0.475-0.658-0.713-1.338-0.713-2.041c0-1.141,0.582-2.165,1.744-3.071c1.44-1.133,3.393-1.7,5.856-1.7    c1.726,0,3.191,0.249,4.397,0.746c1.207,0.498,2.082,1.132,2.627,1.903s0.817,1.516,0.817,2.232c0,1.418-0.838,2.6-2.512,3.543    C534.032,89.76,532.332,90.159,530.344,90.159z M530.617,88.008c2.048,0,3.719-0.252,5.013-0.757    c1.089-0.417,1.634-1.038,1.634-1.865c0-0.395-0.177-0.804-0.532-1.229c-0.354-0.424-0.948-0.746-1.782-0.965    c-1.257-0.336-3.03-0.504-5.318-0.504c-1.696,0-3.111,0.175-4.244,0.526c-0.841,0.263-1.438,0.604-1.788,1.02    c-0.241,0.3-0.361,0.662-0.361,1.086c0,0.497,0.223,0.939,0.669,1.327c0.606,0.526,1.561,0.885,2.862,1.075    C528.07,87.914,529.353,88.008,530.617,88.008z"/>
	</g>
	
		<line fill="none" stroke="#212830" stroke-width="0.5" stroke-linecap="square" stroke-miterlimit="10" x1="494.528" y1="65.553" x2="494.528" y2="65.553"/>
	
		<line fill="none" stroke="#212830" stroke-width="0.5" stroke-linecap="square" stroke-miterlimit="10" x1="494.528" y1="127.875" x2="494.528" y2="127.875"/>
	
		<line fill="none" stroke="#212830" stroke-width="0.5" stroke-linecap="square" stroke-miterlimit="10" x1="542.008" y1="127.875" x2="542.008" y2="127.875"/>
	<polygon fill="none" stroke="#212830" stroke-width="0.5" stroke-linecap="square" stroke-miterlimit="10" points="541.17,122.843    542.847,122.843 542.008,127.875  "/>
	
		<line fill="none" stroke="#212830" stroke-width="0.5" stroke-linecap="square" stroke-miterlimit="10" x1="114.376" y1="65.553" x2="114.376" y2="34.039"/>
	
		<line fill="none" stroke="#212830" stroke-width="0.5" stroke-linecap="square" stroke-miterlimit="10" x1="195.393" y1="65.553" x2="195.393" y2="34.039"/>
	
		<line fill="none" stroke="#212830" stroke-width="0.5" stroke-linecap="square" stroke-miterlimit="10" x1="294.281" y1="56.857" x2="296.664" y2="56.857"/>
	
		<line fill="none" stroke="#212830" stroke-width="0.5" stroke-linecap="square" stroke-miterlimit="10" x1="404.024" y1="56.857" x2="401.642" y2="56.857"/>
	
		<line fill="none" stroke="#212830" stroke-width="0.5" stroke-linecap="square" stroke-miterlimit="10" x1="35.743" y1="56.857" x2="33.36" y2="56.857"/>
	
		<line fill="none" stroke="#212830" stroke-width="0.5" stroke-linecap="square" stroke-miterlimit="10" x1="235.901" y1="65.553" x2="235.901" y2="34.039"/>
	
		<line fill="none" stroke="#212830" stroke-width="0.5" stroke-linecap="square" stroke-miterlimit="10" x1="334.789" y1="56.857" x2="337.172" y2="56.857"/>
	
		<line fill="none" stroke="#212830" stroke-width="0.5" stroke-linecap="square" stroke-miterlimit="10" x1="51.275" y1="56.857" x2="53.614" y2="56.857"/>
	
		<line fill="none" stroke="#212830" stroke-width="0.5" stroke-linecap="square" stroke-miterlimit="10" x1="132.292" y1="56.857" x2="134.631" y2="56.857"/>
	
		<line fill="none" stroke="#212830" stroke-width="0.5" stroke-linecap="square" stroke-miterlimit="10" x1="238.284" y1="56.857" x2="235.901" y2="56.857"/>
	
		<line fill="none" stroke="#212830" stroke-width="0.5" stroke-linecap="square" stroke-miterlimit="10" x1="357.426" y1="65.553" x2="357.426" y2="34.039"/>
	
		<line fill="none" stroke="#212830" stroke-width="0.5" stroke-linecap="square" stroke-miterlimit="10" x1="73.868" y1="65.553" x2="73.868" y2="34.039"/>
	
		<line fill="none" stroke="#212830" stroke-width="0.5" stroke-linecap="square" stroke-miterlimit="10" x1="154.885" y1="65.553" x2="154.885" y2="34.039"/>
	
		<line fill="none" stroke="#212830" stroke-width="0.5" stroke-linecap="square" stroke-miterlimit="10" x1="253.772" y1="56.857" x2="256.155" y2="56.857"/>
	
		<line fill="none" stroke="#212830" stroke-width="0.5" stroke-linecap="square" stroke-miterlimit="10" x1="359.809" y1="56.857" x2="357.426" y2="56.857"/>
	
		<line fill="none" stroke="#212830" stroke-width="0.5" stroke-linecap="square" stroke-miterlimit="10" x1="76.251" y1="56.857" x2="73.868" y2="56.857"/>
	
		<line fill="none" stroke="#212830" stroke-width="0.5" stroke-linecap="square" stroke-miterlimit="10" x1="157.268" y1="56.857" x2="154.885" y2="56.857"/>
	
		<line fill="none" stroke="#212830" stroke-width="0.5" stroke-linecap="square" stroke-miterlimit="10" x1="276.41" y1="65.553" x2="276.41" y2="34.039"/>
	
		<line fill="none" stroke="#212830" stroke-width="0.5" stroke-linecap="square" stroke-miterlimit="10" x1="375.298" y1="56.857" x2="377.681" y2="56.857"/>
	
		<line fill="none" stroke="#212830" stroke-width="0.5" stroke-linecap="square" stroke-miterlimit="10" x1="91.784" y1="56.857" x2="94.123" y2="56.857"/>
	
		<line fill="none" stroke="#212830" stroke-width="0.5" stroke-linecap="square" stroke-miterlimit="10" x1="172.756" y1="56.857" x2="175.139" y2="56.857"/>
	
		<line fill="none" stroke="#212830" stroke-width="0.5" stroke-linecap="square" stroke-miterlimit="10" x1="278.793" y1="56.857" x2="276.41" y2="56.857"/>
	
		<line fill="none" stroke="#212830" stroke-width="0.5" stroke-linecap="square" stroke-miterlimit="10" x1="401.642" y1="65.553" x2="401.642" y2="34.039"/>
	
		<line fill="none" stroke="#212830" stroke-width="0.5" stroke-linecap="square" stroke-miterlimit="10" x1="10.767" y1="56.857" x2="13.15" y2="56.857"/>
	
		<line fill="none" stroke="#212830" stroke-width="0.5" stroke-linecap="square" stroke-miterlimit="10" x1="116.759" y1="56.857" x2="114.376" y2="56.857"/>
	
		<line fill="none" stroke="#212830" stroke-width="0.5" stroke-linecap="square" stroke-miterlimit="10" x1="197.776" y1="56.857" x2="195.393" y2="56.857"/>
	
		<line fill="none" stroke="#212830" stroke-width="0.5" stroke-linecap="square" stroke-miterlimit="10" x1="316.918" y1="65.553" x2="316.918" y2="34.039"/>
	
		<line fill="none" stroke="#212830" stroke-width="0.5" stroke-linecap="square" stroke-miterlimit="10" x1="423.703" y1="56.857" x2="426.043" y2="56.857"/>
	
		<line fill="none" stroke="#212830" stroke-width="0.5" stroke-linecap="square" stroke-miterlimit="10" x1="33.36" y1="65.553" x2="33.36" y2="34.039"/>
	
		<line fill="none" stroke="#212830" stroke-width="0.5" stroke-linecap="square" stroke-miterlimit="10" x1="213.265" y1="56.857" x2="215.647" y2="56.857"/>
	
		<line fill="none" stroke="#212830" stroke-width="0.5" stroke-linecap="square" stroke-miterlimit="10" x1="319.301" y1="56.857" x2="316.918" y2="56.857"/>
	
		<line fill="none" stroke="#212830" stroke-width="0.5" stroke-linecap="square" stroke-miterlimit="10" x1="13.15" y1="148.839" x2="13.15" y2="178.675"/>
	
		<line fill="none" stroke="#212830" stroke-width="0.5" stroke-linecap="square" stroke-miterlimit="10" x1="426.043" y1="148.839" x2="426.043" y2="178.675"/>
	
		<line fill="none" stroke="#212830" stroke-width="0.5" stroke-linecap="square" stroke-miterlimit="10" x1="18.18" y1="168.523" x2="421.013" y2="168.523"/>
	<polygon fill="#212830" points="18.18,167.685 18.18,169.362 13.15,168.523  "/>
	<polygon fill="none" stroke="#212830" stroke-width="0.5" stroke-linecap="square" stroke-miterlimit="10" points="18.18,167.685    18.18,169.362 13.15,168.523  "/>
	<polygon fill="#212830" points="421.013,167.685 421.013,169.362 426.043,168.523  "/>
	<g>
		<path fill="#212830" d="M198.207,152.195c0.424-1.002,0.959-1.775,1.607-2.32c0.647-0.544,1.453-0.816,2.418-0.816    c1.192,0,2.106,0.388,2.742,1.162c0.483,0.578,0.724,1.196,0.724,1.854c0,1.082-0.68,2.201-2.04,3.356    c0.914,0.358,1.605,0.871,2.073,1.535c0.468,0.666,0.702,1.449,0.702,2.348c0,1.287-0.41,2.402-1.229,3.346    c-1.067,1.229-2.614,1.844-4.639,1.844c-1.002,0-1.684-0.125-2.045-0.373c-0.362-0.249-0.543-0.516-0.543-0.801    c0-0.213,0.086-0.398,0.258-0.56s0.378-0.241,0.62-0.241c0.183,0,0.369,0.029,0.56,0.088c0.124,0.036,0.406,0.17,0.844,0.4    c0.439,0.23,0.742,0.367,0.91,0.411c0.271,0.081,0.56,0.12,0.867,0.12c0.746,0,1.395-0.289,1.947-0.866    c0.552-0.577,0.828-1.262,0.828-2.052c0-0.577-0.128-1.141-0.384-1.689c-0.19-0.408-0.398-0.72-0.625-0.932    c-0.314-0.293-0.746-0.558-1.294-0.795c-0.548-0.238-1.108-0.357-1.678-0.357h-0.351v-0.328c0.578-0.074,1.157-0.282,1.738-0.626    c0.582-0.344,1.004-0.757,1.267-1.239s0.395-1.014,0.395-1.591c0-0.753-0.236-1.362-0.707-1.827    c-0.472-0.463-1.059-0.695-1.76-0.695c-1.134,0-2.081,0.606-2.841,1.82L198.207,152.195z"/>
		<path fill="#212830" d="M209.108,156.89c0-1.696,0.256-3.157,0.768-4.383c0.512-1.225,1.192-2.137,2.04-2.736    c0.658-0.476,1.338-0.713,2.04-0.713c1.141,0,2.164,0.581,3.071,1.744c1.133,1.44,1.7,3.393,1.7,5.857    c0,1.727-0.249,3.192-0.746,4.398c-0.497,1.207-1.131,2.083-1.903,2.627c-0.771,0.545-1.515,0.818-2.232,0.818    c-1.418,0-2.599-0.838-3.542-2.512C209.507,160.58,209.108,158.879,209.108,156.89z M211.258,157.165    c0,2.048,0.252,3.719,0.757,5.013c0.417,1.09,1.038,1.635,1.865,1.635c0.395,0,0.804-0.178,1.228-0.532    c0.424-0.354,0.746-0.948,0.965-1.782c0.336-1.258,0.504-3.031,0.504-5.32c0-1.697-0.175-3.111-0.526-4.245    c-0.263-0.841-0.603-1.437-1.02-1.788c-0.3-0.242-0.662-0.362-1.086-0.362c-0.497,0-0.939,0.224-1.327,0.669    c-0.526,0.607-0.885,1.563-1.075,2.863C211.353,154.616,211.258,155.9,211.258,157.165z"/>
		<path fill="#212830" d="M220.339,156.89c0-1.696,0.256-3.157,0.768-4.383c0.512-1.225,1.192-2.137,2.04-2.736    c0.658-0.476,1.338-0.713,2.04-0.713c1.141,0,2.164,0.581,3.071,1.744c1.133,1.44,1.7,3.393,1.7,5.857    c0,1.727-0.249,3.192-0.746,4.398c-0.497,1.207-1.131,2.083-1.903,2.627c-0.771,0.545-1.515,0.818-2.232,0.818    c-1.418,0-2.599-0.838-3.542-2.512C220.737,160.58,220.339,158.879,220.339,156.89z M222.488,157.165    c0,2.048,0.252,3.719,0.757,5.013c0.417,1.09,1.038,1.635,1.865,1.635c0.395,0,0.804-0.178,1.228-0.532    c0.424-0.354,0.746-0.948,0.965-1.782c0.336-1.258,0.504-3.031,0.504-5.32c0-1.697-0.175-3.111-0.526-4.245    c-0.263-0.841-0.603-1.437-1.02-1.788c-0.3-0.242-0.662-0.362-1.086-0.362c-0.497,0-0.939,0.224-1.327,0.669    c-0.526,0.607-0.885,1.563-1.075,2.863C222.583,154.616,222.488,155.9,222.488,157.165z"/>
		<path fill="#212830" d="M231.569,156.89c0-1.696,0.256-3.157,0.768-4.383c0.512-1.225,1.192-2.137,2.04-2.736    c0.658-0.476,1.338-0.713,2.04-0.713c1.141,0,2.164,0.581,3.071,1.744c1.133,1.44,1.7,3.393,1.7,5.857    c0,1.727-0.249,3.192-0.746,4.398c-0.497,1.207-1.131,2.083-1.903,2.627c-0.771,0.545-1.515,0.818-2.232,0.818    c-1.418,0-2.599-0.838-3.542-2.512C231.968,160.58,231.569,158.879,231.569,156.89z M233.719,157.165    c0,2.048,0.252,3.719,0.757,5.013c0.417,1.09,1.038,1.635,1.865,1.635c0.395,0,0.804-0.178,1.228-0.532    c0.424-0.354,0.746-0.948,0.965-1.782c0.336-1.258,0.504-3.031,0.504-5.32c0-1.697-0.175-3.111-0.526-4.245    c-0.263-0.841-0.603-1.437-1.02-1.788c-0.3-0.242-0.662-0.362-1.086-0.362c-0.497,0-0.939,0.224-1.327,0.669    c-0.526,0.607-0.885,1.563-1.075,2.863C233.814,154.616,233.719,155.9,233.719,157.165z"/>
	</g>
	
		<line fill="none" stroke="#212830" stroke-width="0.5" stroke-linecap="square" stroke-miterlimit="10" x1="13.15" y1="128.58" x2="13.15" y2="128.58"/>
	
		<line fill="none" stroke="#212830" stroke-width="0.5" stroke-linecap="square" stroke-miterlimit="10" x1="426.043" y1="128.58" x2="426.043" y2="128.58"/>
	
		<line fill="none" stroke="#212830" stroke-width="0.5" stroke-linecap="square" stroke-miterlimit="10" x1="426.043" y1="168.523" x2="426.043" y2="168.523"/>
	<g>
		<path fill="#212830" d="M185.44,11.32c0-1.696,0.256-3.157,0.768-4.382c0.512-1.225,1.192-2.137,2.04-2.737    c0.658-0.476,1.338-0.713,2.04-0.713c1.141,0,2.164,0.581,3.071,1.744c1.133,1.44,1.7,3.393,1.7,5.857    c0,1.726-0.249,3.192-0.746,4.399s-1.131,2.083-1.903,2.627c-0.771,0.545-1.515,0.817-2.232,0.817    c-1.418,0-2.599-0.837-3.542-2.512C185.839,15.009,185.44,13.309,185.44,11.32z M187.59,11.594c0,2.047,0.252,3.719,0.757,5.013    c0.417,1.09,1.038,1.635,1.865,1.635c0.395,0,0.804-0.177,1.228-0.532c0.424-0.354,0.746-0.949,0.965-1.782    c0.336-1.258,0.504-3.031,0.504-5.32c0-1.697-0.175-3.112-0.526-4.245c-0.263-0.841-0.603-1.437-1.02-1.788    c-0.3-0.242-0.662-0.362-1.086-0.362c-0.497,0-0.939,0.223-1.327,0.669c-0.526,0.607-0.885,1.562-1.075,2.863    C187.685,9.045,187.59,10.329,187.59,11.594z"/>
		<path fill="#212830" d="M198.667,16.542c0.344,0,0.632,0.119,0.866,0.356c0.234,0.238,0.351,0.525,0.351,0.861    c0,0.336-0.119,0.624-0.356,0.861c-0.238,0.237-0.524,0.356-0.861,0.356s-0.624-0.119-0.861-0.356    c-0.238-0.238-0.356-0.525-0.356-0.861c0-0.343,0.119-0.632,0.356-0.866C198.043,16.658,198.33,16.542,198.667,16.542z"/>
		<path fill="#212830" d="M202.615,6.625c0.424-1.002,0.959-1.775,1.607-2.32c0.647-0.544,1.453-0.817,2.418-0.817    c1.192,0,2.106,0.388,2.742,1.163c0.483,0.578,0.724,1.196,0.724,1.854c0,1.082-0.68,2.201-2.04,3.356    c0.914,0.358,1.605,0.871,2.073,1.536c0.468,0.666,0.702,1.448,0.702,2.348c0,1.287-0.41,2.402-1.229,3.346    c-1.067,1.229-2.614,1.843-4.639,1.843c-1.002,0-1.684-0.125-2.045-0.373s-0.543-0.516-0.543-0.801    c0-0.212,0.086-0.398,0.258-0.559c0.172-0.161,0.378-0.242,0.62-0.242c0.183,0,0.369,0.029,0.56,0.088    c0.124,0.037,0.406,0.17,0.844,0.4c0.439,0.23,0.742,0.368,0.91,0.412c0.271,0.081,0.56,0.121,0.867,0.121    c0.746,0,1.395-0.289,1.947-0.867c0.552-0.578,0.828-1.262,0.828-2.051c0-0.578-0.128-1.141-0.384-1.689    c-0.19-0.409-0.398-0.72-0.625-0.932c-0.314-0.292-0.746-0.558-1.294-0.795s-1.108-0.356-1.678-0.356h-0.351v-0.329    c0.578-0.073,1.157-0.282,1.738-0.625c0.582-0.344,1.004-0.757,1.267-1.239c0.263-0.483,0.395-1.013,0.395-1.591    c0-0.753-0.236-1.362-0.707-1.827c-0.472-0.464-1.059-0.696-1.76-0.696c-1.134,0-2.081,0.607-2.841,1.821L202.615,6.625z"/>
	</g>
	<g>
		<path fill="#212830" d="M221.895,18.669l-5.747-12.516v9.938c0,0.914,0.099,1.484,0.296,1.711    c0.271,0.307,0.698,0.461,1.283,0.461h0.526v0.406h-5.176v-0.406h0.526c0.628,0,1.075-0.19,1.338-0.57    c0.161-0.234,0.241-0.768,0.241-1.602V6.373c0-0.658-0.073-1.133-0.219-1.426c-0.103-0.212-0.291-0.39-0.565-0.532    c-0.274-0.143-0.715-0.214-1.321-0.214V3.795h4.211l5.396,11.639l5.308-11.639h4.211v0.406h-0.516c-0.636,0-1.085,0.19-1.349,0.57    c-0.161,0.234-0.241,0.768-0.241,1.602v9.719c0,0.914,0.103,1.484,0.307,1.711c0.271,0.307,0.698,0.461,1.283,0.461h0.516v0.406    h-6.317v-0.406h0.526c0.636,0,1.082-0.19,1.338-0.57c0.161-0.234,0.241-0.768,0.241-1.602V6.153l-5.736,12.516H221.895z"/>
	</g>
	<g>
		<path fill="#212830" d="M232.632,9.62l3.093-1.25h0.417v2.347c0.519-0.885,1.04-1.504,1.563-1.859    c0.523-0.355,1.073-0.532,1.651-0.532c1.009,0,1.85,0.395,2.522,1.185c0.826,0.965,1.239,2.223,1.239,3.773    c0,1.733-0.498,3.167-1.492,4.3c-0.819,0.929-1.85,1.393-3.093,1.393c-0.541,0-1.009-0.077-1.404-0.23    c-0.292-0.109-0.622-0.329-0.987-0.658v3.061c0,0.688,0.042,1.125,0.126,1.311s0.23,0.334,0.438,0.444    c0.208,0.109,0.587,0.165,1.135,0.165v0.406h-5.264v-0.406h0.274c0.402,0.007,0.746-0.07,1.031-0.23    c0.139-0.081,0.247-0.21,0.323-0.39s0.115-0.634,0.115-1.366v-9.5c0-0.651-0.029-1.064-0.088-1.239    c-0.059-0.176-0.152-0.307-0.279-0.395c-0.128-0.088-0.302-0.132-0.521-0.132c-0.176,0-0.399,0.051-0.669,0.154L232.632,9.62z     M236.142,11.364v3.751c0,0.812,0.033,1.346,0.099,1.602c0.102,0.424,0.353,0.797,0.751,1.119s0.901,0.482,1.508,0.482    c0.731,0,1.323-0.285,1.776-0.855c0.592-0.746,0.889-1.795,0.889-3.148c0-1.536-0.336-2.717-1.009-3.543    c-0.468-0.57-1.023-0.856-1.667-0.856c-0.351,0-0.698,0.088-1.042,0.264C237.183,10.311,236.748,10.706,236.142,11.364z"/>
		<path fill="#212830" d="M250.279,17.222c-1.031,0.797-1.678,1.258-1.941,1.382c-0.395,0.183-0.815,0.274-1.261,0.274    c-0.695,0-1.267-0.238-1.716-0.713c-0.45-0.476-0.674-1.101-0.674-1.876c0-0.49,0.109-0.914,0.329-1.272    c0.3-0.497,0.821-0.965,1.563-1.404c0.742-0.438,1.976-0.972,3.702-1.602v-0.395c0-1.002-0.159-1.689-0.477-2.063    c-0.318-0.373-0.781-0.56-1.388-0.56c-0.46,0-0.826,0.125-1.097,0.373c-0.278,0.249-0.417,0.534-0.417,0.855l0.022,0.636    c0,0.337-0.086,0.596-0.258,0.779c-0.172,0.183-0.397,0.274-0.674,0.274c-0.271,0-0.492-0.095-0.664-0.285    c-0.172-0.19-0.258-0.45-0.258-0.779c0-0.629,0.322-1.207,0.965-1.733c0.644-0.526,1.546-0.79,2.709-0.79    c0.892,0,1.624,0.15,2.193,0.45c0.432,0.227,0.75,0.582,0.955,1.064c0.131,0.314,0.197,0.958,0.197,1.931v3.412    c0,0.958,0.018,1.545,0.055,1.761s0.097,0.36,0.181,0.433c0.084,0.073,0.181,0.11,0.291,0.11c0.117,0,0.219-0.026,0.307-0.077    c0.153-0.095,0.45-0.362,0.888-0.801v0.615c-0.819,1.097-1.601,1.645-2.347,1.645c-0.358,0-0.644-0.124-0.855-0.373    C250.395,18.246,250.286,17.821,250.279,17.222z M250.279,16.508V12.68c-1.104,0.438-1.817,0.75-2.139,0.932    c-0.578,0.322-0.991,0.658-1.239,1.009s-0.373,0.735-0.373,1.152c0,0.526,0.157,0.964,0.472,1.311s0.676,0.521,1.086,0.521    C248.64,17.605,249.372,17.24,250.279,16.508z"/>
	</g>
	<polygon fill="none" stroke="#212830" stroke-width="0.5" stroke-linecap="square" stroke-miterlimit="10" points="   421.013,167.685 421.013,169.362 426.043,168.523  "/>
	
		<line fill="none" stroke="#212830" stroke-width="0.5" stroke-linecap="square" stroke-miterlimit="10" x1="13.15" y1="65.553" x2="10.767" y2="56.857"/>
	
		<line fill="none" stroke="#212830" stroke-width="0.5" stroke-linecap="square" stroke-miterlimit="10" x1="114.376" y1="65.553" x2="116.759" y2="56.857"/>
	
		<line fill="none" stroke="#212830" stroke-width="0.5" stroke-linecap="square" stroke-miterlimit="10" x1="195.393" y1="65.553" x2="197.776" y2="56.857"/>
	<polygon fill="#212830" points="314.535,56.857 316.918,56.857 316.918,65.553  "/>
	<polygon fill="#212830" points="316.918,56.857 319.301,56.857 316.918,65.553  "/>
	<polygon fill="none" stroke="#212830" stroke-width="0.5" stroke-linecap="square" stroke-miterlimit="10" points="319.301,56.857    316.918,56.857 316.918,65.553  "/>
	<polygon fill="none" stroke="#212830" stroke-width="0.5" stroke-linecap="square" stroke-miterlimit="10" points="316.918,56.857    314.535,56.857 316.918,65.553  "/>
	
		<line fill="none" stroke="#212830" stroke-width="0.5" stroke-linecap="square" stroke-miterlimit="10" x1="426.043" y1="65.553" x2="423.703" y2="56.857"/>
	
		<line fill="none" stroke="#212830" stroke-width="0.5" stroke-linecap="square" stroke-miterlimit="10" x1="33.36" y1="65.553" x2="35.743" y2="56.857"/>
	<polygon fill="#212830" points="233.519,56.857 235.901,56.857 235.901,65.553  "/>
	<polygon fill="#212830" points="235.901,56.857 238.284,56.857 235.901,65.553  "/>
	<polygon fill="none" stroke="#212830" stroke-width="0.5" stroke-linecap="square" stroke-miterlimit="10" points="238.284,56.857    235.901,56.857 235.901,65.553  "/>
	<polygon fill="none" stroke="#212830" stroke-width="0.5" stroke-linecap="square" stroke-miterlimit="10" points="235.901,56.857    233.519,56.857 235.901,65.553  "/>
	
		<line fill="none" stroke="#212830" stroke-width="0.5" stroke-linecap="square" stroke-miterlimit="10" x1="337.172" y1="65.553" x2="334.789" y2="56.857"/>
	
		<line fill="none" stroke="#212830" stroke-width="0.5" stroke-linecap="square" stroke-miterlimit="10" x1="53.614" y1="65.553" x2="51.275" y2="56.857"/>
	
		<line fill="none" stroke="#212830" stroke-width="0.5" stroke-linecap="square" stroke-miterlimit="10" x1="134.631" y1="65.553" x2="132.292" y2="56.857"/>
	
		<line fill="none" stroke="#212830" stroke-width="0.5" stroke-linecap="square" stroke-miterlimit="10" x1="235.901" y1="65.553" x2="238.284" y2="56.857"/>
	<polygon fill="#212830" points="355.043,56.857 357.426,56.857 357.426,65.553  "/>
	<polygon fill="#212830" points="357.426,56.857 359.809,56.857 357.426,65.553  "/>
	<polygon fill="none" stroke="#212830" stroke-width="0.5" stroke-linecap="square" stroke-miterlimit="10" points="359.809,56.857    357.426,56.857 357.426,65.553  "/>
	<polygon fill="none" stroke="#212830" stroke-width="0.5" stroke-linecap="square" stroke-miterlimit="10" points="357.426,56.857    355.043,56.857 357.426,65.553  "/>
	<polygon fill="#212830" points="71.529,56.857 73.868,56.857 73.868,65.553  "/>
	<polygon fill="#212830" points="73.868,56.857 76.251,56.857 73.868,65.553  "/>
	<polygon fill="none" stroke="#212830" stroke-width="0.5" stroke-linecap="square" stroke-miterlimit="10" points="76.251,56.857    73.868,56.857 73.868,65.553  "/>
	<polygon fill="none" stroke="#212830" stroke-width="0.5" stroke-linecap="square" stroke-miterlimit="10" points="73.868,56.857    71.529,56.857 73.868,65.553  "/>
	<polygon fill="#212830" points="152.502,56.857 154.885,56.857 154.885,65.553  "/>
	<polygon fill="#212830" points="154.885,56.857 157.268,56.857 154.885,65.553  "/>
	<polygon fill="none" stroke="#212830" stroke-width="0.5" stroke-linecap="square" stroke-miterlimit="10" points="157.268,56.857    154.885,56.857 154.885,65.553  "/>
	<polygon fill="none" stroke="#212830" stroke-width="0.5" stroke-linecap="square" stroke-miterlimit="10" points="154.885,56.857    152.502,56.857 154.885,65.553  "/>
	
		<line fill="none" stroke="#212830" stroke-width="0.5" stroke-linecap="square" stroke-miterlimit="10" x1="256.155" y1="65.553" x2="253.772" y2="56.857"/>
	
		<line fill="none" stroke="#212830" stroke-width="0.5" stroke-linecap="square" stroke-miterlimit="10" x1="357.426" y1="65.553" x2="359.809" y2="56.857"/>
	
		<line fill="none" stroke="#212830" stroke-width="0.5" stroke-linecap="square" stroke-miterlimit="10" x1="73.868" y1="65.553" x2="76.251" y2="56.857"/>
	
		<line fill="none" stroke="#212830" stroke-width="0.5" stroke-linecap="square" stroke-miterlimit="10" x1="154.885" y1="65.553" x2="157.268" y2="56.857"/>
	<polygon fill="#212830" points="274.027,56.857 276.41,56.857 276.41,65.553  "/>
	<polygon fill="#212830" points="276.41,56.857 278.793,56.857 276.41,65.553  "/>
	<polygon fill="none" stroke="#212830" stroke-width="0.5" stroke-linecap="square" stroke-miterlimit="10" points="278.793,56.857    276.41,56.857 276.41,65.553  "/>
	<polygon fill="none" stroke="#212830" stroke-width="0.5" stroke-linecap="square" stroke-miterlimit="10" points="276.41,56.857    274.027,56.857 276.41,65.553  "/>
	
		<line fill="none" stroke="#212830" stroke-width="0.5" stroke-linecap="square" stroke-miterlimit="10" x1="377.681" y1="65.553" x2="375.298" y2="56.857"/>
	
		<line fill="none" stroke="#212830" stroke-width="0.5" stroke-linecap="square" stroke-miterlimit="10" x1="94.123" y1="65.553" x2="91.784" y2="56.857"/>
	
		<line fill="none" stroke="#212830" stroke-width="0.5" stroke-linecap="square" stroke-miterlimit="10" x1="175.139" y1="65.553" x2="172.756" y2="56.857"/>
	
		<line fill="none" stroke="#212830" stroke-width="0.5" stroke-linecap="square" stroke-miterlimit="10" x1="276.41" y1="65.553" x2="278.793" y2="56.857"/>
	<polygon fill="#212830" points="399.259,56.857 401.642,56.857 401.642,65.553  "/>
	<polygon fill="#212830" points="401.642,56.857 404.024,56.857 401.642,65.553  "/>
	<polygon fill="none" stroke="#212830" stroke-width="0.5" stroke-linecap="square" stroke-miterlimit="10" points="404.024,56.857    401.642,56.857 401.642,65.553  "/>
	<polygon fill="none" stroke="#212830" stroke-width="0.5" stroke-linecap="square" stroke-miterlimit="10" points="401.642,56.857    399.259,56.857 401.642,65.553  "/>
	<polygon fill="#212830" points="112.038,56.857 114.376,56.857 114.376,65.553  "/>
	<polygon fill="#212830" points="114.376,56.857 116.759,56.857 114.376,65.553  "/>
	<polygon fill="none" stroke="#212830" stroke-width="0.5" stroke-linecap="square" stroke-miterlimit="10" points="116.759,56.857    114.376,56.857 114.376,65.553  "/>
	<polygon fill="none" stroke="#212830" stroke-width="0.5" stroke-linecap="square" stroke-miterlimit="10" points="114.376,56.857    112.038,56.857 114.376,65.553  "/>
	<polygon fill="#212830" points="193.01,56.857 195.393,56.857 195.393,65.553  "/>
	<polygon fill="#212830" points="195.393,56.857 197.776,56.857 195.393,65.553  "/>
	<polygon fill="none" stroke="#212830" stroke-width="0.5" stroke-linecap="square" stroke-miterlimit="10" points="197.776,56.857    195.393,56.857 195.393,65.553  "/>
	<polygon fill="none" stroke="#212830" stroke-width="0.5" stroke-linecap="square" stroke-miterlimit="10" points="195.393,56.857    193.01,56.857 195.393,65.553  "/>
	
		<line fill="none" stroke="#212830" stroke-width="0.5" stroke-linecap="square" stroke-miterlimit="10" x1="296.664" y1="65.553" x2="294.281" y2="56.857"/>
	
		<line fill="none" stroke="#212830" stroke-width="0.5" stroke-linecap="square" stroke-miterlimit="10" x1="401.642" y1="65.553" x2="404.024" y2="56.857"/>
	<polygon fill="#212830" points="31.021,56.857 33.36,56.857 33.36,65.553  "/>
	<polygon fill="#212830" points="33.36,56.857 35.743,56.857 33.36,65.553  "/>
	<polygon fill="none" stroke="#212830" stroke-width="0.5" stroke-linecap="square" stroke-miterlimit="10" points="35.743,56.857    33.36,56.857 33.36,65.553  "/>
	<polygon fill="none" stroke="#212830" stroke-width="0.5" stroke-linecap="square" stroke-miterlimit="10" points="33.36,56.857    31.021,56.857 33.36,65.553  "/>
	
		<line fill="none" stroke="#212830" stroke-width="0.5" stroke-linecap="square" stroke-miterlimit="10" x1="215.647" y1="65.553" x2="213.265" y2="56.857"/>
	
		<line fill="none" stroke="#212830" stroke-width="0.5" stroke-linecap="square" stroke-miterlimit="10" x1="316.918" y1="65.553" x2="319.301" y2="56.857"/>
	<polygon fill="#212830" points="51.275,56.857 53.614,56.857 53.614,65.553  "/>
	<polygon fill="#212830" points="53.614,56.857 55.997,56.857 53.614,65.553  "/>
	<polygon fill="none" stroke="#212830" stroke-width="0.5" stroke-linecap="square" stroke-miterlimit="10" points="55.997,56.857    53.614,56.857 53.614,65.553  "/>
	<polygon fill="none" stroke="#212830" stroke-width="0.5" stroke-linecap="square" stroke-miterlimit="10" points="53.614,56.857    51.275,56.857 53.614,65.553  "/>
	
		<line fill="none" stroke="#212830" stroke-width="0.5" stroke-linecap="square" stroke-miterlimit="10" x1="235.901" y1="65.553" x2="233.519" y2="56.857"/>
	
		<line fill="none" stroke="#212830" stroke-width="0.5" stroke-linecap="square" stroke-miterlimit="10" x1="337.172" y1="65.553" x2="339.555" y2="56.857"/>
	
		<line fill="none" stroke="#212830" stroke-width="0.5" stroke-linecap="square" stroke-miterlimit="10" x1="53.614" y1="65.553" x2="55.997" y2="56.857"/>
	
		<line fill="none" stroke="#212830" stroke-width="0.5" stroke-linecap="square" stroke-miterlimit="10" x1="134.631" y1="65.553" x2="137.014" y2="56.857"/>
	<polygon fill="#212830" points="253.772,56.857 256.155,56.857 256.155,65.553  "/>
	<polygon fill="#212830" points="256.155,56.857 258.539,56.857 256.155,65.553  "/>
	<polygon fill="none" stroke="#212830" stroke-width="0.5" stroke-linecap="square" stroke-miterlimit="10" points="258.539,56.857    256.155,56.857 256.155,65.553  "/>
	<polygon fill="none" stroke="#212830" stroke-width="0.5" stroke-linecap="square" stroke-miterlimit="10" points="256.155,56.857    253.772,56.857 256.155,65.553  "/>
	
		<line fill="none" stroke="#212830" stroke-width="0.5" stroke-linecap="square" stroke-miterlimit="10" x1="357.426" y1="65.553" x2="355.043" y2="56.857"/>
	
		<line fill="none" stroke="#212830" stroke-width="0.5" stroke-linecap="square" stroke-miterlimit="10" x1="73.868" y1="65.553" x2="71.529" y2="56.857"/>
	
		<line fill="none" stroke="#212830" stroke-width="0.5" stroke-linecap="square" stroke-miterlimit="10" x1="154.885" y1="65.553" x2="152.502" y2="56.857"/>
	
		<line fill="none" stroke="#212830" stroke-width="0.5" stroke-linecap="square" stroke-miterlimit="10" x1="256.155" y1="65.553" x2="258.539" y2="56.857"/>
	<polygon fill="#212830" points="375.298,56.857 377.681,56.857 377.681,65.553  "/>
	<polygon fill="#212830" points="377.681,56.857 380.063,56.857 377.681,65.553  "/>
	<polygon fill="none" stroke="#212830" stroke-width="0.5" stroke-linecap="square" stroke-miterlimit="10" points="380.063,56.857    377.681,56.857 377.681,65.553  "/>
	<polygon fill="none" stroke="#212830" stroke-width="0.5" stroke-linecap="square" stroke-miterlimit="10" points="377.681,56.857    375.298,56.857 377.681,65.553  "/>
	<polygon fill="#212830" points="91.784,56.857 94.123,56.857 94.123,65.553  "/>
	<polygon fill="#212830" points="94.123,56.857 96.505,56.857 94.123,65.553  "/>
	<polygon fill="none" stroke="#212830" stroke-width="0.5" stroke-linecap="square" stroke-miterlimit="10" points="96.505,56.857    94.123,56.857 94.123,65.553  "/>
	<polygon fill="none" stroke="#212830" stroke-width="0.5" stroke-linecap="square" stroke-miterlimit="10" points="94.123,56.857    91.784,56.857 94.123,65.553  "/>
	<polygon fill="#212830" points="172.756,56.857 175.139,56.857 175.139,65.553  "/>
	<polygon fill="#212830" points="175.139,56.857 177.522,56.857 175.139,65.553  "/>
	<polygon fill="none" stroke="#212830" stroke-width="0.5" stroke-linecap="square" stroke-miterlimit="10" points="177.522,56.857    175.139,56.857 175.139,65.553  "/>
	<polygon fill="none" stroke="#212830" stroke-width="0.5" stroke-linecap="square" stroke-miterlimit="10" points="175.139,56.857    172.756,56.857 175.139,65.553  "/>
	
		<line fill="none" stroke="#212830" stroke-width="0.5" stroke-linecap="square" stroke-miterlimit="10" x1="276.41" y1="65.553" x2="274.027" y2="56.857"/>
	
		<line fill="none" stroke="#212830" stroke-width="0.5" stroke-linecap="square" stroke-miterlimit="10" x1="377.681" y1="65.553" x2="380.063" y2="56.857"/>
	
		<line fill="none" stroke="#212830" stroke-width="0.5" stroke-linecap="square" stroke-miterlimit="10" x1="94.123" y1="65.553" x2="96.505" y2="56.857"/>
	
		<line fill="none" stroke="#212830" stroke-width="0.5" stroke-linecap="square" stroke-miterlimit="10" x1="175.139" y1="65.553" x2="177.522" y2="56.857"/>
	<polygon fill="#212830" points="294.281,56.857 296.664,56.857 296.664,65.553  "/>
	<polygon fill="#212830" points="296.664,56.857 299.047,56.857 296.664,65.553  "/>
	<polygon fill="none" stroke="#212830" stroke-width="0.5" stroke-linecap="square" stroke-miterlimit="10" points="299.047,56.857    296.664,56.857 296.664,65.553  "/>
	<polygon fill="none" stroke="#212830" stroke-width="0.5" stroke-linecap="square" stroke-miterlimit="10" points="296.664,56.857    294.281,56.857 296.664,65.553  "/>
	
		<line fill="none" stroke="#212830" stroke-width="0.5" stroke-linecap="square" stroke-miterlimit="10" x1="401.642" y1="65.553" x2="399.259" y2="56.857"/>
	<polygon fill="#212830" points="10.767,56.857 13.15,56.857 13.15,65.553  "/>
	<polygon fill="#212830" points="13.15,56.857 15.489,56.857 13.15,65.553  "/>
	<polygon fill="none" stroke="#212830" stroke-width="0.5" stroke-linecap="square" stroke-miterlimit="10" points="15.489,56.857    13.15,56.857 13.15,65.553  "/>
	<polygon fill="none" stroke="#212830" stroke-width="0.5" stroke-linecap="square" stroke-miterlimit="10" points="13.15,56.857    10.767,56.857 13.15,65.553  "/>
	
		<line fill="none" stroke="#212830" stroke-width="0.5" stroke-linecap="square" stroke-miterlimit="10" x1="114.376" y1="65.553" x2="112.038" y2="56.857"/>
	
		<line fill="none" stroke="#212830" stroke-width="0.5" stroke-linecap="square" stroke-miterlimit="10" x1="195.393" y1="65.553" x2="193.01" y2="56.857"/>
	
		<line fill="none" stroke="#212830" stroke-width="0.5" stroke-linecap="square" stroke-miterlimit="10" x1="296.664" y1="65.553" x2="299.047" y2="56.857"/>
	<polygon fill="#212830" points="423.703,56.857 426.043,56.857 426.043,65.553  "/>
	<polygon fill="#212830" points="426.043,56.857 428.426,56.857 426.043,65.553  "/>
	<polygon fill="none" stroke="#212830" stroke-width="0.5" stroke-linecap="square" stroke-miterlimit="10" points="428.426,56.857    426.043,56.857 426.043,65.553  "/>
	<polygon fill="none" stroke="#212830" stroke-width="0.5" stroke-linecap="square" stroke-miterlimit="10" points="426.043,56.857    423.703,56.857 426.043,65.553  "/>
	
		<line fill="none" stroke="#212830" stroke-width="0.5" stroke-linecap="square" stroke-miterlimit="10" x1="13.15" y1="65.553" x2="15.489" y2="56.857"/>
	<polygon fill="#212830" points="132.292,56.857 134.631,56.857 134.631,65.553  "/>
	<polygon fill="#212830" points="134.631,56.857 137.014,56.857 134.631,65.553  "/>
	<polygon fill="none" stroke="#212830" stroke-width="0.5" stroke-linecap="square" stroke-miterlimit="10" points="137.014,56.857    134.631,56.857 134.631,65.553  "/>
	<polygon fill="none" stroke="#212830" stroke-width="0.5" stroke-linecap="square" stroke-miterlimit="10" points="134.631,56.857    132.292,56.857 134.631,65.553  "/>
	<polygon fill="#212830" points="213.265,56.857 215.647,56.857 215.647,65.553  "/>
	<polygon fill="#212830" points="215.647,56.857 218.03,56.857 215.647,65.553  "/>
	<polygon fill="none" stroke="#212830" stroke-width="0.5" stroke-linecap="square" stroke-miterlimit="10" points="218.03,56.857    215.647,56.857 215.647,65.553  "/>
	<polygon fill="none" stroke="#212830" stroke-width="0.5" stroke-linecap="square" stroke-miterlimit="10" points="215.647,56.857    213.265,56.857 215.647,65.553  "/>
	
		<line fill="none" stroke="#212830" stroke-width="0.5" stroke-linecap="square" stroke-miterlimit="10" x1="316.918" y1="65.553" x2="314.535" y2="56.857"/>
	
		<line fill="none" stroke="#212830" stroke-width="0.5" stroke-linecap="square" stroke-miterlimit="10" x1="426.043" y1="65.553" x2="428.426" y2="56.857"/>
	
		<line fill="none" stroke="#212830" stroke-width="0.5" stroke-linecap="square" stroke-miterlimit="10" x1="33.36" y1="65.553" x2="31.021" y2="56.857"/>
	
		<line fill="none" stroke="#212830" stroke-width="0.5" stroke-linecap="square" stroke-miterlimit="10" x1="215.647" y1="65.553" x2="218.03" y2="56.857"/>
	<polygon fill="#212830" points="334.789,56.857 337.172,56.857 337.172,65.553  "/>
	<polygon fill="#212830" points="337.172,56.857 339.555,56.857 337.172,65.553  "/>
	<polygon fill="none" stroke="#212830" stroke-width="0.5" stroke-linecap="square" stroke-miterlimit="10" points="339.555,56.857    337.172,56.857 337.172,65.553  "/>
	<polygon fill="none" stroke="#212830" stroke-width="0.5" stroke-linecap="square" stroke-miterlimit="10" points="337.172,56.857    334.789,56.857 337.172,65.553  "/>
	
		<line fill="none" stroke="#212830" stroke-width="0.5" stroke-linecap="square" stroke-miterlimit="10" x1="13.15" y1="34.039" x2="426.043" y2="34.039"/>
	<polygon fill="none" stroke="#212830" stroke-width="0.5" stroke-linecap="square" stroke-miterlimit="10" points="439.193,128.58    439.148,127.388 438.973,126.196 438.708,125.048 438.311,123.901 437.868,122.798 437.296,121.74 436.59,120.768 435.84,119.841    435.001,118.958 434.117,118.208 433.147,117.501 432.089,116.884 430.985,116.397 429.882,116.001 428.735,115.692    427.544,115.516 426.353,115.427 425.16,115.472 423.97,115.604 422.778,115.824 421.631,116.177 420.527,116.619 419.469,117.192    418.453,117.854 417.526,118.562 416.645,119.399 415.85,120.283 415.144,121.253 414.526,122.269 413.997,123.328    413.556,124.476 413.246,125.623 413.025,126.771 412.894,127.962 412.894,129.199 413.025,130.39 413.246,131.537    413.556,132.685 413.997,133.832 414.526,134.892 415.144,135.906 415.85,136.878 416.645,137.761 417.526,138.599    418.453,139.305 419.469,139.966 420.527,140.541 421.631,140.982 422.778,141.335 423.97,141.556 425.16,141.688 426.353,141.732    427.544,141.645 428.735,141.468 429.882,141.16 430.985,140.762 432.089,140.276 433.147,139.658 434.117,138.953    435.001,138.201 435.84,137.319 436.59,136.392 437.296,135.421 437.868,134.361 438.311,133.259 438.708,132.11 438.973,130.962    439.148,129.771  "/>
	<polygon fill="none" stroke="#212830" stroke-width="0.5" stroke-linecap="square" stroke-miterlimit="10" points="26.3,128.58    26.255,127.388 26.079,126.196 25.814,125.048 25.417,123.901 24.976,122.798 24.402,121.74 23.696,120.768 22.946,119.841    22.107,118.958 21.225,118.208 20.254,117.501 19.195,116.884 18.092,116.397 16.989,116.001 15.842,115.692 14.65,115.516    13.459,115.427 12.268,115.472 11.076,115.604 9.885,115.824 8.737,116.177 7.634,116.619 6.575,117.192 5.56,117.854    4.633,118.562 3.751,119.399 2.957,120.283 2.25,121.253 1.633,122.269 1.104,123.328 0.662,124.476 0.353,125.623 0.132,126.771    0,127.962 0,129.199 0.132,130.39 0.353,131.537 0.662,132.685 1.104,133.832 1.633,134.892 2.25,135.906 2.957,136.878    3.751,137.761 4.633,138.599 5.56,139.305 6.575,139.966 7.634,140.541 8.737,140.982 9.885,141.335 11.076,141.556    12.268,141.688 13.459,141.732 14.65,141.645 15.842,141.468 16.989,141.16 18.092,140.762 19.195,140.276 20.254,139.658    21.225,138.953 22.107,138.201 22.946,137.319 23.696,136.392 24.402,135.421 24.976,134.361 25.417,133.259 25.814,132.11    26.079,130.962 26.255,129.771  "/>
	
		<line fill="none" stroke="#212830" stroke-width="0.5" stroke-linecap="square" stroke-miterlimit="10" x1="494.528" y1="65.553" x2="454.813" y2="65.553"/>
	
		<line fill="none" stroke="#212830" stroke-width="0.5" stroke-linecap="square" stroke-miterlimit="10" x1="494.528" y1="127.875" x2="494.528" y2="65.553"/>
	
		<line fill="none" stroke="#212830" stroke-width="0.5" stroke-linecap="square" stroke-miterlimit="10" x1="454.813" y1="127.875" x2="494.528" y2="127.875"/>
	
		<line fill="none" stroke="#212830" stroke-width="0.5" stroke-linecap="square" stroke-miterlimit="10" x1="454.813" y1="65.553" x2="454.813" y2="127.875"/>
	
		<line fill="none" stroke="#212830" stroke-width="0.5" stroke-linecap="square" stroke-miterlimit="10" x1="426.043" y1="65.553" x2="13.15" y2="65.553"/>
	
		<line fill="none" stroke="#212830" stroke-width="0.5" stroke-linecap="square" stroke-miterlimit="10" x1="426.043" y1="128.58" x2="426.043" y2="65.553"/>
	
		<line fill="none" stroke="#212830" stroke-width="0.5" stroke-linecap="square" stroke-miterlimit="10" x1="13.15" y1="128.58" x2="426.043" y2="128.58"/>
	
		<line fill="none" stroke="#212830" stroke-width="0.5" stroke-linecap="square" stroke-miterlimit="10" x1="13.15" y1="65.553" x2="13.15" y2="128.58"/>
</g>
</svg>
