<?xml version="1.0" encoding="utf-8"?>
<!-- Generator: Adobe Illustrator 16.0.0, SVG Export Plug-In . SVG Version: 6.00 Build 0)  -->
<!DOCTYPE svg PUBLIC "-//W3C//DTD SVG 1.1//EN" "http://www.w3.org/Graphics/SVG/1.1/DTD/svg11.dtd">
<svg xmlns="http://www.w3.org/2000/svg" xmlns:xlink="http://www.w3.org/1999/xlink" version="1.1" id="图层_1" x="0px" y="0px" width="411.859px" height="297.807px" viewBox="0 0 411.859 297.807" xml:space="preserve">
<g>
	
		<line fill="none" stroke="#212830" stroke-width="0.5" stroke-linecap="square" stroke-miterlimit="10" x1="240.92" y1="170.794" x2="135.148" y2="238.72"/>
	<polyline fill="none" stroke="#212830" stroke-width="0.5" stroke-linecap="square" stroke-miterlimit="10" points="   135.148,238.72 135.06,236.205 134.928,233.601 134.663,230.953 134.31,228.171 133.869,225.304 133.295,222.39 132.589,219.388    131.75,216.343 130.824,213.298 129.765,210.164 128.618,207.031 127.294,203.853 125.926,200.718 124.381,197.585    122.793,194.453 121.072,191.406 119.263,188.406 117.41,185.449 115.424,182.58 113.394,179.753 111.32,177.062 109.202,174.501    107.04,172.031 104.833,169.646 102.627,167.44 100.376,165.322 98.126,163.379 95.92,161.526 93.669,159.849 91.507,158.304    89.301,156.847 87.183,155.568  "/>
	
		<line fill="none" stroke="#212830" stroke-width="0.5" stroke-linecap="square" stroke-miterlimit="10" x1="87.183" y1="155.568" x2="198.823" y2="97.836"/>
	<polyline fill="none" stroke="#212830" stroke-width="0.5" stroke-linecap="square" stroke-miterlimit="10" points="   240.92,170.794 240.876,168.632 240.744,166.469 240.567,164.218 240.302,161.967 239.905,159.671 239.508,157.376    238.979,155.038 238.361,152.699 237.699,150.315 236.993,147.976 236.155,145.592 235.272,143.209 234.345,140.87    233.331,138.486 232.227,136.147 231.08,133.852 229.844,131.557 228.609,129.262 227.285,127.055 225.873,124.848 224.46,122.686    222.96,120.611 221.46,118.537 219.872,116.506 218.283,114.564 216.607,112.667 214.929,110.857 213.208,109.091 211.488,107.414    209.722,105.825 207.958,104.28 206.148,102.824 204.339,101.456 202.486,100.176 200.677,98.984 198.823,97.836  "/>
	
		<line fill="none" stroke="#212830" stroke-width="0.5" stroke-linecap="square" stroke-miterlimit="10" x1="198.823" y1="69.059" x2="198.823" y2="69.059"/>
	
		<line fill="none" stroke="#212830" stroke-width="0.5" stroke-linecap="square" stroke-miterlimit="10" x1="265.808" y1="185.183" x2="265.808" y2="185.183"/>
	
		<line fill="none" stroke="#212830" stroke-width="0.5" stroke-linecap="square" stroke-miterlimit="10" x1="87.183" y1="133.587" x2="87.183" y2="133.587"/>
	
		<line fill="none" stroke="#212830" stroke-width="0.5" stroke-linecap="square" stroke-miterlimit="10" x1="154.167" y1="249.71" x2="154.167" y2="249.71"/>
	
		<line fill="none" stroke="#212830" stroke-width="0.5" stroke-linecap="square" stroke-miterlimit="10" x1="198.823" y1="97.836" x2="198.823" y2="97.836"/>
	
		<line fill="none" stroke="#212830" stroke-width="0.5" stroke-linecap="square" stroke-miterlimit="10" x1="87.183" y1="155.568" x2="87.183" y2="155.568"/>
	
		<line fill="none" stroke="#212830" stroke-width="0.5" stroke-linecap="square" stroke-miterlimit="10" x1="135.148" y1="238.72" x2="135.148" y2="238.72"/>
	
		<line fill="none" stroke="#212830" stroke-width="0.5" stroke-linecap="square" stroke-miterlimit="10" x1="240.92" y1="170.794" x2="240.92" y2="170.794"/>
	
		<line fill="none" stroke="#212830" stroke-width="0.5" stroke-linecap="square" stroke-miterlimit="10" x1="135.148" y1="238.72" x2="154.167" y2="249.71"/>
	<polyline fill="none" stroke="#212830" stroke-width="0.5" stroke-linecap="square" stroke-miterlimit="10" points="   154.167,249.71 154.079,246.224 153.902,242.605 153.549,238.853 153.02,234.97 152.402,230.998 151.563,226.892 150.593,222.744    149.446,218.505 148.166,214.181 146.666,209.812 145.033,205.441 143.224,201.029 141.282,196.615 139.164,192.246    136.914,187.919 134.531,183.638 132.016,179.402 129.412,175.296 126.676,171.281 123.852,167.396 120.94,163.6 117.939,160.025    114.895,156.539 111.85,153.272 108.717,150.138 105.628,147.226 102.495,144.489 99.362,141.929 96.273,139.545 93.184,137.383    90.184,135.397 87.183,133.587  "/>
	
		<line fill="none" stroke="#212830" stroke-width="0.5" stroke-linecap="square" stroke-miterlimit="10" x1="87.183" y1="133.587" x2="87.183" y2="155.568"/>
	
		<line fill="none" stroke="#212830" stroke-width="0.5" stroke-linecap="square" stroke-miterlimit="10" x1="154.167" y1="249.71" x2="265.808" y2="185.183"/>
	<polyline fill="none" stroke="#212830" stroke-width="0.5" stroke-linecap="square" stroke-miterlimit="10" points="   265.808,185.183 265.719,181.697 265.542,178.078 265.19,174.326 264.661,170.441 264.042,166.469 263.205,162.409    262.233,158.215 261.086,153.978 259.762,149.653 258.306,145.328 256.673,140.914 254.864,136.5 252.922,132.131 250.804,127.717    248.554,123.392 246.171,119.11 243.656,114.917 241.052,110.769 238.317,106.752 235.449,102.868 232.536,99.116 229.58,95.497    226.535,92.055 223.49,88.744 220.357,85.655 217.224,82.697 214.135,79.961 211.002,77.401 207.914,75.018 204.825,72.855    201.78,70.869 198.823,69.059  "/>
	
		<line fill="none" stroke="#212830" stroke-width="0.5" stroke-linecap="square" stroke-miterlimit="10" x1="198.823" y1="69.059" x2="87.183" y2="133.587"/>
	
		<line fill="none" stroke="#212830" stroke-width="0.5" stroke-linecap="square" stroke-miterlimit="10" x1="265.808" y1="185.183" x2="240.92" y2="170.794"/>
	
		<line fill="none" stroke="#212830" stroke-width="0.5" stroke-linecap="square" stroke-miterlimit="10" x1="198.823" y1="97.836" x2="198.823" y2="69.059"/>
	
		<line fill="none" stroke="#212830" stroke-width="0.5" stroke-linecap="square" stroke-miterlimit="10" x1="228.565" y1="129.262" x2="121.072" y2="191.406"/>
	
		<line fill="none" stroke="#212830" stroke-width="0.5" stroke-linecap="square" stroke-miterlimit="10" x1="134.531" y1="183.638" x2="246.171" y2="119.11"/>
	<polyline fill="none" stroke="#212830" stroke-width="0.5" stroke-linecap="square" stroke-miterlimit="10" points="   221.328,157.951 221.284,156.451 221.195,154.906 220.975,153.361 220.71,151.728 220.357,150.138 219.96,148.505 219.474,146.828    218.901,145.195 218.283,143.518 217.578,141.885 216.828,140.252 215.989,138.663 215.106,137.074 214.179,135.529    213.208,134.028 212.194,132.528 211.09,131.116 209.988,129.747 208.839,128.423 207.648,127.188 206.457,125.996    205.222,124.892 203.986,123.877 202.707,122.906 201.427,122.023 200.147,121.273  "/>
	<polyline fill="none" stroke="#212830" stroke-width="0.5" stroke-linecap="square" stroke-miterlimit="10" points="   221.373,157.951 200.147,145.725 200.147,121.185  "/>
	<polyline fill="none" stroke="#212830" stroke-width="0.5" stroke-linecap="square" stroke-miterlimit="10" points="   21.522,224.421 21.522,248.917 42.747,261.187  "/>
	<polyline fill="none" stroke="#212830" stroke-width="0.5" stroke-linecap="square" stroke-miterlimit="10" points="   42.703,261.142 42.659,259.642 42.571,258.097 42.35,256.552 42.085,254.919 41.732,253.33 41.335,251.697 40.85,250.019    40.276,248.386 39.658,246.71 38.952,245.076 38.202,243.443 37.364,241.855 36.481,240.265 35.555,238.72 34.584,237.22    33.569,235.72 32.466,234.308 31.363,232.939 30.215,231.615 29.024,230.378 27.833,229.187 26.597,228.083 25.361,227.068    24.082,226.097 22.802,225.214 21.522,224.464  "/>
	
		<line fill="none" stroke="#212830" stroke-width="0.5" stroke-linecap="square" stroke-miterlimit="10" x1="42.747" y1="261.187" x2="42.747" y2="261.187"/>
	
		<line fill="none" stroke="#212830" stroke-width="0.5" stroke-linecap="square" stroke-miterlimit="10" x1="21.522" y1="248.917" x2="21.522" y2="248.917"/>
	
		<line fill="none" stroke="#212830" stroke-width="0.5" stroke-linecap="square" stroke-miterlimit="10" x1="21.522" y1="224.421" x2="21.522" y2="224.421"/>
	
		<line fill="none" stroke="#212830" stroke-width="0.5" stroke-linecap="square" stroke-miterlimit="10" x1="200.147" y1="145.725" x2="200.147" y2="145.725"/>
	
		<line fill="none" stroke="#212830" stroke-width="0.5" stroke-linecap="square" stroke-miterlimit="10" x1="221.373" y1="157.951" x2="221.373" y2="157.951"/>
	
		<line fill="none" stroke="#212830" stroke-width="0.5" stroke-linecap="square" stroke-miterlimit="10" x1="200.147" y1="121.185" x2="200.147" y2="121.185"/>
	
		<line fill="none" stroke="#212830" stroke-width="0.5" stroke-linecap="square" stroke-miterlimit="10" x1="200.147" y1="121.185" x2="21.522" y2="224.421"/>
	
		<line fill="none" stroke="#212830" stroke-width="0.5" stroke-linecap="square" stroke-miterlimit="10" x1="42.747" y1="261.187" x2="221.373" y2="157.951"/>
	
		<line fill="none" stroke="#212830" stroke-width="0.5" stroke-linecap="square" stroke-miterlimit="10" x1="21.522" y1="248.917" x2="200.147" y2="145.725"/>
	
		<line fill="none" stroke="#212830" stroke-width="0.5" stroke-linecap="square" stroke-miterlimit="10" x1="215.15" y1="137.03" x2="36.525" y2="240.265"/>
	
		<line fill="none" stroke="#212830" stroke-width="0.5" stroke-linecap="square" stroke-miterlimit="10" x1="198.823" y1="97.836" x2="87.183" y2="155.568"/>
	<polyline fill="none" stroke="#212830" stroke-width="0.5" stroke-linecap="square" stroke-miterlimit="10" points="   87.183,155.568 85.021,154.375 82.858,153.316 80.652,152.345 78.446,151.462 76.239,150.712 73.989,150.094 71.738,149.609    69.532,149.255 67.326,149.079 65.164,149.035 63.001,149.167 60.927,149.432 58.897,149.874 56.956,150.492 55.059,151.287    53.293,152.212 51.573,153.316 49.94,154.552 48.439,155.964 47.027,157.465 45.748,159.142 44.601,160.908 43.542,162.849    42.615,164.835 41.776,166.911 41.07,169.117 40.497,171.369 40.011,173.664 39.658,176.003 39.438,178.429 39.261,180.857    39.217,183.285  "/>
	
		<line fill="none" stroke="#212830" stroke-width="0.5" stroke-linecap="square" stroke-miterlimit="10" x1="39.217" y1="183.285" x2="156.727" y2="122.156"/>
	<polyline fill="none" stroke="#212830" stroke-width="0.5" stroke-linecap="square" stroke-miterlimit="10" points="   198.823,97.836 196.97,96.865 195.161,95.938 193.352,95.1 191.498,94.394 189.733,93.731 187.924,93.202 186.159,92.805    184.438,92.496 182.717,92.275 181.04,92.143 179.408,92.143 177.775,92.231 176.23,92.408 174.686,92.716 173.186,93.114    171.773,93.599 170.406,94.217 169.082,94.923 167.802,95.718 166.567,96.601 165.419,97.616 164.36,98.675 163.301,99.867    162.375,101.103 161.492,102.471 160.654,103.883 159.948,105.428 159.286,107.017 158.668,108.694 158.183,110.416    157.741,112.225 157.388,114.079 157.08,116.021 156.903,118.007 156.771,120.082 156.727,122.156  "/>
	
		<line fill="none" stroke="#212830" stroke-width="0.5" stroke-linecap="square" stroke-miterlimit="10" x1="131.839" y1="107.767" x2="131.839" y2="107.767"/>
	
		<line fill="none" stroke="#212830" stroke-width="0.5" stroke-linecap="square" stroke-miterlimit="10" x1="198.823" y1="69.059" x2="198.823" y2="69.059"/>
	
		<line fill="none" stroke="#212830" stroke-width="0.5" stroke-linecap="square" stroke-miterlimit="10" x1="20.199" y1="172.294" x2="20.199" y2="172.294"/>
	
		<line fill="none" stroke="#212830" stroke-width="0.5" stroke-linecap="square" stroke-miterlimit="10" x1="87.183" y1="133.587" x2="87.183" y2="133.587"/>
	
		<line fill="none" stroke="#212830" stroke-width="0.5" stroke-linecap="square" stroke-miterlimit="10" x1="156.727" y1="122.156" x2="156.727" y2="122.156"/>
	
		<line fill="none" stroke="#212830" stroke-width="0.5" stroke-linecap="square" stroke-miterlimit="10" x1="39.217" y1="183.285" x2="39.217" y2="183.285"/>
	
		<line fill="none" stroke="#212830" stroke-width="0.5" stroke-linecap="square" stroke-miterlimit="10" x1="87.183" y1="155.568" x2="87.183" y2="155.568"/>
	
		<line fill="none" stroke="#212830" stroke-width="0.5" stroke-linecap="square" stroke-miterlimit="10" x1="198.823" y1="97.836" x2="198.823" y2="97.836"/>
	
		<line fill="none" stroke="#212830" stroke-width="0.5" stroke-linecap="square" stroke-miterlimit="10" x1="87.183" y1="155.568" x2="87.183" y2="133.587"/>
	<polyline fill="none" stroke="#212830" stroke-width="0.5" stroke-linecap="square" stroke-miterlimit="10" points="   87.183,133.587 84.182,131.91 81.137,130.409 78.093,129.041 75.004,127.85 71.871,126.79 68.738,125.907 65.605,125.245    62.516,124.76 59.427,124.495 56.426,124.451 53.426,124.627 50.514,125.024 47.689,125.643 44.954,126.481 42.35,127.584    39.835,128.865 37.408,130.409 35.157,132.131 33.083,134.073 31.098,136.235 29.333,138.575 27.7,141.046 26.2,143.694    24.92,146.519 23.773,149.432 22.802,152.478 21.963,155.611 21.302,158.833 20.816,162.144 20.463,165.498 20.243,168.896    20.199,172.294  "/>
	
		<line fill="none" stroke="#212830" stroke-width="0.5" stroke-linecap="square" stroke-miterlimit="10" x1="20.199" y1="172.294" x2="39.217" y2="183.285"/>
	
		<line fill="none" stroke="#212830" stroke-width="0.5" stroke-linecap="square" stroke-miterlimit="10" x1="87.183" y1="133.587" x2="198.823" y2="69.059"/>
	<polyline fill="none" stroke="#212830" stroke-width="0.5" stroke-linecap="square" stroke-miterlimit="10" points="   198.823,69.059 195.823,67.426 192.778,65.881 189.733,64.513 186.645,63.321 183.511,62.262 180.378,61.423 177.246,60.717    174.157,60.232 171.068,59.967 168.067,59.923 165.066,60.1 162.154,60.497 159.33,61.115 156.594,61.998 153.946,63.057    151.431,64.381 149.048,65.881 146.798,67.647 144.724,69.589 142.738,71.708 140.973,74.047 139.296,76.563 137.84,79.21    136.517,81.991 135.413,84.904 134.398,87.95 133.604,91.127 132.942,94.35 132.457,97.616 132.104,100.97 131.883,104.369    131.839,107.767  "/>
	
		<line fill="none" stroke="#212830" stroke-width="0.5" stroke-linecap="square" stroke-miterlimit="10" x1="131.839" y1="107.767" x2="20.199" y2="172.294"/>
	
		<line fill="none" stroke="#212830" stroke-width="0.5" stroke-linecap="square" stroke-miterlimit="10" x1="198.823" y1="69.059" x2="198.823" y2="97.836"/>
	
		<line fill="none" stroke="#212830" stroke-width="0.5" stroke-linecap="square" stroke-miterlimit="10" x1="156.727" y1="122.156" x2="131.839" y2="107.767"/>
	
		<line fill="none" stroke="#212830" stroke-width="0.5" stroke-linecap="square" stroke-miterlimit="10" x1="169.038" y1="94.879" x2="53.293" y2="152.212"/>
	
		<line fill="none" stroke="#212830" stroke-width="0.5" stroke-linecap="square" stroke-miterlimit="10" x1="39.835" y1="128.865" x2="151.431" y2="64.381"/>
	<polyline fill="none" stroke="#212830" stroke-width="0.5" stroke-linecap="square" stroke-miterlimit="10" points="   200.147,170.177 201.427,170.882 202.707,171.501 203.986,171.986 205.222,172.427 206.457,172.736 207.648,172.957    208.839,173.046 209.988,173.089 211.09,173.001 212.194,172.826 213.208,172.515 214.179,172.164 215.15,171.677 215.989,171.103    216.828,170.441 217.578,169.691 218.283,168.853 218.901,167.925 219.474,166.911 219.96,165.851 220.357,164.704 220.71,163.468    220.975,162.188 221.195,160.82 221.284,159.408 221.328,157.951  "/>
	<polyline fill="none" stroke="#212830" stroke-width="0.5" stroke-linecap="square" stroke-miterlimit="10" points="   200.147,170.22 200.147,145.725 221.373,157.951  "/>
	<polyline fill="none" stroke="#212830" stroke-width="0.5" stroke-linecap="square" stroke-miterlimit="10" points="   42.747,261.187 21.522,248.917 21.522,273.457  "/>
	<polyline fill="none" stroke="#212830" stroke-width="0.5" stroke-linecap="square" stroke-miterlimit="10" points="   21.522,273.369 22.802,274.074 24.082,274.693 25.361,275.177 26.597,275.619 27.833,275.929 29.024,276.148 30.215,276.238    31.363,276.281 32.466,276.193 33.569,276.017 34.584,275.708 35.555,275.355 36.525,274.869 37.364,274.294 38.202,273.632    38.952,272.882 39.658,272.044 40.276,271.117 40.85,270.103 41.335,269.042 41.732,267.896 42.085,266.66 42.35,265.38    42.571,264.011 42.659,262.599 42.703,261.142  "/>
	
		<line fill="none" stroke="#212830" stroke-width="0.5" stroke-linecap="square" stroke-miterlimit="10" x1="21.522" y1="273.457" x2="21.522" y2="273.457"/>
	
		<line fill="none" stroke="#212830" stroke-width="0.5" stroke-linecap="square" stroke-miterlimit="10" x1="21.522" y1="248.917" x2="21.522" y2="248.917"/>
	
		<line fill="none" stroke="#212830" stroke-width="0.5" stroke-linecap="square" stroke-miterlimit="10" x1="42.747" y1="261.187" x2="42.747" y2="261.187"/>
	
		<line fill="none" stroke="#212830" stroke-width="0.5" stroke-linecap="square" stroke-miterlimit="10" x1="200.147" y1="145.725" x2="200.147" y2="145.725"/>
	
		<line fill="none" stroke="#212830" stroke-width="0.5" stroke-linecap="square" stroke-miterlimit="10" x1="200.147" y1="170.22" x2="200.147" y2="170.22"/>
	
		<line fill="none" stroke="#212830" stroke-width="0.5" stroke-linecap="square" stroke-miterlimit="10" x1="221.373" y1="157.951" x2="221.373" y2="157.951"/>
	
		<line fill="none" stroke="#212830" stroke-width="0.5" stroke-linecap="square" stroke-miterlimit="10" x1="221.373" y1="157.951" x2="42.747" y2="261.187"/>
	
		<line fill="none" stroke="#212830" stroke-width="0.5" stroke-linecap="square" stroke-miterlimit="10" x1="21.522" y1="273.457" x2="200.147" y2="170.22"/>
	
		<line fill="none" stroke="#212830" stroke-width="0.5" stroke-linecap="square" stroke-miterlimit="10" x1="21.522" y1="248.917" x2="200.147" y2="145.725"/>
	
		<line fill="none" stroke="#212830" stroke-width="0.5" stroke-linecap="square" stroke-miterlimit="10" x1="215.15" y1="171.722" x2="36.525" y2="274.914"/>
	
		<line fill="none" stroke="#212830" stroke-width="0.5" stroke-linecap="square" stroke-miterlimit="10" x1="156.727" y1="122.156" x2="39.217" y2="183.285"/>
	<polyline fill="none" stroke="#212830" stroke-width="0.5" stroke-linecap="square" stroke-miterlimit="10" points="   39.217,183.285 39.261,185.8 39.438,188.361 39.658,191.054 40.011,193.833 40.497,196.703 41.07,199.617 41.776,202.574    42.615,205.619 43.542,208.708 44.601,211.841 45.748,214.976 47.027,218.109 48.439,221.287 49.94,224.421 51.573,227.509    53.293,230.599 55.059,233.601 56.956,236.558 58.897,239.427 60.927,242.208 63.001,244.9 65.164,247.503 67.326,249.976    69.532,252.316 71.738,254.566 73.989,256.64 76.239,258.626 78.446,260.437 80.652,262.158 82.858,263.703 85.021,265.115    87.183,266.439  "/>
	
		<line fill="none" stroke="#212830" stroke-width="0.5" stroke-linecap="square" stroke-miterlimit="10" x1="87.183" y1="266.439" x2="198.823" y2="195.158"/>
	<polyline fill="none" stroke="#212830" stroke-width="0.5" stroke-linecap="square" stroke-miterlimit="10" points="   156.727,122.156 156.771,124.318 156.903,126.481 157.08,128.732 157.344,130.983 157.741,133.278 158.183,135.573    158.668,137.913 159.286,140.252 159.948,142.635 160.654,144.975 161.492,147.358 162.375,149.742 163.301,152.081    164.316,154.464 165.419,156.803 166.567,159.098 167.802,161.394 169.038,163.644 170.362,165.896 171.773,168.103    173.186,170.265 174.686,172.339 176.186,174.414 177.775,176.445 179.363,178.386 181.04,180.285 182.717,182.093    184.438,183.859 186.159,185.537 187.924,187.125 189.689,188.669 191.498,190.126 193.308,191.494 195.161,192.775    196.97,193.966 198.823,195.115  "/>
	
		<line fill="none" stroke="#212830" stroke-width="0.5" stroke-linecap="square" stroke-miterlimit="10" x1="198.823" y1="223.89" x2="198.823" y2="223.89"/>
	
		<line fill="none" stroke="#212830" stroke-width="0.5" stroke-linecap="square" stroke-miterlimit="10" x1="131.839" y1="107.767" x2="131.839" y2="107.767"/>
	
		<line fill="none" stroke="#212830" stroke-width="0.5" stroke-linecap="square" stroke-miterlimit="10" x1="87.183" y1="288.419" x2="87.183" y2="288.419"/>
	
		<line fill="none" stroke="#212830" stroke-width="0.5" stroke-linecap="square" stroke-miterlimit="10" x1="20.199" y1="172.294" x2="20.199" y2="172.294"/>
	
		<line fill="none" stroke="#212830" stroke-width="0.5" stroke-linecap="square" stroke-miterlimit="10" x1="198.823" y1="195.158" x2="198.823" y2="195.158"/>
	
		<line fill="none" stroke="#212830" stroke-width="0.5" stroke-linecap="square" stroke-miterlimit="10" x1="87.183" y1="266.439" x2="87.183" y2="266.439"/>
	
		<line fill="none" stroke="#212830" stroke-width="0.5" stroke-linecap="square" stroke-miterlimit="10" x1="39.217" y1="183.285" x2="39.217" y2="183.285"/>
	
		<line fill="none" stroke="#212830" stroke-width="0.5" stroke-linecap="square" stroke-miterlimit="10" x1="156.727" y1="122.156" x2="156.727" y2="122.156"/>
	
		<line fill="none" stroke="#212830" stroke-width="0.5" stroke-linecap="square" stroke-miterlimit="10" x1="39.217" y1="183.285" x2="20.199" y2="172.294"/>
	<polyline fill="none" stroke="#212830" stroke-width="0.5" stroke-linecap="square" stroke-miterlimit="10" points="   20.199,172.294 20.243,175.783 20.463,179.402 20.816,183.152 21.302,187.037 21.963,191.009 22.802,195.07 23.773,199.263    24.92,203.5 26.2,207.826 27.7,212.15 29.333,216.564 31.098,220.978 33.083,225.347 35.157,229.761 37.408,234.087    39.835,238.369 42.35,242.56 44.954,246.71 47.689,250.726 50.514,254.611 53.426,258.361 56.426,261.982 59.427,265.423    62.516,268.734 65.605,271.824 68.738,274.781 71.871,277.517 75.004,280.078 78.093,282.46 81.137,284.623 84.182,286.609    87.183,288.419  "/>
	
		<line fill="none" stroke="#212830" stroke-width="0.5" stroke-linecap="square" stroke-miterlimit="10" x1="87.183" y1="288.419" x2="87.183" y2="266.439"/>
	
		<line fill="none" stroke="#212830" stroke-width="0.5" stroke-linecap="square" stroke-miterlimit="10" x1="20.199" y1="172.294" x2="131.839" y2="107.767"/>
	<polyline fill="none" stroke="#212830" stroke-width="0.5" stroke-linecap="square" stroke-miterlimit="10" points="   131.839,107.767 131.883,111.254 132.104,114.873 132.457,118.625 132.942,122.509 133.604,126.481 134.398,130.586    135.413,134.735 136.517,138.972 137.84,143.297 139.296,147.667 140.973,152.037 142.738,156.451 144.724,160.864    146.798,165.234 149.048,169.558 151.431,173.839 153.946,178.078 156.594,182.181 159.33,186.199 162.154,190.082    165.066,193.878 168.067,197.453 171.068,200.939 174.157,204.207 177.246,207.339 180.378,210.253 183.511,212.99    186.645,215.548 189.733,217.933 192.778,220.095 195.823,222.082 198.823,223.89  "/>
	
		<line fill="none" stroke="#212830" stroke-width="0.5" stroke-linecap="square" stroke-miterlimit="10" x1="198.823" y1="223.89" x2="87.183" y2="288.419"/>
	
		<line fill="none" stroke="#212830" stroke-width="0.5" stroke-linecap="square" stroke-miterlimit="10" x1="131.839" y1="107.767" x2="156.727" y2="122.156"/>
	
		<line fill="none" stroke="#212830" stroke-width="0.5" stroke-linecap="square" stroke-miterlimit="10" x1="198.823" y1="195.158" x2="198.823" y2="223.89"/>
	
		<line fill="none" stroke="#212830" stroke-width="0.5" stroke-linecap="square" stroke-miterlimit="10" x1="169.038" y1="163.689" x2="53.293" y2="230.599"/>
	
		<line fill="none" stroke="#212830" stroke-width="0.5" stroke-linecap="square" stroke-miterlimit="10" x1="39.835" y1="238.369" x2="151.431" y2="173.839"/>
	<polyline fill="none" stroke="#212830" stroke-width="0.5" stroke-linecap="square" stroke-miterlimit="10" points="   178.966,133.499 179.01,135 179.099,136.544 179.319,138.089 179.584,139.722 179.937,141.311 180.334,142.944 180.82,144.622    181.393,146.254 182.011,147.932 182.717,149.564 183.467,151.198 184.306,152.787 185.188,154.375 186.115,155.92    187.085,157.421 188.101,158.921 189.204,160.333 190.307,161.703 191.454,163.027 192.646,164.262 193.837,165.455    195.073,166.557 196.308,167.572 197.588,168.544 198.868,169.425 200.147,170.177  "/>
	<polyline fill="none" stroke="#212830" stroke-width="0.5" stroke-linecap="square" stroke-miterlimit="10" points="   178.922,133.455 200.147,145.725 200.147,170.22  "/>
	<polyline fill="none" stroke="#212830" stroke-width="0.5" stroke-linecap="square" stroke-miterlimit="10" points="   21.522,273.457 21.522,248.917 0.341,236.691  "/>
	<polyline fill="none" stroke="#212830" stroke-width="0.5" stroke-linecap="square" stroke-miterlimit="10" points="0.341,236.691    0.386,238.191 0.474,239.736 0.694,241.281 0.959,242.914 1.312,244.503 1.709,246.136 2.195,247.814 2.769,249.447 3.386,251.123    4.092,252.757 4.842,254.39 5.681,255.978 6.563,257.568 7.49,259.113 8.461,260.613 9.476,262.113 10.579,263.525 11.682,264.894    12.829,266.218 14.021,267.455 15.212,268.646 16.448,269.75 17.683,270.765 18.963,271.736 20.243,272.619 21.522,273.369  "/>
	
		<line fill="none" stroke="#212830" stroke-width="0.5" stroke-linecap="square" stroke-miterlimit="10" x1="0.341" y1="236.691" x2="0.341" y2="236.691"/>
	
		<line fill="none" stroke="#212830" stroke-width="0.5" stroke-linecap="square" stroke-miterlimit="10" x1="21.522" y1="248.917" x2="21.522" y2="248.917"/>
	
		<line fill="none" stroke="#212830" stroke-width="0.5" stroke-linecap="square" stroke-miterlimit="10" x1="21.522" y1="273.457" x2="21.522" y2="273.457"/>
	
		<line fill="none" stroke="#212830" stroke-width="0.5" stroke-linecap="square" stroke-miterlimit="10" x1="200.147" y1="145.725" x2="200.147" y2="145.725"/>
	
		<line fill="none" stroke="#212830" stroke-width="0.5" stroke-linecap="square" stroke-miterlimit="10" x1="178.922" y1="133.455" x2="178.922" y2="133.455"/>
	
		<line fill="none" stroke="#212830" stroke-width="0.5" stroke-linecap="square" stroke-miterlimit="10" x1="200.147" y1="170.22" x2="200.147" y2="170.22"/>
	
		<line fill="none" stroke="#212830" stroke-width="0.5" stroke-linecap="square" stroke-miterlimit="10" x1="200.147" y1="170.22" x2="21.522" y2="273.457"/>
	
		<line fill="none" stroke="#212830" stroke-width="0.5" stroke-linecap="square" stroke-miterlimit="10" x1="0.341" y1="236.691" x2="178.922" y2="133.455"/>
	
		<line fill="none" stroke="#212830" stroke-width="0.5" stroke-linecap="square" stroke-miterlimit="10" x1="21.522" y1="248.917" x2="200.147" y2="145.725"/>
	
		<line fill="none" stroke="#212830" stroke-width="0.5" stroke-linecap="square" stroke-miterlimit="10" x1="185.144" y1="154.375" x2="6.519" y2="257.611"/>
	
		<line fill="none" stroke="#212830" stroke-width="0.5" stroke-linecap="square" stroke-miterlimit="10" x1="198.823" y1="195.158" x2="87.183" y2="266.439"/>
	<polyline fill="none" stroke="#212830" stroke-width="0.5" stroke-linecap="square" stroke-miterlimit="10" points="   87.183,266.439 89.301,267.585 91.507,268.689 93.669,269.662 95.92,270.544 98.126,271.294 100.376,271.912 102.627,272.398    104.833,272.707 107.04,272.927 109.202,272.97 111.32,272.839 113.394,272.529 115.424,272.087 117.41,271.47 119.263,270.72    121.072,269.792 122.793,268.689 124.381,267.455 125.926,266.042 127.294,264.498 128.618,262.863 129.765,261.054    130.824,259.156 131.75,257.169 132.589,255.052 133.295,252.888 133.869,250.638 134.31,248.343 134.663,245.958 134.928,243.576    135.06,241.148 135.148,238.72  "/>
	
		<line fill="none" stroke="#212830" stroke-width="0.5" stroke-linecap="square" stroke-miterlimit="10" x1="135.148" y1="238.72" x2="240.92" y2="170.794"/>
	<polyline fill="none" stroke="#212830" stroke-width="0.5" stroke-linecap="square" stroke-miterlimit="10" points="   198.823,195.115 200.677,196.085 202.486,197.011 204.295,197.851 206.148,198.556 207.914,199.218 209.722,199.705    211.488,200.146 213.208,200.455 214.929,200.675 216.607,200.808 218.239,200.808 219.872,200.718 221.416,200.542    222.96,200.234 224.46,199.837 225.873,199.351 227.241,198.734 228.609,198.027 229.844,197.232 231.08,196.349 232.227,195.335    233.287,194.275 234.345,193.083 235.272,191.847 236.155,190.48 236.993,189.068 237.699,187.523 238.361,185.933    238.979,184.255 239.464,182.535 239.905,180.726 240.258,178.871 240.567,176.929 240.744,174.943 240.876,172.869    240.92,170.794  "/>
	
		<line fill="none" stroke="#212830" stroke-width="0.5" stroke-linecap="square" stroke-miterlimit="10" x1="265.808" y1="185.183" x2="265.808" y2="185.183"/>
	
		<line fill="none" stroke="#212830" stroke-width="0.5" stroke-linecap="square" stroke-miterlimit="10" x1="198.823" y1="223.89" x2="198.823" y2="223.89"/>
	
		<line fill="none" stroke="#212830" stroke-width="0.5" stroke-linecap="square" stroke-miterlimit="10" x1="154.167" y1="249.71" x2="154.167" y2="249.71"/>
	
		<line fill="none" stroke="#212830" stroke-width="0.5" stroke-linecap="square" stroke-miterlimit="10" x1="87.183" y1="288.419" x2="87.183" y2="288.419"/>
	
		<line fill="none" stroke="#212830" stroke-width="0.5" stroke-linecap="square" stroke-miterlimit="10" x1="240.92" y1="170.794" x2="240.92" y2="170.794"/>
	
		<line fill="none" stroke="#212830" stroke-width="0.5" stroke-linecap="square" stroke-miterlimit="10" x1="135.148" y1="238.72" x2="135.148" y2="238.72"/>
	
		<line fill="none" stroke="#212830" stroke-width="0.5" stroke-linecap="square" stroke-miterlimit="10" x1="87.183" y1="266.439" x2="87.183" y2="266.439"/>
	
		<line fill="none" stroke="#212830" stroke-width="0.5" stroke-linecap="square" stroke-miterlimit="10" x1="198.823" y1="195.158" x2="198.823" y2="195.158"/>
	
		<line fill="none" stroke="#212830" stroke-width="0.5" stroke-linecap="square" stroke-miterlimit="10" x1="87.183" y1="266.439" x2="87.183" y2="288.419"/>
	<polyline fill="none" stroke="#212830" stroke-width="0.5" stroke-linecap="square" stroke-miterlimit="10" points="   87.183,288.419 90.184,290.052 93.184,291.597 96.273,292.964 99.362,294.156 102.495,295.216 105.628,296.099 108.717,296.761    111.85,297.246 114.895,297.511 117.939,297.556 120.94,297.378 123.852,296.982 126.676,296.363 129.412,295.48 132.016,294.421    134.531,293.097 136.914,291.597 139.164,289.832 141.282,287.89 143.224,285.771 145.033,283.431 146.666,280.96 148.166,278.267    149.446,275.488 150.593,272.574 151.563,269.529 152.402,266.394 153.02,263.128 153.549,259.863 153.902,256.507    154.079,253.109 154.167,249.71  "/>
	
		<line fill="none" stroke="#212830" stroke-width="0.5" stroke-linecap="square" stroke-miterlimit="10" x1="154.167" y1="249.71" x2="135.148" y2="238.72"/>
	
		<line fill="none" stroke="#212830" stroke-width="0.5" stroke-linecap="square" stroke-miterlimit="10" x1="87.183" y1="288.419" x2="198.823" y2="223.89"/>
	<polyline fill="none" stroke="#212830" stroke-width="0.5" stroke-linecap="square" stroke-miterlimit="10" points="   198.823,223.89 201.78,225.568 204.825,227.068 207.914,228.437 211.002,229.673 214.135,230.689 217.224,231.57 220.357,232.232    223.49,232.718 226.535,232.984 229.58,233.027 232.536,232.851 235.449,232.453 238.317,231.835 241.052,230.998 243.656,229.894    246.171,228.613 248.554,227.068 250.804,225.347 252.922,223.406 254.864,221.244 256.673,218.904 258.306,216.431    259.762,213.783 261.086,210.958 262.233,208.046 263.205,205 264.042,201.867 264.661,198.644 265.19,195.335 265.542,191.98    265.719,188.626 265.808,185.183  "/>
	
		<line fill="none" stroke="#212830" stroke-width="0.5" stroke-linecap="square" stroke-miterlimit="10" x1="265.808" y1="185.183" x2="154.167" y2="249.71"/>
	
		<line fill="none" stroke="#212830" stroke-width="0.5" stroke-linecap="square" stroke-miterlimit="10" x1="198.823" y1="223.89" x2="198.823" y2="195.158"/>
	
		<line fill="none" stroke="#212830" stroke-width="0.5" stroke-linecap="square" stroke-miterlimit="10" x1="240.92" y1="170.794" x2="265.808" y2="185.183"/>
	
		<line fill="none" stroke="#212830" stroke-width="0.5" stroke-linecap="square" stroke-miterlimit="10" x1="228.565" y1="198.115" x2="121.072" y2="269.792"/>
	
		<line fill="none" stroke="#212830" stroke-width="0.5" stroke-linecap="square" stroke-miterlimit="10" x1="134.531" y1="293.097" x2="246.171" y2="228.613"/>
	
		<line fill="none" stroke="#212830" stroke-width="0.5" stroke-linecap="square" stroke-miterlimit="10" x1="200.147" y1="145.725" x2="178.922" y2="133.455"/>
	<polyline fill="none" stroke="#212830" stroke-width="0.5" stroke-linecap="square" stroke-miterlimit="10" points="   200.147,121.273 198.868,120.567 197.588,119.949 196.308,119.463 195.073,119.022 193.837,118.713 192.646,118.492    191.454,118.404 190.307,118.36 189.204,118.448 188.101,118.625 187.085,118.934 186.115,119.287 185.188,119.772    184.306,120.346 183.467,121.008 182.717,121.758 182.011,122.597 181.393,123.524 180.82,124.539 180.334,125.599    179.937,126.746 179.584,127.982 179.319,129.262 179.099,130.63 179.01,132.042 178.966,133.499  "/>
	
		<line fill="none" stroke="#212830" stroke-width="0.5" stroke-linecap="square" stroke-miterlimit="10" x1="200.147" y1="121.185" x2="200.147" y2="145.725"/>
	
		<line fill="none" stroke="#212830" stroke-width="0.5" stroke-linecap="square" stroke-miterlimit="10" x1="21.522" y1="248.917" x2="21.522" y2="224.421"/>
	<polyline fill="none" stroke="#212830" stroke-width="0.5" stroke-linecap="square" stroke-miterlimit="10" points="   21.522,224.464 20.243,223.759 18.963,223.14 17.683,222.656 16.448,222.214 15.212,221.906 14.021,221.685 12.829,221.595    11.682,221.552 10.579,221.64 9.476,221.816 8.461,222.126 7.49,222.478 6.563,222.964 5.681,223.539 4.842,224.201 4.092,224.951    3.386,225.789 2.769,226.716 2.195,227.73 1.709,228.791 1.312,229.937 0.959,231.173 0.694,232.453 0.474,233.822 0.386,235.234    0.341,236.691  "/>
	
		<line fill="none" stroke="#212830" stroke-width="0.5" stroke-linecap="square" stroke-miterlimit="10" x1="0.341" y1="236.691" x2="0.341" y2="236.691"/>
	
		<line fill="none" stroke="#212830" stroke-width="0.5" stroke-linecap="square" stroke-miterlimit="10" x1="21.522" y1="224.421" x2="21.522" y2="224.421"/>
	
		<line fill="none" stroke="#212830" stroke-width="0.5" stroke-linecap="square" stroke-miterlimit="10" x1="21.522" y1="248.917" x2="21.522" y2="248.917"/>
	
		<line fill="none" stroke="#212830" stroke-width="0.5" stroke-linecap="square" stroke-miterlimit="10" x1="200.147" y1="121.185" x2="200.147" y2="121.185"/>
	
		<line fill="none" stroke="#212830" stroke-width="0.5" stroke-linecap="square" stroke-miterlimit="10" x1="178.922" y1="133.455" x2="178.922" y2="133.455"/>
	
		<line fill="none" stroke="#212830" stroke-width="0.5" stroke-linecap="square" stroke-miterlimit="10" x1="200.147" y1="145.725" x2="200.147" y2="145.725"/>
	
		<line fill="none" stroke="#212830" stroke-width="0.5" stroke-linecap="square" stroke-miterlimit="10" x1="21.522" y1="248.917" x2="21.522" y2="248.917"/>
	<polyline fill="none" stroke="#212830" stroke-width="0.5" stroke-linecap="square" stroke-miterlimit="10" points="0.341,236.691    21.522,248.917 200.147,145.725  "/>
	
		<line fill="none" stroke="#212830" stroke-width="0.5" stroke-linecap="square" stroke-miterlimit="10" x1="0.341" y1="236.691" x2="178.922" y2="133.455"/>
	
		<line fill="none" stroke="#212830" stroke-width="0.5" stroke-linecap="square" stroke-miterlimit="10" x1="21.522" y1="224.421" x2="200.147" y2="121.185"/>
	
		<line fill="none" stroke="#212830" stroke-width="0.5" stroke-linecap="square" stroke-miterlimit="10" x1="185.144" y1="119.728" x2="6.519" y2="222.919"/>
	
		<line fill="none" stroke="#212830" stroke-width="0.5" stroke-linecap="square" stroke-miterlimit="10" x1="334.116" y1="92.805" x2="66.178" y2="247.636"/>
	<polyline fill="none" stroke="#212830" stroke-width="0.5" stroke-linecap="square" stroke-miterlimit="10" points="   66.178,247.593 67.502,248.298 68.782,248.917 70.062,249.447 71.341,249.843 72.577,250.152 73.813,250.373 75.004,250.46    76.195,250.505 77.298,250.373 78.401,250.197 79.417,249.888 80.431,249.49 81.358,248.96 82.241,248.386 83.079,247.681    83.829,246.886 84.491,246.003 85.109,245.033 85.683,243.974 86.124,242.871 86.521,241.677 86.874,240.398 87.095,239.074  "/>
	
		<line fill="none" stroke="#212830" stroke-width="0.5" stroke-linecap="square" stroke-miterlimit="10" x1="87.139" y1="239.074" x2="355.076" y2="84.242"/>
	<polyline fill="none" stroke="#212830" stroke-width="0.5" stroke-linecap="square" stroke-miterlimit="10" points="   334.116,92.761 335.44,93.467 336.719,94.085 337.999,94.614 339.279,95.012 340.514,95.321 341.75,95.542 342.941,95.629    344.132,95.674 345.236,95.542 346.338,95.365 347.354,95.056 348.369,94.659 349.295,94.129 350.178,93.555 351.016,92.849    351.766,92.055 352.428,91.172 353.046,90.201 353.62,89.142 354.061,88.038 354.458,86.846 354.811,85.566 355.032,84.242  "/>
	
		<line fill="none" stroke="#212830" stroke-width="0.5" stroke-linecap="square" stroke-miterlimit="10" x1="66.178" y1="247.636" x2="66.178" y2="279.9"/>
	<polyline fill="none" stroke="#212830" stroke-width="0.5" stroke-linecap="square" stroke-miterlimit="10" points="66.178,279.9    69.355,281.623 72.533,283.078 75.71,284.314 78.799,285.285 81.843,285.992 84.844,286.433 87.756,286.609 90.581,286.521    93.272,286.125 95.875,285.505 98.391,284.623 100.729,283.476 102.892,282.064 104.966,280.386 106.819,278.488 108.54,276.369    110.041,274.031 111.408,271.47 112.556,268.689 113.526,265.732 114.188,262.953 114.718,260.039  "/>
	
		<line fill="none" stroke="#212830" stroke-width="0.5" stroke-linecap="square" stroke-miterlimit="10" x1="114.718" y1="260.039" x2="87.139" y2="239.074"/>
	
		<line fill="none" stroke="#212830" stroke-width="0.5" stroke-linecap="square" stroke-miterlimit="10" x1="66.178" y1="279.9" x2="334.116" y2="108.827"/>
	<polyline fill="none" stroke="#212830" stroke-width="0.5" stroke-linecap="square" stroke-miterlimit="10" points="   334.116,108.827 335.749,109.709 337.425,110.548 339.058,111.254 340.691,111.872 342.324,112.446 343.912,112.843    345.457,113.196 347.044,113.417 348.545,113.549 350.045,113.593 351.501,113.549 352.914,113.373 354.282,113.108    355.605,112.71 356.885,112.269 358.121,111.695 359.312,111.033 360.416,110.283 361.474,109.444 362.489,108.518    363.416,107.458 364.298,106.355 365.092,105.163 365.843,103.883 366.504,102.515 367.123,101.103 367.652,99.558 368.093,98.013    368.446,96.336 368.755,94.659  "/>
	
		<line fill="none" stroke="#212830" stroke-width="0.5" stroke-linecap="square" stroke-miterlimit="10" x1="368.755" y1="94.659" x2="368.755" y2="94.659"/>
	
		<line fill="none" stroke="#212830" stroke-width="0.5" stroke-linecap="square" stroke-miterlimit="10" x1="334.116" y1="108.827" x2="334.116" y2="108.827"/>
	
		<line fill="none" stroke="#212830" stroke-width="0.5" stroke-linecap="square" stroke-miterlimit="10" x1="114.718" y1="260.039" x2="114.718" y2="260.039"/>
	
		<line fill="none" stroke="#212830" stroke-width="0.5" stroke-linecap="square" stroke-miterlimit="10" x1="66.178" y1="279.9" x2="66.178" y2="279.9"/>
	
		<line fill="none" stroke="#212830" stroke-width="0.5" stroke-linecap="square" stroke-miterlimit="10" x1="355.076" y1="84.242" x2="355.076" y2="84.242"/>
	
		<line fill="none" stroke="#212830" stroke-width="0.5" stroke-linecap="square" stroke-miterlimit="10" x1="87.139" y1="239.074" x2="87.139" y2="239.074"/>
	
		<line fill="none" stroke="#212830" stroke-width="0.5" stroke-linecap="square" stroke-miterlimit="10" x1="66.178" y1="247.636" x2="66.178" y2="247.636"/>
	
		<line fill="none" stroke="#212830" stroke-width="0.5" stroke-linecap="square" stroke-miterlimit="10" x1="334.116" y1="92.805" x2="334.116" y2="92.805"/>
	
		<line fill="none" stroke="#212830" stroke-width="0.5" stroke-linecap="square" stroke-miterlimit="10" x1="368.755" y1="94.659" x2="114.718" y2="260.039"/>
	
		<line fill="none" stroke="#212830" stroke-width="0.5" stroke-linecap="square" stroke-miterlimit="10" x1="334.116" y1="108.827" x2="334.116" y2="92.805"/>
	
		<line fill="none" stroke="#212830" stroke-width="0.5" stroke-linecap="square" stroke-miterlimit="10" x1="355.076" y1="84.242" x2="368.755" y2="94.659"/>
	
		<line fill="none" stroke="#212830" stroke-width="0.5" stroke-linecap="square" stroke-miterlimit="10" x1="79.946" y1="249.71" x2="347.883" y2="94.879"/>
	
		<line fill="none" stroke="#212830" stroke-width="0.5" stroke-linecap="square" stroke-miterlimit="10" x1="356.885" y1="112.269" x2="98.082" y2="284.712"/>
	
		<line fill="none" stroke="#212830" stroke-width="0.5" stroke-linecap="square" stroke-miterlimit="10" x1="378.772" y1="66.985" x2="334.116" y2="92.805"/>
	<polyline fill="none" stroke="#212830" stroke-width="0.5" stroke-linecap="square" stroke-miterlimit="10" points="   334.116,92.761 335.395,93.467 336.675,94.085 337.955,94.57 339.19,95.012 340.425,95.321 341.618,95.542 342.809,95.629    343.956,95.674 345.059,95.585 346.163,95.409 347.177,95.1 348.148,94.747 349.119,94.261 349.958,93.688 350.795,93.025    351.545,92.275 352.251,91.437 352.87,90.51 353.443,89.495 353.928,88.435 354.326,87.288 354.679,86.052 354.944,84.772    355.165,83.404 355.252,81.991 355.296,80.535  "/>
	
		<line fill="none" stroke="#212830" stroke-width="0.5" stroke-linecap="square" stroke-miterlimit="10" x1="355.34" y1="80.535" x2="399.997" y2="54.759"/>
	<polyline fill="none" stroke="#212830" stroke-width="0.5" stroke-linecap="square" stroke-miterlimit="10" points="378.772,66.94    380.051,67.647 381.332,68.265 382.611,68.75 383.846,69.191 385.082,69.5 386.273,69.721 387.464,69.81 388.612,69.854    389.715,69.766 390.819,69.589 391.833,69.28 392.804,68.927 393.775,68.441 394.614,67.868 395.452,67.206 396.202,66.455    396.908,65.617 397.526,64.689 398.099,63.674 398.584,62.615 398.982,61.468 399.334,60.232 399.6,58.952 399.82,57.583    399.909,56.171 399.953,54.715  "/>
	
		<line fill="none" stroke="#212830" stroke-width="0.5" stroke-linecap="square" stroke-miterlimit="10" x1="334.116" y1="92.805" x2="334.116" y2="108.827"/>
	<polyline fill="none" stroke="#212830" stroke-width="0.5" stroke-linecap="square" stroke-miterlimit="10" points="   334.116,108.827 335.792,109.753 337.469,110.548 339.102,111.298 340.735,111.916 342.368,112.446 344,112.887 345.588,113.196    347.133,113.461 348.677,113.549 350.178,113.593 351.634,113.505 353.09,113.329 354.458,113.063 355.782,112.667    357.062,112.181 358.297,111.607 359.489,110.901 360.636,110.15 361.695,109.268 362.666,108.297 363.636,107.237 364.475,106.09    365.269,104.854 366.019,103.574 366.681,102.162 367.254,100.705 367.785,99.161 368.181,97.527 368.535,95.85 368.843,94.129    369.02,92.319 369.152,90.465 369.197,88.568  "/>
	
		<line fill="none" stroke="#212830" stroke-width="0.5" stroke-linecap="square" stroke-miterlimit="10" x1="369.197" y1="88.568" x2="355.34" y2="80.535"/>
	
		<line fill="none" stroke="#212830" stroke-width="0.5" stroke-linecap="square" stroke-miterlimit="10" x1="334.116" y1="108.827" x2="378.772" y2="80.314"/>
	<polyline fill="none" stroke="#212830" stroke-width="0.5" stroke-linecap="square" stroke-miterlimit="10" points="   378.772,80.314 380.361,81.197 381.994,81.947 383.582,82.653 385.17,83.271 386.714,83.757 388.259,84.154 389.803,84.463    391.304,84.64 392.76,84.728 394.216,84.728 395.584,84.64 396.952,84.419 398.276,84.11 399.555,83.712 400.747,83.183    401.938,82.565 403.042,81.859 404.056,81.064 405.072,80.182 405.998,79.21 406.836,78.151 407.63,76.959 408.381,75.724    408.999,74.4 409.617,73.032 410.102,71.531 410.543,69.986 410.896,68.397 411.161,66.72 411.337,64.999 411.47,63.233    411.514,61.379  "/>
	
		<line fill="none" stroke="#212830" stroke-width="0.5" stroke-linecap="square" stroke-miterlimit="10" x1="411.514" y1="61.423" x2="411.514" y2="61.423"/>
	
		<line fill="none" stroke="#212830" stroke-width="0.5" stroke-linecap="square" stroke-miterlimit="10" x1="378.772" y1="80.314" x2="378.772" y2="80.314"/>
	
		<line fill="none" stroke="#212830" stroke-width="0.5" stroke-linecap="square" stroke-miterlimit="10" x1="369.197" y1="88.568" x2="369.197" y2="88.568"/>
	
		<line fill="none" stroke="#212830" stroke-width="0.5" stroke-linecap="square" stroke-miterlimit="10" x1="334.116" y1="108.827" x2="334.116" y2="108.827"/>
	
		<line fill="none" stroke="#212830" stroke-width="0.5" stroke-linecap="square" stroke-miterlimit="10" x1="399.997" y1="54.759" x2="399.997" y2="54.759"/>
	
		<line fill="none" stroke="#212830" stroke-width="0.5" stroke-linecap="square" stroke-miterlimit="10" x1="355.34" y1="80.535" x2="355.34" y2="80.535"/>
	
		<line fill="none" stroke="#212830" stroke-width="0.5" stroke-linecap="square" stroke-miterlimit="10" x1="334.116" y1="92.805" x2="334.116" y2="92.805"/>
	
		<line fill="none" stroke="#212830" stroke-width="0.5" stroke-linecap="square" stroke-miterlimit="10" x1="378.772" y1="66.985" x2="378.772" y2="66.985"/>
	
		<line fill="none" stroke="#212830" stroke-width="0.5" stroke-linecap="square" stroke-miterlimit="10" x1="411.514" y1="61.423" x2="369.197" y2="88.568"/>
	
		<line fill="none" stroke="#212830" stroke-width="0.5" stroke-linecap="square" stroke-miterlimit="10" x1="378.772" y1="80.314" x2="378.772" y2="66.985"/>
	
		<line fill="none" stroke="#212830" stroke-width="0.5" stroke-linecap="square" stroke-miterlimit="10" x1="399.997" y1="54.759" x2="411.514" y2="61.423"/>
	
		<line fill="none" stroke="#212830" stroke-width="0.5" stroke-linecap="square" stroke-miterlimit="10" x1="349.119" y1="94.306" x2="393.775" y2="68.485"/>
	
		<line fill="none" stroke="#212830" stroke-width="0.5" stroke-linecap="square" stroke-miterlimit="10" x1="401.938" y1="82.609" x2="358.915" y2="111.298"/>
	
		<line fill="none" stroke="#212830" stroke-width="0.5" stroke-linecap="square" stroke-miterlimit="10" x1="378.772" y1="42.489" x2="357.547" y2="30.219"/>
	<polyline fill="none" stroke="#212830" stroke-width="0.5" stroke-linecap="square" stroke-miterlimit="10" points="   378.772,18.037 377.493,17.331 376.212,16.713 374.933,16.228 373.698,15.786 372.461,15.477 371.27,15.256 370.079,15.168    368.931,15.124 367.829,15.212 366.725,15.389 365.71,15.698 364.74,16.051 363.813,16.537 362.93,17.11 362.092,17.772    361.342,18.522 360.636,19.361 360.018,20.288 359.445,21.303 358.958,22.362 358.562,23.51 358.208,24.746 357.944,26.026    357.723,27.394 357.635,28.807 357.591,30.263  "/>
	
		<line fill="none" stroke="#212830" stroke-width="0.5" stroke-linecap="square" stroke-miterlimit="10" x1="378.772" y1="17.949" x2="378.772" y2="42.489"/>
	
		<line fill="none" stroke="#212830" stroke-width="0.5" stroke-linecap="square" stroke-miterlimit="10" x1="334.116" y1="68.309" x2="334.116" y2="43.769"/>
	<polyline fill="none" stroke="#212830" stroke-width="0.5" stroke-linecap="square" stroke-miterlimit="10" points="   334.116,43.857 332.836,43.151 331.556,42.533 330.277,42.047 329.042,41.606 327.805,41.297 326.614,41.077 325.422,40.988    324.276,40.944 323.172,41.032 322.069,41.209 321.054,41.518 320.083,41.871 319.157,42.356 318.274,42.93 317.436,43.592    316.686,44.343 315.98,45.181 315.362,46.108 314.789,47.123 314.303,48.183 313.906,49.33 313.552,50.566 313.288,51.846    313.067,53.214 312.979,54.626 312.935,56.083  "/>
	
		<line fill="none" stroke="#212830" stroke-width="0.5" stroke-linecap="square" stroke-miterlimit="10" x1="312.891" y1="56.039" x2="312.891" y2="56.039"/>
	
		<line fill="none" stroke="#212830" stroke-width="0.5" stroke-linecap="square" stroke-miterlimit="10" x1="334.116" y1="43.769" x2="334.116" y2="43.769"/>
	
		<line fill="none" stroke="#212830" stroke-width="0.5" stroke-linecap="square" stroke-miterlimit="10" x1="334.116" y1="68.309" x2="334.116" y2="68.309"/>
	
		<line fill="none" stroke="#212830" stroke-width="0.5" stroke-linecap="square" stroke-miterlimit="10" x1="378.772" y1="17.949" x2="378.772" y2="17.949"/>
	
		<line fill="none" stroke="#212830" stroke-width="0.5" stroke-linecap="square" stroke-miterlimit="10" x1="357.547" y1="30.219" x2="357.547" y2="30.219"/>
	
		<line fill="none" stroke="#212830" stroke-width="0.5" stroke-linecap="square" stroke-miterlimit="10" x1="378.772" y1="42.489" x2="378.772" y2="42.489"/>
	<polyline fill="none" stroke="#212830" stroke-width="0.5" stroke-linecap="square" stroke-miterlimit="10" points="   312.891,56.039 334.116,68.309 378.772,42.489  "/>
	
		<line fill="none" stroke="#212830" stroke-width="0.5" stroke-linecap="square" stroke-miterlimit="10" x1="312.891" y1="56.039" x2="357.547" y2="30.219"/>
	
		<line fill="none" stroke="#212830" stroke-width="0.5" stroke-linecap="square" stroke-miterlimit="10" x1="334.116" y1="43.769" x2="378.772" y2="17.949"/>
	
		<line fill="none" stroke="#212830" stroke-width="0.5" stroke-linecap="square" stroke-miterlimit="10" x1="319.113" y1="42.268" x2="363.769" y2="16.492"/>
	
		<line fill="none" stroke="#212830" stroke-width="0.5" stroke-linecap="square" stroke-miterlimit="10" x1="312.891" y1="56.039" x2="44.998" y2="210.871"/>
	<polyline fill="none" stroke="#212830" stroke-width="0.5" stroke-linecap="square" stroke-miterlimit="10" points="   44.998,210.916 45.042,212.416 45.174,214.003 45.351,215.593 45.615,217.226 45.968,218.859 46.41,220.537 46.939,222.214    47.513,223.89 48.175,225.568 48.881,227.246 49.675,228.923 50.514,230.556 51.396,232.144 52.367,233.734 53.382,235.234    54.441,236.734 55.544,238.148 56.691,239.56 57.883,240.839 59.074,242.119 60.31,243.267 61.589,244.371 62.869,245.386  "/>
	
		<line fill="none" stroke="#212830" stroke-width="0.5" stroke-linecap="square" stroke-miterlimit="10" x1="62.869" y1="245.429" x2="330.806" y2="90.598"/>
	<polyline fill="none" stroke="#212830" stroke-width="0.5" stroke-linecap="square" stroke-miterlimit="10" points="   312.935,56.083 312.979,57.583 313.112,59.172 313.288,60.762 313.552,62.395 313.906,64.028 314.347,65.705 314.876,67.382    315.45,69.059 316.112,70.736 316.818,72.414 317.613,74.091 318.451,75.724 319.333,77.313 320.304,78.902 321.319,80.402    322.378,81.903 323.481,83.315 324.628,84.728 325.82,86.008 327.011,87.288 328.247,88.435 329.527,89.539 330.806,90.554  "/>
	
		<line fill="none" stroke="#212830" stroke-width="0.5" stroke-linecap="square" stroke-miterlimit="10" x1="44.998" y1="210.871" x2="17.065" y2="194.761"/>
	<polyline fill="none" stroke="#212830" stroke-width="0.5" stroke-linecap="square" stroke-miterlimit="10" points="   17.065,194.761 17.154,198.468 17.462,202.353 17.992,206.281 18.698,210.253 19.625,214.314 20.772,218.417 22.052,222.566    23.552,226.671 25.229,230.777 27.082,234.837 29.068,238.853 31.23,242.826 33.569,246.71 35.996,250.46 38.599,254.125    41.291,257.656 44.071,261.054 46.983,264.277 49.94,267.322 52.985,270.191 55.72,272.574 58.5,274.781  "/>
	
		<line fill="none" stroke="#212830" stroke-width="0.5" stroke-linecap="square" stroke-miterlimit="10" x1="58.5" y1="274.781" x2="62.869" y2="245.429"/>
	
		<line fill="none" stroke="#212830" stroke-width="0.5" stroke-linecap="square" stroke-miterlimit="10" x1="17.065" y1="194.761" x2="299.035" y2="48.006"/>
	<polyline fill="none" stroke="#212830" stroke-width="0.5" stroke-linecap="square" stroke-miterlimit="10" points="299.035,48.05    299.08,49.992 299.211,51.979 299.388,53.964 299.653,55.995 300.005,58.069 300.447,60.144 300.932,62.262 301.506,64.381    302.167,66.499 302.875,68.662 303.668,70.781 304.506,72.899 305.433,75.018 306.404,77.136 307.463,79.21 308.566,81.285    309.713,83.315 310.905,85.302 312.185,87.244 313.508,89.186 314.876,91.04 316.245,92.849 317.701,94.614 319.201,96.336    320.701,97.969 322.246,99.558 323.791,101.059 325.378,102.515 327.011,103.883 328.644,105.163  "/>
	
		<line fill="none" stroke="#212830" stroke-width="0.5" stroke-linecap="square" stroke-miterlimit="10" x1="328.644" y1="105.163" x2="328.644" y2="105.163"/>
	
		<line fill="none" stroke="#212830" stroke-width="0.5" stroke-linecap="square" stroke-miterlimit="10" x1="299.035" y1="48.006" x2="299.035" y2="48.006"/>
	
		<line fill="none" stroke="#212830" stroke-width="0.5" stroke-linecap="square" stroke-miterlimit="10" x1="58.5" y1="274.781" x2="58.5" y2="274.781"/>
	
		<line fill="none" stroke="#212830" stroke-width="0.5" stroke-linecap="square" stroke-miterlimit="10" x1="17.065" y1="194.761" x2="17.065" y2="194.761"/>
	
		<line fill="none" stroke="#212830" stroke-width="0.5" stroke-linecap="square" stroke-miterlimit="10" x1="330.806" y1="90.598" x2="330.806" y2="90.598"/>
	
		<line fill="none" stroke="#212830" stroke-width="0.5" stroke-linecap="square" stroke-miterlimit="10" x1="62.869" y1="245.429" x2="62.869" y2="245.429"/>
	
		<line fill="none" stroke="#212830" stroke-width="0.5" stroke-linecap="square" stroke-miterlimit="10" x1="44.998" y1="210.871" x2="44.998" y2="210.871"/>
	
		<line fill="none" stroke="#212830" stroke-width="0.5" stroke-linecap="square" stroke-miterlimit="10" x1="312.891" y1="56.039" x2="312.891" y2="56.039"/>
	
		<line fill="none" stroke="#212830" stroke-width="0.5" stroke-linecap="square" stroke-miterlimit="10" x1="328.644" y1="105.163" x2="58.5" y2="274.781"/>
	
		<line fill="none" stroke="#212830" stroke-width="0.5" stroke-linecap="square" stroke-miterlimit="10" x1="299.035" y1="48.006" x2="312.891" y2="56.039"/>
	
		<line fill="none" stroke="#212830" stroke-width="0.5" stroke-linecap="square" stroke-miterlimit="10" x1="330.806" y1="90.598" x2="328.644" y2="105.163"/>
	
		<line fill="none" stroke="#212830" stroke-width="0.5" stroke-linecap="square" stroke-miterlimit="10" x1="50.072" y1="229.716" x2="317.965" y2="74.885"/>
	
		<line fill="none" stroke="#212830" stroke-width="0.5" stroke-linecap="square" stroke-miterlimit="10" x1="307.463" y1="79.21" x2="28.847" y2="238.412"/>
	
		<line fill="none" stroke="#212830" stroke-width="0.5" stroke-linecap="square" stroke-miterlimit="10" x1="357.547" y1="30.219" x2="312.891" y2="56.039"/>
	<polyline fill="none" stroke="#212830" stroke-width="0.5" stroke-linecap="square" stroke-miterlimit="10" points="   312.935,56.083 312.979,57.583 313.067,59.128 313.288,60.673 313.552,62.306 313.906,63.895 314.303,65.528 314.789,67.206    315.362,68.838 315.98,70.516 316.686,72.149 317.436,73.782 318.274,75.371 319.157,76.959 320.083,78.504 321.054,80.005    322.069,81.506 323.172,82.918 324.276,84.287 325.422,85.61 326.614,86.846 327.805,88.038 329.042,89.142 330.277,90.157    331.556,91.127 332.836,92.01 334.116,92.761  "/>
	
		<line fill="none" stroke="#212830" stroke-width="0.5" stroke-linecap="square" stroke-miterlimit="10" x1="334.116" y1="92.805" x2="378.772" y2="66.985"/>
	<polyline fill="none" stroke="#212830" stroke-width="0.5" stroke-linecap="square" stroke-miterlimit="10" points="   357.591,30.263 357.635,31.764 357.723,33.309 357.944,34.853 358.208,36.486 358.562,38.075 358.958,39.708 359.445,41.385    360.018,43.019 360.636,44.696 361.342,46.329 362.092,47.962 362.93,49.551 363.813,51.14 364.74,52.685 365.71,54.185    366.725,55.686 367.829,57.098 368.931,58.466 370.079,59.791 371.27,61.026 372.461,62.218 373.698,63.321 374.933,64.336    376.212,65.308 377.493,66.19 378.772,66.94  "/>
	
		<line fill="none" stroke="#212830" stroke-width="0.5" stroke-linecap="square" stroke-miterlimit="10" x1="312.891" y1="56.039" x2="299.035" y2="48.006"/>
	<polyline fill="none" stroke="#212830" stroke-width="0.5" stroke-linecap="square" stroke-miterlimit="10" points="299.035,48.05    299.08,49.992 299.211,51.979 299.388,54.009 299.697,56.083 300.05,58.157 300.447,60.276 300.976,62.438 301.55,64.557    302.212,66.72 302.962,68.883 303.756,71.045 304.595,73.164 305.566,75.327 306.537,77.445 307.595,79.52 308.743,81.594    309.89,83.668 311.125,85.655 312.45,87.641 313.773,89.539 315.141,91.437 316.597,93.246 318.053,95.012 319.554,96.733    321.098,98.366 322.643,99.955 324.231,101.456 325.864,102.912 327.497,104.236 329.129,105.516 330.762,106.708 332.439,107.812    334.116,108.827  "/>
	
		<line fill="none" stroke="#212830" stroke-width="0.5" stroke-linecap="square" stroke-miterlimit="10" x1="334.116" y1="108.827" x2="334.116" y2="92.805"/>
	
		<line fill="none" stroke="#212830" stroke-width="0.5" stroke-linecap="square" stroke-miterlimit="10" x1="299.035" y1="48.006" x2="346.03" y2="23.554"/>
	<polyline fill="none" stroke="#212830" stroke-width="0.5" stroke-linecap="square" stroke-miterlimit="10" points="346.03,23.598    346.074,25.452 346.207,27.394 346.383,29.336 346.648,31.322 347,33.353 347.442,35.383 347.927,37.413 348.501,39.488    349.163,41.562 349.913,43.636 350.664,45.711 351.545,47.785 352.472,49.815 353.443,51.846 354.502,53.876 355.605,55.862    356.796,57.804 357.988,59.747 359.268,61.6 360.591,63.41 361.916,65.219 363.328,66.94 364.784,68.574 366.24,70.207    367.74,71.708 369.241,73.164 370.83,74.576 372.374,75.9 373.962,77.136 375.55,78.284 377.139,79.343 378.772,80.314  "/>
	
		<line fill="none" stroke="#212830" stroke-width="0.5" stroke-linecap="square" stroke-miterlimit="10" x1="378.772" y1="80.314" x2="378.772" y2="80.314"/>
	
		<line fill="none" stroke="#212830" stroke-width="0.5" stroke-linecap="square" stroke-miterlimit="10" x1="346.03" y1="23.554" x2="346.03" y2="23.554"/>
	
		<line fill="none" stroke="#212830" stroke-width="0.5" stroke-linecap="square" stroke-miterlimit="10" x1="334.116" y1="108.827" x2="334.116" y2="108.827"/>
	
		<line fill="none" stroke="#212830" stroke-width="0.5" stroke-linecap="square" stroke-miterlimit="10" x1="299.035" y1="48.006" x2="299.035" y2="48.006"/>
	
		<line fill="none" stroke="#212830" stroke-width="0.5" stroke-linecap="square" stroke-miterlimit="10" x1="378.772" y1="66.985" x2="378.772" y2="66.985"/>
	
		<line fill="none" stroke="#212830" stroke-width="0.5" stroke-linecap="square" stroke-miterlimit="10" x1="334.116" y1="92.805" x2="334.116" y2="92.805"/>
	
		<line fill="none" stroke="#212830" stroke-width="0.5" stroke-linecap="square" stroke-miterlimit="10" x1="312.891" y1="56.039" x2="312.891" y2="56.039"/>
	
		<line fill="none" stroke="#212830" stroke-width="0.5" stroke-linecap="square" stroke-miterlimit="10" x1="357.547" y1="30.219" x2="357.547" y2="30.219"/>
	
		<line fill="none" stroke="#212830" stroke-width="0.5" stroke-linecap="square" stroke-miterlimit="10" x1="378.772" y1="80.314" x2="334.116" y2="108.827"/>
	
		<line fill="none" stroke="#212830" stroke-width="0.5" stroke-linecap="square" stroke-miterlimit="10" x1="346.03" y1="23.554" x2="357.547" y2="30.219"/>
	
		<line fill="none" stroke="#212830" stroke-width="0.5" stroke-linecap="square" stroke-miterlimit="10" x1="378.772" y1="66.985" x2="378.772" y2="80.314"/>
	
		<line fill="none" stroke="#212830" stroke-width="0.5" stroke-linecap="square" stroke-miterlimit="10" x1="319.113" y1="76.959" x2="363.769" y2="51.14"/>
	
		<line fill="none" stroke="#212830" stroke-width="0.5" stroke-linecap="square" stroke-miterlimit="10" x1="355.605" y1="55.862" x2="309.317" y2="82.609"/>
	<polyline fill="none" stroke="#212830" stroke-width="0.5" stroke-linecap="square" stroke-miterlimit="10" points="   357.591,30.263 357.635,31.764 357.723,33.309 357.944,34.853 358.208,36.486 358.562,38.075 358.958,39.708 359.445,41.385    360.018,43.019 360.636,44.696 361.342,46.329 362.092,47.962 362.93,49.551 363.813,51.14 364.74,52.685 365.71,54.185    366.725,55.686 367.829,57.098 368.931,58.466 370.079,59.791 371.27,61.026 372.461,62.218 373.698,63.321 374.933,64.336    376.212,65.308 377.493,66.19 378.772,66.94  "/>
	<polyline fill="none" stroke="#212830" stroke-width="0.5" stroke-linecap="square" stroke-miterlimit="10" points="   357.547,30.219 378.772,42.489 378.772,66.985  "/>
	<polyline fill="none" stroke="#212830" stroke-width="0.5" stroke-linecap="square" stroke-miterlimit="10" points="   334.116,92.805 334.116,68.309 312.891,56.039  "/>
	<polyline fill="none" stroke="#212830" stroke-width="0.5" stroke-linecap="square" stroke-miterlimit="10" points="   312.935,56.083 312.979,57.583 313.067,59.128 313.288,60.673 313.552,62.306 313.906,63.895 314.303,65.528 314.789,67.206    315.362,68.838 315.98,70.516 316.686,72.149 317.436,73.782 318.274,75.371 319.157,76.959 320.083,78.504 321.054,80.005    322.069,81.506 323.172,82.918 324.276,84.287 325.422,85.61 326.614,86.846 327.805,88.038 329.042,89.142 330.277,90.157    331.556,91.127 332.836,92.01 334.116,92.761  "/>
	
		<line fill="none" stroke="#212830" stroke-width="0.5" stroke-linecap="square" stroke-miterlimit="10" x1="312.891" y1="56.039" x2="312.891" y2="56.039"/>
	
		<line fill="none" stroke="#212830" stroke-width="0.5" stroke-linecap="square" stroke-miterlimit="10" x1="334.116" y1="68.309" x2="334.116" y2="68.309"/>
	
		<line fill="none" stroke="#212830" stroke-width="0.5" stroke-linecap="square" stroke-miterlimit="10" x1="334.116" y1="92.805" x2="334.116" y2="92.805"/>
	
		<line fill="none" stroke="#212830" stroke-width="0.5" stroke-linecap="square" stroke-miterlimit="10" x1="378.772" y1="42.489" x2="378.772" y2="42.489"/>
	
		<line fill="none" stroke="#212830" stroke-width="0.5" stroke-linecap="square" stroke-miterlimit="10" x1="357.547" y1="30.219" x2="357.547" y2="30.219"/>
	
		<line fill="none" stroke="#212830" stroke-width="0.5" stroke-linecap="square" stroke-miterlimit="10" x1="378.772" y1="66.985" x2="378.772" y2="66.985"/>
	
		<line fill="none" stroke="#212830" stroke-width="0.5" stroke-linecap="square" stroke-miterlimit="10" x1="378.772" y1="66.985" x2="334.116" y2="92.805"/>
	
		<line fill="none" stroke="#212830" stroke-width="0.5" stroke-linecap="square" stroke-miterlimit="10" x1="312.891" y1="56.039" x2="357.547" y2="30.219"/>
	
		<line fill="none" stroke="#212830" stroke-width="0.5" stroke-linecap="square" stroke-miterlimit="10" x1="334.116" y1="68.309" x2="378.772" y2="42.489"/>
	
		<line fill="none" stroke="#212830" stroke-width="0.5" stroke-linecap="square" stroke-miterlimit="10" x1="319.113" y1="76.959" x2="363.769" y2="51.14"/>
	
		<line fill="none" stroke="#212830" stroke-width="0.5" stroke-linecap="square" stroke-miterlimit="10" x1="334.116" y1="43.769" x2="66.178" y2="198.601"/>
	<polyline fill="none" stroke="#212830" stroke-width="0.5" stroke-linecap="square" stroke-miterlimit="10" points="   66.178,198.689 64.854,197.982 63.575,197.365 62.295,196.835 61.016,196.437 59.78,196.128 58.544,195.908 57.353,195.82    56.162,195.775 55.059,195.908 53.956,196.085 52.94,196.394 51.925,196.791 50.999,197.32 50.116,197.894 49.278,198.601    48.528,199.396 47.866,200.277 47.248,201.25 46.674,202.308 46.233,203.412 45.836,204.603 45.483,205.882 45.262,207.207  "/>
	
		<line fill="none" stroke="#212830" stroke-width="0.5" stroke-linecap="square" stroke-miterlimit="10" x1="45.218" y1="207.164" x2="313.156" y2="52.332"/>
	<polyline fill="none" stroke="#212830" stroke-width="0.5" stroke-linecap="square" stroke-miterlimit="10" points="   334.116,43.857 332.792,43.151 331.512,42.533 330.233,42.003 328.953,41.606 327.717,41.297 326.482,41.077 325.291,40.988    324.099,40.944 322.996,41.077 321.892,41.253 320.877,41.562 319.863,41.959 318.936,42.489 318.053,43.063 317.215,43.769    316.465,44.563 315.803,45.446 315.185,46.417 314.612,47.477 314.17,48.58 313.773,49.771 313.42,51.051 313.2,52.375  "/>
	
		<line fill="none" stroke="#212830" stroke-width="0.5" stroke-linecap="square" stroke-miterlimit="10" x1="66.178" y1="198.601" x2="66.178" y2="166.336"/>
	<polyline fill="none" stroke="#212830" stroke-width="0.5" stroke-linecap="square" stroke-miterlimit="10" points="   66.178,166.336 63.001,164.615 59.824,163.159 56.691,161.923 53.558,160.953 50.514,160.246 47.513,159.804 44.601,159.671    41.821,159.76 39.084,160.113 36.481,160.732 34.01,161.658 31.671,162.806 29.465,164.173 27.435,165.851 25.538,167.75    23.861,169.867 22.316,172.251 20.993,174.81 19.845,177.591 18.875,180.548 18.213,183.285 17.683,186.199  "/>
	
		<line fill="none" stroke="#212830" stroke-width="0.5" stroke-linecap="square" stroke-miterlimit="10" x1="17.683" y1="186.199" x2="45.218" y2="207.164"/>
	
		<line fill="none" stroke="#212830" stroke-width="0.5" stroke-linecap="square" stroke-miterlimit="10" x1="66.178" y1="166.336" x2="334.116" y2="27.747"/>
	<polyline fill="none" stroke="#212830" stroke-width="0.5" stroke-linecap="square" stroke-miterlimit="10" points="   334.116,27.792 332.483,26.909 330.806,26.07 329.173,25.364 327.541,24.746 325.908,24.172 324.32,23.775 322.775,23.422    321.187,23.201 319.686,23.069 318.186,23.024 316.73,23.069 315.318,23.245 313.95,23.51 312.626,23.907 311.346,24.349    310.111,24.922 308.919,25.584 307.816,26.335 306.757,27.173 305.743,28.1 304.816,29.16 303.933,30.263 303.139,31.455    302.388,32.735 301.727,34.103 301.109,35.515 300.58,37.06 300.138,38.605 299.785,40.282 299.476,41.959  "/>
	
		<line fill="none" stroke="#212830" stroke-width="0.5" stroke-linecap="square" stroke-miterlimit="10" x1="299.476" y1="41.915" x2="299.476" y2="41.915"/>
	
		<line fill="none" stroke="#212830" stroke-width="0.5" stroke-linecap="square" stroke-miterlimit="10" x1="334.116" y1="27.747" x2="334.116" y2="27.747"/>
	
		<line fill="none" stroke="#212830" stroke-width="0.5" stroke-linecap="square" stroke-miterlimit="10" x1="17.683" y1="186.199" x2="17.683" y2="186.199"/>
	
		<line fill="none" stroke="#212830" stroke-width="0.5" stroke-linecap="square" stroke-miterlimit="10" x1="66.178" y1="166.336" x2="66.178" y2="166.336"/>
	
		<line fill="none" stroke="#212830" stroke-width="0.5" stroke-linecap="square" stroke-miterlimit="10" x1="313.156" y1="52.332" x2="313.156" y2="52.332"/>
	
		<line fill="none" stroke="#212830" stroke-width="0.5" stroke-linecap="square" stroke-miterlimit="10" x1="45.218" y1="207.164" x2="45.218" y2="207.164"/>
	
		<line fill="none" stroke="#212830" stroke-width="0.5" stroke-linecap="square" stroke-miterlimit="10" x1="66.178" y1="198.601" x2="66.178" y2="198.601"/>
	
		<line fill="none" stroke="#212830" stroke-width="0.5" stroke-linecap="square" stroke-miterlimit="10" x1="334.116" y1="43.769" x2="334.116" y2="43.769"/>
	
		<line fill="none" stroke="#212830" stroke-width="0.5" stroke-linecap="square" stroke-miterlimit="10" x1="299.476" y1="41.915" x2="17.683" y2="186.199"/>
	
		<line fill="none" stroke="#212830" stroke-width="0.5" stroke-linecap="square" stroke-miterlimit="10" x1="334.116" y1="27.747" x2="334.116" y2="43.769"/>
	
		<line fill="none" stroke="#212830" stroke-width="0.5" stroke-linecap="square" stroke-miterlimit="10" x1="313.156" y1="52.332" x2="299.476" y2="41.915"/>
	
		<line fill="none" stroke="#212830" stroke-width="0.5" stroke-linecap="square" stroke-miterlimit="10" x1="52.411" y1="196.527" x2="320.348" y2="41.694"/>
	
		<line fill="none" stroke="#212830" stroke-width="0.5" stroke-linecap="square" stroke-miterlimit="10" x1="311.346" y1="24.305" x2="34.275" y2="161.526"/>
	
		<line fill="none" stroke="#212830" stroke-width="0.5" stroke-linecap="square" stroke-miterlimit="10" x1="378.772" y1="17.949" x2="334.116" y2="43.769"/>
	<polyline fill="none" stroke="#212830" stroke-width="0.5" stroke-linecap="square" stroke-miterlimit="10" points="   334.116,43.857 332.836,43.151 331.556,42.533 330.277,42.047 329.042,41.606 327.805,41.297 326.614,41.077 325.422,40.988    324.276,40.944 323.172,41.032 322.069,41.209 321.054,41.518 320.083,41.871 319.157,42.356 318.274,42.93 317.436,43.592    316.686,44.343 315.98,45.181 315.362,46.108 314.789,47.123 314.303,48.183 313.906,49.33 313.552,50.566 313.288,51.846    313.067,53.214 312.979,54.626 312.935,56.083  "/>
	
		<line fill="none" stroke="#212830" stroke-width="0.5" stroke-linecap="square" stroke-miterlimit="10" x1="312.891" y1="56.039" x2="357.547" y2="30.219"/>
	<polyline fill="none" stroke="#212830" stroke-width="0.5" stroke-linecap="square" stroke-miterlimit="10" points="   378.772,18.037 377.493,17.331 376.212,16.713 374.933,16.228 373.698,15.786 372.461,15.477 371.27,15.256 370.079,15.168    368.931,15.124 367.829,15.212 366.725,15.389 365.71,15.698 364.74,16.051 363.813,16.537 362.93,17.11 362.092,17.772    361.342,18.522 360.636,19.361 360.018,20.288 359.445,21.303 358.958,22.362 358.562,23.51 358.208,24.746 357.944,26.026    357.723,27.394 357.635,28.807 357.591,30.263  "/>
	
		<line fill="none" stroke="#212830" stroke-width="0.5" stroke-linecap="square" stroke-miterlimit="10" x1="334.116" y1="43.769" x2="334.116" y2="27.747"/>
	<polyline fill="none" stroke="#212830" stroke-width="0.5" stroke-linecap="square" stroke-miterlimit="10" points="   334.116,27.792 332.439,26.864 330.762,26.07 329.129,25.32 327.497,24.702 325.864,24.172 324.231,23.731 322.643,23.422    321.098,23.157 319.554,23.069 318.053,23.024 316.597,23.113 315.141,23.29 313.773,23.554 312.45,23.952 311.169,24.437    309.934,25.011 308.743,25.717 307.595,26.467 306.537,27.35 305.566,28.321 304.595,29.38 303.756,30.528 302.962,31.764    302.212,33.043 301.55,34.456 300.976,35.913 300.447,37.457 300.05,39.09 299.697,40.768 299.388,42.489 299.211,44.298    299.08,46.152 299.035,48.05  "/>
	
		<line fill="none" stroke="#212830" stroke-width="0.5" stroke-linecap="square" stroke-miterlimit="10" x1="299.035" y1="48.006" x2="312.891" y2="56.039"/>
	
		<line fill="none" stroke="#212830" stroke-width="0.5" stroke-linecap="square" stroke-miterlimit="10" x1="334.116" y1="27.747" x2="378.772" y2="4.664"/>
	<polyline fill="none" stroke="#212830" stroke-width="0.5" stroke-linecap="square" stroke-miterlimit="10" points="378.772,4.664    377.183,3.781 375.55,3.031 373.962,2.324 372.374,1.707 370.83,1.221 369.285,0.824 367.74,0.515 366.24,0.338 364.784,0.25    363.328,0.25 361.959,0.338 360.591,0.559 359.268,0.868 357.988,1.265 356.796,1.795 355.65,2.413 354.502,3.119 353.488,3.913    352.472,4.796 351.545,5.767 350.708,6.826 349.913,8.018 349.163,9.254 348.545,10.578 347.927,11.946 347.442,13.447 347,14.992    346.648,16.581 346.383,18.258 346.207,19.979 346.074,21.745 346.03,23.598  "/>
	
		<line fill="none" stroke="#212830" stroke-width="0.5" stroke-linecap="square" stroke-miterlimit="10" x1="346.03" y1="23.554" x2="346.03" y2="23.554"/>
	
		<line fill="none" stroke="#212830" stroke-width="0.5" stroke-linecap="square" stroke-miterlimit="10" x1="378.772" y1="4.664" x2="378.772" y2="4.664"/>
	
		<line fill="none" stroke="#212830" stroke-width="0.5" stroke-linecap="square" stroke-miterlimit="10" x1="299.035" y1="48.006" x2="299.035" y2="48.006"/>
	
		<line fill="none" stroke="#212830" stroke-width="0.5" stroke-linecap="square" stroke-miterlimit="10" x1="334.116" y1="27.747" x2="334.116" y2="27.747"/>
	
		<line fill="none" stroke="#212830" stroke-width="0.5" stroke-linecap="square" stroke-miterlimit="10" x1="357.547" y1="30.219" x2="357.547" y2="30.219"/>
	
		<line fill="none" stroke="#212830" stroke-width="0.5" stroke-linecap="square" stroke-miterlimit="10" x1="312.891" y1="56.039" x2="312.891" y2="56.039"/>
	
		<line fill="none" stroke="#212830" stroke-width="0.5" stroke-linecap="square" stroke-miterlimit="10" x1="334.116" y1="43.769" x2="334.116" y2="43.769"/>
	
		<line fill="none" stroke="#212830" stroke-width="0.5" stroke-linecap="square" stroke-miterlimit="10" x1="378.772" y1="17.949" x2="378.772" y2="17.949"/>
	
		<line fill="none" stroke="#212830" stroke-width="0.5" stroke-linecap="square" stroke-miterlimit="10" x1="346.03" y1="23.554" x2="299.035" y2="48.006"/>
	
		<line fill="none" stroke="#212830" stroke-width="0.5" stroke-linecap="square" stroke-miterlimit="10" x1="378.772" y1="4.664" x2="378.772" y2="17.949"/>
	
		<line fill="none" stroke="#212830" stroke-width="0.5" stroke-linecap="square" stroke-miterlimit="10" x1="357.547" y1="30.219" x2="346.03" y2="23.554"/>
	
		<line fill="none" stroke="#212830" stroke-width="0.5" stroke-linecap="square" stroke-miterlimit="10" x1="319.113" y1="42.268" x2="363.769" y2="16.492"/>
	
		<line fill="none" stroke="#212830" stroke-width="0.5" stroke-linecap="square" stroke-miterlimit="10" x1="355.605" y1="2.369" x2="309.317" y2="25.275"/>
	<polyline fill="none" stroke="#212830" stroke-width="0.5" stroke-linecap="square" stroke-miterlimit="10" points="378.772,66.94    380.051,67.647 381.332,68.265 382.611,68.75 383.846,69.191 385.082,69.5 386.273,69.721 387.464,69.81 388.612,69.854    389.715,69.766 390.819,69.589 391.833,69.28 392.804,68.927 393.775,68.441 394.614,67.868 395.452,67.206 396.202,66.455    396.908,65.617 397.526,64.689 398.099,63.674 398.584,62.615 398.982,61.468 399.334,60.232 399.6,58.952 399.82,57.583    399.909,56.171 399.953,54.715  "/>
	<polyline fill="none" stroke="#212830" stroke-width="0.5" stroke-linecap="square" stroke-miterlimit="10" points="   378.772,66.985 378.772,42.489 399.997,54.759  "/>
	<polyline fill="none" stroke="#212830" stroke-width="0.5" stroke-linecap="square" stroke-miterlimit="10" points="355.34,80.535    334.116,68.309 334.116,92.805  "/>
	<polyline fill="none" stroke="#212830" stroke-width="0.5" stroke-linecap="square" stroke-miterlimit="10" points="   334.116,92.761 335.395,93.467 336.675,94.085 337.955,94.57 339.19,95.012 340.425,95.321 341.618,95.542 342.809,95.629    343.956,95.674 345.059,95.585 346.163,95.409 347.177,95.1 348.148,94.747 349.119,94.261 349.958,93.688 350.795,93.025    351.545,92.275 352.251,91.437 352.87,90.51 353.443,89.495 353.928,88.435 354.326,87.288 354.679,86.052 354.944,84.772    355.165,83.404 355.252,81.991 355.296,80.535  "/>
	
		<line fill="none" stroke="#212830" stroke-width="0.5" stroke-linecap="square" stroke-miterlimit="10" x1="334.116" y1="92.805" x2="334.116" y2="92.805"/>
	
		<line fill="none" stroke="#212830" stroke-width="0.5" stroke-linecap="square" stroke-miterlimit="10" x1="334.116" y1="68.309" x2="334.116" y2="68.309"/>
	
		<line fill="none" stroke="#212830" stroke-width="0.5" stroke-linecap="square" stroke-miterlimit="10" x1="355.34" y1="80.535" x2="355.34" y2="80.535"/>
	
		<line fill="none" stroke="#212830" stroke-width="0.5" stroke-linecap="square" stroke-miterlimit="10" x1="378.772" y1="42.489" x2="378.772" y2="42.489"/>
	
		<line fill="none" stroke="#212830" stroke-width="0.5" stroke-linecap="square" stroke-miterlimit="10" x1="378.772" y1="66.985" x2="378.772" y2="66.985"/>
	
		<line fill="none" stroke="#212830" stroke-width="0.5" stroke-linecap="square" stroke-miterlimit="10" x1="399.997" y1="54.759" x2="399.997" y2="54.759"/>
	
		<line fill="none" stroke="#212830" stroke-width="0.5" stroke-linecap="square" stroke-miterlimit="10" x1="399.997" y1="54.759" x2="355.34" y2="80.535"/>
	
		<line fill="none" stroke="#212830" stroke-width="0.5" stroke-linecap="square" stroke-miterlimit="10" x1="334.116" y1="92.805" x2="378.772" y2="66.985"/>
	
		<line fill="none" stroke="#212830" stroke-width="0.5" stroke-linecap="square" stroke-miterlimit="10" x1="334.116" y1="68.309" x2="378.772" y2="42.489"/>
	
		<line fill="none" stroke="#212830" stroke-width="0.5" stroke-linecap="square" stroke-miterlimit="10" x1="349.119" y1="94.306" x2="393.775" y2="68.485"/>
	
		<line fill="none" stroke="#212830" stroke-width="0.5" stroke-linecap="square" stroke-miterlimit="10" x1="355.34" y1="80.535" x2="87.403" y2="235.367"/>
	<polyline fill="none" stroke="#212830" stroke-width="0.5" stroke-linecap="square" stroke-miterlimit="10" points="   87.359,235.367 87.315,233.867 87.183,232.277 87.006,230.689 86.742,229.054 86.389,227.421 85.947,225.746 85.417,224.068    84.844,222.39 84.182,220.712 83.476,219.037 82.682,217.359 81.843,215.726 80.961,214.136 79.99,212.548 78.975,211.046    77.916,209.546 76.813,208.134 75.666,206.722 74.474,205.441 73.283,204.162 72.047,203.015 70.768,201.912 69.488,200.896  "/>
	
		<line fill="none" stroke="#212830" stroke-width="0.5" stroke-linecap="square" stroke-miterlimit="10" x1="69.488" y1="200.851" x2="337.425" y2="45.976"/>
	<polyline fill="none" stroke="#212830" stroke-width="0.5" stroke-linecap="square" stroke-miterlimit="10" points="   355.296,80.535 355.252,79.034 355.12,77.445 354.944,75.856 354.679,74.223 354.326,72.59 353.884,70.913 353.355,69.236    352.781,67.559 352.12,65.881 351.414,64.204 350.619,62.527 349.781,60.894 348.898,59.305 347.927,57.716 346.913,56.215    345.853,54.715 344.75,53.302 343.603,51.89 342.412,50.61 341.22,49.33 339.985,48.183 338.705,47.079 337.425,46.064  "/>
	
		<line fill="none" stroke="#212830" stroke-width="0.5" stroke-linecap="square" stroke-miterlimit="10" x1="87.403" y1="235.367" x2="115.292" y2="251.521"/>
	<polyline fill="none" stroke="#212830" stroke-width="0.5" stroke-linecap="square" stroke-miterlimit="10" points="   115.292,251.521 115.203,247.769 114.895,243.929 114.365,240.001 113.659,235.984 112.732,231.923 111.629,227.82    110.305,223.714 108.849,219.566 107.172,215.46 105.319,211.4 103.289,207.384 101.127,203.412 98.832,199.527 96.361,195.775    93.802,192.113 91.11,188.582 88.286,185.183 85.417,181.96 82.417,178.916 79.373,176.046 76.636,173.707 73.856,171.501  "/>
	
		<line fill="none" stroke="#212830" stroke-width="0.5" stroke-linecap="square" stroke-miterlimit="10" x1="73.856" y1="171.501" x2="69.488" y2="200.851"/>
	
		<line fill="none" stroke="#212830" stroke-width="0.5" stroke-linecap="square" stroke-miterlimit="10" x1="115.292" y1="251.521" x2="369.197" y2="88.568"/>
	<polyline fill="none" stroke="#212830" stroke-width="0.5" stroke-linecap="square" stroke-miterlimit="10" points="   369.197,88.568 369.152,86.625 369.02,84.64 368.843,82.653 368.579,80.623 368.226,78.549 367.785,76.474 367.299,74.355    366.725,72.237 366.063,70.119 365.357,67.956 364.563,65.837 363.725,63.719 362.798,61.6 361.828,59.481 360.768,57.407    359.666,55.333 358.518,53.302 357.327,51.316 356.046,49.374 354.723,47.432 353.355,45.579 351.987,43.769 350.531,42.003    349.031,40.282 347.53,38.649 345.986,37.06 344.441,35.56 342.853,34.103 341.22,32.735 339.587,31.455  "/>
	
		<line fill="none" stroke="#212830" stroke-width="0.5" stroke-linecap="square" stroke-miterlimit="10" x1="339.587" y1="31.411" x2="339.587" y2="31.411"/>
	
		<line fill="none" stroke="#212830" stroke-width="0.5" stroke-linecap="square" stroke-miterlimit="10" x1="369.197" y1="88.568" x2="369.197" y2="88.568"/>
	
		<line fill="none" stroke="#212830" stroke-width="0.5" stroke-linecap="square" stroke-miterlimit="10" x1="73.856" y1="171.501" x2="73.856" y2="171.501"/>
	
		<line fill="none" stroke="#212830" stroke-width="0.5" stroke-linecap="square" stroke-miterlimit="10" x1="115.292" y1="251.521" x2="115.292" y2="251.521"/>
	
		<line fill="none" stroke="#212830" stroke-width="0.5" stroke-linecap="square" stroke-miterlimit="10" x1="337.425" y1="45.976" x2="337.425" y2="45.976"/>
	
		<line fill="none" stroke="#212830" stroke-width="0.5" stroke-linecap="square" stroke-miterlimit="10" x1="69.488" y1="200.851" x2="69.488" y2="200.851"/>
	
		<line fill="none" stroke="#212830" stroke-width="0.5" stroke-linecap="square" stroke-miterlimit="10" x1="87.403" y1="235.367" x2="87.403" y2="235.367"/>
	
		<line fill="none" stroke="#212830" stroke-width="0.5" stroke-linecap="square" stroke-miterlimit="10" x1="355.34" y1="80.535" x2="355.34" y2="80.535"/>
	
		<line fill="none" stroke="#212830" stroke-width="0.5" stroke-linecap="square" stroke-miterlimit="10" x1="339.587" y1="31.411" x2="73.856" y2="171.501"/>
	
		<line fill="none" stroke="#212830" stroke-width="0.5" stroke-linecap="square" stroke-miterlimit="10" x1="369.197" y1="88.568" x2="355.34" y2="80.535"/>
	
		<line fill="none" stroke="#212830" stroke-width="0.5" stroke-linecap="square" stroke-miterlimit="10" x1="337.425" y1="45.976" x2="339.587" y2="31.411"/>
	
		<line fill="none" stroke="#212830" stroke-width="0.5" stroke-linecap="square" stroke-miterlimit="10" x1="82.329" y1="216.521" x2="350.222" y2="61.688"/>
	
		<line fill="none" stroke="#212830" stroke-width="0.5" stroke-linecap="square" stroke-miterlimit="10" x1="360.768" y1="57.363" x2="103.554" y2="207.826"/>
	
		<line fill="none" stroke="#212830" stroke-width="0.5" stroke-linecap="square" stroke-miterlimit="10" x1="399.997" y1="54.759" x2="355.34" y2="80.535"/>
	<polyline fill="none" stroke="#212830" stroke-width="0.5" stroke-linecap="square" stroke-miterlimit="10" points="   355.296,80.535 355.252,79.034 355.165,77.489 354.944,75.944 354.679,74.312 354.326,72.723 353.928,71.089 353.443,69.412    352.87,67.779 352.251,66.102 351.545,64.469 350.795,62.836 349.958,61.247 349.075,59.658 348.148,58.113 347.177,56.613    346.163,55.112 345.059,53.7 343.956,52.332 342.809,51.007 341.618,49.771 340.425,48.58 339.19,47.477 337.955,46.461    336.675,45.49 335.395,44.607 334.116,43.857  "/>
	
		<line fill="none" stroke="#212830" stroke-width="0.5" stroke-linecap="square" stroke-miterlimit="10" x1="334.116" y1="43.769" x2="378.772" y2="17.949"/>
	<polyline fill="none" stroke="#212830" stroke-width="0.5" stroke-linecap="square" stroke-miterlimit="10" points="   399.953,54.715 399.909,53.214 399.82,51.669 399.6,50.125 399.334,48.492 398.982,46.902 398.584,45.27 398.099,43.592    397.526,41.959 396.908,40.282 396.202,38.649 395.452,37.016 394.614,35.427 393.731,33.838 392.804,32.293 391.833,30.792    390.819,29.292 389.715,27.879 388.612,26.511 387.464,25.188 386.273,23.952 385.082,22.76 383.846,21.656 382.611,20.641    381.332,19.67 380.051,18.788 378.772,18.037  "/>
	
		<line fill="none" stroke="#212830" stroke-width="0.5" stroke-linecap="square" stroke-miterlimit="10" x1="355.34" y1="80.535" x2="369.197" y2="88.568"/>
	<polyline fill="none" stroke="#212830" stroke-width="0.5" stroke-linecap="square" stroke-miterlimit="10" points="   369.197,88.568 369.152,86.625 369.02,84.64 368.843,82.609 368.535,80.535 368.181,78.46 367.785,76.342 367.254,74.179    366.681,72.061 366.019,69.898 365.269,67.735 364.475,65.572 363.636,63.454 362.666,61.291 361.695,59.172 360.636,57.098    359.489,55.024 358.341,52.949 357.106,50.963 355.782,48.977 354.458,47.079 353.09,45.181 351.634,43.372 350.178,41.606    348.677,39.885 347.133,38.252 345.588,36.663 344,35.162 342.368,33.706 340.735,32.381 339.102,31.102 337.469,29.91    335.792,28.807 334.116,27.792  "/>
	
		<line fill="none" stroke="#212830" stroke-width="0.5" stroke-linecap="square" stroke-miterlimit="10" x1="334.116" y1="27.747" x2="334.116" y2="43.769"/>
	
		<line fill="none" stroke="#212830" stroke-width="0.5" stroke-linecap="square" stroke-miterlimit="10" x1="369.197" y1="88.568" x2="411.514" y2="61.423"/>
	<polyline fill="none" stroke="#212830" stroke-width="0.5" stroke-linecap="square" stroke-miterlimit="10" points="   411.514,61.379 411.47,59.526 411.337,57.583 411.161,55.642 410.896,53.655 410.543,51.625 410.102,49.595 409.617,47.564    409.042,45.49 408.381,43.416 407.63,41.341 406.88,39.267 405.998,37.192 405.072,35.162 404.101,33.132 403.042,31.102    401.938,29.115 400.747,27.173 399.555,25.231 398.276,23.377 396.952,21.568 395.628,19.758 394.216,18.037 392.76,16.404    391.304,14.771 389.803,13.271 388.303,11.814 386.759,10.401 385.17,9.077 383.582,7.841 381.994,6.694 380.405,5.635    378.772,4.664  "/>
	
		<line fill="none" stroke="#212830" stroke-width="0.5" stroke-linecap="square" stroke-miterlimit="10" x1="378.772" y1="4.664" x2="378.772" y2="4.664"/>
	
		<line fill="none" stroke="#212830" stroke-width="0.5" stroke-linecap="square" stroke-miterlimit="10" x1="411.514" y1="61.423" x2="411.514" y2="61.423"/>
	
		<line fill="none" stroke="#212830" stroke-width="0.5" stroke-linecap="square" stroke-miterlimit="10" x1="334.116" y1="27.747" x2="334.116" y2="27.747"/>
	
		<line fill="none" stroke="#212830" stroke-width="0.5" stroke-linecap="square" stroke-miterlimit="10" x1="369.197" y1="88.568" x2="369.197" y2="88.568"/>
	
		<line fill="none" stroke="#212830" stroke-width="0.5" stroke-linecap="square" stroke-miterlimit="10" x1="378.772" y1="17.949" x2="378.772" y2="17.949"/>
	
		<line fill="none" stroke="#212830" stroke-width="0.5" stroke-linecap="square" stroke-miterlimit="10" x1="334.116" y1="43.769" x2="334.116" y2="43.769"/>
	
		<line fill="none" stroke="#212830" stroke-width="0.5" stroke-linecap="square" stroke-miterlimit="10" x1="355.34" y1="80.535" x2="355.34" y2="80.535"/>
	
		<line fill="none" stroke="#212830" stroke-width="0.5" stroke-linecap="square" stroke-miterlimit="10" x1="399.997" y1="54.759" x2="399.997" y2="54.759"/>
	
		<line fill="none" stroke="#212830" stroke-width="0.5" stroke-linecap="square" stroke-miterlimit="10" x1="378.772" y1="4.664" x2="334.116" y2="27.747"/>
	
		<line fill="none" stroke="#212830" stroke-width="0.5" stroke-linecap="square" stroke-miterlimit="10" x1="411.514" y1="61.423" x2="399.997" y2="54.759"/>
	
		<line fill="none" stroke="#212830" stroke-width="0.5" stroke-linecap="square" stroke-miterlimit="10" x1="378.772" y1="17.949" x2="378.772" y2="4.664"/>
	
		<line fill="none" stroke="#212830" stroke-width="0.5" stroke-linecap="square" stroke-miterlimit="10" x1="349.119" y1="59.614" x2="393.775" y2="33.838"/>
	
		<line fill="none" stroke="#212830" stroke-width="0.5" stroke-linecap="square" stroke-miterlimit="10" x1="401.938" y1="29.115" x2="358.915" y2="53.964"/>
	<polyline fill="none" stroke="#212830" stroke-width="0.5" stroke-linecap="square" stroke-miterlimit="10" points="   399.953,54.715 399.909,53.214 399.82,51.669 399.6,50.125 399.334,48.492 398.982,46.902 398.584,45.27 398.099,43.592    397.526,41.959 396.908,40.282 396.202,38.649 395.452,37.016 394.614,35.427 393.731,33.838 392.804,32.293 391.833,30.792    390.819,29.292 389.715,27.879 388.612,26.511 387.464,25.188 386.273,23.952 385.082,22.76 383.846,21.656 382.611,20.641    381.332,19.67 380.051,18.788 378.772,18.037  "/>
	<polyline fill="none" stroke="#212830" stroke-width="0.5" stroke-linecap="square" stroke-miterlimit="10" points="   399.997,54.759 378.772,42.489 378.772,17.949  "/>
	<polyline fill="none" stroke="#212830" stroke-width="0.5" stroke-linecap="square" stroke-miterlimit="10" points="   334.116,43.769 334.116,68.309 355.34,80.535  "/>
	<polyline fill="none" stroke="#212830" stroke-width="0.5" stroke-linecap="square" stroke-miterlimit="10" points="   355.296,80.535 355.252,79.034 355.165,77.489 354.944,75.944 354.679,74.312 354.326,72.723 353.928,71.089 353.443,69.412    352.87,67.779 352.251,66.102 351.545,64.469 350.795,62.836 349.958,61.247 349.075,59.658 348.148,58.113 347.177,56.613    346.163,55.112 345.059,53.7 343.956,52.332 342.809,51.007 341.618,49.771 340.425,48.58 339.19,47.477 337.955,46.461    336.675,45.49 335.395,44.607 334.116,43.857  "/>
	
		<line fill="none" stroke="#212830" stroke-width="0.5" stroke-linecap="square" stroke-miterlimit="10" x1="355.34" y1="80.535" x2="355.34" y2="80.535"/>
	
		<line fill="none" stroke="#212830" stroke-width="0.5" stroke-linecap="square" stroke-miterlimit="10" x1="334.116" y1="68.309" x2="334.116" y2="68.309"/>
	
		<line fill="none" stroke="#212830" stroke-width="0.5" stroke-linecap="square" stroke-miterlimit="10" x1="334.116" y1="43.769" x2="334.116" y2="43.769"/>
	
		<line fill="none" stroke="#212830" stroke-width="0.5" stroke-linecap="square" stroke-miterlimit="10" x1="378.772" y1="42.489" x2="378.772" y2="42.489"/>
	
		<line fill="none" stroke="#212830" stroke-width="0.5" stroke-linecap="square" stroke-miterlimit="10" x1="399.997" y1="54.759" x2="399.997" y2="54.759"/>
	
		<line fill="none" stroke="#212830" stroke-width="0.5" stroke-linecap="square" stroke-miterlimit="10" x1="378.772" y1="17.949" x2="378.772" y2="17.949"/>
	
		<line fill="none" stroke="#212830" stroke-width="0.5" stroke-linecap="square" stroke-miterlimit="10" x1="378.772" y1="17.949" x2="334.116" y2="43.769"/>
	
		<line fill="none" stroke="#212830" stroke-width="0.5" stroke-linecap="square" stroke-miterlimit="10" x1="355.34" y1="80.535" x2="399.997" y2="54.759"/>
	
		<line fill="none" stroke="#212830" stroke-width="0.5" stroke-linecap="square" stroke-miterlimit="10" x1="334.116" y1="68.309" x2="378.772" y2="42.489"/>
	
		<line fill="none" stroke="#212830" stroke-width="0.5" stroke-linecap="square" stroke-miterlimit="10" x1="349.119" y1="59.614" x2="393.775" y2="33.838"/>
</g>
</svg>
