<?xml version="1.0" encoding="utf-8"?>
<!-- Generator: Adobe Illustrator 16.0.0, SVG Export Plug-In . SVG Version: 6.00 Build 0)  -->
<!DOCTYPE svg PUBLIC "-//W3C//DTD SVG 1.1//EN" "http://www.w3.org/Graphics/SVG/1.1/DTD/svg11.dtd">
<svg xmlns="http://www.w3.org/2000/svg" xmlns:xlink="http://www.w3.org/1999/xlink" version="1.1" id="图层_1" x="0px" y="0px" width="369.919px" height="147.811px" viewBox="0 0 369.919 147.811" xml:space="preserve">
<g>
	
		<line fill="none" stroke="#212830" stroke-width="0.5" stroke-linecap="square" stroke-miterlimit="10" x1="1.52" y1="43.619" x2="1.52" y2="16.651"/>
	
		<line fill="none" stroke="#212830" stroke-width="0.5" stroke-linecap="square" stroke-miterlimit="10" x1="130.811" y1="43.619" x2="130.811" y2="16.651"/>
	
		<line fill="none" stroke="#212830" stroke-width="0.5" stroke-linecap="square" stroke-miterlimit="10" x1="7.345" y1="23.713" x2="124.986" y2="23.713"/>
	<polygon fill-rule="evenodd" clip-rule="evenodd" fill="#212830" points="7.345,22.698 7.345,24.684 1.52,23.713  "/>
	<polygon fill="none" stroke="#212830" stroke-width="0.5" stroke-linecap="square" stroke-miterlimit="10" points="7.345,22.698    7.345,24.684 1.52,23.713 7.345,22.698  "/>
	<polygon fill-rule="evenodd" clip-rule="evenodd" fill="#212830" points="124.986,22.698 124.986,24.684 130.811,23.713  "/>
	<g>
		<path fill="#212830" d="M57.968,14.344c0-1.043,0.157-1.941,0.472-2.695c0.314-0.753,0.733-1.314,1.254-1.683    c0.405-0.292,0.823-0.438,1.254-0.438c0.701,0,1.331,0.357,1.888,1.073c0.697,0.886,1.045,2.086,1.045,3.602    c0,1.062-0.153,1.963-0.458,2.705c-0.306,0.742-0.696,1.28-1.17,1.615c-0.474,0.335-0.932,0.503-1.372,0.503    c-0.873,0-1.599-0.515-2.178-1.545C58.213,16.613,57.968,15.567,57.968,14.344z M59.29,14.513c0,1.259,0.155,2.287,0.465,3.083    c0.256,0.67,0.639,1.005,1.146,1.005c0.243,0,0.495-0.109,0.755-0.327c0.261-0.218,0.458-0.583,0.593-1.096    c0.207-0.773,0.311-1.864,0.311-3.271c0-1.043-0.108-1.914-0.324-2.61c-0.162-0.517-0.371-0.884-0.627-1.1    c-0.184-0.148-0.407-0.223-0.667-0.223c-0.306,0-0.578,0.137-0.816,0.412c-0.324,0.373-0.544,0.96-0.661,1.76    C59.348,12.946,59.29,13.735,59.29,14.513z"/>
		<path fill="#212830" d="M66.115,17.555c0.211,0,0.389,0.073,0.533,0.219c0.144,0.146,0.216,0.323,0.216,0.529    c0,0.207-0.073,0.384-0.219,0.53s-0.323,0.219-0.529,0.219c-0.207,0-0.383-0.073-0.529-0.219c-0.146-0.146-0.219-0.323-0.219-0.53    c0-0.211,0.073-0.389,0.219-0.533C65.731,17.627,65.908,17.555,66.115,17.555z"/>
		<path fill="#212830" d="M74.269,15.491v0.958h-1.228v2.415h-1.113v-2.415h-3.871v-0.863l4.242-6.058h0.742v5.963H74.269z     M71.928,15.491v-4.54l-3.21,4.54H71.928z"/>
	</g>
	
		<line fill="none" stroke="#212830" stroke-width="0.5" stroke-linecap="square" stroke-miterlimit="10" x1="1.52" y1="52.976" x2="1.52" y2="52.976"/>
	
		<line fill="none" stroke="#212830" stroke-width="0.5" stroke-linecap="square" stroke-miterlimit="10" x1="130.811" y1="52.976" x2="130.811" y2="52.976"/>
	
		<line fill="none" stroke="#212830" stroke-width="0.5" stroke-linecap="square" stroke-miterlimit="10" x1="130.811" y1="23.713" x2="130.811" y2="23.713"/>
	<polygon fill="none" stroke="#212830" stroke-width="0.5" stroke-linecap="square" stroke-miterlimit="10" points="124.986,22.698    124.986,24.684 130.811,23.713 124.986,22.698  "/>
	
		<line fill="none" stroke="#212830" stroke-width="0.5" stroke-linecap="square" stroke-miterlimit="10" x1="1.52" y1="52.976" x2="130.811" y2="52.976"/>
	<g>
		<path fill="#212830" d="M57.42,88.526l2.238-1.511l0.104,0.156c-1.285,1.181-2.169,2.1-2.655,2.76l-0.625-0.781    c0.138-0.173,0.208-0.434,0.208-0.78v-2.813h-0.417c-0.452,0-0.868,0.053-1.25,0.156l-0.468-0.468h2.134v-2.083H55.65    c-0.348,0.416-0.712,0.833-1.093,1.249l-0.156-0.104c1.11-1.631,1.908-3.558,2.395-5.779l1.041,0.572l-0.417,0.364    c-0.174,0.383-0.364,0.833-0.572,1.354h1.666l0.573-0.573l0.833,0.886h-3.176c-0.347,0.694-0.66,1.267-0.937,1.718h2.343    l0.521-0.521l0.781,0.833h-2.03v2.083h1.093l0.573-0.573l0.833,0.885H57.42V88.526z M59.971,90.348    c0.034-1.632,0.052-3.541,0.052-5.728c0-2.188-0.018-4.01-0.052-5.468l0.781,0.469h4.477l0.468-0.469l0.729,0.678l-0.364,0.26    v9.06c0,0.243-0.07,0.478-0.208,0.703c-0.139,0.226-0.399,0.408-0.781,0.547c-0.104-0.521-0.59-0.885-1.458-1.094v-0.208    c0.833,0.104,1.327,0.148,1.483,0.13c0.156-0.017,0.234-0.112,0.234-0.286v-9.008H60.7v8.331c0,0.313,0.017,0.885,0.052,1.718    L59.971,90.348z M61.116,81.34c0.659,0.625,1.318,1.319,1.978,2.082c0.381-1.11,0.606-2.03,0.677-2.759l1.041,0.572L64.448,81.6    c-0.313,0.973-0.608,1.788-0.885,2.447c0.486,0.66,0.833,1.198,1.041,1.614c0.208,0.417,0.304,0.729,0.287,0.938    c-0.018,0.208-0.104,0.391-0.26,0.547s-0.331-0.026-0.521-0.547c-0.191-0.521-0.478-1.128-0.859-1.822    c-0.556,1.007-1.302,1.996-2.239,2.968l-0.156-0.156c0.902-1.284,1.562-2.447,1.978-3.488c-0.452-0.694-1.059-1.563-1.822-2.604    L61.116,81.34z"/>
	</g>
	<polyline fill="none" stroke="#212830" stroke-width="0.5" stroke-linecap="square" stroke-miterlimit="10" points="   202.119,52.976 199.736,51.52 197.266,50.239 194.795,49.003 192.235,47.9 189.632,46.885 186.984,45.958 184.337,45.208    181.645,44.501 178.909,43.928 176.173,43.486 173.394,43.133 170.657,42.913 167.877,42.78 165.053,42.78 162.273,42.913    159.538,43.133 156.758,43.486 154.021,43.928 151.286,44.501 148.594,45.208 145.946,45.958 143.299,46.885 140.695,47.9    138.136,49.003 135.665,50.239 133.194,51.52 130.811,52.976  "/>
	
		<line fill="none" stroke="#212830" stroke-width="0.5" stroke-linecap="square" stroke-miterlimit="10" x1="1.52" y1="119.799" x2="1.52" y2="147.561"/>
	
		<line fill="none" stroke="#212830" stroke-width="0.5" stroke-linecap="square" stroke-miterlimit="10" x1="331.455" y1="119.799" x2="331.455" y2="147.561"/>
	
		<line fill="none" stroke="#212830" stroke-width="0.5" stroke-linecap="square" stroke-miterlimit="10" x1="7.345" y1="140.543" x2="325.631" y2="140.543"/>
	<polygon fill-rule="evenodd" clip-rule="evenodd" fill="#212830" points="7.345,139.572 7.345,141.514 1.52,140.543  "/>
	<polygon fill="none" stroke="#212830" stroke-width="0.5" stroke-linecap="square" stroke-miterlimit="10" points="7.345,139.572    7.345,141.514 1.52,140.543 7.345,139.572  "/>
	<polygon fill-rule="evenodd" clip-rule="evenodd" fill="#212830" points="325.631,139.572 325.631,141.514 331.455,140.543  "/>
	<g>
		<path fill="#212830" d="M164.642,127.622l2.226-1.086h0.222v7.724c0,0.513,0.021,0.832,0.064,0.958    c0.042,0.126,0.131,0.223,0.266,0.29s0.409,0.105,0.823,0.114v0.25h-3.439v-0.25c0.432-0.009,0.71-0.046,0.836-0.111    c0.126-0.064,0.213-0.152,0.263-0.263c0.049-0.11,0.074-0.439,0.074-0.988v-4.938c0-0.666-0.023-1.093-0.068-1.281    c-0.031-0.145-0.089-0.25-0.172-0.317s-0.183-0.102-0.3-0.102c-0.167,0-0.398,0.07-0.695,0.209L164.642,127.622z"/>
	</g>
	
		<line fill="none" stroke="#212830" stroke-width="0.5" stroke-linecap="square" stroke-miterlimit="10" x1="1.52" y1="110.442" x2="1.52" y2="110.442"/>
	
		<line fill="none" stroke="#212830" stroke-width="0.5" stroke-linecap="square" stroke-miterlimit="10" x1="331.455" y1="110.442" x2="331.455" y2="110.442"/>
	
		<line fill="none" stroke="#212830" stroke-width="0.5" stroke-linecap="square" stroke-miterlimit="10" x1="331.455" y1="140.543" x2="331.455" y2="140.543"/>
	<polygon fill="none" stroke="#212830" stroke-width="0.5" stroke-linecap="square" stroke-miterlimit="10" points="   325.631,139.572 325.631,141.514 331.455,140.543 325.631,139.572  "/>
	
		<line fill="none" stroke="#212830" stroke-width="0.5" stroke-linecap="square" stroke-miterlimit="10" x1="340.81" y1="52.976" x2="369.669" y2="52.976"/>
	
		<line fill="none" stroke="#212830" stroke-width="0.5" stroke-linecap="square" stroke-miterlimit="10" x1="340.81" y1="110.442" x2="369.669" y2="110.442"/>
	
		<line fill="none" stroke="#212830" stroke-width="0.5" stroke-linecap="square" stroke-miterlimit="10" x1="362.652" y1="58.802" x2="362.652" y2="104.616"/>
	<polygon fill-rule="evenodd" clip-rule="evenodd" fill="#212830" points="361.682,58.802 363.623,58.802 362.652,52.976  "/>
	<polygon fill="none" stroke="#212830" stroke-width="0.5" stroke-linecap="square" stroke-miterlimit="10" points="361.682,58.802    363.623,58.802 362.652,52.976 361.682,58.802  "/>
	<polygon fill-rule="evenodd" clip-rule="evenodd" fill="#212830" points="361.682,104.616 363.623,104.616 362.652,110.442  "/>
	<g>
		<path fill="#212830" d="M353.231,89.818c-1.043,0-1.941-0.157-2.694-0.473c-0.753-0.314-1.313-0.732-1.683-1.254    c-0.292-0.405-0.438-0.823-0.438-1.255c0-0.702,0.357-1.331,1.072-1.889c0.886-0.697,2.087-1.046,3.602-1.046    c1.062,0,1.963,0.153,2.704,0.459c0.742,0.306,1.28,0.695,1.615,1.17s0.503,0.933,0.503,1.373c0,0.872-0.515,1.599-1.545,2.179    C355.5,89.573,354.454,89.818,353.231,89.818z M353.4,88.496c1.259,0,2.286-0.155,3.082-0.466c0.67-0.256,1.005-0.638,1.005-1.146    c0-0.243-0.109-0.494-0.327-0.755c-0.219-0.262-0.584-0.459-1.096-0.594c-0.773-0.207-1.864-0.311-3.271-0.311    c-1.043,0-1.913,0.107-2.609,0.323c-0.518,0.162-0.884,0.371-1.1,0.628c-0.148,0.185-0.223,0.407-0.223,0.668    c0,0.306,0.138,0.577,0.411,0.815c0.374,0.324,0.96,0.545,1.761,0.661C351.833,88.437,352.622,88.496,353.4,88.496z"/>
		<path fill="#212830" d="M356.441,81.669c0-0.212,0.073-0.39,0.22-0.533c0.146-0.144,0.322-0.216,0.529-0.216    s0.383,0.073,0.529,0.219c0.146,0.146,0.219,0.323,0.219,0.53s-0.073,0.383-0.219,0.529c-0.146,0.146-0.322,0.219-0.529,0.219    c-0.212,0-0.389-0.072-0.533-0.219C356.514,82.052,356.441,81.876,356.441,81.669z"/>
		<path fill="#212830" d="M355.99,73.608l1.76,0.641v5.396h-0.25c-1.447-1.587-2.63-2.705-3.547-3.353s-1.756-0.972-2.516-0.972    c-0.58,0-1.057,0.178-1.43,0.533s-0.56,0.78-0.56,1.275c0,0.449,0.132,0.853,0.395,1.21c0.263,0.358,0.648,0.622,1.156,0.793v0.25    c-0.831-0.112-1.47-0.401-1.915-0.867s-0.668-1.047-0.668-1.743c0-0.742,0.238-1.362,0.715-1.858    c0.477-0.497,1.039-0.746,1.687-0.746c0.463,0,0.926,0.108,1.389,0.324c0.729,0.333,1.5,0.872,2.313,1.619    c1.223,1.119,1.96,1.818,2.212,2.098v-2.388c0-0.486-0.018-0.827-0.054-1.022s-0.109-0.372-0.219-0.529    c-0.11-0.157-0.267-0.295-0.469-0.411V73.608z"/>
	</g>
	
		<line fill="none" stroke="#212830" stroke-width="0.5" stroke-linecap="square" stroke-miterlimit="10" x1="331.455" y1="52.976" x2="331.455" y2="52.976"/>
	
		<line fill="none" stroke="#212830" stroke-width="0.5" stroke-linecap="square" stroke-miterlimit="10" x1="331.455" y1="110.442" x2="331.455" y2="110.442"/>
	
		<line fill="none" stroke="#212830" stroke-width="0.5" stroke-linecap="square" stroke-miterlimit="10" x1="362.652" y1="110.442" x2="362.652" y2="110.442"/>
	<polygon fill="none" stroke="#212830" stroke-width="0.5" stroke-linecap="square" stroke-miterlimit="10" points="   361.682,104.616 363.623,104.616 362.652,110.442 361.682,104.616  "/>
	
		<line fill="none" stroke="#212830" stroke-width="0.5" stroke-linecap="square" stroke-miterlimit="10" x1="202.164" y1="43.619" x2="202.164" y2="16.651"/>
	
		<line fill="none" stroke="#212830" stroke-width="0.5" stroke-linecap="square" stroke-miterlimit="10" x1="331.455" y1="43.619" x2="331.455" y2="16.651"/>
	
		<line fill="none" stroke="#212830" stroke-width="0.5" stroke-linecap="square" stroke-miterlimit="10" x1="207.988" y1="23.713" x2="325.631" y2="23.713"/>
	<polygon fill-rule="evenodd" clip-rule="evenodd" fill="#212830" points="207.988,22.698 207.988,24.684 202.164,23.713  "/>
	<polygon fill="none" stroke="#212830" stroke-width="0.5" stroke-linecap="square" stroke-miterlimit="10" points="207.988,22.698    207.988,24.684 202.164,23.713 207.988,22.698  "/>
	<polygon fill-rule="evenodd" clip-rule="evenodd" fill="#212830" points="325.631,22.698 325.631,24.684 331.455,23.713  "/>
	<g>
		<path fill="#212830" d="M258.663,14.344c0-1.043,0.157-1.941,0.472-2.695c0.314-0.753,0.733-1.314,1.255-1.683    c0.405-0.292,0.823-0.438,1.255-0.438c0.701,0,1.33,0.357,1.888,1.073c0.696,0.886,1.046,2.086,1.046,3.602    c0,1.062-0.153,1.963-0.459,2.705c-0.307,0.742-0.695,1.28-1.17,1.615c-0.475,0.335-0.932,0.503-1.373,0.503    c-0.872,0-1.598-0.515-2.178-1.545C258.908,16.613,258.663,15.567,258.663,14.344z M259.984,14.513    c0,1.259,0.156,2.287,0.466,3.083c0.257,0.67,0.639,1.005,1.146,1.005c0.243,0,0.495-0.109,0.755-0.327    c0.262-0.218,0.459-0.583,0.594-1.096c0.207-0.773,0.311-1.864,0.311-3.271c0-1.043-0.107-1.914-0.324-2.61    c-0.162-0.517-0.371-0.884-0.627-1.1c-0.184-0.148-0.406-0.223-0.668-0.223c-0.305,0-0.577,0.137-0.815,0.412    c-0.323,0.373-0.544,0.96-0.661,1.76C260.043,12.946,259.984,13.735,259.984,14.513z"/>
		<path fill="#212830" d="M266.811,17.555c0.211,0,0.389,0.073,0.532,0.219s0.216,0.323,0.216,0.529c0,0.207-0.073,0.384-0.219,0.53    c-0.146,0.146-0.323,0.219-0.529,0.219c-0.207,0-0.384-0.073-0.529-0.219c-0.146-0.146-0.22-0.323-0.22-0.53    c0-0.211,0.073-0.389,0.22-0.533C266.427,17.627,266.604,17.555,266.811,17.555z"/>
		<path fill="#212830" d="M274.963,15.491v0.958h-1.227v2.415h-1.113v-2.415h-3.871v-0.863l4.242-6.058h0.742v5.963H274.963z     M272.623,15.491v-4.54l-3.209,4.54H272.623z"/>
	</g>
	
		<line fill="none" stroke="#212830" stroke-width="0.5" stroke-linecap="square" stroke-miterlimit="10" x1="202.164" y1="52.976" x2="202.164" y2="52.976"/>
	
		<line fill="none" stroke="#212830" stroke-width="0.5" stroke-linecap="square" stroke-miterlimit="10" x1="331.455" y1="52.976" x2="331.455" y2="52.976"/>
	
		<line fill="none" stroke="#212830" stroke-width="0.5" stroke-linecap="square" stroke-miterlimit="10" x1="331.455" y1="23.713" x2="331.455" y2="23.713"/>
	<polygon fill="none" stroke="#212830" stroke-width="0.5" stroke-linecap="square" stroke-miterlimit="10" points="325.631,22.698    325.631,24.684 331.455,23.713 325.631,22.698  "/>
	<g>
		<path fill="#212830" d="M260.832,88.417l2.134-1.25l0.156,0.156c-1.527,1.181-2.395,2.03-2.603,2.551l-0.729-0.78    c0.207-0.174,0.313-0.434,0.313-0.781V85.5h-0.313c-0.452,0-0.869,0.052-1.25,0.156l-0.469-0.469h2.031v-2.083h-1.042    c-0.312,0.383-0.624,0.747-0.937,1.094l-0.156-0.104c0.832-1.249,1.543-3.124,2.135-5.623l1.197,0.625l-0.417,0.208    c-0.278,0.625-0.486,1.111-0.625,1.458h1.51l0.624-0.677l0.886,0.989h-3.124c-0.347,0.694-0.659,1.268-0.937,1.718h2.238    l0.625-0.624l0.833,0.937h-2.082v2.083h0.937l0.624-0.573l0.781,0.886h-2.342V88.417z M264.215,81.908    c-0.416,0.938-0.832,1.684-1.249,2.239l-0.156-0.104c0.521-1.075,0.919-2.62,1.197-4.634l1.146,0.625l-0.416,0.208    c-0.104,0.278-0.244,0.729-0.417,1.354h1.562c0-1.146-0.018-2.221-0.052-3.229l1.197,0.625l-0.417,0.364v2.239h1.458l0.677-0.729    l0.938,1.041h-3.072c-0.035,1.007-0.086,1.944-0.156,2.812h2.082l0.678-0.729l0.937,1.041h-3.331    c0.729,2.534,1.891,4.079,3.487,4.634v0.208c-0.521-0.034-0.903,0.139-1.146,0.521c-1.318-1.25-2.186-3.037-2.603-5.363h-0.156    c-0.591,2.639-2.187,4.478-4.789,5.52l-0.104-0.156c2.256-1.319,3.645-3.106,4.165-5.363h-1.146c-0.451,0-0.867,0.052-1.249,0.156    l-0.469-0.469h2.915c0.069-0.902,0.121-1.84,0.156-2.812H264.215z"/>
	</g>
	<g>
		<path fill="#212830" d="M161.722,9.945l1.874-1.146l0.104,0.156c-1.354,1.146-2.1,1.96-2.238,2.447l-0.677-0.833    c0.138-0.138,0.225-0.381,0.26-0.729V7.029h-0.26c-0.451,0-0.868,0.052-1.25,0.156l-0.468-0.468h1.978V4.634h-1.041    c-0.243,0.313-0.556,0.677-0.937,1.093l-0.156-0.104c0.902-1.388,1.631-3.262,2.187-5.623l1.145,0.625l-0.417,0.26    c-0.278,0.591-0.486,1.06-0.625,1.406h1.301l0.677-0.625l0.833,0.937h-2.915c-0.348,0.66-0.66,1.233-0.937,1.718h2.186    l0.573-0.573l0.833,0.885h-2.03v2.083h0.833l0.573-0.625l0.781,0.937h-2.187V9.945z M164.117,12.027    c0.034-2.291,0.052-4.304,0.052-6.04c0-1.735-0.018-3.627-0.052-5.676l0.781,0.469h4.737l0.364-0.469l0.781,0.625l-0.417,0.313    v9.372c0.034,0.694-0.33,1.163-1.093,1.406c-0.035-0.486-0.504-0.833-1.406-1.041v-0.261c0.347,0.035,0.746,0.061,1.197,0.078    c0.451,0.017,0.659-0.164,0.625-0.546V1.093h-4.841v10.57L164.117,12.027z M165.054,2.864h3.124l0.625-0.573l0.729,0.885h-2.759    c-0.451,0-0.868,0.052-1.249,0.156L165.054,2.864z M165.887,4.426l0.729,0.417h1.25l0.364-0.521l0.729,0.625l-0.364,0.313    c0,1.736,0.017,2.864,0.052,3.384l-0.729,0.313V7.966h-1.302v0.937l-0.729,0.26c0.034-0.763,0.052-1.588,0.052-2.473    S165.921,5.05,165.887,4.426z M166.615,5.154v2.5h1.302v-2.5H166.615z"/>
	</g>
	
		<line fill="none" stroke="#212830" stroke-width="0.5" stroke-linecap="square" stroke-miterlimit="10" x1="1.52" y1="110.442" x2="331.455" y2="110.442"/>
	
		<line fill="none" stroke="#212830" stroke-width="0.5" stroke-linecap="square" stroke-miterlimit="10" x1="202.164" y1="52.976" x2="331.455" y2="52.976"/>
	
		<line fill="none" stroke="#212830" stroke-width="0.5" stroke-linecap="square" stroke-miterlimit="10" x1="331.455" y1="110.442" x2="331.455" y2="52.976"/>
	
		<line fill="none" stroke="#212830" stroke-width="0.5" stroke-linecap="square" stroke-miterlimit="10" x1="166.465" y1="110.442" x2="130.811" y2="52.976"/>
	
		<line fill="none" stroke="#212830" stroke-width="0.5" stroke-linecap="square" stroke-miterlimit="10" x1="165.583" y1="15.459" x2="165.583" y2="32.276"/>
	
		<line fill="none" stroke="#212830" stroke-width="0.5" stroke-linecap="square" stroke-miterlimit="10" x1="1.52" y1="52.976" x2="1.52" y2="110.442"/>
	
		<line fill="none" stroke="#212830" stroke-width="0.5" stroke-linecap="square" stroke-miterlimit="10" x1="166.465" y1="110.442" x2="202.164" y2="52.976"/>
	
		<line fill="none" stroke="#212830" stroke-width="0.5" stroke-linecap="square" stroke-miterlimit="10" x1="133.856" y1="57.875" x2="145.682" y2="46.09"/>
	
		<line fill="none" stroke="#212830" stroke-width="0.5" stroke-linecap="square" stroke-miterlimit="10" x1="137.871" y1="64.363" x2="159.052" y2="43.178"/>
	
		<line fill="none" stroke="#212830" stroke-width="0.5" stroke-linecap="square" stroke-miterlimit="10" x1="141.931" y1="70.851" x2="169.863" y2="42.869"/>
	
		<line fill="none" stroke="#212830" stroke-width="0.5" stroke-linecap="square" stroke-miterlimit="10" x1="145.946" y1="77.339" x2="179.262" y2="44.016"/>
	
		<line fill="none" stroke="#212830" stroke-width="0.5" stroke-linecap="square" stroke-miterlimit="10" x1="149.962" y1="83.828" x2="187.602" y2="46.179"/>
	
		<line fill="none" stroke="#212830" stroke-width="0.5" stroke-linecap="square" stroke-miterlimit="10" x1="153.978" y1="90.316" x2="195.104" y2="49.136"/>
	
		<line fill="none" stroke="#212830" stroke-width="0.5" stroke-linecap="square" stroke-miterlimit="10" x1="157.993" y1="96.803" x2="201.943" y2="52.843"/>
	
		<line fill="none" stroke="#212830" stroke-width="0.5" stroke-linecap="square" stroke-miterlimit="10" x1="162.009" y1="103.292" x2="185.528" y2="79.767"/>
	
		<line fill="none" stroke="#212830" stroke-width="0.5" stroke-linecap="square" stroke-miterlimit="10" x1="166.068" y1="109.78" x2="168.319" y2="107.485"/>
	
		<line fill="none" stroke="#212830" stroke-width="0.5" stroke-linecap="square" stroke-miterlimit="10" x1="167.48" y1="108.853" x2="162.273" y2="103.689"/>
	
		<line fill="none" stroke="#212830" stroke-width="0.5" stroke-linecap="square" stroke-miterlimit="10" x1="171.496" y1="102.409" x2="145.108" y2="75.971"/>
	
		<line fill="none" stroke="#212830" stroke-width="0.5" stroke-linecap="square" stroke-miterlimit="10" x1="175.511" y1="95.921" x2="131.914" y2="52.27"/>
	
		<line fill="none" stroke="#212830" stroke-width="0.5" stroke-linecap="square" stroke-miterlimit="10" x1="179.527" y1="89.433" x2="138.842" y2="48.695"/>
	
		<line fill="none" stroke="#212830" stroke-width="0.5" stroke-linecap="square" stroke-miterlimit="10" x1="183.542" y1="82.945" x2="146.476" y2="45.826"/>
	
		<line fill="none" stroke="#212830" stroke-width="0.5" stroke-linecap="square" stroke-miterlimit="10" x1="187.559" y1="76.457" x2="154.948" y2="43.795"/>
	
		<line fill="none" stroke="#212830" stroke-width="0.5" stroke-linecap="square" stroke-miterlimit="10" x1="191.617" y1="69.968" x2="164.479" y2="42.824"/>
	
		<line fill="none" stroke="#212830" stroke-width="0.5" stroke-linecap="square" stroke-miterlimit="10" x1="195.633" y1="63.48" x2="175.556" y2="43.398"/>
	
		<line fill="none" stroke="#212830" stroke-width="0.5" stroke-linecap="square" stroke-miterlimit="10" x1="199.648" y1="56.992" x2="189.5" y2="46.797"/>
	<polygon fill-rule="evenodd" clip-rule="evenodd" fill="#212830" points="164.612,32.276 166.554,32.276 165.583,38.146  "/>
	<polygon fill="none" stroke="#212830" stroke-width="0.5" stroke-linecap="square" stroke-miterlimit="10" points="164.612,32.276    166.554,32.276 165.583,38.146 164.612,32.276  "/>
</g>
</svg>
