<?xml version="1.0" encoding="utf-8"?>
<!-- Generator: Adobe Illustrator 16.0.0, SVG Export Plug-In . SVG Version: 6.00 Build 0)  -->
<!DOCTYPE svg PUBLIC "-//W3C//DTD SVG 1.1//EN" "http://www.w3.org/Graphics/SVG/1.1/DTD/svg11.dtd">
<svg xmlns="http://www.w3.org/2000/svg" xmlns:xlink="http://www.w3.org/1999/xlink" version="1.1" id="图层_1" x="0px" y="0px" width="303.465px" height="278.921px" viewBox="0 0 303.465 278.921" xml:space="preserve">
<g>
	
		<line fill="none" stroke="#212830" stroke-width="0.5" stroke-linecap="square" stroke-miterlimit="10" x1="161.215" y1="1.492" x2="260.588" y2="1.492"/>
	
		<line fill="none" stroke="#212830" stroke-width="0.5" stroke-linecap="square" stroke-miterlimit="10" x1="260.588" y1="192.383" x2="173.217" y2="247.555"/>
	<polygon fill-rule="evenodd" clip-rule="evenodd" fill="#212830" points="216.947,98.063 217.388,99.476 212.975,100.005  "/>
	<polygon fill="none" stroke="#212830" stroke-width="0.5" stroke-linecap="square" stroke-miterlimit="10" points="216.947,98.063    217.388,99.476 212.975,100.005 216.947,98.063  "/>
	<g>
		<path fill="#212830" d="M206.867,68.544c0.114,0.196,0.193,0.379,0.237,0.55s0.088,0.505,0.132,1.005l0.223,2.492    c0.203-0.243,0.496-0.628,0.881-1.155c0.186-0.257,0.416-0.606,0.689-1.048c0.164-0.27,0.266-0.459,0.303-0.567    c0.021-0.054,0.031-0.11,0.031-0.167c0-0.037-0.012-0.068-0.035-0.091c-0.024-0.023-0.086-0.051-0.186-0.083    s-0.182-0.091-0.248-0.177s-0.099-0.185-0.099-0.296c0-0.138,0.04-0.25,0.122-0.334c0.08-0.084,0.182-0.127,0.303-0.127    c0.148,0,0.275,0.062,0.381,0.185c0.104,0.123,0.156,0.293,0.156,0.509c0,0.267-0.092,0.572-0.273,0.914    c-0.182,0.343-0.533,0.869-1.053,1.578c-0.521,0.709-1.15,1.482-1.889,2.32c-0.51,0.577-0.889,0.941-1.135,1.091    s-0.457,0.225-0.633,0.225c-0.104,0-0.196-0.04-0.275-0.119c-0.08-0.08-0.119-0.171-0.119-0.276c0-0.131,0.055-0.251,0.164-0.359    s0.229-0.162,0.357-0.162c0.067,0,0.123,0.015,0.167,0.045c0.026,0.017,0.056,0.065,0.089,0.145    c0.031,0.079,0.061,0.132,0.088,0.16c0.018,0.017,0.037,0.025,0.061,0.025c0.021,0,0.057-0.017,0.107-0.051    c0.186-0.115,0.4-0.297,0.647-0.547c0.324-0.331,0.563-0.601,0.72-0.811l-0.284-3.211c-0.048-0.53-0.118-0.853-0.213-0.967    s-0.253-0.172-0.476-0.172c-0.071,0-0.197,0.01-0.38,0.03l-0.046-0.188L206.867,68.544z"/>
	</g>
	
		<line fill="none" stroke="#212830" stroke-width="0.5" stroke-linecap="square" stroke-miterlimit="10" x1="212.975" y1="100.005" x2="247.836" y2="100.005"/>
	<polygon fill-rule="evenodd" clip-rule="evenodd" fill="#212830" points="194.398,112.584 193.604,111.349 190.294,114.306  "/>
	<polygon fill="none" stroke="#212830" stroke-width="0.5" stroke-linecap="square" stroke-miterlimit="10" points="   194.398,112.584 193.604,111.349 190.294,114.306 194.398,112.584  "/>
	
		<line fill="none" stroke="#212830" stroke-width="0.5" stroke-linecap="square" stroke-miterlimit="10" x1="173.217" y1="247.555" x2="1.52" y2="247.555"/>
	
		<line fill="none" stroke="#212830" stroke-width="0.5" stroke-linecap="square" stroke-miterlimit="10" x1="260.588" y1="1.492" x2="260.588" y2="192.383"/>
	
		<line fill="none" stroke="#212830" stroke-width="0.5" stroke-linecap="square" stroke-miterlimit="10" x1="1.52" y1="254.573" x2="1.52" y2="278.671"/>
	
		<line fill="none" stroke="#212830" stroke-width="0.5" stroke-linecap="square" stroke-miterlimit="10" x1="173.217" y1="254.573" x2="173.217" y2="278.671"/>
	
		<line fill="none" stroke="#212830" stroke-width="0.5" stroke-linecap="square" stroke-miterlimit="10" x1="5.889" y1="273.375" x2="168.805" y2="273.375"/>
	<polygon fill-rule="evenodd" clip-rule="evenodd" fill="#212830" points="5.889,272.668 5.889,274.125 1.52,273.375  "/>
	<polygon fill="none" stroke="#212830" stroke-width="0.5" stroke-linecap="square" stroke-miterlimit="10" points="5.889,272.668    5.889,274.125 1.52,273.375 5.889,272.668  "/>
	<polygon fill-rule="evenodd" clip-rule="evenodd" fill="#212830" points="168.805,272.668 168.805,274.125 173.217,273.375  "/>
	<g>
		<path fill="#212830" d="M83.039,262.75v0.188c-0.445,0.044-0.809,0.133-1.091,0.267c-0.282,0.133-0.561,0.337-0.835,0.61    c-0.275,0.273-0.503,0.578-0.684,0.914s-0.332,0.735-0.453,1.197c0.486-0.334,0.974-0.501,1.463-0.501    c0.469,0,0.876,0.188,1.22,0.567c0.344,0.378,0.516,0.864,0.516,1.458c0,0.574-0.174,1.098-0.521,1.57    c-0.418,0.574-0.972,0.86-1.661,0.86c-0.469,0-0.868-0.155-1.195-0.466c-0.642-0.604-0.962-1.388-0.962-2.35    c0-0.614,0.123-1.198,0.37-1.752c0.246-0.554,0.598-1.045,1.056-1.475c0.457-0.429,0.895-0.717,1.314-0.865    c0.418-0.148,0.808-0.224,1.169-0.224H83.039z M79.889,266.296c-0.061,0.455-0.091,0.823-0.091,1.104    c0,0.324,0.06,0.677,0.18,1.057c0.12,0.38,0.298,0.681,0.534,0.903c0.172,0.159,0.381,0.238,0.628,0.238    c0.293,0,0.556-0.139,0.787-0.415c0.231-0.277,0.347-0.672,0.347-1.186c0-0.577-0.115-1.077-0.345-1.499    c-0.229-0.422-0.555-0.633-0.977-0.633c-0.128,0-0.266,0.027-0.413,0.081S80.176,266.118,79.889,266.296z"/>
		<path fill="#212830" d="M84.893,268.778c0.159,0,0.292,0.055,0.4,0.164c0.108,0.11,0.162,0.243,0.162,0.398    s-0.055,0.287-0.165,0.397c-0.11,0.109-0.242,0.164-0.397,0.164s-0.288-0.055-0.397-0.164c-0.11-0.11-0.165-0.242-0.165-0.397    c0-0.159,0.055-0.292,0.165-0.4C84.604,268.832,84.737,268.778,84.893,268.778z"/>
		<path fill="#212830" d="M86.726,264.2c0.196-0.463,0.443-0.82,0.742-1.071c0.298-0.252,0.671-0.378,1.116-0.378    c0.55,0,0.972,0.18,1.266,0.537c0.223,0.267,0.334,0.552,0.334,0.856c0,0.499-0.314,1.016-0.942,1.55    c0.422,0.165,0.741,0.401,0.957,0.709c0.216,0.307,0.324,0.668,0.324,1.083c0,0.595-0.189,1.109-0.567,1.545    c-0.493,0.567-1.207,0.851-2.142,0.851c-0.462,0-0.777-0.057-0.944-0.172c-0.167-0.114-0.25-0.238-0.25-0.369    c0-0.099,0.04-0.185,0.119-0.259c0.08-0.074,0.175-0.111,0.286-0.111c0.084,0,0.17,0.014,0.258,0.04    c0.058,0.018,0.188,0.079,0.39,0.186c0.202,0.106,0.342,0.169,0.42,0.189c0.125,0.037,0.258,0.056,0.4,0.056    c0.344,0,0.644-0.133,0.898-0.399c0.255-0.268,0.382-0.583,0.382-0.947c0-0.267-0.059-0.527-0.177-0.78    c-0.088-0.188-0.184-0.332-0.289-0.431c-0.145-0.135-0.344-0.257-0.598-0.367c-0.253-0.109-0.511-0.164-0.774-0.164h-0.162V266.2    c0.267-0.033,0.534-0.13,0.803-0.288c0.268-0.159,0.463-0.35,0.584-0.572c0.122-0.224,0.183-0.468,0.183-0.734    c0-0.348-0.109-0.629-0.327-0.844c-0.218-0.214-0.489-0.321-0.813-0.321c-0.523,0-0.96,0.28-1.311,0.841L86.726,264.2z"/>
		<path fill="#212830" d="M95.865,262.893l-0.395,0.86h-2.066l-0.451,0.922c0.895,0.132,1.604,0.465,2.126,0.998    c0.449,0.459,0.674,0.999,0.674,1.62c0,0.361-0.074,0.696-0.22,1.003c-0.147,0.308-0.332,0.569-0.555,0.785    s-0.471,0.39-0.744,0.521c-0.388,0.186-0.787,0.278-1.195,0.278c-0.412,0-0.711-0.069-0.898-0.21    c-0.188-0.14-0.281-0.294-0.281-0.463c0-0.095,0.039-0.179,0.117-0.251s0.175-0.108,0.293-0.108c0.088,0,0.165,0.013,0.23,0.04    s0.178,0.097,0.337,0.208c0.253,0.175,0.509,0.263,0.77,0.263c0.395,0,0.742-0.149,1.041-0.448s0.448-0.662,0.448-1.091    c0-0.416-0.134-0.803-0.4-1.162c-0.267-0.36-0.634-0.638-1.104-0.834c-0.368-0.151-0.869-0.239-1.504-0.263l1.316-2.669H95.865z"/>
	</g>
	
		<line fill="none" stroke="#212830" stroke-width="0.5" stroke-linecap="square" stroke-miterlimit="10" x1="1.52" y1="247.555" x2="1.52" y2="247.555"/>
	
		<line fill="none" stroke="#212830" stroke-width="0.5" stroke-linecap="square" stroke-miterlimit="10" x1="173.217" y1="247.555" x2="173.217" y2="247.555"/>
	
		<line fill="none" stroke="#212830" stroke-width="0.5" stroke-linecap="square" stroke-miterlimit="10" x1="173.217" y1="273.375" x2="173.217" y2="273.375"/>
	<g>
		<path fill="#212830" d="M227.455,85.927v2c0,0.432,0.047,0.701,0.142,0.805c0.128,0.148,0.322,0.223,0.582,0.223h0.263v0.188    H225.5v-0.188h0.258c0.291,0,0.498-0.094,0.623-0.284c0.068-0.104,0.102-0.353,0.102-0.744v-4.437    c0-0.432-0.045-0.701-0.137-0.805c-0.131-0.149-0.327-0.223-0.588-0.223H225.5v-0.188h2.517c0.614,0,1.099,0.063,1.453,0.19    c0.354,0.127,0.653,0.34,0.896,0.641c0.243,0.301,0.364,0.657,0.364,1.069c0,0.561-0.185,1.016-0.555,1.367    c-0.369,0.352-0.892,0.527-1.566,0.527c-0.166,0-0.345-0.012-0.537-0.035C227.88,86.01,227.674,85.975,227.455,85.927z     M227.455,85.638c0.179,0.034,0.338,0.06,0.476,0.076c0.138,0.017,0.257,0.025,0.354,0.025c0.352,0,0.654-0.136,0.908-0.408    c0.256-0.272,0.383-0.624,0.383-1.056c0-0.297-0.061-0.573-0.182-0.828c-0.122-0.255-0.295-0.446-0.518-0.573    c-0.223-0.126-0.476-0.189-0.759-0.189c-0.173,0-0.394,0.032-0.663,0.096V85.638z"/>
	</g>
	<polygon fill="none" stroke="#212830" stroke-width="0.5" stroke-linecap="square" stroke-miterlimit="10" points="   168.805,272.668 168.805,274.125 173.217,273.375 168.805,272.668  "/>
	<g>
		<path fill="#212830" d="M195.535,115.931h3.215v0.126l-3.504,3.646h1.484c0.351,0,0.573-0.013,0.668-0.041    c0.094-0.027,0.182-0.084,0.261-0.172s0.168-0.247,0.266-0.476h0.188l-0.44,1.377h-3.297v-0.147l3.504-3.646h-1.458    c-0.308,0-0.493,0.009-0.557,0.025c-0.095,0.021-0.188,0.074-0.281,0.16s-0.188,0.229-0.286,0.428h-0.192L195.535,115.931z"/>
	</g>
	
		<line fill="none" stroke="#212830" stroke-width="0.5" stroke-linecap="square" stroke-miterlimit="10" x1="212.975" y1="100.005" x2="212.975" y2="70.081"/>
	
		<line fill="none" stroke="#212830" stroke-width="0.5" stroke-linecap="square" stroke-miterlimit="10" x1="1.52" y1="247.555" x2="73.8" y2="56.708"/>
	
		<line fill="none" stroke="#212830" stroke-width="0.5" stroke-linecap="square" stroke-miterlimit="10" x1="267.648" y1="1.492" x2="303.215" y2="1.492"/>
	
		<line fill="none" stroke="#212830" stroke-width="0.5" stroke-linecap="square" stroke-miterlimit="10" x1="267.648" y1="192.383" x2="303.215" y2="192.383"/>
	
		<line fill="none" stroke="#212830" stroke-width="0.5" stroke-linecap="square" stroke-miterlimit="10" x1="297.963" y1="5.906" x2="297.963" y2="187.97"/>
	<polygon fill-rule="evenodd" clip-rule="evenodd" fill="#212830" points="297.213,5.906 298.713,5.906 297.963,1.492  "/>
	<polygon fill="none" stroke="#212830" stroke-width="0.5" stroke-linecap="square" stroke-miterlimit="10" points="297.213,5.906    298.713,5.906 297.963,1.492 297.213,5.906  "/>
	<polygon fill-rule="evenodd" clip-rule="evenodd" fill="#212830" points="297.213,187.97 298.713,187.97 297.963,192.383  "/>
	<g>
		<path fill="#212830" d="M294.438,98.979h-0.187c-0.008-0.439-0.109-0.848-0.307-1.226c-0.197-0.378-0.543-0.744-1.035-1.097    c-0.494-0.353-1.035-0.598-1.626-0.737c0.341,0.53,0.511,1.01,0.511,1.438c0,0.483-0.186,0.896-0.559,1.241    s-0.869,0.517-1.486,0.517c-0.601,0-1.136-0.172-1.605-0.517c-0.57-0.416-0.855-0.957-0.855-1.626    c0-0.563,0.232-1.046,0.699-1.448c0.576-0.493,1.289-0.739,2.137-0.739c0.763,0,1.475,0.187,2.134,0.562    c0.66,0.375,1.208,0.896,1.644,1.565c0.357,0.543,0.536,1.136,0.536,1.778V98.979z M290.91,95.839    c-0.439-0.061-0.791-0.091-1.054-0.091c-0.327,0-0.681,0.056-1.062,0.167c-0.379,0.111-0.67,0.269-0.873,0.473    c-0.202,0.205-0.304,0.437-0.304,0.697c0,0.3,0.136,0.564,0.405,0.79s0.672,0.339,1.205,0.339c0.713,0,1.27-0.15,1.671-0.451    c0.29-0.219,0.436-0.489,0.436-0.81c0-0.155-0.037-0.339-0.111-0.552C291.149,96.188,291.045,96.001,290.91,95.839z"/>
	</g>
	
		<line fill="none" stroke="#212830" stroke-width="0.5" stroke-linecap="square" stroke-miterlimit="10" x1="260.588" y1="1.492" x2="260.588" y2="1.492"/>
	
		<line fill="none" stroke="#212830" stroke-width="0.5" stroke-linecap="square" stroke-miterlimit="10" x1="260.588" y1="192.383" x2="260.588" y2="192.383"/>
	
		<line fill="none" stroke="#212830" stroke-width="0.5" stroke-linecap="square" stroke-miterlimit="10" x1="297.963" y1="192.383" x2="297.963" y2="192.383"/>
	<polygon fill="none" stroke="#212830" stroke-width="0.5" stroke-linecap="square" stroke-miterlimit="10" points="297.213,187.97    298.713,187.97 297.963,192.383 297.213,187.97  "/>
	
		<line fill="none" stroke="#212830" stroke-width="0.5" stroke-linecap="square" stroke-miterlimit="10" x1="176.968" y1="253.513" x2="192.016" y2="277.391"/>
	
		<line fill="none" stroke="#212830" stroke-width="0.5" stroke-linecap="square" stroke-miterlimit="10" x1="264.339" y1="198.298" x2="279.386" y2="222.176"/>
	
		<line fill="none" stroke="#212830" stroke-width="0.5" stroke-linecap="square" stroke-miterlimit="10" x1="192.897" y1="270.55" x2="272.855" y2="220.057"/>
	<polygon fill-rule="evenodd" clip-rule="evenodd" fill="#212830" points="192.5,269.932 193.295,271.167 189.191,272.933  "/>
	<polygon fill="none" stroke="#212830" stroke-width="0.5" stroke-linecap="square" stroke-miterlimit="10" points="192.5,269.932    193.295,271.167 189.191,272.933 192.5,269.932  "/>
	<polygon fill-rule="evenodd" clip-rule="evenodd" fill="#212830" points="272.502,219.44 273.252,220.675 276.605,217.718  "/>
	<g>
		<path fill="#212830" d="M225.18,241.751c-0.696-0.087-1.184-0.203-1.46-0.349c-0.277-0.145-0.493-0.34-0.647-0.586    c-0.237-0.376-0.297-0.794-0.177-1.25s0.421-0.836,0.903-1.141c0.469-0.295,0.926-0.405,1.371-0.332    c0.445,0.075,0.771,0.275,0.977,0.601c0.137,0.218,0.199,0.488,0.187,0.811c-0.012,0.323-0.165,0.791-0.462,1.404    c0.748,0.072,1.272,0.168,1.576,0.288c0.4,0.154,0.702,0.394,0.905,0.716c0.257,0.409,0.321,0.856,0.192,1.343    c-0.129,0.485-0.445,0.888-0.951,1.206c-0.552,0.347-1.09,0.446-1.616,0.295c-0.42-0.123-0.733-0.349-0.94-0.677    c-0.162-0.258-0.236-0.566-0.223-0.929C224.828,242.791,224.95,242.324,225.18,241.751z M225.564,240.869    c0.148-0.523,0.212-0.904,0.191-1.141c-0.021-0.235-0.103-0.468-0.245-0.692c-0.188-0.301-0.421-0.481-0.696-0.546    c-0.275-0.063-0.559-0.003-0.85,0.181c-0.292,0.184-0.477,0.416-0.553,0.7c-0.076,0.283-0.044,0.538,0.098,0.764    c0.094,0.148,0.226,0.273,0.395,0.375c0.169,0.1,0.366,0.175,0.591,0.22L225.564,240.869z M225.484,241.788    c-0.111,0.35-0.149,0.678-0.115,0.985s0.138,0.599,0.311,0.874c0.231,0.367,0.518,0.6,0.859,0.694    c0.34,0.094,0.666,0.042,0.977-0.153c0.309-0.194,0.502-0.437,0.578-0.729c0.075-0.29,0.035-0.561-0.121-0.809    c-0.13-0.206-0.3-0.355-0.512-0.45C227.068,242.025,226.409,241.887,225.484,241.788z"/>
		<path fill="#212830" d="M230.318,241.442c0.134-0.084,0.275-0.108,0.426-0.073s0.267,0.118,0.349,0.251    c0.083,0.131,0.107,0.271,0.073,0.423c-0.035,0.151-0.117,0.269-0.249,0.351c-0.132,0.083-0.272,0.107-0.424,0.073    c-0.151-0.035-0.269-0.117-0.352-0.248c-0.084-0.135-0.108-0.276-0.073-0.427S230.187,241.525,230.318,241.442z"/>
		<path fill="#212830" d="M235.267,237.925l0.297,1.374l-3.428,2.159l-0.101-0.158c0.43-1.556,0.666-2.753,0.711-3.597    c0.044-0.841-0.086-1.504-0.39-1.986c-0.232-0.369-0.536-0.6-0.911-0.694c-0.375-0.096-0.719-0.045-1.033,0.153    c-0.286,0.18-0.49,0.426-0.611,0.735c-0.122,0.31-0.136,0.661-0.041,1.053l-0.158,0.1c-0.262-0.573-0.333-1.095-0.216-1.564    c0.118-0.469,0.397-0.843,0.841-1.122c0.471-0.297,0.96-0.393,1.467-0.289c0.506,0.104,0.889,0.362,1.147,0.773    c0.185,0.294,0.302,0.632,0.351,1.012c0.079,0.597,0.045,1.303-0.104,2.118c-0.223,1.225-0.371,1.974-0.447,2.245l1.517-0.955    c0.309-0.194,0.518-0.343,0.627-0.444c0.11-0.101,0.193-0.217,0.249-0.351c0.057-0.133,0.081-0.287,0.074-0.461L235.267,237.925z"/>
	</g>
	
		<line fill="none" stroke="#212830" stroke-width="0.5" stroke-linecap="square" stroke-miterlimit="10" x1="173.217" y1="247.555" x2="173.217" y2="247.555"/>
	
		<line fill="none" stroke="#212830" stroke-width="0.5" stroke-linecap="square" stroke-miterlimit="10" x1="260.588" y1="192.383" x2="260.588" y2="192.383"/>
	
		<line fill="none" stroke="#212830" stroke-width="0.5" stroke-linecap="square" stroke-miterlimit="10" x1="276.605" y1="217.718" x2="276.605" y2="217.718"/>
	<polygon fill="none" stroke="#212830" stroke-width="0.5" stroke-linecap="square" stroke-miterlimit="10" points="272.502,219.44    273.252,220.675 276.605,217.718 272.502,219.44  "/>
	
		<line fill="none" stroke="#212830" stroke-width="0.5" stroke-linecap="square" stroke-miterlimit="10" x1="193.074" y1="112.541" x2="212.975" y2="100.005"/>
	<polygon fill-rule="evenodd" clip-rule="evenodd" fill="#212830" points="247.836,99.255 247.836,100.756 252.248,100.005  "/>
	<polygon fill="none" stroke="#212830" stroke-width="0.5" stroke-linecap="square" stroke-miterlimit="10" points="247.836,99.255    247.836,100.756 252.248,100.005 247.836,99.255  "/>
	<g>
		<path fill="#212830" d="M245.133,104.427c0.166,0.176,0.291,0.351,0.375,0.527c0.061,0.122,0.16,0.44,0.299,0.957l0.445-0.668    c0.119-0.162,0.262-0.316,0.431-0.463s0.317-0.247,0.446-0.301c0.08-0.034,0.17-0.051,0.268-0.051    c0.146,0,0.262,0.039,0.348,0.117s0.129,0.172,0.129,0.284c0,0.128-0.025,0.216-0.076,0.263c-0.095,0.084-0.203,0.126-0.324,0.126    c-0.07,0-0.146-0.015-0.229-0.045c-0.158-0.054-0.264-0.081-0.318-0.081c-0.081,0-0.178,0.047-0.289,0.142    c-0.209,0.176-0.459,0.515-0.749,1.018l0.415,1.742c0.064,0.267,0.119,0.426,0.162,0.479c0.044,0.053,0.088,0.079,0.132,0.079    c0.071,0,0.153-0.039,0.248-0.116c0.186-0.155,0.345-0.358,0.476-0.608l0.178,0.091c-0.213,0.398-0.482,0.729-0.811,0.993    c-0.186,0.148-0.342,0.223-0.471,0.223c-0.189,0-0.339-0.106-0.451-0.319c-0.07-0.131-0.217-0.699-0.439-1.702    c-0.527,0.915-0.949,1.504-1.266,1.768c-0.207,0.169-0.406,0.253-0.598,0.253c-0.135,0-0.259-0.049-0.37-0.147    c-0.081-0.074-0.122-0.174-0.122-0.299c0-0.111,0.038-0.204,0.112-0.278s0.165-0.111,0.272-0.111c0.109,0,0.224,0.054,0.346,0.162    c0.087,0.078,0.154,0.117,0.201,0.117c0.041,0,0.094-0.027,0.158-0.081c0.158-0.128,0.374-0.405,0.647-0.831    s0.452-0.732,0.536-0.922c-0.209-0.82-0.322-1.254-0.338-1.301c-0.078-0.22-0.18-0.375-0.305-0.466    c-0.125-0.091-0.309-0.137-0.552-0.137c-0.077,0-0.167,0.003-0.269,0.01v-0.182L245.133,104.427z"/>
	</g>
	
		<line fill="none" stroke="#212830" stroke-width="0.5" stroke-linecap="square" stroke-miterlimit="10" x1="73.8" y1="56.708" x2="161.215" y2="1.492"/>
	
		<line fill="none" stroke="#212830" stroke-width="0.5" stroke-linecap="square" stroke-miterlimit="10" x1="173.217" y1="56.708" x2="260.588" y2="1.492"/>
	
		<line fill="none" stroke="#212830" stroke-width="0.5" stroke-linecap="square" stroke-miterlimit="10" x1="240.599" y1="91.796" x2="217.167" y2="98.77"/>
	<polygon fill-rule="evenodd" clip-rule="evenodd" fill="#212830" points="212.225,72.42 213.682,72.42 212.975,68.05  "/>
	<polygon fill="none" stroke="#212830" stroke-width="0.5" stroke-linecap="square" stroke-miterlimit="10" points="212.225,72.42    213.682,72.42 212.975,68.05 212.225,72.42  "/>
	
		<line fill="none" stroke="#212830" stroke-width="0.5" stroke-linecap="square" stroke-miterlimit="10" x1="173.217" y1="56.708" x2="173.217" y2="247.555"/>
	
		<line fill="none" stroke="#212830" stroke-width="0.5" stroke-linecap="square" stroke-miterlimit="10" x1="73.8" y1="56.708" x2="173.217" y2="56.708"/>
</g>
</svg>
