<?xml version="1.0" encoding="utf-8"?>
<!-- Generator: Adobe Illustrator 16.0.0, SVG Export Plug-In . SVG Version: 6.00 Build 0)  -->
<!DOCTYPE svg PUBLIC "-//W3C//DTD SVG 1.1//EN" "http://www.w3.org/Graphics/SVG/1.1/DTD/svg11.dtd">
<svg xmlns="http://www.w3.org/2000/svg" xmlns:xlink="http://www.w3.org/1999/xlink" version="1.1" id="图层_1" x="0px" y="0px" width="248.757px" height="186.981px" viewBox="0 0 248.757 186.981" xml:space="preserve">
<g>
	<polyline fill="none" stroke="#212830" stroke-width="0.5" stroke-linecap="square" stroke-miterlimit="10" points="   231.871,186.64 233.68,183.373 235.356,180.107 236.989,176.797 238.49,173.442 239.857,170 241.182,166.558 242.373,163.07    243.477,159.54 244.447,155.965 245.329,152.39 246.124,148.771 246.786,145.151 247.315,141.532 247.801,137.868 248.109,134.161    248.374,130.498 248.507,126.79 248.507,123.127 248.418,119.419 248.197,115.756 247.889,112.049 247.447,108.385    246.918,104.722 246.301,101.103 245.55,97.483 244.668,93.908 243.741,90.333 242.638,86.802 241.49,83.315 240.211,79.828    238.843,76.43 237.343,73.031 235.798,69.677 234.121,66.411 232.356,63.189 230.459,60.011 228.518,56.877 226.443,53.788    224.325,50.787 222.075,47.874 219.78,45.005 217.354,42.18 214.882,39.443 212.322,36.795 209.675,34.235 206.939,31.72    204.159,29.336 201.291,26.997 198.379,24.746 195.378,22.583 192.333,20.509 189.2,18.567 186.023,16.669 182.802,14.859    179.537,13.182 176.227,11.593 172.829,10.093 169.432,8.724 165.945,7.444 162.459,6.252 158.93,5.149 155.399,4.178    151.825,3.34 148.207,2.545 144.588,1.883 140.926,1.354 137.264,0.912 133.601,0.603 129.895,0.382 126.231,0.25 122.525,0.25    118.862,0.382 115.156,0.603 111.493,0.912 107.831,1.354 104.168,1.883 100.55,2.545 96.932,3.34 93.357,4.178 89.827,5.149    86.297,6.252 82.811,7.444 79.325,8.724 75.927,10.093 72.529,11.593 69.22,13.182 65.955,14.859 62.733,16.669 59.556,18.567    56.423,20.509 53.378,22.583 50.378,24.746 47.465,26.997 44.597,29.336 41.817,31.72 39.082,34.235 36.434,36.795 33.875,39.443    31.403,42.18 28.977,45.005 26.682,47.874 24.431,50.787 22.313,53.788 20.239,56.877 18.298,60.011 16.4,63.189 14.635,66.411    12.958,69.677 11.414,73.031 9.914,76.43 8.546,79.828 7.266,83.315 6.119,86.802 5.016,90.333 4.089,93.908 3.207,97.483    2.456,101.103 1.838,104.722 1.309,108.385 0.868,112.049 0.559,115.756 0.338,119.419 0.25,123.127 0.25,126.79 0.382,130.498    0.647,134.161 0.956,137.868 1.441,141.532 1.971,145.151 2.633,148.771 3.427,152.39 4.31,155.965 5.28,159.54 6.384,163.07    7.575,166.558 8.899,170 10.267,173.442 11.767,176.797 13.399,180.107 15.077,183.373 16.886,186.596  "/>
	
		<line fill="none" stroke="#212830" stroke-width="0.5" stroke-linecap="square" stroke-miterlimit="10" x1="0.25" y1="124.495" x2="248.507" y2="124.495"/>
	
		<line fill="none" stroke="#212830" stroke-width="0.5" stroke-linecap="square" stroke-miterlimit="10" x1="124.378" y1="124.495" x2="231.871" y2="186.64"/>
	
		<line fill="none" stroke="#212830" stroke-width="0.5" stroke-linecap="square" stroke-miterlimit="10" x1="231.871" y1="186.64" x2="16.886" y2="186.64"/>
	
		<line fill="none" stroke="#212830" stroke-width="0.5" stroke-linecap="square" stroke-miterlimit="10" x1="124.378" y1="186.64" x2="124.378" y2="0.25"/>
	<polyline fill="none" stroke="#212830" stroke-width="0.5" stroke-linecap="square" stroke-miterlimit="10" points="   174.771,168.676 176.845,166.16 178.83,163.512  "/>
	<polyline fill="none" stroke="#212830" stroke-width="0.5" stroke-linecap="square" stroke-miterlimit="10" points="   191.054,117.919 190.656,114.696 190.083,111.431  "/>
	<polyline fill="none" stroke="#212830" stroke-width="0.5" stroke-linecap="square" stroke-miterlimit="10" points="   182.404,157.995 183.773,155.435 185.097,152.831 186.244,150.139 187.303,147.446 188.273,144.666 189.068,141.841    189.774,139.016 190.348,136.147 190.789,133.234 191.098,130.321 191.318,127.408 191.362,124.495  "/>
	<polygon fill-rule="evenodd" clip-rule="evenodd" fill="#212830" points="177.948,162.982 179.801,164.174 182.449,158.039  "/>
	<polygon fill="none" stroke="#212830" stroke-width="0.5" stroke-linecap="square" stroke-miterlimit="10" points="   177.948,162.982 179.801,164.174 182.449,158.039 177.948,162.982  "/>
	<polygon fill-rule="evenodd" clip-rule="evenodd" fill="#212830" points="192.157,117.875 189.994,118.007 191.406,124.495  "/>
	<g>
		<path fill="#212830" d="M173.254,147.966c-0.593-0.463-1.013-0.959-1.261-1.489c-0.249-0.529-0.286-1.117-0.113-1.762    c0.213-0.796,0.637-1.338,1.269-1.623c0.472-0.22,0.927-0.271,1.366-0.152c0.723,0.193,1.349,0.848,1.877,1.964    c0.403-0.547,0.868-0.916,1.396-1.11c0.528-0.193,1.093-0.209,1.693-0.049c0.859,0.23,1.53,0.704,2.015,1.42    c0.629,0.934,0.762,2.076,0.4,3.429c-0.18,0.67-0.385,1.103-0.615,1.3c-0.231,0.197-0.441,0.271-0.632,0.221    c-0.142-0.038-0.251-0.129-0.328-0.273c-0.076-0.144-0.093-0.296-0.05-0.457c0.032-0.122,0.086-0.241,0.16-0.357    c0.046-0.077,0.186-0.242,0.417-0.493c0.233-0.251,0.378-0.43,0.438-0.534c0.103-0.166,0.181-0.352,0.236-0.558    c0.134-0.498,0.056-0.983-0.231-1.456c-0.287-0.472-0.693-0.778-1.221-0.92c-0.386-0.104-0.785-0.119-1.197-0.046    c-0.308,0.054-0.552,0.138-0.734,0.251c-0.251,0.157-0.506,0.398-0.763,0.722c-0.257,0.324-0.437,0.677-0.538,1.058l-0.063,0.234    l-0.221-0.059c0.055-0.399,0.02-0.824-0.105-1.273c-0.127-0.45-0.326-0.806-0.602-1.068c-0.276-0.262-0.605-0.445-0.992-0.549    c-0.502-0.135-0.951-0.086-1.346,0.146c-0.395,0.231-0.654,0.582-0.78,1.051c-0.202,0.758,0.032,1.499,0.708,2.225    L173.254,147.966z"/>
		<path fill="#212830" d="M178.342,141.522c-1.134-0.304-2.063-0.736-2.789-1.297c-0.727-0.562-1.215-1.179-1.463-1.854    c-0.199-0.524-0.237-1.021-0.111-1.49c0.204-0.762,0.775-1.342,1.715-1.739c1.164-0.5,2.57-0.528,4.216-0.088    c1.152,0.309,2.087,0.738,2.804,1.286s1.188,1.128,1.414,1.741c0.227,0.613,0.274,1.159,0.146,1.638    c-0.254,0.947-1.024,1.587-2.311,1.917C180.877,141.917,179.67,141.879,178.342,141.522z M178.909,140.135    c1.367,0.367,2.528,0.498,3.483,0.393c0.802-0.084,1.277-0.401,1.426-0.953c0.07-0.264,0.025-0.569-0.136-0.916    s-0.499-0.668-1.019-0.964c-0.779-0.45-1.934-0.88-3.462-1.29c-1.133-0.303-2.109-0.439-2.929-0.407    c-0.609,0.025-1.068,0.146-1.377,0.36c-0.215,0.158-0.359,0.378-0.436,0.661c-0.09,0.332-0.02,0.668,0.209,1.007    c0.311,0.461,0.885,0.87,1.719,1.23C177.225,139.615,178.064,139.908,178.909,140.135z"/>
		<path fill="#212830" d="M175.757,130.188c0.169-0.63,0.531-1.104,1.088-1.424s1.147-0.396,1.772-0.228    c0.62,0.166,1.091,0.527,1.413,1.085c0.321,0.557,0.399,1.148,0.231,1.774c-0.166,0.62-0.527,1.091-1.085,1.413    c-0.559,0.321-1.146,0.399-1.767,0.233c-0.625-0.168-1.099-0.528-1.421-1.083C175.666,131.403,175.59,130.813,175.757,130.188z     M176.371,130.353c-0.122,0.454-0.066,0.883,0.166,1.286c0.233,0.402,0.577,0.664,1.03,0.786c0.449,0.12,0.876,0.064,1.281-0.167    c0.405-0.232,0.668-0.575,0.79-1.029c0.12-0.449,0.063-0.877-0.17-1.283c-0.235-0.405-0.577-0.669-1.026-0.789    c-0.453-0.121-0.882-0.066-1.284,0.166S176.492,129.898,176.371,130.353z"/>
	</g>
	
		<line fill="none" stroke="#212830" stroke-width="0.5" stroke-linecap="square" stroke-miterlimit="10" x1="187.348" y1="147.446" x2="187.348" y2="147.446"/>
	
		<line fill="none" stroke="#212830" stroke-width="0.5" stroke-linecap="square" stroke-miterlimit="10" x1="0.25" y1="124.495" x2="0.25" y2="124.495"/>
	
		<line fill="none" stroke="#212830" stroke-width="0.5" stroke-linecap="square" stroke-miterlimit="10" x1="124.378" y1="124.495" x2="124.378" y2="124.495"/>
	
		<line fill="none" stroke="#212830" stroke-width="0.5" stroke-linecap="square" stroke-miterlimit="10" x1="231.871" y1="186.64" x2="231.871" y2="186.64"/>
	
		<line fill="none" stroke="#212830" stroke-width="0.5" stroke-linecap="square" stroke-miterlimit="10" x1="248.507" y1="124.495" x2="248.507" y2="124.495"/>
	<polygon fill="none" stroke="#212830" stroke-width="0.5" stroke-linecap="square" stroke-miterlimit="10" points="   192.157,117.875 189.994,118.007 191.406,124.495 192.157,117.875  "/>
	<g>
		<path fill="#212830" d="M148.348,80.231l-1.563,2.258l-5.935,0.125c-0.14,0.218-0.255,0.393-0.347,0.526    c-0.037,0.054-0.078,0.111-0.124,0.172c-0.045,0.062-0.093,0.124-0.143,0.188l2.457,1.701c0.532,0.369,0.902,0.539,1.112,0.513    c0.291-0.032,0.548-0.205,0.767-0.521l0.229-0.331l0.23,0.16l-2.509,3.624l-0.23-0.16l0.221-0.318    c0.247-0.357,0.309-0.693,0.182-1.009c-0.068-0.177-0.344-0.432-0.826-0.766l-5.463-3.783c-0.531-0.368-0.902-0.539-1.111-0.512    c-0.296,0.035-0.554,0.213-0.775,0.533l-0.221,0.318l-0.23-0.16l2.133-3.081c0.622-0.897,1.146-1.515,1.572-1.851    c0.426-0.335,0.917-0.53,1.475-0.584c0.557-0.054,1.078,0.088,1.564,0.425c0.52,0.359,0.854,0.842,1.002,1.445    s0.054,1.315-0.28,2.136l3.634-0.066c0.834-0.014,1.441-0.1,1.823-0.26s0.757-0.454,1.126-0.881L148.348,80.231z M139.844,83.228    c0.055-0.079,0.104-0.146,0.146-0.203c0.043-0.058,0.077-0.104,0.103-0.142c0.559-0.807,0.805-1.535,0.74-2.187    c-0.066-0.651-0.369-1.165-0.91-1.539c-0.527-0.365-1.07-0.497-1.63-0.396c-0.56,0.101-1.028,0.424-1.405,0.969    c-0.167,0.241-0.353,0.596-0.56,1.062L139.844,83.228z"/>
		<path fill="#212830" d="M140.705,73.203l3.139-4.534l0.236,0.164l6.441,8.632l-0.484,0.698l-5.863-7.798l-1.61,2.326    c-0.325,0.47-0.501,0.843-0.527,1.12c-0.05,0.481,0.05,0.967,0.303,1.456l-0.194,0.133L140.705,73.203z"/>
		<path fill="#212830" d="M150.13,68.557c-1.013,0.29-1.751,0.416-2.218,0.379s-0.878-0.179-1.236-0.427    c-0.548-0.38-0.875-0.92-0.978-1.619c-0.104-0.698,0.088-1.399,0.574-2.102c0.472-0.683,1.036-1.104,1.694-1.263    s1.224-0.076,1.698,0.253c0.315,0.219,0.56,0.554,0.733,1.006c0.173,0.452,0.235,1.188,0.188,2.207    c1.071-0.341,1.852-0.517,2.34-0.529c0.643-0.022,1.199,0.129,1.669,0.454c0.595,0.412,0.945,0.991,1.054,1.736    c0.108,0.746-0.093,1.485-0.603,2.222c-0.555,0.803-1.239,1.254-2.053,1.355c-0.652,0.077-1.215-0.048-1.693-0.38    c-0.375-0.26-0.658-0.642-0.852-1.147C150.254,70.195,150.148,69.48,150.13,68.557z M150.141,67.115    c-0.104-0.81-0.238-1.371-0.407-1.684c-0.168-0.313-0.415-0.584-0.743-0.811c-0.438-0.303-0.865-0.417-1.281-0.343    c-0.418,0.074-0.773,0.323-1.066,0.747c-0.294,0.424-0.41,0.854-0.349,1.29c0.061,0.436,0.256,0.768,0.584,0.995    c0.216,0.149,0.471,0.244,0.763,0.284c0.293,0.039,0.607,0.025,0.944-0.044L150.141,67.115z M150.568,68.428    c0.054,0.547,0.193,1.022,0.422,1.426c0.228,0.404,0.54,0.744,0.939,1.021c0.536,0.371,1.067,0.522,1.592,0.452    c0.525-0.07,0.944-0.332,1.258-0.785c0.311-0.449,0.434-0.896,0.367-1.342c-0.066-0.446-0.281-0.795-0.643-1.045    c-0.299-0.207-0.621-0.314-0.969-0.32C152.891,67.824,151.902,68.022,150.568,68.428z"/>
		<path fill="#212830" d="M152.496,56.17l0.723,1.22l-1.762,2.545l0.751,1.341c0.925-0.989,1.939-1.579,3.042-1.769    c0.948-0.161,1.805,0.023,2.57,0.553c0.444,0.308,0.793,0.684,1.045,1.126c0.254,0.443,0.419,0.894,0.494,1.352    c0.077,0.459,0.079,0.913,0.008,1.361c-0.102,0.637-0.328,1.207-0.676,1.71c-0.352,0.507-0.692,0.816-1.025,0.928    c-0.332,0.111-0.602,0.095-0.81-0.049c-0.116-0.08-0.187-0.2-0.21-0.357c-0.021-0.157,0.017-0.309,0.117-0.455    c0.074-0.107,0.156-0.19,0.246-0.249c0.09-0.058,0.27-0.137,0.543-0.237c0.432-0.162,0.758-0.403,0.979-0.724    c0.337-0.486,0.449-1.041,0.336-1.664c-0.112-0.622-0.434-1.116-0.962-1.482c-0.511-0.354-1.102-0.52-1.771-0.498    c-0.67,0.021-1.326,0.238-1.967,0.649c-0.502,0.324-1.036,0.867-1.606,1.627l-2.164-3.897L152.496,56.17z"/>
		<path fill="#212830" d="M157.658,57.855c-0.964-0.668-1.694-1.388-2.189-2.162c-0.494-0.773-0.745-1.519-0.752-2.238    c-0.011-0.561,0.121-1.041,0.397-1.44c0.449-0.649,1.183-1.002,2.201-1.06c1.265-0.077,2.597,0.369,3.999,1.339    c0.98,0.68,1.716,1.398,2.207,2.157c0.489,0.757,0.736,1.463,0.744,2.116c0.006,0.653-0.133,1.183-0.415,1.59    c-0.559,0.807-1.499,1.149-2.822,1.026C159.912,59.082,158.789,58.639,157.658,57.855z M158.66,56.74    c1.164,0.807,2.213,1.321,3.148,1.544c0.783,0.191,1.337,0.053,1.662-0.417c0.155-0.225,0.217-0.527,0.181-0.908    c-0.034-0.381-0.245-0.797-0.634-1.25c-0.581-0.686-1.523-1.48-2.824-2.381c-0.965-0.668-1.838-1.125-2.621-1.372    c-0.582-0.182-1.055-0.223-1.416-0.124c-0.256,0.075-0.469,0.233-0.635,0.474c-0.196,0.283-0.243,0.623-0.142,1.018    c0.138,0.539,0.539,1.118,1.204,1.738C157.249,55.684,157.941,56.243,158.66,56.74z"/>
	</g>
	
		<line fill="none" stroke="#212830" stroke-width="0.5" stroke-linecap="square" stroke-miterlimit="10" x1="144.059" y1="96.071" x2="191.274" y2="27.703"/>
	<polygon fill-rule="evenodd" clip-rule="evenodd" fill="#212830" points="190.392,27.085 192.201,28.365 195.025,22.318  "/>
	
		<line fill="none" stroke="#212830" stroke-width="0.5" stroke-linecap="square" stroke-miterlimit="10" x1="195.025" y1="22.318" x2="195.025" y2="22.318"/>
	
		<line fill="none" stroke="#212830" stroke-width="0.5" stroke-linecap="square" stroke-miterlimit="10" x1="124.378" y1="124.495" x2="124.378" y2="124.495"/>
	<polygon fill="none" stroke="#212830" stroke-width="0.5" stroke-linecap="square" stroke-miterlimit="10" points="190.392,27.085    192.201,28.365 195.025,22.318 190.392,27.085  "/>
</g>
</svg>
