<?xml version="1.0" encoding="utf-8"?>
<!-- Generator: Adobe Illustrator 16.0.0, SVG Export Plug-In . SVG Version: 6.00 Build 0)  -->
<!DOCTYPE svg PUBLIC "-//W3C//DTD SVG 1.1//EN" "http://www.w3.org/Graphics/SVG/1.1/DTD/svg11.dtd">
<svg xmlns="http://www.w3.org/2000/svg" xmlns:xlink="http://www.w3.org/1999/xlink" version="1.1" id="图层_1" x="0px" y="0px" width="438.016px" height="279.753px" viewBox="0 0 438.016 279.753" xml:space="preserve">
<g>
	
		<line fill="none" stroke="#212830" stroke-width="0.5" stroke-linecap="square" stroke-miterlimit="10" x1="201.909" y1="33.396" x2="201.909" y2="203.544"/>
	
		<line fill="none" stroke="#212830" stroke-width="0.5" stroke-linecap="square" stroke-miterlimit="10" x1="249.477" y1="33.396" x2="249.477" y2="0.25"/>
	
		<line fill="none" stroke="#212830" stroke-width="0.5" stroke-linecap="square" stroke-miterlimit="10" x1="236.107" y1="279.503" x2="236.107" y2="236.691"/>
	
		<line fill="none" stroke="#212830" stroke-width="0.5" stroke-linecap="square" stroke-miterlimit="10" x1="249.477" y1="236.691" x2="218.986" y2="236.691"/>
	
		<line fill="none" stroke="#212830" stroke-width="0.5" stroke-linecap="square" stroke-miterlimit="10" x1="236.107" y1="33.396" x2="236.107" y2="203.544"/>
	
		<line fill="none" stroke="#212830" stroke-width="0.5" stroke-linecap="square" stroke-miterlimit="10" x1="249.477" y1="0.25" x2="218.986" y2="0.25"/>
	
		<line fill="none" stroke="#212830" stroke-width="0.5" stroke-linecap="square" stroke-miterlimit="10" x1="188.494" y1="203.544" x2="188.494" y2="236.691"/>
	
		<line fill="none" stroke="#212830" stroke-width="0.5" stroke-linecap="square" stroke-miterlimit="10" x1="242.374" y1="33.396" x2="296.516" y2="33.396"/>
	
		<line fill="none" stroke="#212830" stroke-width="0.5" stroke-linecap="square" stroke-miterlimit="10" x1="242.374" y1="203.544" x2="296.516" y2="203.544"/>
	
		<line fill="none" stroke="#212830" stroke-width="0.5" stroke-linecap="square" stroke-miterlimit="10" x1="285.529" y1="42.577" x2="285.529" y2="194.363"/>
	<polygon fill-rule="evenodd" clip-rule="evenodd" fill="#212830" points="283.985,42.577 287.073,42.577 285.529,33.396  "/>
	<polygon fill="none" stroke="#212830" stroke-width="0.5" stroke-linecap="square" stroke-miterlimit="10" points="283.985,42.577    287.073,42.577 285.529,33.396 283.985,42.577  "/>
	<polygon fill-rule="evenodd" clip-rule="evenodd" fill="#212830" points="283.985,194.363 287.073,194.363 285.529,203.544  "/>
	<g>
		<path fill="#212830" d="M275.186,124.635l2.756,1.003v8.448h-0.391c-2.266-2.485-4.117-4.234-5.553-5.248    c-1.437-1.014-2.749-1.521-3.938-1.521c-0.908,0-1.653,0.278-2.238,0.834c-0.584,0.557-0.876,1.222-0.876,1.996    c0,0.704,0.205,1.336,0.617,1.896s1.016,0.973,1.811,1.24v0.391c-1.302-0.176-2.301-0.628-2.998-1.356s-1.045-1.639-1.045-2.729    c0-1.162,0.373-2.132,1.119-2.909c0.746-0.778,1.625-1.167,2.639-1.167c0.725,0,1.45,0.169,2.176,0.507    c1.14,0.521,2.347,1.365,3.621,2.534c1.914,1.753,3.068,2.848,3.463,3.284v-3.738c0-0.761-0.028-1.294-0.085-1.6    c-0.056-0.307-0.171-0.583-0.343-0.829c-0.173-0.246-0.418-0.461-0.734-0.645V124.635z"/>
		<path fill="#212830" d="M270.868,122.956c-1.633,0-3.038-0.246-4.217-0.739c-1.18-0.493-2.057-1.147-2.635-1.964    c-0.457-0.634-0.686-1.289-0.686-1.965c0-1.098,0.559-2.084,1.678-2.957c1.387-1.091,3.267-1.637,5.639-1.637    c1.66,0,3.072,0.24,4.233,0.719s2.004,1.089,2.528,1.832c0.524,0.742,0.787,1.459,0.787,2.148c0,1.366-0.807,2.503-2.418,3.411    C274.419,122.572,272.783,122.956,270.868,122.956z M271.132,120.886c1.971,0,3.579-0.242,4.825-0.729    c1.049-0.401,1.572-0.999,1.572-1.795c0-0.38-0.17-0.774-0.512-1.183s-0.913-0.719-1.716-0.93c-1.21-0.323-2.917-0.485-5.12-0.485    c-1.633,0-2.994,0.169-4.086,0.507c-0.809,0.253-1.383,0.581-1.721,0.982c-0.232,0.288-0.349,0.637-0.349,1.045    c0,0.479,0.215,0.904,0.644,1.277c0.585,0.508,1.504,0.853,2.756,1.035C268.679,120.795,269.915,120.886,271.132,120.886z"/>
		<path fill="#212830" d="M270.868,112.143c-1.633,0-3.038-0.246-4.217-0.739c-1.18-0.493-2.057-1.147-2.635-1.964    c-0.457-0.634-0.686-1.289-0.686-1.965c0-1.098,0.559-2.084,1.678-2.957c1.387-1.091,3.267-1.637,5.639-1.637    c1.66,0,3.072,0.24,4.233,0.719s2.004,1.089,2.528,1.832c0.524,0.742,0.787,1.459,0.787,2.148c0,1.366-0.807,2.503-2.418,3.411    C274.419,111.759,272.783,112.143,270.868,112.143z M271.132,110.072c1.971,0,3.579-0.242,4.825-0.729    c1.049-0.401,1.572-0.999,1.572-1.795c0-0.38-0.17-0.774-0.512-1.183s-0.913-0.719-1.716-0.93c-1.21-0.323-2.917-0.485-5.12-0.485    c-1.633,0-2.994,0.169-4.086,0.507c-0.809,0.253-1.383,0.581-1.721,0.982c-0.232,0.288-0.349,0.637-0.349,1.045    c0,0.479,0.215,0.904,0.644,1.277c0.585,0.508,1.504,0.853,2.756,1.035C268.679,109.981,269.915,110.072,271.132,110.072z"/>
	</g>
	<polygon fill="none" stroke="#212830" stroke-width="0.5" stroke-linecap="square" stroke-miterlimit="10" points="   283.985,194.363 287.073,194.363 285.529,203.544 283.985,194.363  "/>
	
		<line fill="none" stroke="#212830" stroke-width="0.5" stroke-linecap="square" stroke-miterlimit="10" x1="227.767" y1="33.396" x2="227.855" y2="33.396"/>
	
		<line fill="none" stroke="#212830" stroke-width="0.5" stroke-linecap="square" stroke-miterlimit="10" x1="227.767" y1="203.544" x2="227.855" y2="203.544"/>
	
		<line fill="none" stroke="#212830" stroke-width="0.5" stroke-linecap="square" stroke-miterlimit="10" x1="285.529" y1="203.544" x2="285.618" y2="203.544"/>
	<polyline fill="none" stroke="#212830" stroke-width="0.5" stroke-linecap="square" stroke-miterlimit="10" points="   173.006,116.153 174.286,116.418 175.477,116.683 176.668,116.991 177.771,117.257 178.831,117.565 179.845,117.874    180.816,118.184 181.743,118.492 182.625,118.801 183.464,119.154 184.258,119.508 185.052,119.86 185.758,120.214 186.42,120.566    187.038,120.964 187.656,121.317 188.229,121.714 188.759,122.111 189.245,122.509 189.686,122.906 190.083,123.348    190.48,123.744 190.833,124.186 191.142,124.583 191.451,125.024 191.715,125.466 191.936,125.907 192.113,126.349    192.466,127.275 192.642,128.202 192.774,129.129 192.819,130.056 192.73,131.027 192.598,131.998 192.377,132.969    192.113,133.984 191.76,134.955 191.362,135.971 190.921,136.941 190.436,137.957 189.421,139.943 188.273,141.884    187.126,143.828 185.979,145.769 185.45,146.695 184.92,147.578 184.435,148.505 183.993,149.388 183.596,150.226 183.243,151.066    182.979,151.904 182.758,152.699 182.581,153.449 182.493,154.199 182.537,154.906 182.625,155.611 182.802,156.273    182.934,156.582 183.111,156.892 183.287,157.156 183.508,157.464 183.772,157.73 184.038,157.996 184.346,158.259    184.699,158.525 185.096,158.746 185.494,158.966 185.935,159.187 186.42,159.408 186.906,159.628 187.479,159.804 188.053,159.98    188.671,160.158 189.333,160.291 190.039,160.421 190.789,160.554 191.583,160.687 192.377,160.775 193.26,160.908    194.187,160.953 195.157,161.041 196.128,161.083 197.187,161.128 198.291,161.173 199.438,161.173 200.629,161.173    201.865,161.173 203.188,161.173 204.512,161.128 205.924,161.041 207.38,160.996  "/>
	
		<line fill="none" stroke="#212830" stroke-width="0.5" stroke-linecap="square" stroke-miterlimit="10" x1="0.25" y1="33.396" x2="437.766" y2="33.396"/>
	
		<line fill="none" stroke="#212830" stroke-width="0.5" stroke-linecap="square" stroke-miterlimit="10" x1="188.494" y1="33.396" x2="188.494" y2="0.25"/>
	
		<line fill="none" stroke="#212830" stroke-width="0.5" stroke-linecap="square" stroke-miterlimit="10" x1="201.909" y1="236.691" x2="201.909" y2="279.503"/>
	
		<line fill="none" stroke="#212830" stroke-width="0.5" stroke-linecap="square" stroke-miterlimit="10" x1="188.494" y1="236.691" x2="218.986" y2="236.691"/>
	<polygon fill-rule="evenodd" clip-rule="evenodd" fill="#212830" points="207.513,162.761 207.645,159.716 216.735,161.615  "/>
	<polygon fill="none" stroke="#212830" stroke-width="0.5" stroke-linecap="square" stroke-miterlimit="10" points="   207.513,162.761 207.645,159.716 216.735,161.615 207.513,162.761  "/>
	<g>
		<path fill="#212830" d="M113.537,115.349h-4.308l-0.928,3.691c-0.128,0.587-0.128,1.061,0.001,1.42    c0.128,0.359,0.42,0.539,0.875,0.539h0.292v0.584h-3.559v-0.584h0.292c0.259,0,0.487-0.081,0.682-0.245    c0.195-0.163,0.324-0.44,0.39-0.833l3.772-14.989l1.487-0.493l3.701,15.488c0.129,0.39,0.292,0.667,0.487,0.828    c0.195,0.163,0.421,0.244,0.682,0.244h0.292v0.584h-4.205v-0.584h0.39c0.39,0,0.633-0.113,0.73-0.34    c0.097-0.227,0.082-0.566-0.049-1.02L113.537,115.349z M111.543,106.594l-0.108-0.009l-2.061,8.18h4.123L111.543,106.594z"/>
		<path fill="#212830" d="M118.96,110.868v-0.779h10.81v0.779H118.96z M118.96,115.738v-0.779h10.81v0.779H118.96z"/>
		<path fill="#212830" d="M137.756,104.73v14.719c0,0.518,0.161,0.904,0.487,1.163c0.324,0.259,0.779,0.387,1.364,0.387h0.974v0.584    h-7.109v-0.584h0.876c0.648,0,1.12-0.128,1.412-0.387c0.292-0.258,0.438-0.645,0.438-1.162v-11.706    c0-0.257-0.082-0.467-0.244-0.628c-0.163-0.162-0.406-0.242-0.73-0.242h-1.753v-0.585h0.876c0.779,0,1.412-0.129,1.899-0.39    c0.487-0.259,0.859-0.648,1.12-1.169H137.756z"/>
		<path fill="#212830" d="M149.81,110.868c1.24,0,2.252,0.472,3.036,1.412c0.782,0.942,1.175,2.191,1.175,3.75    c0,1.754-0.406,3.151-1.217,4.189c-0.813,1.039-2.062,1.559-3.75,1.559c-1.169,0-2.208-0.342-3.117-1.023    c-0.91-0.682-1.363-1.51-1.363-2.483c0-0.39,0.108-0.731,0.326-1.023c0.217-0.292,0.513-0.438,0.885-0.438    c0.372,0,0.62,0.134,0.744,0.399c0.125,0.266,0.188,0.499,0.188,0.696c0,0.399-0.098,0.716-0.292,0.947    c-0.195,0.232-0.292,0.482-0.292,0.747c0,0.531,0.308,0.93,0.925,1.195c0.616,0.266,1.281,0.398,1.997,0.398    c1.038,0,1.833-0.426,2.386-1.28c0.551-0.853,0.828-2.066,0.828-3.642c0-1.313-0.241-2.378-0.722-3.198    c-0.48-0.82-1.201-1.231-2.161-1.231c-0.705,0-1.313,0.131-1.825,0.39c-0.513,0.261-0.994,0.813-1.441,1.656l-0.864-0.098    l0.487-8.864h7.986l-0.295,1.363h-7.083l-0.358,6.527c0.651-0.909,1.288-1.462,1.908-1.656    C148.521,110.965,149.157,110.868,149.81,110.868z"/>
		<path fill="#212830" d="M161.812,121.778c-1.429,0-2.629-0.746-3.604-2.241c-0.974-1.493-1.461-3.604-1.461-6.331    c0-2.533,0.47-4.579,1.412-6.138c0.94-1.559,2.158-2.338,3.652-2.338c1.427,0,2.613,0.748,3.555,2.241    c0.94,1.494,1.412,3.572,1.412,6.234c0,2.663-0.472,4.758-1.412,6.282C164.424,121.016,163.239,121.778,161.812,121.778z     M161.813,105.51c-0.938,0-1.724,0.699-2.36,2.095c-0.636,1.397-0.952,3.264-0.952,5.602c0,2.469,0.316,4.383,0.952,5.747    c0.636,1.363,1.423,2.046,2.36,2.046c1.004,0,1.79-0.683,2.359-2.046c0.569-1.364,0.854-3.278,0.854-5.747    c0-2.338-0.268-4.204-0.804-5.602C163.686,106.209,162.883,105.51,161.813,105.51z"/>
	</g>
	
		<line fill="none" stroke="#212830" stroke-width="0.5" stroke-linecap="square" stroke-miterlimit="10" x1="0.25" y1="203.544" x2="437.766" y2="203.544"/>
	
		<line fill="none" stroke="#212830" stroke-width="0.5" stroke-linecap="square" stroke-miterlimit="10" x1="188.494" y1="0.25" x2="218.986" y2="0.25"/>
	
		<line fill="none" stroke="#212830" stroke-width="0.5" stroke-linecap="square" stroke-miterlimit="10" x1="201.909" y1="279.503" x2="236.107" y2="279.503"/>
	
		<line fill="none" stroke="#212830" stroke-width="0.5" stroke-linecap="square" stroke-miterlimit="10" x1="249.477" y1="203.544" x2="249.477" y2="236.691"/>
</g>
</svg>
