<?xml version="1.0" encoding="utf-8"?>
<!-- Generator: Adobe Illustrator 16.0.0, SVG Export Plug-In . SVG Version: 6.00 Build 0)  -->
<!DOCTYPE svg PUBLIC "-//W3C//DTD SVG 1.1//EN" "http://www.w3.org/Graphics/SVG/1.1/DTD/svg11.dtd">
<svg xmlns="http://www.w3.org/2000/svg" xmlns:xlink="http://www.w3.org/1999/xlink" version="1.1" id="图层_1" x="0px" y="0px" width="303.359px" height="256.607px" viewBox="0 0 303.359 256.607" xml:space="preserve">
<g>
	<g>
		<path fill="#212830" d="M153.294,0h4.486c1.177,0,2.057,0.253,2.639,0.761c0.583,0.507,0.874,1.125,0.874,1.853    c0,0.577-0.185,1.138-0.555,1.681c-0.369,0.543-0.919,0.985-1.646,1.324c-0.729,0.339-1.516,0.508-2.361,0.508    c-0.526,0-1.196-0.095-2.009-0.286l-0.907,3.11c-0.213,0.74-0.319,1.227-0.319,1.462c0,0.179,0.075,0.328,0.227,0.445    s0.513,0.193,1.084,0.227l-0.084,0.311h-4.529l0.093-0.311c0.594,0,1.007-0.102,1.239-0.307s0.483-0.769,0.752-1.694l1.883-6.488    c0.224-0.779,0.336-1.3,0.336-1.563c0-0.196-0.08-0.358-0.239-0.487c-0.16-0.129-0.512-0.208-1.055-0.235L153.294,0z     M154.865,5.312c0.633,0.163,1.143,0.244,1.529,0.244c0.61,0,1.166-0.126,1.668-0.378c0.501-0.252,0.894-0.63,1.176-1.135    c0.283-0.504,0.425-1.028,0.425-1.572c0-0.566-0.174-1.014-0.521-1.345c-0.347-0.331-0.874-0.496-1.579-0.496    c-0.381,0-0.844,0.047-1.387,0.143L154.865,5.312z"/>
	</g>
	
		<line fill="none" stroke="#212830" stroke-width="0.5" stroke-linecap="square" stroke-miterlimit="10" x1="143.626" y1="83.819" x2="143.626" y2="93.485"/>
	
		<line fill="none" stroke="#212830" stroke-width="0.5" stroke-linecap="square" stroke-miterlimit="10" x1="143.626" y1="119.922" x2="143.626" y2="110.256"/>
	<polyline fill="none" stroke="#212830" stroke-width="0.5" stroke-linecap="square" stroke-miterlimit="10" points="58.285,32.973    59.3,33.15 60.271,33.371 61.197,33.591 62.08,33.812 62.918,34.077 63.756,34.297 64.507,34.562 65.257,34.827 65.963,35.047    66.625,35.356 67.287,35.622 67.86,35.886 68.434,36.195 68.963,36.46 69.493,36.769 69.979,37.078 70.419,37.387 70.817,37.696    71.214,38.005 71.567,38.313 71.92,38.667 72.229,38.976 72.494,39.329 72.758,39.682 72.979,40.035 73.2,40.344 73.376,40.697    73.508,41.05 73.641,41.447 73.773,41.8 73.861,42.154 73.95,42.551 73.994,42.904 74.038,43.257 74.038,43.654 74.038,44.051    73.994,44.802 73.906,45.552 73.729,46.347 73.508,47.141 73.244,47.936 72.891,48.73 72.582,49.524 72.185,50.319 71.788,51.113    71.346,51.864 70.464,53.453 69.537,54.998 68.61,56.498 68.213,57.249 67.772,57.999 67.419,58.705 67.066,59.411 66.713,60.073    66.448,60.779 66.228,61.397 66.051,62.059 65.918,62.633 65.875,62.942 65.875,63.251 65.875,63.516 65.875,63.825 65.875,64.089    65.963,64.354 66.007,64.619 66.095,64.884 66.228,65.105 66.36,65.37 66.492,65.59 66.669,65.855 66.845,66.076 67.066,66.252    67.331,66.473 67.596,66.694 67.904,66.87 68.213,67.047 68.566,67.223 68.963,67.4 69.36,67.532 69.802,67.709 70.287,67.841    70.772,67.974 71.302,68.106 71.832,68.194 72.449,68.327 73.067,68.415 73.729,68.503 74.435,68.547 75.141,68.636 75.891,68.68    76.729,68.724 77.568,68.768 78.406,68.768 79.333,68.812 80.304,68.812 81.275,68.812 82.29,68.768 83.393,68.724 84.496,68.68    85.643,68.636  "/>
	<polygon fill-rule="evenodd" clip-rule="evenodd" fill="#212830" points="142.435,93.485 144.861,93.485 143.626,100.767  "/>
	<polygon fill="none" stroke="#212830" stroke-width="0.5" stroke-linecap="square" stroke-miterlimit="10" points="142.435,93.485    144.861,93.485 143.626,100.767 142.435,93.485  "/>
	<polygon fill-rule="evenodd" clip-rule="evenodd" fill="#212830" points="142.435,110.256 144.861,110.256 143.626,102.974  "/>
	<polygon fill="none" stroke="#212830" stroke-width="0.5" stroke-linecap="square" stroke-miterlimit="10" points="   142.435,110.256 144.861,110.256 143.626,102.974 142.435,110.256  "/>
	
		<line fill="none" stroke="#212830" stroke-width="0.5" stroke-linecap="square" stroke-miterlimit="10" x1="155.496" y1="16.422" x2="155.496" y2="53.32"/>
	<polygon fill-rule="evenodd" clip-rule="evenodd" fill="#212830" points="85.775,70.048 85.864,67.621 93.101,69.121  "/>
	<g>
		<path fill="#212830" d="M156.881,83.085l-2.36,8.161c1.019-1.535,1.814-2.555,2.386-3.059c0.571-0.505,1.118-0.757,1.639-0.757    c0.27,0,0.493,0.093,0.673,0.277c0.179,0.185,0.269,0.432,0.269,0.739c0,0.37-0.079,0.818-0.235,1.345l-1.025,3.522    c-0.129,0.426-0.193,0.661-0.193,0.706c0,0.078,0.024,0.143,0.071,0.193c0.048,0.05,0.103,0.075,0.164,0.075    c0.073,0,0.157-0.036,0.252-0.109c0.319-0.246,0.636-0.588,0.95-1.025l0.26,0.16c-0.19,0.297-0.455,0.623-0.794,0.979    c-0.339,0.356-0.63,0.603-0.874,0.74c-0.243,0.137-0.461,0.206-0.65,0.206c-0.208,0-0.377-0.066-0.509-0.198    c-0.132-0.131-0.197-0.301-0.197-0.508c0-0.247,0.098-0.706,0.294-1.379l0.966-3.362c0.124-0.42,0.186-0.75,0.186-0.991    c0-0.112-0.035-0.202-0.105-0.27c-0.07-0.066-0.161-0.101-0.272-0.101c-0.163,0-0.348,0.062-0.555,0.186    c-0.382,0.234-0.821,0.672-1.319,1.311c-0.135,0.174-0.583,0.874-1.345,2.102c-0.235,0.393-0.429,0.82-0.58,1.286l-0.538,1.723    h-1.26l2.765-9.615l0.294-1.042c0-0.146-0.061-0.274-0.181-0.387c-0.121-0.112-0.268-0.168-0.441-0.168    c-0.101,0-0.255,0.017-0.462,0.05l-0.177,0.025v-0.327L156.881,83.085z"/>
	</g>
	<polygon fill="none" stroke="#212830" stroke-width="0.5" stroke-linecap="square" stroke-miterlimit="10" points="85.775,70.048    85.864,67.621 93.101,69.121 85.775,70.048  "/>
	<polygon fill-rule="evenodd" clip-rule="evenodd" fill="#212830" points="154.305,53.32 156.731,53.32 155.496,60.603  "/>
	<g>
		<path fill="#212830" d="M36.266,25.983l-0.363,0.136l-0.453,0.544h1.995l0.499-0.499l0.725,0.771H36.22    c0.453,0.211,0.725,0.408,0.816,0.589c0.091,0.181,0.098,0.348,0.022,0.499c-0.076,0.152-0.174,0.243-0.294,0.272    c-0.121,0.031-0.204-0.052-0.25-0.249c-0.045-0.196-0.106-0.378-0.181-0.544c-0.076-0.166-0.204-0.355-0.385-0.566h-0.68    c-0.212,0.181-0.461,0.431-0.748,0.748c-0.288,0.317-0.627,0.627-1.02,0.93l-0.09-0.136c0.392-0.423,0.777-0.922,1.156-1.497    c0.377-0.574,0.657-1.133,0.839-1.678L36.266,25.983z M35.087,29.837c0,3.265,0.015,5.214,0.045,5.849l-0.68,0.317    c0.03-1.39,0.045-2.789,0.045-4.194c0-1.405-0.016-2.35-0.045-2.834l0.998,0.454L35.087,29.837z M35.313,27.978    c0.695,0.363,1.111,0.65,1.247,0.862c0.136,0.212,0.159,0.408,0.068,0.589c-0.09,0.182-0.197,0.303-0.317,0.363    c-0.122,0.061-0.204-0.007-0.25-0.204c-0.045-0.196-0.129-0.415-0.25-0.657c-0.121-0.242-0.317-0.499-0.589-0.771L35.313,27.978z     M36.9,34.553c0.029-0.998,0.045-1.935,0.045-2.812c0-0.876-0.016-1.511-0.045-1.904l0.634,0.408h1.904l0.272-0.454l0.725,0.635    l-0.453,0.363c0,1.784,0.03,2.856,0.09,3.219l-0.68,0.272v-0.453h-1.859v0.453L36.9,34.553z M40.119,34.734    c0.544,0.06,0.93,0.098,1.156,0.113c0.227,0.015,0.4,0.007,0.521-0.022c0.12-0.031,0.181-0.136,0.181-0.317v-5.577h-3.4    c-0.242,0-0.529,0.045-0.861,0.136l-0.408-0.408h4.624l0.408-0.408l0.634,0.635l-0.408,0.272v5.668c0,0.211-0.045,0.4-0.136,0.567    c-0.09,0.166-0.333,0.324-0.725,0.476c-0.121-0.454-0.65-0.771-1.587-0.952V34.734z M37.535,30.518v1.36h1.859v-1.36H37.535z     M37.535,32.15v1.406h1.859V32.15H37.535z M40.481,25.938l-0.408,0.181l-0.408,0.544h2.584l0.499-0.499l0.726,0.771h-2.992    c0.544,0.272,0.846,0.476,0.907,0.612c0.06,0.136,0.068,0.257,0.022,0.363c-0.045,0.106-0.121,0.204-0.227,0.295    c-0.106,0.09-0.189,0.068-0.25-0.068c-0.061-0.136-0.121-0.302-0.181-0.499c-0.061-0.196-0.212-0.431-0.453-0.703h-0.771    c-0.453,0.484-0.937,0.937-1.451,1.36l-0.136-0.136c0.453-0.514,0.823-1.035,1.111-1.564c0.287-0.528,0.491-0.944,0.612-1.247    L40.481,25.938z"/>
		<path fill="#212830" d="M52.631,30.155c-0.574,1.179-1.269,2.252-2.085,3.219c1.33,0.968,2.917,1.451,4.76,1.451v0.181    c-0.484,0.091-0.771,0.333-0.861,0.726c-1.904-0.393-3.354-1.043-4.352-1.95c-1.481,1.179-3.219,1.889-5.213,2.131l-0.045-0.136    c1.874-0.454,3.46-1.254,4.76-2.403c-0.787-0.967-1.375-2.115-1.768-3.446h-0.408l-0.544,0.09l-0.363-0.363h3.173v-1.95h-3.128    c-0.393,0-0.756,0.045-1.088,0.136l-0.408-0.408h4.624c0-1.058-0.015-1.769-0.045-2.131l1.133,0.499l-0.408,0.317v1.315h3.173    l0.68-0.68l0.952,0.952h-4.805v1.95h1.587l0.408-0.453l0.726,0.68L52.631,30.155z M50.047,32.921    c0.604-0.604,1.239-1.602,1.904-2.993h-3.899C48.596,31.228,49.261,32.226,50.047,32.921z"/>
	</g>
	<polygon fill="none" stroke="#212830" stroke-width="0.5" stroke-linecap="square" stroke-miterlimit="10" points="154.305,53.32    156.731,53.32 155.496,60.603 154.305,53.32  "/>
	
		<line fill="none" stroke="#212830" stroke-width="0.5" stroke-linecap="square" stroke-miterlimit="10" x1="104.221" y1="239.357" x2="104.221" y2="96.486"/>
	
		<line fill="none" stroke="#212830" stroke-width="0.5" stroke-linecap="square" stroke-miterlimit="10" x1="26.249" y1="119.658" x2="104.221" y2="239.357"/>
	<polygon fill-rule="evenodd" clip-rule="evenodd" fill="#212830" points="182.192,119.701 182.767,118.775 183.031,118.996    183.207,119.305 183.296,119.613 183.251,119.967 183.119,120.275 182.898,120.541 182.59,120.717 182.28,120.805 181.928,120.762    181.619,120.629  "/>
	<polyline fill="none" stroke="#212830" stroke-width="0.5" stroke-linecap="square" stroke-miterlimit="10" points="   182.767,118.775 183.031,118.996 183.207,119.305 183.296,119.613 183.251,119.967 183.119,120.275 182.898,120.541    182.59,120.717 182.28,120.805 181.928,120.762 181.619,120.629  "/>
	<polygon fill-rule="evenodd" clip-rule="evenodd" fill="#212830" points="181.619,120.629 182.192,119.701 182.767,118.775    179.28,116.568 178.706,117.494 178.133,118.422  "/>
	<polygon fill="none" stroke="#212830" stroke-width="0.5" stroke-linecap="square" stroke-miterlimit="10" points="   181.619,120.629 182.192,119.701 182.767,118.775 179.28,116.568 178.706,117.494 178.133,118.422 181.619,120.629  "/>
	<polygon fill-rule="evenodd" clip-rule="evenodd" fill="#212830" points="178.706,117.494 179.28,116.568 179.28,116.524  "/>
	
		<line fill="none" stroke="#212830" stroke-width="0.5" stroke-linecap="square" stroke-miterlimit="10" x1="179.28" y1="116.568" x2="179.28" y2="116.524"/>
	<polygon fill-rule="evenodd" clip-rule="evenodd" fill="#212830" points="178.133,118.467 178.706,117.494 179.28,116.524    175.706,114.406 175.132,115.376 174.559,116.347  "/>
	<polygon fill="none" stroke="#212830" stroke-width="0.5" stroke-linecap="square" stroke-miterlimit="10" points="   178.133,118.467 178.706,117.494 179.28,116.524 175.706,114.406 175.132,115.376 174.559,116.347 178.133,118.467  "/>
	<polygon fill-rule="evenodd" clip-rule="evenodd" fill="#212830" points="175.132,115.376 175.706,114.406 175.662,114.406  "/>
	
		<line fill="none" stroke="#212830" stroke-width="0.5" stroke-linecap="square" stroke-miterlimit="10" x1="175.706" y1="114.406" x2="175.662" y2="114.406"/>
	<polygon fill-rule="evenodd" clip-rule="evenodd" fill="#212830" points="174.603,116.347 175.132,115.376 175.662,114.406    172.043,112.419 171.514,113.39 170.984,114.362  "/>
	<polygon fill="none" stroke="#212830" stroke-width="0.5" stroke-linecap="square" stroke-miterlimit="10" points="   174.603,116.347 175.132,115.376 175.662,114.406 172.043,112.419 171.514,113.39 170.984,114.362 174.603,116.347  "/>
	<polygon fill-rule="evenodd" clip-rule="evenodd" fill="#212830" points="171.514,113.39 172.043,112.419 172.043,112.419  "/>
	
		<line fill="none" stroke="#212830" stroke-width="0.5" stroke-linecap="square" stroke-miterlimit="10" x1="172.043" y1="112.419" x2="172.043" y2="112.419"/>
	<polygon fill-rule="evenodd" clip-rule="evenodd" fill="#212830" points="171.028,114.362 171.514,113.39 172.043,112.419    168.381,110.521 167.852,111.493 167.366,112.463  "/>
	<polygon fill="none" stroke="#212830" stroke-width="0.5" stroke-linecap="square" stroke-miterlimit="10" points="   171.028,114.362 171.514,113.39 172.043,112.419 168.381,110.521 167.852,111.493 167.366,112.463 171.028,114.362  "/>
	<polygon fill-rule="evenodd" clip-rule="evenodd" fill="#212830" points="167.852,111.493 168.381,110.521 168.337,110.521  "/>
	
		<line fill="none" stroke="#212830" stroke-width="0.5" stroke-linecap="square" stroke-miterlimit="10" x1="168.381" y1="110.521" x2="168.337" y2="110.521"/>
	<polygon fill-rule="evenodd" clip-rule="evenodd" fill="#212830" points="167.366,112.463 167.852,111.493 168.337,110.521    164.63,108.711 164.145,109.683 163.659,110.654  "/>
	<polygon fill="none" stroke="#212830" stroke-width="0.5" stroke-linecap="square" stroke-miterlimit="10" points="   167.366,112.463 167.852,111.493 168.337,110.521 164.63,108.711 164.145,109.683 163.659,110.654 167.366,112.463  "/>
	<polygon fill-rule="evenodd" clip-rule="evenodd" fill="#212830" points="164.145,109.683 164.63,108.711 164.586,108.667  "/>
	
		<line fill="none" stroke="#212830" stroke-width="0.5" stroke-linecap="square" stroke-miterlimit="10" x1="164.63" y1="108.711" x2="164.586" y2="108.667"/>
	<polygon fill-rule="evenodd" clip-rule="evenodd" fill="#212830" points="163.703,110.698 164.145,109.683 164.586,108.667    160.835,106.991 160.394,108.005 159.952,109.021  "/>
	<polygon fill="none" stroke="#212830" stroke-width="0.5" stroke-linecap="square" stroke-miterlimit="10" points="   163.703,110.698 164.145,109.683 164.586,108.667 160.835,106.991 160.394,108.005 159.952,109.021 163.703,110.698  "/>
	<polygon fill-rule="evenodd" clip-rule="evenodd" fill="#212830" points="160.394,108.005 160.835,106.991 160.791,106.991  "/>
	
		<line fill="none" stroke="#212830" stroke-width="0.5" stroke-linecap="square" stroke-miterlimit="10" x1="160.835" y1="106.991" x2="160.791" y2="106.991"/>
	<polygon fill-rule="evenodd" clip-rule="evenodd" fill="#212830" points="159.997,109.021 160.394,108.005 160.791,106.991    156.952,105.446 156.555,106.46 156.157,107.476  "/>
	<polygon fill="none" stroke="#212830" stroke-width="0.5" stroke-linecap="square" stroke-miterlimit="10" points="   159.997,109.021 160.394,108.005 160.791,106.991 156.952,105.446 156.555,106.46 156.157,107.476 159.997,109.021  "/>
	<polygon fill-rule="evenodd" clip-rule="evenodd" fill="#212830" points="156.555,106.46 156.952,105.446 156.952,105.446  "/>
	
		<line fill="none" stroke="#212830" stroke-width="0.5" stroke-linecap="square" stroke-miterlimit="10" x1="156.952" y1="105.446" x2="156.952" y2="105.446"/>
	<polygon fill-rule="evenodd" clip-rule="evenodd" fill="#212830" points="156.157,107.476 156.555,106.46 156.952,105.446    153.113,103.989 152.716,105.004 152.318,106.019  "/>
	<polygon fill="none" stroke="#212830" stroke-width="0.5" stroke-linecap="square" stroke-miterlimit="10" points="   156.157,107.476 156.555,106.46 156.952,105.446 153.113,103.989 152.716,105.004 152.318,106.019 156.157,107.476  "/>
	<polygon fill-rule="evenodd" clip-rule="evenodd" fill="#212830" points="152.716,105.004 153.113,103.989 153.069,103.945  "/>
	
		<line fill="none" stroke="#212830" stroke-width="0.5" stroke-linecap="square" stroke-miterlimit="10" x1="153.113" y1="103.989" x2="153.069" y2="103.945"/>
	<polygon fill-rule="evenodd" clip-rule="evenodd" fill="#212830" points="152.362,106.064 152.716,105.004 153.069,103.945    149.186,102.577 148.833,103.636 148.479,104.696  "/>
	<polygon fill="none" stroke="#212830" stroke-width="0.5" stroke-linecap="square" stroke-miterlimit="10" points="   152.362,106.064 152.716,105.004 153.069,103.945 149.186,102.577 148.833,103.636 148.479,104.696 152.362,106.064  "/>
	<polygon fill-rule="evenodd" clip-rule="evenodd" fill="#212830" points="148.833,103.636 149.186,102.577 149.142,102.577  "/>
	
		<line fill="none" stroke="#212830" stroke-width="0.5" stroke-linecap="square" stroke-miterlimit="10" x1="149.186" y1="102.577" x2="149.142" y2="102.577"/>
	<polygon fill-rule="evenodd" clip-rule="evenodd" fill="#212830" points="148.523,104.696 148.833,103.636 149.142,102.577    145.17,101.341 144.861,102.4 144.553,103.459  "/>
	<polygon fill="none" stroke="#212830" stroke-width="0.5" stroke-linecap="square" stroke-miterlimit="10" points="   148.523,104.696 148.833,103.636 149.142,102.577 145.17,101.341 144.861,102.4 144.553,103.459 148.523,104.696  "/>
	<polygon fill-rule="evenodd" clip-rule="evenodd" fill="#212830" points="144.861,102.4 145.17,101.341 145.17,101.341  "/>
	
		<line fill="none" stroke="#212830" stroke-width="0.5" stroke-linecap="square" stroke-miterlimit="10" x1="145.17" y1="101.341" x2="145.17" y2="101.341"/>
	<polygon fill-rule="evenodd" clip-rule="evenodd" fill="#212830" points="144.553,103.459 144.861,102.4 145.17,101.341    141.243,100.238 140.934,101.297 140.625,102.356  "/>
	<polygon fill="none" stroke="#212830" stroke-width="0.5" stroke-linecap="square" stroke-miterlimit="10" points="   144.553,103.459 144.861,102.4 145.17,101.341 141.243,100.238 140.934,101.297 140.625,102.356 144.553,103.459  "/>
	<polygon fill-rule="evenodd" clip-rule="evenodd" fill="#212830" points="140.934,101.297 141.243,100.238 141.198,100.238  "/>
	
		<line fill="none" stroke="#212830" stroke-width="0.5" stroke-linecap="square" stroke-miterlimit="10" x1="141.243" y1="100.238" x2="141.198" y2="100.238"/>
	<polygon fill-rule="evenodd" clip-rule="evenodd" fill="#212830" points="140.669,102.356 140.934,101.297 141.198,100.238    137.184,99.222 136.919,100.282 136.653,101.341  "/>
	<polygon fill="none" stroke="#212830" stroke-width="0.5" stroke-linecap="square" stroke-miterlimit="10" points="   140.669,102.356 140.934,101.297 141.198,100.238 137.184,99.222 136.919,100.282 136.653,101.341 140.669,102.356  "/>
	<polygon fill-rule="evenodd" clip-rule="evenodd" fill="#212830" points="136.919,100.282 137.184,99.222 137.139,99.222  "/>
	
		<line fill="none" stroke="#212830" stroke-width="0.5" stroke-linecap="square" stroke-miterlimit="10" x1="137.184" y1="99.222" x2="137.139" y2="99.222"/>
	<polygon fill-rule="evenodd" clip-rule="evenodd" fill="#212830" points="136.698,101.341 136.919,100.282 137.139,99.222    133.124,98.339 132.903,99.399 132.683,100.458  "/>
	<polygon fill="none" stroke="#212830" stroke-width="0.5" stroke-linecap="square" stroke-miterlimit="10" points="   136.698,101.341 136.919,100.282 137.139,99.222 133.124,98.339 132.903,99.399 132.683,100.458 136.698,101.341  "/>
	<polygon fill-rule="evenodd" clip-rule="evenodd" fill="#212830" points="132.903,99.399 133.124,98.339 133.124,98.295  "/>
	
		<line fill="none" stroke="#212830" stroke-width="0.5" stroke-linecap="square" stroke-miterlimit="10" x1="133.124" y1="98.339" x2="133.124" y2="98.295"/>
	<polygon fill-rule="evenodd" clip-rule="evenodd" fill="#212830" points="132.683,100.502 132.903,99.399 133.124,98.295    129.063,97.545 128.843,98.649 128.623,99.752  "/>
	<polygon fill="none" stroke="#212830" stroke-width="0.5" stroke-linecap="square" stroke-miterlimit="10" points="   132.683,100.502 132.903,99.399 133.124,98.295 129.063,97.545 128.843,98.649 128.623,99.752 132.683,100.502  "/>
	<polygon fill-rule="evenodd" clip-rule="evenodd" fill="#212830" points="128.843,98.649 129.063,97.545 129.02,97.545  "/>
	
		<line fill="none" stroke="#212830" stroke-width="0.5" stroke-linecap="square" stroke-miterlimit="10" x1="129.063" y1="97.545" x2="129.02" y2="97.545"/>
	<polygon fill-rule="evenodd" clip-rule="evenodd" fill="#212830" points="128.667,99.752 128.843,98.649 129.02,97.545    124.96,96.883 124.783,97.987 124.607,99.09  "/>
	<polygon fill="none" stroke="#212830" stroke-width="0.5" stroke-linecap="square" stroke-miterlimit="10" points="128.667,99.752    128.843,98.649 129.02,97.545 124.96,96.883 124.783,97.987 124.607,99.09 128.667,99.752  "/>
	<polygon fill-rule="evenodd" clip-rule="evenodd" fill="#212830" points="124.783,97.987 124.96,96.883 124.916,96.883  "/>
	
		<line fill="none" stroke="#212830" stroke-width="0.5" stroke-linecap="square" stroke-miterlimit="10" x1="124.96" y1="96.883" x2="124.916" y2="96.883"/>
	<polygon fill-rule="evenodd" clip-rule="evenodd" fill="#212830" points="124.651,99.09 124.783,97.987 124.916,96.883    120.813,96.354 120.68,97.457 120.548,98.56  "/>
	<polygon fill="none" stroke="#212830" stroke-width="0.5" stroke-linecap="square" stroke-miterlimit="10" points="124.651,99.09    124.783,97.987 124.916,96.883 120.813,96.354 120.68,97.457 120.548,98.56 124.651,99.09  "/>
	<polygon fill-rule="evenodd" clip-rule="evenodd" fill="#212830" points="120.68,97.457 120.813,96.354 120.813,96.354  "/>
	
		<line fill="none" stroke="#212830" stroke-width="0.5" stroke-linecap="square" stroke-miterlimit="10" x1="120.813" y1="96.354" x2="120.813" y2="96.354"/>
	<polygon fill-rule="evenodd" clip-rule="evenodd" fill="#212830" points="120.548,98.56 120.68,97.457 120.813,96.354    116.708,95.913 116.576,97.015 116.443,98.119  "/>
	<polygon fill="none" stroke="#212830" stroke-width="0.5" stroke-linecap="square" stroke-miterlimit="10" points="120.548,98.56    120.68,97.457 120.813,96.354 116.708,95.913 116.576,97.015 116.443,98.119 120.548,98.56  "/>
	<polygon fill-rule="evenodd" clip-rule="evenodd" fill="#212830" points="116.576,97.015 116.708,95.913 116.664,95.913  "/>
	
		<line fill="none" stroke="#212830" stroke-width="0.5" stroke-linecap="square" stroke-miterlimit="10" x1="116.708" y1="95.913" x2="116.664" y2="95.913"/>
	<polygon fill-rule="evenodd" clip-rule="evenodd" fill="#212830" points="116.487,98.119 116.576,97.015 116.664,95.913    112.561,95.603 112.473,96.707 112.384,97.81  "/>
	<polygon fill="none" stroke="#212830" stroke-width="0.5" stroke-linecap="square" stroke-miterlimit="10" points="116.487,98.119    116.576,97.015 116.664,95.913 112.561,95.603 112.473,96.707 112.384,97.81 116.487,98.119  "/>
	<polygon fill-rule="evenodd" clip-rule="evenodd" fill="#212830" points="112.473,96.707 112.561,95.603 112.517,95.603  "/>
	
		<line fill="none" stroke="#212830" stroke-width="0.5" stroke-linecap="square" stroke-miterlimit="10" x1="112.561" y1="95.603" x2="112.517" y2="95.603"/>
	<polygon fill-rule="evenodd" clip-rule="evenodd" fill="#212830" points="112.428,97.81 112.473,96.707 112.517,95.603    108.368,95.426 108.324,96.53 108.28,97.633  "/>
	<polygon fill="none" stroke="#212830" stroke-width="0.5" stroke-linecap="square" stroke-miterlimit="10" points="112.428,97.81    112.473,96.707 112.517,95.603 108.368,95.426 108.324,96.53 108.28,97.633 112.428,97.81  "/>
	<polygon fill-rule="evenodd" clip-rule="evenodd" fill="#212830" points="108.324,96.53 108.368,95.426 108.324,95.426  "/>
	
		<line fill="none" stroke="#212830" stroke-width="0.5" stroke-linecap="square" stroke-miterlimit="10" x1="108.368" y1="95.426" x2="108.324" y2="95.426"/>
	<polygon fill-rule="evenodd" clip-rule="evenodd" fill="#212830" points="108.324,97.633 108.324,96.53 108.324,95.426    104.221,95.382 104.221,96.486 104.221,97.589  "/>
	<polygon fill="none" stroke="#212830" stroke-width="0.5" stroke-linecap="square" stroke-miterlimit="10" points="108.324,97.633    108.324,96.53 108.324,95.426 104.221,95.382 104.221,96.486 104.221,97.589 108.324,97.633  "/>
	<polygon fill-rule="evenodd" clip-rule="evenodd" fill="#212830" points="104.221,96.486 104.221,97.589 103.867,97.545    103.559,97.369 103.338,97.104 103.161,96.795 103.117,96.486 103.161,96.133 103.338,95.824 103.603,95.603 103.912,95.426    104.221,95.382  "/>
	<polyline fill="none" stroke="#212830" stroke-width="0.5" stroke-linecap="square" stroke-miterlimit="10" points="   104.221,97.589 103.867,97.545 103.559,97.369 103.338,97.104 103.161,96.795 103.117,96.486 103.161,96.133 103.338,95.824    103.603,95.603 103.912,95.426 104.221,95.382  "/>
	
		<line fill="none" stroke="#212830" stroke-width="0.5" stroke-linecap="square" stroke-miterlimit="10" x1="26.249" y1="119.658" x2="128.799" y2="47.936"/>
	
		<line fill="none" stroke="#212830" stroke-width="0.5" stroke-linecap="square" stroke-miterlimit="10" x1="94.469" y1="245.713" x2="78.318" y2="256.262"/>
	
		<line fill="none" stroke="#212830" stroke-width="0.5" stroke-linecap="square" stroke-miterlimit="10" x1="16.497" y1="126.057" x2="0.346" y2="136.605"/>
	
		<line fill="none" stroke="#212830" stroke-width="0.5" stroke-linecap="square" stroke-miterlimit="10" x1="81.672" y1="245.404" x2="11.643" y2="137.93"/>
	<polygon fill-rule="evenodd" clip-rule="evenodd" fill="#212830" points="82.687,244.742 80.657,246.066 85.643,251.494  "/>
	<polygon fill="none" stroke="#212830" stroke-width="0.5" stroke-linecap="square" stroke-miterlimit="10" points="82.687,244.742    80.657,246.066 85.643,251.494 82.687,244.742  "/>
	<polygon fill-rule="evenodd" clip-rule="evenodd" fill="#212830" points="12.658,137.268 10.628,138.592 7.671,131.795  "/>
	<g>
		<path fill="#212830" d="M52.711,190.301l3.643-4.553c-0.237-0.354-0.44-0.742-0.61-1.168l-3.423,1.059    c-0.446,0.137-0.798,0.291-1.056,0.459c-0.197,0.129-0.308,0.297-0.332,0.506c-0.017,0.16,0.105,0.48,0.368,0.965L51,187.674    l-2.409-3.695l0.311-0.094c0.241,0.34,0.429,0.551,0.564,0.637c0.205,0.141,0.405,0.211,0.599,0.211    c0.319,0.006,0.811-0.092,1.477-0.289l6.853-2.092c0.458-0.139,0.793-0.277,1.004-0.414c0.216-0.141,0.341-0.348,0.376-0.621    c0.036-0.275-0.056-0.574-0.274-0.9l0.315-0.086l2.028,3.113c0.679,1.041,0.971,1.922,0.877,2.639    c-0.095,0.717-0.463,1.285-1.105,1.703c-0.615,0.402-1.331,0.531-2.147,0.393c-0.817-0.141-1.561-0.576-2.232-1.309l-2.189,2.752    c-0.539,0.672-0.838,1.188-0.897,1.547c-0.06,0.359,0.06,0.801,0.359,1.322l-0.311,0.092L52.711,190.301z M56.224,184.439    c0.153,0.328,0.307,0.609,0.459,0.844c0.526,0.807,1.167,1.299,1.92,1.477c0.754,0.178,1.465,0.049,2.131-0.385    c0.521-0.34,0.824-0.748,0.91-1.221c0.085-0.475-0.063-1.006-0.445-1.592c-0.098-0.15-0.233-0.316-0.405-0.498L56.224,184.439z"/>
	</g>
	<polygon fill="none" stroke="#212830" stroke-width="0.5" stroke-linecap="square" stroke-miterlimit="10" points="12.658,137.268    10.628,138.592 7.671,131.795 12.658,137.268  "/>
	
		<line fill="none" stroke="#212830" stroke-width="0.5" stroke-linecap="square" stroke-miterlimit="10" x1="104.221" y1="239.357" x2="104.309" y2="239.357"/>
	
		<line fill="none" stroke="#212830" stroke-width="0.5" stroke-linecap="square" stroke-miterlimit="10" x1="26.249" y1="119.658" x2="26.337" y2="119.658"/>
	
		<line fill="none" stroke="#212830" stroke-width="0.5" stroke-linecap="square" stroke-miterlimit="10" x1="7.671" y1="131.795" x2="7.76" y2="131.795"/>
	
		<line fill="none" stroke="#212830" stroke-width="0.5" stroke-linecap="square" stroke-miterlimit="10" x1="188.899" y1="129.236" x2="200.461" y2="145.83"/>
	
		<line fill="none" stroke="#212830" stroke-width="0.5" stroke-linecap="square" stroke-miterlimit="10" x1="291.45" y1="57.469" x2="303.012" y2="74.064"/>
	
		<line fill="none" stroke="#212830" stroke-width="0.5" stroke-linecap="square" stroke-miterlimit="10" x1="201.432" y1="134.488" x2="292.067" y2="71.063"/>
	<polygon fill-rule="evenodd" clip-rule="evenodd" fill="#212830" points="200.726,133.473 202.138,135.459 195.475,138.637  "/>
	<polygon fill="none" stroke="#212830" stroke-width="0.5" stroke-linecap="square" stroke-miterlimit="10" points="   200.726,133.473 202.138,135.459 195.475,138.637 200.726,133.473  "/>
	<polygon fill-rule="evenodd" clip-rule="evenodd" fill="#212830" points="291.362,70.092 292.729,72.078 298.025,66.915  "/>
	<g>
		<path fill="#212830" d="M242.685,95.586l0.604,2.255l-5.507,3.856l-0.178-0.254c0.585-2.613,0.88-4.619,0.886-6.018    c0.004-1.4-0.264-2.487-0.807-3.263c-0.414-0.592-0.937-0.951-1.566-1.079c-0.629-0.127-1.195-0.014-1.7,0.34    c-0.459,0.321-0.777,0.745-0.954,1.268c-0.177,0.524-0.171,1.106,0.018,1.747l-0.255,0.179c-0.479-0.929-0.641-1.788-0.484-2.574    c0.157-0.787,0.591-1.43,1.303-1.928c0.757-0.53,1.56-0.73,2.407-0.598c0.849,0.131,1.503,0.527,1.966,1.188    c0.331,0.473,0.552,1.023,0.662,1.65c0.181,0.981,0.182,2.154,0.002,3.519c-0.27,2.048-0.456,3.301-0.561,3.757l2.437-1.706    c0.496-0.348,0.831-0.608,1.005-0.785s0.302-0.378,0.383-0.603c0.082-0.226,0.11-0.482,0.086-0.772L242.685,95.586z"/>
	</g>
	<g>
		<path fill="#212830" d="M241.871,84.235l3.381,9.842c0.172,0.49,0.289,0.78,0.354,0.871c0.049,0.07,0.11,0.111,0.187,0.127    c0.075,0.016,0.146,0.001,0.209-0.044c0.088-0.062,0.154-0.166,0.201-0.315c0.106-0.354,0.152-0.821,0.138-1.399l0.355,0.068    c-0.005,0.921-0.106,1.631-0.303,2.132c-0.149,0.363-0.345,0.631-0.588,0.801c-0.174,0.122-0.362,0.165-0.563,0.128    s-0.354-0.134-0.465-0.291c-0.115-0.164-0.28-0.557-0.492-1.172l-2.656-7.766c-0.218-0.634-0.354-0.989-0.409-1.068    c-0.077-0.109-0.184-0.17-0.321-0.18c-0.137-0.011-0.297,0.049-0.48,0.178c-0.105,0.074-0.255,0.202-0.448,0.386l-0.178-0.254    L241.871,84.235z"/>
	</g>
	<polygon fill="none" stroke="#212830" stroke-width="0.5" stroke-linecap="square" stroke-miterlimit="10" points="291.362,70.092    292.729,72.078 298.025,66.915 291.362,70.092  "/>
	
		<line fill="none" stroke="#212830" stroke-width="0.5" stroke-linecap="square" stroke-miterlimit="10" x1="182.192" y1="119.658" x2="182.28" y2="119.658"/>
	
		<line fill="none" stroke="#212830" stroke-width="0.5" stroke-linecap="square" stroke-miterlimit="10" x1="284.743" y1="47.936" x2="284.831" y2="47.936"/>
	
		<line fill="none" stroke="#212830" stroke-width="0.5" stroke-linecap="square" stroke-miterlimit="10" x1="298.025" y1="66.915" x2="298.113" y2="66.915"/>
	<polyline fill="none" stroke="#212830" stroke-width="0.5" stroke-linecap="square" stroke-miterlimit="10" points="   136.389,176.682 133.785,175.402 131.094,174.256 128.402,173.195 125.666,172.27 122.886,171.43 120.063,170.725 117.238,170.105    114.37,169.664 111.502,169.313  "/>
	<polygon fill-rule="evenodd" clip-rule="evenodd" fill="#212830" points="137.007,175.623 135.771,177.742 142.699,180.346  "/>
	<polygon fill="none" stroke="#212830" stroke-width="0.5" stroke-linecap="square" stroke-miterlimit="10" points="   137.007,175.623 135.771,177.742 142.699,180.346 137.007,175.623  "/>
	<polygon fill-rule="evenodd" clip-rule="evenodd" fill="#212830" points="111.457,170.504 111.59,168.076 104.221,168.914  "/>
	<g>
		<path fill="#212830" d="M129.481,154.639c0.908,0.271,1.515,1.029,1.822,2.275c0.306,1.246,0.205,2.721-0.302,4.424    c-0.548,1.836-1.314,3.182-2.301,4.041c-0.986,0.857-1.919,1.154-2.799,0.893c-0.865-0.258-1.473-1-1.824-2.223    c-0.352-1.225-0.264-2.719,0.261-4.479c0.527-1.768,1.278-3.102,2.258-4.002C127.575,154.668,128.537,154.357,129.481,154.639z     M125.784,160.133c-0.522,1.756-0.746,3.1-0.666,4.033c0.078,0.932,0.394,1.48,0.946,1.645c1.198,0.357,2.313-1.176,3.343-4.598    L125.784,160.133z M129.557,160.713c1.012-3.393,0.923-5.268-0.27-5.623c-1.225-0.365-2.342,1.148-3.354,4.543L129.557,160.713z"/>
	</g>
	<polygon fill="none" stroke="#212830" stroke-width="0.5" stroke-linecap="square" stroke-miterlimit="10" points="   111.457,170.504 111.59,168.076 104.221,168.914 111.457,170.504  "/>
	
		<line fill="none" stroke="#212830" stroke-width="0.5" stroke-linecap="square" stroke-miterlimit="10" x1="130.696" y1="174.078" x2="130.785" y2="174.078"/>
	
		<line fill="none" stroke="#212830" stroke-width="0.5" stroke-linecap="square" stroke-miterlimit="10" x1="182.192" y1="119.658" x2="182.28" y2="119.658"/>
	
		<line fill="none" stroke="#212830" stroke-width="0.5" stroke-linecap="square" stroke-miterlimit="10" x1="104.221" y1="239.357" x2="104.309" y2="239.357"/>
	
		<line fill="none" stroke="#212830" stroke-width="0.5" stroke-linecap="square" stroke-miterlimit="10" x1="104.221" y1="96.486" x2="104.309" y2="96.486"/>
	
		<line fill="none" stroke="#212830" stroke-width="0.5" stroke-linecap="square" stroke-miterlimit="10" x1="104.221" y1="239.357" x2="104.309" y2="239.357"/>
	<polyline fill="none" stroke="#212830" stroke-width="0.5" stroke-linecap="square" stroke-miterlimit="10" points="96.939,169.4    94.071,169.754 91.248,170.195 88.379,170.813 85.599,171.518 82.819,172.357 80.083,173.283 77.392,174.344 74.744,175.49    72.141,176.771  "/>
	<polygon fill-rule="evenodd" clip-rule="evenodd" fill="#212830" points="96.896,168.164 97.028,170.592 104.221,169.002  "/>
	<polygon fill="none" stroke="#212830" stroke-width="0.5" stroke-linecap="square" stroke-miterlimit="10" points="96.896,168.164    97.028,170.592 104.221,169.002 96.896,168.164  "/>
	<polygon fill-rule="evenodd" clip-rule="evenodd" fill="#212830" points="72.758,177.83 71.522,175.711 65.831,180.434  "/>
	<g>
		<path fill="#212830" d="M79.117,154.709c0.907-0.27,1.83,0.031,2.769,0.906s1.662,2.164,2.169,3.867    c0.547,1.836,0.643,3.381,0.287,4.641c-0.356,1.258-0.974,2.018-1.854,2.281c-0.864,0.258-1.778-0.029-2.743-0.863    c-0.964-0.832-1.708-2.129-2.233-3.889c-0.526-1.768-0.627-3.295-0.301-4.586C77.537,155.775,78.172,154.99,79.117,154.709z     M82.504,159.75c-1.011-3.395-2.113-4.912-3.305-4.557c-1.224,0.365-1.331,2.244-0.319,5.637L82.504,159.75z M79.03,161.33    c0.523,1.756,1.073,3.002,1.649,3.74c0.577,0.738,1.142,1.023,1.695,0.857c1.197-0.355,1.291-2.248,0.28-5.678L79.03,161.33z"/>
	</g>
	<polygon fill="none" stroke="#212830" stroke-width="0.5" stroke-linecap="square" stroke-miterlimit="10" points="72.758,177.83    71.522,175.711 65.831,180.434 72.758,177.83  "/>
	
		<line fill="none" stroke="#212830" stroke-width="0.5" stroke-linecap="square" stroke-miterlimit="10" x1="90.762" y1="170.326" x2="90.85" y2="170.326"/>
	
		<line fill="none" stroke="#212830" stroke-width="0.5" stroke-linecap="square" stroke-miterlimit="10" x1="26.249" y1="119.658" x2="26.337" y2="119.658"/>
	
		<line fill="none" stroke="#212830" stroke-width="0.5" stroke-linecap="square" stroke-miterlimit="10" x1="104.221" y1="239.357" x2="104.309" y2="239.357"/>
	
		<line fill="none" stroke="#212830" stroke-width="0.5" stroke-linecap="square" stroke-miterlimit="10" x1="104.221" y1="96.486" x2="104.309" y2="96.486"/>
	
		<line fill="none" stroke="#212830" stroke-width="0.5" stroke-linecap="square" stroke-miterlimit="10" x1="104.221" y1="239.357" x2="104.309" y2="239.357"/>
	
		<line fill="none" stroke="#212830" stroke-width="0.5" stroke-linecap="square" stroke-miterlimit="10" x1="182.192" y1="119.658" x2="104.221" y2="239.357"/>
	
		<line fill="none" stroke="#212830" stroke-width="0.5" stroke-linecap="square" stroke-miterlimit="10" x1="182.192" y1="119.658" x2="284.743" y2="47.936"/>
	<polyline fill="none" stroke="#212830" stroke-width="0.5" stroke-linecap="square" stroke-miterlimit="10" points="   233.468,83.819 229.981,81.612 226.407,79.493 222.789,77.507 219.126,75.609 215.42,73.8 211.669,72.123 207.83,70.578    203.991,69.121 200.108,67.753 196.137,66.517 192.209,65.414 188.193,64.398 184.178,63.516 180.118,62.766 176.059,62.104    171.955,61.574 167.852,61.132 163.747,60.823 159.6,60.647 155.496,60.603  "/>
	<polygon fill-rule="evenodd" clip-rule="evenodd" fill="#212830" points="104.221,96.486 104.221,95.382 104.529,95.426    104.839,95.603 105.104,95.824 105.279,96.133 105.324,96.486 105.279,96.795 105.104,97.104 104.883,97.369 104.573,97.545    104.221,97.589  "/>
	<polyline fill="none" stroke="#212830" stroke-width="0.5" stroke-linecap="square" stroke-miterlimit="10" points="   104.221,95.382 104.529,95.426 104.839,95.603 105.104,95.824 105.279,96.133 105.324,96.486 105.279,96.795 105.104,97.104    104.883,97.369 104.573,97.545 104.221,97.589  "/>
	<polygon fill-rule="evenodd" clip-rule="evenodd" fill="#212830" points="104.221,97.589 104.221,96.486 104.221,95.382    100.117,95.426 100.117,96.53 100.117,97.633  "/>
	<polygon fill="none" stroke="#212830" stroke-width="0.5" stroke-linecap="square" stroke-miterlimit="10" points="104.221,97.589    104.221,96.486 104.221,95.382 100.117,95.426 100.117,96.53 100.117,97.633 104.221,97.589  "/>
	<polygon fill-rule="evenodd" clip-rule="evenodd" fill="#212830" points="100.117,96.53 100.117,95.426 100.072,95.426  "/>
	
		<line fill="none" stroke="#212830" stroke-width="0.5" stroke-linecap="square" stroke-miterlimit="10" x1="100.117" y1="95.426" x2="100.072" y2="95.426"/>
	<polygon fill-rule="evenodd" clip-rule="evenodd" fill="#212830" points="100.161,97.633 100.117,96.53 100.072,95.426    95.925,95.603 95.969,96.707 96.013,97.81  "/>
	<polygon fill="none" stroke="#212830" stroke-width="0.5" stroke-linecap="square" stroke-miterlimit="10" points="100.161,97.633    100.117,96.53 100.072,95.426 95.925,95.603 95.969,96.707 96.013,97.81 100.161,97.633  "/>
	<polygon fill-rule="evenodd" clip-rule="evenodd" fill="#212830" points="95.969,96.707 95.925,95.603 95.881,95.603  "/>
	
		<line fill="none" stroke="#212830" stroke-width="0.5" stroke-linecap="square" stroke-miterlimit="10" x1="95.925" y1="95.603" x2="95.881" y2="95.603"/>
	<polygon fill-rule="evenodd" clip-rule="evenodd" fill="#212830" points="96.058,97.81 95.969,96.707 95.881,95.603 91.776,95.913    91.865,97.015 91.953,98.119  "/>
	<polygon fill="none" stroke="#212830" stroke-width="0.5" stroke-linecap="square" stroke-miterlimit="10" points="96.058,97.81    95.969,96.707 95.881,95.603 91.776,95.913 91.865,97.015 91.953,98.119 96.058,97.81  "/>
	<polygon fill-rule="evenodd" clip-rule="evenodd" fill="#212830" points="91.865,97.015 91.776,95.913 91.733,95.913  "/>
	
		<line fill="none" stroke="#212830" stroke-width="0.5" stroke-linecap="square" stroke-miterlimit="10" x1="91.776" y1="95.913" x2="91.733" y2="95.913"/>
	<polygon fill-rule="evenodd" clip-rule="evenodd" fill="#212830" points="91.997,98.119 91.865,97.015 91.733,95.913    87.629,96.354 87.761,97.457 87.894,98.56  "/>
	<polygon fill="none" stroke="#212830" stroke-width="0.5" stroke-linecap="square" stroke-miterlimit="10" points="91.997,98.119    91.865,97.015 91.733,95.913 87.629,96.354 87.761,97.457 87.894,98.56 91.997,98.119  "/>
	<polygon fill-rule="evenodd" clip-rule="evenodd" fill="#212830" points="87.761,97.457 87.629,96.354 87.629,96.354  "/>
	
		<line fill="none" stroke="#212830" stroke-width="0.5" stroke-linecap="square" stroke-miterlimit="10" x1="87.629" y1="96.354" x2="87.629" y2="96.354"/>
	<polygon fill-rule="evenodd" clip-rule="evenodd" fill="#212830" points="87.894,98.56 87.761,97.457 87.629,96.354 83.525,96.883    83.658,97.987 83.79,99.09  "/>
	<polygon fill="none" stroke="#212830" stroke-width="0.5" stroke-linecap="square" stroke-miterlimit="10" points="87.894,98.56    87.761,97.457 87.629,96.354 83.525,96.883 83.658,97.987 83.79,99.09 87.894,98.56  "/>
	<polygon fill-rule="evenodd" clip-rule="evenodd" fill="#212830" points="83.658,97.987 83.525,96.883 83.481,96.883  "/>
	
		<line fill="none" stroke="#212830" stroke-width="0.5" stroke-linecap="square" stroke-miterlimit="10" x1="83.525" y1="96.883" x2="83.481" y2="96.883"/>
	<polygon fill-rule="evenodd" clip-rule="evenodd" fill="#212830" points="83.834,99.09 83.658,97.987 83.481,96.883 79.421,97.545    79.598,98.649 79.774,99.752  "/>
	<polygon fill="none" stroke="#212830" stroke-width="0.5" stroke-linecap="square" stroke-miterlimit="10" points="83.834,99.09    83.658,97.987 83.481,96.883 79.421,97.545 79.598,98.649 79.774,99.752 83.834,99.09  "/>
	<polygon fill-rule="evenodd" clip-rule="evenodd" fill="#212830" points="79.598,98.649 79.421,97.545 79.377,97.545  "/>
	
		<line fill="none" stroke="#212830" stroke-width="0.5" stroke-linecap="square" stroke-miterlimit="10" x1="79.421" y1="97.545" x2="79.377" y2="97.545"/>
	<polygon fill-rule="evenodd" clip-rule="evenodd" fill="#212830" points="79.818,99.752 79.598,98.649 79.377,97.545    75.317,98.295 75.538,99.399 75.759,100.502  "/>
	<polygon fill="none" stroke="#212830" stroke-width="0.5" stroke-linecap="square" stroke-miterlimit="10" points="79.818,99.752    79.598,98.649 79.377,97.545 75.317,98.295 75.538,99.399 75.759,100.502 79.818,99.752  "/>
	<polygon fill-rule="evenodd" clip-rule="evenodd" fill="#212830" points="75.538,99.399 75.317,98.295 75.317,98.339  "/>
	
		<line fill="none" stroke="#212830" stroke-width="0.5" stroke-linecap="square" stroke-miterlimit="10" x1="75.317" y1="98.295" x2="75.317" y2="98.339"/>
	<polygon fill-rule="evenodd" clip-rule="evenodd" fill="#212830" points="75.759,100.458 75.538,99.399 75.317,98.339    71.302,99.222 71.522,100.282 71.743,101.341  "/>
	<polygon fill="none" stroke="#212830" stroke-width="0.5" stroke-linecap="square" stroke-miterlimit="10" points="75.759,100.458    75.538,99.399 75.317,98.339 71.302,99.222 71.522,100.282 71.743,101.341 75.759,100.458  "/>
	<polygon fill-rule="evenodd" clip-rule="evenodd" fill="#212830" points="71.522,100.282 71.302,99.222 71.258,99.222  "/>
	
		<line fill="none" stroke="#212830" stroke-width="0.5" stroke-linecap="square" stroke-miterlimit="10" x1="71.302" y1="99.222" x2="71.258" y2="99.222"/>
	<polygon fill-rule="evenodd" clip-rule="evenodd" fill="#212830" points="71.788,101.341 71.522,100.282 71.258,99.222    67.242,100.238 67.507,101.297 67.772,102.356  "/>
	<polygon fill="none" stroke="#212830" stroke-width="0.5" stroke-linecap="square" stroke-miterlimit="10" points="71.788,101.341    71.522,100.282 71.258,99.222 67.242,100.238 67.507,101.297 67.772,102.356 71.788,101.341  "/>
	<polygon fill-rule="evenodd" clip-rule="evenodd" fill="#212830" points="67.507,101.297 67.242,100.238 67.198,100.238  "/>
	
		<line fill="none" stroke="#212830" stroke-width="0.5" stroke-linecap="square" stroke-miterlimit="10" x1="67.242" y1="100.238" x2="67.198" y2="100.238"/>
	<polygon fill-rule="evenodd" clip-rule="evenodd" fill="#212830" points="67.816,102.356 67.507,101.297 67.198,100.238    63.271,101.341 63.58,102.4 63.889,103.459  "/>
	<polygon fill="none" stroke="#212830" stroke-width="0.5" stroke-linecap="square" stroke-miterlimit="10" points="67.816,102.356    67.507,101.297 67.198,100.238 63.271,101.341 63.58,102.4 63.889,103.459 67.816,102.356  "/>
	<polygon fill-rule="evenodd" clip-rule="evenodd" fill="#212830" points="63.58,102.4 63.271,101.341 63.271,101.341  "/>
	
		<line fill="none" stroke="#212830" stroke-width="0.5" stroke-linecap="square" stroke-miterlimit="10" x1="63.271" y1="101.341" x2="63.271" y2="101.341"/>
	<polygon fill-rule="evenodd" clip-rule="evenodd" fill="#212830" points="63.889,103.459 63.58,102.4 63.271,101.341 59.3,102.577    59.608,103.636 59.917,104.696  "/>
	<polygon fill="none" stroke="#212830" stroke-width="0.5" stroke-linecap="square" stroke-miterlimit="10" points="63.889,103.459    63.58,102.4 63.271,101.341 59.3,102.577 59.608,103.636 59.917,104.696 63.889,103.459  "/>
	<polygon fill-rule="evenodd" clip-rule="evenodd" fill="#212830" points="59.608,103.636 59.3,102.577 59.255,102.577  "/>
	
		<line fill="none" stroke="#212830" stroke-width="0.5" stroke-linecap="square" stroke-miterlimit="10" x1="59.3" y1="102.577" x2="59.255" y2="102.577"/>
	<polygon fill-rule="evenodd" clip-rule="evenodd" fill="#212830" points="59.961,104.696 59.608,103.636 59.255,102.577    55.373,103.945 55.726,105.004 56.078,106.064  "/>
	<polygon fill="none" stroke="#212830" stroke-width="0.5" stroke-linecap="square" stroke-miterlimit="10" points="59.961,104.696    59.608,103.636 59.255,102.577 55.373,103.945 55.726,105.004 56.078,106.064 59.961,104.696  "/>
	<polygon fill-rule="evenodd" clip-rule="evenodd" fill="#212830" points="55.726,105.004 55.373,103.945 55.328,103.989  "/>
	
		<line fill="none" stroke="#212830" stroke-width="0.5" stroke-linecap="square" stroke-miterlimit="10" x1="55.373" y1="103.945" x2="55.328" y2="103.989"/>
	<polygon fill-rule="evenodd" clip-rule="evenodd" fill="#212830" points="56.123,106.019 55.726,105.004 55.328,103.989    51.489,105.446 51.886,106.46 52.284,107.476  "/>
	<polygon fill="none" stroke="#212830" stroke-width="0.5" stroke-linecap="square" stroke-miterlimit="10" points="56.123,106.019    55.726,105.004 55.328,103.989 51.489,105.446 51.886,106.46 52.284,107.476 56.123,106.019  "/>
	<polygon fill-rule="evenodd" clip-rule="evenodd" fill="#212830" points="51.886,106.46 51.489,105.446 51.489,105.446  "/>
	
		<line fill="none" stroke="#212830" stroke-width="0.5" stroke-linecap="square" stroke-miterlimit="10" x1="51.489" y1="105.446" x2="51.489" y2="105.446"/>
	<polygon fill-rule="evenodd" clip-rule="evenodd" fill="#212830" points="52.284,107.476 51.886,106.46 51.489,105.446    47.65,106.991 48.047,108.005 48.444,109.021  "/>
	<polygon fill="none" stroke="#212830" stroke-width="0.5" stroke-linecap="square" stroke-miterlimit="10" points="52.284,107.476    51.886,106.46 51.489,105.446 47.65,106.991 48.047,108.005 48.444,109.021 52.284,107.476  "/>
	<polygon fill-rule="evenodd" clip-rule="evenodd" fill="#212830" points="48.047,108.005 47.65,106.991 47.606,106.991  "/>
	
		<line fill="none" stroke="#212830" stroke-width="0.5" stroke-linecap="square" stroke-miterlimit="10" x1="47.65" y1="106.991" x2="47.606" y2="106.991"/>
	<polygon fill-rule="evenodd" clip-rule="evenodd" fill="#212830" points="48.489,109.021 48.047,108.005 47.606,106.991    43.855,108.667 44.296,109.683 44.738,110.698  "/>
	<polygon fill="none" stroke="#212830" stroke-width="0.5" stroke-linecap="square" stroke-miterlimit="10" points="48.489,109.021    48.047,108.005 47.606,106.991 43.855,108.667 44.296,109.683 44.738,110.698 48.489,109.021  "/>
	<polygon fill-rule="evenodd" clip-rule="evenodd" fill="#212830" points="44.296,109.683 43.855,108.667 43.811,108.711  "/>
	
		<line fill="none" stroke="#212830" stroke-width="0.5" stroke-linecap="square" stroke-miterlimit="10" x1="43.855" y1="108.667" x2="43.811" y2="108.711"/>
	<polygon fill-rule="evenodd" clip-rule="evenodd" fill="#212830" points="44.782,110.654 44.296,109.683 43.811,108.711    40.104,110.521 40.59,111.493 41.075,112.463  "/>
	<polygon fill="none" stroke="#212830" stroke-width="0.5" stroke-linecap="square" stroke-miterlimit="10" points="44.782,110.654    44.296,109.683 43.811,108.711 40.104,110.521 40.59,111.493 41.075,112.463 44.782,110.654  "/>
	<polygon fill-rule="evenodd" clip-rule="evenodd" fill="#212830" points="40.59,111.493 40.104,110.521 40.104,110.521  "/>
	
		<line fill="none" stroke="#212830" stroke-width="0.5" stroke-linecap="square" stroke-miterlimit="10" x1="40.104" y1="110.521" x2="40.104" y2="110.521"/>
	<polygon fill-rule="evenodd" clip-rule="evenodd" fill="#212830" points="41.12,112.463 40.59,111.493 40.104,110.521    36.442,112.419 36.927,113.39 37.457,114.362  "/>
	<polygon fill="none" stroke="#212830" stroke-width="0.5" stroke-linecap="square" stroke-miterlimit="10" points="41.12,112.463    40.59,111.493 40.104,110.521 36.442,112.419 36.927,113.39 37.457,114.362 41.12,112.463  "/>
	<polygon fill-rule="evenodd" clip-rule="evenodd" fill="#212830" points="36.927,113.39 36.442,112.419 36.398,112.419  "/>
	
		<line fill="none" stroke="#212830" stroke-width="0.5" stroke-linecap="square" stroke-miterlimit="10" x1="36.442" y1="112.419" x2="36.398" y2="112.419"/>
	<polygon fill-rule="evenodd" clip-rule="evenodd" fill="#212830" points="37.457,114.362 36.927,113.39 36.398,112.419    32.779,114.406 33.309,115.376 33.838,116.347  "/>
	<polygon fill="none" stroke="#212830" stroke-width="0.5" stroke-linecap="square" stroke-miterlimit="10" points="37.457,114.362    36.927,113.39 36.398,112.419 32.779,114.406 33.309,115.376 33.838,116.347 37.457,114.362  "/>
	<polygon fill-rule="evenodd" clip-rule="evenodd" fill="#212830" points="33.309,115.376 32.779,114.406 32.735,114.406  "/>
	
		<line fill="none" stroke="#212830" stroke-width="0.5" stroke-linecap="square" stroke-miterlimit="10" x1="32.779" y1="114.406" x2="32.735" y2="114.406"/>
	<polygon fill-rule="evenodd" clip-rule="evenodd" fill="#212830" points="33.883,116.347 33.309,115.376 32.735,114.406    29.161,116.524 29.735,117.494 30.309,118.467  "/>
	<polygon fill="none" stroke="#212830" stroke-width="0.5" stroke-linecap="square" stroke-miterlimit="10" points="33.883,116.347    33.309,115.376 32.735,114.406 29.161,116.524 29.735,117.494 30.309,118.467 33.883,116.347  "/>
	<polygon fill-rule="evenodd" clip-rule="evenodd" fill="#212830" points="29.735,117.494 29.161,116.524 29.161,116.568  "/>
	
		<line fill="none" stroke="#212830" stroke-width="0.5" stroke-linecap="square" stroke-miterlimit="10" x1="29.161" y1="116.524" x2="29.161" y2="116.568"/>
	<polygon fill-rule="evenodd" clip-rule="evenodd" fill="#212830" points="30.309,118.422 29.735,117.494 29.161,116.568    25.675,118.775 26.249,119.701 26.822,120.629  "/>
	<polygon fill="none" stroke="#212830" stroke-width="0.5" stroke-linecap="square" stroke-miterlimit="10" points="30.309,118.422    29.735,117.494 29.161,116.568 25.675,118.775 26.249,119.701 26.822,120.629 30.309,118.422  "/>
	<polygon fill-rule="evenodd" clip-rule="evenodd" fill="#212830" points="26.249,119.701 26.822,120.629 26.514,120.762    26.161,120.805 25.852,120.717 25.543,120.541 25.322,120.275 25.189,119.967 25.146,119.613 25.234,119.305 25.41,118.996    25.675,118.775  "/>
	<polyline fill="none" stroke="#212830" stroke-width="0.5" stroke-linecap="square" stroke-miterlimit="10" points="   26.822,120.629 26.514,120.762 26.161,120.805 25.852,120.717 25.543,120.541 25.322,120.275 25.189,119.967 25.146,119.613    25.234,119.305 25.41,118.996 25.675,118.775  "/>
	<polygon fill-rule="evenodd" clip-rule="evenodd" fill="#212830" points="284.743,47.936 285.316,47.009 285.581,47.229    285.758,47.538 285.846,47.847 285.802,48.2 285.67,48.509 285.449,48.774 285.14,48.951 284.831,49.039 284.479,48.995    284.169,48.862  "/>
	<polyline fill="none" stroke="#212830" stroke-width="0.5" stroke-linecap="square" stroke-miterlimit="10" points="   285.316,47.009 285.581,47.229 285.758,47.538 285.846,47.847 285.802,48.2 285.67,48.509 285.449,48.774 285.14,48.951    284.831,49.039 284.479,48.995 284.169,48.862  "/>
	<polygon fill-rule="evenodd" clip-rule="evenodd" fill="#212830" points="284.169,48.862 284.743,47.936 285.316,47.009    281.83,44.802 281.257,45.729 280.684,46.656  "/>
	<polygon fill="none" stroke="#212830" stroke-width="0.5" stroke-linecap="square" stroke-miterlimit="10" points="284.169,48.862    284.743,47.936 285.316,47.009 281.83,44.802 281.257,45.729 280.684,46.656 284.169,48.862  "/>
	<polygon fill-rule="evenodd" clip-rule="evenodd" fill="#212830" points="281.257,45.729 281.83,44.802 281.83,44.758  "/>
	
		<line fill="none" stroke="#212830" stroke-width="0.5" stroke-linecap="square" stroke-miterlimit="10" x1="281.83" y1="44.802" x2="281.83" y2="44.758"/>
	<polygon fill-rule="evenodd" clip-rule="evenodd" fill="#212830" points="280.684,46.7 281.257,45.729 281.83,44.758    278.256,42.639 277.683,43.61 277.109,44.581  "/>
	<polygon fill="none" stroke="#212830" stroke-width="0.5" stroke-linecap="square" stroke-miterlimit="10" points="280.684,46.7    281.257,45.729 281.83,44.758 278.256,42.639 277.683,43.61 277.109,44.581 280.684,46.7  "/>
	<polygon fill-rule="evenodd" clip-rule="evenodd" fill="#212830" points="277.683,43.61 278.256,42.639 278.212,42.639  "/>
	
		<line fill="none" stroke="#212830" stroke-width="0.5" stroke-linecap="square" stroke-miterlimit="10" x1="278.256" y1="42.639" x2="278.212" y2="42.639"/>
	<polygon fill-rule="evenodd" clip-rule="evenodd" fill="#212830" points="277.153,44.581 277.683,43.61 278.212,42.639    274.594,40.653 274.064,41.624 273.534,42.595  "/>
	<polygon fill="none" stroke="#212830" stroke-width="0.5" stroke-linecap="square" stroke-miterlimit="10" points="277.153,44.581    277.683,43.61 278.212,42.639 274.594,40.653 274.064,41.624 273.534,42.595 277.153,44.581  "/>
	<polygon fill-rule="evenodd" clip-rule="evenodd" fill="#212830" points="274.064,41.624 274.594,40.653 274.594,40.653  "/>
	
		<line fill="none" stroke="#212830" stroke-width="0.5" stroke-linecap="square" stroke-miterlimit="10" x1="274.594" y1="40.653" x2="274.594" y2="40.653"/>
	<polygon fill-rule="evenodd" clip-rule="evenodd" fill="#212830" points="273.579,42.595 274.064,41.624 274.594,40.653    270.932,38.755 270.401,39.726 269.916,40.697  "/>
	<polygon fill="none" stroke="#212830" stroke-width="0.5" stroke-linecap="square" stroke-miterlimit="10" points="273.579,42.595    274.064,41.624 274.594,40.653 270.932,38.755 270.401,39.726 269.916,40.697 273.579,42.595  "/>
	<polygon fill-rule="evenodd" clip-rule="evenodd" fill="#212830" points="270.401,39.726 270.932,38.755 270.887,38.755  "/>
	
		<line fill="none" stroke="#212830" stroke-width="0.5" stroke-linecap="square" stroke-miterlimit="10" x1="270.932" y1="38.755" x2="270.887" y2="38.755"/>
	<polygon fill-rule="evenodd" clip-rule="evenodd" fill="#212830" points="269.916,40.697 270.401,39.726 270.887,38.755    267.181,36.945 266.695,37.917 266.21,38.888  "/>
	<polygon fill="none" stroke="#212830" stroke-width="0.5" stroke-linecap="square" stroke-miterlimit="10" points="269.916,40.697    270.401,39.726 270.887,38.755 267.181,36.945 266.695,37.917 266.21,38.888 269.916,40.697  "/>
	<polygon fill-rule="evenodd" clip-rule="evenodd" fill="#212830" points="266.695,37.917 267.181,36.945 267.137,36.901  "/>
	
		<line fill="none" stroke="#212830" stroke-width="0.5" stroke-linecap="square" stroke-miterlimit="10" x1="267.181" y1="36.945" x2="267.137" y2="36.901"/>
	<polygon fill-rule="evenodd" clip-rule="evenodd" fill="#212830" points="266.254,38.932 266.695,37.917 267.137,36.901    263.386,35.224 262.944,36.239 262.503,37.254  "/>
	<polygon fill="none" stroke="#212830" stroke-width="0.5" stroke-linecap="square" stroke-miterlimit="10" points="266.254,38.932    266.695,37.917 267.137,36.901 263.386,35.224 262.944,36.239 262.503,37.254 266.254,38.932  "/>
	<polygon fill-rule="evenodd" clip-rule="evenodd" fill="#212830" points="262.944,36.239 263.386,35.224 263.342,35.224  "/>
	
		<line fill="none" stroke="#212830" stroke-width="0.5" stroke-linecap="square" stroke-miterlimit="10" x1="263.386" y1="35.224" x2="263.342" y2="35.224"/>
	<polygon fill-rule="evenodd" clip-rule="evenodd" fill="#212830" points="262.547,37.254 262.944,36.239 263.342,35.224    259.502,33.679 259.105,34.694 258.708,35.709  "/>
	<polygon fill="none" stroke="#212830" stroke-width="0.5" stroke-linecap="square" stroke-miterlimit="10" points="262.547,37.254    262.944,36.239 263.342,35.224 259.502,33.679 259.105,34.694 258.708,35.709 262.547,37.254  "/>
	<polygon fill-rule="evenodd" clip-rule="evenodd" fill="#212830" points="259.105,34.694 259.502,33.679 259.502,33.679  "/>
	
		<line fill="none" stroke="#212830" stroke-width="0.5" stroke-linecap="square" stroke-miterlimit="10" x1="259.502" y1="33.679" x2="259.502" y2="33.679"/>
	<polygon fill-rule="evenodd" clip-rule="evenodd" fill="#212830" points="258.708,35.709 259.105,34.694 259.502,33.679    255.663,32.223 255.267,33.238 254.869,34.253  "/>
	<polygon fill="none" stroke="#212830" stroke-width="0.5" stroke-linecap="square" stroke-miterlimit="10" points="258.708,35.709    259.105,34.694 259.502,33.679 255.663,32.223 255.267,33.238 254.869,34.253 258.708,35.709  "/>
	<polygon fill-rule="evenodd" clip-rule="evenodd" fill="#212830" points="255.267,33.238 255.663,32.223 255.619,32.179  "/>
	
		<line fill="none" stroke="#212830" stroke-width="0.5" stroke-linecap="square" stroke-miterlimit="10" x1="255.663" y1="32.223" x2="255.619" y2="32.179"/>
	<polygon fill-rule="evenodd" clip-rule="evenodd" fill="#212830" points="254.913,34.297 255.267,33.238 255.619,32.179    251.736,30.811 251.383,31.87 251.03,32.929  "/>
	<polygon fill="none" stroke="#212830" stroke-width="0.5" stroke-linecap="square" stroke-miterlimit="10" points="254.913,34.297    255.267,33.238 255.619,32.179 251.736,30.811 251.383,31.87 251.03,32.929 254.913,34.297  "/>
	<polygon fill-rule="evenodd" clip-rule="evenodd" fill="#212830" points="251.383,31.87 251.736,30.811 251.692,30.811  "/>
	
		<line fill="none" stroke="#212830" stroke-width="0.5" stroke-linecap="square" stroke-miterlimit="10" x1="251.736" y1="30.811" x2="251.692" y2="30.811"/>
	<polygon fill-rule="evenodd" clip-rule="evenodd" fill="#212830" points="251.074,32.929 251.383,31.87 251.692,30.811    247.721,29.575 247.412,30.634 247.103,31.693  "/>
	<polygon fill="none" stroke="#212830" stroke-width="0.5" stroke-linecap="square" stroke-miterlimit="10" points="251.074,32.929    251.383,31.87 251.692,30.811 247.721,29.575 247.412,30.634 247.103,31.693 251.074,32.929  "/>
	<polygon fill-rule="evenodd" clip-rule="evenodd" fill="#212830" points="247.412,30.634 247.721,29.575 247.721,29.575  "/>
	
		<line fill="none" stroke="#212830" stroke-width="0.5" stroke-linecap="square" stroke-miterlimit="10" x1="247.721" y1="29.575" x2="247.721" y2="29.575"/>
	<polygon fill-rule="evenodd" clip-rule="evenodd" fill="#212830" points="247.103,31.693 247.412,30.634 247.721,29.575    243.793,28.471 243.484,29.53 243.176,30.59  "/>
	<polygon fill="none" stroke="#212830" stroke-width="0.5" stroke-linecap="square" stroke-miterlimit="10" points="247.103,31.693    247.412,30.634 247.721,29.575 243.793,28.471 243.484,29.53 243.176,30.59 247.103,31.693  "/>
	<polygon fill-rule="evenodd" clip-rule="evenodd" fill="#212830" points="243.484,29.53 243.793,28.471 243.749,28.471  "/>
	
		<line fill="none" stroke="#212830" stroke-width="0.5" stroke-linecap="square" stroke-miterlimit="10" x1="243.793" y1="28.471" x2="243.749" y2="28.471"/>
	<polygon fill-rule="evenodd" clip-rule="evenodd" fill="#212830" points="243.22,30.59 243.484,29.53 243.749,28.471    239.733,27.456 239.469,28.515 239.204,29.575  "/>
	<polygon fill="none" stroke="#212830" stroke-width="0.5" stroke-linecap="square" stroke-miterlimit="10" points="243.22,30.59    243.484,29.53 243.749,28.471 239.733,27.456 239.469,28.515 239.204,29.575 243.22,30.59  "/>
	<polygon fill-rule="evenodd" clip-rule="evenodd" fill="#212830" points="239.469,28.515 239.733,27.456 239.689,27.456  "/>
	
		<line fill="none" stroke="#212830" stroke-width="0.5" stroke-linecap="square" stroke-miterlimit="10" x1="239.733" y1="27.456" x2="239.689" y2="27.456"/>
	<polygon fill-rule="evenodd" clip-rule="evenodd" fill="#212830" points="239.248,29.575 239.469,28.515 239.689,27.456    235.674,26.573 235.453,27.633 235.232,28.692  "/>
	<polygon fill="none" stroke="#212830" stroke-width="0.5" stroke-linecap="square" stroke-miterlimit="10" points="239.248,29.575    239.469,28.515 239.689,27.456 235.674,26.573 235.453,27.633 235.232,28.692 239.248,29.575  "/>
	<polygon fill-rule="evenodd" clip-rule="evenodd" fill="#212830" points="235.453,27.633 235.674,26.573 235.674,26.529  "/>
	
		<line fill="none" stroke="#212830" stroke-width="0.5" stroke-linecap="square" stroke-miterlimit="10" x1="235.674" y1="26.573" x2="235.674" y2="26.529"/>
	<polygon fill-rule="evenodd" clip-rule="evenodd" fill="#212830" points="235.232,28.736 235.453,27.633 235.674,26.529    231.614,25.779 231.394,26.882 231.173,27.986  "/>
	<polygon fill="none" stroke="#212830" stroke-width="0.5" stroke-linecap="square" stroke-miterlimit="10" points="235.232,28.736    235.453,27.633 235.674,26.529 231.614,25.779 231.394,26.882 231.173,27.986 235.232,28.736  "/>
	<polygon fill-rule="evenodd" clip-rule="evenodd" fill="#212830" points="231.394,26.882 231.614,25.779 231.57,25.779  "/>
	
		<line fill="none" stroke="#212830" stroke-width="0.5" stroke-linecap="square" stroke-miterlimit="10" x1="231.614" y1="25.779" x2="231.57" y2="25.779"/>
	<polygon fill-rule="evenodd" clip-rule="evenodd" fill="#212830" points="231.217,27.986 231.394,26.882 231.57,25.779    227.511,25.117 227.334,26.22 227.157,27.324  "/>
	<polygon fill="none" stroke="#212830" stroke-width="0.5" stroke-linecap="square" stroke-miterlimit="10" points="231.217,27.986    231.394,26.882 231.57,25.779 227.511,25.117 227.334,26.22 227.157,27.324 231.217,27.986  "/>
	<polygon fill-rule="evenodd" clip-rule="evenodd" fill="#212830" points="227.334,26.22 227.511,25.117 227.467,25.117  "/>
	
		<line fill="none" stroke="#212830" stroke-width="0.5" stroke-linecap="square" stroke-miterlimit="10" x1="227.511" y1="25.117" x2="227.467" y2="25.117"/>
	<polygon fill-rule="evenodd" clip-rule="evenodd" fill="#212830" points="227.202,27.324 227.334,26.22 227.467,25.117    223.362,24.587 223.23,25.69 223.098,26.794  "/>
	<polygon fill="none" stroke="#212830" stroke-width="0.5" stroke-linecap="square" stroke-miterlimit="10" points="227.202,27.324    227.334,26.22 227.467,25.117 223.362,24.587 223.23,25.69 223.098,26.794 227.202,27.324  "/>
	<polygon fill-rule="evenodd" clip-rule="evenodd" fill="#212830" points="223.23,25.69 223.362,24.587 223.362,24.587  "/>
	
		<line fill="none" stroke="#212830" stroke-width="0.5" stroke-linecap="square" stroke-miterlimit="10" x1="223.362" y1="24.587" x2="223.362" y2="24.587"/>
	<polygon fill-rule="evenodd" clip-rule="evenodd" fill="#212830" points="223.098,26.794 223.23,25.69 223.362,24.587    219.259,24.146 219.126,25.249 218.994,26.353  "/>
	<polygon fill="none" stroke="#212830" stroke-width="0.5" stroke-linecap="square" stroke-miterlimit="10" points="223.098,26.794    223.23,25.69 223.362,24.587 219.259,24.146 219.126,25.249 218.994,26.353 223.098,26.794  "/>
	<polygon fill-rule="evenodd" clip-rule="evenodd" fill="#212830" points="219.126,25.249 219.259,24.146 219.215,24.146  "/>
	
		<line fill="none" stroke="#212830" stroke-width="0.5" stroke-linecap="square" stroke-miterlimit="10" x1="219.259" y1="24.146" x2="219.215" y2="24.146"/>
	<polygon fill-rule="evenodd" clip-rule="evenodd" fill="#212830" points="219.038,26.353 219.126,25.249 219.215,24.146    215.111,23.837 215.022,24.94 214.935,26.043  "/>
	<polygon fill="none" stroke="#212830" stroke-width="0.5" stroke-linecap="square" stroke-miterlimit="10" points="219.038,26.353    219.126,25.249 219.215,24.146 215.111,23.837 215.022,24.94 214.935,26.043 219.038,26.353  "/>
	<polygon fill-rule="evenodd" clip-rule="evenodd" fill="#212830" points="215.022,24.94 215.111,23.837 215.066,23.837  "/>
	
		<line fill="none" stroke="#212830" stroke-width="0.5" stroke-linecap="square" stroke-miterlimit="10" x1="215.111" y1="23.837" x2="215.066" y2="23.837"/>
	<polygon fill-rule="evenodd" clip-rule="evenodd" fill="#212830" points="214.979,26.043 215.022,24.94 215.066,23.837    210.919,23.66 210.875,24.764 210.831,25.867  "/>
	<polygon fill="none" stroke="#212830" stroke-width="0.5" stroke-linecap="square" stroke-miterlimit="10" points="214.979,26.043    215.022,24.94 215.066,23.837 210.919,23.66 210.875,24.764 210.831,25.867 214.979,26.043  "/>
	<polygon fill-rule="evenodd" clip-rule="evenodd" fill="#212830" points="210.875,24.764 210.919,23.66 210.875,23.66  "/>
	
		<line fill="none" stroke="#212830" stroke-width="0.5" stroke-linecap="square" stroke-miterlimit="10" x1="210.919" y1="23.66" x2="210.875" y2="23.66"/>
	<polygon fill-rule="evenodd" clip-rule="evenodd" fill="#212830" points="210.875,25.867 210.875,24.764 210.875,23.66    206.771,23.616 206.771,24.72 206.771,25.823  "/>
	<polygon fill="none" stroke="#212830" stroke-width="0.5" stroke-linecap="square" stroke-miterlimit="10" points="210.875,25.867    210.875,24.764 210.875,23.66 206.771,23.616 206.771,24.72 206.771,25.823 210.875,25.867  "/>
	<polygon fill-rule="evenodd" clip-rule="evenodd" fill="#212830" points="206.771,24.72 206.771,25.823 206.418,25.779    206.109,25.603 205.889,25.337 205.712,25.028 205.668,24.72 205.712,24.367 205.889,24.058 206.153,23.837 206.462,23.66    206.771,23.616  "/>
	<polyline fill="none" stroke="#212830" stroke-width="0.5" stroke-linecap="square" stroke-miterlimit="10" points="   206.771,25.823 206.418,25.779 206.109,25.603 205.889,25.337 205.712,25.028 205.668,24.72 205.712,24.367 205.889,24.058    206.153,23.837 206.462,23.66 206.771,23.616  "/>
	<polyline fill="none" stroke="#212830" stroke-width="0.5" stroke-linecap="square" stroke-miterlimit="10" points="   155.496,60.603 151.392,60.647 147.244,60.823 143.141,61.132 139.036,61.574 134.933,62.104 130.873,62.766 126.813,63.516    122.798,64.398 118.782,65.414 114.855,66.517 110.884,67.753 107.001,69.121 103.161,70.578 99.322,72.123 95.571,73.8    91.865,75.609 88.203,77.507 84.584,79.493 81.01,81.612 77.524,83.819  "/>
	<polygon fill-rule="evenodd" clip-rule="evenodd" fill="#212830" points="206.771,24.72 206.771,23.616 207.08,23.66    207.389,23.837 207.653,24.058 207.83,24.367 207.874,24.72 207.83,25.028 207.653,25.337 207.433,25.603 207.124,25.779    206.771,25.823  "/>
	<polyline fill="none" stroke="#212830" stroke-width="0.5" stroke-linecap="square" stroke-miterlimit="10" points="   206.771,23.616 207.08,23.66 207.389,23.837 207.653,24.058 207.83,24.367 207.874,24.72 207.83,25.028 207.653,25.337    207.433,25.603 207.124,25.779 206.771,25.823  "/>
	<polygon fill-rule="evenodd" clip-rule="evenodd" fill="#212830" points="206.771,25.823 206.771,24.72 206.771,23.616    202.667,23.66 202.667,24.764 202.667,25.867  "/>
	<polygon fill="none" stroke="#212830" stroke-width="0.5" stroke-linecap="square" stroke-miterlimit="10" points="206.771,25.823    206.771,24.72 206.771,23.616 202.667,23.66 202.667,24.764 202.667,25.867 206.771,25.823  "/>
	<polygon fill-rule="evenodd" clip-rule="evenodd" fill="#212830" points="202.667,24.764 202.667,23.66 202.623,23.66  "/>
	
		<line fill="none" stroke="#212830" stroke-width="0.5" stroke-linecap="square" stroke-miterlimit="10" x1="202.667" y1="23.66" x2="202.623" y2="23.66"/>
	<polygon fill-rule="evenodd" clip-rule="evenodd" fill="#212830" points="202.711,25.867 202.667,24.764 202.623,23.66    198.476,23.837 198.52,24.94 198.563,26.043  "/>
	<polygon fill="none" stroke="#212830" stroke-width="0.5" stroke-linecap="square" stroke-miterlimit="10" points="202.711,25.867    202.667,24.764 202.623,23.66 198.476,23.837 198.52,24.94 198.563,26.043 202.711,25.867  "/>
	<polygon fill-rule="evenodd" clip-rule="evenodd" fill="#212830" points="198.52,24.94 198.476,23.837 198.431,23.837  "/>
	
		<line fill="none" stroke="#212830" stroke-width="0.5" stroke-linecap="square" stroke-miterlimit="10" x1="198.476" y1="23.837" x2="198.431" y2="23.837"/>
	<polygon fill-rule="evenodd" clip-rule="evenodd" fill="#212830" points="198.607,26.043 198.52,24.94 198.431,23.837    194.327,24.146 194.415,25.249 194.504,26.353  "/>
	<polygon fill="none" stroke="#212830" stroke-width="0.5" stroke-linecap="square" stroke-miterlimit="10" points="198.607,26.043    198.52,24.94 198.431,23.837 194.327,24.146 194.415,25.249 194.504,26.353 198.607,26.043  "/>
	<polygon fill-rule="evenodd" clip-rule="evenodd" fill="#212830" points="194.415,25.249 194.327,24.146 194.283,24.146  "/>
	
		<line fill="none" stroke="#212830" stroke-width="0.5" stroke-linecap="square" stroke-miterlimit="10" x1="194.327" y1="24.146" x2="194.283" y2="24.146"/>
	<polygon fill-rule="evenodd" clip-rule="evenodd" fill="#212830" points="194.548,26.353 194.415,25.249 194.283,24.146    190.18,24.587 190.312,25.69 190.444,26.794  "/>
	<polygon fill="none" stroke="#212830" stroke-width="0.5" stroke-linecap="square" stroke-miterlimit="10" points="194.548,26.353    194.415,25.249 194.283,24.146 190.18,24.587 190.312,25.69 190.444,26.794 194.548,26.353  "/>
	<polygon fill-rule="evenodd" clip-rule="evenodd" fill="#212830" points="190.312,25.69 190.18,24.587 190.18,24.587  "/>
	
		<line fill="none" stroke="#212830" stroke-width="0.5" stroke-linecap="square" stroke-miterlimit="10" x1="190.18" y1="24.587" x2="190.18" y2="24.587"/>
	<polygon fill-rule="evenodd" clip-rule="evenodd" fill="#212830" points="190.444,26.794 190.312,25.69 190.18,24.587    186.075,25.117 186.208,26.22 186.341,27.324  "/>
	<polygon fill="none" stroke="#212830" stroke-width="0.5" stroke-linecap="square" stroke-miterlimit="10" points="190.444,26.794    190.312,25.69 190.18,24.587 186.075,25.117 186.208,26.22 186.341,27.324 190.444,26.794  "/>
	<polygon fill-rule="evenodd" clip-rule="evenodd" fill="#212830" points="186.208,26.22 186.075,25.117 186.031,25.117  "/>
	
		<line fill="none" stroke="#212830" stroke-width="0.5" stroke-linecap="square" stroke-miterlimit="10" x1="186.075" y1="25.117" x2="186.031" y2="25.117"/>
	<polygon fill-rule="evenodd" clip-rule="evenodd" fill="#212830" points="186.385,27.324 186.208,26.22 186.031,25.117    181.972,25.779 182.148,26.882 182.325,27.986  "/>
	<polygon fill="none" stroke="#212830" stroke-width="0.5" stroke-linecap="square" stroke-miterlimit="10" points="186.385,27.324    186.208,26.22 186.031,25.117 181.972,25.779 182.148,26.882 182.325,27.986 186.385,27.324  "/>
	<polygon fill-rule="evenodd" clip-rule="evenodd" fill="#212830" points="182.148,26.882 181.972,25.779 181.928,25.779  "/>
	
		<line fill="none" stroke="#212830" stroke-width="0.5" stroke-linecap="square" stroke-miterlimit="10" x1="181.972" y1="25.779" x2="181.928" y2="25.779"/>
	<polygon fill-rule="evenodd" clip-rule="evenodd" fill="#212830" points="182.369,27.986 182.148,26.882 181.928,25.779    177.868,26.529 178.089,27.633 178.31,28.736  "/>
	<polygon fill="none" stroke="#212830" stroke-width="0.5" stroke-linecap="square" stroke-miterlimit="10" points="182.369,27.986    182.148,26.882 181.928,25.779 177.868,26.529 178.089,27.633 178.31,28.736 182.369,27.986  "/>
	<polygon fill-rule="evenodd" clip-rule="evenodd" fill="#212830" points="178.089,27.633 177.868,26.529 177.868,26.573  "/>
	
		<line fill="none" stroke="#212830" stroke-width="0.5" stroke-linecap="square" stroke-miterlimit="10" x1="177.868" y1="26.529" x2="177.868" y2="26.573"/>
	<polygon fill-rule="evenodd" clip-rule="evenodd" fill="#212830" points="178.31,28.692 178.089,27.633 177.868,26.573    173.853,27.456 174.073,28.515 174.294,29.575  "/>
	<polygon fill="none" stroke="#212830" stroke-width="0.5" stroke-linecap="square" stroke-miterlimit="10" points="178.31,28.692    178.089,27.633 177.868,26.573 173.853,27.456 174.073,28.515 174.294,29.575 178.31,28.692  "/>
	<polygon fill-rule="evenodd" clip-rule="evenodd" fill="#212830" points="174.073,28.515 173.853,27.456 173.809,27.456  "/>
	
		<line fill="none" stroke="#212830" stroke-width="0.5" stroke-linecap="square" stroke-miterlimit="10" x1="173.853" y1="27.456" x2="173.809" y2="27.456"/>
	<polygon fill-rule="evenodd" clip-rule="evenodd" fill="#212830" points="174.338,29.575 174.073,28.515 173.809,27.456    169.793,28.471 170.058,29.53 170.322,30.59  "/>
	<polygon fill="none" stroke="#212830" stroke-width="0.5" stroke-linecap="square" stroke-miterlimit="10" points="174.338,29.575    174.073,28.515 173.809,27.456 169.793,28.471 170.058,29.53 170.322,30.59 174.338,29.575  "/>
	<polygon fill-rule="evenodd" clip-rule="evenodd" fill="#212830" points="170.058,29.53 169.793,28.471 169.749,28.471  "/>
	
		<line fill="none" stroke="#212830" stroke-width="0.5" stroke-linecap="square" stroke-miterlimit="10" x1="169.793" y1="28.471" x2="169.749" y2="28.471"/>
	<polygon fill-rule="evenodd" clip-rule="evenodd" fill="#212830" points="170.366,30.59 170.058,29.53 169.749,28.471    165.821,29.575 166.13,30.634 166.439,31.693  "/>
	<polygon fill="none" stroke="#212830" stroke-width="0.5" stroke-linecap="square" stroke-miterlimit="10" points="170.366,30.59    170.058,29.53 169.749,28.471 165.821,29.575 166.13,30.634 166.439,31.693 170.366,30.59  "/>
	<polygon fill-rule="evenodd" clip-rule="evenodd" fill="#212830" points="166.13,30.634 165.821,29.575 165.821,29.575  "/>
	
		<line fill="none" stroke="#212830" stroke-width="0.5" stroke-linecap="square" stroke-miterlimit="10" x1="165.821" y1="29.575" x2="165.821" y2="29.575"/>
	<polygon fill-rule="evenodd" clip-rule="evenodd" fill="#212830" points="166.439,31.693 166.13,30.634 165.821,29.575    161.85,30.811 162.159,31.87 162.468,32.929  "/>
	<polygon fill="none" stroke="#212830" stroke-width="0.5" stroke-linecap="square" stroke-miterlimit="10" points="166.439,31.693    166.13,30.634 165.821,29.575 161.85,30.811 162.159,31.87 162.468,32.929 166.439,31.693  "/>
	<polygon fill-rule="evenodd" clip-rule="evenodd" fill="#212830" points="162.159,31.87 161.85,30.811 161.806,30.811  "/>
	
		<line fill="none" stroke="#212830" stroke-width="0.5" stroke-linecap="square" stroke-miterlimit="10" x1="161.85" y1="30.811" x2="161.806" y2="30.811"/>
	<polygon fill-rule="evenodd" clip-rule="evenodd" fill="#212830" points="162.512,32.929 162.159,31.87 161.806,30.811    157.923,32.179 158.275,33.238 158.629,34.297  "/>
	<polygon fill="none" stroke="#212830" stroke-width="0.5" stroke-linecap="square" stroke-miterlimit="10" points="162.512,32.929    162.159,31.87 161.806,30.811 157.923,32.179 158.275,33.238 158.629,34.297 162.512,32.929  "/>
	<polygon fill-rule="evenodd" clip-rule="evenodd" fill="#212830" points="158.275,33.238 157.923,32.179 157.879,32.223  "/>
	
		<line fill="none" stroke="#212830" stroke-width="0.5" stroke-linecap="square" stroke-miterlimit="10" x1="157.923" y1="32.179" x2="157.879" y2="32.223"/>
	<polygon fill-rule="evenodd" clip-rule="evenodd" fill="#212830" points="158.673,34.253 158.275,33.238 157.879,32.223    154.04,33.679 154.437,34.694 154.834,35.709  "/>
	<polygon fill="none" stroke="#212830" stroke-width="0.5" stroke-linecap="square" stroke-miterlimit="10" points="158.673,34.253    158.275,33.238 157.879,32.223 154.04,33.679 154.437,34.694 154.834,35.709 158.673,34.253  "/>
	<polygon fill-rule="evenodd" clip-rule="evenodd" fill="#212830" points="154.437,34.694 154.04,33.679 154.04,33.679  "/>
	
		<line fill="none" stroke="#212830" stroke-width="0.5" stroke-linecap="square" stroke-miterlimit="10" x1="154.04" y1="33.679" x2="154.04" y2="33.679"/>
	<polygon fill-rule="evenodd" clip-rule="evenodd" fill="#212830" points="154.834,35.709 154.437,34.694 154.04,33.679    150.2,35.224 150.598,36.239 150.995,37.254  "/>
	<polygon fill="none" stroke="#212830" stroke-width="0.5" stroke-linecap="square" stroke-miterlimit="10" points="154.834,35.709    154.437,34.694 154.04,33.679 150.2,35.224 150.598,36.239 150.995,37.254 154.834,35.709  "/>
	<polygon fill-rule="evenodd" clip-rule="evenodd" fill="#212830" points="150.598,36.239 150.2,35.224 150.156,35.224  "/>
	
		<line fill="none" stroke="#212830" stroke-width="0.5" stroke-linecap="square" stroke-miterlimit="10" x1="150.2" y1="35.224" x2="150.156" y2="35.224"/>
	<polygon fill-rule="evenodd" clip-rule="evenodd" fill="#212830" points="151.039,37.254 150.598,36.239 150.156,35.224    146.405,36.901 146.847,37.917 147.288,38.932  "/>
	<polygon fill="none" stroke="#212830" stroke-width="0.5" stroke-linecap="square" stroke-miterlimit="10" points="151.039,37.254    150.598,36.239 150.156,35.224 146.405,36.901 146.847,37.917 147.288,38.932 151.039,37.254  "/>
	<polygon fill-rule="evenodd" clip-rule="evenodd" fill="#212830" points="146.847,37.917 146.405,36.901 146.361,36.945  "/>
	
		<line fill="none" stroke="#212830" stroke-width="0.5" stroke-linecap="square" stroke-miterlimit="10" x1="146.405" y1="36.901" x2="146.361" y2="36.945"/>
	<polygon fill-rule="evenodd" clip-rule="evenodd" fill="#212830" points="147.332,38.888 146.847,37.917 146.361,36.945    142.655,38.755 143.141,39.726 143.626,40.697  "/>
	<polygon fill="none" stroke="#212830" stroke-width="0.5" stroke-linecap="square" stroke-miterlimit="10" points="147.332,38.888    146.847,37.917 146.361,36.945 142.655,38.755 143.141,39.726 143.626,40.697 147.332,38.888  "/>
	<polygon fill-rule="evenodd" clip-rule="evenodd" fill="#212830" points="143.141,39.726 142.655,38.755 142.655,38.755  "/>
	
		<line fill="none" stroke="#212830" stroke-width="0.5" stroke-linecap="square" stroke-miterlimit="10" x1="142.655" y1="38.755" x2="142.655" y2="38.755"/>
	<polygon fill-rule="evenodd" clip-rule="evenodd" fill="#212830" points="143.67,40.697 143.141,39.726 142.655,38.755    138.992,40.653 139.478,41.624 140.007,42.595  "/>
	<polygon fill="none" stroke="#212830" stroke-width="0.5" stroke-linecap="square" stroke-miterlimit="10" points="143.67,40.697    143.141,39.726 142.655,38.755 138.992,40.653 139.478,41.624 140.007,42.595 143.67,40.697  "/>
	<polygon fill-rule="evenodd" clip-rule="evenodd" fill="#212830" points="139.478,41.624 138.992,40.653 138.948,40.653  "/>
	
		<line fill="none" stroke="#212830" stroke-width="0.5" stroke-linecap="square" stroke-miterlimit="10" x1="138.992" y1="40.653" x2="138.948" y2="40.653"/>
	<polygon fill-rule="evenodd" clip-rule="evenodd" fill="#212830" points="140.007,42.595 139.478,41.624 138.948,40.653    135.33,42.639 135.859,43.61 136.389,44.581  "/>
	<polygon fill="none" stroke="#212830" stroke-width="0.5" stroke-linecap="square" stroke-miterlimit="10" points="140.007,42.595    139.478,41.624 138.948,40.653 135.33,42.639 135.859,43.61 136.389,44.581 140.007,42.595  "/>
	<polygon fill-rule="evenodd" clip-rule="evenodd" fill="#212830" points="135.859,43.61 135.33,42.639 135.286,42.639  "/>
	
		<line fill="none" stroke="#212830" stroke-width="0.5" stroke-linecap="square" stroke-miterlimit="10" x1="135.33" y1="42.639" x2="135.286" y2="42.639"/>
	<polygon fill-rule="evenodd" clip-rule="evenodd" fill="#212830" points="136.433,44.581 135.859,43.61 135.286,42.639    131.712,44.758 132.285,45.729 132.858,46.7  "/>
	<polygon fill="none" stroke="#212830" stroke-width="0.5" stroke-linecap="square" stroke-miterlimit="10" points="136.433,44.581    135.859,43.61 135.286,42.639 131.712,44.758 132.285,45.729 132.858,46.7 136.433,44.581  "/>
	<polygon fill-rule="evenodd" clip-rule="evenodd" fill="#212830" points="132.285,45.729 131.712,44.758 131.712,44.802  "/>
	
		<line fill="none" stroke="#212830" stroke-width="0.5" stroke-linecap="square" stroke-miterlimit="10" x1="131.712" y1="44.758" x2="131.712" y2="44.802"/>
	<polygon fill-rule="evenodd" clip-rule="evenodd" fill="#212830" points="132.858,46.656 132.285,45.729 131.712,44.802    128.226,47.009 128.799,47.936 129.373,48.862  "/>
	<polygon fill="none" stroke="#212830" stroke-width="0.5" stroke-linecap="square" stroke-miterlimit="10" points="132.858,46.656    132.285,45.729 131.712,44.802 128.226,47.009 128.799,47.936 129.373,48.862 132.858,46.656  "/>
	<polygon fill-rule="evenodd" clip-rule="evenodd" fill="#212830" points="128.799,47.936 129.373,48.862 129.063,48.995    128.711,49.039 128.402,48.951 128.093,48.774 127.872,48.509 127.74,48.2 127.696,47.847 127.784,47.538 127.961,47.229    128.226,47.009  "/>
	<polyline fill="none" stroke="#212830" stroke-width="0.5" stroke-linecap="square" stroke-miterlimit="10" points="   129.373,48.862 129.063,48.995 128.711,49.039 128.402,48.951 128.093,48.774 127.872,48.509 127.74,48.2 127.696,47.847    127.784,47.538 127.961,47.229 128.226,47.009  "/>
	
		<line fill="none" stroke="#212830" stroke-width="0.5" stroke-linecap="square" stroke-miterlimit="10" x1="104.221" y1="96.486" x2="206.771" y2="24.72"/>
</g>
</svg>
