<?xml version="1.0" encoding="utf-8"?>
<!-- Generator: Adobe Illustrator 16.0.0, SVG Export Plug-In . SVG Version: 6.00 Build 0)  -->
<!DOCTYPE svg PUBLIC "-//W3C//DTD SVG 1.1//EN" "http://www.w3.org/Graphics/SVG/1.1/DTD/svg11.dtd">
<svg xmlns="http://www.w3.org/2000/svg" xmlns:xlink="http://www.w3.org/1999/xlink" version="1.1" id="图层_1" x="0px" y="0px" width="336.953px" height="210.687px" viewBox="0 0 336.953 210.687" xml:space="preserve">
<g>
	<g>
		<path fill="#212830" d="M13.124,176.22h6.882v0.27l-7.5,7.805h3.175c0.751,0,1.228-0.027,1.431-0.086    c0.202-0.059,0.388-0.18,0.558-0.369c0.169-0.188,0.359-0.527,0.569-1.018h0.401l-0.943,2.947h-7.055v-0.314l7.5-7.805H15.02    c-0.658,0-1.055,0.018-1.192,0.055c-0.202,0.043-0.403,0.156-0.601,0.342c-0.199,0.184-0.403,0.488-0.613,0.916h-0.412    L13.124,176.22z"/>
	</g>
	
		<line fill="none" stroke="#212830" stroke-width="0.5" stroke-linecap="square" stroke-miterlimit="10" x1="35.256" y1="148.919" x2="72.587" y2="148.919"/>
	
		<line fill="none" stroke="#212830" stroke-width="0.5" stroke-linecap="square" stroke-miterlimit="10" x1="7.236" y1="176.992" x2="35.256" y2="148.919"/>
	
		<line fill="none" stroke="#212830" stroke-width="0.5" stroke-linecap="square" stroke-miterlimit="10" x1="31.461" y1="53.938" x2="36.006" y2="53.319"/>
	
		<line fill="none" stroke="#212830" stroke-width="0.5" stroke-linecap="square" stroke-miterlimit="10" x1="42.67" y1="52.437" x2="47.126" y2="51.863"/>
	
		<line fill="none" stroke="#212830" stroke-width="0.5" stroke-linecap="square" stroke-miterlimit="10" x1="53.834" y1="50.936" x2="58.291" y2="50.362"/>
	
		<line fill="none" stroke="#212830" stroke-width="0.5" stroke-linecap="square" stroke-miterlimit="10" x1="64.998" y1="49.436" x2="69.455" y2="48.862"/>
	
		<line fill="none" stroke="#212830" stroke-width="0.5" stroke-linecap="square" stroke-miterlimit="10" x1="76.162" y1="47.979" x2="80.619" y2="47.361"/>
	
		<line fill="none" stroke="#212830" stroke-width="0.5" stroke-linecap="square" stroke-miterlimit="10" x1="87.326" y1="46.479" x2="91.783" y2="45.86"/>
	
		<line fill="none" stroke="#212830" stroke-width="0.5" stroke-linecap="square" stroke-miterlimit="10" x1="98.446" y1="44.978" x2="102.947" y2="44.36"/>
	
		<line fill="none" stroke="#212830" stroke-width="0.5" stroke-linecap="square" stroke-miterlimit="10" x1="109.61" y1="43.477" x2="114.067" y2="42.859"/>
	
		<line fill="none" stroke="#212830" stroke-width="0.5" stroke-linecap="square" stroke-miterlimit="10" x1="120.774" y1="41.977" x2="125.231" y2="41.402"/>
	
		<line fill="none" stroke="#212830" stroke-width="0.5" stroke-linecap="square" stroke-miterlimit="10" x1="131.938" y1="40.476" x2="136.395" y2="39.902"/>
	
		<line fill="none" stroke="#212830" stroke-width="0.5" stroke-linecap="square" stroke-miterlimit="10" x1="143.102" y1="38.975" x2="147.559" y2="38.401"/>
	
		<line fill="none" stroke="#212830" stroke-width="0.5" stroke-linecap="square" stroke-miterlimit="10" x1="154.222" y1="37.519" x2="158.723" y2="36.9"/>
	
		<line fill="none" stroke="#212830" stroke-width="0.5" stroke-linecap="square" stroke-miterlimit="10" x1="165.386" y1="36.018" x2="169.931" y2="35.4"/>
	<polygon fill-rule="evenodd" clip-rule="evenodd" fill="#212830" points="31.461,50.142 31.903,50.142 31.064,50.142  "/>
	<polygon fill-rule="evenodd" clip-rule="evenodd" fill="#212830" points="31.064,50.142 31.947,50.186 30.976,50.186  "/>
	<polygon fill-rule="evenodd" clip-rule="evenodd" fill="#212830" points="31.064,50.142 31.903,50.142 31.947,50.186  "/>
	<polygon fill-rule="evenodd" clip-rule="evenodd" fill="#212830" points="30.976,50.186 32.344,50.23 30.623,50.23  "/>
	<polygon fill-rule="evenodd" clip-rule="evenodd" fill="#212830" points="30.976,50.186 31.947,50.186 32.344,50.23  "/>
	<polygon fill-rule="evenodd" clip-rule="evenodd" fill="#212830" points="30.623,50.23 32.388,50.274 30.535,50.274  "/>
	<polygon fill-rule="evenodd" clip-rule="evenodd" fill="#212830" points="30.623,50.23 32.344,50.23 32.388,50.274  "/>
	<polygon fill-rule="evenodd" clip-rule="evenodd" fill="#212830" points="30.535,50.274 32.785,50.362 30.182,50.362  "/>
	<polygon fill-rule="evenodd" clip-rule="evenodd" fill="#212830" points="30.535,50.274 32.388,50.274 32.785,50.362  "/>
	<polygon fill-rule="evenodd" clip-rule="evenodd" fill="#212830" points="30.182,50.362 32.83,50.406 30.094,50.406  "/>
	<polygon fill-rule="evenodd" clip-rule="evenodd" fill="#212830" points="30.182,50.362 32.785,50.362 32.83,50.406  "/>
	<polygon fill-rule="evenodd" clip-rule="evenodd" fill="#212830" points="30.094,50.406 33.227,50.539 29.741,50.539  "/>
	<polygon fill-rule="evenodd" clip-rule="evenodd" fill="#212830" points="30.094,50.406 32.83,50.406 33.227,50.539  "/>
	<polygon fill-rule="evenodd" clip-rule="evenodd" fill="#212830" points="29.741,50.539 33.271,50.583 29.696,50.583  "/>
	<polygon fill-rule="evenodd" clip-rule="evenodd" fill="#212830" points="29.741,50.539 33.227,50.539 33.271,50.583  "/>
	<polygon fill-rule="evenodd" clip-rule="evenodd" fill="#212830" points="29.696,50.583 33.624,50.804 29.343,50.804  "/>
	<polygon fill-rule="evenodd" clip-rule="evenodd" fill="#212830" points="29.696,50.583 33.271,50.583 33.624,50.804  "/>
	<polygon fill-rule="evenodd" clip-rule="evenodd" fill="#212830" points="29.343,50.804 33.624,50.804 29.299,50.804  "/>
	<polygon fill-rule="evenodd" clip-rule="evenodd" fill="#212830" points="29.343,50.804 33.624,50.804 33.624,50.804  "/>
	<polygon fill-rule="evenodd" clip-rule="evenodd" fill="#212830" points="29.299,50.804 33.977,51.068 28.99,51.068  "/>
	<polygon fill-rule="evenodd" clip-rule="evenodd" fill="#212830" points="29.299,50.804 33.624,50.804 33.977,51.068  "/>
	<polygon fill-rule="evenodd" clip-rule="evenodd" fill="#212830" points="28.99,51.068 34.021,51.113 28.946,51.113  "/>
	<polygon fill-rule="evenodd" clip-rule="evenodd" fill="#212830" points="28.99,51.068 33.977,51.068 34.021,51.113  "/>
	<polygon fill-rule="evenodd" clip-rule="evenodd" fill="#212830" points="28.946,51.113 34.286,51.377 28.637,51.377  "/>
	<polygon fill-rule="evenodd" clip-rule="evenodd" fill="#212830" points="28.946,51.113 34.021,51.113 34.286,51.377  "/>
	<polygon fill-rule="evenodd" clip-rule="evenodd" fill="#212830" points="28.637,51.377 34.33,51.422 28.637,51.422  "/>
	<polygon fill-rule="evenodd" clip-rule="evenodd" fill="#212830" points="28.637,51.377 34.286,51.377 34.33,51.422  "/>
	<polygon fill-rule="evenodd" clip-rule="evenodd" fill="#212830" points="28.637,51.422 34.595,51.73 28.373,51.73  "/>
	<polygon fill-rule="evenodd" clip-rule="evenodd" fill="#212830" points="28.637,51.422 34.33,51.422 34.595,51.73  "/>
	<polygon fill-rule="evenodd" clip-rule="evenodd" fill="#212830" points="28.373,51.73 34.595,51.775 28.329,51.775  "/>
	<polygon fill-rule="evenodd" clip-rule="evenodd" fill="#212830" points="28.373,51.73 34.595,51.73 34.595,51.775  "/>
	<polygon fill-rule="evenodd" clip-rule="evenodd" fill="#212830" points="28.329,51.775 34.815,52.128 28.108,52.128  "/>
	<polygon fill-rule="evenodd" clip-rule="evenodd" fill="#212830" points="28.329,51.775 34.595,51.775 34.815,52.128  "/>
	<polygon fill-rule="evenodd" clip-rule="evenodd" fill="#212830" points="28.108,52.128 34.859,52.172 28.108,52.172  "/>
	<polygon fill-rule="evenodd" clip-rule="evenodd" fill="#212830" points="28.108,52.128 34.815,52.128 34.859,52.172  "/>
	<polygon fill-rule="evenodd" clip-rule="evenodd" fill="#212830" points="28.108,52.172 35.036,52.569 27.932,52.569  "/>
	<polygon fill-rule="evenodd" clip-rule="evenodd" fill="#212830" points="28.108,52.172 34.859,52.172 35.036,52.569  "/>
	<polygon fill-rule="evenodd" clip-rule="evenodd" fill="#212830" points="27.932,52.569 35.036,52.613 27.932,52.613  "/>
	<polygon fill-rule="evenodd" clip-rule="evenodd" fill="#212830" points="27.932,52.569 35.036,52.569 35.036,52.613  "/>
	<polygon fill-rule="evenodd" clip-rule="evenodd" fill="#212830" points="27.932,52.613 35.168,53.011 27.799,53.011  "/>
	<polygon fill-rule="evenodd" clip-rule="evenodd" fill="#212830" points="27.932,52.613 35.036,52.613 35.168,53.011  "/>
	<polygon fill-rule="evenodd" clip-rule="evenodd" fill="#212830" points="27.799,53.011 35.168,53.055 27.799,53.055  "/>
	<polygon fill-rule="evenodd" clip-rule="evenodd" fill="#212830" points="27.799,53.011 35.168,53.011 35.168,53.055  "/>
	<polygon fill-rule="evenodd" clip-rule="evenodd" fill="#212830" points="35.256,53.452 35.256,53.496 34.903,53.496  "/>
	<polygon fill-rule="evenodd" clip-rule="evenodd" fill="#212830" points="27.799,53.055 35.256,53.452 27.711,53.452  "/>
	<polygon fill-rule="evenodd" clip-rule="evenodd" fill="#212830" points="27.799,53.055 35.168,53.055 35.256,53.452  "/>
	<polygon fill-rule="evenodd" clip-rule="evenodd" fill="#212830" points="27.711,53.452 34.903,53.496 27.711,53.496  "/>
	<polygon fill-rule="evenodd" clip-rule="evenodd" fill="#212830" points="27.711,53.452 35.256,53.452 34.903,53.496  "/>
	<polygon fill-rule="evenodd" clip-rule="evenodd" fill="#212830" points="34.903,53.496 35.256,53.673 33.359,53.673  "/>
	<polygon fill-rule="evenodd" clip-rule="evenodd" fill="#212830" points="34.903,53.496 35.256,53.496 35.256,53.673  "/>
	<polygon fill-rule="evenodd" clip-rule="evenodd" fill="#212830" points="27.711,53.496 33.359,53.673 27.667,53.673  "/>
	<polygon fill-rule="evenodd" clip-rule="evenodd" fill="#212830" points="27.711,53.496 34.903,53.496 33.359,53.673  "/>
	<polygon fill-rule="evenodd" clip-rule="evenodd" fill="#212830" points="33.359,53.673 35.301,53.938 31.461,53.938  "/>
	<polygon fill-rule="evenodd" clip-rule="evenodd" fill="#212830" points="33.359,53.673 35.256,53.673 35.301,53.938  "/>
	<polygon fill-rule="evenodd" clip-rule="evenodd" fill="#212830" points="27.667,53.673 31.461,53.938 27.667,53.938  "/>
	<polygon fill-rule="evenodd" clip-rule="evenodd" fill="#212830" points="27.667,53.673 33.359,53.673 31.461,53.938  "/>
	<polygon fill-rule="evenodd" clip-rule="evenodd" fill="#212830" points="31.461,53.938 35.256,54.334 32.388,54.334  "/>
	<polygon fill-rule="evenodd" clip-rule="evenodd" fill="#212830" points="31.461,53.938 35.301,53.938 35.256,54.334  "/>
	<polygon fill-rule="evenodd" clip-rule="evenodd" fill="#212830" points="27.667,53.938 32.388,54.334 27.711,54.334  "/>
	<polygon fill-rule="evenodd" clip-rule="evenodd" fill="#212830" points="27.667,53.938 31.461,53.938 32.388,54.334  "/>
	<polygon fill-rule="evenodd" clip-rule="evenodd" fill="#212830" points="32.388,54.334 35.256,54.379 32.565,54.379  "/>
	<polygon fill-rule="evenodd" clip-rule="evenodd" fill="#212830" points="32.388,54.334 35.256,54.334 35.256,54.379  "/>
	<polygon fill-rule="evenodd" clip-rule="evenodd" fill="#212830" points="27.711,54.334 32.565,54.379 27.711,54.379  "/>
	<polygon fill-rule="evenodd" clip-rule="evenodd" fill="#212830" points="27.711,54.334 32.388,54.334 32.565,54.379  "/>
	<polygon fill-rule="evenodd" clip-rule="evenodd" fill="#212830" points="32.565,54.379 35.212,54.688 33.271,54.688  "/>
	<polygon fill-rule="evenodd" clip-rule="evenodd" fill="#212830" points="32.565,54.379 35.256,54.379 35.212,54.688  "/>
	<polygon fill-rule="evenodd" clip-rule="evenodd" fill="#212830" points="27.711,54.379 33.271,54.688 27.755,54.688  "/>
	<polygon fill-rule="evenodd" clip-rule="evenodd" fill="#212830" points="27.711,54.379 32.565,54.379 33.271,54.688  "/>
	<polygon fill-rule="evenodd" clip-rule="evenodd" fill="#212830" points="33.271,54.688 35.168,54.864 33.624,54.864  "/>
	<polygon fill-rule="evenodd" clip-rule="evenodd" fill="#212830" points="33.271,54.688 35.212,54.688 35.168,54.864  "/>
	<polygon fill-rule="evenodd" clip-rule="evenodd" fill="#212830" points="27.755,54.688 33.624,54.864 27.799,54.864  "/>
	<polygon fill-rule="evenodd" clip-rule="evenodd" fill="#212830" points="27.755,54.688 33.271,54.688 33.624,54.864  "/>
	<polygon fill-rule="evenodd" clip-rule="evenodd" fill="#212830" points="33.624,54.864 35.124,55.041 34.153,55.041  "/>
	<polygon fill-rule="evenodd" clip-rule="evenodd" fill="#212830" points="33.624,54.864 35.168,54.864 35.124,55.041  "/>
	<polygon fill-rule="evenodd" clip-rule="evenodd" fill="#212830" points="27.799,54.864 34.153,55.041 27.843,55.041  "/>
	<polygon fill-rule="evenodd" clip-rule="evenodd" fill="#212830" points="27.799,54.864 33.624,54.864 34.153,55.041  "/>
	<polygon fill-rule="evenodd" clip-rule="evenodd" fill="#212830" points="34.639,55.262 35.036,55.262 34.992,55.438  "/>
	<polygon fill-rule="evenodd" clip-rule="evenodd" fill="#212830" points="34.153,55.041 35.036,55.262 34.639,55.262  "/>
	<polygon fill-rule="evenodd" clip-rule="evenodd" fill="#212830" points="34.153,55.041 35.124,55.041 35.036,55.262  "/>
	<polygon fill-rule="evenodd" clip-rule="evenodd" fill="#212830" points="27.843,55.041 34.639,55.262 27.932,55.262  "/>
	<polygon fill-rule="evenodd" clip-rule="evenodd" fill="#212830" points="27.843,55.041 34.153,55.041 34.639,55.262  "/>
	<polygon fill-rule="evenodd" clip-rule="evenodd" fill="#212830" points="27.932,55.262 34.992,55.438 27.976,55.438  "/>
	<polygon fill-rule="evenodd" clip-rule="evenodd" fill="#212830" points="27.932,55.262 34.639,55.262 34.992,55.438  "/>
	<polygon fill-rule="evenodd" clip-rule="evenodd" fill="#212830" points="27.976,55.438 34.859,55.703 28.108,55.703  "/>
	<polygon fill-rule="evenodd" clip-rule="evenodd" fill="#212830" points="27.976,55.438 34.992,55.438 34.859,55.703  "/>
	<polygon fill-rule="evenodd" clip-rule="evenodd" fill="#212830" points="28.108,55.703 34.771,55.835 28.152,55.835  "/>
	<polygon fill-rule="evenodd" clip-rule="evenodd" fill="#212830" points="28.108,55.703 34.859,55.703 34.771,55.835  "/>
	<polygon fill-rule="evenodd" clip-rule="evenodd" fill="#212830" points="28.152,55.835 34.595,56.1 28.329,56.1  "/>
	<polygon fill-rule="evenodd" clip-rule="evenodd" fill="#212830" points="28.152,55.835 34.771,55.835 34.595,56.1  "/>
	<polygon fill-rule="evenodd" clip-rule="evenodd" fill="#212830" points="28.329,56.1 34.55,56.188 28.417,56.188  "/>
	<polygon fill-rule="evenodd" clip-rule="evenodd" fill="#212830" points="28.329,56.1 34.595,56.1 34.55,56.188  "/>
	<polygon fill-rule="evenodd" clip-rule="evenodd" fill="#212830" points="28.417,56.188 34.33,56.453 28.593,56.453  "/>
	<polygon fill-rule="evenodd" clip-rule="evenodd" fill="#212830" points="28.417,56.188 34.55,56.188 34.33,56.453  "/>
	<polygon fill-rule="evenodd" clip-rule="evenodd" fill="#212830" points="28.593,56.453 34.242,56.542 28.726,56.542  "/>
	<polygon fill-rule="evenodd" clip-rule="evenodd" fill="#212830" points="28.593,56.453 34.33,56.453 34.242,56.542  "/>
	<polygon fill-rule="evenodd" clip-rule="evenodd" fill="#212830" points="28.726,56.542 34.021,56.762 28.902,56.762  "/>
	<polygon fill-rule="evenodd" clip-rule="evenodd" fill="#212830" points="28.726,56.542 34.242,56.542 34.021,56.762  "/>
	<polygon fill-rule="evenodd" clip-rule="evenodd" fill="#212830" points="28.902,56.762 33.933,56.851 29.035,56.851  "/>
	<polygon fill-rule="evenodd" clip-rule="evenodd" fill="#212830" points="28.902,56.762 34.021,56.762 33.933,56.851  "/>
	<polygon fill-rule="evenodd" clip-rule="evenodd" fill="#212830" points="29.035,56.851 33.668,57.071 29.255,57.071  "/>
	<polygon fill-rule="evenodd" clip-rule="evenodd" fill="#212830" points="29.035,56.851 33.933,56.851 33.668,57.071  "/>
	<polygon fill-rule="evenodd" clip-rule="evenodd" fill="#212830" points="29.255,57.071 33.536,57.115 29.432,57.115  "/>
	<polygon fill-rule="evenodd" clip-rule="evenodd" fill="#212830" points="29.255,57.071 33.668,57.071 33.536,57.115  "/>
	<polygon fill-rule="evenodd" clip-rule="evenodd" fill="#212830" points="29.432,57.115 33.271,57.292 29.652,57.292  "/>
	<polygon fill-rule="evenodd" clip-rule="evenodd" fill="#212830" points="29.432,57.115 33.536,57.115 33.271,57.292  "/>
	<polygon fill-rule="evenodd" clip-rule="evenodd" fill="#212830" points="29.652,57.292 33.138,57.38 29.829,57.38  "/>
	<polygon fill-rule="evenodd" clip-rule="evenodd" fill="#212830" points="29.652,57.292 33.271,57.292 33.138,57.38  "/>
	<polygon fill-rule="evenodd" clip-rule="evenodd" fill="#212830" points="29.829,57.38 32.874,57.468 30.094,57.468  "/>
	<polygon fill-rule="evenodd" clip-rule="evenodd" fill="#212830" points="29.829,57.38 33.138,57.38 32.874,57.468  "/>
	<polygon fill-rule="evenodd" clip-rule="evenodd" fill="#212830" points="30.094,57.468 32.741,57.557 30.226,57.557  "/>
	<polygon fill-rule="evenodd" clip-rule="evenodd" fill="#212830" points="30.094,57.468 32.874,57.468 32.741,57.557  "/>
	<polygon fill-rule="evenodd" clip-rule="evenodd" fill="#212830" points="30.226,57.557 32.432,57.645 30.491,57.645  "/>
	<polygon fill-rule="evenodd" clip-rule="evenodd" fill="#212830" points="30.226,57.557 32.741,57.557 32.432,57.645  "/>
	<polygon fill-rule="evenodd" clip-rule="evenodd" fill="#212830" points="30.491,57.645 32.3,57.645 30.667,57.645  "/>
	<polygon fill-rule="evenodd" clip-rule="evenodd" fill="#212830" points="30.491,57.645 32.432,57.645 32.3,57.645  "/>
	<polygon fill-rule="evenodd" clip-rule="evenodd" fill="#212830" points="30.667,57.645 31.947,57.733 30.932,57.733  "/>
	<polygon fill-rule="evenodd" clip-rule="evenodd" fill="#212830" points="30.667,57.645 32.3,57.645 31.947,57.733  "/>
	<polygon fill-rule="evenodd" clip-rule="evenodd" fill="#212830" points="31.153,57.733 31.859,57.733 31.417,57.733  "/>
	<polygon fill-rule="evenodd" clip-rule="evenodd" fill="#212830" points="30.932,57.733 31.859,57.733 31.153,57.733  "/>
	<polygon fill-rule="evenodd" clip-rule="evenodd" fill="#212830" points="30.932,57.733 31.947,57.733 31.859,57.733  "/>
	<polygon fill="none" stroke="#212830" stroke-width="0.5" stroke-linecap="square" stroke-miterlimit="10" points="27.667,53.938    27.711,54.379 27.799,54.864 27.932,55.262 28.108,55.703 28.329,56.1 28.593,56.453 28.902,56.762 29.255,57.071 29.652,57.292    30.094,57.468 30.491,57.645 30.932,57.733 31.417,57.733 31.859,57.733 32.3,57.645 32.741,57.557 33.138,57.38 33.536,57.115    33.933,56.851 34.242,56.542 34.55,56.188 34.771,55.835 34.992,55.438 31.461,53.938 35.256,53.452 35.168,53.011 35.036,52.569    34.815,52.128 34.595,51.73 34.286,51.377 33.977,51.068 33.624,50.804 33.227,50.539 32.785,50.362 32.344,50.23 31.903,50.142    31.461,50.142 30.976,50.186 30.535,50.274 30.094,50.406 29.696,50.583 29.299,50.804 28.946,51.113 28.637,51.422 28.329,51.775    28.108,52.172 27.932,52.613 27.799,53.055 27.711,53.496 27.667,53.938  "/>
	<polygon fill="none" stroke="#212830" stroke-width="0.5" stroke-linecap="square" stroke-miterlimit="10" points="35.301,53.938    35.256,53.673 35.256,53.452 31.461,53.938 34.992,55.438 35.124,55.041 35.212,54.688 35.256,54.334 35.301,53.938  "/>
	<polygon fill="none" stroke="#212830" stroke-width="0.5" stroke-linecap="square" stroke-miterlimit="10" points="   327.949,176.726 327.905,176.064 327.728,175.447 327.463,174.873 327.111,174.343 326.669,173.857 326.139,173.503    325.566,173.195 324.948,173.019 324.331,172.929 323.668,172.974 323.05,173.107 322.433,173.328 321.904,173.681    321.417,174.078 321.021,174.607 320.712,175.181 320.492,175.755 320.359,176.417 320.359,177.035 320.492,177.697    320.712,178.271 321.021,178.845 321.417,179.375 321.904,179.771 322.433,180.125 323.05,180.345 323.668,180.478    324.331,180.521 324.948,180.433 325.566,180.257 326.139,179.949 326.669,179.595 327.111,179.109 327.463,178.58    327.728,178.005 327.905,177.388 327.949,176.726  "/>
	<polygon fill-rule="evenodd" clip-rule="evenodd" fill="#212830" points="177.565,111.536 178.271,111.58 177.433,111.58  "/>
	<polygon fill-rule="evenodd" clip-rule="evenodd" fill="#212830" points="177.433,111.58 178.712,111.668 176.859,111.668  "/>
	<polygon fill-rule="evenodd" clip-rule="evenodd" fill="#212830" points="177.433,111.58 178.271,111.58 178.712,111.668  "/>
	<polygon fill-rule="evenodd" clip-rule="evenodd" fill="#212830" points="176.859,111.668 178.977,111.712 176.683,111.712  "/>
	<polygon fill-rule="evenodd" clip-rule="evenodd" fill="#212830" points="176.859,111.668 178.712,111.668 178.977,111.712  "/>
	<polygon fill-rule="evenodd" clip-rule="evenodd" fill="#212830" points="176.683,111.712 179.418,111.889 176.197,111.889  "/>
	<polygon fill-rule="evenodd" clip-rule="evenodd" fill="#212830" points="176.683,111.712 178.977,111.712 179.418,111.889  "/>
	<polygon fill-rule="evenodd" clip-rule="evenodd" fill="#212830" points="176.197,111.889 179.639,111.978 176.021,111.978  "/>
	<polygon fill-rule="evenodd" clip-rule="evenodd" fill="#212830" points="176.197,111.889 179.418,111.889 179.639,111.978  "/>
	<polygon fill-rule="evenodd" clip-rule="evenodd" fill="#212830" points="176.021,111.978 180.036,112.242 175.579,112.242  "/>
	<polygon fill-rule="evenodd" clip-rule="evenodd" fill="#212830" points="176.021,111.978 179.639,111.978 180.036,112.242  "/>
	<polygon fill-rule="evenodd" clip-rule="evenodd" fill="#212830" points="175.579,112.242 180.212,112.375 175.403,112.375  "/>
	<polygon fill-rule="evenodd" clip-rule="evenodd" fill="#212830" points="175.579,112.242 180.036,112.242 180.212,112.375  "/>
	<polygon fill-rule="evenodd" clip-rule="evenodd" fill="#212830" points="175.403,112.375 180.565,112.728 175.05,112.728  "/>
	<polygon fill-rule="evenodd" clip-rule="evenodd" fill="#212830" points="175.403,112.375 180.212,112.375 180.565,112.728  "/>
	<polygon fill-rule="evenodd" clip-rule="evenodd" fill="#212830" points="175.05,112.728 180.742,112.904 174.917,112.904  "/>
	<polygon fill-rule="evenodd" clip-rule="evenodd" fill="#212830" points="175.05,112.728 180.565,112.728 180.742,112.904  "/>
	<polygon fill-rule="evenodd" clip-rule="evenodd" fill="#212830" points="174.917,112.904 181.007,113.301 174.608,113.301  "/>
	<polygon fill-rule="evenodd" clip-rule="evenodd" fill="#212830" points="174.917,112.904 180.742,112.904 181.007,113.301  "/>
	<polygon fill-rule="evenodd" clip-rule="evenodd" fill="#212830" points="174.608,113.301 181.139,113.478 174.52,113.478  "/>
	<polygon fill-rule="evenodd" clip-rule="evenodd" fill="#212830" points="174.608,113.301 181.007,113.301 181.139,113.478  "/>
	<polygon fill-rule="evenodd" clip-rule="evenodd" fill="#212830" points="174.52,113.478 181.316,113.919 174.255,113.919  "/>
	<polygon fill-rule="evenodd" clip-rule="evenodd" fill="#212830" points="174.52,113.478 181.139,113.478 181.316,113.919  "/>
	<polygon fill-rule="evenodd" clip-rule="evenodd" fill="#212830" points="174.255,113.919 181.404,114.14 174.211,114.14  "/>
	<polygon fill-rule="evenodd" clip-rule="evenodd" fill="#212830" points="174.255,113.919 181.316,113.919 181.404,114.14  "/>
	<polygon fill-rule="evenodd" clip-rule="evenodd" fill="#212830" points="174.211,114.14 181.537,114.625 174.079,114.625  "/>
	<polygon fill-rule="evenodd" clip-rule="evenodd" fill="#212830" points="174.211,114.14 181.404,114.14 181.537,114.625  "/>
	<polygon fill-rule="evenodd" clip-rule="evenodd" fill="#212830" points="181.581,114.846 181.625,115.332 177.786,115.332  "/>
	<polygon fill-rule="evenodd" clip-rule="evenodd" fill="#212830" points="174.079,114.625 181.581,114.846 174.035,114.846  "/>
	<polygon fill-rule="evenodd" clip-rule="evenodd" fill="#212830" points="174.079,114.625 181.537,114.625 181.581,114.846  "/>
	<polygon fill-rule="evenodd" clip-rule="evenodd" fill="#212830" points="174.035,114.846 177.786,115.332 173.991,115.332  "/>
	<polygon fill-rule="evenodd" clip-rule="evenodd" fill="#212830" points="174.035,114.846 181.581,114.846 177.786,115.332  "/>
	<polygon fill-rule="evenodd" clip-rule="evenodd" fill="#212830" points="177.786,115.332 181.581,115.861 179.021,115.861  "/>
	<polygon fill-rule="evenodd" clip-rule="evenodd" fill="#212830" points="177.786,115.332 181.625,115.332 181.581,115.861  "/>
	<polygon fill-rule="evenodd" clip-rule="evenodd" fill="#212830" points="173.991,115.332 179.021,115.861 174.035,115.861  "/>
	<polygon fill-rule="evenodd" clip-rule="evenodd" fill="#212830" points="173.991,115.332 177.786,115.332 179.021,115.861  "/>
	<polygon fill-rule="evenodd" clip-rule="evenodd" fill="#212830" points="179.021,115.861 181.537,116.082 179.595,116.082  "/>
	<polygon fill-rule="evenodd" clip-rule="evenodd" fill="#212830" points="179.021,115.861 181.581,115.861 181.537,116.082  "/>
	<polygon fill-rule="evenodd" clip-rule="evenodd" fill="#212830" points="174.035,115.861 179.595,116.082 174.079,116.082  "/>
	<polygon fill-rule="evenodd" clip-rule="evenodd" fill="#212830" points="174.035,115.861 179.021,115.861 179.595,116.082  "/>
	<polygon fill-rule="evenodd" clip-rule="evenodd" fill="#212830" points="179.595,116.082 181.492,116.347 180.168,116.347  "/>
	<polygon fill-rule="evenodd" clip-rule="evenodd" fill="#212830" points="179.595,116.082 181.537,116.082 181.492,116.347  "/>
	<polygon fill-rule="evenodd" clip-rule="evenodd" fill="#212830" points="174.079,116.082 180.168,116.347 174.167,116.347  "/>
	<polygon fill-rule="evenodd" clip-rule="evenodd" fill="#212830" points="174.079,116.082 179.595,116.082 180.168,116.347  "/>
	<polygon fill-rule="evenodd" clip-rule="evenodd" fill="#212830" points="181.271,116.788 181.316,116.788 181.316,116.833  "/>
	<polygon fill-rule="evenodd" clip-rule="evenodd" fill="#212830" points="180.168,116.347 181.316,116.788 181.271,116.788  "/>
	<polygon fill-rule="evenodd" clip-rule="evenodd" fill="#212830" points="180.168,116.347 181.492,116.347 181.316,116.788  "/>
	<polygon fill-rule="evenodd" clip-rule="evenodd" fill="#212830" points="174.167,116.347 181.271,116.788 174.3,116.788  "/>
	<polygon fill-rule="evenodd" clip-rule="evenodd" fill="#212830" points="174.167,116.347 180.168,116.347 181.271,116.788  "/>
	<polygon fill-rule="evenodd" clip-rule="evenodd" fill="#212830" points="174.3,116.788 181.316,116.833 174.3,116.833  "/>
	<polygon fill-rule="evenodd" clip-rule="evenodd" fill="#212830" points="174.3,116.788 181.271,116.788 181.316,116.833  "/>
	<polygon fill-rule="evenodd" clip-rule="evenodd" fill="#212830" points="174.3,116.833 180.963,117.45 174.653,117.45  "/>
	<polygon fill-rule="evenodd" clip-rule="evenodd" fill="#212830" points="174.3,116.833 181.316,116.833 180.963,117.45  "/>
	<polygon fill-rule="evenodd" clip-rule="evenodd" fill="#212830" points="174.653,117.45 180.963,117.45 174.653,117.45  "/>
	<polygon fill-rule="evenodd" clip-rule="evenodd" fill="#212830" points="174.653,117.45 180.963,117.45 180.963,117.45  "/>
	<polygon fill-rule="evenodd" clip-rule="evenodd" fill="#212830" points="174.653,117.45 180.478,118.024 175.094,118.024  "/>
	<polygon fill-rule="evenodd" clip-rule="evenodd" fill="#212830" points="174.653,117.45 180.963,117.45 180.478,118.024  "/>
	<polygon fill-rule="evenodd" clip-rule="evenodd" fill="#212830" points="175.094,118.024 180.478,118.024 175.138,118.024  "/>
	<polygon fill-rule="evenodd" clip-rule="evenodd" fill="#212830" points="175.094,118.024 180.478,118.024 180.478,118.024  "/>
	<polygon fill-rule="evenodd" clip-rule="evenodd" fill="#212830" points="175.138,118.024 179.904,118.51 175.667,118.51  "/>
	<polygon fill-rule="evenodd" clip-rule="evenodd" fill="#212830" points="175.138,118.024 180.478,118.024 179.904,118.51  "/>
	<polygon fill-rule="evenodd" clip-rule="evenodd" fill="#212830" points="175.667,118.51 179.904,118.51 175.711,118.51  "/>
	<polygon fill-rule="evenodd" clip-rule="evenodd" fill="#212830" points="175.667,118.51 179.904,118.51 179.904,118.51  "/>
	<polygon fill-rule="evenodd" clip-rule="evenodd" fill="#212830" points="175.711,118.51 179.286,118.863 176.33,118.863  "/>
	<polygon fill-rule="evenodd" clip-rule="evenodd" fill="#212830" points="175.711,118.51 179.904,118.51 179.286,118.863  "/>
	<polygon fill-rule="evenodd" clip-rule="evenodd" fill="#212830" points="176.33,118.863 179.242,118.863 176.374,118.863  "/>
	<polygon fill-rule="evenodd" clip-rule="evenodd" fill="#212830" points="176.33,118.863 179.286,118.863 179.242,118.863  "/>
	<polygon fill-rule="evenodd" clip-rule="evenodd" fill="#212830" points="176.374,118.863 178.536,119.083 177.036,119.083  "/>
	<polygon fill-rule="evenodd" clip-rule="evenodd" fill="#212830" points="176.374,118.863 179.242,118.863 178.536,119.083  "/>
	<polygon fill-rule="evenodd" clip-rule="evenodd" fill="#212830" points="177.08,119.083 178.536,119.083 177.786,119.127  "/>
	<polygon fill-rule="evenodd" clip-rule="evenodd" fill="#212830" points="177.036,119.083 178.536,119.083 177.08,119.083  "/>
	<polygon fill-rule="evenodd" clip-rule="evenodd" fill="#212830" points="177.036,119.083 178.536,119.083 178.536,119.083  "/>
	<polygon fill="none" stroke="#212830" stroke-width="0.5" stroke-linecap="square" stroke-miterlimit="10" points="   173.991,115.332 174.079,116.082 174.3,116.788 174.653,117.45 175.094,118.024 175.667,118.51 176.33,118.863 177.036,119.083    177.786,119.127 178.536,119.083 179.242,118.863 179.904,118.51 180.478,118.024 180.963,117.45 181.316,116.833 177.786,115.332    181.581,114.846 181.404,114.14 181.139,113.478 180.742,112.904 180.212,112.375 179.639,111.978 178.977,111.712 178.271,111.58    177.565,111.536 176.859,111.668 176.197,111.889 175.579,112.242 175.05,112.728 174.608,113.301 174.255,113.919    174.079,114.625 173.991,115.332  "/>
	<polygon fill="none" stroke="#212830" stroke-width="0.5" stroke-linecap="square" stroke-miterlimit="10" points="   181.625,115.332 181.581,114.846 177.786,115.332 181.316,116.833 181.492,116.347 181.581,115.861 181.625,115.332  "/>
	<g>
		<path fill="#212830" d="M184.209,14.699h-10.892l0.152-0.401c0.578-0.015,0.964-0.062,1.16-0.141    c0.303-0.13,0.527-0.3,0.672-0.509c0.224-0.333,0.462-0.933,0.715-1.8l2.59-8.943c0.217-0.737,0.325-1.279,0.325-1.626    c0-0.274-0.099-0.488-0.298-0.639c-0.199-0.152-0.573-0.228-1.122-0.228c-0.123,0-0.221-0.003-0.292-0.011L177.349,0h5.993    l-0.086,0.401c-0.672,0-1.149,0.065-1.431,0.195c-0.282,0.13-0.517,0.343-0.705,0.64c-0.13,0.195-0.343,0.802-0.64,1.821    l-2.547,8.792c-0.195,0.665-0.292,1.127-0.292,1.388c0,0.173,0.098,0.34,0.292,0.499c0.123,0.108,0.401,0.163,0.835,0.163h1.419    c1.033,0,1.854-0.13,2.46-0.39c0.448-0.195,0.859-0.488,1.235-0.878c0.202-0.217,0.56-0.755,1.073-1.615l0.282-0.488h0.401    L184.209,14.699z"/>
	</g>
	
		<line fill="none" stroke="#212830" stroke-width="0.5" stroke-linecap="square" stroke-miterlimit="10" x1="263.347" y1="149.935" x2="257.258" y2="149.935"/>
	
		<line fill="none" stroke="#212830" stroke-width="0.5" stroke-linecap="square" stroke-miterlimit="10" x1="95.666" y1="92.469" x2="161.194" y2="189.437"/>
	
		<line fill="none" stroke="#212830" stroke-width="0.5" stroke-linecap="square" stroke-miterlimit="10" x1="35.256" y1="148.919" x2="35.256" y2="103.635"/>
	<polygon fill-rule="evenodd" clip-rule="evenodd" fill="#212830" points="72.587,147.332 72.587,150.464 81.987,148.919  "/>
	<polygon fill="none" stroke="#212830" stroke-width="0.5" stroke-linecap="square" stroke-miterlimit="10" points="72.587,147.332    72.587,150.464 81.987,148.919 72.587,147.332  "/>
	
		<line fill="none" stroke="#212830" stroke-width="0.5" stroke-linecap="square" stroke-miterlimit="10" x1="31.461" y1="53.938" x2="324.154" y2="176.726"/>
	
		<line fill="none" stroke="#212830" stroke-width="0.5" stroke-linecap="square" stroke-miterlimit="10" x1="169.931" y1="35.4" x2="173.991" y2="39.107"/>
	
		<line fill="none" stroke="#212830" stroke-width="0.5" stroke-linecap="square" stroke-miterlimit="10" x1="178.933" y1="43.698" x2="182.287" y2="46.743"/>
	
		<line fill="none" stroke="#212830" stroke-width="0.5" stroke-linecap="square" stroke-miterlimit="10" x1="187.273" y1="51.289" x2="190.583" y2="54.334"/>
	
		<line fill="none" stroke="#212830" stroke-width="0.5" stroke-linecap="square" stroke-miterlimit="10" x1="195.569" y1="58.881" x2="198.878" y2="61.926"/>
	
		<line fill="none" stroke="#212830" stroke-width="0.5" stroke-linecap="square" stroke-miterlimit="10" x1="203.865" y1="66.517" x2="207.174" y2="69.562"/>
	
		<line fill="none" stroke="#212830" stroke-width="0.5" stroke-linecap="square" stroke-miterlimit="10" x1="212.16" y1="74.108" x2="215.47" y2="77.153"/>
	
		<line fill="none" stroke="#212830" stroke-width="0.5" stroke-linecap="square" stroke-miterlimit="10" x1="220.456" y1="81.744" x2="223.766" y2="84.745"/>
	
		<line fill="none" stroke="#212830" stroke-width="0.5" stroke-linecap="square" stroke-miterlimit="10" x1="228.752" y1="89.335" x2="232.062" y2="92.38"/>
	
		<line fill="none" stroke="#212830" stroke-width="0.5" stroke-linecap="square" stroke-miterlimit="10" x1="237.048" y1="96.927" x2="240.401" y2="99.972"/>
	
		<line fill="none" stroke="#212830" stroke-width="0.5" stroke-linecap="square" stroke-miterlimit="10" x1="245.344" y1="104.563" x2="248.697" y2="107.608"/>
	
		<line fill="none" stroke="#212830" stroke-width="0.5" stroke-linecap="square" stroke-miterlimit="10" x1="253.684" y1="112.154" x2="256.993" y2="115.199"/>
	
		<line fill="none" stroke="#212830" stroke-width="0.5" stroke-linecap="square" stroke-miterlimit="10" x1="261.979" y1="119.745" x2="265.289" y2="122.791"/>
	
		<line fill="none" stroke="#212830" stroke-width="0.5" stroke-linecap="square" stroke-miterlimit="10" x1="270.275" y1="127.38" x2="273.584" y2="130.427"/>
	
		<line fill="none" stroke="#212830" stroke-width="0.5" stroke-linecap="square" stroke-miterlimit="10" x1="278.571" y1="134.972" x2="281.88" y2="138.017"/>
	
		<line fill="none" stroke="#212830" stroke-width="0.5" stroke-linecap="square" stroke-miterlimit="10" x1="286.867" y1="142.564" x2="290.176" y2="145.609"/>
	
		<line fill="none" stroke="#212830" stroke-width="0.5" stroke-linecap="square" stroke-miterlimit="10" x1="295.163" y1="150.201" x2="298.516" y2="153.246"/>
	
		<line fill="none" stroke="#212830" stroke-width="0.5" stroke-linecap="square" stroke-miterlimit="10" x1="303.458" y1="157.791" x2="306.812" y2="160.837"/>
	
		<line fill="none" stroke="#212830" stroke-width="0.5" stroke-linecap="square" stroke-miterlimit="10" x1="311.798" y1="165.427" x2="315.108" y2="168.472"/>
	
		<line fill="none" stroke="#212830" stroke-width="0.5" stroke-linecap="square" stroke-miterlimit="10" x1="320.094" y1="173.019" x2="324.154" y2="176.726"/>
	<polygon fill-rule="evenodd" clip-rule="evenodd" fill="#212830" points="169.667,31.604 170.373,31.604 169.534,31.604  "/>
	<polygon fill-rule="evenodd" clip-rule="evenodd" fill="#212830" points="169.534,31.604 170.813,31.737 168.96,31.737  "/>
	<polygon fill-rule="evenodd" clip-rule="evenodd" fill="#212830" points="169.534,31.604 170.373,31.604 170.813,31.737  "/>
	<polygon fill-rule="evenodd" clip-rule="evenodd" fill="#212830" points="168.96,31.737 171.079,31.781 168.784,31.781  "/>
	<polygon fill-rule="evenodd" clip-rule="evenodd" fill="#212830" points="168.96,31.737 170.813,31.737 171.079,31.781  "/>
	<polygon fill-rule="evenodd" clip-rule="evenodd" fill="#212830" points="168.784,31.781 171.52,31.958 168.298,31.958  "/>
	<polygon fill-rule="evenodd" clip-rule="evenodd" fill="#212830" points="168.784,31.781 171.079,31.781 171.52,31.958  "/>
	<polygon fill-rule="evenodd" clip-rule="evenodd" fill="#212830" points="168.298,31.958 171.74,32.045 168.122,32.045  "/>
	<polygon fill-rule="evenodd" clip-rule="evenodd" fill="#212830" points="168.298,31.958 171.52,31.958 171.74,32.045  "/>
	<polygon fill-rule="evenodd" clip-rule="evenodd" fill="#212830" points="168.122,32.045 172.137,32.311 167.681,32.311  "/>
	<polygon fill-rule="evenodd" clip-rule="evenodd" fill="#212830" points="168.122,32.045 171.74,32.045 172.137,32.311  "/>
	<polygon fill-rule="evenodd" clip-rule="evenodd" fill="#212830" points="167.681,32.311 172.314,32.443 167.548,32.443  "/>
	<polygon fill-rule="evenodd" clip-rule="evenodd" fill="#212830" points="167.681,32.311 172.137,32.311 172.314,32.443  "/>
	<polygon fill-rule="evenodd" clip-rule="evenodd" fill="#212830" points="167.548,32.443 172.667,32.796 167.151,32.796  "/>
	<polygon fill-rule="evenodd" clip-rule="evenodd" fill="#212830" points="167.548,32.443 172.314,32.443 172.667,32.796  "/>
	<polygon fill-rule="evenodd" clip-rule="evenodd" fill="#212830" points="167.151,32.796 172.843,32.973 167.019,32.973  "/>
	<polygon fill-rule="evenodd" clip-rule="evenodd" fill="#212830" points="167.151,32.796 172.667,32.796 172.843,32.973  "/>
	<polygon fill-rule="evenodd" clip-rule="evenodd" fill="#212830" points="167.019,32.973 173.108,33.37 166.71,33.37  "/>
	<polygon fill-rule="evenodd" clip-rule="evenodd" fill="#212830" points="167.019,32.973 172.843,32.973 173.108,33.37  "/>
	<polygon fill-rule="evenodd" clip-rule="evenodd" fill="#212830" points="166.71,33.37 173.241,33.546 166.622,33.546  "/>
	<polygon fill-rule="evenodd" clip-rule="evenodd" fill="#212830" points="166.71,33.37 173.108,33.37 173.241,33.546  "/>
	<polygon fill-rule="evenodd" clip-rule="evenodd" fill="#212830" points="166.622,33.546 173.417,33.988 166.357,33.988  "/>
	<polygon fill-rule="evenodd" clip-rule="evenodd" fill="#212830" points="166.622,33.546 173.241,33.546 173.417,33.988  "/>
	<polygon fill-rule="evenodd" clip-rule="evenodd" fill="#212830" points="166.357,33.988 173.505,34.208 166.313,34.208  "/>
	<polygon fill-rule="evenodd" clip-rule="evenodd" fill="#212830" points="166.357,33.988 173.417,33.988 173.505,34.208  "/>
	<polygon fill-rule="evenodd" clip-rule="evenodd" fill="#212830" points="166.313,34.208 173.638,34.694 166.18,34.694  "/>
	<polygon fill-rule="evenodd" clip-rule="evenodd" fill="#212830" points="166.313,34.208 173.505,34.208 173.638,34.694  "/>
	<polygon fill-rule="evenodd" clip-rule="evenodd" fill="#212830" points="173.682,34.915 173.726,35.4 169.931,35.4  "/>
	<polygon fill-rule="evenodd" clip-rule="evenodd" fill="#212830" points="166.18,34.694 173.682,34.915 166.136,34.915  "/>
	<polygon fill-rule="evenodd" clip-rule="evenodd" fill="#212830" points="166.18,34.694 173.638,34.694 173.682,34.915  "/>
	<polygon fill-rule="evenodd" clip-rule="evenodd" fill="#212830" points="166.136,34.915 169.931,35.4 166.092,35.4  "/>
	<polygon fill-rule="evenodd" clip-rule="evenodd" fill="#212830" points="166.136,34.915 173.682,34.915 169.931,35.4  "/>
	<polygon fill-rule="evenodd" clip-rule="evenodd" fill="#212830" points="169.931,35.4 173.682,35.885 171.123,35.885  "/>
	<polygon fill-rule="evenodd" clip-rule="evenodd" fill="#212830" points="169.931,35.4 173.726,35.4 173.682,35.885  "/>
	<polygon fill-rule="evenodd" clip-rule="evenodd" fill="#212830" points="166.092,35.4 171.123,35.885 166.18,35.885  "/>
	<polygon fill-rule="evenodd" clip-rule="evenodd" fill="#212830" points="166.092,35.4 169.931,35.4 171.123,35.885  "/>
	<polygon fill-rule="evenodd" clip-rule="evenodd" fill="#212830" points="171.123,35.885 173.638,36.15 171.696,36.15  "/>
	<polygon fill-rule="evenodd" clip-rule="evenodd" fill="#212830" points="171.123,35.885 173.682,35.885 173.638,36.15  "/>
	<polygon fill-rule="evenodd" clip-rule="evenodd" fill="#212830" points="166.18,35.885 171.696,36.15 166.18,36.15  "/>
	<polygon fill-rule="evenodd" clip-rule="evenodd" fill="#212830" points="166.18,35.885 171.123,35.885 171.696,36.15  "/>
	<polygon fill-rule="evenodd" clip-rule="evenodd" fill="#212830" points="171.696,36.15 173.594,36.415 172.27,36.415  "/>
	<polygon fill-rule="evenodd" clip-rule="evenodd" fill="#212830" points="171.696,36.15 173.638,36.15 173.594,36.415  "/>
	<polygon fill-rule="evenodd" clip-rule="evenodd" fill="#212830" points="166.18,36.15 172.27,36.415 166.269,36.415  "/>
	<polygon fill-rule="evenodd" clip-rule="evenodd" fill="#212830" points="166.18,36.15 171.696,36.15 172.27,36.415  "/>
	<polygon fill-rule="evenodd" clip-rule="evenodd" fill="#212830" points="173.373,36.856 173.417,36.856 173.417,36.856  "/>
	<polygon fill-rule="evenodd" clip-rule="evenodd" fill="#212830" points="172.27,36.415 173.417,36.856 173.373,36.856  "/>
	<polygon fill-rule="evenodd" clip-rule="evenodd" fill="#212830" points="172.27,36.415 173.594,36.415 173.417,36.856  "/>
	<polygon fill-rule="evenodd" clip-rule="evenodd" fill="#212830" points="166.269,36.415 173.373,36.856 166.401,36.856  "/>
	<polygon fill-rule="evenodd" clip-rule="evenodd" fill="#212830" points="166.269,36.415 172.27,36.415 173.373,36.856  "/>
	<polygon fill-rule="evenodd" clip-rule="evenodd" fill="#212830" points="166.401,36.856 173.417,36.856 166.401,36.856  "/>
	<polygon fill-rule="evenodd" clip-rule="evenodd" fill="#212830" points="166.401,36.856 173.373,36.856 173.417,36.856  "/>
	<polygon fill-rule="evenodd" clip-rule="evenodd" fill="#212830" points="166.401,36.856 173.064,37.519 166.754,37.519  "/>
	<polygon fill-rule="evenodd" clip-rule="evenodd" fill="#212830" points="166.401,36.856 173.417,36.856 173.064,37.519  "/>
	<polygon fill-rule="evenodd" clip-rule="evenodd" fill="#212830" points="166.754,37.519 173.064,37.519 166.754,37.519  "/>
	<polygon fill-rule="evenodd" clip-rule="evenodd" fill="#212830" points="166.754,37.519 173.064,37.519 173.064,37.519  "/>
	<polygon fill-rule="evenodd" clip-rule="evenodd" fill="#212830" points="166.754,37.519 172.623,38.092 167.239,38.092  "/>
	<polygon fill-rule="evenodd" clip-rule="evenodd" fill="#212830" points="166.754,37.519 173.064,37.519 172.623,38.092  "/>
	<polygon fill-rule="evenodd" clip-rule="evenodd" fill="#212830" points="167.239,38.092 172.579,38.092 167.239,38.092  "/>
	<polygon fill-rule="evenodd" clip-rule="evenodd" fill="#212830" points="167.239,38.092 172.623,38.092 172.579,38.092  "/>
	<polygon fill-rule="evenodd" clip-rule="evenodd" fill="#212830" points="167.239,38.092 172.049,38.578 167.813,38.578  "/>
	<polygon fill-rule="evenodd" clip-rule="evenodd" fill="#212830" points="167.239,38.092 172.579,38.092 172.049,38.578  "/>
	<polygon fill-rule="evenodd" clip-rule="evenodd" fill="#212830" points="167.813,38.578 172.005,38.578 167.813,38.578  "/>
	<polygon fill-rule="evenodd" clip-rule="evenodd" fill="#212830" points="167.813,38.578 172.049,38.578 172.005,38.578  "/>
	<polygon fill-rule="evenodd" clip-rule="evenodd" fill="#212830" points="167.813,38.578 171.387,38.931 168.431,38.931  "/>
	<polygon fill-rule="evenodd" clip-rule="evenodd" fill="#212830" points="167.813,38.578 172.005,38.578 171.387,38.931  "/>
	<polygon fill-rule="evenodd" clip-rule="evenodd" fill="#212830" points="168.431,38.931 171.343,38.931 168.475,38.931  "/>
	<polygon fill-rule="evenodd" clip-rule="evenodd" fill="#212830" points="168.431,38.931 171.387,38.931 171.343,38.931  "/>
	<polygon fill-rule="evenodd" clip-rule="evenodd" fill="#212830" points="168.475,38.931 170.637,39.151 169.181,39.151  "/>
	<polygon fill-rule="evenodd" clip-rule="evenodd" fill="#212830" points="168.475,38.931 171.343,38.931 170.637,39.151  "/>
	<polygon fill-rule="evenodd" clip-rule="evenodd" fill="#212830" points="169.181,39.151 170.637,39.151 169.887,39.196  "/>
	<polygon fill-rule="evenodd" clip-rule="evenodd" fill="#212830" points="169.181,39.151 170.637,39.151 169.181,39.151  "/>
	<polygon fill-rule="evenodd" clip-rule="evenodd" fill="#212830" points="169.181,39.151 170.637,39.151 170.637,39.151  "/>
	<polygon fill="none" stroke="#212830" stroke-width="0.5" stroke-linecap="square" stroke-miterlimit="10" points="166.092,35.4    166.18,36.15 166.401,36.856 166.754,37.519 167.239,38.092 167.813,38.578 168.431,38.931 169.181,39.151 169.887,39.196    170.637,39.151 171.343,38.931 172.005,38.578 172.579,38.092 173.064,37.519 173.417,36.856 169.931,35.4 173.682,34.915    173.505,34.208 173.241,33.546 172.843,32.973 172.314,32.443 171.74,32.045 171.079,31.781 170.373,31.604 169.667,31.604    168.96,31.737 168.298,31.958 167.681,32.311 167.151,32.796 166.71,33.37 166.357,33.988 166.18,34.694 166.092,35.4  "/>
	<polygon fill="none" stroke="#212830" stroke-width="0.5" stroke-linecap="square" stroke-miterlimit="10" points="173.726,35.4    173.682,34.915 169.931,35.4 173.417,36.856 173.594,36.415 173.682,35.885 173.726,35.4  "/>
	<polygon fill="none" stroke="#212830" stroke-width="0.5" stroke-linecap="square" stroke-miterlimit="10" points="   181.581,115.332 181.537,114.669 181.36,114.052 181.095,113.478 180.742,112.948 180.301,112.463 179.771,112.11 179.198,111.801    178.58,111.624 177.962,111.536 177.3,111.58 176.683,111.712 176.065,111.933 175.535,112.286 175.05,112.684 174.653,113.213    174.344,113.787 174.123,114.361 173.991,115.022 173.991,115.641 174.123,116.303 174.344,116.876 174.653,117.45 175.05,117.98    175.535,118.377 176.065,118.73 176.683,118.951 177.3,119.083 177.962,119.127 178.58,119.039 179.198,118.863 179.771,118.554    180.301,118.201 180.742,117.715 181.095,117.186 181.36,116.612 181.537,115.994 181.581,115.332  "/>
	<g>
		<path fill="#212830" d="M124.112,198.939h11.628l0.701-0.701l0.994,1.053h-11.395c-0.507,0-0.975,0.059-1.403,0.176    L124.112,198.939z M133.111,209.226c0.973,0.117,1.578,0.186,1.812,0.205c0.233,0.02,0.351-0.127,0.351-0.439v-4.559h-9.291v5.67    l-0.818,0.41c0.038-1.17,0.058-2.328,0.058-3.479c0-1.148-0.02-2.309-0.058-3.479l0.818,0.527h9.232l0.584-0.584l0.818,0.816    l-0.526,0.352v4.559c0,0.389-0.059,0.691-0.175,0.906c-0.117,0.213-0.39,0.398-0.818,0.555c-0.156-0.545-0.818-0.955-1.987-1.227    V209.226z M127.092,203.5c0.038-0.623,0.058-1.229,0.058-1.813s-0.02-1.17-0.058-1.754l0.935,0.469h4.909l0.526-0.527l0.76,0.76    l-0.409,0.293c0,0.936,0.019,1.656,0.059,2.162l-0.818,0.293v-0.643h-5.083v0.408L127.092,203.5z M132.994,206.07    c0,0.936,0.02,1.773,0.059,2.514l-0.818,0.352v-0.818h-3.506v0.525l-0.818,0.408c0.039-0.662,0.059-1.324,0.059-1.986    s-0.02-1.324-0.059-1.986l0.818,0.408h3.389l0.526-0.525l0.76,0.76L132.994,206.07z M127.969,200.751v1.637h5.083v-1.637H127.969z     M128.728,205.837v1.928h3.506v-1.928H128.728z M129.254,197.011l0.058-0.176c0.623,0.234,1.052,0.439,1.286,0.613    c0.234,0.176,0.36,0.381,0.38,0.615c0.019,0.232-0.068,0.447-0.263,0.643c-0.195,0.195-0.371,0.078-0.526-0.352    C130.033,197.927,129.722,197.478,129.254,197.011z"/>
		<path fill="#212830" d="M140.941,197.07l1.286,0.584l-0.468,0.41v1.461h2.221c0-0.779-0.02-1.637-0.059-2.572l1.286,0.584    l-0.467,0.352v1.637h0.409l0.584-0.586l0.935,0.936h-1.928v5.729h0.292l0.643-0.643l0.994,0.992h-6.954l-0.526,0.117l-0.468-0.467    H141v-5.729h-0.994l-0.467,0.117l-0.468-0.467H141C141,198.746,140.979,197.927,140.941,197.07z M141.642,206.539l0.993,0.877    c-0.273,0.078-0.721,0.457-1.344,1.139c-0.624,0.682-1.364,1.295-2.221,1.842l-0.117-0.176    C140.2,209.091,141.096,207.863,141.642,206.539z M141.759,199.875v1.578h2.221v-1.578H141.759z M141.759,201.804v1.752h2.221    v-1.752H141.759z M141.759,203.908v1.695h2.221v-1.695H141.759z M143.512,206.48c0.935,0.506,1.509,0.906,1.724,1.197    c0.213,0.293,0.213,0.643,0,1.053c-0.215,0.408-0.429,0.32-0.643-0.264c-0.214-0.584-0.613-1.188-1.198-1.813L143.512,206.48z     M149.823,210.628c0.039-2.221,0.059-4.83,0.059-7.832h-2.045c0.078,2.455-0.205,4.199-0.847,5.232s-1.49,1.898-2.542,2.6    l-0.117-0.174c0.739-0.664,1.324-1.375,1.753-2.135c0.428-0.76,0.701-1.566,0.818-2.426c0.117-0.855,0.175-2.016,0.175-3.477    s-0.02-2.834-0.058-4.121l0.818,0.527c1.636-0.313,2.766-0.74,3.389-1.287l0.876,1.053c-0.78,0-2.201,0.176-4.266,0.525v3.332    h2.922l0.643-0.643l0.994,0.992h-1.753v5.027c0,0.43,0.02,1.227,0.059,2.396L149.823,210.628z"/>
		<path fill="#212830" d="M157.419,203.148c0,3.662,0.02,5.982,0.059,6.955l-0.876,0.525c0.038-1.168,0.059-3.486,0.059-6.955    c-0.818,1.676-1.792,3.021-2.922,4.033l-0.117-0.176c0.584-0.777,1.139-1.684,1.665-2.717s0.944-2.074,1.256-3.127h-0.876    c-0.507,0-0.974,0.059-1.402,0.176l-0.526-0.527h2.922v-2.629c-1.014,0.156-1.812,0.254-2.396,0.291v-0.232    c0.856-0.156,1.636-0.361,2.337-0.615c0.701-0.252,1.363-0.592,1.987-1.021l0.818,1.051c-0.467,0-1.13,0.117-1.987,0.352v2.805    h0.876l0.701-0.701l0.994,1.053h-2.571v1.227c0.935,0.43,1.539,0.828,1.812,1.199c0.272,0.371,0.282,0.75,0.029,1.139    c-0.254,0.391-0.478,0.293-0.672-0.291C158.393,204.375,158.003,203.771,157.419,203.148z M161.977,205.193l1.11,0.936    l-0.526,0.176c-1.48,2.025-2.941,3.408-4.382,4.15l-0.059-0.234c0.974-0.779,1.792-1.617,2.455-2.514    C161.236,206.81,161.704,205.974,161.977,205.193z M160.341,205.078c0.038-1.131,0.059-2.281,0.059-3.449    c0-1.17-0.021-2.338-0.059-3.508l0.876,0.469h4.032l0.584-0.584l0.876,0.875l-0.584,0.352c0,3.039,0.02,4.813,0.059,5.318    l-0.818,0.293v-0.76h-4.208v0.701L160.341,205.078z M161.159,198.939v4.793h4.208v-4.793H161.159z M164.022,205.427    c1.597,1.48,2.522,2.514,2.776,3.098c0.253,0.584,0.263,1.053,0.029,1.402c-0.233,0.352-0.438,0.283-0.613-0.203    c-0.175-0.488-0.4-1.023-0.672-1.607c-0.273-0.586-0.818-1.422-1.636-2.514L164.022,205.427z"/>
		<path fill="#212830" d="M173.488,197.361l1.169,0.877l-0.526,0.293c-0.663,1.248-1.394,2.357-2.191,3.332    c-0.799,0.975-1.822,1.832-3.068,2.57l-0.117-0.174c1.012-0.818,1.908-1.783,2.688-2.895    C172.222,200.255,172.904,198.921,173.488,197.361z M171.209,203.031h6.661l0.584-0.584l0.818,0.818l-0.468,0.35    c-0.079,3.08-0.273,4.939-0.584,5.582c-0.313,0.643-0.857,1.102-1.636,1.373c-0.117-0.623-0.663-1.07-1.636-1.344v-0.234    c0.973,0.156,1.607,0.225,1.899,0.205c0.292-0.02,0.516-0.242,0.672-0.672c0.155-0.428,0.312-2.143,0.468-5.143h-3.039    c-0.234,1.676-0.701,3.088-1.402,4.236c-0.701,1.15-2.045,2.152-4.032,3.01l-0.117-0.232c1.753-0.896,2.931-1.959,3.535-3.186    c0.604-1.229,0.964-2.504,1.081-3.828h-1.812l-0.526,0.117L171.209,203.031z M177.579,197.537l-0.467,0.293    c0.428,1.559,1.129,2.768,2.104,3.623c0.973,0.857,2.006,1.385,3.097,1.578v0.176c-0.584,0.078-0.994,0.332-1.228,0.76    c-1.285-0.701-2.308-1.637-3.067-2.805c-0.76-1.17-1.276-2.533-1.549-4.092L177.579,197.537z"/>
		<path fill="#212830" d="M186.11,207.298h0.234c-0.234,1.52-0.507,2.434-0.818,2.746c-0.313,0.313-0.634,0.359-0.964,0.146    c-0.332-0.215-0.321-0.459,0.029-0.73c0.351-0.273,0.613-0.525,0.789-0.76S185.798,208,186.11,207.298z M186.402,207.005    c0.038-0.818,0.058-1.695,0.058-2.631c0-0.934-0.02-1.869-0.058-2.805l0.935,0.467h2.513c0-2.609-0.02-4.305-0.058-5.084    l1.344,0.525l-0.467,0.469v1.402h3.798l0.76-0.76l1.052,1.109h-5.609v2.338h2.98l0.584-0.584l0.876,0.877l-0.526,0.41    c0,1.83,0.019,3.078,0.058,3.74l-0.876,0.35v-0.877h-6.428v0.701L186.402,207.005z M187.337,202.388v3.215h6.428v-3.215H187.337z     M188.155,207.589l0.117-0.174c0.818,0.623,1.305,1.129,1.461,1.52c0.155,0.389,0.078,0.738-0.234,1.051    c-0.312,0.313-0.507,0.186-0.584-0.379C188.836,209.042,188.583,208.371,188.155,207.589z M191.252,207.531l0.117-0.174    c0.739,0.545,1.227,1.021,1.46,1.432c0.234,0.408,0.195,0.789-0.117,1.139c-0.312,0.352-0.526,0.195-0.643-0.467    C191.953,208.798,191.68,208.156,191.252,207.531z M194.408,207.357l0.117-0.176c0.779,0.545,1.353,1.063,1.724,1.549    c0.37,0.486,0.399,0.924,0.088,1.314c-0.313,0.389-0.555,0.254-0.73-0.408S195.03,208.214,194.408,207.357z"/>
	</g>
	<g>
		<path fill="#212830" d="M331.165,144.898h5.788l-0.119,0.402c-0.745,0.006-1.269,0.143-1.572,0.406    c-0.303,0.264-0.621,0.969-0.953,2.119l-1.864,6.471c-0.354,1.223-0.712,2.154-1.073,2.797c-0.484,0.867-1.136,1.559-1.956,2.07    c-0.82,0.514-1.739,0.77-2.758,0.77c-0.839,0-1.481-0.193-1.93-0.58c-0.447-0.387-0.672-0.854-0.672-1.402    c0-0.434,0.136-0.795,0.406-1.084c0.271-0.289,0.595-0.434,0.971-0.434c0.325,0,0.59,0.098,0.796,0.291    c0.206,0.195,0.31,0.434,0.31,0.717c0,0.23-0.095,0.455-0.282,0.672c-0.238,0.275-0.357,0.463-0.357,0.563    c0,0.152,0.068,0.291,0.206,0.412c0.137,0.123,0.321,0.186,0.553,0.186c0.332,0,0.677-0.08,1.034-0.238    c0.358-0.16,0.694-0.402,1.009-0.727c0.313-0.326,0.589-0.717,0.823-1.172s0.475-1.076,0.721-1.863l0.531-1.875l1.614-5.572    c0.239-0.816,0.358-1.326,0.358-1.529c0-0.273-0.108-0.498-0.325-0.672s-0.676-0.281-1.377-0.324L331.165,144.898z"/>
	</g>
	<g>
		<path fill="#212830" d="M75.872,153.849c0.354,0.377,0.622,0.752,0.802,1.129c0.13,0.26,0.343,0.941,0.64,2.049l0.954-1.432    c0.253-0.348,0.56-0.678,0.921-0.992s0.679-0.529,0.954-0.645c0.173-0.072,0.365-0.109,0.574-0.109    c0.311,0,0.558,0.084,0.742,0.25c0.185,0.166,0.276,0.369,0.276,0.607c0,0.273-0.054,0.463-0.163,0.563    c-0.202,0.182-0.433,0.271-0.693,0.271c-0.152,0-0.314-0.031-0.488-0.098c-0.34-0.115-0.567-0.174-0.683-0.174    c-0.173,0-0.379,0.102-0.618,0.305c-0.448,0.375-0.983,1.102-1.604,2.178l0.889,3.73c0.137,0.57,0.252,0.912,0.347,1.023    c0.094,0.113,0.188,0.168,0.282,0.168c0.152,0,0.329-0.082,0.531-0.248c0.397-0.334,0.737-0.768,1.019-1.301l0.379,0.193    c-0.455,0.854-1.033,1.563-1.734,2.125c-0.397,0.318-0.733,0.477-1.008,0.477c-0.405,0-0.726-0.227-0.964-0.682    c-0.152-0.283-0.466-1.496-0.943-3.643c-1.127,1.959-2.03,3.219-2.709,3.783c-0.441,0.361-0.867,0.541-1.279,0.541    c-0.289,0-0.553-0.104-0.791-0.314c-0.174-0.158-0.26-0.371-0.26-0.639c0-0.238,0.08-0.438,0.238-0.596    c0.159-0.16,0.354-0.238,0.585-0.238c0.231,0,0.477,0.115,0.737,0.346c0.188,0.166,0.333,0.25,0.434,0.25    c0.086,0,0.199-0.059,0.336-0.174c0.339-0.273,0.802-0.867,1.387-1.777s0.968-1.568,1.149-1.973    c-0.448-1.756-0.69-2.686-0.726-2.787c-0.167-0.469-0.383-0.801-0.65-0.996c-0.268-0.195-0.661-0.293-1.181-0.293    c-0.167,0-0.358,0.008-0.575,0.021v-0.391L75.872,153.849z"/>
	</g>
	
		<line fill="none" stroke="#212830" stroke-width="0.5" stroke-linecap="square" stroke-miterlimit="10" x1="85.826" y1="73.711" x2="85.826" y2="79.802"/>
	
		<line fill="none" stroke="#212830" stroke-width="0.5" stroke-linecap="square" stroke-miterlimit="10" x1="161.194" y1="189.437" x2="247.594" y2="155.275"/>
	<polygon fill-rule="evenodd" clip-rule="evenodd" fill="#212830" points="33.712,108.623 36.845,108.623 35.256,99.266  "/>
	<polygon fill="none" stroke="#212830" stroke-width="0.5" stroke-linecap="square" stroke-miterlimit="10" points="33.712,108.623    36.845,108.623 35.256,99.266 33.712,108.623  "/>
	<polygon fill="none" stroke="#212830" stroke-width="0.5" stroke-linecap="square" stroke-miterlimit="10" points="35.256,53.938    35.212,53.275 35.036,52.657 34.771,52.083 34.418,51.554 33.977,51.068 33.447,50.715 32.874,50.406 32.256,50.23 31.638,50.142    30.976,50.186 30.358,50.318 29.741,50.539 29.211,50.892 28.726,51.289 28.329,51.819 28.02,52.393 27.799,52.966 27.667,53.628    27.667,54.247 27.799,54.908 28.02,55.482 28.329,56.056 28.726,56.585 29.211,56.983 29.741,57.336 30.358,57.557 30.976,57.689    31.638,57.733 32.256,57.645 32.874,57.468 33.447,57.159 33.977,56.806 34.418,56.321 34.771,55.791 35.036,55.217 35.212,54.6    35.256,53.938  "/>
	<polygon fill="none" stroke="#212830" stroke-width="0.5" stroke-linecap="square" stroke-miterlimit="10" points="173.726,35.4    173.682,34.738 173.505,34.12 173.241,33.546 172.888,33.017 172.446,32.531 171.917,32.178 171.343,31.869 170.725,31.692    170.107,31.604 169.446,31.648 168.828,31.781 168.21,32.001 167.681,32.354 167.195,32.752 166.798,33.281 166.489,33.855    166.269,34.429 166.136,35.091 166.136,35.709 166.269,36.371 166.489,36.945 166.798,37.519 167.195,38.048 167.681,38.445    168.21,38.798 168.828,39.019 169.446,39.151 170.107,39.196 170.725,39.107 171.343,38.931 171.917,38.622 172.446,38.269    172.888,37.783 173.241,37.254 173.505,36.68 173.682,36.062 173.726,35.4  "/>
	
		<line fill="none" stroke="#212830" stroke-width="0.5" stroke-linecap="square" stroke-miterlimit="10" x1="260.303" y1="146.89" x2="260.303" y2="152.98"/>
	
		<line fill="none" stroke="#212830" stroke-width="0.5" stroke-linecap="square" stroke-miterlimit="10" x1="88.915" y1="76.756" x2="82.781" y2="76.756"/>
	<polygon fill-rule="evenodd" clip-rule="evenodd" fill="#212830" points="94.298,93.308 96.99,91.674 90.768,84.48  "/>
	<g>
		<path fill="#212830" d="M183.949,92.529l3.642,5.626c0.65,0.998,1.188,1.635,1.615,1.914s0.986,0.417,1.68,0.417l-0.119,0.401    h-6.264l0.098-0.401c0.499-0.051,0.851-0.17,1.057-0.358s0.309-0.401,0.309-0.64c0-0.217-0.036-0.426-0.108-0.629    c-0.058-0.144-0.267-0.499-0.628-1.062l-2.98-4.672l-1.441,4.867c-0.238,0.781-0.357,1.305-0.357,1.572    c0,0.274,0.101,0.484,0.303,0.628s0.701,0.242,1.496,0.293l-0.173,0.401h-5.809l0.141-0.401c0.563-0.015,0.943-0.065,1.138-0.152    c0.289-0.13,0.502-0.296,0.64-0.499c0.188-0.296,0.419-0.911,0.693-1.843l2.59-8.878c0.195-0.679,0.292-1.225,0.292-1.637    c0-0.289-0.092-0.51-0.276-0.662c-0.184-0.151-0.543-0.228-1.078-0.228h-0.217l0.13-0.401h5.517l-0.108,0.401    c-0.455-0.007-0.795,0.043-1.019,0.152c-0.311,0.152-0.539,0.347-0.683,0.585c-0.145,0.238-0.357,0.834-0.639,1.789l-1.138,3.772    l5.224-3.935c0.693-0.521,1.148-0.932,1.365-1.236c0.13-0.188,0.195-0.358,0.195-0.509c0-0.13-0.067-0.257-0.201-0.379    c-0.134-0.123-0.338-0.203-0.612-0.239l0.108-0.401h4.704l-0.098,0.401c-0.513,0.087-0.945,0.201-1.295,0.341    c-0.351,0.141-0.71,0.334-1.079,0.58c-0.108,0.072-0.813,0.607-2.113,1.604L183.949,92.529z"/>
	</g>
	<g>
		<path fill="#212830" d="M22.342,100.256c0.246,0.419,0.416,0.812,0.509,1.176c0.094,0.365,0.188,1.083,0.282,2.152l0.477,5.333    c0.434-0.521,1.062-1.344,1.886-2.472c0.397-0.549,0.889-1.297,1.474-2.244c0.354-0.578,0.57-0.982,0.65-1.214    c0.043-0.116,0.065-0.235,0.065-0.358c0-0.079-0.025-0.145-0.076-0.195c-0.051-0.051-0.183-0.11-0.396-0.179    c-0.213-0.068-0.39-0.195-0.531-0.379c-0.141-0.184-0.211-0.396-0.211-0.634c0-0.296,0.086-0.535,0.26-0.716    c0.173-0.18,0.39-0.271,0.65-0.271c0.318,0,0.589,0.132,0.813,0.396c0.224,0.264,0.336,0.627,0.336,1.089    c0,0.571-0.195,1.223-0.585,1.957s-1.142,1.859-2.254,3.377c-1.112,1.518-2.46,3.172-4.042,4.965    c-1.091,1.235-1.9,2.014-2.427,2.336c-0.527,0.321-0.979,0.482-1.355,0.482c-0.224,0-0.421-0.085-0.59-0.255    c-0.17-0.17-0.255-0.367-0.255-0.591c0-0.282,0.118-0.539,0.352-0.77c0.235-0.231,0.49-0.347,0.764-0.347    c0.145,0,0.264,0.033,0.358,0.098c0.058,0.036,0.121,0.139,0.189,0.309s0.132,0.284,0.189,0.341    c0.036,0.036,0.08,0.054,0.13,0.054c0.043,0,0.119-0.036,0.228-0.108c0.397-0.246,0.86-0.636,1.387-1.17    c0.693-0.708,1.207-1.287,1.539-1.735l-0.607-6.873c-0.102-1.134-0.253-1.825-0.456-2.07c-0.202-0.246-0.542-0.369-1.019-0.369    c-0.152,0-0.423,0.021-0.813,0.065l-0.097-0.401L22.342,100.256z"/>
	</g>
	<polygon fill="none" stroke="#212830" stroke-width="0.5" stroke-linecap="square" stroke-miterlimit="10" points="94.298,93.308    96.99,91.674 90.768,84.48 94.298,93.308  "/>
	<polygon fill-rule="evenodd" clip-rule="evenodd" fill="#212830" points="8.383,178.005 6.044,175.976 1.014,184.052  "/>
	<polygon fill="none" stroke="#212830" stroke-width="0.5" stroke-linecap="square" stroke-miterlimit="10" points="8.383,178.005    6.044,175.976 1.014,184.052 8.383,178.005  "/>
	<polygon fill-rule="evenodd" clip-rule="evenodd" fill="#212830" points="323.889,172.929 324.595,172.974 323.756,172.974  "/>
	<polygon fill-rule="evenodd" clip-rule="evenodd" fill="#212830" points="323.756,172.974 325.037,173.062 323.183,173.062  "/>
	<polygon fill-rule="evenodd" clip-rule="evenodd" fill="#212830" points="323.756,172.974 324.595,172.974 325.037,173.062  "/>
	<polygon fill-rule="evenodd" clip-rule="evenodd" fill="#212830" points="323.183,173.062 325.301,173.107 323.006,173.107  "/>
	<polygon fill-rule="evenodd" clip-rule="evenodd" fill="#212830" points="323.183,173.062 325.037,173.062 325.301,173.107  "/>
	<polygon fill-rule="evenodd" clip-rule="evenodd" fill="#212830" points="323.006,173.107 325.743,173.283 322.521,173.283  "/>
	<polygon fill-rule="evenodd" clip-rule="evenodd" fill="#212830" points="323.006,173.107 325.301,173.107 325.743,173.283  "/>
	<polygon fill-rule="evenodd" clip-rule="evenodd" fill="#212830" points="322.521,173.283 325.963,173.371 322.344,173.371  "/>
	<polygon fill-rule="evenodd" clip-rule="evenodd" fill="#212830" points="322.521,173.283 325.743,173.283 325.963,173.371  "/>
	<polygon fill-rule="evenodd" clip-rule="evenodd" fill="#212830" points="322.344,173.371 326.36,173.636 321.904,173.636  "/>
	<polygon fill-rule="evenodd" clip-rule="evenodd" fill="#212830" points="322.344,173.371 325.963,173.371 326.36,173.636  "/>
	<polygon fill-rule="evenodd" clip-rule="evenodd" fill="#212830" points="321.904,173.636 326.537,173.769 321.771,173.769  "/>
	<polygon fill-rule="evenodd" clip-rule="evenodd" fill="#212830" points="321.904,173.636 326.36,173.636 326.537,173.769  "/>
	<polygon fill-rule="evenodd" clip-rule="evenodd" fill="#212830" points="321.771,173.769 326.89,174.123 321.374,174.123  "/>
	<polygon fill-rule="evenodd" clip-rule="evenodd" fill="#212830" points="321.771,173.769 326.537,173.769 326.89,174.123  "/>
	<polygon fill-rule="evenodd" clip-rule="evenodd" fill="#212830" points="321.374,174.123 327.066,174.298 321.242,174.298  "/>
	<polygon fill-rule="evenodd" clip-rule="evenodd" fill="#212830" points="321.374,174.123 326.89,174.123 327.066,174.298  "/>
	<polygon fill-rule="evenodd" clip-rule="evenodd" fill="#212830" points="321.242,174.298 327.331,174.695 320.932,174.695  "/>
	<polygon fill-rule="evenodd" clip-rule="evenodd" fill="#212830" points="321.242,174.298 327.066,174.298 327.331,174.695  "/>
	<polygon fill-rule="evenodd" clip-rule="evenodd" fill="#212830" points="320.932,174.695 327.463,174.873 320.844,174.873  "/>
	<polygon fill-rule="evenodd" clip-rule="evenodd" fill="#212830" points="320.932,174.695 327.331,174.695 327.463,174.873  "/>
	<polygon fill-rule="evenodd" clip-rule="evenodd" fill="#212830" points="320.844,174.873 327.64,175.314 320.58,175.314  "/>
	<polygon fill-rule="evenodd" clip-rule="evenodd" fill="#212830" points="320.844,174.873 327.463,174.873 327.64,175.314  "/>
	<polygon fill-rule="evenodd" clip-rule="evenodd" fill="#212830" points="320.58,175.314 327.728,175.535 320.536,175.535  "/>
	<polygon fill-rule="evenodd" clip-rule="evenodd" fill="#212830" points="320.58,175.314 327.64,175.314 327.728,175.535  "/>
	<polygon fill-rule="evenodd" clip-rule="evenodd" fill="#212830" points="320.536,175.535 327.861,176.019 320.403,176.019  "/>
	<polygon fill-rule="evenodd" clip-rule="evenodd" fill="#212830" points="320.536,175.535 327.728,175.535 327.861,176.019  "/>
	<polygon fill-rule="evenodd" clip-rule="evenodd" fill="#212830" points="327.905,176.24 327.949,176.726 324.154,176.726  "/>
	<polygon fill-rule="evenodd" clip-rule="evenodd" fill="#212830" points="320.403,176.019 327.905,176.24 320.359,176.24  "/>
	<polygon fill-rule="evenodd" clip-rule="evenodd" fill="#212830" points="320.403,176.019 327.861,176.019 327.905,176.24  "/>
	<polygon fill-rule="evenodd" clip-rule="evenodd" fill="#212830" points="320.359,176.24 324.154,176.726 320.315,176.726  "/>
	<polygon fill-rule="evenodd" clip-rule="evenodd" fill="#212830" points="320.359,176.24 327.905,176.24 324.154,176.726  "/>
	<polygon fill-rule="evenodd" clip-rule="evenodd" fill="#212830" points="324.154,176.726 327.905,177.255 325.345,177.255  "/>
	<polygon fill-rule="evenodd" clip-rule="evenodd" fill="#212830" points="324.154,176.726 327.949,176.726 327.905,177.255  "/>
	<polygon fill-rule="evenodd" clip-rule="evenodd" fill="#212830" points="320.315,176.726 325.345,177.255 320.403,177.255  "/>
	<polygon fill-rule="evenodd" clip-rule="evenodd" fill="#212830" points="320.315,176.726 324.154,176.726 325.345,177.255  "/>
	<polygon fill-rule="evenodd" clip-rule="evenodd" fill="#212830" points="325.345,177.255 327.861,177.476 325.918,177.476  "/>
	<polygon fill-rule="evenodd" clip-rule="evenodd" fill="#212830" points="325.345,177.255 327.905,177.255 327.861,177.476  "/>
	<polygon fill-rule="evenodd" clip-rule="evenodd" fill="#212830" points="320.403,177.255 325.918,177.476 320.403,177.476  "/>
	<polygon fill-rule="evenodd" clip-rule="evenodd" fill="#212830" points="320.403,177.255 325.345,177.255 325.918,177.476  "/>
	<polygon fill-rule="evenodd" clip-rule="evenodd" fill="#212830" points="325.918,177.476 327.816,177.742 326.493,177.742  "/>
	<polygon fill-rule="evenodd" clip-rule="evenodd" fill="#212830" points="325.918,177.476 327.861,177.476 327.816,177.742  "/>
	<polygon fill-rule="evenodd" clip-rule="evenodd" fill="#212830" points="320.403,177.476 326.493,177.742 320.492,177.742  "/>
	<polygon fill-rule="evenodd" clip-rule="evenodd" fill="#212830" points="320.403,177.476 325.918,177.476 326.493,177.742  "/>
	<polygon fill-rule="evenodd" clip-rule="evenodd" fill="#212830" points="327.595,178.183 327.64,178.183 327.64,178.183  "/>
	<polygon fill-rule="evenodd" clip-rule="evenodd" fill="#212830" points="326.493,177.742 327.64,178.183 327.595,178.183  "/>
	<polygon fill-rule="evenodd" clip-rule="evenodd" fill="#212830" points="326.493,177.742 327.816,177.742 327.64,178.183  "/>
	<polygon fill-rule="evenodd" clip-rule="evenodd" fill="#212830" points="320.492,177.742 327.595,178.183 320.624,178.183  "/>
	<polygon fill-rule="evenodd" clip-rule="evenodd" fill="#212830" points="320.492,177.742 326.493,177.742 327.595,178.183  "/>
	<polygon fill-rule="evenodd" clip-rule="evenodd" fill="#212830" points="320.624,178.183 327.64,178.183 320.624,178.183  "/>
	<polygon fill-rule="evenodd" clip-rule="evenodd" fill="#212830" points="320.624,178.183 327.595,178.183 327.64,178.183  "/>
	<polygon fill-rule="evenodd" clip-rule="evenodd" fill="#212830" points="320.624,178.183 327.287,178.845 320.977,178.845  "/>
	<polygon fill-rule="evenodd" clip-rule="evenodd" fill="#212830" points="320.624,178.183 327.64,178.183 327.287,178.845  "/>
	<polygon fill-rule="evenodd" clip-rule="evenodd" fill="#212830" points="320.977,178.845 327.287,178.845 320.977,178.845  "/>
	<polygon fill-rule="evenodd" clip-rule="evenodd" fill="#212830" points="320.977,178.845 327.287,178.845 327.287,178.845  "/>
	<polygon fill-rule="evenodd" clip-rule="evenodd" fill="#212830" points="320.977,178.845 326.845,179.417 321.462,179.417  "/>
	<polygon fill-rule="evenodd" clip-rule="evenodd" fill="#212830" points="320.977,178.845 327.287,178.845 326.845,179.417  "/>
	<polygon fill-rule="evenodd" clip-rule="evenodd" fill="#212830" points="321.462,179.417 326.801,179.417 321.462,179.417  "/>
	<polygon fill-rule="evenodd" clip-rule="evenodd" fill="#212830" points="321.462,179.417 326.845,179.417 326.801,179.417  "/>
	<polygon fill-rule="evenodd" clip-rule="evenodd" fill="#212830" points="321.462,179.417 326.272,179.904 322.036,179.904  "/>
	<polygon fill-rule="evenodd" clip-rule="evenodd" fill="#212830" points="321.462,179.417 326.801,179.417 326.272,179.904  "/>
	<polygon fill-rule="evenodd" clip-rule="evenodd" fill="#212830" points="322.036,179.904 326.228,179.904 322.036,179.904  "/>
	<polygon fill-rule="evenodd" clip-rule="evenodd" fill="#212830" points="322.036,179.904 326.272,179.904 326.228,179.904  "/>
	<polygon fill-rule="evenodd" clip-rule="evenodd" fill="#212830" points="322.036,179.904 325.61,180.257 322.654,180.257  "/>
	<polygon fill-rule="evenodd" clip-rule="evenodd" fill="#212830" points="322.036,179.904 326.228,179.904 325.61,180.257  "/>
	<polygon fill-rule="evenodd" clip-rule="evenodd" fill="#212830" points="322.654,180.257 325.566,180.257 322.698,180.257  "/>
	<polygon fill-rule="evenodd" clip-rule="evenodd" fill="#212830" points="322.654,180.257 325.61,180.257 325.566,180.257  "/>
	<polygon fill-rule="evenodd" clip-rule="evenodd" fill="#212830" points="322.698,180.257 324.86,180.478 323.404,180.478  "/>
	<polygon fill-rule="evenodd" clip-rule="evenodd" fill="#212830" points="322.698,180.257 325.566,180.257 324.86,180.478  "/>
	<polygon fill-rule="evenodd" clip-rule="evenodd" fill="#212830" points="323.404,180.478 324.86,180.478 324.11,180.521  "/>
	<polygon fill-rule="evenodd" clip-rule="evenodd" fill="#212830" points="323.404,180.478 324.86,180.478 323.404,180.478  "/>
	<polygon fill-rule="evenodd" clip-rule="evenodd" fill="#212830" points="323.404,180.478 324.86,180.478 324.86,180.478  "/>
	<polygon fill="none" stroke="#212830" stroke-width="0.5" stroke-linecap="square" stroke-miterlimit="10" points="   320.315,176.726 320.403,177.476 320.624,178.183 320.977,178.845 321.462,179.417 322.036,179.904 322.654,180.257    323.404,180.478 324.11,180.521 324.86,180.478 325.566,180.257 326.228,179.904 326.801,179.417 327.287,178.845 327.64,178.183    324.154,176.726 327.905,176.24 327.728,175.535 327.463,174.873 327.066,174.298 326.537,173.769 325.963,173.371    325.301,173.107 324.595,172.974 323.889,172.929 323.183,173.062 322.521,173.283 321.904,173.636 321.374,174.123    320.932,174.695 320.58,175.314 320.403,176.019 320.315,176.726  "/>
	<polygon fill="none" stroke="#212830" stroke-width="0.5" stroke-linecap="square" stroke-miterlimit="10" points="   327.949,176.726 327.905,176.24 324.154,176.726 327.64,178.183 327.816,177.742 327.905,177.255 327.949,176.726  "/>
	<polygon fill-rule="evenodd" clip-rule="evenodd" fill="#212830" points="247.021,153.82 248.212,156.732 256.287,151.701  "/>
	<g>
		<path fill="#212830" d="M34.779,36.994l-0.119,0.401h-6.048l0.152-0.401c0.607-0.015,1.008-0.065,1.203-0.152    c0.318-0.123,0.553-0.293,0.705-0.51c0.238-0.339,0.484-0.946,0.737-1.821l2.558-8.868c0.217-0.737,0.325-1.293,0.325-1.669    c0-0.188-0.047-0.347-0.141-0.477c-0.094-0.13-0.236-0.229-0.428-0.298c-0.191-0.068-0.565-0.103-1.122-0.103l0.13-0.401h5.679    l-0.119,0.401c-0.462-0.007-0.806,0.043-1.029,0.152c-0.325,0.145-0.573,0.351-0.743,0.618c-0.17,0.268-0.388,0.86-0.656,1.778    l-2.547,8.868c-0.231,0.816-0.347,1.337-0.347,1.561c0,0.181,0.045,0.334,0.136,0.46c0.09,0.126,0.234,0.224,0.433,0.292    C33.737,36.894,34.15,36.95,34.779,36.994z"/>
	</g>
	<polygon fill="none" stroke="#212830" stroke-width="0.5" stroke-linecap="square" stroke-miterlimit="10" points="247.021,153.82    248.212,156.732 256.287,151.701 247.021,153.82  "/>
</g>
</svg>
