<?xml version="1.0" encoding="utf-8"?>
<!-- Generator: Adobe Illustrator 16.0.0, SVG Export Plug-In . SVG Version: 6.00 Build 0)  -->
<!DOCTYPE svg PUBLIC "-//W3C//DTD SVG 1.1//EN" "http://www.w3.org/Graphics/SVG/1.1/DTD/svg11.dtd">
<svg xmlns="http://www.w3.org/2000/svg" xmlns:xlink="http://www.w3.org/1999/xlink" version="1.1" id="图层_1" x="0px" y="0px" width="450.42px" height="168.768px" viewBox="0 0 450.42 168.768" xml:space="preserve">
<g>
	
		<line fill="none" stroke="#212830" stroke-width="0.5" stroke-linecap="square" stroke-miterlimit="10" x1="411.604" y1="44.538" x2="411.604" y2="75.478"/>
	<polygon fill="none" stroke="#212830" stroke-width="0.5" stroke-linecap="square" stroke-miterlimit="10" points="411.56,46.524    411.516,46.038 411.339,45.641 411.074,45.244 410.721,44.935 410.324,44.714 409.839,44.582 409.397,44.582 408.912,44.714    408.515,44.935 408.162,45.244 407.896,45.641 407.721,46.038 407.677,46.524 407.721,47.009 407.896,47.407 408.162,47.804    408.515,48.113 408.912,48.333 409.397,48.466 409.839,48.466 410.324,48.333 410.721,48.113 411.074,47.804 411.339,47.407    411.516,47.009 411.56,46.524  "/>
	
		<line fill="none" stroke="#212830" stroke-width="0.5" stroke-linecap="square" stroke-miterlimit="10" x1="1.534" y1="137.048" x2="1.534" y2="149.627"/>
	
		<line fill="none" stroke="#212830" stroke-width="0.5" stroke-linecap="square" stroke-miterlimit="10" x1="25.23" y1="137.048" x2="25.23" y2="149.627"/>
	
		<line fill="none" stroke="#212830" stroke-width="0.5" stroke-linecap="square" stroke-miterlimit="10" x1="6.477" y1="145.699" x2="20.288" y2="145.699"/>
	<polygon fill-rule="evenodd" clip-rule="evenodd" fill="#212830" points="6.477,144.86 6.477,146.493 1.534,145.699  "/>
	<polygon fill="none" stroke="#212830" stroke-width="0.5" stroke-linecap="square" stroke-miterlimit="10" points="6.477,144.86    6.477,146.493 1.534,145.699 6.477,144.86  "/>
	<polygon fill-rule="evenodd" clip-rule="evenodd" fill="#212830" points="20.288,144.86 20.288,146.493 25.23,145.699  "/>
	<g>
		<path fill="#212830" d="M5.503,134.613l1.884-0.92h0.188v6.539c0,0.435,0.018,0.705,0.054,0.812s0.111,0.188,0.226,0.245    c0.114,0.058,0.346,0.09,0.697,0.098v0.211H5.64v-0.211c0.365-0.008,0.602-0.039,0.708-0.095c0.106-0.055,0.181-0.129,0.223-0.223    c0.042-0.093,0.063-0.372,0.063-0.837v-4.181c0-0.563-0.019-0.925-0.057-1.085c-0.027-0.121-0.075-0.211-0.146-0.269    c-0.071-0.057-0.155-0.085-0.254-0.085c-0.141,0-0.337,0.059-0.588,0.177L5.503,134.613z"/>
		<path fill="#212830" d="M15.067,133.854l-0.446,0.971h-2.329l-0.508,1.039c1.009,0.149,1.808,0.524,2.398,1.126    c0.506,0.518,0.759,1.127,0.759,1.827c0,0.407-0.083,0.784-0.248,1.131s-0.374,0.642-0.625,0.885    c-0.251,0.244-0.531,0.44-0.839,0.589c-0.438,0.209-0.887,0.313-1.347,0.313c-0.465,0-0.802-0.079-1.014-0.236    c-0.211-0.158-0.317-0.332-0.317-0.522c0-0.107,0.043-0.201,0.131-0.283c0.087-0.082,0.198-0.123,0.331-0.123    c0.099,0,0.186,0.016,0.26,0.046s0.201,0.108,0.38,0.234c0.286,0.198,0.575,0.297,0.868,0.297c0.445,0,0.836-0.169,1.173-0.506    s0.505-0.747,0.505-1.23c0-0.468-0.15-0.905-0.451-1.311s-0.715-0.719-1.245-0.939c-0.415-0.171-0.98-0.271-1.696-0.297    l1.485-3.01H15.067z"/>
		<path fill="#212830" d="M16.249,137.771c0-0.884,0.133-1.644,0.4-2.282c0.266-0.638,0.62-1.112,1.062-1.425    c0.342-0.247,0.696-0.371,1.062-0.371c0.594,0,1.126,0.303,1.599,0.908c0.59,0.75,0.885,1.767,0.885,3.05    c0,0.898-0.13,1.662-0.389,2.29s-0.589,1.084-0.99,1.368c-0.402,0.283-0.789,0.425-1.162,0.425c-0.739,0-1.353-0.436-1.844-1.308    C16.456,139.692,16.249,138.807,16.249,137.771z M17.368,137.914c0,1.066,0.131,1.936,0.394,2.61    c0.217,0.567,0.541,0.851,0.971,0.851c0.206,0,0.418-0.093,0.64-0.277c0.221-0.185,0.388-0.494,0.502-0.928    c0.175-0.655,0.263-1.578,0.263-2.77c0-0.884-0.091-1.62-0.274-2.211c-0.137-0.438-0.314-0.748-0.531-0.931    c-0.156-0.125-0.345-0.188-0.565-0.188c-0.259,0-0.489,0.116-0.691,0.349c-0.274,0.316-0.46,0.813-0.56,1.49    S17.368,137.256,17.368,137.914z"/>
	</g>
	
		<line fill="none" stroke="#212830" stroke-width="0.5" stroke-linecap="square" stroke-miterlimit="10" x1="1.534" y1="130.119" x2="1.534" y2="130.119"/>
	
		<line fill="none" stroke="#212830" stroke-width="0.5" stroke-linecap="square" stroke-miterlimit="10" x1="25.23" y1="130.119" x2="25.23" y2="130.119"/>
	
		<line fill="none" stroke="#212830" stroke-width="0.5" stroke-linecap="square" stroke-miterlimit="10" x1="25.23" y1="145.699" x2="25.23" y2="145.699"/>
	<polygon fill="none" stroke="#212830" stroke-width="0.5" stroke-linecap="square" stroke-miterlimit="10" points="20.288,144.86    20.288,146.493 25.23,145.699 20.288,144.86  "/>
	
		<line fill="none" stroke="#212830" stroke-width="0.5" stroke-linecap="square" stroke-miterlimit="10" x1="1.534" y1="137.048" x2="1.534" y2="168.518"/>
	
		<line fill="none" stroke="#212830" stroke-width="0.5" stroke-linecap="square" stroke-miterlimit="10" x1="365.535" y1="137.048" x2="365.535" y2="168.518"/>
	
		<line fill="none" stroke="#212830" stroke-width="0.5" stroke-linecap="square" stroke-miterlimit="10" x1="6.477" y1="164.59" x2="360.593" y2="164.59"/>
	<polygon fill-rule="evenodd" clip-rule="evenodd" fill="#212830" points="6.477,163.751 6.477,165.384 1.534,164.59  "/>
	<polygon fill="none" stroke="#212830" stroke-width="0.5" stroke-linecap="square" stroke-miterlimit="10" points="6.477,163.751    6.477,165.384 1.534,164.59 6.477,163.751  "/>
	<polygon fill-rule="evenodd" clip-rule="evenodd" fill="#212830" points="360.593,163.751 360.593,165.384 365.535,164.59  "/>
	<g>
		<path fill="#212830" d="M172.398,154.21c0.221-0.521,0.5-0.925,0.836-1.208c0.337-0.284,0.757-0.426,1.259-0.426    c0.62,0,1.096,0.202,1.427,0.605c0.251,0.301,0.377,0.623,0.377,0.965c0,0.563-0.354,1.146-1.062,1.748    c0.476,0.187,0.835,0.453,1.079,0.8s0.365,0.754,0.365,1.222c0,0.67-0.213,1.251-0.639,1.742c-0.556,0.64-1.361,0.959-2.416,0.959    c-0.521,0-0.876-0.064-1.065-0.193c-0.188-0.13-0.282-0.269-0.282-0.417c0-0.11,0.044-0.208,0.134-0.292    c0.089-0.083,0.197-0.125,0.323-0.125c0.095,0,0.192,0.015,0.291,0.045c0.065,0.02,0.211,0.089,0.44,0.209    s0.386,0.191,0.474,0.214c0.141,0.042,0.292,0.063,0.451,0.063c0.388,0,0.726-0.15,1.014-0.451    c0.287-0.301,0.431-0.657,0.431-1.068c0-0.301-0.067-0.594-0.2-0.88c-0.099-0.213-0.208-0.375-0.325-0.485    c-0.164-0.152-0.388-0.29-0.674-0.414c-0.286-0.123-0.577-0.186-0.874-0.186h-0.183v-0.171c0.3-0.038,0.602-0.146,0.905-0.326    c0.303-0.179,0.522-0.394,0.66-0.645c0.137-0.252,0.206-0.527,0.206-0.828c0-0.393-0.123-0.709-0.369-0.951    c-0.245-0.242-0.551-0.362-0.916-0.362c-0.59,0-1.083,0.315-1.479,0.947L172.398,154.21z"/>
		<path fill="#212830" d="M178.085,156.654c0-0.884,0.133-1.644,0.4-2.282c0.266-0.638,0.62-1.112,1.062-1.425    c0.342-0.247,0.696-0.371,1.062-0.371c0.594,0,1.126,0.303,1.599,0.908c0.59,0.75,0.885,1.767,0.885,3.05    c0,0.898-0.13,1.662-0.389,2.29s-0.589,1.084-0.99,1.368c-0.402,0.283-0.789,0.425-1.162,0.425c-0.739,0-1.353-0.436-1.844-1.308    C178.293,158.575,178.085,157.689,178.085,156.654z M179.205,156.797c0,1.066,0.131,1.936,0.394,2.61    c0.217,0.567,0.541,0.851,0.971,0.851c0.206,0,0.418-0.093,0.64-0.277c0.221-0.185,0.388-0.494,0.502-0.928    c0.175-0.655,0.263-1.578,0.263-2.77c0-0.884-0.091-1.62-0.274-2.211c-0.137-0.438-0.314-0.748-0.531-0.931    c-0.156-0.125-0.345-0.188-0.565-0.188c-0.259,0-0.489,0.116-0.691,0.349c-0.274,0.316-0.46,0.813-0.56,1.49    S179.205,156.139,179.205,156.797z"/>
		<path fill="#212830" d="M183.92,156.654c0-0.884,0.133-1.644,0.4-2.282c0.266-0.638,0.62-1.112,1.062-1.425    c0.342-0.247,0.696-0.371,1.062-0.371c0.594,0,1.126,0.303,1.599,0.908c0.59,0.75,0.885,1.767,0.885,3.05    c0,0.898-0.13,1.662-0.389,2.29s-0.589,1.084-0.99,1.368c-0.402,0.283-0.789,0.425-1.162,0.425c-0.739,0-1.353-0.436-1.844-1.308    C184.128,158.575,183.92,157.689,183.92,156.654z M185.04,156.797c0,1.066,0.131,1.936,0.394,2.61    c0.217,0.567,0.541,0.851,0.971,0.851c0.206,0,0.418-0.093,0.64-0.277c0.221-0.185,0.388-0.494,0.502-0.928    c0.175-0.655,0.263-1.578,0.263-2.77c0-0.884-0.091-1.62-0.274-2.211c-0.137-0.438-0.314-0.748-0.531-0.931    c-0.156-0.125-0.345-0.188-0.565-0.188c-0.259,0-0.489,0.116-0.691,0.349c-0.274,0.316-0.46,0.813-0.56,1.49    S185.04,156.139,185.04,156.797z"/>
		<path fill="#212830" d="M189.756,156.654c0-0.884,0.133-1.644,0.4-2.282c0.266-0.638,0.62-1.112,1.062-1.425    c0.342-0.247,0.696-0.371,1.062-0.371c0.594,0,1.126,0.303,1.599,0.908c0.59,0.75,0.885,1.767,0.885,3.05    c0,0.898-0.13,1.662-0.389,2.29s-0.589,1.084-0.99,1.368c-0.402,0.283-0.789,0.425-1.162,0.425c-0.739,0-1.353-0.436-1.844-1.308    C189.963,158.575,189.756,157.689,189.756,156.654z M190.875,156.797c0,1.066,0.131,1.936,0.394,2.61    c0.217,0.567,0.541,0.851,0.971,0.851c0.206,0,0.418-0.093,0.64-0.277c0.221-0.185,0.388-0.494,0.502-0.928    c0.175-0.655,0.263-1.578,0.263-2.77c0-0.884-0.091-1.62-0.274-2.211c-0.137-0.438-0.314-0.748-0.531-0.931    c-0.156-0.125-0.345-0.188-0.565-0.188c-0.259,0-0.489,0.116-0.691,0.349c-0.274,0.316-0.46,0.813-0.56,1.49    S190.875,156.139,190.875,156.797z"/>
	</g>
	
		<line fill="none" stroke="#212830" stroke-width="0.5" stroke-linecap="square" stroke-miterlimit="10" x1="1.534" y1="130.119" x2="1.534" y2="130.119"/>
	
		<line fill="none" stroke="#212830" stroke-width="0.5" stroke-linecap="square" stroke-miterlimit="10" x1="365.535" y1="130.119" x2="365.535" y2="130.119"/>
	
		<line fill="none" stroke="#212830" stroke-width="0.5" stroke-linecap="square" stroke-miterlimit="10" x1="365.535" y1="164.59" x2="365.535" y2="164.59"/>
	<polygon fill="none" stroke="#212830" stroke-width="0.5" stroke-linecap="square" stroke-miterlimit="10" points="   360.593,163.751 360.593,165.384 365.535,164.59 360.593,163.751  "/>
	<g>
		<path fill="#212830" d="M103.477,94.851c0.221-0.521,0.5-0.925,0.836-1.208c0.337-0.284,0.757-0.426,1.259-0.426    c0.62,0,1.096,0.202,1.427,0.605c0.251,0.301,0.377,0.623,0.377,0.965c0,0.563-0.354,1.146-1.062,1.748    c0.476,0.187,0.835,0.453,1.079,0.8s0.365,0.754,0.365,1.222c0,0.67-0.213,1.251-0.639,1.742c-0.556,0.64-1.361,0.959-2.416,0.959    c-0.521,0-0.876-0.064-1.065-0.193c-0.188-0.13-0.282-0.269-0.282-0.417c0-0.11,0.044-0.208,0.134-0.292    c0.089-0.083,0.197-0.125,0.323-0.125c0.095,0,0.192,0.015,0.291,0.045c0.065,0.02,0.211,0.089,0.44,0.209    s0.386,0.191,0.474,0.214c0.141,0.042,0.292,0.063,0.451,0.063c0.388,0,0.726-0.15,1.014-0.451    c0.287-0.301,0.431-0.657,0.431-1.068c0-0.301-0.067-0.594-0.2-0.88c-0.099-0.213-0.208-0.375-0.325-0.485    c-0.164-0.152-0.388-0.29-0.674-0.414c-0.286-0.123-0.577-0.186-0.874-0.186h-0.183v-0.171c0.3-0.038,0.602-0.146,0.905-0.326    c0.303-0.179,0.522-0.394,0.66-0.645c0.137-0.252,0.206-0.527,0.206-0.828c0-0.393-0.123-0.709-0.369-0.951    c-0.245-0.242-0.551-0.362-0.916-0.362c-0.59,0-1.083,0.315-1.479,0.947L103.477,94.851z"/>
	</g>
	<g>
		<path fill="#212830" d="M113.69,94.719c0.064-0.232,0.097-0.409,0.097-0.531c0-0.155-0.05-0.295-0.148-0.417    c-0.099-0.121-0.339-0.183-0.72-0.183l0.057-0.211h3.46l-0.057,0.211c-0.449,0.008-0.784,0.08-1.005,0.218    c-0.221,0.137-0.397,0.443-0.531,0.919c0.883,0.034,1.539,0.254,1.967,0.66c0.428,0.405,0.643,0.892,0.643,1.459    c0,0.788-0.346,1.468-1.037,2.039c-0.69,0.57-1.702,0.869-3.035,0.896c-0.061,0.247-0.091,0.432-0.091,0.554    c0,0.183,0.063,0.324,0.188,0.426c0.125,0.101,0.386,0.151,0.782,0.151l-0.063,0.211h-3.489l0.063-0.211    c0.415,0,0.733-0.074,0.954-0.223c0.221-0.149,0.386-0.451,0.497-0.908c-0.91-0.042-1.573-0.266-1.99-0.671    c-0.417-0.406-0.625-0.887-0.625-1.442c0-0.77,0.333-1.442,0.999-2.019C111.272,95.07,112.3,94.761,113.69,94.719z     M113.604,95.045c-0.883,0-1.591,0.285-2.124,0.856c-0.533,0.571-0.799,1.222-0.799,1.953c0,0.982,0.542,1.518,1.627,1.604    L113.604,95.045z M113.456,99.459c0.875,0,1.582-0.283,2.119-0.851c0.537-0.567,0.805-1.221,0.805-1.959    c0-0.982-0.542-1.518-1.627-1.604L113.456,99.459z"/>
	</g>
	<g>
		<path fill="#212830" d="M122.986,99.631l-0.542,1.49h-4.567v-0.211c1.343-1.227,2.29-2.228,2.837-3.004    c0.548-0.777,0.822-1.487,0.822-2.131c0-0.491-0.15-0.895-0.451-1.211c-0.301-0.315-0.66-0.474-1.079-0.474    c-0.38,0-0.722,0.111-1.025,0.334s-0.526,0.55-0.671,0.979h-0.211c0.095-0.704,0.339-1.245,0.733-1.622s0.886-0.565,1.476-0.565    c0.628,0,1.152,0.202,1.573,0.605c0.42,0.403,0.631,0.88,0.631,1.428c0,0.393-0.091,0.784-0.274,1.177    c-0.282,0.616-0.738,1.27-1.37,1.959c-0.948,1.035-1.54,1.66-1.776,1.873h2.021c0.411,0,0.699-0.016,0.865-0.046    s0.315-0.092,0.448-0.186c0.133-0.093,0.25-0.226,0.349-0.396H122.986z"/>
		<path fill="#212830" d="M123.882,97.295c0-0.884,0.133-1.644,0.4-2.282c0.266-0.638,0.62-1.112,1.062-1.425    c0.342-0.247,0.696-0.371,1.062-0.371c0.594,0,1.126,0.303,1.599,0.908c0.59,0.75,0.885,1.767,0.885,3.05    c0,0.898-0.13,1.662-0.389,2.29s-0.589,1.084-0.99,1.368c-0.402,0.283-0.789,0.425-1.162,0.425c-0.739,0-1.353-0.436-1.844-1.308    C124.09,99.216,123.882,98.33,123.882,97.295z M125.001,97.438c0,1.066,0.131,1.936,0.394,2.61    c0.217,0.567,0.541,0.851,0.971,0.851c0.206,0,0.418-0.093,0.64-0.277c0.221-0.185,0.388-0.494,0.502-0.928    c0.175-0.655,0.263-1.578,0.263-2.77c0-0.884-0.091-1.62-0.274-2.211c-0.137-0.438-0.314-0.748-0.531-0.931    c-0.156-0.125-0.345-0.188-0.565-0.188c-0.259,0-0.489,0.116-0.691,0.349c-0.274,0.316-0.46,0.813-0.56,1.49    S125.001,96.779,125.001,97.438z"/>
	</g>
	
		<line fill="none" stroke="#212830" stroke-width="0.5" stroke-linecap="square" stroke-miterlimit="10" x1="124.118" y1="59.985" x2="95.745" y2="13.642"/>
	
		<line fill="none" stroke="#212830" stroke-width="0.5" stroke-linecap="square" stroke-miterlimit="10" x1="61.899" y1="75.478" x2="88.332" y2="104.961"/>
	
		<line fill="none" stroke="#212830" stroke-width="0.5" stroke-linecap="square" stroke-miterlimit="10" x1="411.604" y1="75.478" x2="390.555" y2="75.478"/>
	<polygon fill="none" stroke="#212830" stroke-width="0.5" stroke-linecap="square" stroke-miterlimit="10" points="394.438,73.491    394.395,73.006 394.218,72.608 393.953,72.211 393.6,71.902 393.203,71.682 392.718,71.549 392.276,71.549 391.791,71.682    391.394,71.902 391.041,72.211 390.775,72.608 390.6,73.006 390.555,73.491 390.6,73.977 390.775,74.374 391.041,74.771    391.394,75.08 391.791,75.301 392.276,75.434 392.718,75.434 393.203,75.301 393.6,75.08 393.953,74.771 394.218,74.374    394.395,73.977 394.438,73.491  "/>
	
		<line fill="none" stroke="#212830" stroke-width="0.5" stroke-linecap="square" stroke-miterlimit="10" x1="341.84" y1="137.048" x2="341.84" y2="149.627"/>
	
		<line fill="none" stroke="#212830" stroke-width="0.5" stroke-linecap="square" stroke-miterlimit="10" x1="365.535" y1="137.048" x2="365.535" y2="149.627"/>
	
		<line fill="none" stroke="#212830" stroke-width="0.5" stroke-linecap="square" stroke-miterlimit="10" x1="346.781" y1="145.699" x2="360.593" y2="145.699"/>
	<polygon fill-rule="evenodd" clip-rule="evenodd" fill="#212830" points="346.781,144.86 346.781,146.493 341.84,145.699  "/>
	<polygon fill="none" stroke="#212830" stroke-width="0.5" stroke-linecap="square" stroke-miterlimit="10" points="346.781,144.86    346.781,146.493 341.84,145.699 346.781,144.86  "/>
	<polygon fill-rule="evenodd" clip-rule="evenodd" fill="#212830" points="360.593,144.86 360.593,146.493 365.535,145.699  "/>
	<g>
		<path fill="#212830" d="M345.761,134.613l1.885-0.92h0.188v6.539c0,0.435,0.018,0.705,0.054,0.812s0.111,0.188,0.226,0.245    c0.114,0.058,0.347,0.09,0.696,0.098v0.211h-2.911v-0.211c0.365-0.008,0.601-0.039,0.708-0.095    c0.106-0.055,0.181-0.129,0.223-0.223c0.041-0.093,0.063-0.372,0.063-0.837v-4.181c0-0.563-0.02-0.925-0.058-1.085    c-0.026-0.121-0.075-0.211-0.146-0.269c-0.07-0.057-0.155-0.085-0.254-0.085c-0.141,0-0.337,0.059-0.588,0.177L345.761,134.613z"/>
		<path fill="#212830" d="M355.325,133.854l-0.445,0.971h-2.33l-0.508,1.039c1.009,0.149,1.808,0.524,2.398,1.126    c0.506,0.518,0.759,1.127,0.759,1.827c0,0.407-0.083,0.784-0.248,1.131c-0.166,0.347-0.374,0.642-0.625,0.885    c-0.252,0.244-0.531,0.44-0.84,0.589c-0.438,0.209-0.887,0.313-1.348,0.313c-0.464,0-0.802-0.079-1.014-0.236    c-0.211-0.158-0.316-0.332-0.316-0.522c0-0.107,0.044-0.201,0.131-0.283c0.088-0.082,0.198-0.123,0.332-0.123    c0.099,0,0.186,0.016,0.26,0.046s0.2,0.108,0.379,0.234c0.286,0.198,0.575,0.297,0.868,0.297c0.445,0,0.837-0.169,1.174-0.506    s0.505-0.747,0.505-1.23c0-0.468-0.15-0.905-0.451-1.311s-0.716-0.719-1.244-0.939c-0.415-0.171-0.98-0.271-1.696-0.297    l1.484-3.01H355.325z"/>
		<path fill="#212830" d="M356.507,137.771c0-0.884,0.133-1.644,0.399-2.282c0.267-0.638,0.62-1.112,1.062-1.425    c0.343-0.247,0.697-0.371,1.063-0.371c0.594,0,1.127,0.303,1.599,0.908c0.59,0.75,0.885,1.767,0.885,3.05    c0,0.898-0.129,1.662-0.388,2.29s-0.59,1.084-0.991,1.368c-0.401,0.283-0.789,0.425-1.162,0.425c-0.738,0-1.353-0.436-1.844-1.308    C356.714,139.692,356.507,138.807,356.507,137.771z M357.626,137.914c0,1.066,0.131,1.936,0.394,2.61    c0.217,0.567,0.54,0.851,0.971,0.851c0.205,0,0.419-0.093,0.64-0.277s0.388-0.494,0.502-0.928c0.176-0.655,0.263-1.578,0.263-2.77    c0-0.884-0.091-1.62-0.273-2.211c-0.138-0.438-0.314-0.748-0.531-0.931c-0.156-0.125-0.345-0.188-0.565-0.188    c-0.259,0-0.489,0.116-0.69,0.349c-0.274,0.316-0.461,0.813-0.56,1.49C357.675,136.587,357.626,137.256,357.626,137.914z"/>
	</g>
	
		<line fill="none" stroke="#212830" stroke-width="0.5" stroke-linecap="square" stroke-miterlimit="10" x1="341.84" y1="130.119" x2="341.84" y2="130.119"/>
	
		<line fill="none" stroke="#212830" stroke-width="0.5" stroke-linecap="square" stroke-miterlimit="10" x1="365.535" y1="130.119" x2="365.535" y2="130.119"/>
	
		<line fill="none" stroke="#212830" stroke-width="0.5" stroke-linecap="square" stroke-miterlimit="10" x1="365.535" y1="145.699" x2="365.535" y2="145.699"/>
	<polygon fill="none" stroke="#212830" stroke-width="0.5" stroke-linecap="square" stroke-miterlimit="10" points="360.593,144.86    360.593,146.493 365.535,145.699 360.593,144.86  "/>
	
		<line fill="none" stroke="#212830" stroke-width="0.5" stroke-linecap="square" stroke-miterlimit="10" x1="383.318" y1="91.632" x2="383.318" y2="111.581"/>
	
		<line fill="none" stroke="#212830" stroke-width="0.5" stroke-linecap="square" stroke-miterlimit="10" x1="419.502" y1="91.632" x2="419.502" y2="111.581"/>
	
		<line fill="none" stroke="#212830" stroke-width="0.5" stroke-linecap="square" stroke-miterlimit="10" x1="388.261" y1="107.653" x2="414.561" y2="107.653"/>
	<polygon fill-rule="evenodd" clip-rule="evenodd" fill="#212830" points="388.261,106.814 388.261,108.447 383.318,107.653  "/>
	<polygon fill="none" stroke="#212830" stroke-width="0.5" stroke-linecap="square" stroke-miterlimit="10" points="   388.261,106.814 388.261,108.447 383.318,107.653 388.261,106.814  "/>
	<polygon fill-rule="evenodd" clip-rule="evenodd" fill="#212830" points="414.561,106.814 414.561,108.447 419.502,107.653  "/>
	<g>
		<path fill="#212830" d="M398.064,102.061l-0.542,1.49h-4.568v-0.211c1.344-1.227,2.29-2.228,2.838-3.004    c0.548-0.777,0.822-1.487,0.822-2.131c0-0.491-0.15-0.895-0.451-1.211c-0.301-0.315-0.66-0.474-1.079-0.474    c-0.381,0-0.723,0.111-1.024,0.334c-0.303,0.223-0.526,0.55-0.671,0.979h-0.212c0.096-0.704,0.34-1.245,0.734-1.622    c0.394-0.377,0.886-0.565,1.476-0.565c0.628,0,1.152,0.202,1.573,0.605c0.42,0.403,0.631,0.88,0.631,1.428    c0,0.393-0.092,0.784-0.274,1.177c-0.281,0.616-0.738,1.27-1.37,1.959c-0.948,1.035-1.54,1.66-1.775,1.873h2.021    c0.411,0,0.7-0.016,0.865-0.046c0.166-0.03,0.315-0.092,0.448-0.186c0.134-0.093,0.249-0.226,0.349-0.396H398.064z"/>
		<path fill="#212830" d="M398.984,99.725c0-0.884,0.133-1.644,0.399-2.282c0.267-0.638,0.62-1.112,1.062-1.425    c0.343-0.247,0.697-0.371,1.063-0.371c0.594,0,1.127,0.303,1.599,0.908c0.59,0.75,0.885,1.767,0.885,3.05    c0,0.898-0.129,1.662-0.388,2.29s-0.59,1.084-0.991,1.368c-0.401,0.283-0.789,0.425-1.162,0.425c-0.738,0-1.353-0.436-1.844-1.308    C399.191,101.646,398.984,100.76,398.984,99.725z M400.104,99.867c0,1.066,0.131,1.936,0.394,2.61    c0.217,0.567,0.54,0.851,0.971,0.851c0.205,0,0.419-0.093,0.64-0.277s0.388-0.494,0.502-0.928c0.176-0.655,0.263-1.578,0.263-2.77    c0-0.884-0.091-1.62-0.273-2.211c-0.138-0.438-0.314-0.748-0.531-0.931c-0.156-0.125-0.345-0.188-0.565-0.188    c-0.259,0-0.489,0.116-0.69,0.349c-0.274,0.316-0.461,0.813-0.56,1.49C400.152,98.54,400.104,99.209,400.104,99.867z"/>
		<path fill="#212830" d="M404.819,99.725c0-0.884,0.133-1.644,0.399-2.282c0.267-0.638,0.62-1.112,1.062-1.425    c0.343-0.247,0.697-0.371,1.063-0.371c0.594,0,1.127,0.303,1.599,0.908c0.59,0.75,0.885,1.767,0.885,3.05    c0,0.898-0.129,1.662-0.388,2.29s-0.59,1.084-0.991,1.368c-0.401,0.283-0.789,0.425-1.162,0.425c-0.738,0-1.353-0.436-1.844-1.308    C405.026,101.646,404.819,100.76,404.819,99.725z M405.938,99.867c0,1.066,0.131,1.936,0.394,2.61    c0.217,0.567,0.54,0.851,0.971,0.851c0.205,0,0.419-0.093,0.64-0.277s0.388-0.494,0.502-0.928c0.176-0.655,0.263-1.578,0.263-2.77    c0-0.884-0.091-1.62-0.273-2.211c-0.138-0.438-0.314-0.748-0.531-0.931c-0.156-0.125-0.345-0.188-0.565-0.188    c-0.259,0-0.489,0.116-0.69,0.349c-0.274,0.316-0.461,0.813-0.56,1.49C405.987,98.54,405.938,99.209,405.938,99.867z"/>
	</g>
	
		<line fill="none" stroke="#212830" stroke-width="0.5" stroke-linecap="square" stroke-miterlimit="10" x1="383.318" y1="84.702" x2="383.318" y2="84.702"/>
	
		<line fill="none" stroke="#212830" stroke-width="0.5" stroke-linecap="square" stroke-miterlimit="10" x1="419.502" y1="84.702" x2="419.502" y2="84.702"/>
	
		<line fill="none" stroke="#212830" stroke-width="0.5" stroke-linecap="square" stroke-miterlimit="10" x1="419.502" y1="107.653" x2="419.502" y2="107.653"/>
	<polygon fill="none" stroke="#212830" stroke-width="0.5" stroke-linecap="square" stroke-miterlimit="10" points="   414.561,106.814 414.561,108.447 419.502,107.653 414.561,106.814  "/>
	
		<line fill="none" stroke="#212830" stroke-width="0.5" stroke-linecap="square" stroke-miterlimit="10" x1="426.43" y1="33.989" x2="450.17" y2="33.989"/>
	
		<line fill="none" stroke="#212830" stroke-width="0.5" stroke-linecap="square" stroke-miterlimit="10" x1="426.43" y1="84.702" x2="450.17" y2="84.702"/>
	
		<line fill="none" stroke="#212830" stroke-width="0.5" stroke-linecap="square" stroke-miterlimit="10" x1="446.243" y1="38.932" x2="446.243" y2="79.715"/>
	<polygon fill-rule="evenodd" clip-rule="evenodd" fill="#212830" points="445.404,38.932 447.037,38.932 446.243,33.989  "/>
	<polygon fill="none" stroke="#212830" stroke-width="0.5" stroke-linecap="square" stroke-miterlimit="10" points="445.404,38.932    447.037,38.932 446.243,33.989 445.404,38.932  "/>
	<polygon fill-rule="evenodd" clip-rule="evenodd" fill="#212830" points="445.404,79.715 447.037,79.715 446.243,84.702  "/>
	<g>
		<path fill="#212830" d="M435.824,67.551c-0.521-0.221-0.924-0.5-1.207-0.837c-0.284-0.337-0.426-0.757-0.426-1.259    c0-0.621,0.202-1.097,0.605-1.428c0.301-0.251,0.622-0.377,0.965-0.377c0.563,0,1.146,0.354,1.747,1.063    c0.187-0.476,0.453-0.836,0.8-1.08c0.346-0.244,0.753-0.366,1.222-0.366c0.67,0,1.25,0.213,1.741,0.64    c0.64,0.556,0.959,1.361,0.959,2.416c0,0.521-0.064,0.876-0.193,1.065c-0.13,0.188-0.269,0.283-0.417,0.283    c-0.11,0-0.208-0.044-0.291-0.134c-0.084-0.089-0.126-0.197-0.126-0.322c0-0.095,0.016-0.192,0.046-0.292    c0.019-0.064,0.088-0.211,0.208-0.44c0.12-0.228,0.191-0.386,0.214-0.474c0.042-0.141,0.063-0.292,0.063-0.451    c0-0.389-0.15-0.727-0.451-1.014c-0.301-0.288-0.657-0.432-1.068-0.432c-0.3,0-0.594,0.067-0.879,0.2    c-0.213,0.099-0.375,0.208-0.485,0.326c-0.152,0.164-0.29,0.388-0.414,0.674c-0.123,0.285-0.186,0.577-0.186,0.874v0.183h-0.171    c-0.038-0.3-0.146-0.602-0.326-0.905c-0.179-0.303-0.394-0.523-0.645-0.66c-0.252-0.137-0.527-0.206-0.828-0.206    c-0.392,0-0.709,0.123-0.951,0.368c-0.241,0.246-0.362,0.551-0.362,0.917c0,0.59,0.316,1.083,0.948,1.479L435.824,67.551z"/>
		<path fill="#212830" d="M438.269,61.862c-0.884,0-1.644-0.133-2.281-0.399s-1.112-0.621-1.425-1.063    c-0.247-0.343-0.371-0.697-0.371-1.062c0-0.594,0.303-1.127,0.908-1.599c0.75-0.59,1.766-0.885,3.049-0.885    c0.898,0,1.661,0.129,2.289,0.388c0.629,0.259,1.084,0.589,1.368,0.991c0.283,0.401,0.425,0.789,0.425,1.162    c0,0.739-0.436,1.354-1.308,1.845C440.188,61.655,439.304,61.862,438.269,61.862z M438.411,60.743    c1.065,0,1.936-0.131,2.609-0.394c0.567-0.217,0.851-0.541,0.851-0.971c0-0.206-0.092-0.419-0.277-0.64    c-0.185-0.221-0.493-0.389-0.928-0.503c-0.654-0.175-1.577-0.263-2.769-0.263c-0.884,0-1.62,0.091-2.21,0.274    c-0.438,0.137-0.748,0.314-0.931,0.531c-0.126,0.156-0.188,0.344-0.188,0.565c0,0.259,0.116,0.489,0.349,0.691    c0.315,0.274,0.813,0.46,1.49,0.56C437.084,60.693,437.753,60.743,438.411,60.743z"/>
		<path fill="#212830" d="M438.269,56.025c-0.884,0-1.644-0.133-2.281-0.399s-1.112-0.621-1.425-1.063    c-0.247-0.343-0.371-0.697-0.371-1.062c0-0.594,0.303-1.127,0.908-1.599c0.75-0.59,1.766-0.885,3.049-0.885    c0.898,0,1.661,0.129,2.289,0.388c0.629,0.259,1.084,0.589,1.368,0.991c0.283,0.401,0.425,0.789,0.425,1.162    c0,0.739-0.436,1.354-1.308,1.845C440.188,55.818,439.304,56.025,438.269,56.025z M438.411,54.906    c1.065,0,1.936-0.131,2.609-0.394c0.567-0.217,0.851-0.541,0.851-0.971c0-0.206-0.092-0.419-0.277-0.64    c-0.185-0.221-0.493-0.389-0.928-0.503c-0.654-0.175-1.577-0.263-2.769-0.263c-0.884,0-1.62,0.091-2.21,0.274    c-0.438,0.137-0.748,0.314-0.931,0.531c-0.126,0.156-0.188,0.344-0.188,0.565c0,0.259,0.116,0.489,0.349,0.691    c0.315,0.274,0.813,0.46,1.49,0.56C437.084,54.857,437.753,54.906,438.411,54.906z"/>
	</g>
	
		<line fill="none" stroke="#212830" stroke-width="0.5" stroke-linecap="square" stroke-miterlimit="10" x1="419.502" y1="33.989" x2="419.502" y2="33.989"/>
	
		<line fill="none" stroke="#212830" stroke-width="0.5" stroke-linecap="square" stroke-miterlimit="10" x1="419.502" y1="84.702" x2="419.502" y2="84.702"/>
	
		<line fill="none" stroke="#212830" stroke-width="0.5" stroke-linecap="square" stroke-miterlimit="10" x1="446.243" y1="84.702" x2="446.243" y2="84.702"/>
	<polygon fill="none" stroke="#212830" stroke-width="0.5" stroke-linecap="square" stroke-miterlimit="10" points="445.404,79.715    447.037,79.715 446.243,84.702 445.404,79.715  "/>
	
		<line fill="none" stroke="#212830" stroke-width="0.5" stroke-linecap="square" stroke-miterlimit="10" x1="95.745" y1="13.642" x2="41.513" y2="13.642"/>
	
		<line fill="none" stroke="#212830" stroke-width="0.5" stroke-linecap="square" stroke-miterlimit="10" x1="88.332" y1="104.961" x2="143.49" y2="104.961"/>
	
		<line fill="none" stroke="#212830" stroke-width="0.5" stroke-linecap="square" stroke-miterlimit="10" x1="390.555" y1="75.478" x2="390.555" y2="44.538"/>
	<polygon fill="none" stroke="#212830" stroke-width="0.5" stroke-linecap="square" stroke-miterlimit="10" points="411.56,73.491    411.516,73.006 411.339,72.608 411.074,72.211 410.721,71.902 410.324,71.682 409.839,71.549 409.397,71.549 408.912,71.682    408.515,71.902 408.162,72.211 407.896,72.608 407.721,73.006 407.677,73.491 407.721,73.977 407.896,74.374 408.162,74.771    408.515,75.08 408.912,75.301 409.397,75.434 409.839,75.434 410.324,75.301 410.721,75.08 411.074,74.771 411.339,74.374    411.516,73.977 411.56,73.491  "/>
	<polygon fill-rule="evenodd" clip-rule="evenodd" fill="#212830" points="409.441,44.538 410.147,44.582 409.088,44.582  "/>
	<polygon fill-rule="evenodd" clip-rule="evenodd" fill="#212830" points="409.441,44.538 409.795,44.538 410.147,44.582  "/>
	<polygon fill-rule="evenodd" clip-rule="evenodd" fill="#212830" points="392.32,44.538 393.07,44.582 391.967,44.582  "/>
	<polygon fill-rule="evenodd" clip-rule="evenodd" fill="#212830" points="392.32,44.538 392.673,44.538 393.07,44.582  "/>
	<polygon fill-rule="evenodd" clip-rule="evenodd" fill="#212830" points="409.088,44.582 410.5,44.714 408.735,44.714  "/>
	<polygon fill-rule="evenodd" clip-rule="evenodd" fill="#212830" points="409.088,44.582 410.147,44.582 410.5,44.714  "/>
	<polygon fill-rule="evenodd" clip-rule="evenodd" fill="#212830" points="391.967,44.582 393.379,44.714 391.614,44.714  "/>
	<polygon fill-rule="evenodd" clip-rule="evenodd" fill="#212830" points="391.967,44.582 393.07,44.582 393.379,44.714  "/>
	<polygon fill-rule="evenodd" clip-rule="evenodd" fill="#212830" points="408.735,44.714 410.81,44.935 408.427,44.935  "/>
	<polygon fill-rule="evenodd" clip-rule="evenodd" fill="#212830" points="408.735,44.714 410.5,44.714 410.81,44.935  "/>
	<polygon fill-rule="evenodd" clip-rule="evenodd" fill="#212830" points="391.614,44.714 393.688,44.935 391.306,44.935  "/>
	<polygon fill-rule="evenodd" clip-rule="evenodd" fill="#212830" points="391.614,44.714 393.379,44.714 393.688,44.935  "/>
	<polygon fill-rule="evenodd" clip-rule="evenodd" fill="#212830" points="408.427,44.935 411.074,45.156 408.162,45.156  "/>
	<polygon fill-rule="evenodd" clip-rule="evenodd" fill="#212830" points="408.427,44.935 410.81,44.935 411.074,45.156  "/>
	<polygon fill-rule="evenodd" clip-rule="evenodd" fill="#212830" points="391.306,44.935 393.953,45.156 391.041,45.156  "/>
	<polygon fill-rule="evenodd" clip-rule="evenodd" fill="#212830" points="391.306,44.935 393.688,44.935 393.953,45.156  "/>
	<polygon fill-rule="evenodd" clip-rule="evenodd" fill="#212830" points="408.162,45.156 411.295,45.464 407.941,45.464  "/>
	<polygon fill-rule="evenodd" clip-rule="evenodd" fill="#212830" points="408.162,45.156 411.074,45.156 411.295,45.464  "/>
	<polygon fill-rule="evenodd" clip-rule="evenodd" fill="#212830" points="391.041,45.156 394.174,45.464 390.82,45.464  "/>
	<polygon fill-rule="evenodd" clip-rule="evenodd" fill="#212830" points="391.041,45.156 393.953,45.156 394.174,45.464  "/>
	<polygon fill-rule="evenodd" clip-rule="evenodd" fill="#212830" points="407.941,45.464 411.472,45.773 407.765,45.773  "/>
	<polygon fill-rule="evenodd" clip-rule="evenodd" fill="#212830" points="407.941,45.464 411.295,45.464 411.472,45.773  "/>
	<polygon fill-rule="evenodd" clip-rule="evenodd" fill="#212830" points="390.82,45.464 394.35,45.773 390.688,45.773  "/>
	<polygon fill-rule="evenodd" clip-rule="evenodd" fill="#212830" points="390.82,45.464 394.174,45.464 394.35,45.773  "/>
	<polygon fill-rule="evenodd" clip-rule="evenodd" fill="#212830" points="407.765,45.773 411.56,46.126 407.677,46.126  "/>
	<polygon fill-rule="evenodd" clip-rule="evenodd" fill="#212830" points="407.765,45.773 411.472,45.773 411.56,46.126  "/>
	<polygon fill-rule="evenodd" clip-rule="evenodd" fill="#212830" points="390.688,45.773 394.438,46.126 390.555,46.126  "/>
	<polygon fill-rule="evenodd" clip-rule="evenodd" fill="#212830" points="390.688,45.773 394.35,45.773 394.438,46.126  "/>
	<polygon fill-rule="evenodd" clip-rule="evenodd" fill="#212830" points="407.677,46.126 411.604,46.524 407.632,46.524  "/>
	<polygon fill-rule="evenodd" clip-rule="evenodd" fill="#212830" points="407.677,46.126 411.56,46.126 411.604,46.524  "/>
	<polygon fill-rule="evenodd" clip-rule="evenodd" fill="#212830" points="390.555,46.126 394.482,46.524 390.555,46.524  "/>
	<polygon fill-rule="evenodd" clip-rule="evenodd" fill="#212830" points="390.555,46.126 394.438,46.126 394.482,46.524  "/>
	<polygon fill-rule="evenodd" clip-rule="evenodd" fill="#212830" points="407.632,46.524 411.56,46.877 407.677,46.877  "/>
	<polygon fill-rule="evenodd" clip-rule="evenodd" fill="#212830" points="407.632,46.524 411.604,46.524 411.56,46.877  "/>
	<polygon fill-rule="evenodd" clip-rule="evenodd" fill="#212830" points="390.555,46.524 394.438,46.877 390.555,46.877  "/>
	<polygon fill-rule="evenodd" clip-rule="evenodd" fill="#212830" points="390.555,46.524 394.482,46.524 394.438,46.877  "/>
	<polygon fill-rule="evenodd" clip-rule="evenodd" fill="#212830" points="407.677,46.877 411.472,47.23 407.765,47.23  "/>
	<polygon fill-rule="evenodd" clip-rule="evenodd" fill="#212830" points="407.677,46.877 411.56,46.877 411.472,47.23  "/>
	<polygon fill-rule="evenodd" clip-rule="evenodd" fill="#212830" points="390.555,46.877 394.35,47.23 390.688,47.23  "/>
	<polygon fill-rule="evenodd" clip-rule="evenodd" fill="#212830" points="390.555,46.877 394.438,46.877 394.35,47.23  "/>
	<polygon fill-rule="evenodd" clip-rule="evenodd" fill="#212830" points="407.765,47.23 411.295,47.539 407.941,47.539  "/>
	<polygon fill-rule="evenodd" clip-rule="evenodd" fill="#212830" points="407.765,47.23 411.472,47.23 411.295,47.539  "/>
	<polygon fill-rule="evenodd" clip-rule="evenodd" fill="#212830" points="390.688,47.23 394.174,47.539 390.82,47.539  "/>
	<polygon fill-rule="evenodd" clip-rule="evenodd" fill="#212830" points="390.688,47.23 394.35,47.23 394.174,47.539  "/>
	<polygon fill-rule="evenodd" clip-rule="evenodd" fill="#212830" points="407.941,47.539 411.074,47.848 408.162,47.848  "/>
	<polygon fill-rule="evenodd" clip-rule="evenodd" fill="#212830" points="407.941,47.539 411.295,47.539 411.074,47.848  "/>
	<polygon fill-rule="evenodd" clip-rule="evenodd" fill="#212830" points="390.82,47.539 393.953,47.848 391.041,47.848  "/>
	<polygon fill-rule="evenodd" clip-rule="evenodd" fill="#212830" points="390.82,47.539 394.174,47.539 393.953,47.848  "/>
	<polygon fill-rule="evenodd" clip-rule="evenodd" fill="#212830" points="408.162,47.848 410.81,48.068 408.427,48.068  "/>
	<polygon fill-rule="evenodd" clip-rule="evenodd" fill="#212830" points="408.162,47.848 411.074,47.848 410.81,48.068  "/>
	<polygon fill-rule="evenodd" clip-rule="evenodd" fill="#212830" points="391.041,47.848 393.688,48.068 391.306,48.068  "/>
	<polygon fill-rule="evenodd" clip-rule="evenodd" fill="#212830" points="391.041,47.848 393.953,47.848 393.688,48.068  "/>
	<polygon fill-rule="evenodd" clip-rule="evenodd" fill="#212830" points="408.427,48.068 410.5,48.289 408.735,48.289  "/>
	<polygon fill-rule="evenodd" clip-rule="evenodd" fill="#212830" points="408.427,48.068 410.81,48.068 410.5,48.289  "/>
	<polygon fill-rule="evenodd" clip-rule="evenodd" fill="#212830" points="391.306,48.068 393.379,48.289 391.614,48.289  "/>
	<polygon fill-rule="evenodd" clip-rule="evenodd" fill="#212830" points="391.306,48.068 393.688,48.068 393.379,48.289  "/>
	<polygon fill-rule="evenodd" clip-rule="evenodd" fill="#212830" points="408.735,48.289 410.147,48.422 409.088,48.422  "/>
	<polygon fill-rule="evenodd" clip-rule="evenodd" fill="#212830" points="408.735,48.289 410.5,48.289 410.147,48.422  "/>
	<polygon fill-rule="evenodd" clip-rule="evenodd" fill="#212830" points="391.614,48.289 393.07,48.422 391.967,48.422  "/>
	<polygon fill-rule="evenodd" clip-rule="evenodd" fill="#212830" points="391.614,48.289 393.379,48.289 393.07,48.422  "/>
	<polygon fill-rule="evenodd" clip-rule="evenodd" fill="#212830" points="409.088,48.422 409.795,48.466 409.441,48.466  "/>
	<polygon fill-rule="evenodd" clip-rule="evenodd" fill="#212830" points="409.088,48.422 410.147,48.422 409.795,48.466  "/>
	<polygon fill-rule="evenodd" clip-rule="evenodd" fill="#212830" points="391.967,48.422 392.673,48.466 392.32,48.466  "/>
	<polygon fill-rule="evenodd" clip-rule="evenodd" fill="#212830" points="391.967,48.422 393.07,48.422 392.673,48.466  "/>
	<polygon fill-rule="evenodd" clip-rule="evenodd" fill="#212830" points="409.441,71.505 410.147,71.593 409.088,71.593  "/>
	<polygon fill-rule="evenodd" clip-rule="evenodd" fill="#212830" points="409.441,71.505 409.795,71.505 410.147,71.593  "/>
	<polygon fill-rule="evenodd" clip-rule="evenodd" fill="#212830" points="400.881,71.505 401.587,71.593 400.527,71.593  "/>
	<polygon fill-rule="evenodd" clip-rule="evenodd" fill="#212830" points="400.881,71.505 401.233,71.505 401.587,71.593  "/>
	<polygon fill-rule="evenodd" clip-rule="evenodd" fill="#212830" points="392.32,71.505 393.07,71.593 391.967,71.593  "/>
	<polygon fill-rule="evenodd" clip-rule="evenodd" fill="#212830" points="392.32,71.505 392.673,71.505 393.07,71.593  "/>
	<polygon fill-rule="evenodd" clip-rule="evenodd" fill="#212830" points="409.088,71.593 410.5,71.726 408.735,71.726  "/>
	<polygon fill-rule="evenodd" clip-rule="evenodd" fill="#212830" points="409.088,71.593 410.147,71.593 410.5,71.726  "/>
	<polygon fill-rule="evenodd" clip-rule="evenodd" fill="#212830" points="400.527,71.593 401.939,71.726 400.175,71.726  "/>
	<polygon fill-rule="evenodd" clip-rule="evenodd" fill="#212830" points="400.527,71.593 401.587,71.593 401.939,71.726  "/>
	<polygon fill-rule="evenodd" clip-rule="evenodd" fill="#212830" points="391.967,71.593 393.379,71.726 391.614,71.726  "/>
	<polygon fill-rule="evenodd" clip-rule="evenodd" fill="#212830" points="391.967,71.593 393.07,71.593 393.379,71.726  "/>
	<polygon fill-rule="evenodd" clip-rule="evenodd" fill="#212830" points="408.735,71.726 410.81,71.902 408.427,71.902  "/>
	<polygon fill-rule="evenodd" clip-rule="evenodd" fill="#212830" points="408.735,71.726 410.5,71.726 410.81,71.902  "/>
	<polygon fill-rule="evenodd" clip-rule="evenodd" fill="#212830" points="400.175,71.726 402.249,71.902 399.866,71.902  "/>
	<polygon fill-rule="evenodd" clip-rule="evenodd" fill="#212830" points="400.175,71.726 401.939,71.726 402.249,71.902  "/>
	<polygon fill-rule="evenodd" clip-rule="evenodd" fill="#212830" points="391.614,71.726 393.688,71.902 391.306,71.902  "/>
	<polygon fill-rule="evenodd" clip-rule="evenodd" fill="#212830" points="391.614,71.726 393.379,71.726 393.688,71.902  "/>
	<polygon fill-rule="evenodd" clip-rule="evenodd" fill="#212830" points="408.427,71.902 411.074,72.167 408.162,72.167  "/>
	<polygon fill-rule="evenodd" clip-rule="evenodd" fill="#212830" points="408.427,71.902 410.81,71.902 411.074,72.167  "/>
	<polygon fill-rule="evenodd" clip-rule="evenodd" fill="#212830" points="399.866,71.902 402.514,72.167 399.602,72.167  "/>
	<polygon fill-rule="evenodd" clip-rule="evenodd" fill="#212830" points="399.866,71.902 402.249,71.902 402.514,72.167  "/>
	<polygon fill-rule="evenodd" clip-rule="evenodd" fill="#212830" points="391.306,71.902 393.953,72.167 391.041,72.167  "/>
	<polygon fill-rule="evenodd" clip-rule="evenodd" fill="#212830" points="391.306,71.902 393.688,71.902 393.953,72.167  "/>
	<polygon fill-rule="evenodd" clip-rule="evenodd" fill="#212830" points="408.162,72.167 411.295,72.432 407.941,72.432  "/>
	<polygon fill-rule="evenodd" clip-rule="evenodd" fill="#212830" points="408.162,72.167 411.074,72.167 411.295,72.432  "/>
	<polygon fill-rule="evenodd" clip-rule="evenodd" fill="#212830" points="399.602,72.167 402.734,72.432 399.381,72.432  "/>
	<polygon fill-rule="evenodd" clip-rule="evenodd" fill="#212830" points="399.602,72.167 402.514,72.167 402.734,72.432  "/>
	<polygon fill-rule="evenodd" clip-rule="evenodd" fill="#212830" points="391.041,72.167 394.174,72.432 390.82,72.432  "/>
	<polygon fill-rule="evenodd" clip-rule="evenodd" fill="#212830" points="391.041,72.167 393.953,72.167 394.174,72.432  "/>
	<polygon fill-rule="evenodd" clip-rule="evenodd" fill="#212830" points="407.941,72.432 411.472,72.785 407.765,72.785  "/>
	<polygon fill-rule="evenodd" clip-rule="evenodd" fill="#212830" points="407.941,72.432 411.295,72.432 411.472,72.785  "/>
	<polygon fill-rule="evenodd" clip-rule="evenodd" fill="#212830" points="399.381,72.432 402.91,72.785 399.248,72.785  "/>
	<polygon fill-rule="evenodd" clip-rule="evenodd" fill="#212830" points="399.381,72.432 402.734,72.432 402.91,72.785  "/>
	<polygon fill-rule="evenodd" clip-rule="evenodd" fill="#212830" points="390.82,72.432 394.35,72.785 390.688,72.785  "/>
	<polygon fill-rule="evenodd" clip-rule="evenodd" fill="#212830" points="390.82,72.432 394.174,72.432 394.35,72.785  "/>
	<polygon fill-rule="evenodd" clip-rule="evenodd" fill="#212830" points="407.765,72.785 411.56,73.138 407.677,73.138  "/>
	<polygon fill-rule="evenodd" clip-rule="evenodd" fill="#212830" points="407.765,72.785 411.472,72.785 411.56,73.138  "/>
	<polygon fill-rule="evenodd" clip-rule="evenodd" fill="#212830" points="399.248,72.785 402.999,73.138 399.116,73.138  "/>
	<polygon fill-rule="evenodd" clip-rule="evenodd" fill="#212830" points="399.248,72.785 402.91,72.785 402.999,73.138  "/>
	<polygon fill-rule="evenodd" clip-rule="evenodd" fill="#212830" points="390.688,72.785 394.438,73.138 390.555,73.138  "/>
	<polygon fill-rule="evenodd" clip-rule="evenodd" fill="#212830" points="390.688,72.785 394.35,72.785 394.438,73.138  "/>
	<polygon fill-rule="evenodd" clip-rule="evenodd" fill="#212830" points="407.677,73.138 411.604,73.491 407.632,73.491  "/>
	<polygon fill-rule="evenodd" clip-rule="evenodd" fill="#212830" points="407.677,73.138 411.56,73.138 411.604,73.491  "/>
	<polygon fill-rule="evenodd" clip-rule="evenodd" fill="#212830" points="399.116,73.138 403.043,73.491 399.116,73.491  "/>
	<polygon fill-rule="evenodd" clip-rule="evenodd" fill="#212830" points="399.116,73.138 402.999,73.138 403.043,73.491  "/>
	<polygon fill-rule="evenodd" clip-rule="evenodd" fill="#212830" points="390.555,73.138 394.482,73.491 390.555,73.491  "/>
	<polygon fill-rule="evenodd" clip-rule="evenodd" fill="#212830" points="390.555,73.138 394.438,73.138 394.482,73.491  "/>
	<polygon fill-rule="evenodd" clip-rule="evenodd" fill="#212830" points="407.632,73.491 411.56,73.844 407.677,73.844  "/>
	<polygon fill-rule="evenodd" clip-rule="evenodd" fill="#212830" points="407.632,73.491 411.604,73.491 411.56,73.844  "/>
	<polygon fill-rule="evenodd" clip-rule="evenodd" fill="#212830" points="399.116,73.491 402.999,73.844 399.116,73.844  "/>
	<polygon fill-rule="evenodd" clip-rule="evenodd" fill="#212830" points="399.116,73.491 403.043,73.491 402.999,73.844  "/>
	<polygon fill-rule="evenodd" clip-rule="evenodd" fill="#212830" points="390.555,73.491 394.438,73.844 390.555,73.844  "/>
	<polygon fill-rule="evenodd" clip-rule="evenodd" fill="#212830" points="390.555,73.491 394.482,73.491 394.438,73.844  "/>
	<polygon fill-rule="evenodd" clip-rule="evenodd" fill="#212830" points="407.677,73.844 411.472,74.198 407.765,74.198  "/>
	<polygon fill-rule="evenodd" clip-rule="evenodd" fill="#212830" points="407.677,73.844 411.56,73.844 411.472,74.198  "/>
	<polygon fill-rule="evenodd" clip-rule="evenodd" fill="#212830" points="399.116,73.844 402.91,74.198 399.248,74.198  "/>
	<polygon fill-rule="evenodd" clip-rule="evenodd" fill="#212830" points="399.116,73.844 402.999,73.844 402.91,74.198  "/>
	<polygon fill-rule="evenodd" clip-rule="evenodd" fill="#212830" points="390.555,73.844 394.35,74.198 390.688,74.198  "/>
	<polygon fill-rule="evenodd" clip-rule="evenodd" fill="#212830" points="390.555,73.844 394.438,73.844 394.35,74.198  "/>
	<polygon fill-rule="evenodd" clip-rule="evenodd" fill="#212830" points="407.765,74.198 411.295,74.551 407.941,74.551  "/>
	<polygon fill-rule="evenodd" clip-rule="evenodd" fill="#212830" points="407.765,74.198 411.472,74.198 411.295,74.551  "/>
	<polygon fill-rule="evenodd" clip-rule="evenodd" fill="#212830" points="399.248,74.198 402.734,74.551 399.381,74.551  "/>
	<polygon fill-rule="evenodd" clip-rule="evenodd" fill="#212830" points="399.248,74.198 402.91,74.198 402.734,74.551  "/>
	<polygon fill-rule="evenodd" clip-rule="evenodd" fill="#212830" points="390.688,74.198 394.174,74.551 390.82,74.551  "/>
	<polygon fill-rule="evenodd" clip-rule="evenodd" fill="#212830" points="390.688,74.198 394.35,74.198 394.174,74.551  "/>
	<polygon fill-rule="evenodd" clip-rule="evenodd" fill="#212830" points="407.941,74.551 411.074,74.815 408.162,74.815  "/>
	<polygon fill-rule="evenodd" clip-rule="evenodd" fill="#212830" points="407.941,74.551 411.295,74.551 411.074,74.815  "/>
	<polygon fill-rule="evenodd" clip-rule="evenodd" fill="#212830" points="399.381,74.551 402.514,74.815 399.602,74.815  "/>
	<polygon fill-rule="evenodd" clip-rule="evenodd" fill="#212830" points="399.381,74.551 402.734,74.551 402.514,74.815  "/>
	<polygon fill-rule="evenodd" clip-rule="evenodd" fill="#212830" points="390.82,74.551 393.953,74.815 391.041,74.815  "/>
	<polygon fill-rule="evenodd" clip-rule="evenodd" fill="#212830" points="390.82,74.551 394.174,74.551 393.953,74.815  "/>
	<polygon fill-rule="evenodd" clip-rule="evenodd" fill="#212830" points="408.162,74.815 410.81,75.08 408.427,75.08  "/>
	<polygon fill-rule="evenodd" clip-rule="evenodd" fill="#212830" points="408.162,74.815 411.074,74.815 410.81,75.08  "/>
	<polygon fill-rule="evenodd" clip-rule="evenodd" fill="#212830" points="399.602,74.815 402.249,75.08 399.866,75.08  "/>
	<polygon fill-rule="evenodd" clip-rule="evenodd" fill="#212830" points="399.602,74.815 402.514,74.815 402.249,75.08  "/>
	<polygon fill-rule="evenodd" clip-rule="evenodd" fill="#212830" points="391.041,74.815 393.688,75.08 391.306,75.08  "/>
	<polygon fill-rule="evenodd" clip-rule="evenodd" fill="#212830" points="391.041,74.815 393.953,74.815 393.688,75.08  "/>
	<polygon fill-rule="evenodd" clip-rule="evenodd" fill="#212830" points="408.427,75.08 410.5,75.257 408.735,75.257  "/>
	<polygon fill-rule="evenodd" clip-rule="evenodd" fill="#212830" points="408.427,75.08 410.81,75.08 410.5,75.257  "/>
	<polygon fill-rule="evenodd" clip-rule="evenodd" fill="#212830" points="399.866,75.08 401.939,75.257 400.175,75.257  "/>
	<polygon fill-rule="evenodd" clip-rule="evenodd" fill="#212830" points="399.866,75.08 402.249,75.08 401.939,75.257  "/>
	<polygon fill-rule="evenodd" clip-rule="evenodd" fill="#212830" points="391.306,75.08 393.379,75.257 391.614,75.257  "/>
	<polygon fill-rule="evenodd" clip-rule="evenodd" fill="#212830" points="391.306,75.08 393.688,75.08 393.379,75.257  "/>
	<polygon fill-rule="evenodd" clip-rule="evenodd" fill="#212830" points="408.735,75.257 410.147,75.389 409.088,75.389  "/>
	<polygon fill-rule="evenodd" clip-rule="evenodd" fill="#212830" points="408.735,75.257 410.5,75.257 410.147,75.389  "/>
	<polygon fill-rule="evenodd" clip-rule="evenodd" fill="#212830" points="400.175,75.257 401.587,75.389 400.527,75.389  "/>
	<polygon fill-rule="evenodd" clip-rule="evenodd" fill="#212830" points="400.175,75.257 401.939,75.257 401.587,75.389  "/>
	<polygon fill-rule="evenodd" clip-rule="evenodd" fill="#212830" points="391.614,75.257 393.07,75.389 391.967,75.389  "/>
	<polygon fill-rule="evenodd" clip-rule="evenodd" fill="#212830" points="391.614,75.257 393.379,75.257 393.07,75.389  "/>
	<polygon fill-rule="evenodd" clip-rule="evenodd" fill="#212830" points="409.088,75.389 409.795,75.478 409.441,75.478  "/>
	<polygon fill-rule="evenodd" clip-rule="evenodd" fill="#212830" points="409.088,75.389 410.147,75.389 409.795,75.478  "/>
	<polygon fill-rule="evenodd" clip-rule="evenodd" fill="#212830" points="400.527,75.389 401.233,75.478 400.881,75.478  "/>
	<polygon fill-rule="evenodd" clip-rule="evenodd" fill="#212830" points="400.527,75.389 401.587,75.389 401.233,75.478  "/>
	<polygon fill-rule="evenodd" clip-rule="evenodd" fill="#212830" points="391.967,75.389 392.673,75.478 392.32,75.478  "/>
	<polygon fill-rule="evenodd" clip-rule="evenodd" fill="#212830" points="391.967,75.389 393.07,75.389 392.673,75.478  "/>
	<polygon fill="none" stroke="#212830" stroke-width="0.5" stroke-linecap="square" stroke-miterlimit="10" points="394.482,73.491    394.438,73.138 394.35,72.785 394.174,72.432 393.953,72.167 393.688,71.902 393.379,71.726 393.07,71.593 392.673,71.505    392.32,71.505 391.967,71.593 391.614,71.726 391.306,71.902 391.041,72.167 390.82,72.432 390.688,72.785 390.555,73.138    390.555,73.491 390.555,73.844 390.688,74.198 390.82,74.551 391.041,74.815 391.306,75.08 391.614,75.257 391.967,75.389    392.32,75.478 392.673,75.478 393.07,75.389 393.379,75.257 393.688,75.08 393.953,74.815 394.174,74.551 394.35,74.198    394.438,73.844 394.482,73.491  "/>
	<polygon fill="none" stroke="#212830" stroke-width="0.5" stroke-linecap="square" stroke-miterlimit="10" points="403.043,73.491    402.999,73.138 402.91,72.785 402.734,72.432 402.514,72.167 402.249,71.902 401.939,71.726 401.587,71.593 401.233,71.505    400.881,71.505 400.527,71.593 400.175,71.726 399.866,71.902 399.602,72.167 399.381,72.432 399.248,72.785 399.116,73.138    399.116,73.491 399.116,73.844 399.248,74.198 399.381,74.551 399.602,74.815 399.866,75.08 400.175,75.257 400.527,75.389    400.881,75.478 401.233,75.478 401.587,75.389 401.939,75.257 402.249,75.08 402.514,74.815 402.734,74.551 402.91,74.198    402.999,73.844 403.043,73.491  "/>
	<polygon fill="none" stroke="#212830" stroke-width="0.5" stroke-linecap="square" stroke-miterlimit="10" points="411.604,73.491    411.56,73.138 411.472,72.785 411.295,72.432 411.074,72.167 410.81,71.902 410.5,71.726 410.147,71.593 409.795,71.505    409.441,71.505 409.088,71.593 408.735,71.726 408.427,71.902 408.162,72.167 407.941,72.432 407.765,72.785 407.677,73.138    407.632,73.491 407.677,73.844 407.765,74.198 407.941,74.551 408.162,74.815 408.427,75.08 408.735,75.257 409.088,75.389    409.441,75.478 409.795,75.478 410.147,75.389 410.5,75.257 410.81,75.08 411.074,74.815 411.295,74.551 411.472,74.198    411.56,73.844 411.604,73.491  "/>
	<polygon fill="none" stroke="#212830" stroke-width="0.5" stroke-linecap="square" stroke-miterlimit="10" points="411.604,46.524    411.56,46.126 411.472,45.773 411.295,45.464 411.074,45.156 410.81,44.935 410.5,44.714 410.147,44.582 409.795,44.538    409.441,44.538 409.088,44.582 408.735,44.714 408.427,44.935 408.162,45.156 407.941,45.464 407.765,45.773 407.677,46.126    407.632,46.524 407.677,46.877 407.765,47.23 407.941,47.539 408.162,47.848 408.427,48.068 408.735,48.289 409.088,48.422    409.441,48.466 409.795,48.466 410.147,48.422 410.5,48.289 410.81,48.068 411.074,47.848 411.295,47.539 411.472,47.23    411.56,46.877 411.604,46.524  "/>
	<polygon fill="none" stroke="#212830" stroke-width="0.5" stroke-linecap="square" stroke-miterlimit="10" points="390.555,46.524    390.555,46.877 390.688,47.23 390.82,47.539 391.041,47.848 391.306,48.068 391.614,48.289 391.967,48.422 392.32,48.466    392.673,48.466 393.07,48.422 393.379,48.289 393.688,48.068 393.953,47.848 394.174,47.539 394.35,47.23 394.438,46.877    394.482,46.524 394.438,46.126 394.35,45.773 394.174,45.464 393.953,45.156 393.688,44.935 393.379,44.714 393.07,44.582    392.673,44.538 392.32,44.538 391.967,44.582 391.614,44.714 391.306,44.935 391.041,45.156 390.82,45.464 390.688,45.773    390.555,46.126 390.555,46.524  "/>
	
		<line fill="none" stroke="#212830" stroke-width="0.5" stroke-linecap="square" stroke-miterlimit="10" x1="198.604" y1="44.538" x2="214.357" y2="13.642"/>
	
		<line fill="none" stroke="#212830" stroke-width="0.5" stroke-linecap="square" stroke-miterlimit="10" x1="390.555" y1="44.538" x2="411.604" y2="44.538"/>
	<polygon fill="none" stroke="#212830" stroke-width="0.5" stroke-linecap="square" stroke-miterlimit="10" points="394.438,46.524    394.395,46.038 394.218,45.641 393.953,45.244 393.6,44.935 393.203,44.714 392.718,44.582 392.276,44.582 391.791,44.714    391.394,44.935 391.041,45.244 390.775,45.641 390.6,46.038 390.555,46.524 390.6,47.009 390.775,47.407 391.041,47.804    391.394,48.113 391.791,48.333 392.276,48.466 392.718,48.466 393.203,48.333 393.6,48.113 393.953,47.804 394.218,47.407    394.395,47.009 394.438,46.524  "/>
	<polygon fill="none" stroke="#212830" stroke-width="0.5" stroke-linecap="square" stroke-miterlimit="10" points="402.999,73.491    402.955,73.006 402.778,72.608 402.514,72.211 402.16,71.902 401.764,71.682 401.278,71.549 400.837,71.549 400.352,71.682    399.954,71.902 399.602,72.211 399.336,72.608 399.16,73.006 399.116,73.491 399.16,73.977 399.336,74.374 399.602,74.771    399.954,75.08 400.352,75.301 400.837,75.434 401.278,75.434 401.764,75.301 402.16,75.08 402.514,74.771 402.778,74.374    402.955,73.977 402.999,73.491  "/>
	
		<line fill="none" stroke="#212830" stroke-width="0.5" stroke-linecap="square" stroke-miterlimit="10" x1="25.23" y1="137.048" x2="25.23" y2="149.627"/>
	
		<line fill="none" stroke="#212830" stroke-width="0.5" stroke-linecap="square" stroke-miterlimit="10" x1="341.84" y1="137.048" x2="341.84" y2="149.627"/>
	
		<line fill="none" stroke="#212830" stroke-width="0.5" stroke-linecap="square" stroke-miterlimit="10" x1="30.172" y1="145.699" x2="336.897" y2="145.699"/>
	<polygon fill-rule="evenodd" clip-rule="evenodd" fill="#212830" points="30.172,144.86 30.172,146.493 25.23,145.699  "/>
	<polygon fill="none" stroke="#212830" stroke-width="0.5" stroke-linecap="square" stroke-miterlimit="10" points="30.172,144.86    30.172,146.493 25.23,145.699 30.172,144.86  "/>
	<polygon fill-rule="evenodd" clip-rule="evenodd" fill="#212830" points="336.897,144.86 336.897,146.493 341.84,145.699  "/>
	<g>
		<path fill="#212830" d="M177.268,140.107l-0.542,1.49h-4.567v-0.211c1.343-1.227,2.29-2.228,2.837-3.004    c0.548-0.777,0.822-1.487,0.822-2.131c0-0.491-0.15-0.895-0.451-1.211c-0.301-0.315-0.66-0.474-1.079-0.474    c-0.38,0-0.722,0.111-1.025,0.334s-0.526,0.55-0.671,0.979h-0.211c0.095-0.704,0.339-1.245,0.733-1.622s0.886-0.565,1.476-0.565    c0.628,0,1.152,0.202,1.573,0.605c0.42,0.403,0.631,0.88,0.631,1.428c0,0.393-0.091,0.784-0.274,1.177    c-0.282,0.616-0.738,1.27-1.37,1.959c-0.948,1.035-1.54,1.66-1.776,1.873h2.021c0.411,0,0.699-0.016,0.865-0.046    s0.315-0.092,0.448-0.186c0.133-0.093,0.25-0.226,0.349-0.396H177.268z"/>
		<path fill="#212830" d="M178.941,133.854h4.151v0.217l-2.581,7.688h-0.64l2.313-6.974h-2.13c-0.43,0-0.736,0.052-0.919,0.154    c-0.319,0.175-0.577,0.445-0.771,0.812l-0.166-0.063L178.941,133.854z"/>
		<path fill="#212830" d="M184.022,137.771c0-0.884,0.133-1.644,0.4-2.282c0.266-0.638,0.62-1.112,1.062-1.425    c0.342-0.247,0.696-0.371,1.062-0.371c0.594,0,1.126,0.303,1.599,0.908c0.59,0.75,0.885,1.767,0.885,3.05    c0,0.898-0.13,1.662-0.389,2.29s-0.589,1.084-0.99,1.368c-0.402,0.283-0.789,0.425-1.162,0.425c-0.739,0-1.353-0.436-1.844-1.308    C184.229,139.692,184.022,138.807,184.022,137.771z M185.141,137.914c0,1.066,0.131,1.936,0.394,2.61    c0.217,0.567,0.541,0.851,0.971,0.851c0.206,0,0.418-0.093,0.64-0.277c0.221-0.185,0.388-0.494,0.502-0.928    c0.175-0.655,0.263-1.578,0.263-2.77c0-0.884-0.091-1.62-0.274-2.211c-0.137-0.438-0.314-0.748-0.531-0.931    c-0.156-0.125-0.345-0.188-0.565-0.188c-0.259,0-0.489,0.116-0.691,0.349c-0.274,0.316-0.46,0.813-0.56,1.49    S185.141,137.256,185.141,137.914z"/>
		<path fill="#212830" d="M189.857,137.771c0-0.884,0.133-1.644,0.4-2.282c0.266-0.638,0.62-1.112,1.062-1.425    c0.342-0.247,0.696-0.371,1.062-0.371c0.594,0,1.126,0.303,1.599,0.908c0.59,0.75,0.885,1.767,0.885,3.05    c0,0.898-0.13,1.662-0.389,2.29s-0.589,1.084-0.99,1.368c-0.402,0.283-0.789,0.425-1.162,0.425c-0.739,0-1.353-0.436-1.844-1.308    C190.065,139.692,189.857,138.807,189.857,137.771z M190.977,137.914c0,1.066,0.131,1.936,0.394,2.61    c0.217,0.567,0.541,0.851,0.971,0.851c0.206,0,0.418-0.093,0.64-0.277c0.221-0.185,0.388-0.494,0.502-0.928    c0.175-0.655,0.263-1.578,0.263-2.77c0-0.884-0.091-1.62-0.274-2.211c-0.137-0.438-0.314-0.748-0.531-0.931    c-0.156-0.125-0.345-0.188-0.565-0.188c-0.259,0-0.489,0.116-0.691,0.349c-0.274,0.316-0.46,0.813-0.56,1.49    S190.977,137.256,190.977,137.914z"/>
	</g>
	
		<line fill="none" stroke="#212830" stroke-width="0.5" stroke-linecap="square" stroke-miterlimit="10" x1="25.23" y1="130.119" x2="25.23" y2="130.119"/>
	
		<line fill="none" stroke="#212830" stroke-width="0.5" stroke-linecap="square" stroke-miterlimit="10" x1="341.84" y1="130.119" x2="341.84" y2="130.119"/>
	
		<line fill="none" stroke="#212830" stroke-width="0.5" stroke-linecap="square" stroke-miterlimit="10" x1="341.84" y1="145.699" x2="341.84" y2="145.699"/>
	<polygon fill="none" stroke="#212830" stroke-width="0.5" stroke-linecap="square" stroke-miterlimit="10" points="336.897,144.86    336.897,146.493 341.84,145.699 336.897,144.86  "/>
	<g>
		<path fill="#212830" d="M52.088,1.719c0.064-0.232,0.097-0.41,0.097-0.531c0-0.156-0.05-0.295-0.148-0.417    c-0.099-0.122-0.339-0.183-0.72-0.183l0.057-0.211h3.46l-0.057,0.211c-0.449,0.007-0.784,0.08-1.005,0.217    s-0.397,0.444-0.531,0.919c0.883,0.034,1.539,0.254,1.967,0.66c0.428,0.406,0.643,0.892,0.643,1.459    c0,0.788-0.346,1.467-1.037,2.039c-0.69,0.571-1.702,0.87-3.035,0.896c-0.061,0.248-0.091,0.432-0.091,0.554    c0,0.183,0.063,0.325,0.188,0.425c0.125,0.101,0.386,0.151,0.782,0.151l-0.063,0.211h-3.489L49.17,7.91    c0.415,0,0.733-0.074,0.954-0.223s0.386-0.451,0.497-0.908c-0.91-0.042-1.573-0.265-1.99-0.671    c-0.417-0.405-0.625-0.886-0.625-1.442c0-0.769,0.333-1.442,0.999-2.019S50.699,1.761,52.088,1.719z M52.002,2.044    c-0.883,0-1.591,0.286-2.124,0.857c-0.533,0.571-0.799,1.222-0.799,1.953c0,0.982,0.542,1.517,1.627,1.604L52.002,2.044z     M51.854,6.459c0.875,0,1.582-0.283,2.119-0.851c0.537-0.567,0.805-1.22,0.805-1.959c0-0.982-0.542-1.517-1.627-1.605    L51.854,6.459z"/>
	</g>
	<g>
		<path fill="#212830" d="M61.218,0.217v0.211c-0.502,0.05-0.913,0.149-1.23,0.3s-0.632,0.38-0.942,0.688    c-0.31,0.308-0.567,0.652-0.771,1.031s-0.374,0.829-0.511,1.351c0.548-0.377,1.098-0.565,1.65-0.565    c0.529,0,0.988,0.213,1.376,0.64s0.582,0.975,0.582,1.645c0,0.647-0.196,1.237-0.588,1.77c-0.472,0.647-1.096,0.971-1.873,0.971    c-0.529,0-0.978-0.175-1.347-0.525c-0.723-0.682-1.085-1.565-1.085-2.65c0-0.693,0.139-1.352,0.417-1.976s0.674-1.179,1.19-1.662    c0.516-0.483,1.01-0.809,1.481-0.977c0.472-0.167,0.912-0.251,1.319-0.251H61.218z M57.667,4.215    c-0.068,0.514-0.103,0.929-0.103,1.245c0,0.365,0.067,0.762,0.203,1.19s0.336,0.768,0.603,1.02    c0.194,0.179,0.43,0.269,0.708,0.269c0.331,0,0.627-0.156,0.888-0.468c0.261-0.313,0.391-0.758,0.391-1.336    c0-0.651-0.129-1.215-0.388-1.69c-0.259-0.476-0.626-0.714-1.102-0.714c-0.145,0-0.3,0.03-0.465,0.091S57.99,4.013,57.667,4.215z"/>
		<path fill="#212830" d="M69.875,2.65l-0.668,2.279c-0.247,0.853-0.397,1.394-0.451,1.622c-0.054,0.228-0.08,0.411-0.08,0.548    c0,0.122,0.041,0.225,0.123,0.309c0.082,0.084,0.184,0.125,0.306,0.125c0.278,0,0.612-0.139,1.002-0.417    c0.39-0.278,0.724-0.729,1.002-1.354c0.278-0.624,0.417-1.275,0.417-1.953c0-0.651-0.157-1.252-0.471-1.805    c-0.314-0.552-0.757-0.976-1.33-1.271c-0.573-0.295-1.206-0.443-1.898-0.443c-0.879,0-1.696,0.233-2.45,0.7    s-1.351,1.138-1.79,2.013c-0.439,0.876-0.66,1.786-0.66,2.73c0,0.876,0.193,1.671,0.58,2.387c0.387,0.716,0.93,1.257,1.63,1.625    c0.7,0.367,1.454,0.551,2.261,0.551c1.001,0,1.906-0.268,2.715-0.805c0.809-0.537,1.434-1.321,1.875-2.353h0.331    c-0.342,1.043-0.965,1.889-1.867,2.536c-0.902,0.647-1.93,0.971-3.083,0.971c-0.906,0-1.747-0.214-2.523-0.643    c-0.777-0.428-1.38-1.036-1.81-1.822s-0.646-1.651-0.646-2.596c0-1.005,0.236-1.943,0.708-2.813    c0.472-0.87,1.133-1.549,1.984-2.039C65.932,0.245,66.835,0,67.79,0c0.788,0,1.499,0.163,2.133,0.488s1.116,0.801,1.447,1.428    s0.497,1.292,0.497,1.996c0,0.697-0.155,1.387-0.465,2.07c-0.311,0.683-0.706,1.181-1.185,1.493    c-0.479,0.313-0.98,0.468-1.501,0.468c-0.29,0-0.507-0.068-0.654-0.206c-0.146-0.137-0.22-0.329-0.22-0.577    c0-0.213,0.034-0.493,0.103-0.839c-0.563,0.682-1.014,1.123-1.353,1.325c-0.339,0.202-0.638,0.303-0.896,0.303    c-0.271,0-0.51-0.121-0.72-0.363c-0.209-0.242-0.314-0.564-0.314-0.968c0-0.552,0.18-1.171,0.54-1.856    c0.36-0.686,0.836-1.243,1.431-1.673c0.438-0.316,0.83-0.474,1.176-0.474c0.255,0,0.467,0.065,0.637,0.197    s0.285,0.329,0.346,0.591l0.188-0.628L69.875,2.65z M67.87,2.884c-0.286,0-0.575,0.15-0.868,0.451    c-0.43,0.441-0.798,1.037-1.102,1.787c-0.225,0.548-0.337,0.99-0.337,1.325c0,0.24,0.067,0.435,0.203,0.585    s0.287,0.226,0.454,0.226c0.221,0,0.453-0.084,0.696-0.251s0.499-0.425,0.765-0.774c0.267-0.348,0.46-0.697,0.583-1.048    c0.213-0.605,0.32-1.098,0.32-1.479c0-0.251-0.07-0.451-0.208-0.6C68.236,2.958,68.068,2.884,67.87,2.884z"/>
		<path fill="#212830" d="M73.938,1.136l1.884-0.919h0.188v6.54c0,0.434,0.018,0.704,0.054,0.811    c0.036,0.107,0.111,0.188,0.226,0.246s0.346,0.09,0.697,0.097v0.211h-2.912V7.91c0.365-0.007,0.602-0.039,0.708-0.094    s0.181-0.129,0.223-0.223s0.063-0.372,0.063-0.836V2.576c0-0.563-0.019-0.925-0.057-1.085c-0.027-0.122-0.075-0.211-0.146-0.269    c-0.071-0.057-0.155-0.086-0.254-0.086c-0.141,0-0.337,0.059-0.588,0.177L73.938,1.136z"/>
		<path fill="#212830" d="M83.503,0.377l-0.446,0.971h-2.329l-0.508,1.04c1.009,0.148,1.808,0.523,2.398,1.125    c0.506,0.518,0.759,1.127,0.759,1.828c0,0.407-0.083,0.784-0.248,1.131c-0.166,0.346-0.374,0.642-0.625,0.885    c-0.251,0.244-0.531,0.439-0.839,0.588c-0.438,0.209-0.887,0.314-1.347,0.314c-0.465,0-0.802-0.079-1.014-0.237    c-0.211-0.158-0.317-0.332-0.317-0.522c0-0.106,0.043-0.201,0.131-0.283c0.087-0.082,0.198-0.123,0.331-0.123    c0.099,0,0.186,0.015,0.26,0.045c0.074,0.031,0.201,0.108,0.38,0.234c0.286,0.198,0.575,0.297,0.868,0.297    c0.445,0,0.836-0.168,1.173-0.505s0.505-0.747,0.505-1.231c0-0.468-0.15-0.905-0.451-1.311s-0.715-0.719-1.245-0.939    c-0.415-0.171-0.98-0.271-1.696-0.297l1.485-3.01H83.503z"/>
		<path fill="#212830" d="M84.685,4.295c0-0.883,0.133-1.644,0.4-2.282c0.266-0.638,0.62-1.113,1.062-1.425    c0.342-0.248,0.696-0.372,1.062-0.372c0.594,0,1.126,0.303,1.599,0.908c0.59,0.75,0.885,1.767,0.885,3.05    c0,0.898-0.13,1.662-0.389,2.29c-0.259,0.628-0.589,1.084-0.99,1.368c-0.402,0.284-0.789,0.426-1.162,0.426    c-0.739,0-1.353-0.436-1.844-1.308C84.892,6.215,84.685,5.331,84.685,4.295z M85.804,4.438c0,1.066,0.131,1.936,0.394,2.61    c0.217,0.567,0.541,0.851,0.971,0.851c0.206,0,0.418-0.092,0.64-0.277c0.221-0.185,0.388-0.494,0.502-0.928    c0.175-0.655,0.263-1.578,0.263-2.77c0-0.883-0.091-1.62-0.274-2.21c-0.137-0.438-0.314-0.748-0.531-0.931    c-0.156-0.125-0.345-0.188-0.565-0.188c-0.259,0-0.489,0.116-0.691,0.349c-0.274,0.316-0.46,0.813-0.56,1.491    S85.804,3.779,85.804,4.438z"/>
	</g>
	<g>
		<path fill="#212830" d="M232.33,7.732l-0.543,1.491h-4.566V9.011c1.343-1.226,2.289-2.227,2.837-3.004s0.822-1.487,0.822-2.13    c0-0.491-0.15-0.895-0.451-1.21s-0.66-0.474-1.079-0.474c-0.381,0-0.723,0.111-1.025,0.334s-0.525,0.549-0.67,0.979h-0.211    c0.094-0.704,0.339-1.245,0.732-1.622c0.395-0.377,0.887-0.565,1.477-0.565c0.628,0,1.152,0.202,1.573,0.605    c0.421,0.404,0.631,0.879,0.631,1.428c0,0.392-0.091,0.785-0.274,1.177c-0.281,0.617-0.738,1.27-1.37,1.958    c-0.948,1.036-1.54,1.66-1.776,1.874h2.021c0.412,0,0.699-0.015,0.865-0.046c0.166-0.03,0.314-0.092,0.448-0.186    s0.249-0.226,0.349-0.397H232.33z"/>
	</g>
	<g>
		<path fill="#212830" d="M237.768,2.821c0.064-0.232,0.098-0.41,0.098-0.531c0-0.156-0.05-0.295-0.148-0.417    c-0.1-0.122-0.339-0.183-0.72-0.183l0.058-0.211h3.459l-0.057,0.211c-0.449,0.007-0.784,0.08-1.005,0.217s-0.397,0.444-0.53,0.919    c0.883,0.034,1.538,0.254,1.967,0.66c0.428,0.406,0.643,0.892,0.643,1.459c0,0.788-0.346,1.467-1.037,2.039    c-0.69,0.571-1.702,0.87-3.035,0.896c-0.061,0.248-0.091,0.432-0.091,0.554c0,0.183,0.063,0.325,0.188,0.425    c0.125,0.101,0.387,0.151,0.782,0.151l-0.063,0.211h-3.489l0.063-0.211c0.416,0,0.733-0.074,0.954-0.223s0.386-0.451,0.497-0.908    c-0.91-0.042-1.573-0.265-1.99-0.671c-0.416-0.405-0.625-0.886-0.625-1.442c0-0.769,0.333-1.442,0.999-2.019    S236.379,2.862,237.768,2.821z M237.682,3.146c-0.883,0-1.59,0.286-2.123,0.857c-0.533,0.571-0.8,1.222-0.8,1.953    c0,0.982,0.542,1.517,1.628,1.604L237.682,3.146z M237.533,7.561c0.876,0,1.582-0.283,2.119-0.851s0.805-1.22,0.805-1.959    c0-0.982-0.542-1.517-1.627-1.605L237.533,7.561z"/>
	</g>
	<g>
		<path fill="#212830" d="M243.955,5.322c-0.613-0.502-1.008-0.906-1.186-1.21c-0.176-0.305-0.266-0.621-0.266-0.948    c0-0.502,0.195-0.936,0.583-1.299c0.388-0.363,0.904-0.545,1.548-0.545c0.624,0,1.127,0.169,1.507,0.508    c0.381,0.339,0.571,0.726,0.571,1.16c0,0.289-0.104,0.584-0.309,0.885s-0.634,0.655-1.285,1.062    c0.67,0.518,1.113,0.925,1.331,1.222c0.289,0.388,0.434,0.798,0.434,1.228c0,0.544-0.208,1.01-0.622,1.396    c-0.415,0.386-0.959,0.58-1.633,0.58c-0.734,0-1.308-0.23-1.719-0.691c-0.328-0.369-0.491-0.772-0.491-1.21    c0-0.343,0.115-0.683,0.345-1.02C242.994,6.102,243.392,5.729,243.955,5.322z M244.223,5.539    c-0.315,0.267-0.549,0.557-0.701,0.871c-0.152,0.314-0.229,0.654-0.229,1.019c0,0.491,0.134,0.884,0.402,1.18    c0.268,0.295,0.609,0.442,1.025,0.442c0.41,0,0.74-0.116,0.987-0.348c0.247-0.232,0.371-0.514,0.371-0.845    c0-0.274-0.073-0.52-0.218-0.737C245.592,6.717,245.045,6.19,244.223,5.539z M244.852,4.711c0.457-0.411,0.746-0.736,0.867-0.974    c0.122-0.238,0.184-0.507,0.184-0.808c0-0.4-0.113-0.713-0.338-0.939s-0.53-0.34-0.919-0.34c-0.388,0-0.704,0.112-0.948,0.337    c-0.243,0.225-0.365,0.487-0.365,0.788c0,0.198,0.051,0.396,0.152,0.594c0.1,0.198,0.244,0.387,0.431,0.565L244.852,4.711z"/>
	</g>
	
		<line fill="none" stroke="#212830" stroke-width="0.5" stroke-linecap="square" stroke-miterlimit="10" x1="214.357" y1="13.642" x2="257.027" y2="13.642"/>
	
		<line fill="none" stroke="#212830" stroke-width="0.5" stroke-linecap="square" stroke-miterlimit="10" x1="1.534" y1="33.989" x2="365.535" y2="33.989"/>
	
		<line fill="none" stroke="#212830" stroke-width="0.5" stroke-linecap="square" stroke-miterlimit="10" x1="383.318" y1="33.989" x2="419.502" y2="33.989"/>
	
		<line fill="none" stroke="#212830" stroke-width="0.5" stroke-linecap="square" stroke-miterlimit="10" x1="1.534" y1="84.702" x2="1.534" y2="130.119"/>
	
		<line fill="none" stroke="#212830" stroke-width="0.5" stroke-linecap="square" stroke-miterlimit="10" x1="341.84" y1="130.119" x2="365.535" y2="130.119"/>
	
		<line fill="none" stroke="#212830" stroke-width="0.5" stroke-linecap="square" stroke-miterlimit="10" x1="27.216" y1="44.538" x2="27.216" y2="75.478"/>
	
		<line fill="none" stroke="#212830" stroke-width="0.5" stroke-linecap="square" stroke-miterlimit="10" x1="41.072" y1="44.538" x2="41.072" y2="75.478"/>
	
		<line fill="none" stroke="#212830" stroke-width="0.5" stroke-linecap="square" stroke-miterlimit="10" x1="54.883" y1="44.538" x2="54.883" y2="75.478"/>
	
		<line fill="none" stroke="#212830" stroke-width="0.5" stroke-linecap="square" stroke-miterlimit="10" x1="68.739" y1="44.538" x2="68.739" y2="75.478"/>
	
		<line fill="none" stroke="#212830" stroke-width="0.5" stroke-linecap="square" stroke-miterlimit="10" x1="82.595" y1="44.538" x2="82.595" y2="75.478"/>
	
		<line fill="none" stroke="#212830" stroke-width="0.5" stroke-linecap="square" stroke-miterlimit="10" x1="96.451" y1="44.538" x2="96.451" y2="75.478"/>
	
		<line fill="none" stroke="#212830" stroke-width="0.5" stroke-linecap="square" stroke-miterlimit="10" x1="110.263" y1="44.538" x2="110.263" y2="75.478"/>
	
		<line fill="none" stroke="#212830" stroke-width="0.5" stroke-linecap="square" stroke-miterlimit="10" x1="124.118" y1="44.538" x2="124.118" y2="75.478"/>
	
		<line fill="none" stroke="#212830" stroke-width="0.5" stroke-linecap="square" stroke-miterlimit="10" x1="137.974" y1="44.538" x2="137.974" y2="75.478"/>
	
		<line fill="none" stroke="#212830" stroke-width="0.5" stroke-linecap="square" stroke-miterlimit="10" x1="151.786" y1="44.538" x2="151.786" y2="75.478"/>
	
		<line fill="none" stroke="#212830" stroke-width="0.5" stroke-linecap="square" stroke-miterlimit="10" x1="165.642" y1="44.538" x2="165.642" y2="75.478"/>
	
		<line fill="none" stroke="#212830" stroke-width="0.5" stroke-linecap="square" stroke-miterlimit="10" x1="179.497" y1="44.538" x2="179.497" y2="75.478"/>
	
		<line fill="none" stroke="#212830" stroke-width="0.5" stroke-linecap="square" stroke-miterlimit="10" x1="193.353" y1="44.538" x2="193.353" y2="75.478"/>
	
		<line fill="none" stroke="#212830" stroke-width="0.5" stroke-linecap="square" stroke-miterlimit="10" x1="207.165" y1="44.538" x2="207.165" y2="75.478"/>
	
		<line fill="none" stroke="#212830" stroke-width="0.5" stroke-linecap="square" stroke-miterlimit="10" x1="221.021" y1="44.538" x2="221.021" y2="75.478"/>
	
		<line fill="none" stroke="#212830" stroke-width="0.5" stroke-linecap="square" stroke-miterlimit="10" x1="234.877" y1="44.538" x2="234.877" y2="75.478"/>
	
		<line fill="none" stroke="#212830" stroke-width="0.5" stroke-linecap="square" stroke-miterlimit="10" x1="248.732" y1="44.538" x2="248.732" y2="75.478"/>
	
		<line fill="none" stroke="#212830" stroke-width="0.5" stroke-linecap="square" stroke-miterlimit="10" x1="262.544" y1="44.538" x2="262.544" y2="75.478"/>
	
		<line fill="none" stroke="#212830" stroke-width="0.5" stroke-linecap="square" stroke-miterlimit="10" x1="276.399" y1="44.538" x2="276.399" y2="75.478"/>
	
		<line fill="none" stroke="#212830" stroke-width="0.5" stroke-linecap="square" stroke-miterlimit="10" x1="290.256" y1="44.538" x2="290.256" y2="75.478"/>
	
		<line fill="none" stroke="#212830" stroke-width="0.5" stroke-linecap="square" stroke-miterlimit="10" x1="304.111" y1="44.538" x2="304.111" y2="75.478"/>
	
		<line fill="none" stroke="#212830" stroke-width="0.5" stroke-linecap="square" stroke-miterlimit="10" x1="317.923" y1="44.538" x2="317.923" y2="75.478"/>
	
		<line fill="none" stroke="#212830" stroke-width="0.5" stroke-linecap="square" stroke-miterlimit="10" x1="331.778" y1="44.538" x2="331.778" y2="75.478"/>
	
		<line fill="none" stroke="#212830" stroke-width="0.5" stroke-linecap="square" stroke-miterlimit="10" x1="345.634" y1="44.538" x2="345.634" y2="75.478"/>
	
		<line fill="none" stroke="#212830" stroke-width="0.5" stroke-linecap="square" stroke-miterlimit="10" x1="1.534" y1="84.702" x2="1.534" y2="33.989"/>
	
		<line fill="none" stroke="#212830" stroke-width="0.5" stroke-linecap="square" stroke-miterlimit="10" x1="383.318" y1="84.702" x2="383.318" y2="33.989"/>
	
		<line fill="none" stroke="#212830" stroke-width="0.5" stroke-linecap="square" stroke-miterlimit="10" x1="341.84" y1="84.702" x2="341.84" y2="130.119"/>
	
		<line fill="none" stroke="#212830" stroke-width="0.5" stroke-linecap="square" stroke-miterlimit="10" x1="10.757" y1="75.478" x2="355.651" y2="75.478"/>
	
		<line fill="none" stroke="#212830" stroke-width="0.5" stroke-linecap="square" stroke-miterlimit="10" x1="365.535" y1="84.702" x2="1.534" y2="84.702"/>
	
		<line fill="none" stroke="#212830" stroke-width="0.5" stroke-linecap="square" stroke-miterlimit="10" x1="419.502" y1="84.702" x2="383.318" y2="84.702"/>
	
		<line fill="none" stroke="#212830" stroke-width="0.5" stroke-linecap="square" stroke-miterlimit="10" x1="25.23" y1="130.119" x2="25.23" y2="84.702"/>
	
		<line fill="none" stroke="#212830" stroke-width="0.5" stroke-linecap="square" stroke-miterlimit="10" x1="10.757" y1="44.538" x2="355.651" y2="44.538"/>
	
		<line fill="none" stroke="#212830" stroke-width="0.5" stroke-linecap="square" stroke-miterlimit="10" x1="365.535" y1="33.989" x2="365.535" y2="84.702"/>
	
		<line fill="none" stroke="#212830" stroke-width="0.5" stroke-linecap="square" stroke-miterlimit="10" x1="419.502" y1="33.989" x2="419.502" y2="84.702"/>
	
		<line fill="none" stroke="#212830" stroke-width="0.5" stroke-linecap="square" stroke-miterlimit="10" x1="1.534" y1="130.119" x2="25.23" y2="130.119"/>
	
		<line fill="none" stroke="#212830" stroke-width="0.5" stroke-linecap="square" stroke-miterlimit="10" x1="365.535" y1="130.119" x2="365.535" y2="84.702"/>
</g>
</svg>
